<?xml version="1.0" encoding="UTF-8" standalone="no"?>
<!-- Created with Inkscape (http://www.inkscape.org/) -->

<svg
   version="1.1"
   id="svg1"
   width="780.47998"
   height="209.28"
   viewBox="0 0 780.47998 209.28"
   sodipodi:docname="logo.svg"
   inkscape:version="1.2.2 (b0a8486541, 2022-12-01)"
   xmlns:inkscape="http://www.inkscape.org/namespaces/inkscape"
   xmlns:sodipodi="http://sodipodi.sourceforge.net/DTD/sodipodi-0.dtd"
   xmlns="http://www.w3.org/2000/svg"
   xmlns:svg="http://www.w3.org/2000/svg">
  <defs
     id="defs1" />
  <sodipodi:namedview
     id="namedview1"
     pagecolor="#505050"
     bordercolor="#eeeeee"
     borderopacity="1"
     inkscape:showpageshadow="0"
     inkscape:pageopacity="0"
     inkscape:pagecheckerboard="0"
     inkscape:deskcolor="#505050"
     inkscape:zoom="0.58425585"
     inkscape:cx="340.60421"
     inkscape:cy="122.37789"
     inkscape:window-width="1920"
     inkscape:window-height="1043"
     inkscape:window-x="0"
     inkscape:window-y="0"
     inkscape:window-maximized="1"
     inkscape:current-layer="g1"
     showgrid="false" />
  <g
     inkscape:groupmode="layer"
     inkscape:label="Image"
     id="g1">
    <path
       id="path293"
       class="s0"
       d="m 514.15563,116.27312 -18.9264,-0.0551 -5.0116,-9.85789 c -2.7352,-5.43376 -5.2501,-10.371883 -5.5622,-10.977681 -0.3305,-0.605788 -0.771,-1.542014 -1.0097,-2.092732 -0.2203,-0.550718 -0.569,-1.119795 -0.771,-1.285004 -0.3304,-0.27537 -0.3488,-0.826088 -0.3855,-18.00853 l -0.055,-17.71481 h -5.0482 -5.0483 l -0.037,29.977492 -0.055,29.959155 h -15.4202 -15.4201 l -0.037,-32.804534 c -0.018,-18.045239 -0.037,-33.814177 -0.037,-35.025763 v -2.202882 l 29.7389,0.05507 c 18.5592,0.03668 30.5833,0.128499 31.9968,0.238638 6.1864,0.532358 11.9139,2.313021 16.1361,5.011551 4.7728,3.065679 7.5448,6.773843 8.7931,11.785405 0.459,1.817383 0.514,2.31302 0.4957,5.213479 0,2.64345 -0.073,3.524607 -0.4039,4.956482 -1.3034,5.598966 -3.8,10.151589 -6.9574,12.666539 -0.6425,0.495648 -1.285,0.991296 -1.4686,1.083086 -0.257,0.14686 -0.055,0.642508 1.6338,4.001895 8.5728,16.943794 12.2443,24.268374 12.3545,24.598814 0.073,0.27536 0.019,0.40386 -0.2203,0.45893 -0.1836,0.0367 -8.8482,0.0367 -19.2752,0.0184 z m 95.6783,-0.34878 c 0.1102,-0.42223 3.4879,-7.34293 10.7391,-22.010434 2.5516,-5.14005 5.8559,-11.840475 7.3429,-14.869433 4.4608,-9.123584 10.5738,-21.496415 13.4926,-27.352403 l 2.7536,-5.507199 h 27.077 27.0771 l 0.055,35.025775 0.037,35.007404 h -13.6945 -13.6945 l 0.1284,-14.99793 c 0.092,-8.260801 0.092,-21.771778 0,-30.014216 l -0.1284,-15.016291 -5.342,0.01839 c -2.9555,0 -5.6541,0.03668 -6.0396,0.110139 l -0.6792,0.110139 -0.055,17.457823 -0.055,17.457812 -1.2667,2.57002 c -1.9642,4.001892 -5.2134,10.683964 -8.0404,16.521584 -1.4135,2.93718 -2.6435,5.43377 -2.7536,5.56228 -0.1469,0.18357 -4.2222,0.23864 -18.6144,0.27536 l -18.4491,0.0367 z m -416.4357,0.1285 -4.8831,-0.0918 1.7807,-3.67146 c 0.9913,-2.01931 2.8637,-5.87434 4.1671,-8.53615 1.3217,-2.68017 2.772,-5.654062 3.2309,-6.608642 0.4589,-0.972937 1.9091,-3.983546 3.2492,-6.700425 8.4627,-17.292592 16.54,-33.795817 19.9361,-40.80831 l 1.7072,-3.524617 h 26.3978 c 14.5207,0 26.5814,0.05507 26.8201,0.110139 l 0.4038,0.110139 v 34.952334 34.952342 h -14.594 -14.5941 l -0.037,-29.977501 -0.055,-29.959154 -4.7913,-0.05507 -4.7912,-0.05507 -0.1102,8.683016 c -0.073,4.772902 -0.1285,12.6849 -0.1285,17.604672 v 8.921655 l -1.8541,3.836674 c -2.6434,5.452128 -5.7825,11.968978 -7.6366,15.860738 -0.6425,1.35844 -1.4686,3.06567 -1.8357,3.79996 l -0.6793,1.34008 -13.4008,-0.0551 c -7.3796,-0.0184 -15.6221,-0.0734 -18.3023,-0.1285 z m 106.1603,-0.1285 c -5.9477,-0.91787 -10.6839,-4.75455 -13.0887,-10.59218 -0.973,-2.36809 -1.6338,-5.911074 -1.6338,-8.774802 V 95.32742 l 14.6491,-0.05507 c 8.0405,-0.03668 14.6675,-0.03668 14.7226,0 0.055,0.03668 0.1101,2.423168 0.1101,5.32362 0.018,2.90046 0.037,5.36034 0.055,5.47049 0.018,0.16521 1.1749,0.20193 4.571,0.16521 l 4.5342,-0.0733 -0.073,-9.876244 c -0.037,-7.122632 -0.1101,-9.912952 -0.2753,-10.023091 -0.1101,-0.07335 -5.2135,-0.128499 -11.3265,-0.128499 -11.8588,0 -12.8317,-0.07335 -15.5854,-0.954576 -2.4965,-0.807727 -4.0018,-1.743954 -5.9661,-3.726546 -1.0096,-1.009646 -2.1111,-2.313021 -2.4599,-2.900448 -3.5613,-6.076277 -3.9468,-15.934147 -0.8627,-22.432643 0.9729,-2.056022 1.597,-3.010598 3.0106,-4.534262 3.2125,-3.469526 6.8472,-4.993191 12.7032,-5.305259 3.7449,-0.20194 27.2423,-0.20194 32.4007,0 3.3777,0.128499 4.3323,0.238638 5.8193,0.624136 3.084,0.807739 5.6907,2.349742 7.8936,4.681123 3.2309,3.432816 4.7362,7.544861 5.1951,14.208564 l 0.092,1.431875 h -15.2365 -15.2366 l -0.037,-5.470489 -0.055,-5.452119 -4.5342,-0.05507 -4.5526,-0.05507 -0.037,7.80186 c -0.037,4.295613 -0.055,8.793155 -0.055,9.96802 v 2.166173 l 12.1158,0.09175 c 13.3458,0.11014 13.7864,0.14686 16.797,1.303365 3.598,1.376805 7.0308,4.607692 8.6095,8.077229 2.5334,5.598978 2.772,14.006627 0.5508,19.477121 -2.5517,6.35163 -7.4715,10.1516 -14.1168,10.95932 -0.973,0.1285 -8.1323,0.18357 -19.2752,0.18357 -14.4472,-0.0184 -18.0269,-0.0733 -19.422,-0.29372 z m 63.4797,-34.640276 V 46.331742 l 0.5507,-0.110139 c 0.2937,-0.05507 15.9892,-0.110139 34.8605,-0.110139 31.2442,-0.01839 34.3098,0.01839 34.42,0.275359 0.055,0.165219 0.1101,4.662751 0.1101,10.004741 v 9.692662 l -0.9545,0.110139 c -0.5324,0.07335 -7.2879,0.09175 -15.0163,0.07335 l -14.0434,-0.05507 -0.055,-5.011551 -0.037,-4.993191 h -4.9565 -4.9564 v 10.004742 10.004741 h 14.9612 14.9612 v 4.95647 4.95647 h -13.9883 c -7.7101,0 -14.4472,0.05507 -14.9796,0.110139 l -0.9545,0.110139 0.037,9.949672 0.055,9.931304 h 4.8646 4.8647 l 0.055,-5.01154 0.037,-4.993194 h 15.053 15.053 v 10.004734 10.00475 h -34.9707 -34.9707 c 0,0 0,-34.952346 0,-34.952346 z m 188.9885,34.658626 c -7.8936,-1.2483 -13.309,-6.84729 -14.8143,-15.31001 -0.3488,-2.037664 -0.3488,-36.751347 0.018,-38.733928 0.8628,-4.772913 3.0473,-8.848237 6.2048,-11.601836 1.6521,-1.431864 4.6811,-2.918808 7.0308,-3.469537 2.9372,-0.660857 6.4067,-0.770996 24.0481,-0.660857 16.1728,0.07335 16.6685,0.09175 18.4491,0.477288 3.6164,0.789367 6.2415,2.184522 8.7014,4.626042 3.1208,3.120748 4.8096,6.828923 5.342,11.767044 0.092,0.972936 0.1835,4.350683 0.1835,7.471431 v 5.709128 h -14.9612 -14.9612 V 66.212714 56.207973 h -4.6811 -4.6811 v 24.947592 c 0,13.731277 0.055,24.984315 0.1468,25.039385 0.073,0.0367 2.1845,0.0367 4.6811,-0.0184 l 4.5526,-0.0917 -0.019,-9.839524 -0.018,-9.839522 1.1566,-0.05507 c 0.6425,-0.01839 7.3796,-0.05507 14.9979,-0.09175 l 13.8231,-0.03668 -0.092,6.883993 c -0.073,6.131339 -0.1285,7.067563 -0.4773,8.646303 -0.9179,4.18546 -2.4966,7.06758 -5.342,9.74773 -1.7439,1.67053 -3.2309,2.6251 -5.3236,3.43283 -3.1942,1.22994 -2.1478,1.17487 -23.222,1.22994 -15.7139,0.0367 -19.3854,0 -20.7438,-0.22029 z M 706.68713,81.284064 V 46.331742 l 0.5508,-0.110139 c 0.8444,-0.165209 41.4508,-0.128499 47.5454,0.05507 4.9381,0.146849 5.5623,0.20193 7.1777,0.624137 2.313,0.624158 3.4512,1.083086 5.1217,2.074382 3.7816,2.239591 6.6637,5.782558 8.0957,9.949672 0.624,1.817373 1.0829,4.88304 1.0829,7.269502 0,3.744873 -0.6792,6.792203 -2.1294,9.711 -1.0096,2.019313 -2.0193,3.359409 -3.8367,5.048271 -2.4232,2.257951 -5.2134,3.726546 -8.7197,4.570983 -1.9091,0.477288 -1.9642,0.477288 -11.2347,0.550718 l -9.3255,0.07335 V 71.169173 56.207951 h -3.6714 -3.6715 v 30.014212 30.014217 h -13.4926 -13.4927 c 0,0 0,-34.952338 0,-34.952338 z"
       style="fill:#000000;stroke-width:0.183573" />
    <path
       style="fill:#000000;stroke-width:0.179476"
       d="M 19.55658,135.17211 8.92161,116.88788 19.44312,98.785826 c 5.78682,-9.956134 10.60264,-18.203017 10.70181,-18.326404 0.1424,-0.177185 4.6218,-0.224354 21.3087,-0.224354 19.90061,0 21.14395,0.01819 21.39619,0.314091 0.4663,0.546898 21.16539,36.300101 21.09511,36.437261 -0.0369,0.072 -4.81959,8.3084 -10.62816,18.30297 l -10.56101,18.17197 -21.2821,-0.003 -21.28211,-0.003 z m 95.54915,17.88616 c -0.1411,-0.22251 -4.88697,-8.35983 -10.54649,-18.08295 -6.42782,-11.04308 -10.28621,-17.84682 -10.27989,-18.1271 0.006,-0.25475 4.55361,-8.24528 10.52145,-18.486042 l 10.51133,-18.037365 h 21.2977 21.2977 l 10.5797,18.199445 c 5.8189,10.009682 10.5768,18.288022 10.5731,18.396312 0,0.10827 -4.7593,8.35406 -10.5681,18.32396 l -10.5615,18.12709 -21.2843,0.0456 -21.2842,0.0456 z M 62.16025,62.060565 C 56.34833,52.067392 51.59268,43.810394 51.59212,43.711684 c -5.3e-4,-0.09871 4.75466,-8.355691 10.56714,-18.348846 l 10.56813,-18.1693635 21.3342,0.04229 21.33424,0.04228 10.5648,18.1270875 c 5.8107,9.969898 10.5369,18.248241 10.5027,18.396301 -0.034,0.148071 -4.7889,8.386023 -10.566,18.30657 l -10.5037,18.037356 -21.33315,0.04227 -21.33309,0.04227 z"
       id="path902" />
  </g>
</svg>
