<?xml version="1.0" encoding="UTF-8" standalone="no"?>
<!-- Created with Inkscape (http://www.inkscape.org/) -->

<svg
   version="1.1"
   id="svg2"
   width="748"
   height="748"
   viewBox="0 0 748 748"
   sodipodi:docname="bruner.svg"
   inkscape:version="1.2.2 (b0a8486541, 2022-12-01)"
   xmlns:inkscape="http://www.inkscape.org/namespaces/inkscape"
   xmlns:sodipodi="http://sodipodi.sourceforge.net/DTD/sodipodi-0.dtd"
   xmlns="http://www.w3.org/2000/svg"
   xmlns:svg="http://www.w3.org/2000/svg">
  <defs
     id="defs6" />
  <sodipodi:namedview
     id="namedview4"
     pagecolor="#505050"
     bordercolor="#ffffff"
     borderopacity="1"
     inkscape:showpageshadow="0"
     inkscape:pageopacity="0"
     inkscape:pagecheckerboard="1"
     inkscape:deskcolor="#505050"
     showgrid="false"
     inkscape:zoom="1.0494652"
     inkscape:cx="778.49172"
     inkscape:cy="277.76051"
     inkscape:window-width="2512"
     inkscape:window-height="1011"
     inkscape:window-x="0"
     inkscape:window-y="0"
     inkscape:window-maximized="1"
     inkscape:current-layer="g8" />
  <g
     inkscape:groupmode="layer"
     inkscape:label="Image"
     id="g8">
    <path
       style="fill:#000000"
       d="m 345.16752,747.33538 c -33.3153,-3.26524 -57.7058,-8.11955 -85.0814,-16.93329 C 138.85322,691.37039 44.382625,590.70695 13.273105,467.40964 5.3531659,436.02034 2.1675359,409.51219 2.1675359,374.99849 c 0,-49.9598 7.9319591,-92.38953 25.7047291,-137.5 C 65.351525,142.36935 142.51902,65.207457 237.66752,27.718395 c 49.6505,-19.5625978 98.8654,-27.72714656 154,-25.5479796 68.3504,2.7015128 134.8803,24.7807186 192.5,63.8847436 83.0785,56.381781 141.0342,145.934381 157.897,243.981111 20.8673,121.33019 -17.3928,242.51142 -103.8703,328.98892 -50.4156,50.41565 -112.6098,84.79251 -181.5267,100.33612 -28.4225,6.41045 -50.4824,8.66067 -83,8.46644 -13.75,-0.0821 -26.575,-0.3037 -28.5,-0.49237 z m 51,-41.325 c 81.8838,-6.91387 154.1449,-40.2377 211.4781,-97.52494 53.7676,-53.72446 86.8212,-122.53553 96.0642,-199.98695 2.2431,-18.79567 2.252,-55.07572 0.018,-74 -6.9051,-58.49905 -27.0734,-110.928 -61.2571,-159.24196 -21.0752,-29.78695 -52.6158,-60.42118 -84.3034,-81.880946 -43.543,-29.488593 -90.9042,-47.348748 -146,-55.057447 -18.1061,-2.533308 -64.2859,-2.526888 -83,0.01154 -50.6984,6.876869 -94.9465,22.641385 -136.362,48.58239 C 60.558785,169.74618 2.8515259,333.04261 53.616135,480.78156 96.666321,606.06944 210.95662,695.07976 342.66752,705.89732 c 14.4186,1.18421 40.1694,1.23863 53.5,0.11306 z m -51.5,-8.02663 c -66.3968,-5.84252 -126.6717,-29.65953 -177.8311,-70.26807 -12.1069,-9.61009 -35.0405,-31.8453 -45.0902,-43.71719 -42.453195,-50.15066 -67.594865,-107.39236 -76.204625,-173.5 -2.15072,-16.51377 -2.44448,-58.13189 -0.52232,-74 7.42277,-61.27762 28.08795,-113.79505 63.274745,-160.80335 32.0371,-42.80026 69.7906,-74.22932 117.3735,-97.711139 45.6105,-22.508448 85.7705,-32.44876 136.1205,-33.69226 24.5624,-0.606622 39.7151,0.320459 61.108,3.738756 137.4734,21.966371 247.1367,130.933963 270.182,268.467993 3.2904,19.63713 4.3085,32.79373 4.2949,55.5 -0.045,74.31711 -23.5078,142.22914 -69.7895,202 -10.6932,13.8099 -38.0749,41.53399 -51.8981,52.54707 -24.105,19.20473 -58.1103,38.98264 -85.6368,49.80739 -24.1122,9.48208 -52.9276,16.75741 -79.881,20.16838 -14.8725,1.88213 -51.4494,2.69878 -65.5,1.46242 z m 54.5,-44.0131 c 28.6907,-1.99463 54.1399,-6.01416 83,-13.10934 19.6487,-4.83056 48.1155,-14.04421 61.4222,-19.88005 l 9.5778,-4.20052 v -42.39113 c 0,-23.31511 -0.2362,-42.39112 -0.5249,-42.39112 -0.2888,0 -3.6964,1.59706 -7.5724,3.54903 -29.4728,14.84224 -75.864,28.16171 -121.9027,34.99969 -14.6825,2.18075 -48.2364,2.95715 -67,1.5503 -77.7674,-5.83081 -129.803,-17.49592 -161.1691,-36.13017 -3.6743,-2.18287 -6.9394,-3.96885 -7.2557,-3.96885 -0.3164,0 -0.5752,19.31009 -0.5752,42.91132 v 42.91132 l 22.75,7.51078 c 52.7585,17.41791 96.6307,26.68298 137.25,28.98492 13.253,0.75106 38.6492,0.58199 52,-0.34618 z m -42.5,-9.3838 c -1.65,-0.73335 -4.125,-2.5507 -5.5,-4.03855 -2.4255,-2.62458 -2.5099,-3.20204 -2.8339,-19.3775 -0.1837,-9.16977 -0.031,-20.38481 0.3397,-24.92231 l 0.6738,-8.25 6.6602,-2e-5 6.6602,-3e-5 v 24.25003 c 0,23.58335 0.055,24.25002 2,24.25002 1.9028,0 2.0304,-0.87506 2.6252,-18 0.3439,-9.9 0.6814,-20.5875 0.75,-23.75 l 0.1248,-5.75 h 7.0466 7.0466 l -0.6509,23.25 c -0.7278,25.99919 -1.3414,28.61774 -7.4772,31.90837 -4.0743,2.18511 -13.0206,2.40536 -17.4651,0.42999 z m 38.4866,-1.33836 c -0.01,-0.9625 -0.8775,-13.44241 -1.9335,-27.73313 -1.0561,-14.29072 -1.7724,-26.13085 -1.5919,-26.31139 0.1805,-0.18054 2.7864,-0.58196 5.7908,-0.89204 l 5.4626,-0.56379 4.8179,12.12518 c 2.6498,6.66884 5.1749,12.12517 5.6113,12.12517 0.4364,0 0.6182,-0.5625 0.404,-1.25 -0.2142,-0.6875 -0.6757,-6.33572 -1.0256,-12.5516 l -0.6362,-11.30161 5.807,0.30161 5.807,0.3016 1.8974,27.26925 c 1.0436,14.99808 1.7186,27.42346 1.5,27.61194 -0.2185,0.18849 -2.9447,0.59317 -6.0581,0.89929 l -5.6607,0.55659 -4.1492,-11.11432 c -2.282,-6.11288 -4.5834,-11.81372 -5.1142,-12.66854 -0.9289,-1.49603 -0.4038,16.53996 0.6284,21.58167 0.4967,2.42646 -1.6002,3.32791 -7.7936,3.35047 -2.9049,0.0106 -3.753,-0.38072 -3.7634,-1.73635 z m -67.3859,-0.46872 c -3.2447,-0.41067 -6.0426,-0.8899 -6.2177,-1.06496 -0.1751,-0.17505 0.2078,-5.58219 0.8508,-12.01586 1.2068,-12.07506 0.7232,-14.6654 -2.5067,-13.42597 -0.9947,0.38168 -1.7953,4.12172 -2.7302,12.75418 l -1.3228,12.21413 -6.5538,-0.67146 c -3.6045,-0.36929 -6.755,-0.87274 -7.001,-1.11876 -0.2461,-0.24602 1.042,-12.8235 2.8623,-27.94995 l 3.3097,-27.50263 2.6044,0.0198 c 3.7262,0.0283 15.9346,1.86026 20.3999,3.0611 6.9002,1.85564 9.4564,10.07694 6.3488,20.41909 -0.934,3.10819 -1.8905,4.22466 -4.2905,5.00767 l -3.0886,1.00766 2.8674,2.62716 c 3.2919,3.01615 3.5197,5.87814 1.5419,19.37149 l -1.1746,8.01398 -5.8993,-0.74668 z m -2.5759,-37.34638 c 1.7082,-4.49312 1.2052,-9.24146 -1.1104,-10.48074 -1.1471,-0.61391 -2.2496,-0.95227 -2.45,-0.7519 -0.2003,0.20037 -0.6739,3.38682 -1.0524,7.08102 -0.6589,6.43074 -0.5961,6.71672 1.4747,6.71672 1.4015,0 2.5061,-0.9029 3.1381,-2.5651 z m 116.5509,34.33966 c -1.0554,-3.53671 -8.8145,-53.86912 -8.3724,-54.31123 0.2829,-0.28286 4.5154,-1.1854 9.4055,-2.00564 4.8902,-0.82024 9.8827,-1.71208 11.0945,-1.98185 1.8939,-0.42163 2.2924,0.0371 2.8373,3.26683 0.3487,2.06653 0.836,4.50037 1.0828,5.40854 0.3584,1.31884 -0.5765,1.7922 -4.6445,2.35169 -4.9679,0.68326 -5.0794,0.77177 -4.536,3.59879 1.8338,9.54008 1.4359,8.86524 4.878,8.27261 1.7485,-0.30105 3.7416,-0.7193 4.4291,-0.92945 0.6875,-0.21014 1.2696,-0.0587 1.2936,0.33653 0.024,0.39524 0.4146,2.63742 0.8683,4.98263 0.8853,4.57714 1.0256,4.4349 -5.4119,5.48408 -1.6913,0.27564 -1.9677,1.01485 -1.7906,4.78893 0.3916,8.34741 0.8601,9.12507 5.0697,8.41552 2.0465,-0.34495 4.4489,-0.82433 5.3387,-1.06529 1.2805,-0.34677 1.76,0.63398 2.2999,4.70406 0.3752,2.82819 0.5422,5.28214 0.3711,5.45322 -0.1711,0.17108 -4.581,1.02538 -9.7999,1.89844 -5.2189,0.87306 -10.5113,1.81661 -11.7608,2.09677 -1.3539,0.30354 -2.4257,-0.006 -2.6524,-0.76518 z m -174.5757,-7.61709 c -11.0763,-2.58293 -11.487,-2.77276 -11.1477,-5.15221 0.1937,-1.35875 3.0062,-13.63027 6.25,-27.27004 3.2437,-13.63976 5.8977,-24.94821 5.8977,-25.12987 0,-0.18167 3.3978,0.47922 7.5507,1.46863 19.2472,4.58563 21.8809,6.65112 21.2494,16.66525 -0.4516,7.16086 -2.9724,11.47135 -7.1703,12.26077 l -2.6588,0.5 3.1308,2.94449 c 2.8558,2.68591 3.081,3.34456 2.564,7.5 -0.8586,6.90169 -3.5441,14.93387 -5.7209,17.11061 -2.5408,2.54083 -5.8357,2.39254 -19.9449,-0.89763 z m 10.1274,-10.90747 c 0.5929,-1.5125 1.1442,-5 1.2253,-7.75 0.1276,-4.32953 -0.1264,-5.03918 -1.8939,-5.29219 -1.743,-0.24951 -2.2189,0.55388 -3.2577,5.5 -0.669,3.1857 -1.4904,6.80469 -1.8254,8.04219 -0.5194,1.91915 -0.2205,2.25 2.0324,2.25 1.9536,0 2.9221,-0.71614 3.7193,-2.75 z m 5.7748,-24.39922 c 1.7158,-4.92206 1.3705,-8.63447 -0.917,-9.85872 -2.2774,-1.21881 -2.3489,-1.10962 -3.9341,6.00794 -1.4341,6.43922 -1.3259,7 1.3511,7 1.7953,0 2.6795,-0.79559 3.5,-3.14922 z m 195.5854,35.89922 c -0.2473,-0.6875 -3.6049,-12.70044 -7.4614,-26.69543 -4.887,-17.73457 -6.6704,-25.65645 -5.8851,-26.14177 0.6197,-0.38298 6.2032,-1.93377 12.4079,-3.44619 11.2176,-2.73436 11.2995,-2.73919 14.5186,-0.85823 4.0733,2.3801 7.1055,8.13721 7.7347,14.68589 0.4476,4.65817 0.2548,5.24915 -2.4079,7.37974 -2.6916,2.15381 -2.7425,2.3164 -0.7262,2.32102 5.431,0.0124 6.898,2.08111 10.2858,14.50497 1.1998,4.4 2.3945,8.7502 2.6548,9.6671 0.3671,1.29292 -0.7488,2.02238 -4.9716,3.25 -2.9948,0.8706 -5.8479,1.5829 -6.3404,1.5829 -0.4924,0 -1.9273,-3.9375 -3.1887,-8.75 -2.9906,-11.40968 -4.6497,-15.25 -6.5884,-15.25 -2.7222,0 -2.6453,2.20593 0.4632,13.27624 1.6594,5.90965 3.0171,11.15814 3.0171,11.66333 0,0.85525 -9.4213,4.06043 -11.9353,4.06043 -0.6201,0 -1.3298,-0.5625 -1.5771,-1.25 z m 7.8895,-36.03643 c 1.5632,-1.14306 1.6261,-1.81545 0.5641,-6.03277 -1.2168,-4.83252 -3.5512,-7.15792 -5.794,-5.77179 -0.9768,0.60373 -0.876,2.09643 0.4679,6.93023 0.942,3.38842 2.003,6.16076 2.3577,6.16076 0.3547,0 1.4366,-0.5789 2.4043,-1.28643 z m -301.3771,-42.69917 v -31.98561 l 5.75,-2.89944 c 5.2473,-2.64596 14.9631,-6.91102 21.25,-9.32834 l 2.5,-0.96126 -3,-1.59207 c -1.65,-0.87563 -6.15,-2.46768 -10,-3.53788 -12.9999,-3.61362 -49.7556,-3.34124 -52.0591,0.38579 -0.311,0.50331 4.075,9.8002 9.7468,20.65976 5.6718,10.85956 10.4593,20.31496 10.639,21.01201 0.3168,1.22913 -6.4241,15.10714 -15.5347,31.98264 l -4.454,8.25 h 17.581 17.581 z m 405,31.36028 c 0,-0.34392 -4.4761,-9.24164 -9.947,-19.77271 l -9.947,-19.14738 11.0123,-20.86202 c 6.0567,-11.47412 10.6454,-21.21499 10.197,-21.64639 -3.4238,-3.294 -33.7676,-3.96475 -47.8153,-1.05695 -10.0364,2.07748 -16.9226,4.618 -16.1046,5.94148 0.2966,0.47995 2.6915,1.68814 5.322,2.68488 2.6304,0.99673 8.9451,3.73738 14.0326,6.09033 l 9.25,4.27809 v 32.05799 32.058 h 17 c 9.35,0 17,-0.28139 17,-0.62532 z m -204.2369,-16.92131 c 5.648,-3.95598 7.1833,-21.10816 7.2142,-80.59496 l 0.023,-43.64159 2.5851,-0.64881 c 3.0059,-0.75444 6.2074,0.0478 8.6131,2.1584 1.5776,1.38403 1.49,1.66506 -1.2335,3.95677 -5.6144,4.7242 -6.2019,8.98805 -6.519,47.31682 -0.1571,18.975 -0.5836,38.90165 -0.948,44.28144 -0.6759,9.97969 0.098,23.44667 1.4758,25.67571 0.9486,1.53475 14.8202,-0.34291 16.7583,-2.2684 0.6775,-0.67307 1.6923,-3.65184 2.2551,-6.61948 2.0023,-10.55829 5.2451,-53.87008 5.4334,-72.56927 0.1862,-18.49879 0.2639,-19.15109 2.9485,-24.72753 1.5165,-3.15014 4.0528,-10.8573 5.6362,-17.12702 2.5715,-10.18174 2.7766,-12.12296 1.9199,-18.17202 -0.5275,-3.7249 -0.8292,-6.90241 -0.6705,-7.06115 1.2745,-1.27451 19.4281,-5.63557 23.9685,-5.75798 4.9849,-0.1344 6.0696,0.19194 8.4123,2.53077 2.0844,2.08099 2.7915,3.91519 3.1429,8.15286 0.3979,4.79757 0.1941,5.60658 -1.6623,6.60011 -1.1637,0.62278 -2.1158,1.99532 -2.1158,3.05009 0,3.03808 2.1342,6.91967 4.1576,7.5619 3.1094,0.98687 12.1098,-2.25856 18.0397,-6.50484 10.2779,-7.35991 15.8027,-17.42782 15.8027,-28.79774 0,-4.59369 -0.3095,-5.51562 -2,-5.9577 -1.6074,-0.42034 -2,-1.36402 -2,-4.80701 0,-5.99385 3.2559,-24.34542 7.3597,-41.48274 12.1394,-50.69269 12.2635,-72.70539 0.5555,-98.52674 -14.3583,-31.66649 -50.7081,-62.2804 -88.9152,-74.88464 -18.7894,-6.19848 -24.4018,-6.90093 -50.4099,-6.30924 -24.893,0.56633 -36.8747,2.08825 -49.3137,6.26389 -16.6941,5.60402 -25.7903,11.78351 -43.9447,29.85396 -7.7926,7.75652 -17.9351,17.70277 -22.5388,22.10277 -6.8826,6.578 -9.1098,9.51087 -12.5304,16.5 -10.0042,20.44087 -12.7146,49.59624 -7.7161,83 3.4007,22.72627 6.8923,31.46912 20.3579,50.97478 l 5.1601,7.47478 -3.7822,1.27903 c -7.6296,2.58011 -10.3078,9.48763 -6.8694,17.717 1.3634,3.26307 1.3282,3.40261 -1.0084,3.98905 -2.2169,0.55642 -2.3698,0.96455 -1.8113,4.83653 1.4497,10.05111 11.7457,25.72883 16.8968,25.72883 1.2293,0 3.9339,-1.35 6.0101,-3 4.7224,-3.75291 9.0742,-3.90729 14.0952,-0.5 5.3919,3.65905 11.6797,3.07141 15.123,-1.41334 2.569,-3.34601 1.5327,-4.08666 -5.7182,-4.08666 -3.85,0 -7,-0.1882 -7,-0.41821 0,-0.23002 -0.2731,-1.13002 -0.607,-2 -0.3692,-0.96231 -0.076,-1.58454 0.75,-1.58882 0.7464,-0.004 4.732,-2.71274 8.857,-6.01973 9.1438,-7.33052 16.5762,-11.13002 22.9748,-11.74484 4.2659,-0.4099 5.0089,-0.18295 6.412,1.95851 1.3055,1.99245 1.3796,2.97187 0.4173,5.52119 -0.9182,2.43262 -0.8717,4.34175 0.2165,8.87768 1.0654,4.44107 1.1077,5.87145 0.1828,6.17975 -1.9793,0.65978 -1.3811,8.29694 1.3558,17.30824 2.7352,9.00568 2.5375,6.36459 5.7721,77.12508 1.1436,25.01866 1.4547,27.90723 3.2151,29.85238 4.0579,4.4839 11.9488,6.53949 14.1988,3.69877 0.5778,-0.72961 1.2768,-15.57409 1.6789,-35.65696 0.5683,-28.38858 0.386,-38.0765 -1.0424,-55.38565 -1.6791,-20.34789 -1.6755,-21.01941 0.1206,-22.33271 1.0184,-0.74471 1.9912,-1.21455 2.1616,-1.04409 0.1705,0.17046 1.0272,26.60331 1.9038,58.73967 0.8766,32.13636 1.7683,58.99224 1.9817,59.67974 0.2676,0.86246 2.8491,1.25 8.3267,1.25 h 7.9388 l 0.6098,-5.75 c 0.3353,-3.1625 0.8691,-30.1625 1.1863,-60 l 0.5765,-54.25 h 2.3463 2.3462 l -0.1748,59.59174 c -0.1694,57.78048 -0.1162,59.63454 1.7512,61 2.5286,1.84902 6.5548,1.78916 9.3067,-0.13837 z m -2.7631,-151.02129 c 0,-3.89083 -0.8135,-6.15839 -4.25,-11.84675 l -4.25,-7.0349 0.1236,-10.81543 c 0.068,-5.94848 0.3914,-11.08328 0.7188,-11.41067 1.4405,-1.44051 5.6454,3.02703 7.4904,7.95829 1.1002,2.94045 3.4598,7.79227 5.2436,10.78182 4.3813,7.34284 4.946,13.82311 1.728,19.83009 -1.2947,2.41699 -3.3554,5.05938 -4.5792,5.87197 -2.1966,1.45849 -2.2252,1.41572 -2.2252,-3.33442 z m -26.6341,1.06423 c -3.9893,-3.13108 -6.7266,-9.75993 -5.8843,-14.24972 0.8491,-4.52638 10.7844,-23.90185 14.4842,-28.24659 l 2.9804,-3.5 0.027,12.86919 0.027,12.86919 -3.6446,5.9996 c -2.4742,4.07297 -3.8389,7.72063 -4.25,11.35893 l -0.6054,5.35931 z m 51.3247,-43.92751 c -11.5362,-3.33869 -26.1885,-10.41262 -24.6756,-11.91313 0.2667,-0.26461 10.835,-5.77581 23.485,-12.2471 12.65,-6.47129 26.825,-14.31276 31.5,-17.42549 26.4639,-17.62032 47.2432,-27.06403 52.8947,-24.03943 1.9087,1.02152 2.1037,1.98708 2.088,10.34153 -0.022,11.84424 -2.0625,21.39755 -6.4921,30.3995 -6.6558,13.52635 -13.6003,17.33451 -41.5772,22.79973 -16.5161,3.2264 -30.5595,4.0128 -37.2228,2.08439 z m -108.1906,-0.64079 c -22.4059,-3.07062 -36.3771,-10.71546 -43.2917,-23.68854 -4.696,-8.81058 -6.2083,-15.97585 -6.2083,-29.41439 0,-11.00032 0.1378,-11.82847 2.1475,-12.904 4.6624,-2.49523 14.4136,2.22755 49.1613,23.81007 29.401,18.26161 41.2161,24.69151 52.0651,28.33428 l 7.8739,2.64382 -3.3739,2.54705 c -4.5689,3.44917 -9.5195,5.38075 -18.6739,7.28595 -9.4155,1.95954 -30.2154,2.68558 -39.7,1.38576 z m -83.7053,147.19974 -0.2947,-6.95975 -13.8885,5.88789 c -7.6388,3.23834 -14.0949,6.09415 -14.3469,6.34624 -0.5582,0.55818 4.9949,3.5056 18.2354,9.67875 l 10,4.66233 0.2947,-6.32785 c 0.1621,-3.48032 0.1621,-9.45975 0,-13.28761 z m 324.2053,12.60496 c 6.875,-3.42799 12.4315,-6.67501 12.3477,-7.2156 -0.1803,-1.16316 -26.5046,-12.44055 -27.5977,-11.82288 -0.4125,0.23309 -0.75,6.02225 -0.75,12.86479 0,11.18847 0.1762,12.43924 1.75,12.42369 0.9625,-0.01 7.375,-2.822 14.25,-6.25 z m -312.6803,-53.63087 c 2.1468,-1.30566 2.8078,-1.02186 9.9896,4.28936 4.3832,3.24153 7.6907,5.10083 7.6907,4.32332 0,-0.75032 -1.125,-4.67185 -2.5,-8.71452 -1.375,-4.04267 -2.4926,-7.83399 -2.4836,-8.42515 0.01,-0.59117 3.4816,-3.54985 7.7171,-6.57485 l 7.7007,-5.5 -10.0724,-0.28339 -10.0725,-0.28338 -2.7264,-9.08482 c -1.4996,-4.99664 -3.0838,-8.69412 -3.5205,-8.21661 -0.4367,0.47751 -2.0119,4.5807 -3.5003,9.1182 l -2.7063,8.25 h -9.4179 c -5.1798,0 -9.395,0.3375 -9.3671,0.75 0.028,0.4125 3.3675,3.11442 7.4213,6.00426 l 7.3705,5.25426 -2.255,7.24574 c -1.2403,3.98516 -2.6056,8.32258 -3.0341,9.63871 -0.6991,2.14735 -0.1505,1.94207 5.3441,-2 3.3677,-2.41613 7.1576,-5.02214 8.4221,-5.79113 z m 276.82,3.70497 c 3.6518,-2.64375 6.9718,-4.80681 7.3777,-4.80681 0.4059,0 3.8491,2.30639 7.6517,5.12531 3.8025,2.81893 7.1584,4.88053 7.4576,4.58135 0.2992,-0.29919 -0.648,-4.45197 -2.1049,-9.2284 -1.4569,-4.77643 -2.5078,-8.77567 -2.3354,-8.8872 0.1725,-0.11153 3.6744,-2.65264 7.7819,-5.64692 l 7.4683,-5.44414 -9.9263,-0.5 -9.9263,-0.5 -2.702,-8.5 c -1.4862,-4.675 -3.0801,-8.37214 -3.5421,-8.21586 -0.4619,0.15628 -1.9771,3.98128 -3.3671,8.5 l -2.5273,8.21586 -9.9727,0.5 -9.9728,0.5 5.5,4.09082 c 3.025,2.24996 6.5299,4.72496 7.7887,5.5 2.5279,1.55649 2.5674,1.12539 -1.2088,13.17298 -1.4261,4.54968 -1.9464,7.47112 -1.2567,7.05681 0.6472,-0.38885 4.1647,-2.87006 7.8165,-5.5138 z m 41.8201,-274.30681 c 0,-0.55 -0.8842,-2.125 -1.9598,-3.5 -1.0755,-1.375 -1.9655,-2.81077 -1.9777,-3.1906 -0.012,-0.37984 8.3027,-6.36306 18.4777,-13.29606 10.175,-6.93299 18.5,-12.80868 18.5,-13.05708 0,-0.43422 -6.5795,-10.04749 -8.0879,-11.81705 -0.6172,-0.72413 -42.7059,27.0511 -46.7511,30.85203 -1.1054,1.03869 -0.1706,3.01283 5.3595,11.31872 l 6.6984,10.0606 4.8726,-3.18528 c 2.6799,-1.7519 4.8707,-3.63528 4.8683,-4.18528 z m -7.1442,-39.27283 16.3156,-23.72717 -7.798,-7.25 c -4.2889,-3.9875 -8.1762,-7.25 -8.6384,-7.25 -0.4621,0 -10.7464,8.15898 -22.8539,18.13107 l -22.0137,18.13107 5.3023,5.36893 c 2.9162,2.95291 5.7461,5.36893 6.2887,5.36893 0.5427,0 2.4747,-1.44229 4.2934,-3.20508 3.0649,-2.97057 3.4268,-3.08509 4.9468,-1.56509 1.52,1.52001 1.4142,1.91916 -1.4467,5.45509 l -3.0867,3.81508 5.1533,5.25 c 2.8344,2.8875 5.6188,5.23972 6.1876,5.22717 0.5687,-0.0126 8.3761,-10.70006 17.3497,-23.75 z m -16.7166,-4.6079 c -0.9146,-1.10205 0.07,-2.43397 4.8776,-6.59895 3.3129,-2.87001 6.0234,-4.9145 6.0234,-4.54331 0,0.71765 -8.8952,12.52299 -9.436,12.52299 -0.1755,0 -0.8348,-0.62133 -1.465,-1.38073 z m -286.8824,17.71753 c 2.9059,-2.56476 5.4194,-4.99773 5.5856,-5.40661 0.1662,-0.40888 -2.8713,-4.33892 -6.75,-8.73343 -3.8787,-4.39451 -7.0522,-8.21653 -7.0522,-8.49339 0,-0.27685 1.5485,-2.05184 3.4411,-3.94443 6.4968,-6.49687 6.0606,-10.69628 -2.1119,-20.3296 -6.5501,-7.7208 -10.397,-9.80164 -15.5104,-8.38974 -3.826,1.05641 -20.3853,14.54551 -20.2042,16.45826 0.093,0.9841 36.3512,43.50214 37.0973,43.50214 0.1217,0 2.5989,-2.09844 5.5047,-4.6632 z m -20.1279,-35.97339 c -4.5714,-5.19334 -4.9688,-6.36341 -2.1615,-6.36341 1.994,0 8.0728,6.52764 8.0728,8.66883 0,2.85019 -2.091,2.03471 -5.9113,-2.30542 z m 292.4822,-2.10868 c 8.6595,-12.5099 15.912,-23.4224 16.1166,-24.25 0.454,-1.83624 -11.3993,-9.73741 -12.6018,-8.40015 -2.0056,2.23022 -32.2612,46.54374 -31.9433,46.78533 1.9582,1.48832 12.2425,8.61009 12.4335,8.61009 0.1377,0 7.3354,-10.23537 15.995,-22.74527 z m -242.6172,15.19311 c 6.7051,-3.92973 6.6153,-3.27557 1.5705,-11.44784 -1.1884,-1.925 -3.6255,-6.0875 -5.4158,-9.25 -3.0657,-5.41538 -3.1354,-5.75 -1.1978,-5.75 1.5574,0 3.5495,2.55777 8.1957,10.52253 l 6.1382,10.52253 6.1278,-3.48026 c 3.3702,-1.91414 6.0432,-3.86534 5.9399,-4.336 -0.4947,-2.25379 -10.6552,-18.93951 -12.4702,-20.4788 -1.135,-0.9625 -3.1545,-1.75 -4.488,-1.75 -2.087,0 -2.2803,-0.26914 -1.3892,-1.93426 1.7064,-3.18842 1.1802,-6.28018 -2.018,-11.85711 -3.2217,-5.61774 -7.833,-9.18123 -11.9468,-9.23203 -2.4658,-0.0305 -18.612,7.71351 -23.0282,11.04469 l -2.2713,1.71327 13.3086,23.38272 c 14.1666,24.89024 14.7824,25.88272 16.0598,25.88272 0.4532,0 3.5513,-1.59847 6.8848,-3.55216 z m -14.3485,-39.03862 c -3.0591,-5.47329 -3.227,-6.67561 -0.8686,-6.22142 0.9552,0.18394 2.7575,2.18494 4.0051,4.44667 1.9177,3.47639 2.052,4.29188 0.8685,5.27406 -1.1333,0.94057 -1.896,0.2742 -4.005,-3.49931 z m 224.8339,28.22268 c 2.4537,-1.60774 8.5609,-12.20752 8.5609,-14.85847 0,-1.11156 -10.9582,-6.24901 -13.3675,-6.26697 -0.4771,-0.004 -1.7437,2.24354 -2.8147,4.99354 -2.3844,6.12243 -3.8138,7.73925 -5.7719,6.52867 -1.5698,-0.97055 -1.6775,-0.65573 8.649,-25.27867 3.4844,-8.30816 4.9396,-10.75 6.4068,-10.75 2.4579,0 2.3985,0.80873 -0.6017,8.19228 -1.375,3.38389 -2.5,6.54972 -2.5,7.03516 0,0.91372 9.3513,5.36752 12.4823,5.94499 1.3699,0.25267 2.333,-1.14986 4.2124,-6.13415 4.4482,-11.79687 2.6857,-18.36472 -6.2394,-23.251346 -7.171,-3.926218 -12.3723,-4.489596 -17.6887,-1.91596 -5.1619,2.49879 -6.2306,4.20258 -13.3952,21.353556 -6.6689,15.96469 -7.804,22.95484 -4.4844,27.61678 2.3071,3.23994 7.4497,6.79729 11.8771,8.21572 3.9595,1.26855 11.7131,0.51558 14.675,-1.42513 z m -170.994,-7.61344 c 6.5182,-2.18984 12.0144,-4.14465 12.2138,-4.34401 0.3028,-0.30278 -0.7477,-3.78825 -3.1329,-10.39513 -0.3388,-0.93825 -1.4052,-0.88041 -4.6091,0.25 -5.9575,2.10194 -6.462,1.93226 -7.8299,-2.63341 -0.6763,-2.25725 -1.4412,-4.65542 -1.6998,-5.32928 -0.2869,-0.7478 1.1476,-1.7099 3.6817,-2.46912 3.7657,-1.12823 4.1018,-1.49289 3.6142,-3.92072 -1.2686,-6.31667 -2.6133,-8.43001 -4.9509,-7.78094 -6.8158,1.89248 -6.3951,2.04168 -8.0653,-2.86006 l -1.5743,-4.620466 2.5188,-0.95766 c 1.3853,-0.52671 2.827,-0.96455 3.2037,-0.97297 0.3767,-0.008 1.2893,-0.39839 2.0281,-0.86659 1.1083,-0.70243 1.0308,-1.84207 -0.443,-6.517611 -0.9824,-3.116486 -2.2618,-5.492653 -2.8432,-5.280372 -0.5813,0.212282 -6.0737,2.049054 -12.2053,4.081717 l -11.1483,3.69575 9.1371,27.451202 c 5.0253,15.09817 9.3881,27.45121 9.6951,27.45121 0.3069,0 5.8912,-1.79169 12.4095,-3.98154 z m 133.9604,-3.76846 c 1.7863,-5.78652 14.5505,-53.61207 14.3446,-53.746865 -1.711,-1.119839 -14.097,-3.545022 -14.7248,-2.883122 -0.7607,0.802031 -15.0253,52.309087 -15.0253,54.254017 0,0.91685 9.1941,3.82352 12.6826,4.00957 1.2775,0.0681 2.4067,-0.60936 2.7229,-1.6336 z m -111.4055,-2.28254 c 2.475,-0.541 5.4652,-1.20169 6.6448,-1.46819 l 2.1447,-0.48455 -2.3896,-11.25736 c -1.3142,-6.19155 -2.3919,-11.36986 -2.3947,-11.50736 0,-0.1375 1.0073,-0.25988 2.2448,-0.27196 1.2375,-0.0121 4.1659,-0.89158 6.5074,-1.95443 6.7274,-3.05359 7.4219,-7.23648 3.6232,-21.820876 -1.7297,-6.640655 -4.4498,-9.937482 -8.8857,-10.769662 -4.2236,-0.792352 -25.4949,3.441111 -25.4949,5.074056 0,0.674659 2.475,13.087176 5.5,27.583372 3.025,14.4962 5.5,26.7061 5.5,27.13312 0,1.00429 1.4817,0.95007 7,-0.25616 z m 1.5272,-37.217456 c -2.5646,-11.292694 -2.3878,-13.467745 0.8327,-10.247239 1.6839,1.683906 3.2243,9.742979 2.184,11.426239 -1.0879,1.760276 -2.4721,1.219306 -3.0167,-1.179 z m 91.8961,33.999996 c 1.9518,-9.51707 1.9725,-9.43357 -2.4858,-10.03155 -2.2564,-0.30266 -4.2835,-0.73113 -4.5045,-0.95215 -0.221,-0.22102 1.0805,-10.27135 2.8922,-22.334066 2.3997,-15.977209 2.9845,-22.123584 2.154,-22.636999 -0.627,-0.387625 -4.0853,-1.006529 -7.6851,-1.375341 l -6.5451,-0.670568 -1.0699,6.375342 c -3.1999,19.068682 -7.4427,49.945012 -6.9331,50.454642 0.6969,0.69693 15.8429,3.14133 20.485,3.30604 2.5936,0.092 3.3219,-0.32915 3.6923,-2.13535 z m -38.6939,-2.71382 c 7.2859,-3.30741 8.2635,-6.09268 8.2611,-23.53618 0,-23.677117 -1.5087,-29.097991 -9.1908,-33.095005 -4.1896,-2.179835 -14.3106,-1.807848 -18.7536,0.68927 -6.835,3.841503 -7.5786,6.273342 -7.3096,23.905739 0.13,8.524996 0.5123,17.656216 0.8495,20.291586 0.6991,5.46369 4.1454,10.24633 8.8644,12.30181 4.4248,1.92733 12.3702,1.6711 17.279,-0.55722 z m -10.0113,-8.69022 c -0.2852,-0.46528 -0.8459,-9.22142 -1.2459,-19.45809 -0.5616,-14.369539 -0.4448,-18.78673 0.512,-19.378109 0.6817,-0.42129 1.5701,-0.230974 1.9742,0.422926 0.4041,0.6539 1.0098,9.149052 1.3459,18.878103 0.4864,14.07862 0.3378,17.96394 -0.7282,19.03517 -0.7367,0.74028 -1.5728,0.96528 -1.858,0.5 z"
       id="path293" />
  </g>
</svg>
