<?xml version="1.0" encoding="UTF-8" standalone="no"?>
<!-- Created with Inkscape (http://www.inkscape.org/) -->

<svg
   version="1.1"
   id="svg1"
   width="419.48001"
   height="532.28003"
   viewBox="0 0 419.48001 532.28003"
   sodipodi:docname="Logo-documento.svg"
   inkscape:version="1.2.2 (b0a8486541, 2022-12-01)"
   xml:space="preserve"
   xmlns:inkscape="http://www.inkscape.org/namespaces/inkscape"
   xmlns:sodipodi="http://sodipodi.sourceforge.net/DTD/sodipodi-0.dtd"
   xmlns="http://www.w3.org/2000/svg"
   xmlns:svg="http://www.w3.org/2000/svg"><defs
     id="defs1" /><sodipodi:namedview
     id="namedview1"
     pagecolor="#505050"
     bordercolor="#eeeeee"
     borderopacity="1"
     inkscape:showpageshadow="0"
     inkscape:pageopacity="0"
     inkscape:pagecheckerboard="0"
     inkscape:deskcolor="#505050"
     inkscape:zoom="1.1685117"
     inkscape:cx="465.54947"
     inkscape:cy="259.7321"
     inkscape:window-width="2512"
     inkscape:window-height="1011"
     inkscape:window-x="0"
     inkscape:window-y="0"
     inkscape:window-maximized="1"
     inkscape:current-layer="g1"
     showgrid="false" /><g
     inkscape:groupmode="layer"
     inkscape:label="Image"
     id="g1"><path
       style="fill:#ffff00;fill-opacity:0;stroke-width:1.21027"
       d="m -309.82888,474.42547 c 0,-14.32152 0.1291,-15.12836 2.42054,-15.12836 2.29144,0 2.42054,0.80684 2.42054,15.12836 0,14.32152 -0.1291,15.12836 -2.42054,15.12836 -2.29144,0 -2.42054,-0.80684 -2.42054,-15.12836 z"
       id="path928" /><path
       style="fill:#ffff00;fill-opacity:0;stroke-width:1.21027"
       d="m -309.82888,474.42547 c 0,-14.32152 0.1291,-15.12836 2.42054,-15.12836 2.29144,0 2.42054,0.80684 2.42054,15.12836 0,14.32152 -0.1291,15.12836 -2.42054,15.12836 -2.29144,0 -2.42054,-0.80684 -2.42054,-15.12836 z"
       id="path930" /><g
       id="g602"
       transform="matrix(0.41848134,0,0,0.41848134,-432.35289,353.20489)"><path
         id="path293"
         class="s0"
         d="m 1588.7948,193.77057 -31.5806,-0.0919 -8.3623,-16.44886 c -4.564,-9.06677 -8.7605,-17.30651 -9.2812,-18.31735 -0.5514,-1.0108 -1.2866,-2.573 -1.6847,-3.49192 -0.3676,-0.91894 -0.9495,-1.86849 -1.2865,-2.14416 -0.5513,-0.45948 -0.5819,-1.37841 -0.6433,-30.049 l -0.092,-29.55891 h -8.4234 -8.4236 l -0.062,50.0204 -0.092,49.9898 h -25.7301 -25.7301 l -0.062,-54.7376 c -0.03,-30.11026 -0.062,-56.42228 -0.062,-58.44394 v -3.67576 l 49.6222,0.0919 c 30.968,0.0612 51.0312,0.21441 53.3899,0.39818 10.3225,0.88829 19.8795,3.85952 26.9246,8.36228 7.964,5.11537 12.5893,11.30282 14.6723,19.6651 0.7658,3.03248 0.8576,3.8595 0.827,8.69921 0,4.41085 -0.1225,5.88115 -0.6739,8.27038 -2.1747,9.34243 -6.3406,16.93892 -11.6092,21.13536 -1.072,0.82704 -2.1442,1.65409 -2.4504,1.80724 -0.429,0.24506 -0.092,1.07209 2.7261,6.67755 14.3047,28.27239 20.431,40.49418 20.6147,41.04554 0.1224,0.45947 0.03,0.67389 -0.3676,0.76578 -0.3063,0.0612 -14.7641,0.0612 -32.1626,0.0308 z m 159.6486,-0.58199 c 0.1838,-0.70453 5.8199,-12.2524 17.9191,-36.72657 4.2579,-8.57668 9.7714,-19.75699 12.2525,-24.81111 7.4432,-15.22361 17.6434,-35.8689 22.5138,-45.64018 l 4.5947,-9.1893 h 45.1806 45.1808 l 0.092,58.44395 0.062,58.4133 h -22.8506 -22.8507 l 0.2143,-25.02552 c 0.153,-13.78395 0.153,-36.32835 0,-50.08167 l -0.2143,-25.05617 -8.9137,0.0307 c -4.9316,0 -9.4343,0.0613 -10.0776,0.18379 l -1.1333,0.18378 -0.092,29.13009 -0.092,29.13008 -2.1136,4.28833 c -3.2775,6.67756 -8.6992,17.82724 -13.4164,27.56789 -2.3585,4.90098 -4.4108,9.06678 -4.5946,9.28122 -0.2451,0.30629 -7.0452,0.39819 -31.0599,0.45946 l -30.784,0.0612 z m -694.8641,0.21442 -8.1478,-0.15317 2.9711,-6.12619 c 1.6541,-3.36943 4.7785,-9.80192 6.9533,-14.24342 2.2055,-4.47212 4.6254,-9.43436 5.3911,-11.02717 0.7658,-1.62342 3.1856,-6.64692 5.4217,-11.1803 14.1208,-28.8544 27.5985,-56.39167 33.2651,-68.09269 l 2.8488,-5.88118 h 44.0474 c 24.2291,0 44.3537,0.0919 44.7519,0.18378 l 0.6739,0.18378 v 58.3214 58.32143 h -24.3517 -24.3516 l -0.062,-50.02041 -0.092,-49.9898 -7.9947,-0.0919 -7.9947,-0.092 -0.1837,14.48848 c -0.1224,7.96405 -0.2145,21.16601 -0.2145,29.37512 v 14.88666 l -3.0938,6.40188 c -4.4107,9.0974 -9.6487,19.97141 -12.7423,26.4652 -1.0722,2.2667 -2.4505,5.11538 -3.0631,6.3406 l -1.1334,2.23606 -22.3607,-0.0919 c -12.3136,-0.0308 -26.0669,-0.12241 -30.539,-0.21441 z m 177.139,-0.21442 c -9.9243,-1.53154 -17.8272,-7.93343 -21.8398,-17.6741 -1.6235,-3.95138 -2.7263,-9.86318 -2.7263,-14.64161 v -2.05225 l 24.4436,-0.0919 c 13.4164,-0.0613 24.4742,-0.0613 24.5661,0 0.092,0.0613 0.1839,4.04329 0.1839,8.88297 0.03,4.83969 0.062,8.94425 0.092,9.12804 0.03,0.27567 1.9603,0.33695 7.6271,0.27567 l 7.5659,-0.12227 -0.1224,-16.47948 c -0.062,-11.88481 -0.1839,-16.54074 -0.4596,-16.72452 -0.1837,-0.12247 -8.6992,-0.21441 -18.8992,-0.21441 -19.7876,0 -21.411,-0.12248 -26.0058,-1.5928 -4.1658,-1.34778 -6.6774,-2.90996 -9.955,-6.21811 -1.6848,-1.6847 -3.5225,-3.8595 -4.1046,-4.83968 -5.9424,-10.13888 -6.5856,-26.58771 -1.4396,-37.43108 1.6235,-3.43067 2.6649,-5.02348 5.0235,-7.56586 5.3604,-5.78925 11.4253,-8.33163 21.1965,-8.85235 6.2488,-0.33696 45.4564,-0.33696 54.0637,0 5.6363,0.21442 7.229,0.3982 9.7101,1.04142 5.1461,1.3478 9.4956,3.92079 13.1714,7.81093 5.391,5.72798 7.9027,12.58935 8.6685,23.70839 l 0.153,2.38922 h -25.4237 -25.4236 l -0.062,-9.12805 -0.092,-9.0974 -7.5659,-0.0919 -7.5964,-0.0919 -0.062,13.01818 c -0.062,7.16764 -0.092,14.67223 -0.092,16.63262 v 3.61447 l 20.2165,0.15301 c 22.2686,0.18377 23.0037,0.24505 28.0273,2.17479 6.0036,2.29734 11.7317,7.68839 14.3659,13.47764 4.2272,9.34246 4.6253,23.37145 0.919,32.49951 -4.2577,10.59831 -12.4668,16.93894 -23.5552,18.2867 -1.6235,0.21442 -13.5696,0.30631 -32.1626,0.30631 -24.1066,-0.0308 -30.0797,-0.12227 -32.4076,-0.4901 z m 105.9221,-57.8007 V 77.06649 l 0.9188,-0.18378 c 0.4902,-0.0919 26.6797,-0.18378 58.1683,-0.18378 52.1339,-0.0307 57.2494,0.0307 57.4332,0.45946 0.092,0.27569 0.1838,7.78026 0.1838,16.6939 v 16.17316 l -1.5928,0.18378 c -0.8883,0.12247 -12.1605,0.15317 -25.0562,0.12247 l -23.4328,-0.092 -0.092,-8.36226 -0.062,-8.33162 h -8.2702 -8.2705 v 16.69388 16.6939 h 24.9643 24.9643 v 8.27036 8.27036 h -23.3409 c -12.865,0 -24.1065,0.0919 -24.9948,0.18378 l -1.5929,0.18377 0.062,16.60201 0.092,16.57136 h 8.1171 8.1173 l 0.092,-8.36224 0.062,-8.33164 h 25.1176 25.1174 v 16.69388 16.69391 h -58.3521 -58.3521 c 0,0 0,-58.32142 0,-58.32142 z m 315.3461,57.83133 c -13.1713,-2.08291 -22.2076,-11.42538 -24.7192,-25.54627 -0.582,-3.40003 -0.582,-61.32323 0.03,-64.63136 1.4396,-7.96409 5.0848,-14.76416 10.3532,-19.35882 2.7568,-2.3892 7.811,-4.87032 11.7317,-5.78927 4.901,-1.10269 10.6903,-1.28647 40.1267,-1.10269 26.9858,0.12248 27.8129,0.15301 30.7841,0.79641 6.0343,1.31712 10.4146,3.64508 14.5191,7.719 5.2073,5.20728 8.0253,11.39472 8.9137,19.63447 0.153,1.62344 0.3062,7.25953 0.3062,12.46682 v 9.52625 h -24.9643 -24.9643 v -16.6939 -16.6939 h -7.8107 -7.8111 v 41.62751 c 0,22.912 0.092,41.6888 0.2451,41.78069 0.1224,0.0612 3.6452,0.0612 7.8108,-0.0308 l 7.5965,-0.15299 -0.03,-16.41821 -0.03,-16.41821 1.9298,-0.092 c 1.0721,-0.0307 12.3137,-0.0919 25.0256,-0.15301 l 23.0652,-0.0613 -0.1534,11.48661 c -0.1225,10.23077 -0.2143,11.79292 -0.7964,14.42722 -1.5315,6.98384 -4.1659,11.79295 -8.9137,16.26503 -2.9098,2.78745 -5.391,4.38023 -8.883,5.72802 -5.3298,2.05228 -3.5838,1.9604 -38.7481,2.05228 -26.2202,0.0612 -32.3464,0 -34.6131,-0.36758 z m 258.0661,-57.83133 V 77.06649 l 0.9189,-0.18378 c 1.409,-0.27567 69.1647,-0.21442 79.3344,0.0919 8.2397,0.24503 9.2811,0.33694 11.9766,1.04144 3.8595,1.04145 5.7587,1.80722 8.5461,3.46131 6.31,3.73697 11.1191,9.64876 13.5083,16.602 1.0413,3.03246 1.8071,8.14784 1.8071,12.12987 0,6.24869 -1.1334,11.33346 -3.5531,16.20376 -1.6848,3.36943 -3.3695,5.60551 -6.402,8.42355 -4.0432,3.7676 -8.699,6.21811 -14.5497,7.62715 -3.1856,0.79638 -3.2775,0.79638 -18.7461,0.9189 l -15.5606,0.12249 V 118.51027 93.54601 h -6.1262 -6.1261 v 50.08167 50.08167 h -22.5138 -22.5138 c 0,0 0,-58.32141 0,-58.32141 z"
         style="fill:#000000;stroke-width:0.30631" /><path
         style="fill:#000000;stroke-width:0.53504"
         d="m 1549.1674,68.07061 -3.3441,-4.18252 -3.0764,-0.32588 c -7.1337,-0.75564 -11.2772,-3.48765 -14.1561,-9.33382 -1.7074,-3.46772 -1.7613,-3.78146 -1.7613,-10.27703 0,-8.10763 0.8553,-11.0708 4.3023,-14.90462 3.6355,-4.04353 6.664,-5.1711 13.8891,-5.1711 7.1679,0 10.2634,1.13713 13.7929,5.06688 3.4787,3.87315 4.3984,7.01142 4.3984,15.00884 0,6.48668 -0.056,6.81332 -1.7498,10.25372 -1.6026,3.25425 -3.9495,5.94946 -6.351,7.29344 -1.0213,0.57153 -0.8587,0.80812 5.489,7.98881 l 2.483,2.80894 -5.286,-0.0216 -5.286,-0.0216 -3.344,-4.18251 z m 1.3724,-12.82515 c 2.6326,-1.87455 3.9324,-4.93489 4.2486,-10.00362 0.6082,-9.74976 -2.6715,-14.67858 -9.7675,-14.67858 -7.0303,0 -10.3709,5.00714 -9.7697,14.64351 0.3099,4.96866 1.6127,8.17105 4.0059,9.84692 2.2385,1.56757 2.8155,1.71 6.3215,1.56036 2.359,-0.10066 3.7003,-0.47068 4.9612,-1.36859 z m -435.9576,8.15418 c -0.7357,-0.14163 -2.4813,-0.62486 -3.8789,-1.07384 l -2.5415,-0.8163 v -3.70227 c 0,-2.03625 0.1806,-3.70121 0.4012,-3.69994 0.2208,10e-4 2.0866,0.59813 4.1467,1.32632 6.1232,2.16464 11.53,1.68298 12.5965,-1.12221 1.1093,-2.91747 -0.3881,-4.62365 -6.9787,-7.95238 -5.1249,-2.58841 -7.1985,-4.39215 -8.6255,-7.50266 -1.8482,-4.02906 -0.9683,-8.48936 2.3514,-11.91927 2.0132,-2.08017 5.7632,-3.32934 9.9943,-3.32934 3.0658,0 9.8702,1.60558 10.8171,2.55243 0.4312,0.4313 -0.3968,3.16515 -1.93,6.3706 -0.025,0.0521 -1.367,-0.36129 -2.9823,-0.91884 -1.6154,-0.55756 -4.212,-1.02161 -5.7703,-1.03121 -2.3085,-0.0141 -3.0764,0.22573 -4.1465,1.29581 -2.7807,2.78059 -1.1569,5.11129 6.1898,8.88504 2.9894,1.53555 5.993,3.51514 6.8988,4.54675 4.5878,5.22516 2.8802,13.48904 -3.4245,16.57367 -2.3102,1.13025 -3.8766,1.47209 -7.3575,1.60558 -2.4324,0.0932 -5.0243,0.0536 -5.7601,-0.0879 z m 119.0462,0.005 c -4.9095,-1.25836 -8.0036,-3.52923 -10.0708,-7.39108 -1.1032,-2.061 -1.1738,-2.96551 -1.3298,-17.02397 l -0.1647,-14.84733 h 4.0038 4.0037 l 0.1739,13.77725 c 0.1524,12.09395 0.2923,13.99485 1.1455,15.55828 1.6691,3.05881 6.7281,4.2347 10.8354,2.51853 3.3237,-1.38873 3.648,-2.92495 3.8734,-18.34434 l 0.1974,-13.50972 h 3.9655 3.9657 v 13.54639 c 0,15.28561 -0.3514,17.43364 -3.4425,21.04484 -2.5836,3.01837 -6.3806,4.55505 -11.793,4.77275 -2.3614,0.095 -4.775,0.0493 -5.3635,-0.10167 z m 72.4978,-0.49356 c -5.255,-1.46894 -8.313,-4.19448 -10.8142,-9.63864 -1.0572,-2.30084 -1.2162,-3.51757 -1.22,-9.33372 0,-8.09424 0.85,-11.05751 4.298,-14.89249 3.6354,-4.04354 6.664,-5.17111 13.8891,-5.17111 5.0563,0 6.2833,0.17979 8.71,1.27632 3.4408,1.55469 6.9714,5.34177 8.3353,8.94073 1.3013,3.43373 1.7771,11.95674 0.8822,15.80267 -1.4327,6.15674 -5.1593,10.77551 -10.0982,12.51545 -3.5796,1.26112 -10.3897,1.50502 -13.9822,0.50079 z m 11.6718,-7.66614 c 2.6326,-1.87453 3.9323,-4.93487 4.2485,-10.00361 0.6083,-9.74975 -2.6715,-14.67858 -9.7674,-14.67858 -7.0303,0 -10.371,5.00715 -9.7698,14.6435 0.31,4.96868 1.6128,8.17106 4.006,9.84693 2.2385,1.56756 2.8155,1.70999 6.3215,1.56036 2.359,-0.10065 3.7003,-0.47068 4.9612,-1.3686 z m 263.7677,7.77593 c -3.654,-1.03379 -6.5817,-3.18591 -8.2919,-6.09549 l -1.501,-2.55341 -0.1644,-15.11484 -0.1642,-15.11485 h 4.0433 4.0432 l 0.029,13.24221 c 0.02,8.81068 0.244,13.85212 0.6688,15.06474 0.9313,2.65767 2.9987,3.95842 6.6507,4.18435 3.6283,0.22448 5.231,-0.47167 6.9465,-3.01732 1.1918,-1.76836 1.22,-2.12996 1.22,-15.64208 l 3e-4,-13.8319 h 4.3255 4.3256 l -0.179,14.31229 c -0.1772,14.15984 -0.1941,14.34424 -1.5858,17.31222 -2.356,5.02427 -6.5739,7.43695 -13.5743,7.76466 -2.5629,0.11995 -5.2887,-0.0849 -6.7933,-0.51058 z m 307.2174,0.37827 c -0.7356,-0.14165 -2.4811,-0.62487 -3.879,-1.07384 l -2.5414,-0.8163 v -3.70227 c 0,-2.03626 0.1806,-3.70123 0.4013,-3.69994 0.2208,0.001 2.0867,0.59811 4.1466,1.32631 6.1234,2.16465 11.5301,1.68298 12.5967,-1.1222 1.1092,-2.91747 -0.3881,-4.62367 -6.9789,-7.95238 -5.1248,-2.58842 -7.1984,-4.39216 -8.6254,-7.50267 -1.8482,-4.02907 -0.9683,-8.48935 2.3513,-11.91927 2.0133,-2.08017 5.7632,-3.32933 9.9944,-3.32933 3.0658,0 9.8702,1.60558 10.8171,2.55243 0.4313,0.4313 -0.3969,3.16514 -1.93,6.3706 -0.025,0.0521 -1.367,-0.3613 -2.9824,-0.91885 -1.6152,-0.55756 -4.212,-1.02161 -5.7702,-1.03121 -2.3085,-0.0141 -3.0765,0.22573 -4.1465,1.29582 -2.7805,2.78057 -1.1569,5.11128 6.1897,8.88502 2.9895,1.53557 5.9931,3.51516 6.8989,4.54675 4.5877,5.22516 2.8803,13.48905 -3.4245,16.57369 -2.3102,1.13024 -3.8767,1.47208 -7.3575,1.60558 -2.4324,0.0932 -5.0244,0.0536 -5.7602,-0.0879 z M 1048.2375,43.67166 V 24.14275 h 4.0127 4.0128 v 19.52891 19.52892 h -4.0128 -4.0127 z m 18.1912,-0.0194 V 24.10398 l 5.1444,0.15313 5.1444,0.15314 8.1708,14.07312 c 4.494,7.74023 8.2989,14.20133 8.4557,14.358 0.1567,0.15668 0.1469,-6.23642 -0.021,-14.20689 l -0.3065,-14.49176 h 3.8276 3.8276 v 19.52892 19.5289 l -5.2165,-0.008 -5.2166,-0.008 -7.8712,-13.77265 c -4.3293,-7.57495 -8.1816,-14.19747 -8.5607,-14.7167 -0.5672,-0.77679 -0.6601,1.6647 -0.5242,13.7806 l 0.1652,14.7247 h -3.5092 -3.5091 V 43.6522 Z m 81.3259,3.49712 V 31.09823 h -5.3503 -5.3505 v -3.47776 -3.47775 h 14.7136 14.7136 v 3.47775 3.47776 h -5.3504 -5.3504 v 16.05115 16.05116 h -4.0128 -4.0128 z m 24.6118,-3.47774 V 24.14277 h 4.2804 4.2802 v 19.52891 19.52891 h -4.2802 -4.2804 z m 25.1469,3.47774 V 31.09823 h -5.3505 -5.3503 v -3.47776 -3.47775 h 14.7135 14.7136 v 3.47775 3.47776 h -5.3503 -5.3505 v 16.05115 16.05116 h -4.0128 -4.0127 z m 72.7652,0 V 31.09823 h -5.0828 -5.0829 v -3.47776 -3.47775 h 14.7136 14.7134 v 3.47775 3.47776 h -5.3503 -5.3503 v 16.05115 16.05116 h -4.2804 -4.2803 z m 82.931,-3.53069 V 24.03683 l 9.2294,0.22154 c 7.9701,0.19131 9.647,0.3855 12.2904,1.42318 5.8063,2.27937 9.7109,7.51524 10.4677,14.03677 0.8321,7.16938 -0.6279,13.21841 -4.1616,17.24315 -4.0134,4.57084 -9.4862,6.21503 -20.7366,6.22978 l -7.0893,0.0101 z m 16.73,12.06038 c 2.6652,-0.74015 5.348,-3.50077 6.2154,-6.39595 0.9691,-3.23467 0.8674,-9.54487 -0.1949,-12.08719 -1.8907,-4.52526 -4.6488,-6.0977 -10.695,-6.0977 h -4.03 v 12.57341 12.57339 l 3.3441,-0.004 c 1.8392,-0.001 4.2513,-0.25499 5.3604,-0.56298 z m 23.933,-12.00743 V 24.14277 h 11.2613 11.2613 l -0.1593,3.34399 -0.1593,3.34399 -7.0892,0.14929 -7.0893,0.14928 v 4.26479 4.26478 h 6.688 6.6879 v 3.21022 3.21024 h -6.6879 -6.688 v 5.08287 5.08285 h 7.223 7.2231 v 3.47777 3.47775 h -11.2359 -11.2357 z m 44.9431,0 V 24.14277 h 5.582 c 4.8553,0 5.6173,0.12184 5.8546,0.93631 2.2487,7.71833 8.5788,27.7912 8.8619,28.10096 0.2073,0.22699 2.5379,-6.15335 5.1791,-14.17852 l 4.8022,-14.59124 5.7266,-0.15185 5.7267,-0.15186 v 19.547 19.54702 h -4.0982 -4.0983 l 0.2886,-15.38236 0.2884,-15.38236 -5.0554,15.40505 -5.0556,15.40506 -3.8412,-0.15647 -3.8414,-0.15644 -4.5484,-14.89609 -4.5485,-14.89608 -0.142,15.02985 -0.1422,15.02984 h -3.4694 -3.4695 z m 49.7428,10.567 c 1.7264,-4.92903 4.7836,-13.65686 6.794,-19.39515 l 3.6552,-10.43324 5.2166,-0.15314 c 2.8691,-0.0843 5.2165,-0.0746 5.2165,0.0213 0,0.0959 3.0097,8.68332 6.688,19.08308 3.6784,10.39975 6.6881,19.118 6.6881,19.37388 0,0.25586 -1.9184,0.4652 -4.2631,0.4652 h -4.263 l -1.4225,-4.56249 -1.4225,-4.56248 -7.2571,0.14842 -7.2569,0.14843 -1.3162,4.41405 -1.3162,4.41407 h -4.4398 -4.4398 z m 20.7282,-7.7896 c -0.1478,-0.38519 -1.3011,-4.11318 -2.5628,-8.28444 -1.2617,-4.17127 -2.3782,-7.49989 -2.4812,-7.39697 -0.2054,0.20545 -4.9676,15.63635 -4.9676,16.09661 0,0.15684 2.3132,0.28514 5.1402,0.28514 4.0157,0 5.0813,-0.1532 4.8714,-0.70034 z m 103.9517,-2.7774 V 24.14277 h 4.0128 4.0127 v 19.52891 19.52891 h -4.0127 -4.0128 z m 18.1912,-0.0194 V 24.10396 l 5.1445,0.15314 5.1444,0.15313 8.1707,14.07312 c 4.494,7.74024 8.299,14.20133 8.4556,14.358 0.1568,0.15668 0.147,-6.23642 -0.022,-14.20688 l -0.3065,-14.49176 h 3.8277 3.8276 v 19.52891 19.52892 l -5.2166,-0.008 -5.2166,-0.008 -7.8713,-13.77265 c -4.3291,-7.57496 -8.1815,-14.19747 -8.5607,-14.71671 -0.5672,-0.77679 -0.66,1.66471 -0.524,13.7806 l 0.1652,14.72467 h -3.5092 -3.5093 V 43.65216 Z m 39.593,19.21548 c 0,-0.20685 2.6797,-7.98133 5.9549,-17.27664 3.2752,-9.2953 6.3102,-17.93221 6.7446,-19.19314 l 0.7897,-2.29262 5.1557,0.15246 5.1555,0.15245 6.8111,19.26139 c 3.746,10.59377 6.8177,19.32158 6.8259,19.39515 0.013,0.0737 -1.991,0.13377 -4.443,0.13377 h -4.4582 l -1.3036,-4.41407 -1.3035,-4.41407 -7.2543,-0.14827 -7.2544,-0.14825 -1.3666,4.42856 -1.3666,4.42858 -4.3437,0.15538 c -2.3888,0.0855 -4.3435,-0.0139 -4.3435,-0.22068 z m 23.5416,-16.30512 c 0,-0.48369 -3.6607,-12.69088 -4.6373,-15.46438 -0.2567,-0.72879 -4.9703,13.8119 -4.9865,15.38237 0,0.48599 1.3093,0.66879 4.8086,0.66879 3.1366,0 4.8152,-0.20457 4.8152,-0.58678 z m 19.2614,-2.89098 V 24.14271 h 7.3782 c 13.5118,0 18.3031,2.54186 19.209,10.19082 0.4499,3.79937 -0.8767,6.88942 -4.2096,9.80493 l -2.684,2.34783 5.4018,8.0768 c 2.971,4.44224 5.4018,8.20294 5.4018,8.35713 0,0.15416 -1.9862,0.27242 -4.414,0.26276 l -4.414,-0.0175 -4.5479,-7.45546 -4.5479,-7.45542 -2.2738,-0.0175 -2.2739,-0.0175 v 7.49056 7.49053 h -4.0129 -4.0128 z m 16.8276,-3.98831 c 1.3654,-1.28268 1.8321,-4.0669 1.0314,-6.15345 -0.5608,-1.46106 -3.1937,-2.43164 -6.5966,-2.43164 h -3.2367 v 5.14325 5.14323 l 3.7191,-0.21015 c 3.0115,-0.17017 3.9788,-0.45397 5.0828,-1.49124 z m 19.0201,3.98831 V 24.1428 h 4.0127 4.0128 v 19.52891 19.52891 h -4.0128 -4.0127 z m 13.376,19.19609 c 0,-0.20684 2.6795,-7.98133 5.9547,-17.27663 3.2753,-9.2953 6.3104,-17.93221 6.7448,-19.19314 l 0.7897,-2.29262 5.1556,0.15246 5.1556,0.15245 6.8109,19.26139 c 3.7461,10.59377 6.8179,19.32158 6.8262,19.39515 0.013,0.0737 -1.9911,0.13377 -4.4431,0.13377 h -4.4584 l -1.3034,-4.41407 -1.3036,-4.41409 -7.2542,-0.14825 -7.2545,-0.14826 -1.3665,4.42857 -1.3666,4.42857 -4.3436,0.15539 c -2.3891,0.0855 -4.3436,-0.0139 -4.3436,-0.22069 z m 23.5417,-16.30512 c 0,-0.48369 -3.6607,-12.69087 -4.6376,-15.46437 -0.2566,-0.7288 -4.97,13.8119 -4.9862,15.38235 0,0.48601 1.3092,0.6688 4.8084,0.6688 3.1365,0 4.8154,-0.20457 4.8154,-0.58678 z m 33.1723,-2.89097 V 24.1428 h 7.9285 c 8.8668,0 12.3141,0.69894 15.1289,3.06753 4.9214,4.14113 5.001,13.89096 0.1504,18.43939 -2.3564,2.20957 -5.3658,3.21728 -10.5007,3.51597 l -4.6816,0.27235 v 6.88129 6.88129 h -4.0127 -4.0128 z m 16.9931,-3.10643 c 1.2117,-1.21167 1.4657,-1.93533 1.4657,-4.17507 0,-2.30522 -0.2239,-2.90199 -1.5011,-4.00065 -1.2754,-1.0969 -2.0605,-1.29125 -5.2168,-1.29125 h -3.7154 v 5.67828 5.67827 l 3.751,-0.21194 c 3.223,-0.18212 3.9572,-0.41825 5.2166,-1.67764 z m 17.2494,3.10643 V 24.1428 h 11.2357 11.2359 v 3.47774 3.47777 h -6.9555 -6.9555 v 4.2803 4.28031 h 6.4204 6.4205 v 3.21022 3.21024 h -6.4205 -6.4204 v 5.08287 5.08285 h 6.9555 6.9555 v 3.47777 3.47775 h -11.2359 -11.2357 z m 56.3092,18.86012 c 0.1346,-0.36785 3.2278,-9.15586 6.8736,-19.52892 l 6.6291,-18.86011 h 5.0978 5.0976 l 6.6341,18.86011 c 3.6489,10.37306 6.7441,19.17129 6.8782,19.55161 0.1896,0.53734 -0.7526,0.65663 -4.2267,0.53503 l -4.4706,-0.15645 -1.3028,-4.41407 -1.3027,-4.41407 h -7.3139 -7.3137 l -1.2756,4.54783 -1.2756,4.54784 h -4.4868 c -3.3631,0 -4.4254,-0.1675 -4.242,-0.6688 z m 23.4115,-16.13207 c 0,-0.41232 -0.963,-3.83664 -2.1401,-7.60957 -1.1771,-3.77295 -2.1402,-7.21564 -2.1402,-7.65043 0,-1.91318 -1.0749,0.73219 -3.138,7.72203 -1.2169,4.12279 -2.2124,7.67411 -2.2124,7.89183 0,0.2177 2.1669,0.39584 4.8153,0.39584 3.7728,0 4.8154,-0.16233 4.8154,-0.7497 z m 19.2614,-2.78874 v -19.5896 l 9.2294,0.21805 c 8.7595,0.20693 9.3994,0.29529 12.5652,1.7351 4.0342,1.83488 7.5814,5.43592 9.0144,9.15159 0.7877,2.04267 1.0258,4.02619 1.0258,8.54555 0,5.21832 -0.157,6.21897 -1.3858,8.82814 -1.9206,4.07854 -3.6678,5.97173 -7.2811,7.88985 -4.0379,2.14362 -7.9101,2.81093 -16.3107,2.81093 h -6.8572 z m 17.4109,11.62841 c 4.5822,-2.08142 6.4008,-6.06375 6.0159,-13.17284 -0.2686,-4.95741 -1.179,-7.05776 -3.9883,-9.20175 -1.7451,-1.33182 -2.4912,-1.51988 -6.6884,-1.68602 l -4.7245,-0.18699 v 12.62664 12.62665 l 3.6116,-0.0114 c 2.3398,-0.008 4.3728,-0.3576 5.7737,-0.99394 z m 24.8822,-11.43396 6.8143,-19.39515 h 5.2027 5.2025 l 6.8042,19.26139 6.8043,19.26139 -4.2571,0.15647 c -2.3414,0.086 -4.3505,0.0633 -4.4644,-0.0508 -0.1135,-0.11402 -0.7729,-2.11053 -1.4642,-4.43678 l -1.257,-4.22954 -7.2758,-0.14871 -7.2757,-0.14872 -1.3917,4.56278 -1.3917,4.56278 h -4.4323 -4.4324 l 6.8143,-19.39514 z m 17.0961,3.03134 c 0,-0.41905 -4.8173,-15.91893 -5.0062,-16.10792 -0.082,-0.0816 -1.1806,3.26453 -2.4425,7.43579 -1.2617,4.17126 -2.4148,7.89925 -2.5628,8.28444 -0.2099,0.54714 0.8557,0.70034 4.8714,0.70034 2.8272,0 5.1401,-0.14069 5.1401,-0.31265 z"
         id="path1058" /><path
         style="fill:#ffcc00;stroke-width:1.03531"
         d="m 1105.9218,-99.67808 -61.3485,-105.47332 60.6938,-104.42242 c 33.3813,-57.43235 61.162,-105.00481 61.7337,-105.71658 0.8214,-1.02213 26.661,-1.29425 122.9201,-1.29425 114.7974,0 121.9699,0.10502 123.425,1.81191 2.6897,3.15476 122.0933,209.39855 121.6877,210.18977 -0.2133,0.41533 -27.802,47.92734 -61.3085,105.58143 L 1412.8036,5.82422 1290.0367,5.80682 1167.2701,5.78942 Z M 1657.1005,3.49898 c -0.8132,-1.28357 -28.1901,-48.22404 -60.8378,-104.31225 -37.079,-63.70246 -59.3364,-102.95011 -59.2994,-104.56692 0.058,-1.46953 26.2675,-47.56323 60.6931,-106.63747 l 60.6349,-104.04926 h 122.8566 122.8567 l 61.0299,104.98422 c 33.5661,57.74125 61.0121,105.49519 60.9908,106.11988 0,0.62455 -27.454,48.19072 -60.9624,105.7025 L 1904.1385,5.30655 1781.3596,5.56959 1658.5803,5.83264 Z M 1351.683,-521.42499 c -33.5268,-57.64602 -60.9597,-105.27686 -60.9631,-105.84626 0,-0.56936 27.4275,-48.20015 60.9573,-105.84611 l 60.9625,-104.81069 123.0672,0.24402 123.0671,0.24399 60.9442,104.56687 c 33.5191,57.51178 60.7819,105.26572 60.5846,106.11981 -0.1961,0.85415 -27.6249,48.37509 -60.9504,105.6022 l -60.5911,104.04921 -123.0607,0.24399 -123.0609,0.24401 z"
         id="path902" /><path
         style="fill:#000000;stroke-width:0.433588"
         d="m 1397.6975,376.55726 c -4.9041,-1.05656 -8.0529,-3.84896 -10.0215,-8.88712 -0.7946,-2.03354 -0.9883,-3.56957 -1.1448,-9.08073 -0.2915,-10.25067 1.2686,-18.51859 4.8842,-25.88591 2.4473,-4.98701 4.5613,-7.72511 7.9377,-10.28133 3.543,-2.68213 7.2825,-3.85473 12.2762,-3.84949 10.4801,0.0105 15.1323,5.8842 15.1293,19.09978 0,10.47732 -1.6353,18.59626 -5.2134,25.92229 -3.5623,7.29339 -8.4922,11.52552 -15.0423,12.91351 -3.4792,0.73723 -5.5572,0.74881 -8.8054,0.049 z m 8.1505,-10.25128 c 4.4457,-2.7105 8.5111,-14.6816 9.0558,-26.66507 0.2863,-6.30307 -0.1444,-8.78801 -1.8124,-10.45598 -1.9426,-1.9426 -5.694,-1.04009 -7.8612,1.89136 -3.997,5.40619 -7.0871,16.96492 -7.0871,26.5098 0,5.16039 0.4047,7.08834 1.7996,8.57312 1.2191,1.29786 3.9079,1.36468 5.9053,0.14677 z m 120.0835,10.38158 c -3.0505,-0.42263 -7.934,-1.89093 -8.8768,-2.66891 -0.6145,-0.50709 -0.7948,-10.31359 -0.1896,-10.31359 0.1937,0 1.3718,0.49174 2.6177,1.09277 4.8348,2.3324 11.9382,3.05151 16.5711,1.67747 3.4394,-1.02015 6.2009,-3.8918 6.8738,-7.14844 0.9158,-4.43244 -0.7192,-7.93493 -4.2651,-9.13588 -1.9604,-0.66392 -6.9491,-0.62268 -10.1046,0.0834 -2.4092,0.53912 -2.4238,0.53614 -4.4271,-0.90256 -1.1055,-0.79394 -1.9399,-1.64976 -1.8541,-1.90176 0.086,-0.25204 1.8875,-6.65315 4.0038,-14.22468 l 3.8477,-13.76642 h 14.6548 c 8.0602,0 14.655,0.14633 14.6553,0.32518 2e-4,0.17886 -0.4355,2.42268 -0.9684,4.98627 l -0.9688,4.66107 h -9.5675 -9.5674 l -1.4432,4.87788 c -0.7938,2.68281 -1.526,5.17053 -1.627,5.52824 -0.1549,0.54871 0.5484,0.65251 4.4997,0.66412 4.2226,0.0121 4.9525,0.13664 7.4185,1.26292 5.2946,2.41812 7.9182,6.93425 7.9289,13.64849 0,2.05807 -0.2064,4.68986 -0.4662,5.84845 -1.6421,7.32785 -7.1501,12.76397 -14.9674,14.77213 -3.3164,0.85196 -9.9881,1.15881 -13.7781,0.63373 z m 159.4233,0.0117 c -6.0698,-1.20338 -10.1792,-5.63898 -11.4092,-12.31521 -1.1206,-6.08233 -0.248,-17.25178 1.9368,-24.79114 2.037,-7.02959 5.7726,-13.41345 9.6921,-16.56295 7.5116,-6.03633 19.3276,-6.04872 24.4832,-0.0256 3.2286,3.7718 4.3626,9.8175 3.7024,19.73677 -1.0635,15.97756 -6.6081,27.69675 -15.1529,32.02669 -3.9457,1.99946 -9.1119,2.75241 -13.2524,1.9315 z m 8.4296,-11.03525 c 3.2307,-2.91879 5.9581,-9.6362 7.4586,-18.37015 1.0224,-5.95138 1.1386,-14.13371 0.2312,-16.30504 -1.4198,-3.3979 -5.1027,-3.76532 -8.1433,-0.8124 -4.3217,4.19699 -8.1571,17.34894 -8.15,27.94749 0,6.53841 1.3815,9.04971 4.9629,9.04971 1.64,0 2.2493,-0.25265 3.6406,-1.50961 z m 76.1605,11.21149 c -2.8549,-0.30263 -5.576,-0.93849 -8.1713,-1.90956 l -2.4516,-0.91721 v -5.14791 -5.14795 l 2.2764,1.04165 c 3.9378,1.80187 7.5674,2.54591 12.4657,2.55532 4.8839,0.0104 7.6139,-0.79104 9.916,-2.90731 2.4265,-2.23084 3.3039,-6.39976 1.9479,-9.25709 -1.1897,-2.50719 -3.3919,-3.33929 -9.3708,-3.54068 -3.1867,-0.10733 -5.0946,-0.3435 -5.0946,-0.63057 0,-0.25239 0.3305,-2.18299 0.7344,-4.29019 l 0.7345,-3.83131 2.6259,-0.007 c 6.1128,-0.0174 10.9445,-1.91844 13.1338,-5.16733 1.1935,-1.77107 1.3554,-5.55915 0.3058,-7.16087 -0.8359,-1.27593 -3.5561,-2.40625 -5.7906,-2.40625 -2.1069,0 -6.6086,1.39204 -9.0479,2.79777 l -1.8566,1.07006 -1.8643,-2.90951 c -2.4378,-3.80405 -2.9607,-4.80853 -2.7124,-5.21035 0.5048,-0.8167 6.9941,-3.65033 10.2388,-4.47086 2.892,-0.73137 4.5402,-0.87242 8.6182,-0.73766 4.429,0.14638 5.3748,0.31848 7.7774,1.41541 5.2333,2.38942 7.8221,6.90971 7.3258,12.79198 -0.5568,6.59982 -4.5607,11.32411 -11.3876,13.43638 l -2.3693,0.73306 2.4525,0.77305 c 3.4452,1.08601 6.3503,4.03224 7.3431,7.44688 2.6139,8.99179 -3.8955,18.21895 -14.6587,20.77837 -2.8373,0.67475 -10.1428,1.12589 -13.1205,0.81024 z m -499.2768,-1.03341 c 0,-0.25508 2.6342,-12.91446 5.8536,-28.13207 3.2192,-15.21756 5.8534,-27.79491 5.8534,-27.94962 0,-0.15474 3.176,-0.28135 7.0576,-0.28135 h 7.0578 l 6.237,19.83666 c 3.4303,10.91017 6.424,20.32445 6.6526,20.92063 0.3475,0.90616 0.5816,0.19495 1.4279,-4.33588 0.8386,-4.48997 6.5659,-32.13911 7.3423,-35.44584 0.2218,-0.94465 0.3935,-0.97557 5.424,-0.97557 3.9942,0 5.1947,0.13128 5.1947,0.56813 0,0.31249 -2.634,13.02833 -5.8535,28.25746 -3.2194,15.22914 -5.8533,27.75347 -5.8533,27.8319 0,0.0784 -3.0031,0.14256 -6.6735,0.14256 h -6.6735 l -2.6851,-8.34657 c -1.4768,-4.59061 -4.5711,-14.24389 -6.8762,-21.45177 -2.3051,-7.20785 -4.2894,-13.11007 -4.4095,-13.11605 -0.1202,-0.006 -0.6718,2.86711 -1.2257,6.38459 -0.5539,3.51749 -2.4229,13.12689 -4.1533,21.35422 l -3.1464,14.95879 -5.2754,0.12176 c -3.5323,0.0816 -5.2755,-0.0317 -5.2755,-0.34198 z m 155.3773,-0.86869 c 0.1436,-0.71815 0.4946,-2.57239 0.7798,-4.12047 l 0.5187,-2.81478 10.4829,-9.30661 c 11.9578,-10.61593 17.863,-16.58819 19.2642,-19.48286 1.8366,-3.79364 1.596,-7.2721 -0.6489,-9.38089 -0.8065,-0.75779 -1.7199,-1.05862 -3.6345,-1.1971 -3.0174,-0.21826 -6.0889,0.98498 -9.9438,3.89553 l -2.3513,1.77524 -0.7961,-1.0358 c -1.8898,-2.4587 -4.8463,-6.90308 -4.6814,-7.03726 4.3258,-3.52026 9.1547,-6.08291 13.2959,-7.05592 4.3601,-1.02444 10.8695,-0.66361 14.0162,0.77699 6.484,2.96852 9.1872,8.7756 7.6023,16.33101 -1.4163,6.75154 -5.5848,11.81858 -18.6917,22.72141 -4.2926,3.57069 -7.8697,6.66595 -7.9491,6.8784 -0.082,0.21971 4.6516,0.38629 10.9773,0.38629 10.3925,0 11.1065,0.0498 10.8869,0.75879 -0.1291,0.41732 -0.5318,2.22213 -0.895,4.01068 -0.3632,1.78855 -0.7622,3.69092 -0.8867,4.22748 l -0.2263,0.97557 h -18.6902 -18.6903 z m 48.8428,1.14385 c 0,-0.089 6.2635,-10.36843 13.9191,-22.84313 7.6554,-12.47466 14.0176,-22.93802 14.138,-23.25189 0.1777,-0.46342 -2.0634,-0.57065 -11.9295,-0.57065 h -12.1484 l 0.5702,-2.49313 c 0.3135,-1.37122 0.7978,-3.61504 1.0762,-4.98626 l 0.506,-2.49314 h 18.9901 18.9902 l -0.7475,3.65802 c -0.7276,3.56093 -1.1368,4.31424 -15.4272,28.40001 l -14.6797,24.74202 h -6.6287 c -3.6459,0 -6.6288,-0.0729 -6.6288,-0.16185 z m 150.2314,-0.81372 c 0.1245,-0.53656 0.5237,-2.42792 0.8871,-4.20303 0.3634,-1.77515 0.7043,-3.25204 0.7575,-3.282 0.4306,-0.24263 20.6546,-18.2744 22.8029,-20.33108 3.1275,-2.99433 6.3276,-7.09923 7.244,-9.29228 0.808,-1.93392 0.7882,-5.42188 -0.041,-7.02338 -1.9836,-3.83583 -8.39,-3.34501 -14.2885,1.09467 -2.9645,2.23121 -2.496,2.41599 -6.0387,-2.38126 l -2.4016,-3.25192 1.3955,-1.22349 c 2.095,-1.83669 6.7114,-4.48725 9.6378,-5.53363 1.7722,-0.63365 4.0659,-0.9992 7.2195,-1.15058 3.9404,-0.18912 5.0853,-0.0811 7.7638,0.73246 2.6689,0.8106 3.5121,1.32484 5.5994,3.41439 2.912,2.91492 3.9109,5.37879 3.9109,9.64587 0,5.58084 -2.3959,10.76565 -7.5426,16.32207 -1.3733,1.48262 -6.2865,5.84287 -10.9183,9.68944 -4.6319,3.84658 -8.4215,7.16999 -8.4215,7.38531 0,0.22247 4.6793,0.39149 10.8397,0.39149 5.9618,0 10.8412,0.14633 10.843,0.32518 0,0.17886 -0.4276,2.42268 -0.9545,4.98628 l -0.9577,4.66106 h -18.7821 -18.7821 l 0.2264,-0.97557 z m 104.7185,0.7531 c 0,-0.88196 7.6994,-35.48365 8.646,-38.85501 0.6561,-2.3373 0.9791,-4.10934 0.7178,-3.9378 -0.2615,0.17152 -3.0798,2.03132 -6.2631,4.13278 -3.1833,2.10152 -5.8422,3.75887 -5.9091,3.68299 -0.5849,-0.66491 -5.0674,-8.22834 -4.9425,-8.33947 0.089,-0.0797 4.9769,-3.1024 10.8603,-6.71706 l 10.6972,-6.57211 4.9455,0.12244 4.9455,0.12246 -5.7644,27.31606 c -3.1704,15.02383 -5.872,27.75506 -6.0037,28.29162 -0.2333,0.95165 -0.3826,0.97557 -6.0844,0.97557 -3.2149,0 -5.8451,-0.10013 -5.8451,-0.22247 z m -147.8536,-16.38257 c 0,-0.27094 1.7789,-8.36396 1.9969,-9.08506 0.2098,-0.69369 1.076,-0.75878 10.1006,-0.75878 5.4289,0 9.9693,0.0984 10.0896,0.21871 0.1808,0.18063 -0.5221,4.0289 -1.6029,8.77826 l -0.2221,0.97557 h -10.1811 c -5.5995,0 -10.181,-0.0579 -10.181,-0.1287 z M 1346.078,345.06087 c -2.641,-0.45311 -5.0214,-1.71906 -7.0538,-3.7515 -2.5762,-2.57625 -3.4389,-4.61573 -3.6607,-8.65429 -0.1727,-3.14273 -0.066,-3.80101 1.0036,-6.18374 2.1647,-4.82373 6.7627,-7.84752 11.9445,-7.85519 3.7864,-0.006 6.4451,0.9662 9.0499,3.3081 4.4899,4.03696 5.8515,10.11357 3.4351,15.33194 -1.5787,3.40938 -3.0893,4.99594 -6.1475,6.45668 -3.0118,1.43861 -5.6367,1.85143 -8.5711,1.348 z m 5.0667,-7.76505 c 1.3477,-0.61202 2.0172,-1.29795 2.7555,-2.82306 1.3032,-2.69189 0.9437,-4.62993 -1.2688,-6.84248 -1.4369,-1.43684 -1.9061,-1.64739 -3.6711,-1.64739 -3.9044,0 -6.3119,2.34988 -6.3149,6.16354 0,1.66953 0.245,2.32533 1.3432,3.57612 2.0558,2.34133 4.3527,2.84637 7.1561,1.57327 z m -208.1478,-55.9926 c -3.0241,-0.47369 -5.0353,-1.08544 -7.2831,-2.21533 l -1.626,-0.81731 v -5.38898 -5.38899 l 2.4932,1.23313 c 11.3797,5.62831 22.6256,2.7623 20.4765,-5.21854 -0.5896,-2.18945 -2.0258,-3.82763 -6.0243,-6.87142 -8.3732,-6.37409 -11.3705,-12.13969 -10.0453,-19.32338 1.2472,-6.76042 5.9134,-11.62025 12.9061,-13.44162 3.1812,-0.82855 9.9413,-0.82347 13.5801,0.0104 3.1951,0.73202 8.3371,2.76806 8.1473,3.22601 -1.9879,4.79497 -4.1297,8.7013 -4.6785,8.5322 -0.3577,-0.11022 -1.8211,-0.63516 -3.252,-1.16653 -1.4674,-0.54492 -4.0526,-1.05744 -5.9304,-1.17576 -2.8447,-0.1792 -3.625,-0.0664 -5.3642,0.7756 -3.4847,1.68687 -4.5262,5.64679 -2.432,9.24714 0.3954,0.67991 2.6977,2.68148 5.1162,4.44796 5.2034,3.8008 7.2217,5.9236 8.7686,9.22268 1.0175,2.1699 1.1426,2.95912 1.1426,7.20625 0,4.33838 -0.1091,4.99141 -1.2059,7.22517 -2.1892,4.4578 -6.2045,7.63333 -11.5136,9.10548 -3.4568,0.95854 -9.7587,1.32692 -13.2753,0.77599 z m 54.6116,0.21037 c -0.4769,-0.10941 -1.9403,-0.41537 -3.2519,-0.67999 -7.3828,-1.48959 -12.9623,-7.57899 -14.3223,-15.6312 -1.5341,-9.08402 1.1593,-21.89906 6.1613,-29.31468 5.789,-8.58257 13.4943,-12.74706 23.517,-12.71017 7.1347,0.026 11.3504,1.52685 15.1809,5.40382 4.3718,4.42502 5.6827,8.98819 5.3395,18.58891 -0.2663,7.45283 -1.4664,12.58565 -4.272,18.27203 -3.9624,8.03078 -9.9637,13.21828 -17.5731,15.19006 -2.6833,0.69535 -9.2493,1.23213 -10.7794,0.88122 z m 9.1979,-11.22373 c 6.1191,-2.84893 10.4667,-10.93852 11.3391,-21.09848 0.7151,-8.32702 -0.7085,-12.89449 -4.6708,-14.98716 -2.6594,-1.40452 -6.7961,-1.39416 -9.7959,0.0247 -7.0036,3.31228 -11.9237,13.6037 -11.9237,24.941 0,4.91659 0.8183,7.63301 2.9136,9.67235 2.1283,2.07143 3.1707,2.44882 6.8421,2.47692 2.3378,0.0178 3.5546,-0.21853 5.2956,-1.02916 z m 86.4891,11.0108 c -5.2358,-0.93577 -9.6579,-4.17407 -11.719,-8.58175 -0.9343,-1.9978 -1.1746,-3.22489 -1.297,-6.62306 -0.1404,-3.90013 0.1091,-5.39219 3.8394,-22.98017 2.1943,-10.34507 4.0386,-18.86369 4.0984,-18.93025 0.059,-0.0665 2.7311,-0.0665 5.9364,0 l 5.8277,0.12101 -4.0135,18.8611 c -2.2074,10.3736 -4.0223,19.93421 -4.033,21.24581 -0.025,3.0366 1.0222,5.18286 3.0142,6.17795 2.05,1.02408 6.5868,0.99885 8.8885,-0.0494 2.3502,-1.07036 4.6943,-3.78019 5.78,-6.68203 0.6589,-1.76106 8.7452,-38.36761 8.7452,-39.58934 0,-0.0994 2.6341,-0.1808 5.8534,-0.1808 4.8844,0 5.8536,0.1064 5.8536,0.64305 0,1.84513 -8.4264,39.7274 -9.3332,41.9592 -2.9939,7.36801 -8.2212,12.1256 -15.3529,13.97364 -3.4001,0.88106 -9.051,1.17792 -12.0882,0.63512 z m 56.6165,-0.20651 c -11.31,-2.25049 -16.9555,-12.48731 -15.0896,-27.36068 1.923,-15.32841 10.6055,-26.71636 22.7803,-29.87843 6.1256,-1.59097 16.4545,-0.57173 21.8347,2.15468 l 2.1898,1.10964 -2.172,4.65152 c -1.1946,2.55831 -2.2394,4.71892 -2.3218,4.8013 -0.082,0.0825 -1.1045,-0.33386 -2.2711,-0.92506 -5.3806,-2.72657 -12.1397,-3.24918 -16.2085,-1.25324 -7.1661,3.51532 -12.1077,13.35547 -12.1077,24.10968 0,6.24618 1.7357,9.95456 5.5373,11.83023 2.1462,1.05887 2.5691,1.11414 6.9375,0.90676 4.0979,-0.19451 7.3704,-0.88192 11.2067,-2.35408 0.4887,-0.18752 0.5995,0.68953 0.5995,4.75004 v 4.98007 l -1.1925,0.46724 c -3.669,1.43768 -10.8192,2.71174 -14.7734,2.6323 -1.1154,-0.0225 -3.3426,-0.30229 -4.9492,-0.62197 z m 75.6975,0.18804 c -5.5488,-0.927 -10.1264,-3.71208 -12.9419,-7.87396 -5.2374,-7.74206 -4.7646,-21.93787 1.1354,-34.08689 1.8494,-3.80806 2.7264,-5.04002 5.7275,-8.04596 5.8184,-5.82738 11.4166,-8.10945 19.8931,-8.10945 14.8023,0 22.2452,9.76293 20.3264,26.66217 -1.2012,10.57847 -4.3816,18.02565 -10.2267,23.94695 -6.0729,6.15201 -15.0872,8.98181 -23.9138,7.50714 z m 10.9061,-11.01314 c 6.0914,-2.94519 10.5693,-11.91431 11.3064,-22.64593 0.4848,-7.0595 -1.203,-11.61399 -5.0272,-13.56493 -2.5441,-1.29789 -6.9661,-1.19224 -9.8299,0.23487 -6.4618,3.22006 -11.025,12.27479 -11.6863,23.1893 -0.4264,7.03997 1.0456,10.87973 4.9918,13.02096 2.0924,1.13531 7.6767,1.00762 10.2452,-0.23427 z m 299.9766,11.0405 c -5.703,-1.02262 -10.056,-3.71499 -12.7532,-7.88796 -3.0354,-4.69642 -4.232,-11.09497 -3.4578,-18.49155 1.8967,-18.12515 12.2272,-30.2325 26.9994,-31.64352 5.186,-0.49537 10.9192,0.1358 15.1259,1.66523 5.4704,1.98896 5.2471,1.45773 2.7727,6.59697 -1.1822,2.45553 -2.2679,4.61697 -2.4126,4.80324 -0.1445,0.18623 -1.8079,-0.39912 -3.6965,-1.30077 -3.3288,-1.58935 -3.5791,-1.63939 -8.203,-1.63939 -4.4048,0 -4.9489,0.0944 -7.1154,1.23495 -4.8751,2.56631 -8.8767,8.43493 -10.6885,15.67499 -0.9448,3.77551 -1.0764,11.32827 -0.2471,14.18185 0.7895,2.71716 3.0616,5.2974 5.4766,6.21972 3.4739,1.32661 11.3063,0.49956 17.3948,-1.83684 0.4891,-0.18765 0.5994,0.69899 0.5994,4.81339 v 5.04337 l -1.1923,0.45435 c -4.7865,1.82395 -14.2297,2.89603 -18.6024,2.11197 z m 92.8544,0.20404 c -0.477,-0.10941 -1.9404,-0.41537 -3.2519,-0.67999 -7.383,-1.48959 -12.9625,-7.57899 -14.3223,-15.6312 -1.5342,-9.08402 1.1592,-21.89906 6.1611,-29.31468 5.7891,-8.58257 13.4944,-12.74706 23.517,-12.71017 7.1348,0.026 11.3505,1.52685 15.181,5.40382 4.3719,4.42502 5.6826,8.98819 5.3396,18.58891 -0.2663,7.45283 -1.4664,12.58565 -4.272,18.27203 -3.9624,8.03078 -9.9638,13.21828 -17.5731,15.19006 -2.6835,0.69535 -9.2494,1.23213 -10.7794,0.88122 z m 9.1978,-11.22373 c 6.1191,-2.84893 10.4669,-10.93852 11.3392,-21.09848 0.715,-8.32702 -0.7085,-12.89449 -4.6708,-14.98716 -2.6594,-1.40452 -6.7962,-1.39416 -9.796,0.0247 -7.0036,3.31228 -11.9237,13.6037 -11.9237,24.941 0,4.91659 0.8183,7.63301 2.9136,9.67235 2.1282,2.07143 3.1707,2.44882 6.8422,2.47692 2.3378,0.0178 3.5544,-0.21853 5.2955,-1.02916 z m -795.9238,10.49145 c 0.012,-0.0596 2.7077,-12.79086 5.9928,-28.29163 l 5.9731,-28.18324 8.8575,-0.13033 c 9.6949,-0.14269 12.7901,0.2259 16.2285,1.93268 3.0032,1.49062 4.7054,3.26266 6.1253,6.37639 1.077,2.36149 1.2114,3.14898 1.1951,6.99686 -0.014,3.43783 -0.2209,4.85536 -0.9962,6.84401 -1.3472,3.45574 -4.9499,7.27053 -8.5318,9.03381 -1.5282,0.75236 -2.7787,1.40794 -2.7787,1.45681 0,0.0489 2.244,5.4101 4.9863,11.91383 2.7424,6.50374 4.9863,11.90018 4.9863,11.99211 0,0.092 -2.8779,0.16607 -6.3954,0.1648 l -6.3955,-0.003 -4.0761,-11.0542 -4.0761,-11.05421 h -2.0872 c -1.5529,0 -2.1854,0.19425 -2.4704,0.75879 -0.2106,0.41732 -1.3394,5.3924 -2.5083,11.05571 l -2.1254,10.29699 h -5.9617 c -3.2792,4.4e-4 -5.953,-0.048 -5.9421,-0.10756 z m 27.9532,-32.84748 c 2.6871,-1.30089 4.1288,-3.5304 4.3948,-6.79696 0.395,-4.84765 -1.9244,-7.13235 -7.3429,-7.2333 l -3.123,-0.0582 -1.3662,6.19146 c -0.7514,3.40531 -1.4985,6.89701 -1.6604,7.75928 l -0.2941,1.56781 3.695,-0.23055 c 2.5652,-0.16002 4.307,-0.5268 5.6968,-1.19956 z m 21.0457,31.32992 c 0.2005,-0.89427 2.8131,-13.23528 5.8056,-27.42445 2.9927,-14.18918 5.5431,-26.23751 5.6678,-26.77407 l 0.2267,-0.97558 h 15.8178 c 17.6505,0 16.2831,-0.26926 15.4134,3.03512 -0.2197,0.83466 -0.6219,2.63591 -0.8939,4.00276 l -0.4944,2.48524 -10.0186,0.11629 -10.0187,0.11633 -1.205,5.63665 c -0.6626,3.10015 -1.2141,5.88053 -1.2255,6.17861 -0.016,0.41704 2.0785,0.542 9.0848,0.542 6.993,0 9.1063,0.12574 9.1096,0.54198 0,0.29809 -0.4196,2.53819 -0.9378,4.97803 l -0.9421,4.43599 -9.3398,0.11668 -9.3398,0.11664 -1.4036,6.50382 c -0.772,3.57711 -1.4152,6.84528 -1.4294,7.2626 -0.024,0.70094 0.7182,0.75879 9.7301,0.75879 8.2699,0 9.7557,0.0967 9.7557,0.63385 0,0.34865 -0.4169,2.59248 -0.9267,4.98628 l -0.9267,4.3524 h -15.9371 -15.937 z m 143.5143,1.51756 c 0.012,-0.0596 2.7075,-12.79086 5.9925,-28.29163 l 5.9728,-28.18324 5.9311,-0.12061 c 3.2621,-0.0664 5.9243,0.0312 5.9162,0.21678 -0.012,0.18559 -2.2174,10.67851 -4.9091,23.31759 l -4.8941,22.98019 9.8953,0.11637 c 5.4424,0.0641 9.8955,0.25915 9.8957,0.43358 4e-4,0.17448 -0.4353,2.4147 -0.9683,4.97829 l -0.9688,4.66108 h -15.9416 c -8.7678,0 -15.9326,-0.0487 -15.9217,-0.10837 z m 145.6568,-0.21679 c -0.012,-0.17885 2.6778,-12.95888 5.9614,-28.40004 l 5.9702,-28.07483 h 5.9916 c 5.5061,0 5.9726,0.0615 5.7581,0.75878 -0.1285,0.41734 -2.6675,12.17299 -5.6423,26.12369 -2.9748,13.95069 -5.6306,26.38927 -5.9018,27.64125 l -0.4932,2.27634 h -5.8176 c -3.1996,0 -5.8215,-0.14634 -5.8264,-0.32519 z m 84.1483,-1.30077 c 0.2006,-0.89427 2.8132,-13.23528 5.8057,-27.42445 2.9926,-14.18918 5.5442,-26.24231 5.6705,-26.78478 0.2283,-0.98208 0.2588,-0.98573 7.2499,-0.86718 l 7.0205,0.1191 6.5182,20.66703 c 3.5849,11.3669 6.5745,20.61092 6.6436,20.54224 0.068,-0.0687 1.3902,-6.34453 2.9358,-13.94641 1.5457,-7.60189 3.4513,-16.8459 4.2347,-20.54223 l 1.4242,-6.72063 5.3405,-0.12218 5.3403,-0.12214 -0.192,0.98932 c -0.1056,0.54414 -2.8019,13.33515 -5.9919,28.42438 l -5.8001,27.43505 -6.6746,-0.11898 -6.6748,-0.11898 -6.7972,-21.10898 c -3.7385,-11.60994 -6.9088,-21.2205 -7.045,-21.35673 -0.1363,-0.13628 -0.6577,2.33865 -1.1589,5.4998 -0.7447,4.69815 -6.2382,31.91405 -7.2783,36.05832 l -0.2822,1.12439 h -5.3268 -5.3268 z m 80.644,1.51756 c 0.012,-0.0596 2.7077,-12.79086 5.9929,-28.29163 l 5.9731,-28.18324 9.9405,-0.11679 c 11.1628,-0.13117 13.0957,0.12539 17.4845,2.32099 6.7492,3.37657 9.9975,9.71173 10.0118,19.52681 0.023,15.97426 -6.9847,27.98591 -18.9863,32.54214 -4.9086,1.86352 -8.5115,2.27859 -19.9218,2.29498 -5.783,0.008 -10.5056,-0.0338 -10.4947,-0.0933 z m 25.6,-11.45124 c 7.4852,-3.50274 12.1019,-13.07065 11.5762,-23.99074 -0.1701,-3.53105 -0.3905,-4.53008 -1.4144,-6.41125 -1.4002,-2.57256 -3.5197,-4.19921 -6.2977,-4.83307 -2.2797,-0.52018 -7.2293,-0.61315 -7.5202,-0.14123 -0.1102,0.17886 -1.7935,7.83712 -3.7406,17.01834 -1.9469,9.18124 -3.7067,17.44971 -3.9104,18.37443 l -0.3707,1.68132 4.4476,-0.1978 c 3.7886,-0.16849 4.8598,-0.39075 7.2302,-1.5 z m 28.5932,11.23445 c 0.012,-0.17885 2.7064,-12.91009 5.9964,-28.29163 l 5.982,-27.96645 5.9774,-0.12097 5.9774,-0.12092 -0.2435,0.9881 c -0.1339,0.5435 -2.7965,12.9877 -5.9168,27.65383 -3.1204,14.66611 -5.7783,27.00713 -5.9062,27.42445 -0.2066,0.67345 -0.8879,0.75878 -6.057,0.75878 -3.2033,0 -5.8177,-0.14634 -5.8097,-0.32519 z m 25.587,0.21679 c 0.012,-0.0596 2.7077,-12.79086 5.9929,-28.29163 l 5.973,-28.18324 8.8576,-0.13033 c 9.6949,-0.14269 12.7901,0.2259 16.2286,1.93268 3.0029,1.49062 4.7052,3.26266 6.1252,6.37639 1.0769,2.36149 1.2114,3.14898 1.1951,6.99686 -0.015,3.43783 -0.2209,4.85536 -0.9963,6.84401 -1.3472,3.45574 -4.9499,7.27053 -8.5316,9.03381 -1.5284,0.75236 -2.7788,1.40794 -2.7788,1.45681 0,0.0489 2.2438,5.4101 4.9864,11.91383 2.7424,6.50374 4.9862,11.90018 4.9862,11.99211 0,0.092 -2.8779,0.16607 -6.3954,0.1648 l -6.3956,-0.003 -4.0761,-11.0542 -4.0761,-11.05421 h -2.0872 c -1.5529,0 -2.1854,0.19425 -2.4703,0.75879 -0.2106,0.41732 -1.3394,5.3924 -2.5084,11.05571 l -2.1253,10.29699 h -5.9618 c -3.2791,4.4e-4 -5.953,-0.048 -5.9421,-0.10756 z m 27.9532,-32.84748 c 2.6872,-1.30089 4.1289,-3.5304 4.3949,-6.79696 0.395,-4.84765 -1.9244,-7.13235 -7.343,-7.2333 l -3.123,-0.0582 -1.3661,6.19146 c -0.7514,3.40531 -1.4986,6.89701 -1.6603,7.75928 l -0.2942,1.56781 3.695,-0.23055 c 2.5651,-0.16002 4.3069,-0.5268 5.6967,-1.19956 z m 21.0457,31.32992 c 0.2006,-0.89427 2.8133,-13.23528 5.8056,-27.42445 2.9927,-14.18918 5.5432,-26.23751 5.6678,-26.77407 l 0.2267,-0.97558 h 15.8178 c 17.6506,0 16.2831,-0.26926 15.4135,3.03512 -0.2198,0.83466 -0.622,2.63591 -0.8939,4.00276 l -0.4944,2.48524 -10.0187,0.11629 -10.0187,0.11633 -1.2049,5.63665 c -0.6626,3.10015 -1.2142,5.88053 -1.2255,6.17861 -0.016,0.41704 2.0784,0.542 9.0847,0.542 6.993,0 9.1063,0.12574 9.1096,0.54198 0,0.29809 -0.4195,2.53819 -0.9377,4.97803 l -0.9421,4.43599 -9.3398,0.11668 -9.3399,0.11664 -1.4035,6.50382 c -0.7721,3.57711 -1.4152,6.84528 -1.4294,7.2626 -0.024,0.70094 0.7182,0.75879 9.7301,0.75879 8.2698,0 9.7557,0.0967 9.7557,0.63385 0,0.34865 -0.417,2.59248 -0.9267,4.98628 l -0.9268,4.3524 h -15.9371 -15.937 z m 100.3935,0.44577 c 0.1326,-0.66252 2.3371,-11.1554 4.8989,-23.31755 l 4.6577,-22.11299 -6.8842,-0.11928 c -6.2794,-0.10883 -6.8654,-0.18493 -6.6715,-0.86718 0.1169,-0.41135 0.5355,-2.30882 0.9301,-4.2166 0.3947,-1.9078 0.8115,-3.81015 0.9263,-4.22749 0.1951,-0.7084 1.5135,-0.75878 19.8623,-0.75878 h 19.6536 l -1.0228,4.66108 c -0.5626,2.56359 -1.0298,4.80741 -1.0384,4.98627 -0.012,0.17884 -3.1236,0.32518 -6.9222,0.32518 h -6.9067 l -0.4814,2.27634 c -0.2648,1.25199 -2.4824,11.7394 -4.9282,23.30536 l -4.4471,21.02903 -5.9337,0.12058 -5.9337,0.12058 z m 92.1163,1.07179 c 0.012,-0.0596 2.7077,-12.79086 5.9928,-28.29163 l 5.9731,-28.18324 8.8574,-0.13033 c 9.6949,-0.14269 12.7903,0.2259 16.2287,1.93268 3.003,1.49062 4.7052,3.26266 6.1253,6.37639 1.0768,2.36149 1.2114,3.14898 1.1951,6.99686 -0.015,3.43783 -0.2211,4.85536 -0.9964,6.84401 -1.3471,3.45574 -4.9499,7.27053 -8.5316,9.03381 -1.5283,0.75236 -2.7787,1.40794 -2.7787,1.45681 0,0.0489 2.2438,5.4101 4.9863,11.91383 2.7424,6.50374 4.9863,11.90018 4.9863,11.99211 0,0.092 -2.878,0.16607 -6.3954,0.1648 l -6.3956,-0.003 -4.0761,-11.0542 -4.0761,-11.05421 h -2.0872 c -1.5529,0 -2.1854,0.19425 -2.4704,0.75879 -0.2107,0.41732 -1.3395,5.3924 -2.5083,11.05571 l -2.1253,10.29699 h -5.9619 c -3.279,4.4e-4 -5.9529,-0.048 -5.942,-0.10756 z m 27.9531,-32.84748 c 2.6873,-1.30089 4.1289,-3.5304 4.395,-6.79696 0.3949,-4.84765 -1.9245,-7.13235 -7.3431,-7.2333 l -3.1229,-0.0582 -1.3663,6.19146 c -0.7512,3.40531 -1.4984,6.89701 -1.6602,7.75928 l -0.2941,1.56781 3.6949,-0.23055 c 2.5652,-0.16002 4.307,-0.5268 5.6967,-1.19956 z m 20.7518,32.1971 c 0.1216,-0.41732 2.7686,-12.75834 5.8822,-27.42445 3.1135,-14.66613 5.7624,-27.10469 5.8865,-27.64125 0.2202,-0.95281 0.363,-0.97558 6.1212,-0.97558 5.8803,0 5.8951,0.003 5.7091,0.97558 -0.1021,0.53656 -2.8081,13.31501 -6.0123,28.39651 l -5.8258,27.42095 -5.9912,0.003 c -5.5019,0.003 -5.9729,-0.0585 -5.7697,-0.75527 z m 23.9809,-9.12764 c 2.8178,-5.43754 9.5136,-18.31246 14.8792,-28.61097 l 9.7557,-18.72451 7.236,-0.006 7.2361,-0.006 0.2522,1.84274 c 0.3281,2.3964 5.4376,53.7969 5.4376,54.701 0,0.5952 -0.769,0.6899 -5.6022,0.6899 h -5.6022 l -0.231,-1.19237 c -0.127,-0.6558 -0.3611,-3.68007 -0.5202,-6.72061 l -0.2892,-5.52826 -9.3784,0.0174 -9.3784,0.0174 -3.2207,6.70309 -3.2208,6.70315 h -6.2386 -6.2386 l 5.1235,-9.88642 z m 31.7891,-14.60603 c 0,-0.3548 -0.2919,-4.6961 -0.6487,-9.64734 -0.3569,-4.95122 -0.6984,-10.15488 -0.7589,-11.56371 l -0.1103,-2.56145 -1.4839,3.64542 c -0.8163,2.00501 -3.304,7.31109 -5.5283,11.7913 -2.2244,4.48027 -4.0443,8.33379 -4.0443,8.56337 0,0.24841 2.5465,0.41751 6.287,0.41751 5.2766,0 6.287,-0.10362 6.287,-0.6451 z m 19.9649,24.38405 c 0.012,-0.0596 2.7076,-12.79086 5.9926,-28.29163 l 5.9727,-28.18324 5.9311,-0.12061 c 3.2621,-0.0664 5.9243,0.0312 5.9162,0.21678 -0.012,0.18559 -2.2174,10.67851 -4.9091,23.31759 l -4.8941,22.98019 9.8953,0.11637 c 5.4425,0.0641 9.8956,0.25915 9.8959,0.43358 2e-4,0.17448 -0.4355,2.4147 -0.9683,4.97829 l -0.969,4.66108 h -15.9415 c -8.7679,0 -15.9327,-0.0487 -15.9218,-0.10837 z m -557.6144,-61.9203 c 0,-0.25256 1.1393,-1.95982 2.5316,-3.79389 1.3923,-1.83412 3.2736,-4.45663 4.1805,-5.82786 l 1.649,-2.49313 h 6.6691 6.6693 l -0.6834,1.04295 c -0.7727,1.17936 -5.965,5.9288 -10.1546,9.28846 l -2.7966,2.24265 h -4.0324 c -2.549,0 -4.0325,-0.16893 -4.0325,-0.45918 z"
         id="path569" /></g></g></svg>
