<?xml version="1.0" encoding="UTF-8" standalone="no"?>
<!-- Created with Inkscape (http://www.inkscape.org/) -->

<svg
   version="1.1"
   id="svg1"
   width="1500.48"
   height="209.28"
   viewBox="0 0 1500.48 209.28"
   sodipodi:docname="2.svg"
   inkscape:version="1.2.2 (b0a8486541, 2022-12-01)"
   xmlns:inkscape="http://www.inkscape.org/namespaces/inkscape"
   xmlns:sodipodi="http://sodipodi.sourceforge.net/DTD/sodipodi-0.dtd"
   xmlns="http://www.w3.org/2000/svg"
   xmlns:svg="http://www.w3.org/2000/svg">
  <defs
     id="defs1" />
  <sodipodi:namedview
     id="namedview1"
     pagecolor="#505050"
     bordercolor="#eeeeee"
     borderopacity="1"
     inkscape:showpageshadow="0"
     inkscape:pageopacity="0"
     inkscape:pagecheckerboard="0"
     inkscape:deskcolor="#505050"
     inkscape:zoom="0.58425585"
     inkscape:cx="344.02736"
     inkscape:cy="127.51263"
     inkscape:window-width="2512"
     inkscape:window-height="1011"
     inkscape:window-x="0"
     inkscape:window-y="0"
     inkscape:window-maximized="1"
     inkscape:current-layer="g1"
     showgrid="false" />
  <g
     inkscape:groupmode="layer"
     inkscape:label="Image"
     id="g1">
    <path
       id="path293"
       class="s0"
       d="m 912.11359,186.59534 -41.70423,-0.12141 -11.04303,-21.72182 c -6.027,-11.97326 -11.56857,-22.85438 -12.25629,-24.18925 -0.72824,-1.33486 -1.69889,-3.39782 -2.22486,-4.61133 -0.48543,-1.21351 -1.25379,-2.46746 -1.6989,-2.8315 -0.72803,-0.60678 -0.76857,-1.82028 -0.84944,-39.681702 l -0.12119,-39.034492 h -11.12369 -11.1239 l -0.0816,66.055244 -0.1212,66.01485 h -33.97833 -33.9781 l -0.0816,-72.28462 c -0.0396,-39.762595 -0.0816,-74.509367 -0.0816,-77.17909 v -4.85404 l 65.52952,0.121347 c 40.8951,0.08082 67.39013,0.283147 70.50478,0.525838 13.6317,1.173048 26.25221,5.096729 35.55581,11.042925 10.51684,6.755208 16.62493,14.926129 19.37554,25.969079 1.01141,4.004595 1.13261,5.096728 1.09228,11.487875 0,5.824827 -0.16085,7.766453 -0.88999,10.921581 -2.87204,12.337295 -8.37328,22.368975 -15.33059,27.910655 -1.41575,1.09216 -2.83149,2.18431 -3.23606,2.38657 -0.5663,0.32361 -0.12119,1.41577 3.60007,8.81815 18.89013,37.33557 26.98025,53.47525 27.22308,54.20336 0.16085,0.60676 0.0418,0.88991 -0.48543,1.01125 -0.40456,0.0808 -19.49697,0.0808 -42.47281,0.0406 z m 210.82661,-0.76854 c 0.2428,-0.93038 7.6855,-16.18011 23.6636,-48.49987 5.6224,-11.32608 12.9034,-26.09043 16.18,-32.76472 9.8294,-20.103771 23.2993,-47.36724 29.7309,-60.27088 l 6.0675,-12.135084 h 59.664 59.6643 l 0.1212,77.179114 0.081,77.13863 h -30.1757 -30.1758 l 0.2829,-33.04786 c 0.2027,-18.20263 0.2027,-47.974 0,-66.136167 l -0.2829,-33.08832 -11.7711,0.04052 c -6.5124,0 -12.4587,0.08083 -13.3082,0.242691 l -1.4967,0.242691 -0.1211,38.468222 -0.1212,38.468203 -2.7912,5.66302 c -4.3281,8.81815 -11.4876,23.54206 -17.717,36.40523 -3.1146,6.47206 -5.8248,11.97328 -6.0675,12.25645 -0.3236,0.40449 -9.3036,0.52585 -41.0167,0.60676 l -40.6525,0.0808 z m -917.61388,0.28315 -10.75989,-0.20227 3.92376,-8.09005 c 2.18433,-4.44954 6.31015,-12.94408 9.18219,-18.80937 2.91235,-5.90574 6.10809,-12.45869 7.11928,-14.5621 1.01117,-2.14386 4.20669,-8.77772 7.15959,-14.76435 18.64751,-38.104139 36.44579,-74.46891 43.92909,-89.920902 l 3.7618,-7.766475 h 58.16742 c 31.99629,0 58.57198,0.121346 59.09795,0.242691 l 0.88977,0.24269 v 77.017286 77.0173 h -32.1578 -32.15802 l -0.0816,-66.05526 -0.12119,-66.014844 -10.5576,-0.121346 -10.55738,-0.121347 -0.24283,19.132981 C 301.76,83.851649 301.63771,101.2857 301.63771,112.12639 v 19.65881 l -4.0855,8.4541 c -5.82472,12.01374 -12.74171,26.37358 -16.82721,34.94905 -1.41574,2.99332 -3.23605,6.7552 -4.04495,8.37319 l -1.49683,2.95286 -29.5286,-0.1214 c -16.26091,-0.0406 -34.42322,-0.16175 -40.32903,-0.28315 z m 233.92367,-0.28315 c -13.10572,-2.02252 -23.54192,-10.47662 -28.84089,-23.33981 -2.144,-5.21807 -3.60007,-13.02502 -3.60007,-19.33523 v -2.71016 l 32.27922,-0.12135 c 17.7172,-0.0808 32.31976,-0.0808 32.44118,0 0.12118,0.0808 0.2426,5.33944 0.2426,11.73057 0.0396,6.39115 0.0816,11.81148 0.12119,12.0542 0.0396,0.36404 2.58889,0.44495 10.07218,0.36404 l 9.99108,-0.16152 -0.16085,-21.76225 c -0.0816,-15.69469 -0.24261,-21.84314 -0.60663,-22.08583 -0.2426,-0.16163 -11.48792,-0.28315 -24.95787,-0.28315 -26.13081,0 -28.27459,-0.16162 -34.34236,-2.1034 -5.50102,-1.77982 -8.81794,-3.8428 -13.14627,-8.21143 -2.22464,-2.22475 -4.65179,-5.09673 -5.42038,-6.39112 -7.8473,-13.389043 -8.69675,-35.110809 -1.90095,-49.430211 2.14379,-4.530433 3.51898,-6.633836 6.63385,-9.991223 7.07872,-7.645082 15.08776,-11.00247 27.99143,-11.69011 8.25187,-0.444974 60.02826,-0.444974 71.39477,0 7.44275,0.283147 9.5462,0.525838 12.8228,1.37528 6.79558,1.779849 12.53943,5.177645 17.39351,10.31483 7.11927,7.564193 10.43619,16.625062 11.44737,31.308497 l 0.20272,3.15513 H 525.73407 492.1603 l -0.0816,-12.054194 -0.12119,-12.013716 -9.99108,-0.121347 -10.03163,-0.121346 -0.0816,17.191358 c -0.0816,9.465361 -0.12119,19.375671 -0.12119,21.96448 v 4.773152 l 26.69711,0.20217 c 29.4074,0.24269 30.37825,0.32361 37.0121,2.87196 7.92817,3.03378 15.49233,10.15302 18.97099,17.79813 5.58232,12.33732 6.10809,30.86353 1.21368,42.91773 -5.62266,13.99578 -16.46341,22.36901 -31.10629,24.14881 -2.144,0.28315 -17.91948,0.40449 -42.47281,0.40449 -31.83433,-0.0406 -39.72218,-0.16151 -42.79628,-0.64721 z M 579.12717,109.49714 V 32.479876 l 1.21347,-0.242691 c 0.64717,-0.121346 35.23212,-0.24269 76.81494,-0.24269 68.84642,-0.04052 75.60146,0.04052 75.84428,0.606752 0.1212,0.364059 0.24261,10.274348 0.24261,22.045394 v 21.357731 l -2.10324,0.242691 c -1.17314,0.161626 -16.05885,0.20217 -33.08833,0.161626 l -30.94456,-0.121347 -0.1212,-11.042926 -0.0816,-11.002471 h -10.92162 -10.9214 V 76.287342 98.33274 h 32.96692 32.96693 v 10.92155 10.92156 h -30.82315 c -16.98916,0 -31.83433,0.12135 -33.00747,0.24269 l -2.10323,0.24269 0.0816,21.92405 0.12119,21.88358 h 10.71912 10.71934 l 0.1212,-11.0429 0.0816,-11.00248 h 33.1692 33.16921 v 22.04538 22.04542 h -77.05779 -77.05776 c 0,0 0,-77.01732 0,-77.01732 z m 416.43519,76.37009 c -17.39352,-2.75062 -29.32631,-15.08796 -32.64324,-33.73552 -0.76858,-4.48998 -0.76858,-80.981401 0.0396,-85.350008 1.90118,-10.517089 6.71472,-19.497045 13.67225,-25.564586 3.64039,-3.155105 10.31478,-6.431578 15.49233,-7.645107 6.4721,-1.456194 14.1172,-1.698885 52.9899,-1.456194 35.6367,0.161626 36.729,0.20217 40.6525,1.051701 7.9688,1.739366 13.7531,4.813583 19.1735,10.193459 6.8767,6.876553 10.5979,15.047496 11.7711,25.928621 0.2027,2.143859 0.4043,9.586707 0.4043,16.46326 V 98.33289 h -32.9669 -32.967 V 76.287494 54.2421 h -10.3148 -10.3147 v 54.97189 c 0,30.2568 0.1212,55.05281 0.3234,55.17415 0.1609,0.0809 4.8136,0.0809 10.3148,-0.0406 l 10.0317,-0.20206 -0.042,-21.68134 -0.04,-21.68134 2.5485,-0.12134 c 1.4158,-0.0405 16.261,-0.12135 33.0478,-0.20218 l 30.4591,-0.0808 -0.2026,15.16885 c -0.161,13.51036 -0.2832,15.57333 -1.0518,19.05208 -2.0225,9.22264 -5.5013,15.57337 -11.7711,21.47907 -3.8427,3.681 -7.1192,5.78439 -11.7305,7.56422 -7.0384,2.71017 -4.7327,2.58883 -51.1695,2.71017 -34.6255,0.0808 -42.71567,0 -45.7089,-0.4854 z M 1336.3558,109.49714 V 32.479876 l 1.2136,-0.242691 c 1.8607,-0.364037 91.3366,-0.283147 104.7661,0.121347 10.881,0.323581 12.2565,0.444951 15.816,1.375282 5.0967,1.375329 7.6047,2.386575 11.2856,4.57089 8.3328,4.934927 14.6835,12.741836 17.8388,21.92405 1.375,4.004572 2.3862,10.759754 2.3862,16.018311 0,8.251808 -1.4966,14.966584 -4.692,21.398138 -2.2248,4.449547 -4.4496,7.402437 -8.4542,11.123837 -5.3395,4.97539 -11.4878,8.21143 -19.2139,10.07214 -4.2067,1.0517 -4.3281,1.0517 -24.7556,1.2135 l -20.5486,0.16163 V 87.209026 54.242051 h -8.09 -8.0901 v 66.136159 66.13617 h -29.7309 -29.731 c 0,0 0,-77.01729 0,-77.01729 z"
       style="fill:#000000;stroke-width:0.404502" />
    <path
       style="fill:#000000;stroke-width:0.189128"
       d="M 20.12853,168.11977 8.92161,148.85222 20.008968,129.77663 c 6.098036,-10.49157 11.172851,-19.18198 11.277355,-19.312 0.150058,-0.18671 4.870361,-0.23642 22.454684,-0.23642 20.970867,0 22.281074,0.0192 22.54688,0.33099 0.491377,0.57631 22.303667,38.25232 22.229607,38.39686 -0.03888,0.0759 -5.078788,8.75522 -11.199744,19.2873 l -11.128982,19.14926 -22.426654,-0.003 -22.426664,-0.003 z m 100.68779,18.84808 c -0.14868,-0.23447 -5.14979,-8.80942 -11.11368,-19.05545 -6.77351,-11.63698 -10.839401,-18.80662 -10.832741,-19.10198 0.0063,-0.26845 4.798501,-8.68871 11.087291,-19.48022 l 11.07663,-19.00742 h 22.4431 22.44309 l 11.14868,19.17822 c 6.13184,10.548 11.14562,19.27155 11.14172,19.38566 0,0.1141 -5.01526,8.80335 -11.13645,19.30943 l -11.1295,19.10197 -22.42897,0.0481 -22.42887,0.048 z M 65.02343,91.076282 C 58.898944,80.545675 53.887535,71.844615 53.886945,71.740596 53.886386,71.636577 58.897311,62.935535 65.022387,52.404947 l 11.136485,-19.146514 22.481556,0.04457 22.481602,0.04455 11.13297,19.101965 c 6.1232,10.50608 11.10358,19.229633 11.06754,19.385656 -0.0358,0.156034 -5.04645,8.837024 -11.13424,19.291099 l -11.06859,19.007407 -22.480452,0.0445 -22.480386,0.0445 z"
       id="path902" />
  </g>
</svg>
