<?xml version="1.0" encoding="UTF-8" standalone="no"?>
<!-- Created with Inkscape (http://www.inkscape.org/) -->

<svg
   version="1.1"
   id="svg1"
   width="1122.5601"
   height="292.60001"
   viewBox="0 0 1122.5601 292.60001"
   sodipodi:docname="logo-adison-Blanco.svg"
   inkscape:version="1.3.2 (091e20e, 2023-11-25, custom)"
   xmlns:inkscape="http://www.inkscape.org/namespaces/inkscape"
   xmlns:sodipodi="http://sodipodi.sourceforge.net/DTD/sodipodi-0.dtd"
   xmlns="http://www.w3.org/2000/svg"
   xmlns:svg="http://www.w3.org/2000/svg">
  <defs
     id="defs1" />
  <sodipodi:namedview
     id="namedview1"
     pagecolor="#505050"
     bordercolor="#eeeeee"
     borderopacity="1"
     inkscape:showpageshadow="0"
     inkscape:pageopacity="0"
     inkscape:pagecheckerboard="0"
     inkscape:deskcolor="#505050"
     inkscape:zoom="1.0345262"
     inkscape:cx="645.70622"
     inkscape:cy="310.77028"
     inkscape:window-width="2560"
     inkscape:window-height="1017"
     inkscape:window-x="1912"
     inkscape:window-y="-8"
     inkscape:window-maximized="1"
     inkscape:current-layer="g1" />
  <g
     inkscape:groupmode="layer"
     inkscape:label="Image"
     id="g1">
    <path
       style="fill:#ffffff"
       d="m 643.86653,288.69434 c -9.45711,-0.38891 -17.40829,-1.68599 -24.48,-3.99342 -3.39887,-1.10902 -10.9546,-4.46991 -13.04,-5.80037 l -1.36,-0.86766 V 261.5569 c 0,-9.06179 0.0739,-16.47598 0.16427,-16.47598 0.0903,0 2.19836,1.01898 4.68447,2.26441 9.86314,4.94098 19.57006,8.27557 28.35129,9.73944 4.84547,0.80776 18.23644,0.53545 22.15997,-0.45063 7.01062,-1.76193 12.91051,-5.75512 15.21118,-10.29528 2.56199,-5.05584 2.34565,-12.90955 -0.51191,-18.58387 -2.63011,-5.22266 -5.63751,-8.15733 -18.44233,-17.99629 -16.77104,-12.88653 -23.42739,-20.57982 -27.71958,-32.03778 -3.60794,-9.63138 -4.07136,-21.44751 -1.26757,-32.32 2.24049,-8.68813 6.58372,-15.96847 13.57177,-22.74969 6.22095,-6.03681 12.97658,-10.07408 21.58008,-12.89659 15.51548,-5.09008 35.56953,-4.73931 54.53837,0.95394 2.376,0.71313 5.256,1.66734 6.4,2.12048 2.21692,0.87812 10.23087,4.77824 10.65068,5.18334 0.13788,0.13304 -0.2405,1.38188 -0.84085,2.7752 -1.04843,2.43329 -11.12278,24.00039 -11.63888,24.91642 -0.20209,0.35871 -0.90512,0.16851 -3.61095,-0.97693 -7.11176,-3.01058 -14.11058,-5.16853 -20.8,-6.41327 -4.3572,-0.81077 -15.60298,-0.82971 -18.56,-0.0313 -3.77448,1.01917 -7.16098,2.9294 -9.7005,5.47176 -4.51889,4.52395 -6.29404,10.04238 -5.36767,16.68661 1.18177,8.47611 5.29112,13.34713 19.54817,23.17139 7.48153,5.15538 11.44452,8.30753 15.52507,12.34861 10.97188,10.86573 15.85469,22.64722 15.82938,38.1939 -0.0244,14.97621 -4.60162,26.76343 -14.06261,36.2138 -4.61639,4.61121 -8.43814,7.33487 -14.57184,10.38496 -6.84672,3.40465 -13.54052,5.57748 -20.65375,6.70429 -4.76219,0.75439 -16.69209,1.43773 -21.58626,1.23647 z m 157.00547,-0.5912 c -1.82299,-0.23419 -5.13499,-0.88114 -7.36,-1.43767 -12.44634,-3.11314 -20.21718,-7.31417 -28.05506,-15.167 -4.9918,-5.00132 -7.68777,-8.71557 -10.69719,-14.73755 -6.02569,-12.05769 -8.28739,-25.34982 -7.37474,-43.34164 1.02049,-20.11765 5.34427,-38.02839 13.09836,-54.25836 14.64984,-30.66338 38.02758,-48.45033 69.03643,-52.52638 5.5988,-0.73595 17.59895,-0.73208 23.27637,0.008 12.65158,1.64809 23.24335,5.77879 31.08021,12.12102 3.33481,2.6988 8.64554,8.24114 10.71509,11.18241 5.83527,8.29313 9.58421,18.98664 11.02768,31.45544 0.85522,7.38745 0.55237,22.13967 -0.64668,31.50098 -0.81715,6.37966 -2.39829,15.38393 -3.34564,19.05271 -4.64012,17.96964 -12.33423,34.00935 -22.18397,46.24631 -4.84223,6.01582 -13.07889,13.37375 -19.88085,17.75989 -10.02092,6.46182 -23.36083,11.06666 -35.64937,12.30591 -4.57795,0.46167 -18.96886,0.3595 -23.04064,-0.16358 z m 22.19454,-31.38747 c 13.26043,-2.63855 24.8271,-12.2709 33.21668,-27.66178 5.30982,-9.74099 9.52739,-24.27043 11.27814,-38.85297 0.68396,-5.69691 0.96653,-18.56826 0.50931,-23.2 -1.28743,-13.04206 -6.98936,-22.55164 -16.20413,-27.02496 -4.61358,-2.23967 -6.33207,-2.55851 -13.76,-2.55299 -5.88507,0.004 -6.64459,0.0715 -9.44,0.83471 -10.43474,2.84878 -20.21122,10.66987 -27.92936,22.34324 -10.41234,15.74824 -16.46615,39.39276 -15.81268,61.76 0.31701,10.85073 1.90521,17.14837 5.80333,23.01178 1.68452,2.53379 5.09608,5.89715 7.61808,7.51045 6.3082,4.0353 16.08445,5.55094 24.72063,3.83252 z m -629.92003,29.32629 c -3.58102,-0.1335 -4.31277,-0.24315 -4.27775,-0.64104 0.0232,-0.264 1.00229,-5.016 2.17568,-10.56 1.17339,-5.544 7.5333,-35.64 14.13314,-66.88 17.03165,-80.61843 20.57319,-97.31811 20.85659,-98.34658 l 0.24981,-0.90658 21.11127,0.0265 c 26.20243,0.0328 36.4272,0.24881 40.95127,0.86508 4.24063,0.57767 10.41568,2.00906 14.56,3.37505 21.89557,7.21691 35.50043,24.23922 39.01206,48.81159 0.82563,5.7773 1.15604,17.44136 0.69415,24.50473 -0.19313,2.95335 -0.71114,8.20935 -1.15114,11.68 -3.68924,29.10042 -15.70642,52.84089 -34.40233,67.96333 -9.13636,7.39007 -21.11344,13.39815 -33.07034,16.58912 -7.70541,2.05637 -12.48374,2.86017 -18.92241,3.18308 -6.64352,0.33318 -54.96087,0.59519 -61.92,0.33577 z m 58.81798,-31.06685 c 6.60004,-0.62151 12.01881,-2.18489 18.24076,-5.26267 5.30178,-2.62261 9.04676,-5.29978 13.19332,-9.43152 5.99629,-5.97487 9.89611,-11.79793 13.58012,-20.27731 7.64658,-17.59995 10.27535,-41.95914 6.18608,-57.32269 -2.95693,-11.10932 -9.7863,-18.38899 -20.38848,-21.73282 -3.37074,-1.0631 -6.86638,-1.38137 -17.65542,-1.60749 l -8.50564,-0.17825 -0.87429,4.23928 c -1.85579,8.99838 -23.27809,109.89388 -23.53855,110.86273 -0.18889,0.70258 -0.15926,1.07858 0.0945,1.19926 0.53707,0.25545 15.79067,-0.12343 19.66762,-0.48852 z m 110.06203,31.13884 c -3.25572,-0.0674 -4.4,-0.19502 -4.4,-0.4907 0,-0.21979 1.44813,-7.23572 3.21807,-15.59097 2.93805,-13.86948 9.51962,-44.984 27.14136,-128.31136 6.99075,-33.05697 6.97528,-32.98521 7.13215,-33.06492 0.0596,-0.0303 12.99642,0.0363 28.74842,0.14798 30.72199,0.21782 32.51753,0.30488 39.68,1.92379 16.38467,3.70337 28.25221,11.09897 36.62421,22.82342 4.11078,5.75687 7.02743,12.39287 9.14628,20.80973 1.74517,6.93242 2.02961,10.31507 2.01815,24 -0.009,10.35722 -0.0991,12.52128 -0.72181,17.28 -1.31698,10.06397 -3.1965,18.86506 -5.56953,26.08 -10.71635,32.58192 -32.6643,53.4843 -64.3773,61.31044 -8.61181,2.12523 -12.94661,2.70394 -21.44,2.8623 -9.71223,0.18108 -51.34884,0.34144 -57.2,0.22029 z m 52.94047,-30.79998 c 3.81725,-0.17647 8.13919,-0.5299 9.6043,-0.78539 7.70036,-1.34284 15.93197,-4.8091 21.85523,-9.20306 3.02061,-2.24074 9.48986,-8.79112 11.78448,-11.93228 10.39929,-14.23581 16.09426,-35.22943 15.48625,-57.08762 -0.20271,-7.28741 -0.75837,-10.92053 -2.43164,-15.89902 -2.68061,-7.97564 -7.32413,-13.58774 -14.1182,-17.0631 -3.68802,-1.88653 -7.34713,-3.07159 -10.92424,-3.53798 -1.56183,-0.20364 -6.47329,-0.3106 -11.79226,-0.2568 l -9.11561,0.0922 -0.88064,4.16 c -0.48435,2.288 -3.84523,18.2 -7.46863,35.36 -3.6234,17.16 -8.73418,41.26244 -11.3573,53.56099 -2.62312,12.29854 -4.69172,22.48654 -4.59687,22.64 0.2265,0.3665 5.37297,0.34882 13.95513,-0.0479 z m 114.33954,30.83584 c -3.17279,-0.17446 -3.05731,-0.065 -2.53988,-2.40848 0.38014,-1.72168 8.16887,-38.23096 25.4169,-119.14041 2.10107,-9.856 5.62527,-26.37832 7.83155,-36.71626 2.20629,-10.33794 4.01143,-18.86994 4.01143,-18.96 0,-0.0901 8.28,-0.16374 18.4,-0.16374 15.8514,0 18.4,0.0642 18.4,0.46352 0,0.25493 -0.71615,3.74693 -1.59145,7.76 -0.8753,4.01306 -3.69145,17.16048 -6.25811,29.21648 -6.76063,31.75576 -25.42596,119.2398 -27.71933,129.92 -1.07709,5.016 -2.15587,9.332 -2.39728,9.59112 -0.37362,0.40102 -2.73608,0.4778 -15.87638,0.51603 -8.4906,0.0247 -16.44545,-0.0105 -17.67745,-0.0783 z m 393.84002,-0.0249 c -1.276,-0.0616 -2.32,-0.24295 -2.32,-0.40295 0,-0.15999 0.42878,-2.27768 0.95284,-4.70598 0.94455,-4.3767 9.26845,-43.72558 23.20499,-109.69508 11.24218,-53.21555 12.97891,-61.39868 13.15898,-62.00223 0.15817,-0.53016 1.40101,-0.55754 21.79238,-0.48 l 21.62466,0.0822 6.3683,20.16 c 29.8032,94.34803 35.0096,110.49621 35.4753,110.03055 0.1508,-0.15078 1.0771,-4.66534 2.0585,-10.03235 3.4393,-18.80818 7.1825,-37.10617 20.9801,-102.5582 2.4778,-11.75424 3.7304,-17.08278 4.0807,-17.36 0.6509,-0.51497 32.7033,-0.59031 32.7033,-0.0769 0,0.17772 -0.5005,2.66172 -1.1121,5.52 -0.9608,4.49027 -25.3891,120.12591 -33.3434,157.83687 -1.5221,7.216 -2.8523,13.2096 -2.956,13.31913 -0.1037,0.10952 -9.481,0.29004 -20.8385,0.40115 l -20.6499,0.20201 -11.0027,-34.16115 c -6.0514,-18.78863 -15.6527,-48.63314 -21.33623,-66.32114 -5.68354,-17.688 -10.5636,-32.64908 -10.84461,-33.24684 -0.30102,-0.64033 -0.62864,-0.969 -0.79744,-0.8 -0.15758,0.15776 -1.29662,6.76684 -2.5312,14.68684 -3.37966,21.681 -4.50344,27.41269 -17.5673,89.6 l -6.31899,30.08 -14.23084,0.018 c -7.82696,0.01 -15.27484,-0.0324 -16.55084,-0.094 z m -775.01707,-0.89264 c -2.79969,-0.7544 -4.61515,-1.79305 -6.89759,-3.94618 -2.56942,-2.42387 -3.46266,-4.1144 -6.11075,-11.56519 -0.96956,-2.728 -3.01392,-8.416 -4.54302,-12.64 -1.5291,-4.224 -3.68461,-10.2 -4.79001,-13.28 -3.27291,-9.11934 -4.35979,-11.78335 -4.9158,-12.04895 -0.28919,-0.13814 -13.0178,-0.30152 -28.2858,-0.36307 -15.268002,-0.0616 -27.760003,-0.17557 -27.760003,-0.25338 0,-0.30414 2.479573,-7.24539 7.992719,-22.3746 1.090297,-2.992 2.164311,-5.944 2.386697,-6.56 l 0.404339,-1.12 16.985928,-0.16448 c 9.34226,-0.0905 17.06006,-0.2386 17.15066,-0.3292 0.18389,-0.18389 -6.1143,-17.83773 -6.902,-19.34632 -0.2757,-0.528 -0.60659,-1.464 -0.73533,-2.08 -0.12874,-0.616 -0.8428,-2.704 -1.5868,-4.64 -0.74401,-1.936 -2.75187,-7.408 -4.46191,-12.16 l -3.10918,-8.64 2.12592,-5.76 c 1.16925,-3.168 2.92152,-7.992 3.89392,-10.72 1.79052,-5.02319 3.45492,-9.64387 5.35986,-14.88 4.34442,-11.94151 4.36884,-12 5.01079,-12 0.56546,0 2.90482,5.28361 5.19961,11.74366 3.52137,9.91296 8.56989,23.57156 8.84742,23.93634 0.1339,0.176 0.35009,0.824 0.48043,1.44 0.13034,0.616 0.80795,2.632 1.50579,4.48 1.63002,4.31655 2.27028,6.04297 3.26353,8.8 0.44385,1.232 1.52056,4.184 2.39269,6.56 2.9209,7.95755 11.93622,32.7705 12.84739,35.36 0.49544,1.408 1.86042,5.152 3.0333,8.32 1.17288,3.168 3.69111,10.08 5.59606,15.36 3.61083,10.00824 10.86979,29.81706 12.54728,34.24 1.71294,4.51641 2.19951,6.78506 2.20277,10.27062 0.002,2.41693 -0.15175,3.63797 -0.6115,4.84794 -0.81692,2.14995 -2.91912,5.10065 -4.68637,6.57789 -3.42248,2.86083 -9.39929,4.1291 -13.83104,2.93492 z M 29.621359,58.993885 c -5.698238,-0.88877 -10.499802,-3.26091 -14.234854,-7.03252 -4.718835,-4.76502 -6.893478,-10.62476 -6.868836,-18.50859 0.02539,-8.12275 2.130888,-13.82796 6.868836,-18.61228 3.823223,-3.86064 8.540178,-6.15008 14.532069,-7.05332 6.861106,-1.03427 12.824856,-0.25957 19.787933,2.57049 l 1.36,0.55275 v 5.26705 5.26704 l -0.95576,-0.68056 c -1.80841,-1.2877 -6.24854,-3.15175 -8.71075,-3.65694 -12.690774,-2.60387 -20.827607,5.32777 -19.44322,18.95288 1.07656,10.59548 8.541726,15.83474 19.44322,13.64578 2.416981,-0.48531 6.894642,-2.37457 8.736841,-3.68634 l 0.929669,-0.66198 v 5.26582 5.26582 l -2.48,0.98111 c -6.278167,2.4837 -12.319915,3.16027 -18.965148,2.12379 z m 50.085149,0.1544 c -10.130253,-1.57846 -17.129111,-7.70472 -19.737732,-17.27688 -0.644699,-2.36568 -0.738215,-3.4432 -0.735139,-8.47048 0.0041,-6.71064 0.370518,-8.58683 2.562276,-13.12 2.306436,-4.77034 5.295003,-7.81536 9.910595,-10.0978 4.333925,-2.14315 6.822824,-2.6449 13.12,-2.6449 4.564706,0 5.851904,0.11094 8.000002,0.68948 7.09621,1.91121 12.63511,6.50108 15.40586,12.76625 1.59466,3.6058 2.15561,6.83445 2.15561,12.40697 0,5.57253 -0.56095,8.80118 -2.15561,12.40698 -2.77832,6.28228 -8.40519,10.93387 -15.40586,12.73563 -2.95319,0.76006 -10.029822,1.08625 -13.120002,0.60475 z m 9.992481,-9.90022 c 1.01541,-0.43682 2.288611,-1.38086 3.289261,-2.4389 2.88746,-3.05307 4.15826,-7.15073 4.15826,-13.40824 0,-6.43751 -1.4572,-10.90155 -4.48226,-13.73115 -2.49272,-2.33164 -4.016153,-2.89549 -7.837742,-2.90089 -2.796701,-0.004 -3.428081,0.10219 -5.009723,0.84219 -3.066186,1.43459 -5.383276,4.375 -6.553928,8.31702 -1.100724,3.70653 -1.099045,11.24478 0.0033,14.95688 1.425135,4.79896 4.400512,7.96932 8.43535,8.98815 1.994457,0.50362 6.12403,0.18087 7.997451,-0.62506 z m 139.922381,9.76877 c -5.77192,-0.94887 -10.51609,-3.30031 -14.23486,-7.05547 -4.71883,-4.76502 -6.89348,-10.62476 -6.86883,-18.50859 0.0255,-8.16813 2.13579,-13.84733 6.90697,-18.58819 5.49579,-5.46086 13.11065,-7.92147 23.00186,-7.43264 5.52663,0.27312 12.19793,1.71111 15.28,3.29359 l 0.88,0.45183 v 5.1158 5.11581 l -2.32,-1.16937 c -7.94005,-4.00211 -16.97256,-4.75058 -22.64443,-1.87643 -3.48216,1.76454 -6.08555,5.12775 -7.20189,9.30382 -0.62227,2.32779 -0.71122,8.18834 -0.16475,10.85393 1.21358,5.91959 5.01234,9.86969 10.80821,11.2388 2.41594,0.5707 8.06653,0.45064 9.92286,-0.21082 l 1.04,-0.37059 v -4.92869 -4.9287 h -3.84 -3.84 v -4.32 -4.32 h 10.08 10.08 v 12.02007 12.02007 l -2.06909,0.93817 c -2.46375,1.11712 -6.48649,2.31531 -10.15137,3.02364 -3.73442,0.72177 -11.2628,0.89321 -14.66468,0.33396 z m 81.44515,0.13145 c -10.13026,-1.57846 -17.12911,-7.70472 -19.73774,-17.27688 -0.64469,-2.36568 -0.73821,-3.4432 -0.73514,-8.47048 0.004,-6.71064 0.37052,-8.58683 2.56228,-13.12 2.30644,-4.77034 5.295,-7.81536 9.9106,-10.0978 4.33392,-2.14315 6.82282,-2.6449 13.12,-2.6449 4.5647,0 5.8519,0.11094 8,0.68948 7.09622,1.91121 12.63511,6.50108 15.40587,12.76625 1.59465,3.6058 2.1556,6.83445 2.1556,12.40697 0,5.57253 -0.56095,8.80118 -2.1556,12.40698 -2.77833,6.28228 -8.4052,10.93387 -15.40587,12.73563 -2.95319,0.76006 -10.02982,1.08625 -13.12,0.60475 z m 9.99248,-9.90022 c 1.01541,-0.43682 2.2886,-1.38086 3.28926,-2.4389 2.88746,-3.05307 4.15826,-7.15073 4.15826,-13.40824 0,-6.43751 -1.4572,-10.90155 -4.48227,-13.73115 -2.49271,-2.33164 -4.01615,-2.89549 -7.83773,-2.90089 -2.79671,-0.004 -3.42808,0.10219 -5.00973,0.84219 -3.06618,1.43459 -5.38327,4.375 -6.55393,8.31702 -1.10072,3.70653 -1.09904,11.24478 0.003,14.95688 1.42513,4.79896 4.40051,7.96932 8.43535,8.98815 1.99445,0.50362 6.12403,0.18087 7.99745,-0.62506 z m 221.36753,9.7846 c -6.65487,-1.11683 -10.78325,-3.81018 -13.35026,-8.70969 -2.31741,-4.4231 -2.27538,-4.00323 -2.40635,-24.04205 l -0.11764,-18 h 6.41713 6.41712 l 0.002,16.08 c 0.001,9.69966 0.13586,16.90254 0.33874,18.15298 0.41592,2.56359 1.71154,5.03617 3.1412,5.99467 3.21651,2.1565 8.82174,1.77093 11.3095,-0.77794 2.35973,-2.4177 2.31138,-1.9824 2.41821,-21.76971 l 0.0955,-17.68 h 6.56914 6.56914 l -0.11993,17.52 c -0.11448,16.7247 -0.15103,17.63195 -0.80527,19.9862 -1.95554,7.03687 -5.8877,10.9632 -12.78245,12.7635 -3.23528,0.84477 -10.09593,1.08623 -13.69615,0.48204 z m 289.92001,0.24914 c -2.84525,-0.30456 -8.46325,-1.50047 -11.26541,-2.39808 l -2.97459,-0.95285 v -5.429 -5.42899 l 2.25232,1.13425 c 6.50254,3.27462 14.82659,4.76129 19.6397,3.50764 3.48713,-0.90829 4.84238,-2.5265 4.59674,-5.48865 -0.2603,-3.13889 -1.80049,-4.08918 -9.53998,-5.88614 -2.95412,-0.68589 -6.06809,-1.48036 -6.91995,-1.76549 -4.53786,-1.51889 -8.12349,-4.45133 -9.43787,-7.71859 -0.65261,-1.62224 -0.74653,-2.39698 -0.7486,-6.17498 -0.002,-4.25196 0.0149,-4.35679 1.09257,-6.65638 1.87677,-4.00472 5.40262,-6.68704 10.4853,-7.97677 4.58638,-1.1638 15.5283,-0.53501 22.65977,1.30218 l 1.6,0.41218 0.0878,5.34694 0.0878,5.34694 -1.20777,-0.51961 c -5.38877,-2.31832 -9.29036,-3.17321 -14.48778,-3.17445 -3.97355,-9.4e-4 -4.44698,0.0631 -5.90337,0.79897 -0.87085,0.44 -1.85339,1.17247 -2.18343,1.62771 -0.88441,1.2199 -1.05427,3.17399 -0.39641,4.56032 0.79437,1.67402 2.92901,2.58631 9.09062,3.8851 2.86589,0.60409 6.01076,1.33093 6.98861,1.6152 5.1722,1.5036 8.9694,4.45067 10.30003,7.99403 0.98407,2.62048 1.21276,6.9022 0.53787,10.07008 -1.7328,8.13356 -7.25371,11.72576 -18.43392,11.99409 -2.552,0.0612 -5.216,0.0497 -5.92,-0.0257 z m 253.12006,-0.13352 c -10.1303,-1.57846 -17.1292,-7.70472 -19.7378,-17.27688 -0.6447,-2.36568 -0.7382,-3.4432 -0.7351,-8.47048 0,-6.71064 0.3705,-8.58683 2.5623,-13.12 2.3064,-4.77034 5.295,-7.81536 9.9106,-10.0978 4.3339,-2.14315 6.8228,-2.6449 13.12,-2.6449 4.5647,0 5.8519,0.11094 8,0.68948 7.0962,1.91121 12.6351,6.50108 15.4058,12.76625 1.5947,3.6058 2.1556,6.83445 2.1556,12.40697 0,5.57253 -0.5609,8.80118 -2.1556,12.40698 -2.7783,6.28228 -8.4052,10.93387 -15.4058,12.73563 -2.9532,0.76006 -10.0299,1.08625 -13.12,0.60475 z m 9.9924,-9.90022 c 1.0154,-0.43682 2.2886,-1.38086 3.2893,-2.4389 2.8875,-3.05307 4.1583,-7.15073 4.1583,-13.40824 0,-6.43751 -1.4572,-10.90155 -4.4823,-13.73115 -2.4927,-2.33164 -4.0162,-2.89549 -7.8377,-2.90089 -2.7967,-0.004 -3.4281,0.10219 -5.0098,0.84219 -3.0662,1.43459 -5.3832,4.375 -6.5539,8.31702 -1.1007,3.70653 -1.099,11.24478 0,14.95688 1.4252,4.79896 4.4005,7.96932 8.4354,8.98815 1.9944,0.50362 6.124,0.18087 7.9974,-0.62506 z M 120.50651,33.400925 v -25.12 h 6.4 6.4 v 20.32 20.32 h 11.36 11.36 v 4.8 4.8 h -17.76 -17.76 z m 43.84,0 v -25.12 h 17.44 17.44 v 4.8 4.8 h -11.04 -11.04 v 4.8 4.8 h 10.4 10.4 v 4.8 4.8 h -10.4 -10.4 v 5.92 5.92 h 11.36 11.36 v 4.8 4.8 h -17.76 -17.76 z m 103.36,0 v -25.12 h 6.4 6.4 v 25.12 25.12 h -6.4 -6.4 z m 108.16001,-0.0246 v -25.1446 l 13.36,0.13448 c 11.18676,0.11261 13.69376,0.22208 15.41178,0.67296 7.10766,1.86538 11.23994,6.2415 12.20175,12.92175 1.06138,7.37186 -2.07527,13.80957 -8.13829,16.70319 -3.45915,1.65089 -5.46031,1.98244 -13.07524,2.16623 l -6.96,0.16799 v 8.7613 8.76129 h -6.4 -6.4 z m 23.23065,-2.20664 c 2.83049,-0.84056 4.63097,-3.44742 4.58501,-6.63849 -0.0318,-2.20678 -0.54539,-3.55552 -1.8697,-4.90996 -1.58162,-1.6176 -3.45624,-2.06032 -8.72404,-2.06032 h -4.42192 v 7.04 7.04 h 4.42192 c 2.96232,0 4.9457,-0.15554 6.00873,-0.47123 z m 27.32935,2.20332 V 8.225095 l 12.88,0.14301 c 13.63891,0.15143 15.2662,0.31052 18.71254,1.82949 4.85541,2.14 7.12746,5.91827 7.12746,11.85247 0,3.03754 -0.67231,5.42206 -2.14,7.59001 -1.2012,1.77433 -4.01871,3.90036 -6.06305,4.57505 l -1.16581,0.38475 1.52073,0.73293 c 1.76198,0.8492 3.33896,2.2773 4.73571,4.28865 0.88457,1.2738 7.90343,15.12674 9.02829,17.81892 l 0.45148,1.08054 h -6.80736 -6.80736 l -3.55541,-7.28661 c -5.31133,-10.88525 -6.04139,-11.61625 -11.83722,-11.85236 l -3.28,-0.13362 v 9.6363 9.63629 h -6.4 -6.4 z m 21.95485,-3.80456 c 2.83887,-0.84306 4.19072,-3.14022 3.87793,-6.58968 -0.20941,-2.30946 -0.92622,-3.54822 -2.60395,-4.50007 -1.16199,-0.65925 -1.8204,-0.75637 -5.86883,-0.86575 l -4.56,-0.1232 v 6.27559 6.27558 h 3.78192 c 2.40324,0 4.36192,-0.17224 5.37293,-0.47247 z m 31.16516,3.83247 v -25.12 h 17.44 17.44 v 4.8 4.8 h -11.04 -11.04 v 4.8 4.8 h 10.4 10.4 v 4.8 4.8 h -10.4 -10.4 v 5.92 5.92 h 11.36 11.36 v 4.8 4.8 h -17.76 -17.76 z m 103.04,0 v -25.12 h 7.169 7.169 l 9.071,17.13946 9.071,17.13946 0.0828,-17.13946 0.0828,-17.13946 h 6.07722 6.07722 v 25.12601 25.12601 l -7.22649,-0.086 -7.2265,-0.086 -9.0135,-17.02032 -9.01351,-17.02032 -0.0828,17.10032 -0.0828,17.10032 h -6.07722 -6.07722 z m 57.6,0 v -25.12 h 6.4 6.4 v 25.12 25.12 h -6.4 -6.4 z m 37.93453,24.56561 c -0.12004,-0.31108 -4.15792,-11.22161 -8.97307,-24.24561 -4.81515,-13.024 -8.90575,-24.076 -9.09022,-24.56 l -0.3354,-0.88 h 6.49486 6.49485 l 6.49626,18.16 c 3.57295,9.988 6.596,18.2701 6.7179,18.40467 0.1219,0.13457 3.17012,-8.00143 6.77383,-18.08 l 6.5522,-18.32467 6.49082,-0.0867 c 6.08749,-0.0813 6.47958,-0.0515 6.30978,0.48 -0.0996,0.31169 -4.2558,11.5827 -9.23605,25.0467 l -9.05499,24.48 -7.71126,0.0856 c -7.12334,0.0791 -7.7279,0.0425 -7.92951,-0.48 z m 40.78548,-24.56561 v -25.12 h 17.44 17.44 v 4.8 4.8 h -11.04 -11.04 v 4.8 4.8 h 10.4 10.4 v 4.8 4.8 h -10.4 -10.4 v 5.92 5.92 h 11.36 11.36 v 4.8 4.8 h -17.76 -17.76 z m 47.04,-0.0279 V 8.225105 l 12.88,0.14301 c 13.63891,0.15143 15.26619,0.31052 18.71254,1.82949 4.8554,2.14 7.12746,5.91827 7.12746,11.85247 0,3.03754 -0.67231,5.42206 -2.14,7.59001 -1.2012,1.77433 -4.01871,3.90036 -6.06305,4.57505 l -1.16581,0.38475 1.52072,0.73293 c 1.76199,0.8492 3.33896,2.2773 4.73572,4.28865 0.88457,1.2738 7.90342,15.12674 9.02828,17.81892 l 0.45149,1.08054 h -6.80736 -6.80736 l -3.55542,-7.28661 c -5.31132,-10.88525 -6.04138,-11.61625 -11.83721,-11.85236 l -3.28,-0.13362 v 9.6363 9.63629 h -6.4 -6.4 z m 21.95484,-3.80456 c 2.83888,-0.84306 4.19073,-3.14022 3.87794,-6.58968 -0.20941,-2.30946 -0.92622,-3.54822 -2.60396,-4.50007 -1.16199,-0.65925 -1.82039,-0.75637 -5.86882,-0.86575 l -4.56,-0.1232 v 6.27559 6.27558 h 3.78192 c 2.40324,0 4.36191,-0.17224 5.37292,-0.47247 z m 80.76517,3.83247 v -25.12 h 6.4 6.4 v 25.12 25.12 h -6.4 -6.4 z m 36.16,4.8 v -20.32 h -8.32 -8.32 v -4.8 -4.8 h 23.04 23.04 v 4.8 4.8 h -8.32 -8.32 v 20.32 20.32 h -6.4 -6.4 z m 25.31123,19.44 c 0.18447,-0.484 4.27507,-11.536 9.09022,-24.56 4.81515,-13.024 8.85304,-23.93452 8.97307,-24.2456 0.20162,-0.52249 0.80617,-0.55908 7.92951,-0.48 l 7.71126,0.0856 9.055,24.48 c 4.98024,13.464 9.13646,24.73502 9.23604,25.0467 0.16979,0.53145 -0.22121,0.56131 -6.28477,0.48 l -6.46582,-0.0867 -1.59875,-4.56 -1.59875,-4.56 h -10.1195 -10.1195 l -1.56086,4.64 -1.56086,4.64 h -6.51084 -6.51084 z m 30.76613,-23.68 c -1.13479,-3.3 -2.6715,-7.7951 -3.41491,-9.98912 l -1.35165,-3.98913 -0.39468,1.10913 c -1.15386,3.24252 -6.43612,18.61738 -6.43612,18.73335 0,0.0747 3.07364,0.13577 6.83031,0.13577 h 6.83031 z m 28.08264,-0.58791 V 8.225105 l 12.88005,0.14301 c 13.6389,0.15143 15.2661,0.31052 18.7125,1.82949 4.8554,2.14 7.1275,5.91827 7.1275,11.85247 0,3.03754 -0.6724,5.42206 -2.14,7.59001 -1.2013,1.77433 -4.0188,3.90036 -6.0631,4.57505 l -1.1658,0.38475 1.5207,0.73293 c 1.762,0.8492 3.339,2.2773 4.7357,4.28865 0.8846,1.2738 7.9035,15.12674 9.0283,17.81892 l 0.4515,1.08054 h -6.8074 -6.8073 l -3.5554,-7.28661 c -5.3114,-10.88525 -6.0414,-11.61625 -11.8372,-11.85236 l -3.28,-0.13362 v 9.6363 9.63629 h -6.40003 -6.40002 z m 21.95485,-3.80456 c 2.8389,-0.84306 4.1907,-3.14022 3.8779,-6.58968 -0.2094,-2.30946 -0.9262,-3.54822 -2.6039,-4.50007 -1.162,-0.65925 -1.8204,-0.75637 -5.8688,-0.86575 l -4.56,-0.1232 v 6.27559 6.27558 h 3.7819 c 2.4032,0 4.3619,-0.17224 5.3729,-0.47247 z m 31.1652,3.83247 v -25.12 h 6.4 6.4 v 25.12 25.12 h -6.4 -6.4 z"
       id="path1" />
    <path
       style="fill:#ff0000;fill-opacity:1"
       d="m 9.104838,280.39866 c -0.89808,-0.0802 -1.33732,-0.2578 -1.24661,-0.5041 0.077,-0.20916 0.38862,-1.13629 0.6924,-2.06029 l 0.55232,-1.68 h 16.45429 c 9.04985,0 16.45428,0.0705 16.45428,0.15663 0,0.0862 -0.37531,1.09415 -0.83403,2.24 l -0.83403,2.08337 -14.92597,-0.0559 c -8.20928,-0.0308 -15.54997,-0.11162 -16.31265,-0.1797 z m 3.54668,-11.81478 c -0.55233,-0.225 -0.52958,-0.35804 0.59026,-3.45289 l 0.99027,-2.73672 h 16.28973 c 8.95936,0 16.28038,0.108 16.26893,0.24 -0.0114,0.132 -0.47945,1.536 -1.04,3.12 l -1.01919,2.88 -15.84,0.0563 c -8.712,0.031 -16.02,-0.017 -16.24,-0.10667 z m 3.44,-11.49213 c 0,-0.10358 0.35286,-1.07689 0.78412,-2.16291 0.43127,-1.08601 2.65044,-7.08657 4.93149,-13.33457 5.63886,-15.44532 10.55694,-28.8848 12.82265,-35.04 1.03656,-2.816 4.9336,-13.544 8.66008,-23.84 15.86735,-43.84032 23.86891,-65.80872 25.09742,-68.90534 2.37452,-5.98533 3.7854,-10.50143 3.40123,-10.8871 -0.21303,-0.21387 -1.92674,-0.43446 -4.09834,-0.52756 l -3.73221,-0.16 4.62678,-3.70451 c 11.98481,-9.59583 23.98171,-19.101357 27.06715,-21.446157 2.832042,-2.15224 3.472092,-2.51324 3.824382,-2.15708 0.45027,0.45521 5.73341,10.318387 11.22244,20.951357 l 3.32637,6.44361 -0.87969,0.22079 c -0.48383,0.12143 -2.17888,0.13195 -3.76678,0.0234 -2.08618,-0.14265 -3.10624,-0.0816 -3.67708,0.22007 -0.64718,0.34201 -1.21508,1.60255 -3.14149,6.97302 -4.09678,11.42101 -11.729642,32.41923 -15.759752,43.35554 -2.1403,5.808 -4.29558,11.712 -4.78952,13.12 -0.49394,1.408 -2.2173,6.16 -3.8297,10.56 -3.19757,8.7257 -7.55236,20.64955 -9.93389,27.2 -0.83184,2.288 -3.13159,8.552 -5.11054,13.92 -1.97895,5.368 -4.31046,11.776 -5.18112,14.24 -0.87067,2.464 -2.35156,6.568 -3.29087,9.12 -0.93931,2.552 -2.29465,6.296 -3.01185,8.32 -0.7172,2.024 -1.64051,4.544 -2.0518,5.6 l -0.7478,1.92 -16.38084,0.0829 c -9.00946,0.0456 -16.38084,-0.002 -16.38084,-0.10542 z M 119.25807,102.42183 c -0.85881,-0.373 -1.03166,-0.67643 -8.76558,-15.38756 -7.4716,-14.212157 -9.48546,-17.704727 -10.02491,-17.385927 -1.06597,0.62995 -6.613082,4.9797 -16.646632,13.053397 -6.13281,4.93489 -11.89281,9.54571 -12.8,10.24627 -0.90718,0.70056 -3.73012,2.91998 -6.27319,4.93206 -2.54307,2.01207 -4.99107,3.85 -5.44,4.08429 -0.48699,0.25414 -1.84888,0.42212 -3.37624,0.41643 l -2.56,-0.01 0.83932,-0.70849 c 0.46162,-0.38967 3.05362,-2.50492 5.76,-4.70055 2.70637,-2.19564 5.20868,-4.25727 5.56068,-4.58141 0.352,-0.32414 1.26274,-1.04771 2.02387,-1.60794 1.69439,-1.24715 25.90659,-20.482387 30.381162,-24.136137 4.24527,-3.46651 5.41436,-4.16126 6.00365,-3.56777 0.2432,0.24493 2.45538,4.35736 4.91596,9.13874 2.46058,4.78138 4.81889,9.24538 5.24069,9.919997 0.4218,0.67462 1.6028,2.88258 2.62445,4.90658 1.02164,2.024 2.78184,5.39567 3.91156,7.49259 1.12971,2.09693 2.26462,4.25693 2.52202,4.8 0.2574,0.54308 0.7136,1.37525 1.0138,1.84927 0.30019,0.47402 0.4692,0.93845 0.37558,1.03207 -0.32926,0.32927 -4.62066,0.50269 -5.28619,0.21363 z"
       id="path1-7" />
  </g>
</svg>
