<?xml version="1.0" encoding="UTF-8" standalone="no"?>
<!-- Created with Inkscape (http://www.inkscape.org/) -->

<svg
   version="1.1"
   id="svg1"
   width="780.47998"
   height="209.28"
   viewBox="0 0 780.47998 209.28"
   sodipodi:docname="Adison-Horizontal-Blanco.svg"
   inkscape:version="1.3.2 (091e20e, 2023-11-25, custom)"
   xmlns:inkscape="http://www.inkscape.org/namespaces/inkscape"
   xmlns:sodipodi="http://sodipodi.sourceforge.net/DTD/sodipodi-0.dtd"
   xmlns="http://www.w3.org/2000/svg"
   xmlns:svg="http://www.w3.org/2000/svg">
  <defs
     id="defs1" />
  <sodipodi:namedview
     id="namedview1"
     pagecolor="#505050"
     bordercolor="#eeeeee"
     borderopacity="1"
     inkscape:showpageshadow="0"
     inkscape:pageopacity="0"
     inkscape:pagecheckerboard="0"
     inkscape:deskcolor="#505050"
     inkscape:zoom="0.82626255"
     inkscape:cx="381.83989"
     inkscape:cy="211.19195"
     inkscape:window-width="2560"
     inkscape:window-height="1017"
     inkscape:window-x="1912"
     inkscape:window-y="-8"
     inkscape:window-maximized="1"
     inkscape:current-layer="svg1" />
  <g
     id="g8"
     inkscape:label="Addison"
     style="display:inline">
    <g
       id="g4"
       transform="matrix(1.0186993,0,0,1.0186993,-8.386756,-17.914571)">
      <path
         style="fill:#ffffff;stroke-width:0.0373062"
         d="m 127.63905,207.16914 c 0,-0.70233 25.77172,-122.163956 26.11342,-123.072016 0.57033,-1.515682 40.9226,-0.410587 48.49905,1.328204 16.09224,3.693157 26.72952,13.896276 31.02508,29.758812 1.84555,6.81514 1.62615,27.73814 -0.38927,37.12558 -6.11894,28.50067 -21.84979,46.02579 -47.51255,52.93182 -6.36477,1.7128 -7.15109,1.76248 -32.13009,2.02961 -14.0831,0.15061 -25.60564,0.10471 -25.60564,-0.10201 z m 48.76732,-21.80685 c 12.51341,-2.94967 22.56418,-12.35072 27.78726,-25.991 3.50156,-9.14446 4.49288,-14.95933 4.46865,-26.21233 -0.0194,-8.98482 -0.20379,-10.633 -1.57753,-14.09654 -2.36809,-5.97053 -5.2693,-9.31617 -10.31146,-11.89108 -4.12723,-2.10765 -4.95156,-2.27178 -13.26811,-2.64165 l -8.86748,-0.39438 -0.41371,1.64836 c -1.10546,4.4045 -16.73995,78.78365 -16.73995,79.63823 0,1.37114 13.02675,1.3301 18.92233,-0.0596 z"
         id="path2-9" />
      <path
         style="fill:#ffffff;stroke-width:0.0373062"
         d="m 246.3407,206.51137 c 0,-0.5065 5.79943,-28.32613 12.88761,-61.8214 7.08818,-33.49526 12.88761,-61.020253 12.88761,-61.166645 0,-0.146399 9.84376,-0.06168 21.87502,0.18834 18.07608,0.375572 22.75849,0.676031 26.96223,1.730076 15.99539,4.010689 26.32473,13.941888 30.56092,29.382919 1.34651,4.90807 1.44053,6.5132 1.15037,19.63999 -0.29238,13.22762 -0.47217,14.89215 -2.40756,22.2905 -6.27766,23.99734 -20.2913,39.86183 -41.35946,46.82196 -10.29783,3.40201 -15.02571,3.85517 -40.22208,3.85517 -18.36028,0 -22.33466,-0.16387 -22.33466,-0.92091 z m 48.76731,-21.14908 c 14.21848,-3.35159 25.59463,-15.95105 29.91779,-33.13495 1.93241,-7.68096 2.82789,-18.63013 2.0588,-25.17303 -0.96923,-8.24555 -2.40076,-11.6309 -6.76616,-16.0009 -5.13086,-5.13628 -8.58731,-6.26715 -19.35682,-6.33311 l -8.12138,-0.0497 -7.97,37.64539 c -4.38349,20.70495 -8.24171,39.09523 -8.57382,40.86728 l -0.60383,3.2219 7.53822,-0.01 c 4.31078,-0.006 9.39594,-0.44793 11.8772,-1.03281 z"
         id="path3-6" />
      <path
         style="fill:#ffffff;stroke-width:0.0373062"
         d="m 364.71339,205.90612 c 0.20636,-0.83939 6.11568,-28.46531 13.13185,-61.39093 7.01615,-32.92562 12.92706,-60.035169 13.13535,-60.243452 0.40761,-0.407604 24.19683,-0.574044 24.59877,-0.172109 0.23172,0.23172 -22.87976,109.324731 -25.15821,118.754161 l -1.1063,4.57849 h -12.48832 -12.48832 z"
         id="path4-8" />
      <path
         style="fill:#ffffff;stroke-width:0.0373062"
         d="m 440.94741,208.76599 c -6.36086,-0.74359 -11.99436,-2.30021 -17.16368,-4.7426 l -4.47777,-2.11564 v -10.06987 c 0,-5.53842 0.18139,-10.54255 0.40308,-11.12028 0.34337,-0.89478 0.97146,-0.76443 4.23935,0.87979 2.10994,1.06161 6.43074,2.80657 9.60177,3.87769 5.33377,1.80166 6.5274,1.94749 15.93994,1.94749 9.13313,0 10.45211,-0.14983 12.88761,-1.46405 5.53096,-2.98453 7.81076,-6.69017 7.7855,-12.65473 -0.0286,-6.76693 -2.15747,-9.58979 -14.99507,-19.88396 -12.89571,-10.34076 -17.49433,-16.35988 -20.02688,-26.21313 -1.37642,-5.35516 -0.89267,-14.80331 1.04096,-20.33081 3.90832,-11.172436 13.80659,-19.8449 26.73479,-23.423922 3.20502,-0.887269 6.71615,-1.150166 14.72234,-1.102351 9.00088,0.05375 11.44832,0.312256 17.01026,1.796641 6.67274,1.780831 15.12848,5.556425 14.74563,6.584106 -0.11834,0.317673 -2.04656,4.569962 -4.28494,9.449536 -3.10283,6.76406 -4.31151,8.77277 -5.08721,8.4545 -10.30601,-4.2285 -19.33421,-5.85014 -27.32449,-4.90801 -13.72973,1.61887 -17.18838,17.77471 -5.79903,27.08814 1.61666,1.32199 5.55576,4.27952 8.75355,6.57228 7.18492,5.15147 14.11417,12.3982 16.48128,17.23641 2.1409,4.37584 3.79536,11.72514 3.79536,16.85941 0,20.45543 -15.33902,35.03412 -39.24665,37.30129 -7.90857,0.74997 -9.17925,0.74851 -15.7357,-0.018 z"
         id="path5-9" />
      <path
         style="fill:#ffffff;stroke-width:0.0373062"
         d="m 558.01733,208.78503 c -15.40275,-1.56839 -27.28486,-9.52623 -33.41618,-22.3799 -3.81531,-7.9984 -4.97314,-13.84569 -4.97314,-25.11527 0,-27.19205 10.21581,-52.20322 27.01716,-66.145581 5.11534,-4.244893 15.83196,-9.767236 22.56403,-11.627382 3.46707,-0.957994 6.87218,-1.212604 15.93993,-1.191861 10.67057,0.02442 11.9399,0.162615 17.01056,1.852132 13.60024,4.531544 22.84818,14.757048 26.526,29.329972 1.58468,6.27911 1.59122,24.35029 0.0121,33.56494 -5.61797,32.78349 -23.59065,54.81187 -49.49239,60.66077 -5.68677,1.28413 -14.57535,1.72553 -21.18812,1.05218 z m 17.13355,-22.0552 c 1.9111,-0.56753 5.39499,-2.32262 7.74199,-3.90019 11.60121,-7.79797 19.20798,-24.31922 21.06262,-45.74624 1.21277,-14.01148 -0.46534,-21.87831 -5.96563,-27.96649 -3.73543,-4.13467 -7.00304,-5.56709 -13.6448,-5.98145 -9.14533,-0.57056 -15.92872,2.50805 -23.46717,10.65046 -9.77329,10.55633 -15.47342,27.70465 -15.49112,46.60357 -0.008,9.09091 0.62446,12.96591 2.80858,17.19399 1.93381,3.74351 6.28801,7.5079 10.27829,8.886 4.46771,1.54298 11.96408,1.66001 16.67724,0.26035 z"
         id="path6-3" />
      <path
         style="fill:#ffffff;stroke-width:0.0373062"
         d="m 641.14629,207.26271 c 0.0208,-0.0933 5.90592,-27.79315 13.07805,-61.55529 l 13.04025,-61.385713 15.01242,-0.182389 15.01242,-0.182397 1.03945,3.23472 c 0.57169,1.779098 6.88662,21.701309 14.03316,44.271579 12.74558,40.25313 13.97477,43.87382 14.66161,43.18698 0.18708,-0.18706 2.11511,-9.29387 4.2846,-20.23738 4.39118,-22.15107 14.25504,-69.186786 14.64189,-69.820174 0.4218,-0.690458 13.96103,-1.238631 18.30562,-0.74115 l 4.10657,0.470211 -12.62861,59.689973 c -6.9457,32.82949 -12.84382,60.52936 -13.10682,61.55528 l -0.47829,1.86532 h -14.20782 -14.20788 l -5.42152,-16.78781 c -2.98186,-9.23329 -9.79873,-30.37066 -15.14868,-46.97194 -5.34994,-16.60127 -10.0118,-30.11978 -10.35969,-30.04112 -0.34789,0.0787 -1.76158,6.79378 -3.14153,14.92249 -1.37995,8.12872 -4.99125,26.68357 -8.02511,41.233 -3.03386,14.54943 -6.01497,28.97168 -6.62469,32.04944 l -1.10858,5.59594 H 652.5058 c -6.26853,0 -11.3803,-0.0763 -11.35951,-0.16957 z"
         id="path7" />
    </g>
    <g
       id="g5"
       transform="matrix(0.99862257,0,0,0.99862257,2.0011088,-3.9831174)">
      <path
         style="fill:#ffffff;stroke-width:0.0373062"
         d="m 750.99357,46.167607 c -4.37911,-2.304112 -7.21263,-6.093982 -8.24366,-11.025916 -1.80951,-8.655504 1.52426,-17.03481 8.15027,-20.485343 3.0608,-1.593942 4.46079,-1.893725 8.81781,-1.888151 11.43267,0.01463 17.68775,6.242447 17.70628,17.629048 0.01,6.174244 -1.91217,10.908918 -5.69462,14.026759 -3.21722,2.651873 -6.51331,3.608915 -12.42946,3.608915 -3.88273,0 -5.41576,-0.344252 -8.30662,-1.865312 z m 12.88635,-4.74912 c 3.3657,-1.681375 4.74569,-4.842357 4.74696,-10.873454 0,-7.831601 -2.14009,-11.23098 -7.63816,-12.123198 -5.85714,-0.950483 -9.99641,4.008254 -9.99641,11.97541 0,9.64072 5.77132,14.576234 12.88761,11.021242 z"
         id="path8" />
      <path
         style="fill:#ffffff;stroke-width:0.00932655"
         d="M 726.06497,30.397245 V 12.846358 h 4.40887 4.40894 v 17.550887 17.550887 h -4.40894 -4.40887 z"
         id="path9" />
      <path
         style="fill:#ffffff;stroke-width:0.00932655"
         d="M 688.75871,30.397245 V 12.846358 l 2.67079,0.0076 c 5.35027,0.01512 15.41636,0.321696 16.47455,0.501749 3.5158,0.598232 6.34707,2.714789 7.30554,5.461472 0.52299,1.498659 0.66039,4.546403 0.27353,6.068968 -0.68087,2.680154 -2.43614,4.707378 -5.06904,5.854406 -0.6253,0.27241 -1.13285,0.535543 -1.1278,0.584738 0.007,0.0492 0.46433,0.312127 1.02072,0.584295 1.14646,0.560813 2.35425,1.649967 3.21216,2.896627 0.58727,0.853349 6.61071,12.681364 6.61071,12.981201 0,0.0974 -1.83442,0.160768 -4.65419,0.160768 h -4.65419 l -2.11335,-4.31761 c -2.56553,-5.241425 -3.51271,-6.866602 -4.54332,-7.795538 -0.94675,-0.853314 -1.79049,-1.131921 -3.70554,-1.223625 -0.79272,-0.03796 -1.76565,-0.09567 -2.16205,-0.128245 l -0.72066,-0.05922 v 6.762123 6.76212 h -4.40894 -4.40892 z m 15.84897,-2.769361 c 0.46292,-0.209389 0.98611,-0.511333 1.16267,-0.670985 1.45332,-1.314273 1.49977,-5.056861 0.0798,-6.431204 -0.86318,-0.83546 -1.68952,-1.09792 -3.69509,-1.173618 -0.97931,-0.03697 -2.41003,-0.09572 -3.17953,-0.130582 l -1.39894,-0.06338 v 4.493533 4.493533 l 3.0947,-0.0683 c 2.75732,-0.06085 3.18648,-0.109807 3.93641,-0.449003 z"
         id="path10-3" />
      <path
         style="fill:#ffffff;stroke-width:0.00932655"
         d="m 647.38531,47.823766 c 10e-4,-0.0715 2.88394,-7.913432 6.40559,-17.426521 l 6.40301,-17.296526 1.15751,-0.114822 c 0.63663,-0.06315 3.06832,-0.06315 5.40375,0 l 4.24622,0.114822 4.97919,13.481116 c 2.73856,7.414613 5.61841,15.19805 6.39968,17.296526 0.78126,2.098475 1.36718,3.873981 1.30201,3.945567 -0.0652,0.07159 -2.04951,0.109741 -4.40969,0.08479 l -4.29122,-0.04537 -1.10234,-3.181312 -1.10234,-3.181313 -7.21409,0.0442 -7.2141,0.04419 -1.04567,3.137114 -1.04567,3.137116 -4.43722,0.04521 c -2.44047,0.02487 -4.43606,-0.01329 -4.43462,-0.08479 z m 23.05932,-12.890423 c -9e-5,-0.09521 -4.13239,-12.263366 -4.67896,-13.77787 -0.0792,-0.219532 -0.11315,-0.216346 -0.24769,0.02327 -0.19005,0.338447 -4.73894,13.518769 -4.73894,13.730968 0,0.08451 2.12481,0.150812 4.83285,0.150812 2.65807,0 4.83281,-0.05723 4.83274,-0.12718 z"
         id="path11-4" />
      <path
         style="fill:#ffffff;stroke-width:0.00932655"
         d="M 629.74703,33.703934 V 19.459736 h -5.85029 -5.8503 v -3.306689 -3.306689 h 16.10951 16.10951 v 3.306689 3.306689 h -5.85029 -5.8503 v 14.244198 14.244198 h -4.40892 -4.40892 z"
         id="path12-1" />
      <path
         style="fill:#ffffff;stroke-width:0.00932655"
         d="M 604.31097,30.397245 V 12.846358 h 4.40892 4.40891 v 17.550887 17.550887 h -4.40891 -4.40892 z"
         id="path13-7" />
      <path
         style="fill:#ffffff;stroke-width:0.00932655"
         d="m 579.04447,48.518013 c -0.23316,-0.03423 -0.99624,-0.144207 -1.69573,-0.244401 -1.77518,-0.254272 -4.68456,-0.921893 -6.74056,-1.54677 l -1.73814,-0.528264 v -3.691916 -3.691918 l 1.73814,0.81877 c 3.55489,1.674578 7.27627,2.56344 10.72554,2.561822 4.56221,-0.0022 6.69675,-1.655606 6.02232,-4.665034 -0.42482,-1.895652 -1.28751,-2.350513 -7.37891,-3.890603 -5.2828,-1.335651 -6.78822,-1.985553 -8.70057,-3.756092 -2.1123,-1.955671 -2.68214,-3.73158 -2.53739,-7.907893 0.0725,-2.091697 0.0922,-2.184234 0.75879,-3.573554 1.56687,-3.265438 4.5691,-5.30136 8.71052,-5.906916 3.0317,-0.443294 9.92618,0.07758 14.02036,1.059223 l 1.56855,0.376087 v 3.630602 c 0,2.840432 -0.0461,3.610607 -0.21196,3.538728 -3.18461,-1.38032 -5.85568,-2.091545 -8.77544,-2.336637 -2.8824,-0.241954 -4.91093,-0.07793 -6.07383,0.491121 -1.63679,0.80094 -2.19952,1.805513 -2.02556,3.615959 0.16225,1.688665 1.38894,2.395955 5.97971,3.44783 5.92251,1.357012 6.2658,1.455849 8.0156,2.307787 3.98609,1.940727 5.45933,4.579058 5.25011,9.402121 -0.24317,5.605703 -3.00252,8.859088 -8.49807,10.019546 -1.79279,0.37857 -7.04033,0.671963 -8.41348,0.470402 z"
         id="path14-0" />
      <path
         style="fill:#ffffff;stroke-width:0.00932655"
         d="M 532.24211,30.37723 V 12.806328 l 7.58842,0.115263 c 9.22304,0.140091 11.51427,0.2916 13.25985,0.876811 2.97547,0.997538 4.77797,2.630561 5.63052,5.101135 0.34108,0.988383 0.39816,1.481752 0.39839,3.442953 2.3e-4,1.959184 -0.0568,2.454633 -0.39593,3.436333 -0.71717,2.076462 -2.56912,3.978515 -4.8347,4.965509 -0.62046,0.270304 -1.12402,0.531714 -1.119,0.580909 0.005,0.0492 0.46434,0.312127 1.02072,0.584295 1.23305,0.603179 2.46228,1.7531 3.36192,3.145007 0.68923,1.066383 6.46096,12.44053 6.46096,12.732402 0,0.09795 -1.82431,0.161187 -4.64988,0.161187 h -4.64988 l -2.12333,-4.327148 c -2.58194,-5.261758 -3.51393,-6.859395 -4.54197,-7.786 -0.94674,-0.853314 -1.79044,-1.131921 -3.7055,-1.223625 -0.79276,-0.03796 -1.76568,-0.09567 -2.16207,-0.128245 l -0.72069,-0.05922 v 6.762123 6.76212 h -4.40892 -4.40891 z m 15.84895,-2.749346 c 0.46292,-0.209389 0.98612,-0.511333 1.16267,-0.670985 1.45334,-1.314273 1.49979,-5.056861 0.0798,-6.431204 -0.86321,-0.83546 -1.68955,-1.09792 -3.6951,-1.173618 -0.97929,-0.03697 -2.41007,-0.09572 -3.17951,-0.130582 l -1.39899,-0.06338 v 4.493533 4.493533 l 3.09473,-0.0683 c 2.75728,-0.06085 3.18649,-0.109807 3.93639,-0.449003 z"
         id="path15-7" />
      <path
         style="fill:#ffffff;stroke-width:0.0131898"
         d="M 403.5753,30.373018 V 12.861763 l 4.96692,0.06482 4.96693,0.06482 6.24436,11.795867 c 3.4344,6.487727 6.3253,11.874538 6.42422,11.970692 0.0989,0.09616 0.18005,-1.758669 0.18026,-4.121832 2.3e-4,-2.363163 0.0716,-7.776954 0.15867,-12.030647 l 0.15826,-7.733987 h 4.03807 4.03808 v 17.511255 17.511255 l -4.94009,-0.06482 -4.94009,-0.06482 -6.22831,-11.750864 c -3.42557,-6.462975 -6.32854,-11.853384 -6.45106,-11.978687 -0.13718,-0.140312 -0.22274,4.396421 -0.22274,11.810817 v 12.03864 h -4.19674 -4.19674 z"
         id="path16-2" />
      <path
         style="fill:#ffffff;stroke-width:0.0131898"
         d="m 444.1038,30.377884 v -17.50639 h 4.31664 4.31664 v 17.50639 17.506388 h -4.31664 -4.31664 z"
         id="path17-7" />
      <path
         style="fill:#ffffff;stroke-width:0.0131898"
         d="m 468.35057,41.349353 c -1.33402,-3.594205 -4.24429,-11.445101 -6.46729,-17.446435 l -4.0418,-10.911517 4.32484,-0.06553 c 3.1523,-0.04776 4.37279,0.01205 4.50168,0.220597 0.0973,0.157368 0.78983,2.021428 1.53904,4.142357 2.17177,6.147961 7.60256,21.113137 7.70163,21.222732 0.0497,0.05496 0.15575,0.0345 0.23572,-0.04547 0.20106,-0.201061 3.32557,-8.635593 6.55916,-17.706303 l 2.70206,-7.57968 2.31123,-0.153066 c 3.08548,-0.20434 5.84316,-0.18972 6.19316,0.03283 0.20321,0.129206 -1.32621,4.539476 -5.34201,15.404348 -3.09469,8.372822 -5.97039,16.167578 -6.39042,17.321681 l -0.7637,2.098368 h -5.31891 -5.31891 z"
         id="path18-3" />
      <path
         style="fill:#ffffff;stroke-width:0.0131898"
         d="m 499.26091,30.377884 v -17.50639 h 12.11058 12.11059 v 3.237483 3.237483 h -7.67404 -7.67402 v 3.477297 3.477296 h 7.1944 7.1944 v 3.35739 3.357389 h -7.1944 -7.1944 v 4.196738 4.196736 h 7.91384 7.91385 v 3.237483 3.237483 h -12.3504 -12.3504 z"
         id="path19-9" />
      <path
         style="fill:#ffffff;stroke-width:0.0131898"
         d="m 258.48811,30.377884 v -17.50639 l 4.25669,0.01556 c 2.34118,0.0086 6.79272,0.102089 9.89231,0.20784 5.19069,0.177095 5.76586,0.24067 7.28535,0.805269 4.16867,1.548956 6.49316,4.374606 7.13196,8.669611 0.9073,6.100199 -2.71259,11.239636 -8.78169,12.468078 -0.92328,0.186881 -3.75608,0.415683 -6.29511,0.508449 l -4.61641,0.168667 v 6.08465 6.08465 h -4.43655 -4.43655 z m 16.93287,-1.66661 c 2.89931,-1.279223 3.61286,-5.890503 1.25252,-8.094347 -1.05703,-0.986943 -2.17369,-1.260403 -5.82407,-1.426271 l -3.48822,-0.158499 v 5.22795 5.22795 l 3.53725,-0.171035 c 2.59818,-0.125627 3.79882,-0.286442 4.52252,-0.605748 z"
         id="path20-3" />
      <path
         style="fill:#ffffff;stroke-width:0.0131898"
         d="m 293.98051,30.343003 v -17.54127 l 8.57334,0.170041 c 9.8116,0.194599 11.30089,0.346485 13.54645,1.381533 3.25307,1.499435 4.79199,4.065644 4.79199,7.990822 0,3.903014 -1.53407,6.462596 -4.87508,8.134037 l -1.63982,0.820368 1.2757,0.719959 c 0.70163,0.395978 1.70612,1.20895 2.2322,1.806606 0.95515,1.085109 3.96799,6.607972 6.26322,11.481178 l 1.21421,2.577995 h -4.64422 -4.64421 l -2.16303,-4.448076 c -1.18967,-2.446441 -2.64563,-5.174013 -3.23548,-6.061268 -1.47182,-2.213921 -2.31491,-2.65715 -5.41343,-2.845921 l -2.40873,-0.146746 v 6.751006 6.751005 h -4.43655 -4.43656 z m 15.8389,-2.655049 c 1.80147,-0.767633 2.64565,-2.662787 2.27804,-5.11413 -0.19526,-1.302086 -1.24126,-2.610481 -2.36118,-2.9535 -0.42208,-0.129276 -2.14334,-0.306017 -3.82503,-0.392757 l -3.05762,-0.15771 v 4.606682 4.606682 l 3.05762,-0.116418 c 1.95173,-0.07431 3.36524,-0.247504 3.90817,-0.478849 z"
         id="path21-1" />
      <path
         style="fill:#ffffff;stroke-width:0.0131898"
         d="m 331.39143,30.377884 v -17.50639 h 12.11058 12.11059 v 3.237483 3.237483 h -7.79394 -7.79395 v 3.477297 3.477296 h 7.31432 7.31431 v 3.35739 3.357389 h -7.31431 -7.31432 v 4.196738 4.196736 h 8.03376 8.03375 v 3.237483 3.237483 h -12.35039 -12.3504 z"
         id="path22-1" />
      <path
         style="fill:#ffffff;stroke-width:0.0131898"
         d="m 375.7956,48.362012 c -3.25562,-0.457293 -6.11573,-1.795529 -7.92418,-3.707685 -1.63244,-1.72607 -2.85296,-4.228448 -3.13177,-6.4209 -0.12171,-0.957163 -0.29105,-7.055166 -0.37629,-13.551115 l -0.155,-11.810818 h 4.45531 4.45532 l 0.002,11.211284 c 10e-4,6.647353 0.10402,11.84584 0.25289,12.770071 0.3601,2.235774 1.3158,3.810252 2.76574,4.556457 1.57775,0.811992 4.74076,0.848089 6.21238,0.0709 1.23892,-0.654295 2.21625,-1.69358 2.56434,-2.726901 0.18966,-0.562983 0.30718,-4.762258 0.37366,-13.351552 l 0.097,-12.530258 h 4.53781 4.5378 l -0.0211,5.455759 c -0.0116,3.000667 -0.10459,8.747198 -0.20662,12.770071 -0.20106,7.927535 -0.24024,8.172095 -1.80326,11.25657 -1.37241,2.708327 -4.30676,4.821686 -7.82546,5.635999 -1.93199,0.447112 -6.80974,0.653131 -8.81035,0.372119 z"
         id="path23-0" />
      <path
         style="fill:#ffffff;stroke-width:0.0131898"
         d="m 212.88297,48.374334 c -5.75987,-1.054211 -9.97317,-4.031891 -12.26259,-8.66638 -1.66595,-3.372409 -1.9105,-4.750258 -1.78367,-10.049511 0.11691,-4.884972 0.27875,-5.611933 1.96225,-8.814029 1.01292,-1.926589 2.23689,-3.467932 3.72218,-4.687287 1.335,-1.095977 4.23198,-2.621143 6.00426,-3.161049 1.77958,-0.54213 7.95082,-0.772111 10.20479,-0.380297 5.08128,0.883292 9.64355,4.232016 11.84282,8.692672 1.45971,2.96063 1.75426,4.744073 1.63654,9.908778 -0.0908,3.985747 -0.15137,4.472459 -0.78962,6.349299 -0.83951,2.468662 -2.53906,5.081183 -4.36314,6.706961 -1.69941,1.51466 -4.55213,3.010188 -6.87533,3.604362 -2.04568,0.523196 -7.54749,0.816958 -9.29849,0.496481 z m 6.54091,-6.501811 c 1.16066,-0.29968 2.90847,-1.668557 3.8176,-2.989928 2.01107,-2.922993 2.6513,-8.419242 1.54296,-13.246142 -0.46471,-2.0239 -1.14006,-3.304839 -2.47302,-4.690622 -1.63468,-1.699474 -2.62517,-2.129722 -5.21624,-2.265826 -2.82897,-0.148601 -4.18927,0.279542 -5.92324,1.864285 -2.48296,2.269285 -3.33555,4.857028 -3.3189,10.073407 0.0112,3.507152 0.32136,5.157801 1.35094,7.189584 1.17373,2.316254 3.04347,3.869377 5.19363,4.314169 1.12971,0.233695 3.63823,0.10946 5.02627,-0.248927 z"
         id="path24-1" />
      <path
         style="fill:#ffffff;stroke-width:0.0131898"
         d="m 182.70703,30.377884 v -17.50639 h 4.31664 4.31665 v 17.50639 17.506388 h -4.31665 -4.31664 z"
         id="path25-1" />
      <path
         style="fill:#ffffff;stroke-width:0.0131898"
         d="m 156.38965,48.355305 c -5.84946,-0.734022 -10.9371,-4.21711 -13.34058,-9.133194 -1.53787,-3.145545 -1.92769,-5.305967 -1.76645,-9.789817 0.20101,-5.589802 1.30109,-8.331038 4.72924,-11.784588 2.57699,-2.596078 5.2846,-4.04353 8.9967,-4.809521 4.69723,-0.96927 12.84143,-0.253845 16.87801,1.482645 l 1.22791,0.528236 v 3.451217 3.451217 l -1.37892,-0.689425 c -3.1949,-1.597362 -6.66856,-2.435056 -10.09742,-2.435056 -5.00607,0 -8.18481,1.736212 -10.09842,5.515712 -0.90221,1.781902 -1.20752,3.388766 -1.20752,6.355059 0,4.032791 0.73648,6.41619 2.65673,8.59771 2.41394,2.742378 7.70272,3.934117 12.27166,2.765208 l 0.8993,-0.230075 v -3.587959 -3.58796 h -2.75785 -2.75786 v -2.877763 -2.877763 h 6.95459 6.95459 v 8.286835 8.286836 l -1.33526,0.611306 c -1.63214,0.747216 -5.64495,1.920166 -7.63145,2.230686 -2.25292,0.352164 -7.26293,0.48315 -9.197,0.240454 z"
         id="path26-0" />
      <path
         style="fill:#ffffff;stroke-width:0.00932655"
         d="M 16.907371,48.519951 C 12.360618,47.945989 8.9385995,46.468433 6.1860859,43.890723 3.1617704,41.058475 1.7037356,38.322503 1.0293058,34.214134 0.62127159,31.728547 0.78963273,27.216743 1.3742243,24.970884 2.8646584,19.244996 7.1222336,14.847633 12.752813,13.218704 c 4.097893,-1.185522 8.379375,-1.27693 12.461133,-0.266041 1.646441,0.407758 3.676792,1.085021 4.793,1.598799 l 0.466328,0.214646 v 3.535958 3.535957 l -0.720689,-0.455836 c -1.156593,-0.731546 -3.426515,-1.726797 -5.014989,-2.198831 -1.943784,-0.577618 -4.961315,-0.72634 -6.812783,-0.335774 -2.976385,0.627866 -5.301219,2.405378 -6.593145,5.040959 -1.110385,2.26523 -1.292478,3.184588 -1.289147,6.508704 0.0032,3.218492 0.264718,4.543087 1.322017,6.696673 2.219,4.519821 7.808805,6.340514 13.726754,4.471034 1.554915,-0.491198 3.940623,-1.552159 4.689834,-2.085645 0.269577,-0.191956 0.535592,-0.349012 0.591145,-0.349012 0.05555,0 0.101003,1.56703 0.101003,3.482289 v 3.482288 l -0.779407,0.334094 c -3.350483,1.436183 -6.032033,2.026781 -9.564594,2.106554 -1.445617,0.03264 -2.895473,0.02564 -3.221902,-0.01557 z"
         id="path27-6" />
      <path
         style="fill:#ffffff;stroke-width:0.00932655"
         d="m 50.906915,48.435257 c -3.930645,-0.490978 -7.409567,-2.209569 -10.058771,-4.969041 -2.047371,-2.13259 -3.309347,-4.484038 -4.099768,-7.63913 -0.347693,-1.387869 -0.367665,-1.781588 -0.300163,-5.91714 0.06585,-4.034284 0.10678,-4.535814 0.457854,-5.610179 1.7832,-5.456998 4.902362,-8.87306 9.906851,-10.849846 1.797856,-0.710157 3.171528,-0.939055 6.298456,-1.049529 4.530398,-0.160057 6.999306,0.255077 9.795969,1.647141 5.173052,2.57493 8.293989,6.978952 8.962477,12.647126 0.291625,2.472766 0.101124,7.74855 -0.343693,9.517931 -1.233213,4.905486 -4.267783,8.557801 -8.922811,10.73922 -1.90758,0.893921 -3.497749,1.276907 -6.202194,1.49377 -2.556168,0.204972 -3.789144,0.202656 -5.494207,-0.01032 z m 6.587121,-6.757715 c 1.497136,-0.572808 3.15148,-2.209429 4.013243,-3.970251 1.04865,-2.14268 1.21522,-2.988568 1.305903,-6.631751 0.06906,-2.774458 0.03297,-3.450656 -0.259914,-4.869092 -0.469331,-2.273004 -1.33366,-4.011356 -2.648056,-5.325807 -1.35454,-1.354597 -2.448769,-1.901949 -4.219474,-2.11065 -3.322887,-0.391647 -5.490992,0.277328 -7.348903,2.267525 -1.72069,1.843206 -2.477252,3.809397 -2.792124,7.256311 -0.239365,2.620338 -0.0166,5.716218 0.542855,7.544393 0.958068,3.130742 2.849246,5.235167 5.497644,6.117548 1.098326,0.365937 4.664024,0.198039 5.908826,-0.278226 z"
         id="path28-6" />
      <path
         style="fill:#ffffff;stroke-width:0.00932655"
         d="M 79.310522,30.397245 V 12.846358 h 4.408919 4.408919 v 14.244198 14.244198 h 7.96997 7.96996 v 3.306689 3.306689 H 91.689412 79.310522 Z"
         id="path29-7" />
      <path
         style="fill:#ffffff;stroke-width:0.00932655"
         d="M 110.17295,30.397245 V 12.846358 h 12.12453 12.12452 v 3.306689 3.306689 h -7.7156 -7.71561 v 3.476263 3.476262 h 7.29167 7.29168 v 3.221902 3.221902 h -7.29168 -7.29167 v 4.239344 4.239345 h 7.96996 7.96998 v 3.306689 3.306689 h -12.37889 -12.37889 z"
         id="path30-1" />
    </g>
    <g
       id="g7"
       transform="translate(6,-2)">
      <path
         style="fill:#ffffff;fill-opacity:1;stroke-width:0.701714"
         d="m 1.0821979,203.75576 c -0.6301954,-0.0563 -0.9384163,-0.18091 -0.87476381,-0.35374 0.054032,-0.14677 0.27270013,-0.79735 0.48586684,-1.44573 L 1.0808717,200.77741 H 12.627079 c 6.350407,0 11.5462,0.0495 11.5462,0.10991 0,0.0605 -0.26336,0.76778 -0.58525,1.57184 l -0.585251,1.46193 -10.473764,-0.0392 c -5.7605671,-0.0216 -10.9116328,-0.0783 -11.4468161,-0.1261 z m 2.4887554,-8.2906 c -0.3875778,-0.15789 -0.3716138,-0.25124 0.4141937,-2.42294 l 0.6948865,-1.9204 H 16.110767 c 6.286909,0 11.424172,0.0758 11.416137,0.16841 -0.008,0.0926 -0.336437,1.07784 -0.729782,2.18935 l -0.71518,2.02094 -11.115152,0.0395 c -6.113333,0.0218 -11.2414596,-0.0119 -11.3958367,-0.0748 z m 2.4138965,-8.06419 c 0,-0.0727 0.2476068,-0.75567 0.550228,-1.51775 0.3026283,-0.76206 1.8598512,-4.97274 3.4604961,-9.35705 3.9568671,-10.8382 7.4079541,-20.26887 8.9978341,-24.58806 0.727369,-1.97603 3.461977,-9.50402 6.0769,-16.72887 11.134344,-30.76337 16.749151,-46.178905 17.611214,-48.351847 1.666234,-4.19999 2.656268,-7.369001 2.386691,-7.639631 -0.149486,-0.150076 -1.352021,-0.304867 -2.875863,-0.370197 l -2.618944,-0.112274 3.246676,-2.599507 c 8.409911,-6.733529 16.828304,-13.403691 18.993401,-15.04907 1.987284,-1.510258 2.436416,-1.763576 2.683623,-1.513654 0.315961,0.319427 4.023215,7.240558 7.874944,14.701863 l 2.334161,4.521572 -0.617291,0.154931 c -0.33951,0.08521 -1.528951,0.09259 -2.643202,0.01642 -1.463902,-0.100099 -2.179693,-0.05726 -2.580259,0.154426 -0.454136,0.239994 -0.852639,1.124532 -2.204428,4.893067 -2.874768,8.014284 -8.230855,22.749031 -11.05884,30.423191 -1.501879,4.07556 -3.014269,8.21848 -3.360874,9.20649 -0.346605,0.98802 -1.555911,4.32256 -2.687355,7.4101 -2.243779,6.12295 -5.299597,14.49008 -6.97075,19.08663 -0.583714,1.60552 -2.197481,6.00106 -3.586138,9.76786 -1.388657,3.7668 -3.024711,8.26338 -3.635665,9.99241 -0.610962,1.72902 -1.650123,4.60885 -2.30925,6.39963 -0.659127,1.79077 -1.610188,4.41799 -2.113458,5.83826 -0.503269,1.42027 -1.151169,3.18859 -1.439777,3.9296 l -0.524741,1.34729 -11.494667,0.0582 C 11.157451,187.507 5.9848498,187.474 5.9848498,187.401 Z M 78.378274,78.866905 c -0.602639,-0.26174 -0.72393,-0.474661 -6.150931,-10.797668 -5.242927,-9.972871 -6.656081,-12.423657 -7.034621,-12.19995 -0.748006,0.442045 -4.640493,3.494325 -11.681176,9.159752 -4.303479,3.462882 -8.345353,6.69836 -8.981941,7.189953 -0.636581,0.491592 -2.617477,2.048991 -4.401986,3.460896 -1.784508,1.411898 -3.502304,2.701599 -3.817324,2.866004 -0.341728,0.178333 -1.297385,0.296207 -2.369155,0.292214 l -1.796389,-0.007 0.588963,-0.497157 c 0.323925,-0.273437 2.142768,-1.757738 4.041873,-3.298442 1.899098,-1.540712 3.655005,-2.987387 3.902008,-3.21484 0.247003,-0.227454 0.886082,-0.735193 1.420178,-1.128315 1.188977,-0.875142 18.179019,-14.372779 21.31889,-16.936667 2.978966,-2.432499 3.799332,-2.920015 4.212846,-2.503555 0.170656,0.171871 1.722974,3.057621 3.449598,6.412783 1.726624,3.355162 3.381483,6.487613 3.677466,6.961002 0.295983,0.47339 1.124707,2.022747 1.841614,3.443016 0.716899,1.420269 1.952056,3.786218 2.744796,5.257656 0.792734,1.471445 1.589116,2.987148 1.769737,3.368228 0.180622,0.381087 0.500744,0.965032 0.711398,1.297659 0.210648,0.332626 0.329244,0.658523 0.26355,0.724218 -0.231046,0.231053 -3.242382,0.352744 -3.709394,0.149907 z"
         id="path1-7" />
      <path
         style="fill:#ffffff;stroke-width:0.0131898"
         d="m 98.538281,206.97584 c -2.908015,-0.78145 -5.730892,-3.23498 -7.06871,-6.14382 -0.441483,-0.95991 -2.763785,-7.19507 -5.160679,-13.85589 -5.119144,-14.2258 -6.136454,-16.88039 -6.624139,-17.28513 -0.280524,-0.23281 -4.709084,-0.33223 -19.63503,-0.4408 -10.600043,-0.0771 -19.35346,-0.22093 -19.45204,-0.31964 -0.14218,-0.14236 5.697918,-16.79937 7.020887,-20.02483 l 0.319679,-0.77939 h 7.632372 c 4.197804,0 9.581402,-0.0706 11.963553,-0.15689 l 4.331183,-0.15688 -0.345244,-1.16255 c -0.189884,-0.63941 -1.163049,-3.4016 -2.162584,-6.13823 -0.999543,-2.73661 -2.434661,-6.70232 -3.189151,-8.81268 -0.754497,-2.11036 -2.431669,-6.73455 -3.727059,-10.27597 l -2.355253,-6.43895 0.371859,-1.11518 c 0.532409,-1.59665 9.407834,-26.013071 10.081543,-27.734473 0.309722,-0.791387 0.664579,-1.43149 0.788558,-1.422459 0.399065,0.02912 1.725269,2.982608 3.492284,7.777511 0.947833,2.572007 2.777889,7.536141 4.066784,11.031431 1.288894,3.49528 3.039643,8.29754 3.890555,10.6717 2.229227,6.21983 21.865241,60.11776 25.467921,69.90564 3.43914,9.34358 3.81043,10.733 3.65297,13.6698 -0.0908,1.69421 -0.24159,2.30088 -0.89187,3.58907 -1.10089,2.18087 -3.30807,4.33194 -5.15182,5.02088 -2.77279,1.03609 -5.0063,1.21856 -7.316569,0.59773 z"
         id="path31-8" />
      <path
         style="fill:#ffffff;stroke-width:0.0131898"
         d="M 6.7255006,187.30294 C 6.3194179,187.21184 6.2113883,187.06876 6.3285409,186.77719 7.2748445,184.422 18.811397,152.86746 29.709523,122.82601 34.8293,108.71298 39.957755,94.62993 41.106093,91.530339 c 3.020406,-8.152676 3.863979,-10.561941 4.041155,-11.541632 0.18372,-1.015858 -0.05198,-1.140812 -2.25152,-1.193588 -3.278968,-0.07868 -3.688738,0.419338 6.004409,-7.297513 13.307385,-10.594203 14.949477,-11.86247 15.358964,-11.86247 0.212938,0 2.868387,4.863595 7.266879,13.309653 l 2.997329,5.755522 -2.444189,0.0593 c -3.216538,0.07805 -3.434385,0.144075 -3.971323,1.203552 -0.2496,0.492505 -2.131316,5.535857 -4.181601,11.207447 -2.050281,5.67159 -7.846135,21.58921 -12.879673,35.37249 -5.03354,13.78329 -12.052815,33.03392 -15.598389,42.77919 -3.545571,9.74527 -6.492318,17.76449 -6.548323,17.8205 -0.151533,0.15152 -21.5246179,0.30588 -22.1743104,0.16014 z"
         id="path32-5" />
      <path
         style="fill:#ffffff;stroke-width:0.00466328"
         d="m 78.563098,78.860119 c -0.685904,-0.177639 -0.651422,-0.118933 -5.781275,-9.842444 -4.567808,-8.65817 -5.807442,-10.926081 -6.754601,-12.357531 -0.60318,-0.911599 -0.682221,-0.95149 -1.194951,-0.603086 -1.05419,0.716331 -4.479949,3.420851 -14.27721,11.271371 -8.504373,6.814531 -13.390045,10.642324 -14.157559,11.092059 -0.440063,0.257866 -1.261174,0.357264 -2.726783,0.330101 l -1.338653,-0.02484 2.86125,-2.331642 c 1.573687,-1.282401 3.531652,-2.887345 4.351032,-3.566541 0.819381,-0.679196 2.289919,-1.860394 3.267863,-2.624886 3.04794,-2.382676 10.94936,-8.654282 16.700573,-13.255771 6.15622,-4.92553 6.620165,-5.282503 7.293881,-5.61212 0.471594,-0.230733 0.476267,-0.231215 0.69057,-0.07122 0.248779,0.185742 1.087791,1.714063 3.649019,6.646991 2.048837,3.946048 2.942863,5.628954 3.715976,6.994918 0.290327,0.512961 1.128714,2.096356 1.863079,3.518657 0.734365,1.4223 1.668775,3.215543 2.076456,3.984983 2.614377,4.934221 3.229085,6.133317 3.192743,6.228013 -0.02245,0.05852 -0.187231,0.131579 -0.366161,0.162321 -0.547407,0.09405 -2.766718,0.13795 -3.065249,0.06063 z"
         id="path33-7" />
      <path
         style="fill:#ffffff;stroke-width:0.00466328"
         d="m 4.5761573,195.45627 c -0.585099,-0.0156 -1.0606991,-0.0673 -1.1271956,-0.12247 -0.077179,-0.0641 -0.096505,-0.18169 -0.058727,-0.35751 0.046018,-0.21418 1.0515425,-3.09853 1.2662789,-3.63233 0.056362,-0.14011 0.605728,-0.14836 9.8647004,-0.14813 5.392755,1.3e-4 10.516553,0.0251 11.386215,0.0555 l 1.581202,0.0553 -0.450375,1.32229 c -0.247707,0.72726 -0.569539,1.64995 -0.715182,2.05042 l -0.264806,0.72814 -3.494415,0.056 c -3.35445,0.0538 -15.8888532,0.0488 -17.9876941,-0.007 z"
         id="path34-6" />
      <path
         style="fill:#ffffff;stroke-width:0.00466328"
         d="m 10.802714,203.82652 c -9.94475957,-0.0589 -10.51357436,-0.081 -10.51357436,-0.40866 0,-0.0795 0.18466779,-0.69682 0.41037279,-1.37177 l 0.41037277,-1.22719 11.3460208,0.0289 c 6.240312,0.0159 11.413486,0.054 11.495942,0.0848 0.134584,0.0502 0.09217,0.20552 -0.414635,1.51847 l -0.564555,1.46257 -1.315709,-0.0153 c -0.72364,-0.008 -5.608045,-0.0407 -10.854235,-0.0718 z"
         id="path35-2" />
    </g>
  </g>
</svg>
