<?xml version="1.0" encoding="UTF-8" standalone="no"?>
<!-- Created with Inkscape (http://www.inkscape.org/) -->

<svg
   version="1.1"
   id="svg1"
   width="1682"
   height="1177"
   viewBox="0 0 1682 1177"
   sodipodi:docname="logo-Asercap.svg"
   inkscape:version="1.3.2 (091e20e, 2023-11-25, custom)"
   inkscape:export-filename="logo-Asercap3.png"
   inkscape:export-xdpi="96"
   inkscape:export-ydpi="96"
   xmlns:inkscape="http://www.inkscape.org/namespaces/inkscape"
   xmlns:sodipodi="http://sodipodi.sourceforge.net/DTD/sodipodi-0.dtd"
   xmlns="http://www.w3.org/2000/svg"
   xmlns:svg="http://www.w3.org/2000/svg">
  <defs
     id="defs1" />
  <sodipodi:namedview
     id="namedview1"
     pagecolor="#505050"
     bordercolor="#eeeeee"
     borderopacity="1"
     inkscape:showpageshadow="0"
     inkscape:pageopacity="0"
     inkscape:pagecheckerboard="0"
     inkscape:deskcolor="#505050"
     inkscape:zoom="0.2565625"
     inkscape:cx="81.851401"
     inkscape:cy="606.09013"
     inkscape:window-width="2560"
     inkscape:window-height="1017"
     inkscape:window-x="1912"
     inkscape:window-y="-8"
     inkscape:window-maximized="1"
     inkscape:current-layer="g1" />
  <g
     inkscape:groupmode="layer"
     inkscape:label="Image"
     id="g1">
    <path
       style="fill:#000000"
       d="m 1.59617,1173.9986 c 0,-1.0724 2.1965,-6.3599 4.88112,-11.75 4.57874,-9.1929 8.87602,-18.0055 30.62315,-62.8 4.80632,-9.9 13.01823,-26.775 18.24869,-37.5 5.23046,-10.725 15.10285,-30.975 21.93865,-45 6.8358,-14.025 14.08915,-28.875 16.11856,-33 l 3.68983,-7.5 76.75,-0.2562 76.75,-0.2562 v 100.0062 100.0062 h -41.5 c -22.825,0 -41.60618,-0.1125 -41.73596,-0.25 -0.12977,-0.1375 -0.46727,-38.725 -0.75,-85.75 l -0.51404,-85.5 -12.41787,-0.2821 c -6.82983,-0.1552 -12.78006,0.08 -13.22272,0.5227 -0.44266,0.4426 -0.84557,22.7622 -0.89535,49.5989 l -0.0905,48.7941 -3.06499,6.6832 c -2.97532,6.4877 -9.17182,19.4052 -24.43254,50.9332 l -7.38156,15.25 H 53.0934 c -50.39003,0 -51.49723,-0.042 -51.49723,-1.95 z m 316,1.3114 c -15.93777,-2.6247 -29.23266,-12.9363 -36.12184,-28.0163 -3.21318,-7.0334 -5.87614,-18.6303 -5.87734,-25.5951 l -8.2e-4,-4.75 h 42 42 v 16 16 h 14 14 v -29.5 -29.5 h -34.59609 c -37.3142,0 -40.13861,-0.3114 -51.05435,-5.6288 -7.24804,-3.5307 -12.68545,-8.4938 -17.04678,-15.5597 -4.5021,-7.294 -5.86903,-10.9315 -7.82082,-20.8115 -2.54532,-12.8845 -1.6061,-27.1828 2.60113,-39.5986 2.00606,-5.9201 9.36849,-16.6913 14.01495,-20.5039 6.08276,-4.9911 12.89022,-8.5227 19.88054,-10.3135 9.37855,-2.4027 113.50089,-2.3651 121.86751,0.044 9.05845,2.6083 15.17123,6.2021 21.68892,12.7513 5.70116,5.7287 12.46499,16.9881 12.46499,20.7497 0,0.8091 0.45762,1.9286 1.01692,2.4879 0.55931,0.5593 1.12181,5.4868 1.25,10.95 l 0.23308,9.9331 -42.25,0.2608 -42.25,0.2609 v -15.5109 -15.5108 h -14 -14 v 29.4466 29.4466 l 39.25,0.3034 39.25,0.3034 5.92348,2.7717 c 12.14495,5.6828 20.57627,15.1201 25.21923,28.2283 2.68745,7.5873 2.83051,8.8511 2.77336,24.5 -0.0567,15.5196 -0.226,16.9456 -2.84979,24 -1.53425,4.125 -3.41431,8.2104 -4.17791,9.0787 -0.76361,0.8684 -1.38837,1.9133 -1.38837,2.3222 0,1.5737 -9.73605,11.0285 -14.5,14.0811 -11.24337,7.2044 -8.67512,6.9501 -72,7.1296 -31.35,0.089 -58.125,-0.024 -59.5,-0.2501 z m 181.46083,-0.6114 c -0.26202,-0.6875 -0.3604,-45.575 -0.21862,-99.75 l 0.25779,-98.5 99.43797,-0.2549 c 78.88956,-0.2022 99.60266,0 100.23476,1 0.4382,0.6902 0.8036,12.8102 0.812,26.9335 0.013,22.0245 -0.2083,25.9021 -1.5561,27.2499 -1.376,1.376 -6.5272,1.5715 -41.4182,1.5715 -21.91583,0 -40.55866,-0.2732 -41.42864,-0.607 -1.341,-0.5146 -1.58179,-2.798 -1.58179,-15 v -14.393 h -15.5 -15.5 v 30 30 h 44 44.00003 v 13 13 h -44.00003 -44 v 30 30 h 14.88337 c 17.61197,0 16.08254,1.5919 16.10298,-16.7608 l 0.0136,-12.2607 42.75008,0.2607 42.75,0.2608 0.2668,26.3772 c 0.1884,18.6228 -0.068,26.7808 -0.8724,27.75 -1.6123,1.9426 -198.69383,2.0639 -199.43365,0.1228 z m 225.0362,-0.9894 c -0.3005,-1.2433 -0.4228,-46.1356 -0.2717,-99.7606 l 0.2747,-97.5 86,-0.3141 c 88.9427,-0.3248 94.6925,-0.1258 110,3.807 7.7429,1.9893 10.1997,2.9169 19,7.1736 9.4583,4.575 12.1432,6.5191 19.7736,14.3181 6.3323,6.4721 11.585,17.3649 12.9238,26.8009 1.2538,8.8373 0.3694,24.58 -1.7563,31.2622 -3.5943,11.2984 -9.6025,21.783 -16.1088,28.1104 -3.4828,3.387 -6.3323,6.6108 -6.3323,7.164 0,0.5532 8.9656,18.779 19.9236,40.5016 10.958,21.7227 19.658,39.7614 19.3334,40.086 -0.8766,0.8766 -107.5586,0.6858 -108.9435,-0.1948 -0.6526,-0.415 -8.9776,-16.0456 -18.5,-34.7347 l -17.3135,-33.9802 -0.5,-51 -0.5,-51 -13.6049,-0.2773 c -10.5759,-0.2155 -13.8586,0.028 -14.7443,1.0956 -0.8281,0.9978 -1.2092,24.4311 -1.3951,85.7773 l -0.2557,84.4044 -43.2283,0.2606 -43.2283,0.2606 z m 315.0031,1.5461 c -9.3004,-1.3787 -19.1491,-6.6466 -26.5001,-14.1744 -5.5705,-5.7045 -12,-16.3251 -12,-19.8223 0,-1.0505 -0.5625,-2.4725 -1.25,-3.16 -1.7565,-1.7565 -1.8232,-120.6812 -0.07,-124.2486 0.6492,-1.3208 1.686,-4.0567 2.3039,-6.0798 1.6967,-5.5545 8.074,-14.8226 13.4638,-19.5669 5.5467,-4.8824 13.6782,-8.9825 21.5521,-10.8671 8.3068,-1.9882 114.6985,-1.9617 122.3469,0.031 18.6146,4.8485 31.9585,18.5806 37.0689,38.1475 1.1865,4.543 1.5842,11.007 1.5842,25.75 v 19.6844 h -42.4844 -42.4845 l -0.2655,-28.25 -0.2656,-28.25 -11,-0.2909 c -6.05,-0.1599 -12.0155,-0.038 -13.2567,0.2708 l -2.2566,0.5616 0.2566,71.2292 0.257,71.2293 h 13 13 l 0.5,-28.5 0.5,-28.5 h 42 42 l 0.3006,19.5 c 0.2393,15.5256 -0.034,20.8248 -1.3393,26 -2.6807,10.6254 -7.1634,18.8596 -13.8862,25.5072 -5.3938,5.3336 -9.259,7.7675 -20.0751,12.6411 -2.3996,1.0812 -14.7083,1.3769 -61.5,1.4774 -32.175,0.069 -59.85,-0.074 -61.5,-0.319 z m 167.3007,0.1607 c -0.3026,-0.3027 0.5037,-2.6691 1.7919,-5.2588 1.2882,-2.5898 11.3015,-22.9336 22.2518,-45.2086 10.9503,-22.275 26.6573,-54.225 34.9045,-71 8.2472,-16.775 20.2474,-41.1903 26.6671,-54.2562 l 11.6722,-23.7561 77.2059,0.2561 77.2059,0.2562 v 99.5 99.5 l -38.25,0.2619 c -21.0375,0.144 -38.3562,0.144 -38.486,0 -0.1297,-0.1441 -0.4672,-38.7369 -0.75,-85.7619 l -0.514,-85.5 -15.8662,-0.276 c -10.8508,-0.1887 -16.3037,0.087 -17.25,0.8724 -1.1442,0.9496 -1.3838,9.7017 -1.3838,50.5505 v 49.4019 l -7.25,15.0879 c -3.9875,8.2982 -11.75,24.1498 -17.25,35.2255 l -10,20.1378 -52.0745,0.2588 c -28.641,0.1424 -52.3221,0.011 -52.6248,-0.2914 z m 277.4444,-0.2879 c -0.9955,-0.6375 -1.2022,-21.255 -1,-99.7416 l 0.2549,-98.9379 75,-0.2634 c 66.2408,-0.2326 75.7591,-0.075 81.5,1.3499 20.8628,5.1781 33.8721,17.627 40.1425,38.4135 1.7806,5.9025 1.8061,27.9686 0.039,34 -2.0243,6.9105 -6.8783,16.2855 -10.811,20.8798 -4.2948,5.0176 -14.394,12.3717 -19.8708,14.4698 -11.3534,4.3493 -15.0356,4.7384 -42,4.4391 l -25.9997,-0.2887 -0.5,-42.5 -0.5,-42.5 -8.2405,-0.2903 c -13.775,-0.4853 -12.2084,-11.332 -12.5039,86.5724 l -0.2556,84.7179 -37,0.2416 c -20.35,0.1329 -37.5647,-0.1201 -38.2549,-0.5621 z"
       id="path1-0" />
    <g
       id="g6"
       transform="matrix(9.317553,0,0,9.317553,-139.71832,-212.83744)"
       style="fill:#fdb916;fill-opacity:1">
      <g
         id="g2"
         style="fill:#fdb916;fill-opacity:1">
        <path
           style="fill:#fdb916;fill-opacity:1;stroke-width:0.0108296"
           d="m 60.399932,125.10485 c -0.26423,-0.46026 -1.25706,-2.16593 -2.20629,-3.79038 -0.94922,-1.62445 -2.21049,-3.79531 -2.80283,-4.82413 -1.32573,-2.30264 -1.69838,-2.94388 -4.86312,-8.36838 -3.83474,-6.57289 -4.47943,-7.76302 -4.36572,-8.05934 0.0575,-0.149769 1.36235,-2.429279 2.89973,-5.065569 1.53738,-2.6363 3.25949,-5.59073 3.82692,-6.5654 2.16441,-3.71783 3.85892,-6.61926 5.86482,-10.04205 l 2.07708,-3.54426 h 14.91757 14.91757 l 1.36664,2.36284 c 0.75165,1.29956 1.83316,3.16029 2.40335,4.13497 0.5702,0.97466 2.60671,4.47462 4.52558,7.77767 5.433878,9.35363 5.638328,9.70317 6.113188,10.45133 l 0.44724,0.704629 -0.8803,1.45743 c -0.48417,0.80158 -1.26085,2.12372 -1.72596,2.93807 -1.51632,2.65491 -2.969278,5.16796 -4.726688,8.17536 -1.91085,3.26995 -3.38076,5.79206 -4.93457,8.46683 -0.5662,0.97467 -1.40598,2.41452 -1.86618,3.19967 l -0.83673,1.42755 h -14.83544 -14.83544 z"
           id="path1" />
        <path
           style="fill:#fdb916;fill-opacity:1;stroke-width:0.0108296"
           d="m 90.054922,73.220891 c -0.43081,-0.731 -1.22327,-2.08225 -1.76104,-3.00277 -0.53776,-0.92052 -1.47016,-2.51544 -2.072,-3.54425 -0.60183,-1.02882 -1.91501,-3.28828 -2.91815,-5.02103 -1.00315,-1.73275 -2.75408,-4.74537 -3.89096,-6.69471 -1.13688,-1.94934 -2.39445,-4.11441 -2.7946,-4.81127 l -0.72754,-1.26702 0.88198,-1.48962 c 0.97887,-1.65327 5.24118,-8.9706 6.83185,-11.72859 0.56213,-0.97467 1.98093,-3.41134 3.15287,-5.41483 1.17194,-2.00349 2.53725,-4.37248 3.03401,-5.26441 l 0.90322,-1.62171 14.903928,-0.003 14.90392,-0.003 1.11983,1.9198 c 0.61591,1.0559 1.58555,2.71727 2.15476,3.69194 1.26605,2.16789 5.94206,10.19197 8.66322,14.86618 1.10333,1.89519 2.20577,3.77882 2.44989,4.18585 0.26447,0.44094 0.39123,0.87865 0.31363,1.08297 -0.1175,0.30939 -0.74063,1.39675 -4.14591,7.23452 -0.56855,0.97467 -2.78332,4.78475 -4.92174,8.46684 -2.13841,3.68208 -4.29252,7.3814 -4.78692,8.2207 l -0.89889,1.526 H 105.64424 90.838202 Z"
           id="path2" />
        <path
           style="fill:#fdb916;fill-opacity:1;stroke-width:0.0108296"
           d="m 119.77655,124.31724 c -0.90392,-1.5104 -3.23437,-5.51109 -5.64891,-9.69748 -0.56215,-0.97467 -1.9796,-3.41134 -3.1499,-5.41483 -1.1703,-2.00349 -2.48145,-4.26295 -2.91366,-5.02103 -0.43221,-0.75808 -1.12187,-1.93856 -1.53258,-2.62329 l -0.74674,-1.24496 0.60328,-1.019419 c 0.77939,-1.31702 5.23059,-8.96209 6.55497,-11.25838 0.56214,-0.97467 1.97835,-3.41135 3.14713,-5.41484 1.16878,-2.00349 2.61126,-4.48446 3.20551,-5.51328 0.59426,-1.02882 1.1692,-1.98134 1.27766,-2.11671 0.15461,-0.19298 3.39756,-0.24613 15.01683,-0.24613 h 14.81962 l 0.83673,1.42755 c 1.8384,3.13649 8.96301,15.37193 9.94635,17.08134 0.34265,0.59563 1.39196,2.40808 2.33183,4.02767 0.93987,1.61958 1.66495,3.059079 1.6113,3.198889 -0.0536,0.13979 -0.60166,1.11845 -1.21783,2.17477 -1.3349,2.2885 -2.84159,4.88937 -4.27734,7.38359 -0.57696,1.00233 -1.82571,3.15152 -2.77498,4.77596 -1.65002,2.82362 -2.65507,4.54737 -4.93672,8.46684 -0.56739,0.97467 -1.13437,1.97149 -1.25996,2.21516 l -0.22836,0.44303 h -14.84603 -14.84604 z"
           id="path3" />
      </g>
      <path
         style="fill:#fdb916;fill-opacity:1;stroke-width:0.150398"
         d="m 340.76966,274.19174 c -9.66187,-15.0749 -50.91074,-87.55609 -50.91074,-89.45872 0,-1.15924 12.09386,-22.8946 26.87524,-48.30081 l 26.87525,-46.193112 h 55.54642 55.54642 l 26.95906,46.049252 c 14.82748,25.32709 26.86694,47.47669 26.75436,49.22133 -0.11259,1.74464 -12.12807,23.47587 -26.70105,48.29162 l -26.49635,45.11955 -55.23456,0.73993 c -54.81619,0.73433 -55.26471,0.6929 -59.21405,-5.46904 z"
         id="path4"
         transform="scale(0.26458333)" />
      <path
         style="fill:#fdb916;fill-opacity:1;stroke-width:0.150398"
         d="m 429.36733,426.66748 -27.73397,-47.77142 26.68871,-45.88583 c 14.67879,-25.23721 27.9837,-46.78989 29.56647,-47.89484 1.58277,-1.10496 26.87316,-2.00149 56.20086,-1.99229 l 53.32311,0.0167 26.45271,45.74458 c 14.549,25.15951 26.85433,47.02112 27.34519,48.58134 0.49085,1.56022 -11.37976,24.01745 -26.37915,49.90495 l -27.27161,47.06819 H 512.33048 457.1013 Z"
         id="path5"
         transform="scale(0.26458333)" />
      <path
         style="fill:#fdb916;fill-opacity:1;stroke-width:0.150398"
         d="m 204.2985,428.39856 c -14.60515,-25.32218 -26.55482,-47.63561 -26.55482,-49.58539 0,-1.94977 11.9977,-24.27391 26.66155,-49.60919 l 26.66155,-46.06415 54.98078,-0.0586 54.98078,-0.0586 27.92845,48.03592 27.92844,48.03591 -27.75389,47.67222 -27.7539,47.67222 h -55.26206 -55.26206 z"
         id="path6"
         transform="scale(0.26458333)" />
    </g>
  </g>
</svg>
