<?xml version="1.0" encoding="UTF-8" standalone="no"?>
<!-- Created with Inkscape (http://www.inkscape.org/) -->

<svg
   version="1.1"
   id="svg2"
   width="820"
   height="960"
   viewBox="0 0 820 960"
   sodipodi:docname="Escudo_arequipa.svg"
   xml:space="preserve"
   inkscape:version="1.2.2 (b0a8486541, 2022-12-01)"
   xmlns:inkscape="http://www.inkscape.org/namespaces/inkscape"
   xmlns:sodipodi="http://sodipodi.sourceforge.net/DTD/sodipodi-0.dtd"
   xmlns="http://www.w3.org/2000/svg"
   xmlns:svg="http://www.w3.org/2000/svg"><defs
     id="defs6" /><sodipodi:namedview
     id="namedview4"
     pagecolor="#505050"
     bordercolor="#ffffff"
     borderopacity="1"
     inkscape:showpageshadow="0"
     inkscape:pageopacity="0"
     inkscape:pagecheckerboard="1"
     inkscape:deskcolor="#505050"
     showgrid="false"
     inkscape:zoom="1.1351305"
     inkscape:cx="695.51473"
     inkscape:cy="308.77507"
     inkscape:window-width="2512"
     inkscape:window-height="1011"
     inkscape:window-x="0"
     inkscape:window-y="0"
     inkscape:window-maximized="1"
     inkscape:current-layer="g8" /><g
     inkscape:groupmode="layer"
     inkscape:label="Image"
     id="g8"><path
       style="fill:#b32037;fill-opacity:1"
       d="m 407.95765,947.70231 c -6.0252,-9.10462 -22.302,-17.93972 -40.1026,-21.76778 -10.6242,-2.28476 -13.7733,-2.47328 -38.8295,-2.3246 -32.9546,0.19555 -43.541,-1.04611 -59.1383,-6.93624 -28.2721,-10.67661 -52.9008,-37.18626 -61.6877,-66.3987 -4.9755,-16.54141 -4.8038,-8.5242 -4.8248,-225.29828 l -0.02,-203.25 h 62.0044 62.0043 l 7.7457,6.52269 c 6.7379,5.67411 15.3975,10.75218 24.3215,14.26253 1.4168,0.55728 6.035,1.57126 10.2628,2.25328 10.8415,1.74891 21.011,-0.0969 41.5921,-7.54892 5.0873,-1.84201 9.4661,-3.78758 23.8788,-10.60966 l 10.3095,-4.87992 h 86.4405 86.4404 v 203.82055 c 0,200.43483 -0.033,203.97718 -2.012,213.25 -3.7651,17.64539 -8.8989,29.27684 -18.7419,42.46237 -12.404,16.61626 -28.7457,29.09227 -46.7461,35.68817 -15.6418,5.73165 -25.1128,6.82129 -58.5,6.73038 -24.3722,-0.0664 -29.4922,0.29357 -41.5,2.91741 -15.1815,3.31735 -31.4573,12.57623 -37.1025,21.10672 -1.4648,2.21342 -2.7686,4.0244 -2.8975,4.0244 -0.1288,0 -1.4327,-1.81098 -2.8974,-4.0244 z m 10.0913,-19.19658 c 0.7698,-0.6001 1.0065,-2.5914 0.6664,-5.6049 -0.9578,-8.48673 4.6182,-16.89833 8.0006,-12.06923 1.7348,2.4767 3.6391,1.72242 3.6391,-1.4414 0,-5.42985 -5.8006,-8.44613 -10.9464,-5.69214 -1.5309,0.81928 -1.9106,0.49365 -2.4253,-2.07983 -0.8951,-4.47543 -3.6729,-9.89152 -5.0732,-9.89152 -1.4506,0 -3.0229,2.94773 -4.6672,8.75 -1.1943,4.21417 -2.1973,5.17637 -3.3879,3.25 -0.7138,-1.15501 -6.4721,-1.32185 -8.1003,-0.23469 -2.4615,1.64361 -3.4494,5.03153 -2.2406,7.68443 1.0816,2.37397 1.2988,2.44583 2.9302,0.96949 4.2245,-3.82315 8.3399,1.32999 8.3844,10.49865 0.024,4.96803 0.2754,5.55731 3.0263,7.09723 3.0181,1.68948 7.0719,1.19793 10.1939,-1.23609 z m -3.3442,-47.11266 c 6.1098,-10.42573 18.9065,-18.09723 38.1503,-22.87083 6.688,-1.65902 13.166,-2.10564 39.5,-2.72334 l 31.5,-0.73887 6.7431,-3.10079 c 11.512,-5.29379 18.4249,-14.2636 21.3733,-27.73253 1.054,-4.81508 1.3203,-38.43709 1.3485,-170.25 l 0.035,-164.25 h -142.5 -142.5 v 166.03155 c 0,165.44183 0.01,166.05363 2.0778,172.25 3.5379,10.58826 8.5788,17.21229 16.8085,22.08734 7.6651,4.54059 9.4979,4.78584 42.1137,5.63499 28.7689,0.74901 32.3299,1.03558 41.0719,3.30532 17.2853,4.48792 27.72,10.55694 35.6021,20.70687 2.5558,3.29116 4.982,5.98393 5.3915,5.98393 0.4094,0 1.8873,-1.95014 3.2842,-4.33364 z m -10.3497,-8.64448 c -4.8069,-4.97918 -8.4536,-7.66318 -14,-10.30403 -18.1371,-8.63578 -30.5665,-10.70317 -64.5,-10.72838 -25.5813,-0.019 -28.558,-0.38252 -36.4188,-4.44748 -4.7429,-2.45265 -10.7358,-9.1207 -13.6247,-15.15964 -2.4634,-5.14936 -2.8693,-7.34224 -3.2573,-17.59819 -0.5062,-13.37955 -1.1486,-12.41514 9.8008,-14.71334 3.025,-0.63492 7.075,-1.55286 9,-2.03986 1.925,-0.487 6.0484,-1.39171 9.1631,-2.01047 3.3493,-0.66536 5.9029,-1.74993 6.25,-2.65454 0.3228,-0.84124 0.5869,-8.03371 0.5869,-15.98327 v -14.45375 l -4.449,-1.9071 c -9.238,-3.95984 -13.551,-10.48205 -13.551,-20.49204 0,-5.20808 0.4933,-7.34256 2.3804,-10.29966 4.751,-7.44516 9.5619,-10.23013 17.6718,-10.23013 6.9675,0 8.972,0.82531 14.2412,5.86354 5.2743,5.04303 7.2827,12.04464 5.6756,19.78591 -0.9629,4.63807 -2.0207,6.49755 -5.9081,10.3849 -2.7671,2.76716 -6.0778,5.0301 -7.9656,5.44473 -1.7767,0.39023 -3.4787,1.35651 -3.7821,2.14728 -0.3035,0.79077 -0.2309,7.85715 0.1614,15.70307 l 0.7131,14.2653 8.6562,-1.75816 c 4.7608,-0.96699 9.6686,-1.77581 10.9061,-1.79737 2.2235,-0.0387 2.25,-0.20309 2.25,-13.92791 v -13.88871 l -3.5,-0.6566 c -1.925,-0.36113 -3.5,-1.05631 -3.5,-1.54485 0,-0.48853 1.3756,-3.10111 3.0569,-5.80573 5.3451,-8.5984 4.8194,-21.01774 -1.2142,-28.68822 -3.3423,-4.24915 -1.9097,-5.52718 6.1958,-5.52718 6.2712,0 7.6162,0.35438 11.5079,3.0319 6.5298,4.49261 9.4536,10.11939 9.4536,18.19294 0,5.73764 -0.4027,7.1438 -3.25,11.34836 -2.3014,3.39853 -4.7863,5.54749 -8.5138,7.36301 l -5.2639,2.56379 0.2639,13 c 0.2503,12.33476 0.3662,12.98809 2.2638,12.76728 16.2817,-1.89458 22.1749,-2.54063 34.5,-3.78216 24.2682,-2.44458 58.5319,-1.81665 83.5,1.53025 3.85,0.51608 9.8264,1.23344 13.2809,1.59414 l 6.2809,0.65581 -0.2809,-12.80719 -0.2809,-12.80718 -4.6279,-2.57548 c -6.2714,-3.49004 -7.6965,-4.81108 -9.9452,-9.21873 -2.3261,-4.55955 -2.579,-14.06591 -0.505,-18.98462 1.4382,-3.41113 6.216,-8.33133 10.3146,-10.62212 3.1453,-1.75804 16.166,-1.66765 16.8509,0.11698 0.2885,0.75183 -0.7926,3.33933 -2.4023,5.75 -5.4519,8.1643 -5.2888,19.55595 0.4011,28.011 3.3253,4.94143 3.3278,4.95424 1.1232,5.79152 -1.2151,0.46153 -3.1071,1.01167 -4.2042,1.22253 -2.3842,0.4582 -2.8418,5.46757 -1.7172,18.79612 l 0.712,8.43815 8,1.81766 c 4.4,0.99971 9.2375,2.09629 10.75,2.43685 l 2.75,0.61919 v -15.61988 -15.61987 l -4.4882,-2.10973 c -11.004,-5.17246 -16.5656,-18.43354 -11.7618,-28.04471 4.5917,-9.18677 10.0124,-12.84671 19.0352,-12.85207 11.9957,-0.007 20.4148,8.66624 20.4148,21.03133 0,5.9653 -0.8249,8.2861 -4.8742,13.71216 -2.1694,2.90696 -9.522,7.25277 -12.2709,7.25277 -1.6206,0 -1.4314,32.64225 0.1951,33.67773 1.0706,0.68157 16.1574,6.13951 22.25,8.04939 1.1,0.34482 4.7,2.00978 8,3.69992 l 6,3.07296 -0.221,8.25072 c -0.174,6.49467 -0.7737,9.41886 -2.8175,13.7392 -3.2883,6.95093 -9.4141,13.05346 -16.4615,16.39907 -5.4194,2.57274 -5.925,2.62015 -34.5,3.23445 -35.0393,0.75328 -39.371,1.33678 -56.8711,7.66093 -7.5706,2.73583 -18.9432,9.89592 -22.103,13.91596 -5.249,6.6778 -4.3745,6.72928 -11.5259,-0.67845 z m 23.5,-18.46055 c 4.4,-0.83709 10.1096,-1.53083 12.688,-1.54166 2.5783,-0.0108 7.6399,-0.70428 11.2479,-1.54103 3.9648,-0.91951 12.4929,-1.6118 21.5573,-1.75 9.3257,-0.14217 14.9992,-0.61251 15.0021,-1.24368 0,-0.55827 -3.9,-3.48327 -8.6724,-6.5 -22.1651,-14.01095 -33.426,-16.15631 -55.5649,-10.58587 -13.4633,3.38756 -22.5999,3.67953 -28.758,0.91901 -2.475,-1.10948 -8.325,-5.06687 -13,-8.79422 -4.675,-3.72734 -10.975,-7.94115 -14,-9.36402 -5.3605,-2.52141 -6.0327,-2.58796 -26.5,-2.62345 -23.7114,-0.0411 -25.4238,-0.4449 -33.1671,-7.82073 -3.814,-3.63302 -4.4918,-3.91242 -8,-3.29725 -8.4027,1.47347 -21.3329,4.86053 -21.3329,5.58815 0,0.77135 19.7134,13.33468 25.6298,16.33385 8.0786,4.09529 11.8987,4.77211 31.3706,5.55803 22.1343,0.89338 24.2096,1.46371 34.4996,9.48084 24.3777,18.99313 33.3168,21.68771 57,17.18203 z m -81.5,-71.1995 c 0,-0.35099 1.7719,-2.5604 3.9375,-4.90979 4.3479,-4.71695 7.4562,-10.37894 12.1559,-22.14263 3.2122,-8.04041 9.5394,-26.49633 10.9052,-31.80941 0.4241,-1.65 2.0005,-7.5 3.5031,-13 3.2349,-11.84042 5.0783,-20.10767 6.9123,-31 1.3043,-7.74614 1.8039,-11.36486 5.1088,-37 2.3114,-17.92894 3.4812,-25.80448 5.7188,-38.5 1.1148,-6.325 2.2309,-12.65802 2.4802,-14.07337 0.2494,-1.41535 1.8765,-5.46535 3.6158,-9 2.5092,-5.0991 3.5756,-6.35819 5.1624,-6.09532 1.1,0.18222 3.4113,0.56297 5.1362,0.84611 1.7249,0.28315 4.057,0.022 5.1825,-0.58039 1.7371,-0.92966 2.3339,-0.67967 3.9482,1.65388 4.3863,6.34062 7.1588,18.75674 8.7644,39.24909 0.2801,3.575 0.9543,10.775 1.4982,16 0.5439,5.225 1.6717,17.825 2.5062,28 1.5526,18.92982 2.1347,23.35196 5.5948,42.5 3.2046,17.73418 9.4372,43.1025 11.0435,44.95 0.4543,0.5225 0.826,1.67293 0.826,2.55652 0,2.57418 7.8741,22.13911 10.5533,26.22204 4.0659,6.19607 4.2806,6.12851 -11.5533,3.63515 -3.575,-0.56295 -20.45,-1.02935 -37.5,-1.03643 -25.664,-0.0107 -33.8001,0.34735 -47.2678,2.07992 -18.1806,2.33888 -18.2322,2.343 -18.2322,1.45463 z m -31,-72.31624 c -7.9929,-4.26144 -10.9856,-10.26294 -10.9928,-22.04559 0,-6.48109 0.9896,-9.3335 5.3788,-15.44008 1.7431,-2.42507 1.7892,-3.18994 0.6085,-10.09193 -1.2247,-7.16003 -1.3902,-7.46799 -4.0138,-7.46799 -7.7747,0 -13.6344,-5.228 -14.9551,-13.34307 -1.2253,-7.52857 0.038,-14.66933 4.6903,-26.51908 3.4964,-8.90495 3.7821,-10.39828 3.7574,-19.63785 -0.031,-11.51751 -1.3489,-15.02395 -6.949,-18.48502 l -3.5243,-2.1781 v -7.91844 c 0,-9.11031 0.091,-9.17231 7.821,-5.32037 5.9765,2.97824 7.2072,4.73042 7.0782,10.07814 -0.051,2.10309 0.8846,6.52379 2.0784,9.82379 4.0979,11.32767 3.6452,28.13502 -1.0546,39.15766 -2.8388,6.65782 -3.4361,12.91026 -1.5137,15.84416 2.5895,3.95211 4.317,3.19221 8.0023,-3.52013 1.0513,-1.91493 3.6007,-5.34273 5.6652,-7.61733 2.0645,-2.2746 4.4668,-5.51476 5.3384,-7.20034 1.7656,-3.41435 2.1326,-9.16402 0.5848,-9.16402 -0.55,0 -1,0.45 -1,1 0,1.8137 -4.4937,1.04028 -5.7628,-0.99184 -0.6842,-1.09551 -1.7435,-6.58364 -2.354,-12.19584 -0.6106,-5.6122 -1.734,-11.97245 -2.4966,-14.13389 -2.02,-5.72525 -1.7741,-15.00252 0.5161,-19.46827 3.8605,-7.52788 11.2004,-12.21075 19.0973,-12.18419 5.93,0.0199 9.5518,1.95065 10.1631,5.41775 0.2987,1.6947 1.07,1.91002 6.0205,1.68071 6.8291,-0.31634 9.8164,1.86735 9.8164,7.17557 0,3.84404 -1.5037,5.7 -4.6182,5.7 -3.4686,0 -5.3818,1.05678 -5.3818,2.97271 0,1.51262 0.5705,1.65442 4.0767,1.01326 3.5905,-0.65656 4.1695,-0.4948 4.8542,1.3562 1.1016,2.97797 -0.2014,6.97298 -2.6791,8.21442 -2.5291,1.26712 -1.8484,2.60257 2.4486,4.80388 5.458,2.79617 7.1919,2.16236 14.246,-5.20748 7.5948,-7.93476 9.6388,-9.20254 15.1945,-9.42409 5.1567,-0.20563 6.8591,1.91096 6.8591,8.52797 0,6.40717 -1.1876,8.36815 -5.5655,9.18944 -2.4845,0.4661 -5.6066,2.52745 -9.9551,6.57288 -3.4845,3.2416 -7.9824,6.58199 -9.9955,7.42309 -2.0778,0.86815 -3.4813,2.0758 -3.2466,2.79349 0.8129,2.48608 9.9043,8.42243 14.8335,9.68574 5.2099,1.33524 7.2428,3.33771 8.4748,8.3479 0.8033,3.26667 -1.0741,8.40787 -3.555,9.73563 -3.4406,1.84134 -10.5573,-1.60204 -18.1607,-8.7869 -4.3105,-4.0732 -7.3792,-4.38728 -11.8389,-1.21173 -3.6518,2.60036 -9.1952,9.85407 -8.4509,11.05836 0.277,0.44821 2.1327,0.13425 4.1238,-0.69768 1.9911,-0.83194 4.6236,-1.26078 5.8499,-0.95298 3.2417,0.81362 9.1768,7.82119 10.5741,12.48482 1.0965,3.65985 0.9706,4.49775 -1.3941,9.27595 -1.4298,2.88897 -2.4676,5.3846 -2.3064,5.54584 1.1591,1.15909 7.3565,-1.68042 11.631,-5.32905 4.1607,-3.55157 5.4843,-4.19303 6.9894,-3.3875 3.7575,2.01092 3.6784,5.81025 -0.2885,13.85941 -4.3704,8.86793 -11.275,11.59315 -25.0537,9.88858 -11.4027,-1.41064 -12.0676,-2.14745 -11.2808,-12.50216 0.5441,-7.15993 0.4153,-8.25 -0.9746,-8.25 -4.2186,0 -8.5717,5.53678 -12.4793,15.87248 -0.8613,2.27815 -2.9824,4.46469 -6.5367,6.73839 -2.894,1.85124 -5.5691,3.8632 -5.9448,4.47101 -0.3756,0.60781 -0.1199,3.75842 0.5683,7.00134 1.0764,5.07209 1.8614,6.39621 5.6168,9.47345 2.401,1.96748 4.3655,4.18944 4.3655,4.9377 0,1.9206 -4.8592,5.51421 -7.3848,5.46143 -1.1634,-0.0243 -3.6902,-0.8839 -5.6152,-1.91021 z m 179.25,0.45902 c -3.5372,-2.54372 -2.9044,-6.04313 1.6362,-9.04797 2.8921,-1.91391 4.1908,-3.66001 5.0773,-6.82634 1.9298,-6.89236 1.1015,-10.60628 -2.834,-12.70812 -4.7486,-2.53599 -7.7775,-5.60712 -9.1437,-9.27096 -3.0863,-8.27674 -4.3207,-10.31396 -7.5147,-12.40122 -5.5054,-3.59773 -5.8397,-3.22172 -5.0933,5.7284 0.5904,7.0785 0.4475,8.19637 -1.267,9.91086 -2.2597,2.2597 -11.8743,3.58522 -21.1425,2.91483 -5.142,-0.37194 -6.48,-0.90777 -9.4465,-3.78297 -6.4238,-6.22621 -9.4107,-15.98934 -5.9503,-19.44969 2.1969,-2.19694 2.4566,-2.10474 7.9912,2.83713 3.047,2.7207 6.2572,4.6232 8.3848,4.96918 4.4282,0.7201 4.737,0.30794 2.1928,-2.92652 -4.8829,-6.20762 -3.5982,-13.93082 3.3884,-20.37092 4.8291,-4.45123 6.4882,-4.84141 10.8701,-2.55625 5.7602,3.00398 4.5395,-1.19006 -2.31,-7.9366 -6.3201,-6.22504 -8.4279,-6.24931 -15.5334,-0.17887 -2.9992,2.56222 -7.529,5.5769 -10.0663,6.69929 -4.273,1.89013 -4.7921,1.92361 -7.0353,0.45377 -2.8643,-1.87672 -3.9133,-5.29875 -3.0443,-9.93092 0.7937,-4.23077 2.7607,-5.94105 9.2683,-8.05863 5.9268,-1.92857 13.3222,-6.91543 13.3222,-8.98334 0,-0.76929 -1.9125,-2.53058 -4.25,-3.91397 -2.3375,-1.3834 -6.6331,-4.68541 -9.5459,-7.3378 -2.9128,-2.6524 -6.9557,-5.28822 -8.9842,-5.85738 -2.2634,-0.63502 -4.1717,-1.99004 -4.9394,-3.50722 -1.7514,-3.46137 -1.5828,-9.09578 0.3551,-11.86246 1.4532,-2.07482 2.2407,-2.28491 7.0645,-1.88488 5.2216,0.43301 5.7234,0.74291 13.1366,8.11259 8.7133,8.66221 10.4557,9.18679 16.614,5.00208 3.6476,-2.4786 3.7704,-2.71379 1.7975,-3.4436 -3.816,-1.41163 -5.6383,-7.49755 -2.9203,-9.75323 0.8854,-0.73486 2.3802,-0.8002 4.4865,-0.19612 1.9803,0.56794 3.3823,0.54397 3.7582,-0.0642 1.0669,-1.72616 -1.6305,-3.76302 -5.3987,-4.07669 -3.4738,-0.28918 -3.691,-0.51417 -3.9888,-4.13227 -0.192,-2.33245 0.3228,-4.79977 1.3185,-6.31933 1.421,-2.16875 2.3071,-2.47279 6.8149,-2.3383 7.3175,0.2183 7.6812,0.14672 7.0894,-1.39553 -0.2929,-0.76306 0.6752,-2.32722 2.1662,-3.5 6.6149,-5.20328 20.1946,-0.93959 25.7597,8.0879 3.7424,6.07081 4.3452,11.70229 2.1243,19.8459 -0.9669,3.54519 -2.0901,10.2708 -2.4961,14.9458 -1.1065,12.74245 -3.525,17.00302 -8.0481,14.1783 -2.4208,-1.51185 -2.9672,-0.34851 -1.9514,4.15525 0.9033,4.00498 1.5094,4.95922 7.1881,11.31704 2.0391,2.28282 4.6596,6.01724 5.8236,8.29872 2.6844,5.26197 4.7485,6.11136 7.2735,2.99313 2.1555,-2.66187 1.926,-6.68425 -0.8117,-14.22979 -6.0143,-16.57605 -6.3142,-31.18658 -0.9058,-44.13051 0.8084,-1.93485 1.4698,-5.47891 1.4698,-7.87571 0,-3.26312 0.5652,-4.85751 2.25,-6.34708 3.0281,-2.67718 10.3145,-5.74655 11.6632,-4.91304 0.6124,0.3785 1.0868,3.68105 1.0868,7.56558 0,6.86943 -0.014,6.90555 -4.1033,10.19099 -5.9222,4.75858 -7.1259,7.72545 -7.1928,17.72838 -0.055,8.16375 1.5981,14.97305 6.2061,25.56874 3.4561,7.94702 4.0825,20.78038 1.292,26.47049 -1.9809,4.03915 -8.2869,7.98908 -12.7928,8.01306 -2.9085,0.0155 -3.1606,0.32624 -4.272,5.26645 -0.6496,2.8875 -1.4286,6.18561 -1.7311,7.32914 -0.3798,1.43566 0.6329,3.60213 3.272,7 3.8113,4.90723 3.8216,4.9458 3.7067,13.92086 -0.1439,11.24079 -1.7911,15.30743 -7.9036,19.51298 -5.5788,3.83831 -10.1591,4.70084 -13.2312,2.49163 z m -88.5219,-141.25461 c -0.87,-0.9625 -2.6982,-4.82669 -4.0625,-8.58708 -4.0056,-11.04036 -8.1468,-14.46287 -14.7017,-12.15016 -7.7943,2.74996 -15.4375,1.21177 -22.2031,-4.46835 -3.2992,-2.76986 -4.1317,-3.03601 -7.0101,-2.24125 -4.537,1.25275 -11.4937,-0.94543 -15.5535,-4.91461 -2.8982,-2.83355 -3.532,-3.05703 -5.7734,-2.03576 -5.123,2.33418 -14.7039,0.51726 -23.0432,-4.36991 -7.7473,-4.54022 -9.3475,-9.26838 -4.6306,-13.68163 4.0758,-3.81329 8.0413,-5.48679 14.8452,-6.26476 6.7098,-0.76721 13.3341,0.53566 15.932,3.13352 1.4895,1.48955 1.9074,1.45659 5.295,-0.41771 5.2824,-2.92265 9.2497,-3.5148 14.5712,-2.17484 3.9333,0.99042 4.9403,0.93504 6.388,-0.35126 5.7465,-5.10579 15.5925,-6.02717 23.6539,-2.21351 l 5.3114,2.51269 5.3766,-2.50292 c 7.1124,-3.31092 13.4005,-3.29709 20.8496,0.0459 l 5.723,2.56833 3.8469,-2.16069 c 7.5149,-4.22084 18.9358,-3.41803 24.6759,1.73453 1.4524,1.30381 2.4418,1.36064 6.388,0.36697 5.3084,-1.33666 9.2883,-0.74788 14.5248,2.1488 l 3.6315,2.00883 3.2071,-2.36755 c 2.8032,-2.06944 4.2412,-2.35215 11.421,-2.24533 8.8239,0.13129 12.9037,1.54285 17.8589,6.17904 1.5125,1.41511 2.75,3.40457 2.75,4.42102 0,4.77998 -6.9568,10.34429 -16.5844,13.26492 -5.8851,1.78528 -10.4419,1.91356 -13.7898,0.38818 -2.1997,-1.00225 -2.8693,-0.73512 -6.1538,2.45474 -3.9576,3.84358 -9.7988,5.45452 -15.5831,4.29767 -2.4558,-0.49116 -3.7571,-0.0118 -6.7195,2.4753 -6.6278,5.56438 -14.743,7.22652 -21.4994,4.40349 -6.487,-2.71042 -11.3364,1.13369 -15.3356,12.15635 -3.0393,8.37712 -4.7143,10.33704 -8.8344,10.33704 -1.7688,0 -3.8948,-0.77965 -4.7719,-1.75 z m -149.6727,297.72036 c 3.7393,-2.00121 6.6981,-10.97036 3.6189,-10.97036 -1.8303,0 -4.9952,-3.73564 -7.1414,-8.42911 -2.1068,-4.60718 -1.2307,-6.90372 2.818,-7.38731 3.0175,-0.36042 3.1812,-0.89592 1.1108,-3.63358 -3.1695,-4.19111 -11.3345,-1.54799 -11.4299,3.7 -0.043,2.36841 -1.2733,2.20443 -5.6269,-0.75 -4.4779,-3.03876 -8.4049,-3.32943 -8.4049,-0.62212 0,2.39195 2.6518,8.78886 3.9849,9.61276 1.7561,1.08534 1.1027,3.50936 -0.9459,3.50936 -2.7591,0 -6.039,3.8648 -6.039,7.11598 0,1.77242 0.9361,3.47514 2.6527,4.82544 2.9548,2.32423 3.5096,2.15728 3.8547,-1.15977 0.1306,-1.25491 0.2948,-2.61915 0.365,-3.03165 0.2027,-1.19101 4.939,-0.87061 7.3912,0.5 3.614,2.01996 6.7364,4.99772 6.7364,6.42431 0,1.58219 4.314,1.7632 7.0554,0.29605 z m 320.4528,-3.53115 c 3.8074,-3.80742 5.0919,-4.50945 7.7763,-4.25 2.8194,0.2725 3.2541,0.71117 3.5289,3.56079 0.3634,3.76943 1.0208,3.98475 3.9199,1.28383 4.5985,-4.28416 3.631,-9.14802 -2.3138,-11.63191 -3.9053,-1.63175 -4.1648,-2.41745 -1.5729,-4.76304 1.8984,-1.71803 4.7027,-9.42291 3.7694,-10.35627 -1.1119,-1.1119 -7.6945,0.91255 -10.4176,3.20391 l -2.8605,2.40695 -1.6965,-3.84525 c -2.5779,-5.84284 -8.7832,-6.38879 -11.6536,-1.0253 -0.9453,1.76632 -0.7366,1.97708 1.958,1.97708 2.3343,0 3.1498,0.53275 3.6076,2.35676 0.7953,3.16876 -2.9696,10.99283 -6.0944,12.66519 -5.5398,2.96482 -1.1494,12.82566 5.7647,12.94764 0.948,0.0167 3.776,-2.02194 6.2845,-4.53038 z M 242.30665,664.29819 c 2.1939,-1.21492 2.4589,-2.0338 2.5201,-7.78912 0.046,-4.3507 0.6355,-7.29705 1.8214,-9.10691 1.9699,-3.00642 5.1409,-3.50938 6.5256,-1.03505 1.236,2.20861 3.1813,0.8359 3.1813,-2.24487 0,-2.63695 -4.0099,-7.39553 -6.232,-7.39553 -0.7276,0 -2.3239,0.70107 -3.5472,1.55793 -2.7932,1.95639 -4.2208,1.12321 -4.2208,-2.46331 0,-2.87076 -2.4164,-8.61589 -4.0479,-9.62424 -1.5376,-0.95031 -4.9444,5.78252 -4.9483,9.77962 0,4.20267 -0.5952,4.46539 -4.7198,2.09818 -2.5328,-1.45358 -3.2325,-1.48275 -5.8311,-0.24304 -2.2586,1.07754 -3.0282,2.19366 -3.2733,4.74701 -0.1763,1.83603 -0.052,4.03781 0.2761,4.89284 0.5028,1.31033 0.9891,1.18577 3.0951,-0.79271 l 2.4986,-2.34732 2.2063,2.20631 c 1.7796,1.77958 2.2776,3.61763 2.5748,9.50323 0.3165,6.26697 0.672,7.44816 2.519,8.36843 3.0402,1.5148 6.7431,1.47183 9.6021,-0.11145 z m 348.5013,-0.11185 c 1.5596,-1.17942 1.9663,-2.74851 2.02,-7.79275 0.045,-4.24184 0.6429,-7.19459 1.8202,-8.99143 2.0897,-3.18929 3.1653,-3.33085 5.4079,-0.71169 1.2558,1.46661 2.0128,1.68877 2.9902,0.87755 2.0733,-1.72062 1.5278,-5.71323 -1.1457,-8.38676 -2.8274,-2.82735 -4.3845,-3.04354 -7.1043,-0.98635 -2.9399,2.2236 -4.4412,1.83403 -4.4412,-1.15248 0,-1.47635 -0.975,-4.69831 -2.1666,-7.15991 l -2.1666,-4.47564 -2.3293,2.90991 c -1.2811,1.60046 -2.6152,4.48492 -2.9647,6.40992 -0.8877,4.88913 -1.0683,5.03948 -4.1397,3.44481 -4.6539,-2.41629 -9.5664,0.48533 -9.5664,5.65043 0,3.75291 1.1602,4.86203 2.7753,2.65319 0.7032,-0.96164 2.006,-1.74843 2.8952,-1.74843 3.3969,0 7.3473,10.06938 5.6756,14.46647 -0.4602,1.21026 -0.5388,2.61291 -0.1747,3.117 2.4123,3.34013 9.3202,4.36752 12.6148,1.87616 z M 416.52375,475.54533 c 2.5074,-0.93381 2.6426,-1.30607 2.2359,-6.15627 -0.7209,-8.59713 4.7016,-15.97276 8.2128,-11.17095 2.5406,3.47451 4.6255,-1.30047 2.3909,-5.47586 -1.2632,-2.36036 -5.8827,-3.39399 -9.3228,-2.08605 -2.4286,0.92334 -2.7115,0.7735 -3.2257,-1.7087 -0.8538,-4.12168 -3.6207,-9.22079 -5.0033,-9.22079 -1.3972,0 -4.1842,5.38883 -5.0652,9.79377 -0.5749,2.87446 -0.6663,2.91572 -3.4187,1.54265 -5.7346,-2.8608 -12.212,1.84932 -9.8057,7.13041 1.0743,2.35785 1.2912,2.42856 2.9224,0.9524 4.2119,-3.81174 8.3657,1.39149 8.1779,10.24404 -0.1023,4.82322 0.093,5.26162 2.9736,6.65648 3.0494,1.47687 3.7176,1.43936 8.9279,-0.50113 z m 176.3064,-0.81862 c 0.1269,0 0.2308,-3.1861 0.2308,-7.08021 0,-6.18857 0.3099,-7.39008 2.4605,-9.54069 l 2.4605,-2.46048 2.5526,2.00794 c 1.404,1.10436 2.838,1.72267 3.1866,1.37402 1.2539,-1.25391 0.5999,-6.68075 -1.0211,-8.47184 -1.7757,-1.96217 -7.7959,-2.52624 -8.845,-0.82874 -1.4133,2.28679 -3.5,0.94674 -3.5037,-2.25 0,-3.45537 -3.2517,-9.75 -5.0305,-9.75 -1.3456,0 -4.9146,7.76066 -4.9438,10.75 -0.023,2.31859 -1.4303,3.0163 -2.522,1.25 -0.9822,-1.58927 -6.6657,-1.15997 -8.6712,0.65499 -2.2115,2.00135 -2.5427,8.34501 -0.4358,8.34501 0.7662,0 1.6521,-0.675 1.9687,-1.5 0.3165,-0.825 1.4781,-1.5 2.5813,-1.5 3.1173,0 5.4857,5.47423 5.4479,12.59231 -0.032,6.03934 -10e-4,6.10584 3.5384,7.64832 3.1103,1.35538 4.0055,1.37572 6.9428,0.15769 1.8547,-0.76908 3.476,-1.39832 3.603,-1.39832 z m -349.6063,0.1339 c 2.0095,-1.5454 2.1959,-2.1446 1.2289,-3.95136 -1.3567,-2.53511 0.268,-10.6236 2.6982,-13.43254 1.8562,-2.14538 4.7879,-2.27706 5.5658,-0.25 0.8877,2.31352 2.5303,1.77877 3.2416,-1.05536 0.4725,-1.88256 0.037,-3.19902 -1.6553,-5 -2.3428,-2.49377 -7.278,-3.33771 -8.448,-1.44464 -1.1938,1.93158 -3.5,1.02367 -3.5,-1.37788 0,-2.91559 -2.551,-9.22662 -4.122,-10.19756 -1.7296,-1.06891 -4.7139,3.4862 -5.4546,8.32544 -0.4046,2.64364 -1.1745,4.25 -2.0369,4.25 -0.7626,0 -1.3865,-0.45 -1.3865,-1 0,-1.44963 -7.5643,-1.22985 -8.7971,0.25559 -1.652,1.9905 -2.3128,6.10655 -1.2433,7.74441 0.8071,1.23609 1.3343,1.28008 2.9963,0.25 1.1094,-0.6875 2.7211,-1.25 3.5816,-1.25 2.3375,0 4.673,6.59073 4.2927,12.11393 -0.2662,3.86508 0.058,5.0881 1.6698,6.30853 2.7309,2.06716 8.4958,1.92083 11.3688,-0.28856 z m -85.3688,204.31731 c -6.451,-3.19426 -8.8522,-5.07222 -8.081,-6.32012 0.3406,-0.55109 2.9732,-2.09599 5.8501,-3.43312 8.8865,-4.13014 12.7309,-8.66278 12.7309,-15.0101 0,-7.26161 -5.8999,-15.17686 -14.5261,-19.48798 -5.1247,-2.56115 -21.70495,-4.58563 -30.96012,-3.78028 -10.44101,0.90854 -36.787454,-0.98245 -45.513754,-3.2667 -9.89318,-2.58969 -18.71296,-6.77318 -29.58996,-14.03541 -23.36038,-15.59698 -36.03361,-35.01897 -41.50504,-63.60735 -1.45587,-7.60694 -1.45667,-29.01988 -10e-4,-37.51015 3.94626,-23.02323 14.60323,-46.56336 27.78816,-61.38115 5.82105,-6.54195 5.73248,-6.25215 2.84913,-9.3222 -7.8974,-8.40876 -15.52149,-23.15316 -21.3895,-41.36563 -2.8283,-8.77813 -4.35124,-24.37016 -3.75374,-38.43102 1.06005,-24.94587 6.12185,-41.2633 18.61247,-60 7.88752,-11.83176 28.07405,-28.99896 40.52952,-34.46746 2.66114,-1.16835 3.39839,-2.46755 5.92067,-10.43353 3.0282,-9.5638 7.59015,-19.13547 11.797474,-24.75293 3.54059,-4.72727 5.58099,-9.01567 8.94815,-18.80674 3.46967,-10.08914 4.5395,-25.46608 3.0292,-43.53934 -1.26461,-15.13319 -0.0793,-16.84154 8.49983,-12.25 13.00974,6.96285 19.73579,19.89377 18.20558,35.00044 -0.34817,3.43726 -0.49873,6.41556 -0.33457,6.61844 0.16416,0.20289 3.58247,-0.7986 7.59626,-2.22553 21.06475,-7.48864 50.13595,-7.42989 65.29775,0.13197 5.648,2.81689 12.8802,7.51649 16.2863,10.58314 1.9852,1.78728 3.6976,2.07493 13,2.18382 8.571,0.10034 11.6577,0.54894 15.4334,2.24304 6.8655,3.08041 12.9058,9.15364 16.7882,16.87993 2.9502,5.87104 3.4112,7.78333 3.4488,14.30584 0.035,6.00208 -0.3623,8.08022 -1.9567,10.24749 -2.8265,3.8421 -4.2204,3.43281 -5.0013,-1.46858 -2.2012,-13.8153 -13.4397,-25.75 -24.248,-25.75 h -3.5051 l 0.5419,4.75 c 0.298,2.6125 1.1212,8.45798 1.8293,12.98997 1.4327,9.16885 0.4547,16.82458 -3.2174,25.18768 -1.3835,3.15092 -1.6349,4.73686 -0.8717,5.5 1.5987,1.5987 23.6783,1.37881 27.9723,-0.27857 1.925,-0.74301 4.4,-1.70183 5.5,-2.13072 16.4191,-6.40179 37.9764,-21.37394 54,-37.5046 9.3707,-9.43329 20.8619,-17.714 31.8303,-22.93726 9.0436,-4.30667 11.1903,-4.16352 10.0881,0.67267 -0.4074,1.78796 -0.6835,7.37624 -0.6134,12.4184 l 0.1274,9.16757 -7.574,4.72067 c -6.8861,4.29192 -17.8736,14.10346 -22.8946,20.44419 -3.4245,4.32474 -9.1795,16.18728 -11.8725,24.47226 -3.3308,10.24759 -3.4965,24.56477 -0.4864,42.02774 3.6127,20.95853 4.0081,24.81931 3.3798,33 -1.0981,14.29603 -6.5838,28.33169 -14.0933,36.05833 -6.9114,7.11133 -7.3914,6.56639 -7.3914,-8.39155 0,-12.63677 -1.599,-25.03662 -3.0264,-23.46837 -0.4012,0.44088 -2.2101,3.50159 -4.0196,6.80159 -7.6151,13.88758 -22.2526,33.64818 -31.6258,42.69485 l -3.8282,3.69486 -17.2853,0.18644 c -9.507,0.10254 -17.5035,-0.0316 -17.77,-0.2981 -0.2664,-0.26649 3.462,-3.889 8.2854,-8.05002 27.1513,-23.42246 46.6734,-53.30736 53.6972,-82.20088 0.7185,-2.95573 0.7107,-2.96203 -1.3523,-1.09501 -1.1412,1.03281 -2.075,2.44559 -2.075,3.13951 0,0.69393 -0.3375,1.41168 -0.75,1.59502 -0.4125,0.18333 -2.5105,3.03333 -4.6622,6.33333 -3.3073,5.07206 -15.2122,21.47117 -19.2377,26.5 -0.6604,0.825 -3.887,4.875 -7.1701,9 -15.0772,18.9432 -38.0479,40.40105 -50.4229,47.10189 -13.0195,7.04988 -20.1617,8.40533 -52.2571,9.91739 -15.32107,0.72179 -25.89899,1.72318 -31.68318,2.99937 -9.85692,2.17477 -23.217144,7.30325 -29.691434,11.39741 l -4.37464,2.76639 4.87464,2.32715 c 13.253774,6.32735 21.667024,9.03652 32.975364,10.61848 20.31173,2.84147 47.49585,-4.97422 72.14585,-20.74263 3.0177,-1.93044 6.0692,-3.28638 6.7811,-3.0132 1.6358,0.62771 1.6691,25.0324 0.037,27.10323 -1.2311,1.56198 -20.4619,11.2218 -28.5647,14.34827 -15.7965,6.09513 -32.65464,8.54878 -48.98807,7.13003 -9.35974,-0.813 -25.09019,-4.04306 -28.957614,-5.9461 -0.85486,-0.42065 -4.47929,-2.05357 -8.05429,-3.62871 -3.575,-1.57514 -9.83775,-4.96179 -13.91721,-7.52588 -4.07947,-2.5641 -7.90447,-4.46631 -8.5,-4.22715 -1.53769,0.61751 -12.8884,15.94758 -16.06254,21.69377 -3.69587,6.69069 -7.52025,17.16281 -7.52025,20.59233 0,4.32857 2.52261,6.34953 13.7964,11.05282 22.10083,9.22019 31.15793,17.86419 46.371704,44.25664 7.15235,12.4077 8.16156,16.2652 5.00316,19.12351 -2.84122,2.57127 -3.83669,2.39587 -25.671264,-4.52322 -3.3,-1.04572 -9.375,-2.16309 -13.5,-2.48303 -6.79686,-0.52717 -7.67969,-0.3816 -9.41667,1.55267 -1.05416,1.17391 -1.91666,3.56998 -1.91666,5.32461 0,6.93774 17.83573,19.23664 37.33333,25.74378 12.762524,4.25936 22.236614,3.58828 40.500004,-2.86876 8.21305,-2.90373 23.87777,-11.87421 28.70237,-16.4365 6.4078,-6.05948 7.9451,-8.73763 10.1709,-17.71845 2.1301,-8.59482 2.0316,-13.53499 -0.487,-24.43611 -1.1436,-4.95 -2.1484,-10.575 -2.2328,-12.5 l -0.1535,-3.5 4.7791,0.16439 c 5.8249,0.20038 12.9796,4.45039 17.916,10.64244 10.2582,12.86767 11.5887,28.41271 3.8423,44.89077 -2.9015,6.17211 -13.2342,18.18638 -20.3604,23.67401 -3.1223,2.40438 -5.6693,4.65438 -5.6599,5 0.01,0.34561 2.484,1.69633 5.4992,3.0016 14.9117,6.45528 22.4456,19.26181 22.4719,38.19865 0.014,10.32086 -1.7971,16.24866 -6.483,21.21667 -7.4805,7.93071 -16.7132,9.76362 -26.0052,5.16268 z M 64.159946,424.86357 c 19.17639,-13.00779 42.253744,-19.85833 68.612954,-20.36784 10.04785,-0.19422 14.03335,-0.6166 14.33335,-1.51902 0.2666,-0.80217 -0.592,-1.25 -2.3966,-1.25 -4.7792,0 -16.25111,-5.01818 -25.25658,-11.04803 -26.30055,-17.61023 -44.679004,-50.87705 -47.622794,-86.20197 -0.35521,-4.2625 -0.86247,-7.75 -1.12724,-7.75 -0.26477,0 -2.13888,1.21081 -4.16468,2.69069 -9.20569,6.72488 -19.29628,19.96275 -24.4875,32.12522 -3.00404,7.03813 -3.30868,9.43054 -1.40232,11.01268 1.71629,1.42439 10.31775,-1.07553 15.27477,-4.43945 6.5871,-4.47013 8.18219,-2.43105 8.30038,10.61086 0.14748,16.27322 -5.31194,41.62312 -11.19886,52 -1.4871,2.62131 -1.99219,5.39598 -2.01188,11.05208 -0.024,6.89764 0.25381,7.9592 3.20596,12.25 1.77774,2.58386 3.46032,4.69792 3.73908,4.69792 0.27876,0 3.06964,-1.73841 6.20196,-3.86314 z M 207.41245,371.25819 c 3.7839,-2.44775 10.5304,-7.93827 14.9923,-12.20116 10.533,-10.06311 17.1107,-18.53075 37.0356,-47.67653 4.0781,-5.96542 8.0401,-11.715 8.8045,-12.77686 1.8611,-2.58527 1.0894,-3.09759 -2.141,-1.42159 -4.2194,2.18901 -17.313,4.54682 -25.1057,4.52086 -3.9287,-0.0131 -10.9681,-0.94206 -15.6431,-2.06439 -13.9835,-3.35704 -14.0171,-3.3562 -18.4123,0.46192 l -3.9124,3.39861 2.0974,5.36383 c 4.4367,11.34644 5.2874,22.36137 2.8082,36.36383 -2.1116,11.92613 -7.2204,25.28243 -11.1884,29.25039 -0.7659,0.76586 -1.3925,1.79919 -1.3925,2.29629 0,1.42366 4.5441,-0.65487 12.0574,-5.5152 z m -41.0649,-1.17763 c 7.2719,-3.62767 13.4821,-12.25221 17.004,-23.61457 0.6411,-2.0684 1.2194,-8.3684 1.285,-14 0.1086,-9.31385 -0.1225,-10.69118 -2.557,-15.23928 -4.0476,-7.56197 -5.0071,-8.42261 -11.1839,-10.03145 -8.5394,-2.22423 -18.1897,-9.63691 -20.0092,-15.36967 -0.729,-2.29675 -6.0064,-4.52351 -16.92539,-7.1414 -9.19481,-2.20452 -30.142,-2.71239 -35.45676,-0.85965 l -3.14922,1.09782 1.7e-4,9.15218 c 3.6e-4,18.89877 5.67651,37.45321 16.87208,55.15217 3.27791,5.18201 18.12397,20.83711 18.96382,19.99726 0.26228,-0.26228 -0.21155,-2.16896 -1.05295,-4.23706 -4.23468,-10.40851 -4.87933,-21.2553 -1.75891,-29.59535 2.49331,-6.66397 10.13276,-14.66485 14.00236,-14.66485 4.9657,0 5.6863,1.58613 6.3604,14 0.6229,11.47152 1.9662,17.80183 5.124,24.14753 2.2011,4.42315 7.8298,12.84809 8.5854,12.85054 0.328,10e-4 2.0813,-0.73884 3.8961,-1.64422 z m 27.4336,-90.82257 c 1.8972,-1.4866 1.8943,-1.58084 -0.1918,-6.27028 -4.0827,-9.17786 -4.7344,-12.59175 -4.7265,-24.761 0.01,-11.43837 0.1535,-12.28786 3.1205,-18.15054 1.712,-3.3828 2.8244,-6.61694 2.4721,-7.18698 -1.1746,-1.90065 -10.2094,-5.16126 -17.387,-6.27491 -7.2477,-1.12451 -20.1124,-0.13309 -29.2134,2.25133 -7.7822,2.03892 -21.92351,9.77451 -28.25607,15.4567 -5.21178,4.67652 -17.2439,20.56162 -17.2439,22.76582 0,0.35122 5.63128,0.63858 12.51396,0.63858 10.01381,0 14.65074,0.5148 23.20911,2.57672 5.8823,1.4172 11.5295,3.02327 12.5493,3.56904 1.5005,0.80303 2.6683,0.24187 6.1221,-2.94171 4.3537,-4.01315 13.6554,-8.20405 18.2088,-8.20405 7.0072,0 8.0647,4.10878 3.4785,13.51489 -1.605,3.29181 -3.0675,6.54291 -3.25,7.22466 -0.1825,0.68175 2.3261,3.24439 5.5747,5.69476 6.3676,4.80305 7.0078,4.80782 13.0196,0.097 z m 448.5656,399.21872 c -3.6474,-2.18714 -6.4127,-4.85792 -8.4558,-8.1667 -2.8185,-4.56461 -3.0605,-5.70779 -3.38,-15.96404 -0.3499,-11.22989 0.3489,-15.39697 3.8768,-23.11926 2.5782,-5.6436 10.3507,-12.83284 17.9088,-16.56492 l 6.4414,-3.18072 -2.9414,-2.05545 c -1.6178,-1.13051 -6.7842,-5.94185 -11.4808,-10.69187 -6.4535,-6.52696 -9.5067,-10.57463 -12.5,-16.57173 -3.905,-7.82386 -3.9601,-8.0898 -3.9228,-18.93531 0.033,-9.71846 0.3437,-11.66153 2.6632,-16.67819 4.9198,-10.64058 13.9865,-18.20045 23.3708,-19.48671 5.7337,-0.7859 6.1622,0.42115 3.5078,9.88106 -4.2048,14.98494 -3.7181,29.77289 1.3096,39.79203 4.2786,8.5265 20.8632,19.91607 37.1107,25.48616 8.2071,2.81361 20.3414,5.50565 24.8166,5.50565 10.7274,0 35.4285,-10.80043 45.9334,-20.08412 5.1295,-4.53318 5.75,-5.49816 5.75,-8.94201 0,-7.12519 -5.8975,-8.6203 -20,-5.07029 -10.5546,2.65691 -18.0326,4.76969 -21.3151,6.02223 -4.7603,1.81647 -8.2877,1.32935 -10.0699,-1.39063 -0.8882,-1.35565 -1.615,-3.01449 -1.615,-3.68632 0,-0.67183 2.5491,-5.75016 5.6646,-11.28518 16.8676,-29.96659 27.5668,-40.1491 51.5723,-49.08137 11.5635,-4.30269 12.5284,-6.46946 8.2107,-18.43907 -3.0474,-8.44808 -8.1037,-17.3224 -14.6107,-25.64311 -7.1367,-9.12603 -6.7646,-8.98645 -12.9171,-4.84616 -11.1612,7.51092 -27.9792,14.40578 -41.4043,16.97441 -8.9147,1.70568 -30.0975,1.92997 -39.4196,0.4174 -11.9699,-1.94217 -35.5145,-11.13349 -46.8459,-18.28761 l -4.25,-2.68326 v -13.48745 c 0,-10.39997 0.2976,-13.48746 1.3,-13.48746 0.715,0 1.7275,0.39442 2.25,0.8765 0.5225,0.48207 3.2,2.1371 5.95,3.67783 29.2776,16.4032 50.7192,22.35406 70.4715,19.55842 4.86,-0.68785 10.7921,-1.84778 13.1824,-2.57762 9.7508,-2.97717 23.8461,-9.26652 23.8461,-10.64016 0,-1.8462 -20.768,-10.88191 -30.5,-13.26992 -8.0268,-1.96959 -14.6696,-2.67624 -33.665,-3.58129 -26.3933,-1.25751 -32.9639,-2.08605 -42.7933,-5.39606 -22.2465,-7.49143 -59.1059,-44.78893 -88.5823,-89.63539 -3.6657,-5.57707 -6.9164,-9.88861 -7.2238,-9.58119 -1.1252,1.12521 5.6503,20.62272 10.4492,30.06888 10.0098,19.7036 28.3938,42.23863 47.0391,57.66027 5.8467,4.83588 5.2486,5.05674 -13.2239,4.88368 l -17,-0.15926 -3.3771,-3.19234 c -9.3749,-8.86207 -28.0909,-34.22091 -34.6455,-46.94235 -1.0627,-2.0625 -2.2148,-3.75 -2.5602,-3.75 -0.9607,0 -1.9021,12.21462 -1.9101,24.78138 -0.01,13.49321 -0.9365,14.64633 -7.0127,8.71317 -6.2193,-6.07302 -10.9443,-16.05703 -13.9586,-29.49455 -1.3787,-6.14645 -0.8978,-23.38703 0.8788,-31.5 2.1818,-9.9639 4.0227,-25.18298 4.0537,-33.51212 0.037,-9.8274 -2.6723,-19.78454 -8.7024,-31.98788 -2.9769,-6.02424 -5.8018,-9.57693 -14.3568,-18.05522 -5.8578,-5.80537 -10.9845,-11.65537 -11.3926,-13 -1.8227,-6.00621 -8.9812,-19.04244 -13.9723,-25.44478 -3.8482,-4.93624 -5.0257,-7.0957 -3.994,-7.32459 1.7667,-0.39198 24.0643,10.32345 31.8633,15.31237 3.0694,1.96351 11.4744,9.15736 18.6778,15.98632 20.7141,19.63765 45.5287,35.10643 61.9746,38.63345 5.807,1.24538 22.5165,0.71004 23.9953,-0.76877 0.5378,-0.53775 0.072,-2.58373 -1.1511,-5.05566 -3.2822,-6.63392 -4.345,-16.68933 -2.9067,-27.4999 1.9848,-14.91797 1.9575,-15.23051 -1.3609,-15.61002 -5.7613,-0.65888 -13.7457,4.1527 -18.4307,11.10678 -3.3951,5.03937 -6.2118,12.26936 -6.2118,15.94444 0,4.9884 -2.6129,4.43701 -5.4803,-1.15647 -2.3977,-4.67727 -1.6751,-15.75283 1.458,-22.34799 3.3485,-7.0486 10.2644,-14.2036 16.82,-17.40146 5.1386,-2.50669 6.757,-2.78348 16.3716,-2.80008 9.5008,-0.0164 10.9246,-0.25315 13,-2.16168 3.7454,-3.44414 16.0247,-10.98756 19.8307,-12.18233 1.925,-0.60429 5.075,-1.61417 7,-2.24418 1.925,-0.63 9.207,-1.38066 16.1823,-1.66813 14.2844,-0.58869 27.0223,1.17676 38.4827,5.33361 3.6458,1.32236 6.752,2.40429 6.9028,2.40429 0.1508,0 0.2655,-4.3875 0.255,-9.75 -0.021,-10.6189 1.0424,-14.28684 6.3992,-22.07266 3.3345,-4.84646 13.8082,-12.17734 17.3979,-12.17734 3.3501,0 4.3727,2.66983 3.2642,8.52245 -1.5515,8.19223 -1.2827,36.15622 0.4083,42.47755 2.5443,9.5109 7.3116,20.69133 10.9529,25.68693 5.3336,7.31731 11.1786,20.05001 13.6858,29.81307 0.9013,3.50989 1.7343,4.35888 6.7981,6.92893 13.5013,6.85241 26.5323,17.8391 35.863,30.23667 2.9743,3.95192 5.4078,7.4528 5.4078,7.77973 0,0.32693 1.0419,2.27297 2.3153,4.32454 5.8069,9.35561 11.1786,27.56417 12.8271,43.48013 2.2357,21.58665 -1.7842,45.84686 -10.6512,64.28078 -4.3761,9.09751 -9.8868,17.82623 -14.1717,22.44734 -1.2757,1.37579 -2.3195,2.86314 -2.3195,3.30522 0,0.44208 1.6038,2.53712 3.5639,4.65563 11.0663,11.96053 21.6891,32.0246 26.2398,49.56103 0.5709,2.2 1.5303,5.87452 2.132,8.16561 1.6002,6.09285 2.3846,30.6424 1.2568,39.33439 -4.333,33.39457 -23.9183,59.8393 -55.6925,75.19799 -15.0685,7.28364 -24.7854,8.9869 -50.9846,8.93693 -32.8266,-0.0626 -43.8277,2.38431 -50.9445,11.33133 -8.9493,11.2509 -5.9269,20.62801 9.0055,27.93969 2.983,1.46064 5.4208,2.97934 5.4173,3.37488 0,0.39555 -1.466,1.59175 -3.25,2.65822 -11.2468,6.72323 -17.4635,7.28112 -25.752,2.31096 z m 123.1964,-253.5 c 1.3495,-2.0625 3.0428,-5.8875 3.7628,-8.5 1.4697,-5.33281 0.5957,-10.02 -3.5895,-19.25 -7.217,-15.91651 -12.2659,-54.20918 -7.9189,-60.05887 1.4128,-1.90109 1.5461,-1.88365 6.4623,0.84535 11.3715,6.31231 17.8564,6.46132 16.5233,0.37967 -0.9474,-4.32243 -5.0272,-12.90732 -9.6793,-20.36797 -3.402,-5.45583 -18.7376,-21.29818 -20.6169,-21.29818 -0.3863,0 -1.2869,4.3875 -2.0015,9.75 -3.1786,23.85318 -8.8322,39.3861 -20.7144,56.91138 -7.7788,11.47326 -12.6929,16.81893 -21.8907,23.81347 -10.7569,8.18014 -23.7298,14.52515 -29.6977,14.52515 -1.7372,0 -2.8276,0.53206 -2.8276,1.3797 0,1.10286 2.8553,1.40293 14.2305,1.49551 25.747,0.20954 49.2811,7.11689 68.2695,20.03738 3.3,2.24545 6.2777,4.08372 6.6171,4.08503 0.3395,10e-4 1.7214,-1.68512 3.071,-3.74762 z m -143.2685,-52.71404 c -11.4087,-16.90447 -14.3788,-47.78484 -6.2864,-65.35933 1.5266,-3.31543 1.5211,-3.33158 -2.3014,-6.75878 -4.3103,-3.86444 -4.3392,-3.86523 -18.3318,-0.50604 -13.5491,3.25274 -30.9438,2.18994 -40.8138,-2.4937 -1.8417,-0.87396 -3.4847,-1.43807 -3.651,-1.25356 -0.1663,0.1845 2.9078,4.95317 6.8312,10.59705 3.9235,5.64388 10.5086,15.2271 14.6336,21.29605 4.125,6.06895 8.175,11.80589 9,12.74876 0.825,0.94286 3.168,3.78658 5.2067,6.31935 5.0553,6.28059 14.9328,15.96716 21.2578,20.84682 6.1278,4.72758 15.6196,10.09346 16.6873,9.4336 0.4094,-0.25298 -0.5951,-2.44458 -2.2322,-4.87022 z m 37.7443,-2.78596 c 7.4782,-8.36045 13.4862,-28.85382 12.0902,-41.23932 -0.9509,-8.43628 5.3996,-10.17557 12.6732,-3.47098 7.6121,7.01662 10.0617,15.02269 8.5,27.7808 -0.4928,4.02628 -1.8085,9.38332 -2.9238,11.90454 -1.1153,2.52122 -1.8711,4.74064 -1.6797,4.93205 0.1914,0.19141 2.0766,-1.11563 4.1894,-2.90454 8.7641,-7.42053 15.7931,-16.63719 21.3254,-27.96256 7.2137,-14.76724 9.9224,-25.25074 10.8235,-41.89155 l 0.6283,-11.60155 -3.2944,-1.14845 c -4.8358,-1.68575 -26.606,-1.44202 -34.4888,0.38613 -12.5704,2.91527 -17.3425,5.22226 -19.4835,9.41904 -3.2896,6.44821 -10.9116,11.60647 -20.7874,14.06811 -9.8049,2.44394 -14.6858,18.82595 -10.8685,36.47828 2.5677,11.87435 7.3561,19.46641 15.5583,24.6681 2.456,1.55755 4.7489,2.8319 5.0954,2.8319 0.3464,0 1.5355,-1.0125 2.6424,-2.25 z m -19.4652,-90.87564 5.62,-4.12563 -3.4093,-6.79335 c -6.5288,-13.00891 -3.7325,-17.30782 8.7866,-13.50864 6.4522,1.95804 8.7184,3.23024 12.943,7.26607 2.922,2.79132 4.0058,3.28262 5.5,2.49322 1.0236,-0.54072 6.5401,-2.15828 12.2589,-3.59458 8.4138,-2.11313 12.755,-2.61145 22.75,-2.61145 8.1419,0 12.3521,-0.36638 12.3521,-1.07489 0,-2.2398 -9.4154,-15.50397 -14.5947,-20.56056 -14.6746,-14.32696 -39.2707,-22.36894 -59.4087,-19.42437 -7.6366,1.11661 -17.9966,5.14916 -17.9966,7.00503 0,0.51726 0.9377,2.52979 2.0839,4.4723 6.3941,10.83724 6.328,30.5476 -0.1474,43.95016 -2.6113,5.40478 -2.4697,6.3366 1.3135,8.64329 4.5042,2.74628 5.5526,2.55882 11.9487,-2.1366 z m -278.1987,159.2211 c -10.0486,-2.75827 -16.0026,-6.01103 -22.0592,-12.05125 -4.591,-4.57857 -5.8628,-6.63278 -7.3018,-11.79421 -1.6566,-5.9421 -1.6566,-6.5579 0,-12.5 1.4407,-5.16745 2.7199,-7.23102 7.3856,-11.9138 6.4185,-6.4421 10.1785,-7.57335 21.6206,-6.50488 9.6725,0.90324 18.3548,7.60392 18.3548,14.16562 0,11.53287 -13.1293,17.98674 -21.5501,10.59318 -5.2636,-4.62153 -5.5519,-4.09873 -1.2026,2.18128 2.1344,3.08186 7.5525,5.7286 11.727,5.7286 5.8096,0 14.0087,-8.7959 13.9821,-15 -0.01,-1.375 2.0971,-6.775 4.6733,-12 2.5762,-5.225 5.0276,-10.4 5.4476,-11.5 1.7052,-4.46647 3.9227,-11.94074 3.9227,-13.22168 0,-1.49944 9.9874,-20.14777 17.8948,-33.41294 2.0107,-3.37306 2.5117,-3.63461 6.9625,-3.63461 19.1327,0 25.074,-26.93212 7.7388,-35.0806 -5.6721,-2.66621 -9.5623,-2.71823 -14.5101,-0.19402 -3.7406,1.90831 -9.086,7.27403 -9.086,9.12058 0,1.99321 -2.7486,0.57732 -16.3628,-8.42899 -7.7754,-5.14374 -17.4257,-11.45744 -21.4449,-14.03044 -8.2639,-5.2903 -8.1901,-4.90859 -2.7886,-14.42011 4.8034,-8.45852 5.9874,-10.19719 6.9439,-10.19719 0.4766,0 3.6308,1.29718 7.0095,2.88262 12.1708,5.71124 19.6665,6.23549 31.1992,2.18206 10.1091,-3.55306 16.4028,-10.14888 18.8384,-19.74269 1.1205,-4.41379 1.5007,-4.849 4.4911,-5.14104 5.055,-0.49368 13.9945,2.70997 20.7085,7.42135 6.4527,4.52799 15.5747,13.87558 17.8278,18.26859 4.54,8.8518 7.5751,23.12447 7.5767,35.62948 0,16.01417 -3.5453,27.39541 -12.7037,40.75709 -7.5256,10.97943 -7.2008,18.62871 1.3578,31.98108 2.3909,3.73006 4.3471,7.22731 4.3471,7.77169 0,0.54437 -1.4625,0.99228 -3.25,0.99535 -8.4598,0.0145 -22.1065,5.94028 -39.2386,17.03855 -12.1037,7.84085 -12.6882,9.412 -1.0114,2.71891 17.6987,-10.14483 32.8517,-15.76304 42.5147,-15.76304 h 5.5211 l 10.4315,10.46721 c 5.7374,5.75697 10.2041,10.69477 9.926,10.9729 -0.2782,0.27812 -2.2804,0.0119 -4.4495,-0.59151 -2.2947,-0.63842 -7.707,-0.87374 -12.9438,-0.5628 -11.6468,0.69157 -18.1006,3.11817 -37.5,14.0997 -14.1859,8.03032 -30.384,16.39383 -36.4846,18.83805 -14.5461,5.82781 -31.8931,7.33664 -44.5154,3.87191 z m 91,-71.50245 c 0,-0.65615 -0.446,-1.63905 -0.9912,-2.1842 -1.2187,-1.21869 -2.9594,-9.04095 -3.6515,-16.40881 -0.5829,-6.20611 0.916,-10.67415 5.1998,-15.5 12.7311,-14.34178 15.4213,-20.79627 15.4213,-37 0,-14.50339 -2.2202,-20.90193 -10.5005,-30.2628 -8.1798,-9.24713 -20.4779,-16.74247 -20.4779,-12.48068 0,0.45062 2.892,2.72065 6.4266,5.04453 14.2295,9.35533 21.4736,21.89276 21.4937,37.19895 0.017,13.1042 -4.063,23.38403 -13.0282,32.82468 -6.3327,6.66853 -7.8921,10.37305 -7.8921,18.74886 0,6.31518 2.1017,16.87939 4.1014,20.61585 0.9944,1.85806 3.8986,1.4138 3.8986,-0.59638 z m 9.3049,47.09046 c -0.6503,-1.0511 -0.8925,-0.90743 6.6951,-3.97031 10.2119,-4.12221 16.4527,-5.00757 24.0432,-3.41093 7.1327,1.50034 17.1191,5.71086 16.6787,7.03215 -0.3631,1.08918 -46.748,1.43068 -47.417,0.34909 z m -76.3049,-54.94807 c -23.8853,-10.78889 -36.6063,-18.93225 -51.8327,-33.18091 -6.017,-5.6306 -12.5442,-13.51089 -11.8041,-14.25099 0.339,-0.33905 2.3085,0.0806 4.3766,0.93256 3.713,1.52954 7.4682,2.61684 16.2602,4.70796 15.5045,3.68766 39.419,3.15672 53.4259,-1.18614 6.7427,-2.09058 6.9543,-2.09767 8,-0.26827 0.5908,1.0335 2.7898,3.78955 4.8868,6.12456 l 3.8127,4.24546 -5.8989,9.82018 c -3.2443,5.40111 -7.66,13.07968 -9.8126,17.0635 -4.1945,7.76264 -5.7205,8.56377 -11.4139,5.99209 z m 30.4504,-36.142 c -1.6772,-0.73057 -4.2647,-2.77248 -5.75,-4.53758 -2.2639,-2.69061 -2.7004,-4.15975 -2.7004,-9.09044 0,-5.43106 0.2877,-6.1836 3.7591,-9.83276 6.2834,-6.60524 15.5036,-6.64302 21.7825,-0.0893 2.6911,2.80891 2.9584,3.70874 2.9584,9.95666 0,6.23986 -0.2694,7.14991 -2.9431,9.94067 -4.5094,4.70672 -11.3387,6.165 -17.1065,3.65273 z m -62.9504,-8.6438 c -12.8737,-2.46585 -27.5174,-6.94444 -27.4539,-8.39643 0.025,-0.57924 2.0132,-2.62817 4.4175,-4.55317 2.4042,-1.925 9.5629,-8.14005 15.9083,-13.81123 l 11.5369,-10.31122 22.7581,14.94865 c 12.5169,8.22176 22.9065,15.39387 23.0879,15.93802 0.3935,1.18061 -1.0426,1.79422 -10.2548,4.3817 -8.1276,2.28286 -31.9015,3.35487 -40,1.80368 z m 18.7423,-11.87863 c 3.7168,-3.53597 6.7577,-6.82976 6.7577,-7.31955 0,-2.27301 -4.3859,0.37439 -11.8453,7.14993 -6.4976,5.90194 -7.9174,7.67968 -7.0081,8.77523 1.3244,1.59587 1.516,1.45956 12.0957,-8.60561 z m 9.264,4.63302 c 4.6603,-4.3374 5.4385,-5.50494 4.2995,-6.45025 -1.1054,-0.91736 -2.4896,-0.15979 -6.7454,3.69158 -3.6885,3.3381 -5.1629,5.345 -4.7388,6.45024 0.3386,0.88244 0.8134,1.60444 1.0551,1.60444 0.2417,0 3,-2.38321 6.1296,-5.29601 z m -20.8984,-6.32733 c 9.6622,-8.9474 12.2109,-12.39451 9.1421,-12.3644 -2.0786,0.0204 -22.1092,19.59752 -21.3343,20.85135 0.3863,0.62502 0.9493,1.13639 1.2512,1.13639 0.3018,0 5.2253,-4.3305 10.941,-9.62334 z m -19.1735,5.37334 c 0.7104,-0.6875 5.8532,-5.66441 11.4286,-11.05979 10.169,-9.84072 11.785,-12.10384 8.2188,-11.50976 -2.4608,0.40993 -23.0818,20.36129 -23.0818,22.33226 0,1.81375 1.6853,1.93019 3.4344,0.23729 z m 45.9817,-50.23729 c -10.2915,-3.2497 -18.8853,-10.49216 -23.1536,-19.51271 -2.1941,-4.6369 -2.6063,-6.91234 -2.6267,-14.5 -0.021,-7.91706 0.3192,-9.69135 2.8301,-14.74565 4.7935,-9.64906 13.8122,-17.07614 23.7849,-19.58727 6.2717,-1.57924 19.9197,-1.41245 27.2492,0.33301 9.5913,2.28409 21.7552,8.87161 29.1436,15.78314 8.3791,7.83815 12.2633,13.51932 20.3518,29.76665 1.3953,2.80272 3.3407,12.94739 2.6209,13.6672 -0.3876,0.38762 -1.6974,-0.51003 -2.9105,-1.99477 -3.4206,-4.18627 -12.5107,-10.50613 -18.1249,-12.60124 -2.7945,-1.04285 -8.4559,-2.05921 -12.5809,-2.25858 l -7.5,-0.36249 -0.5122,5 c -0.6816,6.65433 -3.7565,12.30429 -8.8011,16.17186 -7.5076,5.75581 -20.2904,7.83436 -29.7706,4.84085 z m 60.9787,-54.64265 c -3.1629,-3.51766 -13.8273,-10.73169 -19.5241,-13.20714 -6.8846,-2.99162 -16.0159,-5.47868 -22.3586,-6.08976 -5.7349,-0.5525 -8.6017,-3.25436 -13.1707,-12.41282 l -2.6638,-5.33966 -4.0888,0.6424 c -2.2488,0.35332 -9.0388,0.88244 -15.0888,1.17582 -9.7604,0.4733 -11.3749,0.81778 -14.327,3.05686 -3.4284,2.60043 -5.4656,2.67208 -11.423,0.40175 -2.3399,-0.89175 -2.75,-1.61999 -2.75,-4.8842 0,-2.47837 0.7217,-4.61083 2.039,-6.02475 1.1214,-1.20371 2.185,-2.18856 2.3635,-2.18856 0.1785,0 2.7034,0.45114 5.6109,1.00254 4.4962,0.85268 6.9457,0.61546 16.3865,-1.58694 12.8935,-3.00785 16.8839,-4.70872 18.6089,-7.93194 2.1378,-3.99463 0.4271,-6.86314 -8.4013,-14.08727 -8.7903,-7.19289 -10.6075,-9.63609 -10.6075,-14.26194 0,-3.95455 -2.9073,-13.31173 -4.7946,-15.43112 -0.8799,-0.98817 -3.1986,-2.53973 -5.1526,-3.4479 -4.4662,-2.07574 -5.0185,-2.89033 -5.0375,-7.4287 -0.01,-2.50862 0.8056,-4.648787 2.5736,-6.749997 2.8095,-3.338842 4.2385,-3.696582 7.6747,-1.921302 1.23,0.63548 2.9114,1.47168 3.7364,1.858222 1.0282,0.48172 1.5496,2.39885 1.6577,6.094567 0.2736,9.3533 5.4713,21.22991 10.0536,22.9721 1.3304,0.50583 4.8575,0.91968 7.838,0.91968 4.5056,0 5.9334,-0.46358 8.4697,-2.75 3.4719,-3.12986 4.7218,-8.24178 3.0682,-12.54837 -1.3433,-3.49847 -5.7141,-5.40281 -14.4563,-6.29847 -6.5007,-0.66601 -6.6309,-0.73653 -6.6309,-3.59091 0,-4.720307 2.7404,-8.791329 7.3163,-10.86887 2.3011,-1.0447 4.985,-1.909338 5.9643,-1.921417 0.9793,-0.01208 3.0934,-1.51721 4.698,-3.344736 4.1793,-4.760041 9.7194,-6.389022 16.1359,-4.744533 7.2207,1.850618 10.144,3.53914 14.718,8.50136 6.3406,6.878747 11.2488,17.632726 15.232,33.373226 1.2543,4.95686 1.5111,5.26698 3.8893,4.69695 2.5292,-0.60623 24.8896,-11.42686 32.5462,-15.74978 20.769,-11.726097 46.5889,-30.360618 61.9218,-44.689696 3.3611,-3.141011 6.094,-5.017383 6.3201,-4.339201 0.6261,1.878287 -5.437,13.864371 -12.3082,24.332255 -13.8024,21.026982 -33.9934,41.920082 -52.6328,54.462912 -6.3379,4.26496 -6.7119,5.79698 -1.0499,4.30082 2.062,-0.54486 5.549,-1.4609 7.749,-2.03564 13.7678,-3.59681 26.0129,-10.15389 38.0815,-20.39202 3.6142,-3.06598 6.8095,-5.33621 7.1008,-5.04495 0.9228,0.92284 -2.9103,9.69365 -7.0081,16.0359 -10.107,15.64249 -30.7719,30.80851 -49.3301,36.20353 -3.3039,0.96047 -5.1139,1.97502 -4.7047,2.6371 0.9815,1.58812 31.5586,0.20172 37.7696,-1.71252 7.4151,-2.28535 8.6197,-1.93546 4.9222,1.42972 -7.1777,6.53267 -29.7812,18.04369 -41.5802,21.17498 -2.338,0.62049 -6.6135,1.3395 -9.501,1.59781 -5.2296,0.46783 -6.6758,1.52343 -3.6682,2.67756 3.8328,1.47079 25.8322,0.30273 38.3128,-2.03421 5.0767,-0.9506 3.1518,1.09562 -4.719,5.0164 -12.2027,6.07869 -25.8024,10.20056 -39.7808,12.05695 -3.3366,0.4431 -4.4601,0.15059 -6,-1.56209 z m -91.8948,0.48142 c -16.436,-3.42298 -38.5824,-11.2174 -42.4643,-14.94528 -1.8163,-1.74431 -1.5923,-1.74245 10.5515,0.0879 13.4753,2.03107 32.7293,2.03436 34.4128,0.006 1.0772,-1.29791 0.598,-1.5 -3.5565,-1.5 -5.0022,0 -5.8356,-0.19976 -18.9435,-4.54079 -14.1884,-4.69889 -37.6696,-18.20291 -36.4445,-20.95921 0.2445,-0.55 0.8945,-0.84162 1.4445,-0.64805 5.9384,2.09 14.2356,3.35714 25.25,3.85617 l 13.25,0.60032 0.032,2.59578 c 0.044,3.5656 2.118,5.99155 6.0994,7.13339 5.4791,1.57141 10.6972,1.14917 13.7572,-1.11322 2.363,-1.747 4.4542,-2.10846 13.2095,-2.28318 5.9538,-0.11882 11.3437,-0.73196 12.6039,-1.43379 2.5442,-1.41688 2.4992,-1.4552 7.796,6.64068 3.7395,5.71573 3.7512,7.1519 0.058,7.1519 -3.8862,0 -12.8077,3.20511 -17.2545,6.1988 -2.3092,1.55464 -6.3592,5.29022 -9,8.30129 -4.6814,5.33794 -5.88,5.8763 -10.8013,4.85139 z m -21.5,-43.55335 c -9.3802,-4.00166 -13.9019,-6.37299 -21.2089,-11.12278 -8.5934,-5.58596 -20.2096,-16.86054 -25.4229,-24.67535 -3.4764,-5.21127 -7.766,-14.93548 -6.9488,-15.75266 0.3071,-0.30715 2.9835,1.73512 5.9476,4.53839 7.8638,7.43723 17.6689,13.51603 30.133,18.68136 6.2527,2.59121 22.8624,6.57052 23.7443,5.6886 0.4367,-0.43671 -1.5329,-2.30182 -4.3769,-4.14468 -14.9715,-9.70118 -31.1874,-25.58297 -42.9662,-42.080777 -6.5609,-9.18948 -18.8876,-31.811689 -18.8971,-34.680232 -0.01,-1.751989 1.4979,-1.555756 3.1235,0.407633 2.8729,3.469856 20.8107,18.269063 31.0396,25.608573 13.4212,9.630066 21.0336,14.291203 34.0314,20.837733 13.0103,6.55285 12.8392,6.41254 11.8359,9.70754 -0.4503,1.47869 -1.3172,5.27602 -1.9266,8.43852 -1.1547,5.9932 -2.0919,10.82716 -4.7014,24.25 -1.3167,6.77323 -2.1117,8.57505 -5.1838,11.75 -3.8946,4.02491 -4.3964,4.18042 -8.2227,2.54813 z m 16.6987,-5.24228 c -1.1358,-1.13578 -1.3069,-2.24948 -0.66,-4.29464 0.4803,-1.51867 1.5436,-6.36121 2.3628,-10.76121 5.2075,-27.97013 6.1993,-32.46573 7.0985,-32.1753 0.55,0.17764 1.5778,1.50786 2.2839,2.95604 1.0932,2.24191 0.9107,4.53348 -1.2289,15.42616 -2.6064,13.26914 -4.333,21.69093 -5.4793,26.72508 -0.7959,3.49559 -2.2834,4.2174 -4.377,2.12387 z m 7.9944,0.75659 c -0.28,-0.45315 0.075,-3.29633 0.7893,-6.31818 0.7142,-3.02184 1.8446,-8.86926 2.5119,-12.99426 1.7295,-10.68974 1.8509,-10.95352 3.6808,-7.99845 0.851,1.37415 3.8597,4.41166 6.6861,6.75003 10.9885,9.09122 11.839,9.97045 11.4763,11.86342 -0.4668,2.43676 -5.4629,4.77998 -14.8375,6.95891 -4.125,0.95878 -8.017,1.92755 -8.6488,2.15283 -0.6319,0.22529 -1.378,0.0388 -1.6581,-0.4143 z m 5.9483,-72.585395 c -1.5309,-1.119415 -1.6389,-1.919698 -0.7776,-5.763479 0.5501,-2.454961 1.5566,-7.388565 2.2368,-10.963565 1.4083,-7.40229 2.7048,-9.045159 5.6587,-7.169953 0.9883,0.627416 1.0174,1.968884 0.1355,6.234687 -0.618,2.989396 -1.639,8.324204 -2.2688,11.855129 -1.2168,6.821381 -2.1348,7.890967 -4.9846,5.807181 z m 4.9825,-30.526672 c -0.2718,-0.439795 0.8172,-6.852295 2.4201,-14.25 1.6028,-7.397705 3.4227,-15.925372 4.0441,-18.950372 0.6215,-3.025 1.2918,-6.0625 1.4896,-6.75 0.2833,-0.984893 15.4243,-1.25 71.3909,-1.25 39.0673,0 71.0254,0.3375 71.018,0.75 -0.01,0.4125 -5.166,4.8 -11.4635,9.75 -6.2975,4.95 -11.4665,9.262143 -11.4866,9.58254 -0.02,0.320397 3.3385,4.934663 7.4635,10.253923 4.125,5.31926 7.5,10.119617 7.5,10.66746 0,1.210819 -141.6284,1.406237 -142.3761,0.196449 z m 16.8761,-13.869076 c 1.4158,-4.273625 2.6393,-4.375086 3.9949,-0.331296 0.8185,2.441657 1.8705,3.602159 3.4788,3.837845 2.499,0.366199 2.4915,-0.117047 -0.1026,-6.575813 -1.2533,-3.120654 -1.1626,-3.379162 2.5049,-7.134973 2.5185,-2.579224 3.4151,-4.138124 2.6515,-4.610056 -0.677,-0.418409 -2.7404,1.00567 -4.9936,3.446348 -3.9037,4.22842 -5.5929,4.112273 -4.4834,-0.308268 0.6724,-2.679066 -0.9365,-4.435471 -2.218,-2.421395 -1.042,1.637653 -4.2719,13.713453 -4.3062,16.099645 -0.04,2.791428 2.3402,1.419629 3.4737,-2.002037 z m 16.5,1.668704 c 0.7432,-1.38865 2.0938,-2 4.4186,-2 2.5072,0 3.4795,0.502364 3.8712,2 0.2876,1.1 1.302,2 2.2541,2 1.5635,0 1.6625,-0.845931 1.0224,-8.735008 -0.3898,-4.804255 -1.2149,-9.047856 -1.8336,-9.430225 -1.5733,-0.972311 -4.6428,0.867832 -5.7983,3.476035 -0.5335,1.204059 -2.495,4.662626 -4.3588,7.685704 -1.8639,3.023079 -3.1794,5.835579 -2.9232,6.25 0.8254,1.335547 2.2496,0.805254 3.3476,-1.246506 z m 4.7544,-5.578936 c -0.8089,-0.808971 1.2946,-5.421064 2.4726,-5.421064 1.2529,0 0.523,5.263896 -0.7895,5.693714 -0.5844,0.191374 -1.3417,0.06868 -1.6831,-0.27265 z m 15.0456,6.378936 c 0.66,-0.66 1.2,-2.235 1.2,-3.5 0,-1.633333 0.5797,-2.3 2,-2.3 1.2629,0 2,0.666667 2,1.80887 0,2.819419 2.4819,5.603939 4.3544,4.885388 1.5211,-0.583715 1.5184,-0.893243 -0.037,-4.154785 -1.6336,-3.425773 -1.6174,-3.59131 0.5834,-5.933914 1.3679,-1.456073 2.1324,-3.339063 1.9315,-4.757695 -0.294,-2.077268 -0.9387,-2.382745 -5.5935,-2.650511 -3.6755,-0.211429 -5.373,0.08997 -5.6321,1 -0.204,0.716456 -0.9017,3.327647 -1.5504,5.802647 -0.6487,2.475 -1.5529,5.711429 -2.0092,7.192065 -1.136,3.685807 0.3075,5.053278 2.7528,2.607935 z m 3.2,-10.604231 c 0,-2.764646 2.7158,-4.879989 4.2699,-3.325864 0.8658,0.865819 0.8929,1.649244 0.1005,2.907619 -1.5902,2.525152 -4.3704,2.791215 -4.3704,0.418245 z m 21.7552,10.054231 c 0.2695,-0.818703 -0.6524,-1.25 -2.6718,-1.25 -3.5313,0 -3.6502,-0.560236 -1.5726,-7.408931 0.8191,-2.699912 1.4892,-5.512412 1.4892,-6.25 0,-1.955111 -2.6667,-1.64179 -3.4804,0.408931 -1.4879,3.749537 -4.141,15.295252 -3.6318,15.804472 1.0424,1.042385 9.4612,-0.07058 9.8674,-1.304472 z m 16.2776,0.233073 c 3.5637,-1.842873 5.9672,-6.197401 5.9672,-10.810968 0,-8.951696 -12.119,-8.178634 -16.1937,1.032986 -3.7921,8.572609 1.9466,14.059649 10.2265,9.777982 z m -7.1137,-3.761418 c -2.1362,-4.688262 4.0687,-12.636555 7.5859,-9.7175 2.3148,1.921064 1.8288,6.752941 -0.9595,9.5413 -3.0649,3.064875 -5.2834,3.123867 -6.6264,0.1762 z m 24.7338,3.808936 c 3.7368,-2.617367 3.6411,-5.491595 -0.3032,-9.104433 -3.4081,-3.121666 -3.4678,-3.29259 -1.5147,-4.33783 1.1182,-0.598464 3.0257,-0.975663 4.2389,-0.838222 3.1006,0.351289 3.5983,-2.043304 0.5819,-2.80036 -3.2935,-0.826618 -9.2884,2.073207 -10.062,4.867152 -0.4539,1.639614 0.1767,2.851156 2.5334,4.866563 4.2115,3.60163 3.3833,6.322492 -1.6377,5.380536 -2.6151,-0.490596 -3.4895,-0.309179 -3.4895,0.724023 0,0.758256 0.3,1.678647 0.6667,2.045313 1.202,1.202006 6.8435,0.698047 8.9862,-0.802742 z"
       id="path293" /></g></svg>
