<?xml version="1.0" encoding="UTF-8" standalone="no"?>
<!-- Created with Inkscape (http://www.inkscape.org/) -->

<svg
   version="1.1"
   id="svg4898"
   width="155"
   height="60"
   viewBox="0 0 155 60"
   sodipodi:docname="firma_estemin.svg"
   inkscape:version="1.2.2 (b0a8486541, 2022-12-01)"
   xmlns:inkscape="http://www.inkscape.org/namespaces/inkscape"
   xmlns:sodipodi="http://sodipodi.sourceforge.net/DTD/sodipodi-0.dtd"
   xmlns="http://www.w3.org/2000/svg"
   xmlns:svg="http://www.w3.org/2000/svg">
  <defs
     id="defs4902" />
  <sodipodi:namedview
     id="namedview4900"
     pagecolor="#505050"
     bordercolor="#ffffff"
     borderopacity="1"
     inkscape:showpageshadow="0"
     inkscape:pageopacity="0"
     inkscape:pagecheckerboard="1"
     inkscape:deskcolor="#505050"
     showgrid="false"
     inkscape:zoom="3.925"
     inkscape:cx="144.20382"
     inkscape:cy="38.598726"
     inkscape:window-width="2512"
     inkscape:window-height="1011"
     inkscape:window-x="0"
     inkscape:window-y="0"
     inkscape:window-maximized="1"
     inkscape:current-layer="g4904" />
  <g
     inkscape:groupmode="layer"
     inkscape:label="Image"
     id="g4904">
    <path
       style="fill:#000000;stroke-width:0.241321"
       d="m 2.0984822,57.918393 c 0,-0.125296 4.3881248,-3.176015 9.7513908,-6.779383 l 9.75139,-6.551581 0.785614,-1.606514 c 1.323317,-2.706061 5.075162,-6.065942 9.339919,-8.364171 0.700222,-0.377337 1.231934,-0.803038 1.181581,-0.945995 -0.207256,-0.588434 -2.588955,-0.150013 -6.983207,1.285462 -6.828839,2.230783 -9.061226,2.595366 -11.041079,1.803187 -1.026856,-0.410864 -1.689,-1.321942 -1.679556,-2.310976 0.01665,-1.745749 2.711959,-4.960928 6.63102,-7.91007 4.973614,-3.74271 12.539749,-7.470904 13.405246,-6.605408 0.322319,0.32232 0.100955,1.230644 -0.490223,2.011541 -0.611104,0.807217 -0.861911,0.479268 -0.36635,-0.479037 0.218661,-0.422846 0.343317,-0.823065 0.277009,-0.889375 -0.215608,-0.215607 -2.64429,0.608522 -4.628619,1.570636 -5.943262,2.881641 -12.5887,8.129034 -13.869922,10.952013 -0.618997,1.363862 -0.600083,2.024685 0.07734,2.702104 1.274602,1.274603 4.077594,0.96472 10.883023,-1.203152 5.098559,-1.624147 6.888649,-1.951145 7.905165,-1.444036 0.698213,0.348311 0.80479,0.321659 2.87902,-0.720087 10.55277,-5.299918 26.71921,-10.958087 42.771326,-14.969739 l 2.615304,-0.6536 0.883845,-1.442731 c 2.004013,-3.271201 3.485999,-5.4975822 3.590136,-5.3934426 0.105613,0.1056066 -2.282146,4.5735866 -2.97798,5.5724206 -0.750562,1.077388 -0.353853,1.052674 5.004054,-0.311751 6.03449,-1.53672 5.836496,-1.403127 5.787087,-3.904728 -0.0306,-1.5501758 0.327146,-2.5796333 0.967079,-2.7827382 1.145,-0.3634099 1.227364,0.7191838 0.239254,3.1447202 -0.378489,0.929084 -0.604949,1.721297 -0.503239,1.760475 0.10171,0.03918 2.885067,-0.632084 6.18525,-1.491685 18.22348,-4.746706 32.03885,-8.1137474 37.85465,-9.2258282 2.77806,-0.5312118 4.10757,-0.6504457 7.48094,-0.6709077 3.96421,-0.024037 4.14863,-0.00324 5.47288,0.6175397 1.4237,0.6673945 2.12872,1.553905 2.12872,2.6767028 0,2.6207792 -5.39723,7.7982104 -12.4756,11.9675374 -1.4994,0.883183 -2.7265,1.687232 -2.72689,1.786777 -4.9e-4,0.09954 1.05808,0.194806 2.35216,0.211691 1.29408,0.01689 3.54741,0.106977 5.00741,0.200202 2.23121,0.14247 1.73094,0.1762 -3.13717,0.21151 l -5.7917,0.04201 -2.89584,1.415046 c -3.9638,1.936896 -7.14941,3.314094 -14.33692,6.198108 l -6.13202,2.460493 -0.74562,2.062672 c -1.12333,3.107537 -1.5071,3.168075 -0.65737,0.103699 0.52664,-1.899234 0.54587,-1.888666 -1.8091,-0.993813 -15.705969,5.96806 -35.479086,11.50314 -55.592821,15.56207 -20.081813,4.052492 -29.405217,5.46776 -31.781059,4.824274 -1.898426,-0.514187 -2.478071,-2.230001 -1.665475,-4.930049 0.186097,-0.618357 0.243372,-1.124292 0.127278,-1.124292 -0.210768,0 -10.976888,7.299709 -16.0642575,10.891981 -2.7389759,1.934038 -2.9830763,2.070705 -2.9830763,1.670214 z M 31.124947,50.287466 c 11.775349,-1.754499 34.242238,-6.38634 46.222495,-9.529359 11.434924,-2.999955 25.826518,-7.630016 34.853598,-11.213088 0.30504,-0.121077 0.42231,-0.43888 0.42231,-1.144455 0,-0.832306 -0.14884,-1.118421 -1.00603,-1.933839 -0.77497,-0.737217 -0.952,-1.042659 -0.77079,-1.329935 0.12938,-0.20511 1.20651,-0.958381 2.39363,-1.67394 1.57864,-0.951559 2.2765,-1.530294 2.59814,-2.154619 0.24187,-0.469485 0.39317,-0.900201 0.33623,-0.957143 -0.057,-0.05695 -0.58062,0.169182 -1.16372,0.502506 -1.85683,1.06143 -3.83538,0.659583 -3.83538,-0.778973 0,-0.506325 -0.0848,-0.570767 -0.58584,-0.445022 -0.79903,0.20054 -1.41897,-0.444775 -1.28754,-1.340234 0.0553,-0.376776 0.0162,-0.685047 -0.0868,-0.685047 -0.25024,0 -2.13252,2.673135 -3.10113,4.404102 -0.42706,0.763177 -0.85659,1.387594 -0.95453,1.387594 -0.3974,0 -0.41846,-0.317995 -0.10832,-1.635843 0.48321,-2.053301 0.43929,-4.310962 -0.0899,-4.619164 -0.3935,-0.229192 -0.39408,-0.246475 -0.008,-0.253312 0.62177,-0.01103 0.91194,0.756091 0.92684,2.450334 l 0.0134,1.524118 0.52957,-0.705373 c 0.29126,-0.387954 1.02733,-1.365302 1.63572,-2.171885 0.68389,-0.906667 1.31734,-1.497473 1.65932,-1.547612 0.53674,-0.07869 0.54815,-0.04111 0.38472,1.266934 l -0.16843,1.348031 h 0.72973 c 0.58565,0 0.87069,-0.202506 1.44362,-1.025612 0.75654,-1.086901 2.41165,-2.741056 3.40512,-3.403153 0.76208,-0.507886 1.9372,-0.529523 1.9372,-0.03566 0,0.237272 -0.23747,0.361982 -0.68926,0.361982 -1.39556,0 -4.86111,3.548784 -4.86111,4.977868 0,0.795531 0.75657,1.130346 1.87124,0.828102 1.96265,-0.532175 3.34802,-2.010435 3.78585,-4.03972 0.21569,-0.99965 0.78595,-1.512306 1.01584,-0.913221 0.17411,0.45372 0.11221,0.637995 -1.2098,3.601881 -0.47128,1.056573 -0.81831,1.9596 -0.77118,2.006725 0.11578,0.115784 2.66761,-1.311175 3.92316,-2.193793 0.69784,-0.490563 1.06012,-0.946717 1.16315,-1.464545 0.23279,-1.170037 1.11726,-3.863612 1.35235,-4.118495 0.33307,-0.361101 0.25564,0.376366 -0.26949,2.566844 -0.86169,3.594345 -0.56051,4.409731 1.19878,3.245488 1.11086,-0.735131 2.6857,-2.981003 3.10406,-4.426674 0.16162,-0.558515 0.40023,-1.08122 0.53024,-1.161568 0.50064,-0.309414 0.51142,0.686444 0.0213,1.967215 -0.61057,1.595502 -0.64573,2.332553 -0.13164,2.759208 0.54277,0.450464 2.28781,-0.04967 3.91181,-1.121142 1.28483,-0.847704 1.39924,-1.018176 2.00936,-2.994179 0.20589,-0.666835 0.49684,-1.114318 0.7568,-1.163968 0.57453,-0.109735 0.54786,0.740609 -0.0657,2.092637 -1.12422,2.477567 -0.24606,3.912356 2.2591,3.691046 0.6104,-0.05393 5.06048,-2.638169 8.1054,-4.70696 4.05084,-2.752234 7.7288,-6.5277347 8.33923,-8.5603959 0.58074,-1.9337898 -2.19747,-3.4210294 -6.39059,-3.4210294 -2.38411,0 -6.74282,0.6124235 -11.34256,1.5936959 -7.87127,1.6791962 -40.949904,10.0288924 -41.288044,10.4219144 -0.08096,0.0941 -0.446995,0.931245 -0.813405,1.860329 -0.366417,0.929085 -0.716642,1.81624 -0.778279,1.971452 -0.08384,0.211135 0.722514,0.247219 3.201677,0.143273 2.210088,-0.09267 3.263428,-0.05753 3.162668,0.105498 -0.08309,0.13444 -1.467049,0.32141 -3.075471,0.415491 -1.608422,0.09408 -3.086485,0.233251 -3.284587,0.30927 -0.198109,0.07602 -1.068102,1.616382 -1.93333,3.423029 -1.515777,3.165044 -1.574455,3.356834 -1.609297,5.260043 -0.0337,1.83903 -0.08567,2.026898 -0.754189,2.724513 -0.434396,0.453294 -0.91103,0.721539 -1.206602,0.679053 -0.684604,-0.09841 -0.569824,-1.083391 0.380134,-3.262154 0.689983,-1.582507 0.732557,-1.817124 0.452421,-2.493425 -0.385035,-0.929565 -1.102924,-1.419168 -2.985941,-2.036423 -1.125445,-0.368921 -1.472361,-0.592133 -1.472361,-0.947345 0,-0.65061 2.7679,-2.120849 5.791697,-3.076409 1.327268,-0.419434 2.447084,-0.787395 2.488492,-0.817695 0.09673,-0.07078 1.491262,-3.799115 1.492428,-3.99004 4.79e-4,-0.07917 -2.469645,0.469823 -5.489175,1.219982 l -5.490045,1.36393 -1.153702,1.917184 c -0.634541,1.054453 -2.067347,3.717808 -3.184016,5.91857 -1.116675,2.20076 -2.201878,4.143769 -2.411567,4.317794 -0.462404,0.383763 2.795665,-6.513655 4.482899,-9.490403 0.66604,-1.17508 1.162983,-2.184504 1.104319,-2.243167 -0.283466,-0.283468 -12.9513,3.228315 -20.212992,5.603456 -9.018577,2.949779 -16.803542,6.019923 -23.550292,9.287492 -2.850818,1.380708 -3.94562,2.030348 -4.067201,2.413428 -0.28747,0.905732 -4.943349,5.380367 -7.862982,7.5569 -2.629318,1.960103 -2.824811,2.16407 -3.212192,3.351435 -0.885159,2.713078 -0.74682,4.292878 0.416965,4.761781 0.996065,0.40132 4.771279,0.242159 8.920743,-0.376104 z m 3.954032,-9.435926 c -0.373886,-0.373879 -0.106011,-1.736805 0.574616,-2.923644 0.892298,-1.555932 4.291989,-5.120372 4.883707,-5.120372 0.235924,0 0.494119,0.169811 0.573767,0.377364 0.198203,0.516511 -0.30778,1.553195 -0.758085,1.553195 -0.440706,0 -0.493553,-0.638599 -0.06552,-0.791471 0.165908,-0.05925 0.228462,-0.186744 0.139006,-0.283311 -0.265131,-0.286203 -2.262248,1.713913 -3.441584,3.446768 -1.184918,1.741038 -1.660837,3.178394 -1.052396,3.178394 1.131262,0 4.187529,-2.965651 5.296553,-5.139529 0.344847,-0.675949 0.559854,-0.876181 0.743565,-0.692463 0.183717,0.18371 0.143583,0.628137 -0.138804,1.536963 -0.218493,0.703188 -0.460557,1.6586 -0.537934,2.123141 l -0.140678,0.844621 0.56158,-0.633496 c 0.308878,-0.348426 1.57641,-2.004464 2.816743,-3.680077 1.240333,-1.67562 2.373833,-3.119919 2.518886,-3.20957 0.145053,-0.08965 -0.109603,0.3455 -0.565907,0.966991 -0.456304,0.621492 -1.915588,2.722509 -3.242849,4.668922 -1.327268,1.946413 -2.521805,3.493083 -2.654529,3.437048 -0.280985,-0.118643 -0.300601,-1.143719 -0.04813,-2.515098 l 0.177725,-0.965286 -1.271408,1.38604 c -0.699279,0.762317 -1.645441,1.658222 -2.102588,1.990895 -0.78808,0.573504 -1.915359,0.794389 -2.265766,0.443975 z m 10.457228,-3.029527 c 0,-0.04874 0.659495,-1.386997 1.465552,-2.973875 1.109578,-2.184427 1.443734,-3.07574 1.37572,-3.669534 -0.05831,-0.508994 0.01449,-0.78429 0.207431,-0.78429 0.387064,0 0.626513,0.772352 0.419655,1.353595 -0.113223,0.31814 0.08955,0.218822 0.669647,-0.327982 0.457625,-0.431363 1.029565,-0.784293 1.270983,-0.784293 0.389571,0 0.427703,0.176331 0.339096,1.567911 -0.05494,0.862356 -0.03209,1.486773 0.05076,1.387597 0.08282,-0.09918 0.674243,-0.94048 1.314265,-1.869562 1.67024,-2.424583 2.546077,-3.311656 2.943812,-2.981565 0.46239,0.383751 0.393514,1.442755 -0.180833,2.780564 -0.673974,1.569838 -1.19759,3.637078 -1.031129,4.070875 0.22954,0.598168 1.14899,0.394808 2.494478,-0.551719 1.842957,-1.296483 2.600758,-2.343271 2.929326,-4.046385 0.153182,-0.794011 0.371803,-1.546823 0.485821,-1.672913 0.389612,-0.430862 0.204567,1.666057 -0.2848,3.227348 -0.611401,1.950619 -0.38248,2.272494 0.97657,1.373118 2.402926,-1.590181 3.611227,-3.121469 3.953728,-5.010595 0.08782,-0.484387 0.318403,-1.01244 0.512413,-1.173451 0.583353,-0.484143 0.727981,0.393669 0.273692,1.661242 -0.509387,1.421328 -0.52942,3.132774 -0.03889,3.321014 0.910303,0.349309 4.50432,-2.525366 4.96729,-3.973092 0.425162,-1.329498 2.117229,-4.517381 2.657036,-5.005898 0.93072,-0.842294 0.966601,-0.03398 0.07605,1.713333 -0.865942,1.699021 -1.304983,2.345097 -1.299489,1.912283 0.0013,-0.12609 0.275619,-0.706338 0.608939,-1.289441 0.333327,-0.583103 0.561594,-1.104636 0.507264,-1.158967 -0.196929,-0.196932 -1.177962,1.662494 -1.2106,2.294554 -0.0184,0.356708 -0.283614,1.052395 -0.589325,1.545966 -0.384792,0.621268 -0.532642,1.17819 -0.480482,1.809905 0.102,1.235224 0.726308,1.293248 2.326722,0.216248 1.506516,-1.013811 1.636766,-0.760262 0.228637,0.445047 -1.072294,0.917845 -1.872083,1.241843 -2.484946,1.006667 -0.335079,-0.128585 -0.432583,-0.30209 -0.745142,-1.325899 -0.112496,-0.368492 0.09466,-0.490864 -2.497571,1.475388 -0.83116,0.630456 -1.766915,1.146273 -2.07946,1.146273 -0.607815,0 -1.067887,-0.616961 -1.067887,-1.432058 0,-0.274177 -0.04914,-0.498507 -0.109172,-0.498507 -0.06006,0 -0.636078,0.526912 -1.280076,1.17091 -1.381941,1.381948 -3.132659,2.690221 -3.600004,2.690221 -0.182463,0 -0.437713,-0.278707 -0.567228,-0.619348 L 58.808587,34.223344 57.7831,35.053965 c -3.726864,3.018687 -4.974504,1.801529 -3.194329,-3.116272 1.276786,-3.527192 0.741003,-3.365456 -1.812281,0.54706 -0.880239,1.348831 -1.864722,2.9506 -2.187729,3.559479 -0.323014,0.608886 -0.735887,1.107063 -0.917502,1.107063 -0.352854,0 -0.351985,-0.0047 0.414101,-2.171889 0.607329,-1.718187 0.880535,-3.378491 0.555951,-3.378491 -0.400626,0 -1.883064,1.953248 -3.132477,4.127314 -0.640493,1.114505 -1.34635,2.061476 -1.568584,2.104387 -0.22222,0.04294 -0.404043,0.03815 -0.404043,-0.01058 z M 98.523396,25.595896 c -0.08118,-0.131344 0.07171,-0.81579 0.339744,-1.520994 0.26803,-0.705204 0.487386,-1.318566 0.487453,-1.36303 6.7e-5,-0.04446 -0.515703,0.377397 -1.146152,0.937464 -1.4528,1.290612 -2.88961,1.971172 -3.486801,1.651562 -0.527189,-0.282142 -0.54547,-0.68989 -0.08079,-1.802028 0.705217,-1.687829 3.870811,-5.170589 4.699713,-5.170589 0.311817,0 0.34031,0.643042 0.0368,0.830621 -0.120267,0.07433 -0.161898,0.35222 -0.09252,0.617543 0.07537,0.288224 0.0073,0.4824 -0.169131,0.4824 -0.163333,0 -0.233214,-0.16176 -0.156377,-0.361981 0.266763,-0.695181 -0.419405,-0.353547 -1.449806,0.721841 -0.935735,0.976589 -2.490609,3.345281 -2.496332,3.802922 -0.0047,0.388664 0.918722,0.148945 1.941385,-0.503889 1.412267,-0.901546 2.987316,-2.643092 3.384978,-3.742795 0.37666,-1.041658 0.94177,-1.170535 0.95478,-0.217748 l 0.009,0.663632 0.83197,-0.965283 c 1.21939,-1.414778 1.02094,-0.862702 -0.38018,1.057631 -0.67064,0.919152 -1.53195,2.412147 -1.914022,3.31777 -0.686087,1.626205 -1.025811,2.030886 -1.313773,1.564951 z M 25.771914,41.575172 c 2.254698,-1.718234 6.662121,-6.023098 6.417273,-6.267946 -0.363344,-0.363343 -4.136179,2.179998 -6.260943,4.220612 -1.911861,1.836149 -3.849248,4.622364 -2.774534,3.990148 0.165909,-0.0976 1.3441,-0.971865 2.618204,-1.942814 z M 87.616572,30.186245 c 0.533997,-0.590063 0.827405,-1.696608 0.644598,-2.431009 -0.129273,-0.519342 -0.222834,-0.417386 -0.802728,0.874797 -0.361024,0.804459 -0.656401,1.584816 -0.656401,1.734128 0,0.406032 0.356542,0.328152 0.814531,-0.177916 z M 119.8803,26.565911 c 5.36829,-2.167772 11.0831,-4.645042 14.0396,-6.085915 1.21888,-0.594027 1.46133,-0.945113 0.65267,-0.945113 -0.63709,0 -1.67828,-1.041185 -1.67828,-1.678276 0,-0.611827 -0.25185,-0.62302 -0.99307,-0.04414 -0.8263,0.645335 -2.37764,1.394465 -3.30018,1.593632 -0.95255,0.205648 -1.98109,-0.356822 -1.98109,-1.083383 0,-0.262393 -0.0481,-0.477079 -0.10699,-0.477079 -0.0589,0 -0.66154,0.586337 -1.3393,1.30297 -1.43003,1.512042 -2.46041,2.055748 -3.01835,1.592696 -0.19898,-0.16513 -0.36177,-0.497718 -0.36177,-0.739087 0,-0.698418 -0.30814,-0.713122 -1.33385,-0.06365 -0.52728,0.33388 -1.75702,1.058351 -2.73276,1.609938 l -1.77407,1.002882 -1.18211,2.954427 c -1.21024,3.024713 -1.32915,3.440572 -0.9838,3.440572 0.10908,0 2.85109,-1.071216 6.09335,-2.38048 z m -4.91324,-3.319834 c -0.0492,-0.04919 -0.86637,0.407624 -1.81594,1.015156 l -1.72651,1.1046 0.8407,1.101018 c 0.46237,0.605561 0.84616,1.221146 0.85285,1.367968 0.007,0.146821 0.44555,-0.805457 0.97525,-2.116175 0.52971,-1.310717 0.92285,-2.423371 0.87365,-2.472567 z m -25.142672,-0.93637 c 0.637716,-1.394013 1.092187,-2.601862 1.009937,-2.684109 -0.386747,-0.386745 -6.350284,2.065394 -6.802517,2.797115 -0.06925,0.112042 0.568604,0.528711 1.417445,0.925932 0.897515,0.42 1.778752,1.040623 2.105897,1.483104 0.691062,0.934715 0.684605,0.941897 2.269238,-2.522042 z M 94.761926,9.8074835 c 0.002,-0.2401046 -0.104898,-0.3694381 -0.237622,-0.287408 -0.132725,0.082029 -0.239659,0.4413706 -0.23763,0.7985355 0.0027,0.507922 0.05467,0.570532 0.23763,0.287408 0.128659,-0.19909 0.235593,-0.558431 0.237622,-0.7985355 z"
       id="path293" />
  </g>
</svg>
