<?xml version="1.0" encoding="UTF-8" standalone="no"?>
<!-- Created with Inkscape (http://www.inkscape.org/) -->

<svg
   width="46.200001mm"
   height="24.200001mm"
   viewBox="0 0 46.2 24.200001"
   version="1.1"
   id="svg34763"
   inkscape:version="1.2.2 (b0a8486541, 2022-12-01)"
   sodipodi:docname="firma_asercap_01.svg"
   xmlns:inkscape="http://www.inkscape.org/namespaces/inkscape"
   xmlns:sodipodi="http://sodipodi.sourceforge.net/DTD/sodipodi-0.dtd"
   xmlns="http://www.w3.org/2000/svg"
   xmlns:svg="http://www.w3.org/2000/svg">
  <sodipodi:namedview
     id="namedview34765"
     pagecolor="#505050"
     bordercolor="#ffffff"
     borderopacity="1"
     inkscape:showpageshadow="0"
     inkscape:pageopacity="0"
     inkscape:pagecheckerboard="1"
     inkscape:deskcolor="#505050"
     inkscape:document-units="mm"
     showgrid="false"
     inkscape:zoom="4"
     inkscape:cx="187.75"
     inkscape:cy="65.125"
     inkscape:window-width="2512"
     inkscape:window-height="1011"
     inkscape:window-x="0"
     inkscape:window-y="0"
     inkscape:window-maximized="1"
     inkscape:current-layer="layer1" />
  <defs
     id="defs34760" />
  <g
     inkscape:label="Capa 1"
     inkscape:groupmode="layer"
     id="layer1">
    <g
       id="g32163"
       transform="matrix(0.39593255,0,0,0.39346232,-89.364861,-56.764711)">
      <path
         style="fill:#459cc7;fill-opacity:1;stroke-width:0.5"
         d="m 935.25,775.94482 c -5.51537,-0.3968 -22.7193,-3.07841 -23.88095,-3.72237 -1.02344,-0.56734 -3.87577,-1.51633 -8.11905,-2.70127 -7.19514,-2.00924 -20.07264,-6.6032 -21.25391,-7.58219 -0.6665,-0.55236 -7.05373,-3.32168 -12.74609,-5.52633 -5.24856,-2.03276 -7.41248,-3.47545 -11.32396,-7.54975 l -4.03669,-4.20471 0.20903,-3.28287 c 0.19098,-2.99924 0.35414,-3.40402 1.88849,-4.68495 1.83727,-1.53382 6.59648,-3.94038 7.79249,-3.94038 0.41361,0 0.88153,-0.3375 1.03982,-0.75 0.15829,-0.4125 0.6771,-0.75 1.1529,-0.75 0.47581,0 3.02751,-0.64923 5.67045,-1.44273 2.64294,-0.7935 4.92991,-1.31816 5.08216,-1.16592 0.15225,0.15225 0.78272,0.0293 1.40106,-0.2732 0.61834,-0.3025 1.79925,-0.66808 2.62425,-0.81239 4.64812,-0.81307 8.1285,-1.54178 13.5,-2.8266 3.3,-0.78933 6.95625,-1.57733 8.125,-1.7511 1.16875,-0.17378 2.125,-0.49306 2.125,-0.70951 0,-0.21645 0.73125,-0.56028 1.625,-0.76405 0.89375,-0.20377 1.9625,-0.4592 2.375,-0.56761 0.4125,-0.10842 2.2125,-0.40496 4,-0.65898 1.7875,-0.25402 5.6125,-0.92287 8.5,-1.48634 2.8875,-0.56346 7.3875,-1.35506 10,-1.75911 23.63498,-3.65538 28.32995,-4.33565 31.875,-4.61848 1.71875,-0.13712 3.125,-0.47027 3.125,-0.74034 0,-0.27007 0.43592,-0.35267 0.96872,-0.18357 0.5328,0.16911 1.37655,0.0903 1.875,-0.17508 0.49845,-0.2654 3.60628,-0.8608 6.90628,-1.3231 3.3,-0.4623 6.35928,-1.03282 6.7984,-1.26782 0.45945,-0.24588 0.99868,-0.22699 1.27016,0.0445 0.29569,0.29569 1.11617,0.28695 2.1983,-0.0234 0.94959,-0.27234 2.90408,-0.49516 4.34331,-0.49516 2.22458,0 2.73696,-0.18343 3.41868,-1.22387 0.73593,-1.12316 0.7358,-1.60658 -0.002,-5.875 -0.939,-5.4356 -1.13848,-6.28084 -3.28067,-13.90114 -0.88903,-3.1625 -1.844,-6.75922 -2.12215,-7.99271 -0.27815,-1.23348 -0.79263,-2.69598 -1.1433,-3.25 -0.35066,-0.55401 -1.01163,-2.69479 -1.46882,-4.75729 -0.45719,-2.0625 -1.17734,-5.2125 -1.60033,-7 -0.42299,-1.7875 -0.97,-4.54375 -1.21558,-6.125 -0.24558,-1.58125 -0.6815,-4.28125 -0.96871,-6 -0.28722,-1.71875 -0.53852,-3.4625 -0.55846,-3.875 -0.041,-0.84883 -1.32605,-8.99972 -1.76292,-11.1821 -0.27327,-1.36515 -0.38297,-1.41748 -2.34654,-1.11935 -1.13293,0.17201 -9.03487,0.42435 -17.55987,0.56074 -14.01019,0.22415 -15.28794,0.17831 -13.29373,-0.4769 1.21345,-0.39869 2.78998,-0.60814 3.5034,-0.46546 1.9146,0.38292 16.06182,-0.70214 18.01018,-1.38135 1.06703,-0.37196 1.96834,-0.41642 2.47848,-0.12224 0.48295,0.2785 2.44163,0.28821 4.92667,0.0245 4.03999,-0.42884 4.125,-0.46569 4.125,-1.78782 0,-0.74247 -0.20456,-1.5637 -0.45458,-1.82495 -0.26336,-0.2752 -0.30862,-3.60261 -0.10758,-7.91039 0.19085,-4.08946 0.17261,-10.72696 -0.0406,-14.75 -0.2237,-4.22267 -0.18574,-9.11112 0.0898,-11.56461 0.26253,-2.3375 0.84523,-8.075 1.2949,-12.75 1.0943,-11.3771 1.00024,-10.70477 1.85376,-13.25 0.41498,-1.2375 0.90726,-2.925 1.09395,-3.75 0.3698,-1.63419 3.07127,-4.75 4.11835,-4.75 0.35858,-2e-5 0.65194,-0.2383 0.65194,-0.52953 0,-0.29123 0.2173,-0.39521 0.48288,-0.23107 0.5075,0.31365 -0.88384,3.76058 -1.51794,3.76058 -0.87082,0 -3.46494,10.22517 -3.46494,13.65768 0,1.04943 -0.23451,2.34625 -0.52114,2.88181 -0.31172,0.58246 -0.34521,1.28812 -0.0833,1.75606 0.26306,0.47007 0.19728,1.71467 -0.16483,3.11837 -0.75063,2.90985 -1.87988,32.81719 -1.47853,39.15803 0.16285,2.57293 0.55136,5.53729 0.86335,6.58746 0.47332,1.5932 0.73844,1.85961 1.60088,1.60867 1.43301,-0.41698 10.97223,-1.22318 17.28363,-1.46071 2.8875,-0.10868 6.4875,-0.35354 8,-0.54414 1.5125,-0.19061 4.2125,-0.42142 6,-0.51292 9.5417,-0.48844 13.5306,-0.9347 14.0603,-1.57297 0.7303,-0.88002 2.4342,-0.83879 3.6603,0.0886 1.3211,0.99926 5.5296,0.93819 7.2971,-0.10589 1.2393,-0.73205 1.676,-0.75614 3.3992,-0.18743 1.505,0.4967 2.5571,0.52545 4.4052,0.12041 2.2832,-0.50042 17.8436,-1.35719 23.509,-1.29443 l 2.581,0.0286 0.169,-9.8376 c 0.1248,-7.26843 0.3434,-10.04759 0.8369,-10.64168 0.3675,-0.44223 0.5534,-0.98965 0.4132,-1.21648 -0.2283,-0.36939 0.089,-1.99989 2.2414,-11.52969 0.3291,-1.45657 0.7848,-2.7636 1.0128,-2.90451 0.228,-0.14093 0.4146,-0.66271 0.4146,-1.15953 0,-0.49682 0.7846,-2.47159 1.7435,-4.38836 2.8211,-5.63911 8.464,-10.39234 15.7565,-13.27233 0.6875,-0.27151 1.5875,-0.65911 2,-0.86133 0.6809,-0.33382 10.2417,-0.23115 12.8202,0.13766 0.5886,0.0842 2.7261,0.69985 4.75,1.36813 3.2383,1.06927 4.0997,1.63987 7.1798,4.75581 4.2742,4.32402 7.2985,8.66116 8.9461,12.82986 3.48,8.80515 5.4215,15.93064 6.8464,25.1278 0.297,1.9167 0.7464,3.87066 0.9987,4.34213 0.2524,0.47147 0.4588,1.6891 0.4588,2.70584 v 1.84862 l 3.875,-0.35606 c 2.1312,-0.19584 4.9155,-0.33277 6.1873,-0.3043 3.3444,0.0749 4.813,-0.64795 5.7597,-2.83478 0.4491,-1.0375 1.057,-2.44886 1.3507,-3.13636 0.2938,-0.6875 0.7856,-1.5875 1.0929,-2 0.3073,-0.4125 1.3161,-2.55 2.2417,-4.75 0.9257,-2.2 2.3377,-4.97321 3.1378,-6.16268 0.8001,-1.18947 2.2102,-3.7977 3.1335,-5.79608 0.9233,-1.99837 2.0258,-3.92147 2.4501,-4.27355 0.4242,-0.35207 0.7713,-0.84952 0.7713,-1.10544 0,-0.25592 0.5625,-1.2931 1.25,-2.30485 0.6875,-1.01174 1.25,-2.24288 1.25,-2.73584 0,-0.496 0.5583,-1.10857 1.25,-1.37156 0.6875,-0.26139 1.2614,-0.76207 1.2754,-1.11263 0.014,-0.35055 1.0251,-1.98737 2.2471,-3.63737 1.2219,-1.65 2.7575,-3.7875 3.4124,-4.75 1.379,-2.02649 3.2997,-4.14257 4.3531,-4.79563 0.4031,-0.24991 2.5087,-2.47937 4.6792,-4.95437 2.2374,-2.55135 4.8453,-4.97104 6.0224,-5.58777 1.1419,-0.59827 2.3702,-1.44202 2.7295,-1.875 0.3593,-0.43298 0.9395,-0.78723 1.2892,-0.78723 0.3498,0 1.3624,-0.67863 2.2503,-1.50807 0.888,-0.82944 2.2055,-1.82934 2.9279,-2.22199 4.4164,-2.40042 10.5377,-4.91392 15.3135,-6.28798 3.025,-0.87033 5.95,-1.82598 6.5,-2.12367 1.0625,-0.57509 3.3339,-1.0727 9,-1.9717 4.5089,-0.7154 25.0192,-0.73042 29.25,-0.0214 4.0243,0.6744 6.4569,1.30929 7.7536,2.02365 0.548,0.30188 2.5714,1.30946 4.4964,2.23906 5.0675,2.44715 7.4971,4.09878 9.0921,6.181 0.7744,1.01081 2.0891,2.64858 2.9216,3.63947 2.8328,3.37174 3.7363,6.50159 3.7363,12.94338 0,5.48979 -0.7806,8.42222 -3.5557,13.35826 -2.014,3.58217 -9.8971,11.15578 -14.6943,14.11736 -1.938,1.19644 -12.0306,5.99528 -14.5,6.89449 -1.375,0.50069 -2.7258,1.07814 -3.0018,1.28323 -0.446,0.33137 -3.1962,1.27569 -10.8153,3.71353 -1.2744,0.40776 -2.7799,0.74139 -3.3455,0.74139 -0.5656,0 -1.1674,0.225 -1.3374,0.5 -0.17,0.275 -0.8582,0.5 -1.5295,0.5 -1.2319,0 -1.614,0.89923 -0.7541,1.775 0.6807,0.69327 2.8189,7.47661 3.4968,11.09348 0.3215,1.71517 0.4342,3.96517 0.2503,5 -0.535,3.01223 -3.2914,9.74378 -4.684,11.43928 -0.7037,0.85678 -2.067,2.62923 -3.0295,3.93879 -1.8818,2.56039 -6.2057,7.25345 -6.6828,7.25345 -0.2385,0 -3.4566,2.93065 -5.5672,5.06995 -0.275,0.27874 -1.175,1.18997 -2,2.02496 -0.825,0.83499 -2.4204,2.11707 -3.5454,2.84906 -3.8505,2.50547 -6.7046,5.35012 -6.7046,6.68249 0,1.02156 0.4516,1.44467 2.4677,2.31197 1.3572,0.58386 2.7922,1.06157 3.1889,1.06157 0.8316,0 3.2937,0.9787 7.6649,3.0468 1.6893,0.79926 3.2768,1.4532 3.5278,1.4532 0.251,0 1.2029,0.55071 2.1152,1.22381 0.9123,0.6731 2.2964,1.36385 3.0757,1.53502 0.7793,0.17116 2.3157,0.74545 3.4142,1.27619 1.0985,0.53074 2.338,0.96498 2.7545,0.96498 0.4164,0 1.4961,0.31752 2.3991,0.7056 0.9031,0.38809 3.667,1.30274 6.142,2.03257 5.4254,1.59985 8.5739,3.08868 10.0467,4.75087 1.0315,1.16411 1.5773,1.27432 9.0256,1.82245 4.4433,0.32699 8.2791,0.39679 8.7271,0.15881 0.4515,-0.23981 2.1924,-0.19641 4,0.0997 2.6067,0.42703 3.6145,0.38052 5.4311,-0.25071 1.2267,-0.42626 2.318,-0.68746 2.425,-0.58043 0.5181,0.51801 -0.6813,1.27033 -3.1858,1.9984 -2.6786,0.77869 -10.6691,1.00032 -19.0243,0.52765 -2.9842,-0.16882 -3.0705,-0.13774 -3.75,1.34939 -0.4242,0.92862 -1.6703,2.07232 -3.1954,2.93297 -2.835,1.59983 -4.0148,1.78693 -4.4308,0.70271 -0.1599,-0.41663 -0.9028,-0.75 -1.6713,-0.75 -0.761,0 -2.6243,-0.59161 -4.1407,-1.31468 -3.4051,-1.6236 -3.961,-1.84785 -7.9951,-3.22514 -3.0878,-1.05424 -3.7363,-1.09008 -14,-0.77366 -5.9191,0.18248 -12.0559,0.46923 -13.6371,0.63721 l -2.875,0.30543 v 2.11081 c 0,3.04392 -0.8829,5.21159 -2.2639,5.55819 -2.0426,0.51267 -3.0798,-0.21497 -4.19,-2.93955 -2.1515,-5.28043 -1.9847,-5.12435 -5.3188,-4.97722 -1.6375,0.0723 -6.1636,0.11779 -10.0581,0.10116 -4.4285,-0.0189 -7.202,0.16597 -7.4045,0.4936 -0.178,0.28812 -0.7417,0.52385 -1.2525,0.52385 -0.5109,0 -1.0069,0.23404 -1.1022,0.52009 -0.1891,0.56724 -5.2322,-0.29475 -6.1857,-1.05729 -0.2891,-0.23122 -1.5844,-0.35803 -2.8785,-0.2818 -1.6982,0.10004 -2.7343,0.49189 -3.7243,1.40851 -1.4462,1.33909 -4.3547,2.91049 -5.3871,2.91049 -0.3366,0 -0.8921,0.3375 -1.2344,0.75 -0.3423,0.4125 -1.3548,0.75 -2.25,0.75 -0.8952,0 -1.9077,-0.3375 -2.25,-0.75 -0.3423,-0.4125 -1.2774,-0.75 -2.0778,-0.75 -0.8005,0 -2.5655,-0.5625 -3.9222,-1.25 -2.6473,-1.34148 -5.4271,-1.62293 -6.4018,-0.64819 -0.4273,0.42724 -2.7406,0.56386 -7.975,0.47096 -20.8225,-0.36952 -21.8293,-0.28145 -24.5371,2.14637 -1.0099,0.9054 -3.7486,2.57757 -6.0861,3.71593 -5.2795,2.57109 -9.9281,3.15603 -14.9154,1.87682 -5.0338,-1.29114 -10.2031,-1.07049 -15.5041,0.6618 -2.4803,0.81053 -6.0362,2.18741 -7.902,3.05974 -2.9727,1.38986 -3.7574,1.55296 -6.3433,1.31848 -1.623,-0.14716 -3.1948,-0.51155 -3.493,-0.80974 -0.2982,-0.2982 -0.8996,-0.54217 -1.3365,-0.54217 -0.4368,0 -1.6856,-0.45503 -2.775,-1.01117 -2.0922,-1.06807 -3.6562,-0.99031 -6.1394,0.30521 -0.7377,0.38489 -2.0538,0.70118 -2.9246,0.70288 -0.8709,0.001 -1.6688,0.25923 -1.7731,0.5723 -0.1382,0.41467 -0.6942,0.38681 -2.0477,-0.10263 -1.7227,-0.62295 -1.9112,-0.59589 -2.5889,0.37174 -0.4518,0.64495 -1.9766,1.38075 -3.9919,1.92625 -2.7969,0.7571 -3.755,0.80107 -6.7343,0.30905 -1.9104,-0.3155 -5.1176,-0.57989 -7.1271,-0.58754 -3.267,-0.0124 -3.8616,-0.1712 -5.6178,-1.5 -1.0802,-0.81735 -2.2152,-1.48609 -2.5221,-1.48609 -0.3069,0 -1.515,0.89237 -2.6847,1.98306 -2.118,1.97506 -4.5889,3.00885 -7.20412,3.01415 l -1.375,0.003 v 9.22049 c 0,5.84792 -0.19033,9.33812 -0.52034,9.54208 -0.28619,0.17687 -0.38353,0.75265 -0.21631,1.27951 0.16722,0.52685 0.0777,0.95792 -0.19902,0.95792 -0.27668,0 -0.64563,1.06875 -0.81988,2.375 -0.29033,2.17643 -0.69355,3.66522 -1.7266,6.375 -0.20968,0.55 -0.78128,2.2375 -1.27023,3.75 -1.46942,4.54549 -3.58201,8.15197 -8.99762,15.36019 -3.26469,4.34532 -7.47004,7.70737 -12.25,9.79349 -5.28778,2.30775 -6.74481,2.48863 -21,2.60691 -7.5625,0.0628 -14.875,0.0331 -16.25,-0.0658 z m 1.525,-2.14288 c 0.28018,-0.2643 1.80793,-0.24778 3.725,0.0403 1.79081,0.26908 6.16837,0.34322 9.75,0.16511 3.575,-0.17777 6.95,-0.28505 7.5,-0.2384 1.88897,0.16024 3.00674,0.11132 6.25,-0.27352 4.06946,-0.48287 12.46795,-4.71336 15.62544,-7.87085 1.98346,-1.98346 2.97066,-3.24715 6.93283,-8.87456 2.16139,-3.06979 5.92835,-11.25076 6.44634,-14 0.23317,-1.2375 0.66963,-3.15 0.96992,-4.25 0.80392,-2.94484 1.69548,-10.02952 1.73035,-13.75 0.0472,-5.03495 -0.4987,-13.76188 -0.90161,-14.4138 -0.53505,-0.86573 -3.3358,-0.71175 -4.3889,0.2413 -0.54708,0.4951 -0.91437,0.59552 -0.91437,0.25 0,-0.71539 -1.7382,-0.75279 -3.02324,-0.0651 -0.90201,0.48274 -3.01414,0.78802 -13.62674,1.96956 -2.41999,0.26942 -4.55749,0.58701 -4.75,0.70575 -0.19251,0.11874 -2.60002,0.48376 -5.35002,0.81116 -2.75,0.32739 -5.88962,0.90106 -6.97693,1.27481 -1.36304,0.46853 -2.16824,0.52077 -2.59304,0.16822 -0.42101,-0.34941 -0.93248,-0.34201 -1.6152,0.0234 -0.5495,0.29408 -1.85763,0.5426 -2.90696,0.55226 -1.04933,0.01 -3.37037,0.35588 -5.15787,0.76938 -1.7875,0.4135 -4.57215,0.86425 -6.1881,1.00166 -1.61595,0.13742 -4.78373,0.68019 -7.0395,1.20617 -2.25577,0.52598 -4.56448,0.83522 -5.13047,0.68721 -0.56599,-0.14801 -1.18025,-0.0245 -1.36501,0.27445 -0.18477,0.29896 -1.20938,0.54356 -2.27692,0.54356 -1.06754,0 -2.06699,0.20387 -2.22099,0.45306 -0.15401,0.24918 -0.72978,0.33544 -1.27951,0.19168 -0.54973,-0.14375 -0.9995,-0.0454 -0.9995,0.21843 0,0.2639 -2.19375,0.86495 -4.875,1.33568 -2.68125,0.47073 -5.6625,1.05671 -6.625,1.30217 -3.57073,0.91063 -8.41485,2.02037 -14.25,3.26451 -6.79769,1.44938 -14.41836,3.35731 -17.75,4.44393 -1.2375,0.40361 -3.9375,1.2337 -6,1.84465 -4.78103,1.41623 -6.3632,2.19077 -8.375,4.09995 -1.32459,1.25701 -1.625,1.92573 -1.625,3.6172 0,2.89954 2.57465,7.72874 4.12051,7.72874 0.24542,0 1.18368,0.5625 2.08504,1.25 0.90136,0.6875 2.00017,1.25 2.4418,1.25 0.44162,0 0.98289,0.28125 1.2028,0.625 0.77949,1.21842 3.67274,2.68644 10.06244,5.10565 2.56442,0.97092 5.14574,2.10371 5.73625,2.51733 0.59051,0.41361 1.41735,0.75202 1.83741,0.75202 0.42006,0 2.56375,0.89163 4.76375,1.9814 2.2,1.08978 6.3625,2.68036 9.25,3.53463 2.8875,0.85427 6.0375,1.78564 7,2.06972 0.9625,0.28407 2.65,0.6313 3.75,0.77161 1.1,0.14031 2.225,0.42643 2.5,0.6358 0.275,0.20938 1.625,0.5239 3,0.69894 7.44263,0.94744 10.58034,1.54259 11.28937,2.14132 0.43415,0.36662 2.00915,0.68239 3.5,0.70172 1.49084,0.0194 3.16063,0.22851 3.71063,0.46486 1.34169,0.57654 2.4487,0.59555 3.025,0.0519 z m 66.5654,-62.67694 c 0.9087,-0.61875 1.5798,-1.35 1.4912,-1.625 -0.088,-0.275 -1.5494,-0.56699 -3.2463,-0.64886 L 998.5,708.70228 v 1.44053 c 0,0.79228 0.15,1.59052 0.33333,1.77385 0.68626,0.68626 2.91017,0.29562 4.50707,-0.79166 z m 28.8618,-1.41706 c 0.4324,-0.39431 -2.3858,-3.45794 -3.1809,-3.45794 -0.5464,0 -3.5213,2.92961 -3.5213,3.46768 0,0.25245 0.3937,0.55558 0.875,0.67364 1.2087,0.2965 5.2758,-0.18046 5.8272,-0.68338 z m -14.4327,0.0105 c 0.4292,-0.69456 -1.1887,-2.46849 -2.2514,-2.46849 -0.4548,0 -1.2637,0.32239 -1.7975,0.71642 -0.9277,0.68475 -0.8932,0.75019 0.7794,1.48043 2.1006,0.91706 2.833,0.97791 3.2695,0.27164 z m 47.1055,-1.74202 c 1.2493,-0.38995 0.5789,-1.59537 -1.3779,-2.47777 -1.1016,-0.49674 -2.2528,-1.20437 -2.5584,-1.57251 -0.689,-0.8302 -3.912,-0.40392 -6.4387,0.8516 -0.9625,0.47827 -2.0829,0.96614 -2.4898,1.08415 -1.1411,0.33098 1.4499,1.83654 4.0499,2.35331 1.9804,0.39361 7.2458,0.25098 8.8149,-0.23878 z m -41.4969,-0.60147 c 0.1344,-0.40924 -0.327,-0.625 -1.3364,-0.625 -1.0661,0 -1.5417,0.2416 -1.5417,0.78321 0,0.95282 2.5595,0.81212 2.8781,-0.15821 z m 21.513,-0.40761 c 1.7947,-0.75557 1.8244,-0.80816 0.8589,-1.5223 -0.6109,-0.45188 -1.4864,-0.61858 -2.25,-0.42843 -1.3358,0.3326 -3,1.61453 -3,2.31083 0,0.68143 2.3809,0.48618 4.3911,-0.3601 z m -39.0161,-1.00788 c 1.1422,-0.74375 1.4678,-2.12134 0.7055,-2.98451 -0.2307,-0.26125 -0.7022,-1.825 -1.0477,-3.475 -0.3455,-1.65 -0.8186,-3.48806 -1.0513,-4.08457 -0.2428,-0.62212 -0.2133,-1.84489 0.069,-2.86772 0.3321,-1.20258 0.3226,-2.10044 -0.029,-2.75769 -0.3529,-0.65949 -0.3599,-1.39976 -0.021,-2.28983 0.2751,-0.72341 0.5109,-2.25689 0.5241,-3.40774 0.047,-4.12 2.852,-7.35845 5.7442,-6.63255 0.8875,0.22275 1.3408,0.84474 1.7634,2.41995 0.3129,1.16608 0.7502,2.59087 0.9719,3.16619 0.2217,0.57533 0.212,1.35528 -0.022,1.73323 -0.2345,0.37947 -0.2303,0.92143 0.01,1.2103 0.2388,0.28771 0.5072,1.40286 0.5964,2.47812 0.2204,2.65507 1.2118,2.80362 2.2016,0.32986 1.0206,-2.5507 3.3313,-4.02904 6.8681,-4.39407 l 2.6755,-0.27614 2.0913,3.31133 c 1.1502,1.82123 2.3069,3.31133 2.5704,3.31133 0.2635,0 1.5123,-1.03319 2.775,-2.29597 2.8014,-2.8014 4.0483,-2.72252 6.8639,0.43425 1.5496,1.73733 1.9693,1.97875 2.3674,1.36172 0.2661,-0.4125 0.4872,-1.23294 0.4914,-1.82321 0.01,-1.11232 3.0643,-4.17679 4.1657,-4.17679 0.3428,0 1.8712,1.29375 3.3965,2.875 2.079,2.1553 3.1187,3.78245 4.1535,6.5 0.7592,1.99375 1.5614,3.625 1.7827,3.625 0.5778,0 1.0076,-1.33365 1.0203,-3.1659 0.039,-5.6109 5.8268,-10.03779 10.9242,-8.35547 1.7641,0.58218 2.0232,0.5244 4.3454,-0.96881 2.1551,-1.38579 2.7754,-1.55368 4.8733,-1.319 1.5549,0.17393 2.937,0.7175 3.9133,1.53904 1.8197,1.53116 2.3769,1.56442 4.5663,0.27262 2.8234,-1.66587 5.87,-1.82057 8.6372,-0.43859 2.4368,1.217 5.7293,4.90322 5.7293,6.41443 0,0.45899 -0.5686,2.01322 -1.2636,3.45384 -0.695,1.44063 -1.1158,2.85855 -0.935,3.15095 0.2078,0.33629 1.2692,0.41015 2.8886,0.20099 3.1446,-0.40613 3.6576,-0.40692 5.6108,-0.009 1.3625,0.27784 1.7418,0.0846 3.1233,-1.59152 0.8649,-1.04927 1.7053,-2.61518 1.8675,-3.47979 0.2528,-1.34766 0.028,-1.83121 -1.5751,-3.38809 -1.0284,-0.99882 -2.0699,-1.81605 -2.3143,-1.81605 -0.5161,0 -1.6174,-0.85516 -2.8124,-2.18373 -0.4619,-0.51355 -1.4519,-1.31705 -2.2,-1.78554 -1.81,-1.13262 -12.8906,-12.96212 -12.8906,-13.76059 0,-0.34427 -0.7875,-1.6573 -1.75,-2.91785 -0.9625,-1.26054 -1.75,-2.44177 -1.75,-2.62494 0,-0.18317 -0.5625,-0.77549 -1.25,-1.31628 -0.6875,-0.54079 -1.25,-1.31489 -1.25,-1.72023 0,-0.40534 -0.7677,-2.35776 -1.706,-4.33871 -2.4382,-5.14766 -3.5434,-8.112 -4.5119,-12.10173 -0.4673,-1.925 -1.0594,-4.31361 -1.3159,-5.30801 -0.2564,-0.99441 -0.4662,-2.38459 -0.4662,-3.08929 0,-0.7047 -0.3536,-1.63485 -0.7857,-2.06699 -0.4628,-0.46278 -0.5513,-0.78571 -0.2152,-0.78571 0.3137,0 0.4985,-0.48482 0.4107,-1.07737 -0.2792,-1.88241 -2.7668,-2.28732 -11.4098,-1.85716 -4.2625,0.21215 -14.1625,0.52112 -22,0.68661 -7.8375,0.16549 -15.7125,0.53792 -17.5,0.82762 -3.2812,0.53179 -4.4272,0.60896 -6.25,0.42086 -1.6472,-0.16997 -7.4,0.54394 -8.8755,1.10142 -0.9884,0.37347 -1.5706,0.35772 -2.0691,-0.056 -0.4082,-0.33876 -1.4883,-0.46011 -2.6245,-0.29485 -2.6703,0.38839 -12.08105,1.21047 -17.08573,1.49253 -2.28516,0.1288 -4.36641,0.36493 -4.625,0.52475 -0.61717,0.38143 -0.60851,3.58705 0.0107,3.96976 0.29605,0.18297 0.30832,0.7511 0.0319,1.4781 -0.24694,0.64949 -0.32276,1.3071 -0.1685,1.46136 0.15426,0.15426 0.46143,1.69615 0.68259,3.42641 1.12451,8.79754 1.46642,11.04111 1.94549,12.76619 0.28711,1.03386 0.52328,2.58345 0.52481,3.44353 10e-4,0.86007 0.32927,1.83472 0.72829,2.16588 0.39902,0.33116 0.86789,1.65246 1.04193,2.93622 0.17404,1.28377 0.95302,4.69662 1.73105,7.58412 0.77804,2.8875 2.237,8.4 3.24215,12.25 1.00514,3.85 1.94283,7.3375 2.08376,7.75 0.40644,1.18971 1.73285,8.03552 2.02259,10.43894 l 0.26389,2.18894 3.81948,-0.3429 c 2.1008,-0.1886 4.3259,-0.67256 4.9446,-1.07547 z m 31.3956,0.75722 c 0.4812,-0.77874 -0.073,-1.1334 -1.7706,-1.1334 -0.825,0 -1.635,0.13503 -1.8001,0.30007 -0.605,0.60499 0.3982,1.3666 1.8001,1.3666 0.7925,0 1.5893,-0.23997 1.7706,-0.53327 z m -10.2383,-4.08656 c 0.3139,-1.1659 0.4349,-3.11135 0.2688,-4.3232 -0.1661,-1.21186 -0.082,-2.46893 0.1877,-2.7935 0.4949,-0.59629 0.2715,-1.54608 -1.4442,-6.14159 -1.2052,-3.22784 -3.4121,-3.45293 -6.3746,-0.65015 -2.3168,2.19188 -3.3235,8.25775 -2.3491,14.15327 l 0.3099,1.875 h 4.4153 4.4154 z M 1070.5,704 c 0,-0.55556 -0.5833,-0.75 -2.25,-0.75 -3.4497,0 -2.8609,1.37585 0.625,1.46052 1.1287,0.0274 1.625,-0.1896 1.625,-0.71052 z m 31,-0.87943 c 2.3543,-1.06397 4.4796,-3.05764 3.889,-3.64823 -0.099,-0.0992 -2.1467,0.13803 -4.55,0.52709 -2.4034,0.38905 -4.697,0.58179 -5.097,0.42831 -0.4,-0.15349 -1.4043,0.29069 -2.2319,0.98705 -0.8276,0.69636 -1.9559,1.40932 -2.5074,1.58435 -1.0509,0.33353 -1.2579,0.81946 -0.6277,1.47318 0.7986,0.82841 8.3241,-0.086 11.125,-1.35175 z m -90.0287,-0.49557 c 1.2571,-1.98661 0.486,-14.8691 -0.9969,-16.65589 -0.364,-0.43859 -0.3636,-0.72856 0,-0.95411 0.8447,-0.52205 0.6044,-2.22075 -0.4785,-3.38315 -0.6392,-0.68603 -1.1765,-0.90266 -1.4817,-0.59738 -0.3814,0.3814 -1.6098,8.31238 -1.6209,10.46553 -0.01,1.94263 1.3346,8.14599 1.9052,8.78937 0.3851,0.43415 0.7001,1.2404 0.7001,1.79166 0,1.91213 0.9413,2.17186 1.9714,0.54397 z m 27.2461,0.13737 c 1.2133,-0.46128 1.7204,-1.90787 0.9418,-2.6865 -0.1874,-0.18743 -0.2847,-1.55072 -0.2162,-3.02953 0.1438,-3.10515 -0.6212,-6.40685 -1.6901,-7.29393 -0.4108,-0.34091 -1.2786,-0.47888 -1.9509,-0.31015 -2.3968,0.60157 -4.4483,7.45581 -3.5942,12.00854 0.3328,1.77427 0.3714,1.7992 2.7823,1.7992 1.3446,0 3.0219,-0.21943 3.7273,-0.48763 z m 12.4917,-0.31587 c 0.435,-0.16692 0.7909,-0.54295 0.7909,-0.83563 0,-0.29267 0.3599,-0.92982 0.7998,-1.41589 0.733,-0.81002 0.733,-0.97904 0,-2.02563 -0.4399,-0.62802 -0.7998,-1.61203 -0.7998,-2.18669 0,-0.94925 -1.0164,-3.52768 -2.6344,-6.68327 -0.9382,-1.82982 -2.187,-2.44231 -3.1059,-1.52338 -0.8766,0.87656 -1.2805,8.94491 -0.6071,12.12531 0.5061,2.39024 2.9924,3.52911 5.5565,2.54518 z m 6.3041,-3.67178 c -0.3016,-0.5636 -0.7655,-1.02472 -1.0308,-1.02472 -0.7915,0 -0.5473,2.18585 0.3926,3.51374 l 0.875,1.23626 0.1558,-1.35028 c 0.086,-0.74265 -0.091,-1.8114 -0.3926,-2.375 z M 1068.598,695.75 c -0.2363,-7.38742 -0.2789,-7.5 -2.8323,-7.5 -2.7609,0 -3.8314,0.98055 -4.9826,4.56395 -0.8599,2.67665 -0.8622,2.93993 -0.046,5.39595 l 0.8576,2.582 3.5779,-0.14595 3.5778,-0.14595 z m 11.2326,1.75 c 0.044,-1.375 0.3727,-3.93278 0.7299,-5.68394 l 0.6494,-3.18394 -1.6686,-1.49084 c -1.8259,-1.63149 -3.5497,-1.656 -5.948,-0.0846 -1.0881,0.71293 -1.1865,1.06256 -0.9847,3.49657 0.1545,1.86294 0.5615,3.06332 1.3079,3.85782 0.6309,0.67158 1.0835,1.80164 1.0835,2.70526 0,2.7349 0.4126,3.20062 2.6883,3.03432 L 1079.75,700 Z m 12.3512,1.27592 c 2.0445,-0.77729 3.8182,-3.8781 3.8182,-6.67486 0,-3.0125 -0.4955,-3.95463 -2.7928,-5.31006 -1.9765,-1.16616 -3.0418,-1.05455 -5.3322,0.55864 -1.0814,0.76164 -1.375,1.36693 -1.375,2.8344 0,1.02628 0.2195,2.08541 0.4877,2.35363 0.3169,0.3169 0.288,1.13816 -0.082,2.34524 -0.8413,2.74119 0.016,4.36709 2.3015,4.36709 0.9505,0 2.2893,-0.21334 2.9751,-0.47408 z m 68.3037,-0.86023 c 0.1296,-0.12104 -0.095,-0.43399 -0.5,-0.69546 -0.9659,-0.62429 -9.2355,-0.37378 -9.2355,0.27977 0,0.94031 8.7731,1.31491 9.7355,0.41569 z M 1206.5,697.25 c 0,-1 -0.25,-1.5 -0.75,-1.5 -0.7568,0 -1.0712,2.01215 -0.4167,2.66666 0.7168,0.71679 1.1667,0.26691 1.1667,-1.16666 z m 52.2812,0.44956 c 0.1871,-0.30273 -0.081,-0.95192 -0.5955,-1.44262 -0.7776,-0.7414 -2.14,-0.93619 -8.0607,-1.15248 -3.9188,-0.14316 -7.125,-0.18546 -7.125,-0.094 0,0.35565 3.361,1.88403 5.5,2.50106 2.822,0.81405 9.8152,0.94196 10.2812,0.18804 z m -138.4436,-1.20639 c 0.1711,-0.51952 -4.0779,-2.24317 -5.5297,-2.24317 -0.5671,0 -0.8079,0.45412 -0.8079,1.52386 v 1.52385 l 3.0853,-0.14885 c 1.6969,-0.0819 3.1605,-0.37694 3.2523,-0.65569 z M 1135,695.25 c 0,-0.275 -0.5758,-0.5 -1.2795,-0.5 -0.7257,0 -1.1458,0.21642 -0.9705,0.5 0.17,0.275 0.7457,0.5 1.2795,0.5 0.5338,0 0.9705,-0.225 0.9705,-0.5 z m 3.7276,-0.42956 c 0.3733,-1.176 -0.1441,-2.57044 -0.9536,-2.57044 -0.3405,0 -1.0447,0.47032 -1.5649,1.04516 -0.9281,1.02561 -0.9278,1.05834 0.018,1.75 1.3128,0.95999 2.1482,0.88491 2.5004,-0.22472 z m 15.1376,-0.65077 c 0.8884,-0.26992 1.8243,-0.36154 2.0799,-0.2036 0.9456,0.5844 2.1779,-0.4201 3.0708,-2.50309 1.0417,-2.43031 2.8055,-3.76023 3.295,-2.48454 0.3216,0.83813 1.4653,1.03825 1.9013,0.33271 0.1492,-0.24136 -0.5125,-1.26989 -1.4705,-2.2856 -0.9579,-1.01572 -1.7417,-2.07798 -1.7417,-2.36059 0,-0.28261 -0.3163,-1.22284 -0.7028,-2.0894 -0.3866,-0.86656 -1.1003,-2.70056 -1.5861,-4.07556 -0.4858,-1.375 -1.0406,-2.725 -1.2328,-3 -0.7512,-1.07467 -3.5885,-15.22465 -3.484,-17.375 0.1148,-2.36199 0.1275,-9.84422 0.018,-10.5 -0.1299,-0.77699 0.7747,-3.44601 2.128,-6.27831 1.7398,-3.6413 4.9256,-4.29502 6.294,-1.29156 0.2995,0.65718 0.747,1.19487 0.9945,1.19487 0.8432,0 2.1496,4.79414 3.0656,11.25 0.2731,1.925 0.7262,4.7375 1.0068,6.25 0.2807,1.5125 0.6285,4.325 0.7729,6.25 0.1445,1.925 0.745,5.975 1.3345,9 1.1772,6.04053 1.2866,9.80326 0.3794,13.04357 -0.7,2.50025 0.01,5.40248 1.5194,6.21027 0.5099,0.27288 2.7331,0.49616 4.9404,0.49616 3.4848,0 4.1477,-0.14413 5.0329,-1.09428 1.4357,-1.54107 1.2908,-2.64754 -0.9549,-7.29139 -1.0859,-2.24553 -2.128,-4.93363 -2.3158,-5.97355 -0.1878,-1.03993 -0.5228,-2.24351 -0.7444,-2.67462 -0.2217,-0.4311 -0.771,-2.9061 -1.2208,-5.5 -0.4497,-2.59389 -1.1769,-5.11349 -1.6159,-5.59911 -0.734,-0.8121 -0.7211,-0.93964 0.1616,-1.58929 0.8964,-0.65977 0.902,-0.72871 0.085,-1.04555 -0.7676,-0.29756 -0.875,-1.0949 -0.875,-6.49519 0,-4.24647 0.2158,-6.59506 0.6956,-7.5715 0.3826,-0.77854 1.0013,-2.42167 1.375,-3.65141 0.603,-1.98457 0.9522,-2.34866 3.1069,-3.23929 l 2.4275,-1.00341 1.2056,1.48929 c 0.663,0.81912 1.6087,1.9393 2.1015,2.4893 0.4928,0.55 1.4216,2.54068 2.064,4.42374 1.1646,3.41356 1.1673,3.48114 0.91,22.71172 l -0.2581,19.28798 1.1632,1.16328 c 0.751,0.75094 1.7523,1.16328 2.8248,1.16328 1.7438,0 3.884,-1.16487 3.884,-2.11398 0,-0.30651 0.3727,-0.96914 0.8283,-1.47251 0.7561,-0.83553 0.7607,-1.05667 0.053,-2.53937 -1.255,-2.62791 -1.7662,-4.0024 -2.2777,-6.12414 -0.2652,-1.1 -0.9596,-3.74017 -1.543,-5.86703 -0.5835,-2.12687 -1.0277,-4.60187 -0.9871,-5.5 0.041,-0.89814 -0.1059,-3.84021 -0.3256,-6.53795 -0.4475,-5.49727 0.2458,-11.98983 1.7188,-16.09502 0.7526,-2.09749 0.8288,-3.18427 0.4736,-6.75 -0.2329,-2.3375 -0.6266,-7.2875 -0.8748,-11 -0.2483,-3.7125 -0.477,-6.80573 -0.5083,-6.87385 -0.1475,-0.32138 -8.4131,0.52937 -9.1917,0.94607 -0.4872,0.26071 -1.1034,0.33952 -1.3694,0.17514 -0.266,-0.16439 -2.6801,-0.0601 -5.3646,0.23163 -2.6846,0.29178 -6.1186,0.6231 -7.6311,0.73627 -13.0959,0.97987 -11.6803,0.37098 -13.5314,5.82036 -0.6005,1.76791 -1.2892,3.42813 -1.5302,3.68938 -0.2411,0.26125 -0.4384,0.97922 -0.4384,1.59549 0,0.61627 -0.2284,1.26166 -0.5076,1.43419 -0.8383,0.51812 -1.7729,3.20766 -3.2172,9.25832 -0.7532,3.15535 -1.6056,6.36816 -1.8944,7.13959 -0.757,2.0224 -0.629,9.46388 0.1876,10.9063 0.4568,0.80705 0.6754,3.04511 0.6779,6.94111 0,6.08938 -0.4897,8.06672 -3.4933,13.99397 -3.5072,6.92118 0.8386,10.93958 9.1122,8.4257 z m -23.0342,-1.21474 c 1.5042,-0.43729 2.8567,-1.11229 3.0055,-1.5 0.1488,-0.38771 0.5277,-0.70994 0.842,-0.71605 0.3143,-0.006 1.0803,-0.40274 1.7021,-0.88139 l 1.1306,-0.87027 -2.2522,-3.49361 c -1.2388,-1.92149 -2.2538,-3.77792 -2.2556,-4.1254 0,-0.70214 -0.654,-1.97667 -2.3836,-4.67242 -0.6367,-0.99231 -1.3607,-2.90481 -1.6089,-4.25 -0.2482,-1.34518 -0.7979,-3.79579 -1.2217,-5.44579 -1.0044,-3.91077 -1.236,-16.93711 -0.3702,-20.81908 0.3458,-1.5505 1.0679,-3.21662 1.6048,-3.7025 0.5369,-0.48587 0.9762,-1.19161 0.9762,-1.56829 0,-0.95755 2.4578,-1.79112 4.2363,-1.43676 0.8174,0.16287 2.1881,0.9764 3.0459,1.80785 2.1924,2.12499 2.9607,1.16176 2.5164,-3.15497 -0.7916,-7.69033 -1.2528,-9.81657 -2.2448,-10.34746 -0.4607,-0.24657 -5.5493,-0.24525 -11.7521,0.003 -8.6658,0.34691 -11.1153,0.59696 -11.785,1.20304 -0.465,0.42082 -1.472,0.76512 -2.2378,0.76512 -1.2998,0 -1.3722,0.10812 -1.0893,1.625 0.1668,0.89375 0.4231,3.5375 0.5698,5.875 0.1466,2.3375 0.4007,4.5875 0.5646,5 0.164,0.4125 0.4983,3 0.7431,5.75 0.5522,6.20442 0.6668,7.18017 1.6448,14 1.6375,11.41998 1.7946,13.17918 1.7914,20.0625 0,9.42948 0.093,9.82367 2.6668,10.8138 2.7222,1.04711 8.6966,1.08574 12.1609,0.0786 z M 1199.5,693 c 0,-0.4125 -0.3375,-0.75 -0.75,-0.75 -0.7808,0 -0.992,0.59135 -0.4167,1.16666 0.5753,0.57532 1.1667,0.36412 1.1667,-0.41666 z m 32,0.0115 c 14.3972,-0.0278 18.665,-0.31492 19.2715,-1.29623 0.3959,-0.64063 -1.7068,-1.80344 -4.7715,-2.63866 -1.5125,-0.4122 -4.6625,-1.46675 -7,-2.34344 -2.3375,-0.87669 -5.7125,-2.05813 -7.5,-2.62543 -4.0351,-1.28063 -8.2692,-3.22721 -9.0401,-4.15611 -0.3203,-0.38589 -0.8265,-0.70163 -1.1249,-0.70163 -0.2985,0 -2.9853,-0.9231 -5.9708,-2.05133 -2.9855,-1.12823 -5.5312,-1.94831 -5.6571,-1.8224 -0.4039,0.40391 -0.4715,16.5884 -0.073,17.56232 0.345,0.84378 0.6986,0.89636 3.5,0.52052 1.714,-0.22995 9.9788,-0.43137 18.3663,-0.4476 z m 22.5,-0.24582 c 0,-0.26637 -0.3375,-0.3548 -0.75,-0.19651 -0.4125,0.1583 -0.75,0.37623 -0.75,0.48431 0,0.10808 0.3375,0.19651 0.75,0.19651 0.4125,0 0.75,-0.21794 0.75,-0.48431 z m -140.8212,-7.58903 c 0.5094,-4.87397 0.3805,-8.85868 -0.4679,-14.46358 -0.434,-2.86719 -0.8756,-6.67557 -0.9814,-8.46307 -0.1059,-1.7875 -0.4367,-4.2625 -0.7352,-5.5 -0.2986,-1.2375 -0.6625,-5.02926 -0.8088,-8.42612 -0.1463,-3.39687 -0.5662,-7.02723 -0.9332,-8.06748 -0.3997,-1.13265 -0.4853,-2.07341 -0.2135,-2.34519 0.2718,-0.27178 0.2217,-2.04986 -0.1248,-4.43253 l -0.5787,-3.97868 -3.1263,0.16583 -3.1264,0.16584 -0.3071,2.33416 c -1.24,9.42318 0.3674,31.01377 3.0774,41.33417 1.495,5.6934 2.1588,7.3085 4.0686,9.89964 1.0542,1.4302 2.186,3.10661 2.5152,3.72536 0.964,1.81216 1.4,1.3246 1.7421,-1.94835 z m 91.2353,1.34888 c 0.1942,-1.65425 -0.4241,-2.43218 -1.5805,-1.98843 -0.9704,0.37239 -1.0115,0.67977 -0.3305,2.47099 0.6265,1.64787 1.6924,1.37871 1.911,-0.48256 z m -63.8997,-4.8767 c 0.3547,-2.69304 0.5002,-9.26663 0.3816,-17.25 -0.1784,-12.01013 -0.2692,-13.08541 -1.3192,-15.60689 -1.2721,-3.05488 -3.2175,-5.60407 -4.7142,-6.1774 -1.3273,-0.50843 -2.9314,0.57238 -4.4302,2.98492 -1.1233,1.80824 -1.1777,2.29848 -1.1205,10.09487 0.053,7.2424 0.1617,8.25115 0.9341,8.68342 0.6824,0.38189 0.7309,0.5775 0.2211,0.89256 -0.4929,0.30465 -0.5137,0.57111 -0.085,1.0879 0.3124,0.37644 0.8898,2.13734 1.2831,3.91311 0.9304,4.20091 1.4939,5.69058 4.4943,11.88227 2.9762,6.14154 3.487,6.08233 4.3547,-0.50476 z m 26.1641,4.35726 c 0.6967,-1.81573 0.8503,-5.74873 0.3322,-8.50609 -0.3101,-1.65 -0.5447,-3.39375 -0.5213,-3.875 0.1386,-2.86256 0.045,-4.01377 -0.6221,-7.625 -0.4062,-2.2 -0.7514,-4.45 -0.7671,-5 -0.091,-3.1726 -0.815,-7.60345 -1.3489,-8.25 -0.3406,-0.4125 -0.7435,-2.02686 -0.8953,-3.58747 -0.3539,-3.6387 -2.0344,-7.55042 -3.1474,-7.32631 -0.4474,0.0901 -1.359,1.17628 -2.0259,2.41378 -1.1556,2.14453 -1.2047,2.60154 -1.047,9.75 0.1597,7.23451 0.8997,13.0575 1.8896,14.86821 0.2611,0.47752 0.4747,1.50877 0.4747,2.29167 0,0.7829 0.1524,1.57589 0.3388,1.76221 0.3648,0.36485 2.5541,6.34606 3.0069,8.21488 0.1515,0.62533 0.9232,1.83038 1.7149,2.67788 0.7917,0.84749 1.4394,1.85461 1.4394,2.23803 0,0.92551 0.8178,0.89304 1.1785,-0.0468 z m 18.2169,-4.72941 c 0.1387,-2.39695 0.4909,-4.22484 0.8754,-4.54397 0.5227,-0.43375 0.5113,-0.78703 -0.061,-1.88331 -0.8231,-1.57783 -0.9508,-7.15872 -0.1813,-7.92818 0.9818,-0.98186 1.1516,-5.77154 0.2786,-7.86091 -0.4441,-1.06284 -0.8127,-2.63621 -0.8192,-3.49637 -0.022,-2.87262 -1.9133,-8.87541 -3.2036,-10.16569 -1.863,-1.86304 -2.8528,-1.35401 -3.6007,1.85175 -0.7867,3.37223 -0.9098,16.30137 -0.1596,16.765 0.3593,0.22209 0.3428,0.54268 -0.053,1.01907 -0.4278,0.51552 -0.4341,1.10442 -0.024,2.28009 0.3039,0.87179 0.5526,2.20065 0.5526,2.95303 0,1.64755 1.2289,5.93458 2.5431,8.87118 0.5263,1.17611 0.9569,2.69486 0.9569,3.375 0,0.68015 0.2006,1.23663 0.4458,1.23663 0.2452,0 0.5951,0.59504 0.7777,1.32232 0.5918,2.35812 1.4251,0.46623 1.6719,-3.79564 z m 13.9829,-1.01881 c 0.8473,-2.71485 0.8054,-12.36143 -0.064,-14.82661 -0.3773,-1.06946 -0.8518,-2.954 -1.0544,-4.18787 -0.2026,-1.23386 -0.6571,-2.58089 -1.0101,-2.99339 -0.3529,-0.4125 -0.7995,-1.931 -0.9924,-3.37444 -1.0793,-8.07621 -2.605,2.08236 -1.7458,11.62444 0.7198,7.99453 1.2005,10.60271 2.1472,11.64873 0.4629,0.5115 0.8416,1.49354 0.8416,2.1823 0,1.21321 0.3537,1.91897 0.9616,1.91897 0.1622,0 0.5747,-0.89646 0.9167,-1.99213 z M 1104,680.30267 c 0,-0.52104 -0.4391,-2.37729 -0.9758,-4.125 -1.0352,-3.37141 -1.9714,-8.55012 -2.2917,-12.67767 -0.1066,-1.375 -0.4538,-4.1875 -0.7714,-6.25 -0.3176,-2.0625 -0.6752,-9.09375 -0.7946,-15.625 l -0.217,-11.875 -9.0998,0.0592 c -5.0048,0.0325 -9.7747,0.20533 -10.5997,0.38398 -1.373,0.29731 -1.4957,0.49336 -1.4497,2.31584 0.084,3.33992 1.089,9.33033 1.6605,9.90185 0.2966,0.29655 0.5392,0.98446 0.5392,1.5287 0,1.50073 1.9585,7.74274 3.3135,10.56048 0.6612,1.375 1.1986,2.77007 1.1943,3.10015 0,0.33009 0.3229,0.78525 0.7272,1.01146 0.4042,0.22622 1.5025,1.98115 2.4406,3.89985 0.9381,1.9187 2.4952,4.29571 3.4602,5.28225 0.9649,0.98655 2.1224,2.5053 2.5722,3.375 0.4497,0.86971 1.0369,1.58129 1.3048,1.58129 0.6485,0 1.7381,1.18268 4.7372,5.14205 2.4791,3.2729 4.25,4.27734 4.25,2.41062 z m 41.5,-3.55267 c 0,-0.275 -0.225,-0.5 -0.5,-0.5 -0.275,0 -0.5,0.225 -0.5,0.5 0,0.275 0.225,0.5 0.5,0.5 0.275,0 0.5,-0.225 0.5,-0.5 z m 60,-7.75 c 0,-6.26994 -0.067,-6.75 -0.9388,-6.75 -1.9204,0 -2.2518,1.1978 -1.6997,6.14329 0.2829,2.53369 0.7617,5.22546 1.0641,5.98171 1.1473,2.8701 1.5744,1.41218 1.5744,-5.375 z m -59.5,1.77951 c 0,-0.53377 -0.225,-1.10955 -0.5,-1.27951 -0.2836,-0.17526 -0.5,0.24481 -0.5,0.97049 0,0.70373 0.225,1.27951 0.5,1.27951 0.275,0 0.5,-0.43672 0.5,-0.97049 z m 64.5833,-2.41642 c 0.092,-0.2128 1.6292,-1.50655 3.4167,-2.875 1.7875,-1.36845 3.4299,-2.76934 3.6498,-3.11309 0.22,-0.34375 0.67,-0.63109 1,-0.63853 0.7407,-0.0167 4.3502,-3.31932 4.3502,-3.98036 0,-0.26424 0.6187,-0.80451 1.375,-1.20061 0.7562,-0.3961 2.1504,-1.52688 3.0981,-2.51284 0.9477,-0.98597 2.0164,-1.79266 2.375,-1.79266 0.3585,0 0.6522,-0.28125 0.6525,-0.625 3e-4,-0.34375 0.5936,-1.3 1.3183,-2.125 0.7248,-0.825 2.3033,-3.00785 3.508,-4.85078 1.2046,-1.84293 2.4114,-3.48746 2.6817,-3.65451 0.2702,-0.16705 0.4914,-0.75442 0.4914,-1.30527 0,-1.33506 1.5048,-5.88339 2.06,-6.22655 0.5789,-0.35778 0.5706,-5.57315 -0.01,-5.93163 -0.2472,-0.15277 -0.8228,-2.0223 -1.279,-4.15451 -0.9287,-4.33977 -2.1159,-7.00996 -3.2813,-7.37983 -0.4285,-0.13601 -3.1329,0.2237 -6.0097,0.79936 -2.8768,0.57566 -6.8277,1.1945 -8.7797,1.37519 -1.952,0.18069 -3.8645,0.58964 -4.25,0.90878 -0.6741,0.55807 -4.316,1.47527 -5.0633,1.27517 -0.1994,-0.0534 -3.1244,0.24272 -6.5,0.65799 -3.3757,0.41526 -6.8998,0.84386 -7.8313,0.95243 -0.9315,0.10857 -1.8993,0.49817 -2.1506,0.86578 -0.2514,0.36761 -0.3799,4.06871 -0.2858,8.22468 0.143,6.30829 0.3124,7.69741 1.0257,8.41071 0.5664,0.56641 0.8544,1.65618 0.8544,3.23298 0,1.80933 0.3611,2.92367 1.5087,4.65632 0.8298,1.25276 1.9333,3.8948 2.4522,5.8712 0.5189,1.9764 1.0761,3.72611 1.2382,3.88824 0.1621,0.16213 0.7076,-0.0788 1.2122,-0.53548 0.9625,-0.87102 2.4619,-1.06943 3.3827,-0.44762 0.7101,0.47956 1.5398,3.98851 1.9785,8.36735 0.1928,1.925 0.4487,3.66875 0.5686,3.875 0.2841,0.48885 1.0296,0.4817 1.2422,-0.0119 z M 1146,667 c 0,-0.4125 -0.225,-0.75 -0.5,-0.75 -0.275,0 -0.5,0.3375 -0.5,0.75 0,0.4125 0.225,0.75 0.5,0.75 0.275,0 0.5,-0.3375 0.5,-0.75 z m 59.075,-7.5 c 0,-0.26125 -0.2419,-0.55563 -0.5375,-0.65417 -0.2956,-0.0985 -0.5375,0.19583 -0.5375,0.65417 0,0.45833 0.2419,0.75271 0.5375,0.65416 0.2956,-0.0985 0.5375,-0.39291 0.5375,-0.65416 z m -57.3242,-15.50097 c 1.1341,-3.84947 2.3351,-7.67403 2.669,-8.49903 0.3338,-0.825 0.8607,-2.175 1.1708,-3 0.3101,-0.825 0.8314,-1.725 1.1585,-2 0.3271,-0.275 0.759,-1.37839 0.9599,-2.45197 l 0.3652,-1.95197 -4.1621,0.32397 c -2.2892,0.17819 -4.9496,0.32877 -5.9121,0.33463 -2.2636,0.0138 -3.3792,0.68024 -2.6485,1.58223 0.2954,0.36471 0.6605,2.23811 0.8112,4.16311 1.4011,17.89155 1.5455,18.87951 2.7276,18.65187 0.5592,-0.10771 1.4166,-2.25162 2.8605,-7.15284 z m -50.8758,-16.54147 c 1.1687,-0.14786 2.155,-0.5363 2.1917,-0.8632 0.037,-0.3269 0.119,-1.60686 0.1829,-2.84436 0.259,-5.0172 2.8967,-11.51017 4.6681,-11.49099 1.3703,0.0149 4.0194,3.70069 4.7922,6.66764 0.3943,1.51372 0.9792,3.24238 1.2998,3.84146 0.4216,0.78773 0.4317,1.24047 0.037,1.63557 -0.9459,0.94593 -0.6009,1.62347 1.0787,2.11792 1.6055,0.47267 14.4184,-0.30106 17.536,-1.05895 0.8356,-0.20311 1.8915,-0.0859 2.589,0.28735 0.7001,0.37471 1.7501,0.49025 2.5889,0.28488 0.7761,-0.19001 2.0112,-0.46715 2.7447,-0.61586 1.2978,-0.26311 1.3262,-0.34639 1.0569,-3.0947 -0.1522,-1.55338 -0.4867,-3.23246 -0.7433,-3.73128 -0.3105,-0.60351 -0.2672,-1.14721 0.1293,-1.625 0.4235,-0.51031 0.4336,-0.71804 0.035,-0.71804 -0.3087,0 -0.5612,-0.7425 -0.5612,-1.65 0,-0.9075 -0.21,-1.86375 -0.4666,-2.125 -0.2567,-0.26125 -0.6779,-1.9375 -0.9361,-3.725 -0.2582,-1.7875 -1.0868,-5.275 -1.8414,-7.75 -1.5909,-5.21846 -6.9828,-16.45043 -8.4815,-17.66782 -0.5634,-0.4577 -1.6893,-1.73218 -2.5018,-2.83218 -3.2642,-4.41866 -6.1602,-5.41825 -16.3171,-5.63211 -9.8081,-0.20653 -12.0517,0.45989 -16.3814,4.86591 -1.5533,1.58062 -3.2978,3.12138 -3.8767,3.42389 -1.3361,0.69814 -3.8107,5.59333 -5.2283,10.34231 -0.3283,1.1 -0.8163,2.5625 -1.0844,3.25 -1.7389,4.45965 -3.6073,27.07664 -2.4795,30.01346 l 0.4852,1.26347 8.6798,-0.15027 c 4.7739,-0.0827 9.636,-0.27124 10.8048,-0.4191 z m 10.7873,-0.53656 c 0.181,-0.18095 0.1291,-0.5747 -0.1152,-0.875 -0.2444,-0.3003 -0.5535,-1.671 -0.6871,-3.046 -0.46,-4.73799 -1.4771,-7.21114 -2.9783,-7.24235 -0.7756,-0.0162 -1.8227,3.60346 -2.1596,7.46558 l -0.3512,4.02677 h 2.9812 c 1.6397,0 3.1293,-0.14805 3.3102,-0.329 z m 63.8377,-3.9402 c 3.9875,-0.41092 8.0375,-0.81808 9,-0.90481 12.2483,-1.10368 12,-0.97832 12,-6.05801 0,-2.03993 0.1946,-3.82926 0.4325,-3.97628 0.2379,-0.14703 0.5519,-1.15741 0.6979,-2.24529 0.3835,-2.85944 2.1822,-6.08557 4.2891,-7.69293 1.0068,-0.76809 2.7052,-2.06184 3.7742,-2.875 1.0691,-0.81317 2.3179,-1.47848 2.775,-1.47848 0.4572,0 1.045,-0.19401 1.3063,-0.43113 1.7904,-1.62503 13.0116,-2.47302 15.5361,-1.17406 0.5164,0.26571 1.8157,0.86019 2.8873,1.32108 1.0717,0.46088 2.5342,1.36392 3.25,2.00674 0.7159,0.64283 2.2712,2.01897 3.4563,3.05809 2.0216,1.77257 4.3698,5.02426 6.1161,8.46928 0.5864,1.15674 1.1549,1.53781 2.4845,1.66523 2.1964,0.2105 9.8707,-1.80446 11.4371,-3.00291 0.6559,-0.50178 1.5888,-0.91232 2.0732,-0.91232 0.4844,0 2.5353,-0.69095 4.5576,-1.53545 2.0222,-0.84449 4.6348,-1.87874 5.8057,-2.29833 6.8055,-2.43871 11.8517,-5.69588 18.268,-11.79122 1.0855,-1.03125 2.1556,-1.875 2.378,-1.875 0.6212,0 3.1542,-3.96129 5.2687,-8.23956 1.7017,-3.44332 1.8991,-4.23644 1.8493,-7.43254 -0.031,-1.96785 0.1625,-3.84152 0.4294,-4.16372 0.3142,-0.37948 0.3085,-0.90782 -0.016,-1.5 -0.2757,-0.5028 -0.6303,-1.70168 -0.7879,-2.66418 -0.2745,-1.67672 -1.2381,-3.36813 -4.5181,-7.93008 -1.7615,-2.44992 -9.1467,-7.28788 -12.3602,-8.09702 -1.1769,-0.29633 -3.0398,-0.77152 -4.1398,-1.05599 -1.1,-0.28447 -4.475,-0.74013 -7.5,-1.01257 -3.025,-0.27245 -5.9648,-0.71571 -6.5329,-0.98504 -0.5819,-0.27589 -3.2014,-0.37727 -6,-0.2322 -15.4211,0.79935 -30.4614,3.89144 -37.4309,7.69531 -1.6301,0.88967 -3.2613,1.61759 -3.625,1.61759 -0.3637,0 -0.6612,0.21895 -0.6612,0.48656 0,0.26761 -1.7438,1.52341 -3.875,2.79066 -5.624,3.34406 -7.0841,4.3941 -7.1057,5.11015 -0.011,0.35056 -0.5256,0.83297 -1.1443,1.07202 -0.6188,0.23906 -2.5875,1.96978 -4.375,3.84605 -1.7875,1.87627 -4.2063,4.34602 -5.375,5.48833 -1.1688,1.14232 -2.125,2.29616 -2.125,2.56409 0,0.26793 -0.4478,0.89242 -0.9952,1.38775 -1.19,1.07702 -5.5919,7.49223 -6.9501,10.12906 -0.5313,1.03143 -1.6903,2.66283 -2.5755,3.62533 -0.8853,0.9625 -2.2551,3.1 -3.0439,4.75 -0.7889,1.65 -2.2291,4.35 -3.2005,6 -0.9713,1.65 -2.3242,4.125 -3.0063,5.5 -0.6822,1.375 -1.6755,3.2875 -2.2074,4.25 -1.0246,1.85417 -4.0211,8.71636 -4.0211,9.2088 0,0.50734 5.9998,0.2949 13.5,-0.478 z m 29.6796,-3.48063 c 0.6294,-0.41241 2.7027,-0.85093 4.6074,-0.97449 4.2321,-0.27456 12.9414,-1.60356 14.8954,-2.27297 0.7879,-0.26991 1.5913,-0.39259 1.7854,-0.27263 0.3157,0.19516 4.746,-0.49339 10.2768,-1.59722 2.6352,-0.52591 2.7403,-1.45375 0.5699,-5.02676 -2.4295,-3.99925 -5.4336,-6.82328 -9.2919,-8.73476 -1.7999,-0.89174 -3.5699,-1.90259 -3.9333,-2.24634 -1.1794,-1.11563 -3.3846,-0.84434 -13.8393,1.70252 -1.65,0.40195 -3.8363,1.30564 -4.8584,2.00818 -1.8479,1.27007 -4.3916,5.46968 -4.3916,7.25038 0,0.48936 -0.4492,1.62644 -0.9981,2.52683 -0.7365,1.208 -0.9987,2.52169 -1,5.01209 v 3.375 h 2.5176 c 1.3955,0 3.0276,-0.33419 3.662,-0.74983 z"
         id="path29731"
         transform="scale(0.26458333)" />
      <path
         style="fill:#459cc7;fill-opacity:1;stroke-width:0.0625"
         d="m 1254.5417,733.42708 c -0.023,-0.0229 -0.042,-0.41217 -0.042,-0.86502 0,-0.78944 -0.01,-0.83877 -0.1872,-1.19788 -0.1373,-0.27488 -0.3617,-0.54159 -0.8434,-1.00236 -0.5383,-0.51487 -0.6924,-0.70491 -0.8568,-1.05623 -0.3379,-0.72215 -0.3053,-1.42549 0.087,-1.8721 0.226,-0.25746 0.4149,-0.36352 1.0035,-0.56375 0.4018,-0.13663 0.6851,-0.19909 2.3624,-0.52074 0.8922,-0.1711 1.4224,-0.34232 1.7523,-0.56589 0.3362,-0.22775 0.5495,-0.23545 0.9794,-0.0353 0.5319,0.2476 0.7105,0.25918 0.9456,0.0613 0.1108,-0.0933 0.2881,-0.34157 0.394,-0.55183 0.4373,-0.8685 0.7694,-1.15904 1.328,-1.16216 0.5252,-0.003 0.9097,0.31787 1.2347,1.02988 0.1218,0.267 0.1427,0.41715 0.1435,1.03125 9e-4,0.67983 -0.01,0.73529 -0.1786,1.02425 -0.1457,0.24784 -0.2401,0.32995 -0.5,0.43506 -0.4327,0.17496 -1.8323,0.89549 -2.433,1.25252 -0.9269,0.55091 -1.3438,0.73402 -1.6243,0.71339 -0.2323,-0.0171 -0.285,-0.0547 -0.5306,-0.37835 -0.1499,-0.19765 -0.3216,-0.35937 -0.3815,-0.35937 -0.06,0 -0.1814,0.0773 -0.27,0.17187 -0.3776,0.40301 -0.5589,1.02216 -0.6684,2.28377 -0.098,1.12443 -0.3849,1.61582 -1.1627,1.98922 -0.3876,0.18613 -0.481,0.20954 -0.552,0.13847 z"
         id="path29733"
         transform="scale(0.26458333)" />
      <path
         style="fill:#459cc7;fill-opacity:1;stroke-width:0.0625"
         d="m 1250.8955,735.81812 c -0.3713,-0.16712 -0.408,-0.46257 -0.079,-0.63293 0.3059,-0.15823 0.8036,-0.0947 0.9477,0.12104 0.2417,0.36207 -0.3836,0.73039 -0.8692,0.51189 z"
         id="path29735"
         transform="scale(0.26458333)" />
    </g>
  </g>
</svg>
