<?xml version="1.0" encoding="UTF-8" standalone="no"?>
<!-- Created with Inkscape (http://www.inkscape.org/) -->

<svg
   version="1.1"
   id="svg2"
   width="3400"
   height="1700"
   viewBox="0 0 3400 1700"
   sodipodi:docname="firma.svg"
   inkscape:version="1.2.2 (b0a8486541, 2022-12-01)"
   xmlns:inkscape="http://www.inkscape.org/namespaces/inkscape"
   xmlns:sodipodi="http://sodipodi.sourceforge.net/DTD/sodipodi-0.dtd"
   xmlns="http://www.w3.org/2000/svg"
   xmlns:svg="http://www.w3.org/2000/svg">
  <defs
     id="defs6" />
  <sodipodi:namedview
     id="namedview4"
     pagecolor="#505050"
     bordercolor="#ffffff"
     borderopacity="1"
     inkscape:showpageshadow="0"
     inkscape:pageopacity="0"
     inkscape:pagecheckerboard="1"
     inkscape:deskcolor="#505050"
     showgrid="false"
     inkscape:zoom="0.13160043"
     inkscape:cx="3100.2938"
     inkscape:cy="778.87284"
     inkscape:window-width="2512"
     inkscape:window-height="1011"
     inkscape:window-x="0"
     inkscape:window-y="0"
     inkscape:window-maximized="1"
     inkscape:current-layer="g8" />
  <g
     inkscape:groupmode="layer"
     inkscape:label="Image"
     id="g8">
    <path
       style="fill:#000000;stroke-width:1.33333"
       d="m 1728.0764,1668.0953 c -3.3443,-0.5156 -11.9083,-6.2508 -13.8192,-9.2545 -0.5904,-0.928 -2.4263,-3.0403 -4.0799,-4.6939 -3.3703,-3.3702 -9.0867,-13.8917 -11.392,-20.9678 -0.8363,-2.5667 -2.2221,-10.5695 -3.0797,-17.784 -1.8082,-15.2111 0.2017,-46.9764 3.711,-58.6515 1.1404,-3.7937 2.7096,-9.2979 3.4874,-12.2312 2.6672,-10.0611 9.456,-30.6732 13.9401,-42.3244 2.4676,-6.4117 4.4903,-12.1117 4.4948,-12.6667 0,-0.5549 0.9536,-2.8089 2.1091,-5.0089 1.1556,-2.2 3.606,-7.6 5.4453,-12 1.8393,-4.4 6.3777,-14 10.0853,-21.3333 10.3203,-20.4132 10.2503,-21.1599 -6.0529,-64.6667 -9.1023,-24.2905 -32.5543,-65.8291 -44.4552,-78.7396 -1.7269,-1.8735 -3.1399,-4.0093 -3.1399,-4.7464 0,-1.7303 -42.994,-44.0183 -50,-49.1789 -2.9333,-2.1608 -9.5333,-7.3736 -14.6666,-11.584 -14.7575,-12.1046 -16.8479,-13.6502 -25.4018,-18.7819 -4.4376,-2.6621 -9.1806,-6.0693 -10.54,-7.5715 -1.3593,-1.5021 -3.1285,-2.7336 -3.9316,-2.7368 -0.8029,0 -4.5797,-2.371 -8.3926,-5.262 -3.8131,-2.8908 -11.3131,-7.7144 -16.6667,-10.7189 -5.3537,-3.0046 -13.334,-7.7017 -17.734,-10.4381 -13.5961,-8.4554 -23.1967,-13.5752 -25.4559,-13.5752 -1.1896,0 -5.8486,1.7528 -10.3534,3.8952 -38.3474,18.2372 -65.9586,26.1341 -86.3986,24.7106 -8.6773,-0.6042 -26.0241,-6.5556 -35.6724,-12.2384 -9.6548,-5.6866 -26.5412,-21.6619 -29.2808,-27.7008 -0.998,-2.2 -2.3341,-4.9 -2.9689,-6 -0.6349,-1.1 -2.7025,-5.3 -4.5948,-9.3333 -1.8923,-4.0333 -4.0033,-8.3752 -4.6912,-9.6486 -0.6879,-1.2734 -1.2507,-3.2726 -1.2507,-4.4427 0,-1.1701 -1.459,-6.4282 -3.2424,-11.6848 -1.7833,-5.2565 -3.6514,-13.5903 -4.1513,-18.5196 -0.4999,-4.9292 -1.5908,-9.4686 -2.4243,-10.0874 -0.8334,-0.6189 -6.6153,-2.7919 -12.8486,-4.829 -6.2334,-2.0371 -12.5382,-4.4664 -14.0106,-5.3984 -1.4725,-0.9321 -13.7725,-5.4019 -27.3333,-9.9329 -13.5609,-4.5311 -25.8561,-8.7775 -27.3228,-9.4366 -1.4667,-0.6591 -7.1667,-2.481 -12.6667,-4.0488 -5.5,-1.5677 -11.8,-3.442 -14,-4.1649 -17.9677,-5.9048 -24.3474,-7.9516 -36,-11.5503 -7.3333,-2.2648 -18.1333,-5.6097 -24,-7.4332 -19.5142,-6.0654 -18.6076,-6.2007 -29.8616,4.457 -11.2553,10.6591 -15.6524,12.2712 -24.1721,8.8623 -5.0435,-2.0181 -5.4323,-2.0064 -6.2276,0.1861 -2.3379,6.4453 -23.05,32.7302 -36.7766,46.6718 -8.3524,8.4832 -10.1113,9.6667 -14.3665,9.6667 -8.5249,0 -11.3807,-6.2045 -9.1711,-19.9249 0.7447,-4.6243 1.1217,-8.6401 0.8377,-8.9241 -0.284,-0.284 -3.2272,3.5409 -6.5404,8.4996 -7.5711,11.3313 -38.26322,43.4217 -43.67282,45.6624 -3.27,1.3545 -4.85,1.3453 -8.213,-0.048 -4.3468,-1.8005 -8.6261,-9.2832 -7.2941,-12.7544 1.6766,-4.369 -1.9567,-1.2813 -6.0666,5.1556 -4.6907,7.3467 -16.5304,22.3829 -29.1343,37 -4.1101,4.7667 -12.8112,14.8802 -19.3358,22.4744 -13.9228,16.2054 -16.0604,17.8479 -21.7474,16.7106 -4.3474,-0.8695 -6.4357,-4.2263 -5.7141,-9.185 0.4796,-3.2958 9.6404,-21.8928 14.7779,-30 2.0912,-3.3 3.8493,-6.9454 3.907,-8.1009 0.058,-1.1555 1.5565,-3.4647 3.3309,-5.1317 1.7744,-1.6669 4.0063,-4.9215 4.9598,-7.2324 0.9535,-2.3109 4.0017,-7.9408 6.7739,-12.5109 2.7721,-4.57 5.0402,-8.6747 5.0402,-9.1214 0,-0.4467 2.3116,-4.2075 5.137,-8.3574 7.2854,-10.7007 18.8634,-28.7615 24.7655,-38.6321 8.4673,-14.1608 4.248,-10.7217 -6.5055,5.3024 -18.0156,26.8458 -39.8073,56.3071 -52.0637,70.3875 -3.6667,4.2123 -10.8667,12.6447 -16,18.7386 -15.3189,18.1855 -44.5448,42.7339 -59.4192,49.9095 -10.3157,4.9766 -25.6658,7.8566 -37.5428,7.0439 -9.0298,-0.6177 -11.6837,-1.4612 -21.58966,-6.8609 -11.2456,-6.13 -26.115,-18.2575 -26.115,-21.2994 0,-0.8787 -2.4835,-4.1822 -5.519,-7.3413 -3.0355,-3.159 -7.6855,-8.8889 -10.3333,-12.7331 -7.1766,-10.4189 -12.5305,-17.1829 -15.147,-19.136 -1.2837,-0.9582 -2.334,-2.363 -2.334,-3.1216 0,-0.7587 -3.2849,-5.337 -7.2998,-10.174 -4.0149,-4.8369 -8.2038,-10.6995 -9.3088,-13.0279 -1.1048,-2.3285 -2.9199,-4.9896 -4.0335,-5.9138 -1.1135,-0.9241 -2.0246,-2.4333 -2.0246,-3.3537 0,-0.9205 -0.8875,-2.4101 -1.9721,-3.3103 -1.6239,-1.3476 -2.7039,-0.8466 -6.1145,2.8368 -4.2732,4.6148 -6.5684,7.9144 -29.0812,41.8068 -7.3067,11 -14.983,22.3431 -17.0585,25.2068 -2.0755,2.8638 -4.5564,6.6138 -5.5131,8.3333 -0.9567,1.7196 -2.2662,3.1266 -2.9101,3.1266 -0.6439,0 -1.5046,1.05 -1.9126,2.3333 -0.408,1.2833 -2.1241,3.8333 -3.8136,5.6667 -1.6895,1.8333 -5.3175,6.7276 -8.0621,10.8761 -2.7447,4.1484 -5.8546,8.26 -6.9109,9.1367 -1.0564,0.8766 -5.2335,6.5729 -9.2825,12.6582 -7.5247,11.309 -10.9726,15.6468 -22.7397,28.6099 -3.6874,4.0621 -10.5441,12.1857 -15.2371,18.0524 -4.6931,5.8667 -13.3762,15.7667 -19.2958,22 -5.9195,6.2333 -14.9628,16.0396 -20.0962,21.7916 -10.7888,12.0891 -40.7862,41.8787 -46.6666,46.3433 -2.2,1.6703 -6.7658,5.4732 -10.1461,8.451 -13.2146,11.6409 -29.4699,22.1902 -51.1873,33.2197 -27.7759,14.1064 -51.8386,23.1089 -82.199,30.7528 -35.8378,9.0229 -58.1573,10.6428 -74.4141,5.4005 -3.3294,-1.0737 -10.8776,-3.3836 -16.7737,-5.133 -13.8634,-4.1138 -29.2192,-14.096 -39.3669,-25.5911 -6.1066,-6.9176 -8.6071,-11.1827 -11.9172,-20.3279 -2.3039,-6.3654 -4.7455,-14.5054 -5.4257,-18.0889 -1.5482,-8.1564 -1.4449,-40.3623 0.1609,-50.1513 0.6617,-4.0334 1.8854,-12.7334 2.7194,-19.3334 1.8454,-14.6033 7.0666,-36.5296 11.5461,-48.4869 1.8227,-4.8656 4.6843,-13.3464 6.359,-18.8464 2.8515,-9.3645 9.2013,-22.9667 14.3438,-30.7261 1.2367,-1.866 2.96,-5.466 3.8296,-8 0.8696,-2.534 2.9341,-6.4072 4.5877,-8.6072 1.6536,-2.2 4.5261,-7.0319 6.3833,-10.7376 1.8573,-3.7057 4.6046,-7.8486 6.1052,-9.2066 1.5005,-1.3581 2.7283,-3.1543 2.7283,-3.9917 0,-1.7376 9.5716,-16.6071 15.6201,-24.2658 2.229,-2.8224 7.519,-10.2317 11.7555,-16.465 4.2365,-6.2333 9.7102,-13.5851 12.1636,-16.3372 2.4534,-2.7521 4.4608,-5.541 4.4608,-6.1975 0,-1.6558 31.1821,-33.0962 39.3333,-39.6591 3.6667,-2.9522 9.056,-6.9663 11.9762,-8.9203 l 5.3095,-3.5526 -5.9762,0.027 c -3.2869,0.015 -16.1761,0.9314 -28.6428,2.0364 -74.7817,6.6283 -174.04379,6.2763 -195.33329,-0.6927 -4.0334,-1.3203 -10.333402,-2.8005 -14.000002,-3.2894 -15.4236,-2.0564 -32.1319,-10.0776 -36.8315,-17.6816 l -2.9723,-4.8093 3.6675,-2.9244 c 2.0172,-1.6084 8.573,-4.8091 14.5686,-7.1126 12.2304,-4.6988 42.454302,-13.5538 46.262302,-13.5538 1.3647,0 2.8101,-0.532 3.2119,-1.1822 0.4019,-0.6502 2.9873,-1.5793 5.7454,-2.0647 2.7581,-0.4854 8.91099,-2.151 13.67319,-3.7013 4.7621,-1.5504 14.6621,-4.1321 22,-5.7372 7.3378,-1.6051 25.6415,-5.9791 40.6749,-9.7202 45.893,-11.4204 51.0262,-12.604 60,-13.8344 4.7666,-0.6535 12.8666,-2.0702 18,-3.1482 19.2995,-4.053 30.4225,-6.0289 38.4199,-6.825 4.5357,-0.4515 9.2872,-1.3542 10.5588,-2.0061 1.2717,-0.6518 9.9717,-2.0747 19.3334,-3.162 9.3616,-1.0873 21.8212,-2.8403 27.6879,-3.8955 5.8666,-1.0552 15.1666,-2.5044 20.6666,-3.2204 5.5,-0.716 16,-2.2278 23.3334,-3.3596 7.3333,-1.131 21.4333,-2.7083 31.3333,-3.5044 9.9,-0.7962 23.7,-2.0482 30.6667,-2.7825 24.1449,-2.5446 51.7213,-3.1882 131.3333,-3.0653 51.4295,0.079 84.9998,0.681 94,1.6848 7.7,0.8588 25.7,2.1055 40,2.7706 l 25.99996,1.2092 3.5858,-4.2274 c 1.9721,-2.3251 4.8691,-6.7872 6.4377,-9.9158 1.5686,-3.1287 4.2076,-7.3287 5.8645,-9.3334 1.6569,-2.0047 5.2671,-7.5448 8.0227,-12.3115 2.7556,-4.7667 6.3348,-10.4667 7.9538,-12.6667 4.3124,-5.86 13.5022,-20.76252 18.2645,-29.61832 2.2819,-4.2432 6.4863,-11.15823 9.3433,-15.3666 2.8569,-4.20838 5.1944,-7.94419 5.1944,-8.3018 0,-1.047 11.69,-18.5132 13.9307,-20.81399 1.1252,-1.1554 2.726,-4.05203 3.5574,-6.43697 0.8314,-2.38494 4.7367,-9.21007 8.6784,-15.16695 3.9417,-5.95688 7.1668,-11.59642 7.1668,-12.5323 0,-0.93588 1.4114,-2.62641 3.1365,-3.75672 1.7251,-1.1303 4.2751,-4.27769 5.6667,-6.99417 2.3684,-4.62336 8.5565,-14.45499 21.1968,-33.67725 2.9333,-4.46078 5.9999,-9.3085 6.8145,-10.77271 0.8147,-1.4642 2.7361,-3.99789 4.2697,-5.6304 1.5337,-1.63252 3.7114,-5.177 4.8394,-7.87661 1.128,-2.69963 2.8785,-5.39144 3.8901,-5.98182 1.0117,-0.59037 3.2674,-3.67492 5.0128,-6.85454 1.7454,-3.17963 4.1792,-7.59379 5.4083,-9.80923 1.2292,-2.21544 3.409,-5.31392 4.8441,-6.88552 1.435,-1.57159 3.6638,-4.95744 4.9527,-7.52411 1.289,-2.56666 3.7592,-6.3627 5.4893,-8.43564 1.7302,-2.07292 3.15,-4.47292 3.1551,-5.33333 0.01,-0.8604 3.0801,-6.06436 6.8332,-11.56436 6.5988,-9.66999 6.7195,-10.01105 3.6574,-10.33493 -17.7992,-1.88264 -33.3186,-8.0246 -40.8715,-16.17532 -7.8619,-8.48422 -10.5909,-14.96108 -11.5828,-27.48975 -0.7661,-9.67588 -0.5422,-11.22399 2.4104,-16.66667 2.3172,-4.27149 5.033,-6.92027 9.4272,-9.19441 6.9287,-3.58586 8.6092,-3.07687 6.3334,1.91818 -0.8525,1.87094 -1.55,4.83806 -1.55,6.59362 0,1.75554 -0.6,3.56272 -1.3333,4.01594 -2.3992,1.48278 -1.5434,17.68522 1.259,23.8369 2.7896,6.12341 13.4768,15.49644 17.6693,15.49644 1.3699,0 4.4536,0.82017 6.8528,1.82261 8.2079,3.42947 26.3699,-1.63749 29.1978,-8.1458 0.8786,-2.02225 5.2782,-9.37681 9.7767,-16.34348 4.4985,-6.96666 11.64462,-18.36667 15.88002,-25.33333 4.2355,-6.96667 8.8337,-14.16667 10.2182,-16 1.3845,-1.83334 3.2296,-4.83334 4.1001,-6.66667 0.8705,-1.83333 2.812,-5.12827 4.3144,-7.32209 4.19,-6.11818 11.3974,-18.23282 11.4065,-19.17278 0,-0.46116 2.7448,-4.73846 6.0896,-9.50513 3.3448,-4.76667 7.6203,-11.06667 9.5011,-14 1.8808,-2.93333 7.1558,-11.03333 11.7223,-18 4.5665,-6.96667 10.5421,-16.86667 13.279,-22 2.737,-5.13333 9.1216,-14.77877 14.1881,-21.43431 5.0665,-6.65553 9.2118,-12.71254 9.2118,-13.46001 0,-0.74748 1.1846,-2.43117 2.6326,-3.74155 1.4479,-1.31037 3.034,-3.64729 3.5247,-5.19317 1.0779,-3.39592 23.542,-37.40513 31.1117,-47.10115 2.9758,-3.8116 5.9432,-8.3116 6.5944,-10 0.6511,-1.6884 2.8982,-5.29911 4.9935,-8.0238 2.0953,-2.72468 5.9097,-7.78053 8.4764,-11.23523 2.5667,-3.45468 5.2667,-6.92538 6,-7.71268 1.2939,-1.38902 13.24,-19.11696 15.9763,-23.70864 2.5422,-4.26608 25.1562,-36.2886 33.7682,-47.81754 2.4262,-3.2479 10.1379,-13.70526 17.1372,-23.23859 6.9994,-9.53333 15.6926,-20.63333 19.3184,-24.66667 3.6258,-4.03333 7.914,-8.96353 9.5294,-10.95598 1.6154,-1.99247 9.8081,-10.39247 18.206,-18.66667 8.3978,-8.27421 17.0978,-16.86669 19.3333,-19.09443 2.2355,-2.22773 6.4432,-5.80643 9.3505,-7.95265 2.9074,-2.14624 6.2476,-4.82355 7.423,-5.94959 2.1784,-2.08704 7.0581,-5.70025 25.2737,-18.71401 5.6456,-4.03334 15.7093,-11.68334 22.364,-17 6.6545,-5.3167 12.6755,-9.66671 13.3797,-9.66671 0.7043,0 2.005,-0.873 2.8906,-1.94 0.8854,-1.067 5.3089,-3.991 9.8298,-6.4977 4.521,-2.5068 15.1199,-8.410896 23.5532,-13.120396 33.2807,-18.5849 61.3731,-29.9723 69.9644,-28.3606 10.5092,1.9716 19.3144,16.2667 20.3526,33.0423 1.3672,22.089806 -4.8592,41.064446 -22.2624,67.843826 -5.0899,7.83212 -10.124,15.91852 -11.187,17.96976 -1.0628,2.05123 -3.5305,5.451 -5.4836,7.55504 -1.953,2.10403 -4.9976,6.11687 -6.7654,8.91743 -1.7679,2.80054 -7.3854,9.47906 -12.4832,14.84114 -5.0979,5.36208 -10.8547,12.08622 -12.7931,14.94252 -1.9383,2.85631 -4.5913,6.15631 -5.8955,7.33334 -1.3042,1.17702 -5.5149,6.19005 -9.3572,11.14005 -3.8422,4.95 -7.4937,9 -8.1145,9 -0.6208,0 -1.4723,1.08235 -1.8921,2.40523 -0.4199,1.32286 -3.0103,4.79042 -5.7566,7.70566 -2.7461,2.91524 -9.193,10.00463 -14.3264,15.75419 -5.1333,5.74956 -11.7333,12.97187 -14.6666,16.04957 -2.9334,3.07772 -9.2334,9.8816 -14,15.11976 -4.7667,5.23815 -16.4667,17.6227 -26,27.52122 -9.5334,9.8985 -19.6611,20.42288 -22.506,23.38749 -2.845,2.96461 -5.545,5.39387 -6,5.39833 -0.4551,0.004 -4.4182,4.35447 -8.8068,9.66667 -4.3887,5.3122 -10.9012,12.24424 -14.4722,15.40452 -3.5709,3.16028 -8.9116,8.56028 -11.8678,12 -5.8196,6.77103 -42.6962,45.6124 -71.7639,75.58736 -9.9559,10.26667 -24.66,25.47852 -32.6759,33.80412 -8.0157,8.3256 -22.0741,21.80818 -31.2408,29.96128 -9.1666,8.1531 -19.5082,17.48263 -22.9812,20.7323 -3.4729,3.24966 -8.1229,7.00826 -10.3333,8.35246 -2.2103,1.34419 -4.0188,3.04066 -4.0188,3.76994 0,0.72928 -2.8627,2.9881 -6.3616,5.0196 -3.4988,2.0315 -12.1346,7.74364 -19.1907,12.69364 -7.056,4.95 -13.1195,9 -13.4744,9 -0.3548,0 -6.869,3.47195 -14.4759,7.71543 -7.6069,4.24349 -17.8807,9.477 -22.8307,11.63004 -4.95,2.15302 -9,4.38108 -9,4.95122 0,0.57016 -1.1245,1.03664 -2.4988,1.03664 -4.0251,0 -14.92812,6.73914 -16.16462,9.99132 -0.6249,1.64356 -2.5313,4.49826 -4.2364,6.34376 -8.5436,9.24698 -21.3812,27.98998 -39.4964,57.66492 -4.4766,7.33334 -9.9879,16.03334 -12.2474,19.33334 -2.2594,3.3 -6.4572,9.6 -9.3285,14 -2.8712,4.4 -7.0306,10.4 -9.2431,13.33333 -2.2124,2.93333 -5.275,7.61993 -6.8056,10.41468 -1.5307,2.79475 -5.0022,8.42567 -7.7145,12.51317 -2.7123,4.0875 -5.5299,8.4009 -6.2614,9.58532 -0.7315,1.18442 -2.5889,3.9535 -4.1277,6.1535 -1.5387,2.2 -7,10.9 -12.1361,19.33333 -11.0886,18.20718 -13.9927,22.84326 -21.1437,33.75431 -2.9723,4.53513 -8.5875,13.64569 -12.4783,20.24571 -9.6895,16.43622 -14.3914,23.87002 -21.6568,34.23932 -3.4132,4.8714 -6.6495,10.2605 -7.1918,11.9756 -0.5423,1.7151 -2.4674,5.0639 -4.278,7.4416 -6.0685,7.9694 -17.7595,28.7761 -16.7027,29.7262 0.9542,0.8579 5.7661,1.5272 38.3784,5.338 19.9336,2.3293 55.9428,8.1332 72.6667,11.7124 21.3061,4.5598 40.9756,4.44 69.7951,-0.4249 10.8874,-1.8378 24.0067,-3.3415 29.15412,-3.3415 9.2876,0 9.3993,-0.043 14.6752,-5.6667 2.924,-3.1167 7.9432,-9.5667 11.1537,-14.3333 3.2105,-4.7667 7.531,-11.0667 9.6011,-14 2.07,-2.9334 4.6711,-7.1334 5.7803,-9.3334 1.1091,-2.2 2.6298,-5.2 3.3792,-6.6666 5.642,-11.0417 8.4613,-17.795 8.4613,-20.2677 0,-7.4271 6.0454,-13.55362 9.7342,-9.8648 3.3548,3.3548 5.6009,1.9028 12.1706,-7.86762 1.7258,-2.5666 5.0033,-6.7247 7.2832,-9.2401 2.2799,-2.51541 4.1453,-5.35157 4.1453,-6.3026 0,-0.95101 1.5259,-2.7289 3.3909,-3.95088 1.8649,-1.22196 4.1149,-3.5771 4.9999,-5.23364 4.1687,-7.80234 57.7052,-64.60607 60.8903,-64.60607 3.3077,0 1.6845,5.2278 -3.312,10.66667 -3.0316,3.3 -9.0908,9.9 -13.4648,14.66667 -9.5531,10.41081 -21.4796,25.43516 -25.7205,32.40143 -1.697,2.78744 -4.5482,6.02654 -6.336,7.198 -1.7879,1.17144 -4.0684,3.6908 -5.0679,5.59857 -0.9995,1.90776 -3.5853,5.26867 -5.7463,7.46867 -2.161,2.19998 -4.3698,5.49998 -4.9085,7.33328 -0.5386,1.8334 -2.7266,5.1334 -4.8622,7.3334 -4.1598,4.28542 -15.8543,21.18442 -15.8758,22.94102 -0.01,0.5825 -1.9571,3.5605 -4.3333,6.6179 -3.6448,4.6895 -15.0185,23.1807 -22.2897,36.238 -1.0831,1.945 -3.4223,5.7973 -5.1981,8.5606 -1.7758,2.7633 -2.891,5.3619 -2.4782,5.7747 1.8635,1.8635 6.4976,-2.9459 13.8739,-14.3988 9.5696,-14.8583 10.4212,-16.3139 25.4493,-43.4974 5.5565,-10.051 8.8654,-11.8454 16.8577,-9.1415 4.0825,1.3812 5.352,2.4631 5.0192,4.2776 -0.7503,4.0905 -8.2609,19.1353 -11.4767,22.9894 -1.6698,2.0012 -4.1038,5.7385 -5.4088,8.3052 -1.3051,2.5666 -3.6656,5.9745 -5.2456,7.5731 -1.58,1.5985 -3.6697,4.5985 -4.6438,6.6666 -0.9741,2.0681 -2.5981,5.3528 -3.6087,7.2993 -3.0572,5.888 -2.4497,8.2641 1.8291,7.153 2.0166,-0.5237 7.4785,-1.3436 12.1375,-1.8221 8.4671,-0.8696 8.4725,-0.8728 12.3882,-7.5366 2.1545,-3.6667 5.1069,-9.3667 6.5608,-12.6667 1.454,-3.3 3.6116,-7.8 4.7948,-10 1.1832,-2.2 4.6189,-8.7144 7.6349,-14.4764 3.0162,-5.762 7.9464,-13.262 10.9564,-16.6666 3.0099,-3.4047 6.4292,-8.0512 7.5984,-10.3257 3.1962,-6.21692 7.8118,-8.78202 12.7223,-7.07022 2.1961,0.7656 4.3355,2.2847 4.7541,3.3759 1.1628,3.03022 -5.4498,14.93342 -17.8418,32.11642 -5.8679,8.1364 -19.8656,31.8283 -21.8051,36.906 -0.9099,2.3823 -0.3748,2.4835 9.4007,1.7778 10.8476,-0.7831 18.7566,-3.7432 19.9066,-7.4504 0.673,-2.1692 7.212,-15.3236 13.3488,-26.8534 1.7566,-3.3 5.5322,-9.6 8.3903,-14.0001 2.8581,-4.4 6.4145,-10.5702 7.9031,-13.7116 4.1293,-8.71432 14.7273,-12.37772 20.1422,-6.96272 2.5623,2.56222 2.5775,2.86542 0.4192,8.33332 -1.2318,3.1209 -3.2365,7.1744 -4.4548,9.0077 -6.411,9.6472 -10.2673,16.0234 -13.5058,22.3315 -1.976,3.849 -5.4358,9.7291 -7.6884,13.0669 -5.4304,8.0462 -5.4116,10.5315 0.071,9.435 2.2918,-0.4584 7.044,-0.8334 10.5607,-0.8334 h 6.394 l 4.8829,-10.3333 c 11.6155,-24.581 20.9963,-42.9506 22.6228,-44.3005 0.964,-0.8 2.5068,-3.3847 3.4287,-5.7437 2.0085,-5.14062 9.7236,-12.78522 14.6287,-14.49512 2.2392,-0.7806 4.837,-0.7364 7.0913,0.1206 2.91,1.1064 3.5576,2.1937 3.5576,5.9736 0,2.5416 -0.6091,4.9974 -1.3536,5.4575 -0.7444,0.4601 -2.2711,2.7455 -3.3925,5.07872 -1.1215,2.3332 -3.6624,7.068 -5.6464,10.5219 -1.9842,3.4538 -7.9115,14.2538 -13.1719,24 l -9.5643,17.7203 6.0012,0.4106 c 3.3723,0.2307 6.8611,-0.3029 7.9638,-1.218 2.2156,-1.8388 7.1637,-12.0979 7.1637,-14.8528 0,-0.9936 0.6332,-2.4396 1.4071,-3.2135 0.7738,-0.7739 2.4238,-3.2424 3.6666,-5.4855 1.2428,-2.2432 3.6662,-6.617 5.3852,-9.7195 1.7192,-3.1025 6.0692,-9.6879 9.6667,-14.6341 3.5976,-4.9462 6.5411,-9.44612 6.5411,-9.99982 0,-0.5537 1.2542,-2.2699 2.7872,-3.8138 1.533,-1.5438 5.7181,-6.707 9.3004,-11.47362 3.5821,-4.76667 7.7734,-10.3167 9.3141,-12.3334 1.5407,-2.0167 4.2399,-4.02782 5.9983,-4.46914 3.8332,-0.96209 15.2666,4.16866 15.2666,6.85092 0,2.49014 -6.2108,13.96124 -9.393,17.34864 -1.4339,1.5261 -2.607,3.4127 -2.607,4.1923 0,0.7796 -0.9625,2.2163 -2.1389,3.1926 -1.1764,0.9763 -2.6884,2.9998 -3.3601,4.4966 -0.6716,1.49682 -3.0058,5.42152 -5.1868,8.72152 -2.1811,3.3 -5.7936,9.8607 -8.0279,14.5794 -2.2343,4.7187 -5.2376,9.4027 -6.6743,10.4089 -1.4365,1.0063 -2.612,3.0589 -2.612,4.5615 0,1.5025 -1.5,4.5145 -3.3333,6.6933 -4.3464,5.1655 -4.204,6.4235 0.7273,6.4235 4.0288,0 10.606,-4.9534 10.606,-7.9877 0,-0.7933 2.9864,-5.4705 6.6366,-10.3939 10.77,-14.5271 11.1896,-15.1316 18.5706,-26.7623 3.8896,-6.12922 8.5118,-14.28842 10.2712,-18.13152 1.7595,-3.8432 4.3966,-8.07142 5.8603,-9.39606 1.4637,-1.32466 2.6613,-3.49511 2.6613,-4.82324 0,-1.32814 0.9988,-4.50915 2.2195,-7.06894 2.7149,-5.69325 7.4824,-7.09901 14.3475,-4.23056 4.3442,1.81511 4.7532,2.40683 3.9685,5.74227 -0.9629,4.09335 -6.2489,14.60977 -10.7681,21.42293 -1.5946,2.4041 -4.1567,6.9041 -5.6936,10 -1.5368,3.09602 -4.5711,8.02902 -6.7427,10.96242 -2.1716,2.9333 -4.962,7.4333 -6.2009,10 -11.8808,24.6135 -11.632,26.2768 3.6712,24.5454 8.1076,-0.9173 9.7992,-2.0696 21.4325,-14.6002 2.6952,-2.9032 5.9952,-6.2667 7.3333,-7.4744 1.338,-1.2078 3.9328,-4.0719 5.7662,-6.3647 7.4334,-9.2964 17.1677,-18.76202 19.5105,-18.97212 5.9527,-0.5337 7.1561,0.1608 7.1561,4.13012 0,3.9567 -7.7058,14.4234 -17.1677,23.3187 -2.2911,2.1538 -4.1656,4.4746 -4.1656,5.1573 0,0.6826 -1.8,3.2913 -4,5.7969 -4.9929,5.6866 -4.9963,6.6808 -0.025,7.4104 3.0482,0.4474 4.7885,-0.2653 7.4622,-3.0561 3.477,-3.6291 11.7196,-6.5199 18.8196,-6.6004 2.0587,-0.023 4.7074,-0.7769 5.886,-1.6745 1.1787,-0.8977 6.7775,-10.6286 12.4418,-21.6243 5.6642,-10.99572 11.3508,-21.19212 12.6369,-22.65882 1.2861,-1.4667 3.6516,-5.811 5.2567,-9.65411 1.605,-3.84309 4.254,-8.99892 5.8865,-11.4574 1.6327,-2.45847 4.4684,-7.00311 6.3017,-10.09917 1.8334,-3.09607 5.5855,-9.04024 8.3382,-13.20927 2.7526,-4.16903 4.7625,-8.22309 4.4664,-9.00907 -0.2962,-0.78596 0.5441,-2.10514 1.8674,-2.93152 1.3232,-0.82637 3.7727,-4.23926 5.4432,-7.58418 1.6706,-3.34492 4.128,-7.06873 5.4611,-8.27513 1.3331,-1.2064 2.4237,-2.86374 2.4237,-3.683 0,-0.81926 1.65,-3.57626 3.6667,-6.12669 2.0167,-2.55041 5.4667,-8.12695 7.6667,-12.39231 2.2,-4.26534 5.95,-10.06073 8.3333,-12.87861 2.3833,-2.81789 4.3333,-5.77805 4.3333,-6.57815 0,-0.80009 0.4804,-1.45472 1.0676,-1.45472 0.5872,0 2.4135,-2.55 4.0582,-5.66666 2.6665,-5.05271 8.6093,-14.08904 14.2493,-21.66667 8.0037,-10.75352 11.3751,-15.62229 13.0849,-18.89669 1.0827,-2.07348 3.8222,-5.53223 6.0876,-7.6861 2.2655,-2.15386 4.1191,-4.5976 4.1191,-5.43052 0,-1.54002 11.3321,-17.2221 21.1871,-29.32002 2.9868,-3.66667 5.9897,-7.86667 6.6732,-9.33334 0.6834,-1.46666 4.7444,-6.66794 9.0245,-11.5584 4.28,-4.89045 9.2819,-11.08457 11.1152,-13.76472 1.8333,-2.68013 4.3433,-5.8862 5.5777,-7.12457 2.518,-2.52599 8.4562,-11.03879 9.2427,-13.2502 0.2821,-0.79313 4.8629,-5.96359 10.1796,-11.48989 5.3167,-5.52631 9.6667,-10.59413 9.6667,-11.26181 0,-0.66769 3.15,-4.83454 7,-9.25969 3.85,-4.42513 8.4754,-9.75084 10.2788,-11.83488 1.8033,-2.08404 5.4332,-6.61307 8.0662,-10.06451 5.6454,-7.39977 30.1566,-34.8263 41.9883,-46.98218 8.4271,-8.6579 30,-32.4177 30,-33.04107 0,-0.35959 2.85,-3.5976 6.3333,-7.19557 3.4834,-3.59798 16.2334,-16.99328 28.3334,-29.76735 26.6934,-28.18055 53.4116,-55.78292 57.502,-59.40516 1.6562,-1.46667 7.5458,-7.42244 13.088,-13.23506 5.5421,-5.81262 11.2608,-11.51262 12.7081,-12.66666 1.4472,-1.15406 6.8753,-6.29828 12.0624,-11.43162 22.0461,-21.8179 38.1776,-36.76264 51.3061,-47.53182 7.7,-6.31623 15.5,-13.129 17.3334,-15.1395 1.8333,-2.01049 8.7333,-7.99669 15.3333,-13.30268 6.6,-5.30598 13.8195,-11.38246 16.0432,-13.50328 2.2237,-2.12082 7.6237,-6.76038 12,-10.31013 4.3763,-3.54976 10.9568,-9.04211 14.6235,-12.20524 10.7589,-9.2814 23.0565,-19.52432 32.0246,-26.67401 4.5994,-3.66667 13.0754,-10.79452 18.8355,-15.83967 5.7603,-5.04516 12.0199,-10.14516 13.9101,-11.33334 1.8904,-1.18818 6.3904,-4.68314 10,-7.7666 10.5372,-9.00097 23.5795,-19.0604 24.7124,-19.0604 0.5751,0 4.6175,-2.97261 8.9832,-6.6058 12.4506,-10.36138 36.0656,-24.80223 51.8119,-31.68353 7.9139,-3.4584 17.3889,-8.131 21.0556,-10.383496 9.5808,-5.8856 20.0175,-10.6424 30.2317,-13.7787 4.894,-1.5027 9.994,-3.303 11.3334,-4.0005 1.3392,-0.6976 7.2349,-2.5931 13.1016,-4.2122 5.8666,-1.6192 14.2666,-4.026 18.6666,-5.3484 13.1616,-3.9559 35.9534,-6.7075 59.7542,-7.2139 20.0668,-0.4269 23.9025,-0.1352 36.536,2.7787 16.3281,3.7661 19.8956,5.3924 29.1741,13.2996 16.2413,13.841 21.562,43.074026 13.1921,72.481566 -0.9392,3.3 -2.1318,9.6 -2.6502,14 -0.5184,4.4 -1.543,9.12457 -2.2767,10.49905 -0.7337,1.37447 -1.5133,3.77447 -1.7324,5.33334 -0.5999,4.26794 -5.9359,19.4872 -8.8021,25.10548 -1.3906,2.72574 -2.5283,5.88537 -2.5283,7.0214 0,3.00654 -16.5921,37.0406 -21.0744,43.22822 -2.0987,2.8972 -4.9165,8.16523 -6.2617,11.70674 -1.3454,3.5415 -3.439,7.9391 -4.6527,9.77244 -12.0049,18.13396 -14.88,22.82498 -16.7859,27.38864 -1.2124,2.90292 -3.934,7.2489 -6.0481,9.65776 -2.1141,2.40884 -3.8439,5.00789 -3.8439,5.77564 0,0.76776 -2.1818,5.09688 -4.8486,9.62028 -2.6668,4.52338 -6.0339,10.32434 -7.4826,12.89101 -1.4485,2.56667 -4.5638,7.36667 -6.923,10.66667 -2.3592,3.3 -5.656,8.7 -7.3264,12 -1.6704,3.3 -4.7859,8.59921 -6.9235,11.77601 -2.1376,3.17681 -5.0883,7.97682 -6.5569,10.66667 -1.4687,2.68987 -5.6398,8.79065 -9.2691,13.55732 -3.6293,4.76667 -7.6017,10.46667 -8.8273,12.66667 -1.2256,2.2 -5.5916,8.38125 -9.7022,13.73613 -4.1105,5.35487 -8.798,11.95487 -10.4165,14.66667 -4.436,7.43213 -17.6993,26.38661 -23.7239,33.9034 -2.9333,3.65992 -7.1333,9.49061 -9.3333,12.9571 -4.4763,7.05323 -13.3457,18.90574 -18.1615,24.26962 -1.7445,1.9431 -7.9718,9.94413 -13.8385,17.78004 -5.8667,7.8359 -14.7167,19.03418 -19.6667,24.88506 -4.95,5.8509 -9,11.07771 -9,11.61515 0,0.53744 -3.6849,4.84933 -8.1886,9.58199 -4.5039,4.73266 -12.371,13.59941 -17.4826,19.70391 -5.1114,6.10448 -10.1144,11.41401 -11.1176,11.79896 -2.3045,0.8843 -7.7882,9.636 -6.7122,10.71208 0.8261,0.82609 13.8829,-4.45503 22.1677,-8.9662 2.5667,-1.39759 6.7667,-3.52462 9.3333,-4.72674 2.5667,-1.20212 8.8667,-4.15284 14,-6.55714 20.205,-9.46343 27.375,-12.69337 28.1776,-12.69337 0.4606,0 3.7022,-2.05821 7.2038,-4.57382 6.8278,-4.90538 20.6084,-12.18336 45.5488,-24.0561 8.5782,-4.08361 17.2906,-8.85 19.3609,-10.59194 2.0701,-1.74195 12.6901,-7.71676 23.5999,-13.27735 10.9096,-5.5606 20.8445,-11.02305 22.0774,-12.13881 1.2328,-1.11575 2.6546,-2.02864 3.1594,-2.02864 0.5046,0 5.2574,-2.6253 10.5616,-5.83398 5.3042,-3.20869 13.844,-8.03084 18.9773,-10.71589 24.5703,-12.85177 40.5945,-21.58232 62.4393,-34.01901 13.075,-7.44384 28.075,-15.59339 33.3334,-18.11011 5.2584,-2.51672 13.1606,-6.57293 17.5606,-9.01379 10.8419,-6.01442 22.5048,-12.02552 31.3334,-16.14929 4.0333,-1.88395 18.4333,-9.20688 32,-16.27317 13.5666,-7.06631 31.8666,-16.15852 40.6666,-20.20495 20.566,-9.45667 47.4279,-22.91406 50,-25.04924 1.1,-0.91315 11.5106,-6.53086 23.1346,-12.48379 11.6241,-5.95295 22.7241,-11.91743 24.6666,-13.2544 1.9427,-1.33697 8.3322,-5.02536 14.1988,-8.19641 20.5834,-11.12568 47.516,-30.13443 53.8632,-38.0159 4.0107,-4.98012 20.608,-20.68008 21.862,-20.68008 3.8598,0 45.0074,-35.7275 63.5368,-55.16746 4.8059,-5.04211 10.7999,-10.04691 13.32,-11.12178 2.52,-1.07486 6.4767,-3.3995 8.7924,-5.16586 2.6254,-2.00242 5.9967,-3.21156 8.9544,-3.21156 4.1247,0 4.9352,0.54941 6.2115,4.2104 2.5391,7.28361 -3.3443,14.4775 -35.0653,42.87664 -4.7634,4.26454 -10.9439,9.56376 -13.7344,11.77602 -2.7907,2.21227 -7.1739,6.53808 -9.7406,9.6129 -6.0202,7.2122 -29.273,29.06924 -39.439,37.07162 -4.3419,3.41784 -10.8943,9.00958 -14.561,12.42606 -3.6666,3.41649 -8.2637,7.05808 -10.2156,8.09244 -1.9518,1.03434 -4.6518,3.25976 -6,4.94536 -1.3481,1.6856 -5.7649,4.67512 -9.8152,6.64338 -6.8588,3.33306 -29.0281,23.48244 -63.096,57.34717 -4.9806,4.95108 -10.2148,9.6222 -11.6312,10.38024 -1.4164,0.75804 -2.5753,2.08474 -2.5753,2.94824 0,0.86348 -5.25,6.77462 -11.6667,13.13586 -6.4166,6.36126 -21.5666,21.93816 -33.6666,34.61535 -12.1,12.6772 -24.1614,25.19493 -26.8031,27.81721 -2.6416,2.62228 -10.7333,11.36778 -17.9815,19.43444 -13.7812,15.33742 -24.6886,26.98851 -49.277,52.63687 -8.1006,8.44972 -18.1023,19.26313 -22.226,24.0298 -4.1239,4.76667 -14.5036,15.86667 -23.0662,24.66667 -8.5625,8.8 -17.1265,18.1 -19.031,20.66667 -1.9047,2.56666 -4.1364,5.26666 -4.9595,6 -0.8231,0.73333 -6.8087,7.33333 -13.3015,14.66666 -6.4926,7.33334 -12.5282,13.93334 -13.4122,14.66667 -1.533,1.27173 -14.3347,15.86933 -16.3702,18.66667 -0.5336,0.73333 -7.5322,8.77528 -15.5524,17.87098 -35.9458,40.76644 -44.6861,50.8474 -44.6861,51.54104 0,0.40795 -5.7649,7.15714 -12.8111,14.99819 -7.046,7.84105 -13.7672,15.75645 -14.936,17.58979 -1.1688,1.83333 -6.5193,8.23832 -11.8901,14.2333 -5.3708,5.99501 -9.2996,11.16545 -8.7307,11.48989 0.5691,0.32444 5.0846,1.33738 10.0346,2.25098 8.801,1.62439 12.6018,4.4643 5.3333,3.98503 -5.8437,-0.38532 -7.2185,-0.0581 -6.2616,1.49029 0.4928,0.79722 2.0281,1.15339 3.4121,0.7915 1.3839,-0.36191 2.5162,-0.18415 2.5162,0.395 0,0.57914 1.2,1.3668 2.6666,1.75034 1.4667,0.38355 2.6667,0.15352 2.6667,-0.51116 0,-0.66468 0.9735,-1.2085 2.1632,-1.2085 1.7428,0 1.8501,-0.37738 0.552,-1.9416 -2.0164,-2.42955 -0.7911,-4.50875 3.6527,-6.19826 4.6076,-1.75178 52.0256,-2.7142 53.0377,-1.07646 0.4283,0.6929 1.248,0.96974 1.8216,0.61522 1.1056,-0.68328 33.5404,-3.39445 41.4395,-3.46386 34.5001,-0.30315 287.997,2.57292 289.145,3.2805 0.4703,0.28979 6.7875,0.0777 14.0383,-0.47128 7.2508,-0.54898 15.9508,-0.47149 19.3333,0.1722 3.3826,0.6437 17.85,1.38515 32.15,1.64768 14.3,0.26254 31.7,0.91036 38.6667,1.43962 14.5928,1.10862 22.0545,1.31608 82,2.27976 160.5208,2.58056 173.0124,2.91852 175.8923,4.7588 0.7925,0.50648 8.641,0.99637 17.441,1.08865 8.8,0.0923 23.8,0.57061 33.3334,1.06296 27.9086,1.44132 47.325,2.11871 80.4442,2.80647 17.1111,0.35533 31.5386,0.91025 32.061,1.23316 2.3705,1.46501 52.631,2.00233 58.536,0.62578 3.4606,-0.80676 11.7974,-1.39484 18.5261,-1.30682 9.2521,0.12106 14.9395,-0.6131 23.3333,-3.0118 18.3576,-5.246 17.5706,-5.2051 22.8127,-1.18584 2.6147,2.00481 5.0319,4.65385 5.3716,5.88676 0.6935,2.51765 -3.5672,7.75836 -6.3076,7.75836 -0.982,0 -2.6736,1.33765 -3.7591,2.97256 -2.063,3.10714 -2.0357,3.10216 -31.7701,5.7946 -7.5061,0.67966 -12.3612,0.34238 -18.9855,-1.31891 -5.5156,-1.38325 -16.6384,-2.46476 -29.2481,-2.84388 -11.1913,-0.33648 -33.5479,-1.23895 -49.6812,-2.00548 -16.1333,-0.76653 -33.8333,-1.60409 -39.3333,-1.86123 -5.5,-0.25713 -13.6831,-0.89557 -18.1846,-1.41876 -4.9172,-0.57148 -9.1474,-0.41238 -10.5965,0.39855 -1.5403,0.86197 -3.5921,0.90104 -5.6777,0.10813 -1.7963,-0.68292 -12.6279,-1.24158 -24.0702,-1.24148 -11.4424,1.1e-4 -26.2044,-0.612 -32.8044,-1.36022 -6.6,-0.74823 -26.7,-1.63098 -44.6666,-1.96166 -17.9667,-0.33068 -37.3931,-1.23901 -43.1699,-2.01853 -5.7767,-0.77952 -15.6767,-1.29799 -22,-1.15215 -6.3232,0.14584 -15.3968,0.2158 -20.1635,0.15547 -17.594,-0.22268 -84.3302,-1.59792 -116.6666,-2.40417 -18.3334,-0.45712 -41.1334,-0.9734 -50.6667,-1.1473 -9.5333,-0.1739 -23.9333,-0.95314 -32,-1.73165 -8.0667,-0.77852 -18.7496,-1.27443 -23.7399,-1.10204 -4.9902,0.17237 -9.3869,-0.19441 -9.7706,-0.81512 -0.3836,-0.62069 -2.8475,-0.72519 -5.4752,-0.23221 -4.0023,0.75082 -4.6475,0.55688 -3.9752,-1.19494 0.4413,-1.1502 -0.1595,-2.88512 -1.3352,-3.85541 -1.6831,-1.38904 -2.2568,-1.40976 -2.6986,-0.0975 -0.3084,0.91667 -1.4109,1.66667 -2.4497,1.66667 -1.0389,0 -1.8889,0.63541 -1.8889,1.41203 0,0.77661 0.5585,1.06682 1.2412,0.64492 0.6826,-0.42192 1.6181,-0.15732 2.0786,0.58797 1.0424,1.68653 0.4822,1.71313 -31.4066,1.49157 -14.3479,-0.0997 -28.0134,-0.73374 -30.3679,-1.40901 -2.3545,-0.67527 -5.6155,-0.95371 -7.2464,-0.61875 -3.3332,0.6845 -50.2324,0.54155 -67.6323,-0.20614 -30.8397,-1.3252 -145.2762,-0.009 -158.6536,1.82352 -5.4928,0.75281 -10.391,1.11898 -10.8849,0.81372 -0.494,-0.30526 -6.4655,-0.6324 -13.2701,-0.72699 -12.0712,-0.16779 -12.3011,-0.22955 -9.4484,-2.53945 3.5593,-2.8822 3.6929,-3.94006 0.4974,-3.94006 -1.3344,0 -3.7165,1.48411 -5.2937,3.29802 -1.5772,1.8139 -4.2353,3.5722 -5.9072,3.90732 -4.9249,0.98729 -47.4617,3.49901 -58.9244,3.4794 -14.2869,-0.0245 -33.9173,3.78789 -35.5892,6.91162 -1.6401,3.0646 -7.8592,24.50162 -7.8592,27.09046 0,2.78881 6.1051,2.52765 8.2635,-0.35348 4.6513,-6.20859 18.2212,-12.68342 29.9205,-14.27638 6.066,-0.82594 7.1731,-0.5866 9.6667,2.08988 1.5488,1.66247 2.816,3.7755 2.816,4.69564 0,2.27203 -5.2948,5.82419 -8.6815,5.82419 -1.5151,0 -5.1084,1.2 -7.9852,2.66667 -2.8768,1.46666 -5.7308,2.66666 -6.3421,2.66666 -0.6114,0 -5.6558,3.15 -11.2098,7.00005 -5.5538,3.85 -11.6768,8.0614 -13.6064,9.3587 -7.3918,4.96952 -14.2221,0.1307 -15.5629,-11.02543 -1.1793,-9.813 -1.8945,-11.99998 -3.924,-11.99998 -1.0601,0 -2.5699,1.2 -3.3548,2.66666 -0.7849,1.46667 -2.2419,2.66667 -3.2376,2.66667 -0.9957,0 -2.1557,0.9 -2.5779,2 -0.4676,1.21828 0,2 1.1907,2 1.0769,0 1.9581,0.9 1.9581,2 0,1.09998 -0.4984,1.99998 -1.1074,1.99998 -0.6091,0 -7.7466,8.2746 -15.861,18.38802 -8.1144,10.1134 -15.716,19.1869 -16.8925,20.1633 -1.1765,0.9764 -2.1391,2.4658 -2.1391,3.3098 0,0.844 -3.0253,4.8206 -6.7229,8.8368 -3.6976,4.0162 -8.3435,9.4022 -10.324,11.9688 -1.9805,2.5667 -7.2052,9.1726 -11.6104,14.6799 -4.4051,5.5072 -10.9813,13.9072 -14.6137,18.6666 -3.6324,4.7594 -7.8324,9.9563 -9.3334,11.5486 -1.5009,1.5922 -6.3289,7.7837 -10.7289,13.7587 -4.4,5.975 -10.7501,14.276 -14.1113,18.4465 -3.3612,4.1705 -7.6834,9.9791 -9.6047,12.9079 -1.9213,2.9288 -5.9212,8.0034 -8.8887,11.2768 -2.9674,3.2735 -5.3953,6.6751 -5.3953,7.5593 0,0.8841 -2.8968,4.8058 -6.4372,8.7149 -3.5405,3.9091 -8.9379,10.7075 -11.9943,15.1075 -3.0562,4.4 -8.2208,11.6 -11.4768,16 -3.2558,4.4 -7.5784,10.4 -9.6054,13.3333 -2.0271,2.9334 -4.8371,6.6479 -6.2443,8.2545 -1.4073,1.6066 -5.6375,7.3916 -9.4004,12.8555 -7.0607,10.2524 -17.9939,25.6852 -32.5335,45.9226 -14.6593,20.4041 -52.1717,77.1469 -77.9385,117.8932 -1.9968,3.1574 -4.2065,6.6409 -4.9105,7.7409 -0.7042,1.1 -4.4263,7.7 -8.2715,14.6667 -3.8451,6.9666 -10.5715,18.6666 -14.9475,26 -6.9353,11.6226 -17.3669,30.3001 -43.9362,78.6666 -10.9807,19.989 -16.9706,33.635 -16.9706,38.6616 0,2.5938 1.1834,12.0924 2.6298,21.1083 6.3094,39.3295 5.6528,106.0639 -1.3208,134.2301 -0.6355,2.5667 -2.1642,9.1667 -3.397,14.6667 -7.2973,32.5551 -11.3121,43.7813 -18.5045,51.7424 -5.0447,5.5839 -7.3697,6.6564 -12.6617,5.8405 z m 5.2073,-17.4953 c 0.7592,-1.4184 1.3803,-4.8849 1.3803,-7.7033 0,-2.8183 0.8044,-6.3078 1.7874,-7.7543 2.1294,-3.1331 8.8792,-23.2903 8.8792,-26.5163 0,-1.2429 1.224,-4.9469 2.7202,-8.231 4.7454,-10.4168 7.7762,-35.7683 8.2752,-69.216 0.3052,-20.4698 -0.8799,-52.0843 -2.2742,-60.6667 -0.2977,-1.8333 -0.909,-5.5833 -1.3584,-8.3333 -0.733,-4.4866 -3.3628,-7.2246 -3.3628,-3.5012 0,0.8244 -2.0082,6.0744 -4.4628,11.6666 -2.4545,5.5924 -6.1069,14.0679 -8.1164,18.8346 -2.0094,4.7666 -4.4404,10.4666 -5.4021,12.6666 -1.4503,3.3174 -12.1284,35.6542 -16.7609,50.7572 -2.5299,8.2478 -5.5419,33.619 -5.6086,47.2428 -0.087,17.6834 2.1007,29.3363 7.2578,38.6667 7.3533,13.3041 13.9077,17.952 17.0461,12.0876 z M 317.99732,1436.6059 c 23.0712,-5.7188 48.0809,-14.7606 70,-25.3072 16.3482,-7.8662 35.6968,-18.4042 41.8376,-22.7863 14.0521,-10.0279 46.5647,-38.6924 47.4957,-41.8745 0.3667,-1.2531 4.2161,-5.4783 8.5543,-9.3892 4.3381,-3.911 9.7918,-9.6055 12.1192,-12.6546 2.3274,-3.049 7.0178,-8.5148 10.4231,-12.1461 3.4054,-3.6312 6.2017,-6.9952 6.2142,-7.4756 0.012,-0.4803 2.6079,-2.3884 5.7677,-4.2401 4.9584,-2.9059 22.8823,-21.9775 28.9215,-30.7736 1.1,-1.602 5.6632,-7.1474 10.1404,-12.323 9.5477,-11.0369 21.8916,-27.1202 28.6472,-37.3257 2.6332,-3.9779 6.6407,-9.1596 8.9056,-11.5151 3.9596,-4.1178 13.6961,-17.9058 26.5628,-37.6158 3.3511,-5.1334 7.3405,-11.1297 8.8653,-13.3251 1.5249,-2.1955 5.355,-7.7637 8.5113,-12.374 3.1563,-4.6103 7.9513,-11.514 10.6555,-15.3416 2.7042,-3.8277 7.4212,-10.6777 10.4821,-15.2224 3.061,-4.5447 6.5399,-9.2375 7.731,-10.4286 1.191,-1.191 2.1655,-2.4308 2.1655,-2.755 0,-1.7965 -4.5174,-7.2087 -14.1468,-16.9488 -5.9474,-6.0159 -11.3474,-11.8715 -12,-13.0125 -1.5288,-2.6729 -18.633,-16.2145 -23.9594,-18.9689 -2.2484,-1.1627 -4.9124,-3.1073 -5.9201,-4.3215 -2.1365,-2.5744 -25.5366,-14.4836 -31.1105,-15.8334 -3.7352,-0.9045 -15.955,0.1451 -45.981,3.9496 -8.3147,1.0535 -20.2675,1.9155 -26.5616,1.9155 -7.6542,0 -12.1411,0.5939 -13.549,1.7934 -1.263,1.076 -9.0382,2.4384 -19.4383,3.406 -9.5333,0.887 -22.4333,2.1701 -28.6666,2.8514 -6.2334,0.6812 -18.3525,1.8883 -26.9314,2.6823 -8.579,0.794 -17.279,1.6605 -19.3334,1.9254 -2.0544,0.265 -11.2352,1.444 -20.4019,2.62 -15.3392,1.968 -17.7391,2.6774 -30.1308,8.9071 -7.4052,3.7229 -17.0052,9.7708 -21.3333,13.4399 -17.7718,15.0657 -53.8692,52.3701 -53.8692,55.6704 0,0.8168 -2.6817,4.3519 -5.9593,7.8559 -5.7077,6.1021 -23.3741,33.6393 -23.3741,36.4342 0,1.6179 -7.7863,9.0807 -9.4743,9.0807 -0.6558,0 -1.1923,1.7265 -1.1923,3.8367 0,2.1102 -0.8768,4.5644 -1.9484,5.4537 -1.0716,0.8894 -2.3457,2.8689 -2.8313,4.3989 -0.4856,1.53 -2.7868,4.7423 -5.1138,7.1383 -2.5908,2.6677 -4.9027,6.9778 -5.9642,11.1197 -1.0219,3.9872 -2.7751,7.3209 -4.2712,8.1216 -1.3958,0.7471 -2.5378,2.2168 -2.5378,3.2661 0,1.0492 -0.845,3.8782 -1.8779,6.2864 -8.2101,19.1434 -10.1221,23.9546 -10.1221,25.4708 0,0.9546 -1.522,5.5992 -3.3822,10.3216 -1.8602,4.7224 -3.9063,11.8862 -4.5467,15.9195 -1.6817,10.59 -6.4947,35.7696 -8.0281,42 -0.722,2.9333 -1.327,14.6352 -1.3445,26.0043 -0.031,20.3665 1.8528,32.4181 6.3712,40.751 13.8134,25.4756 15.0673,26.875 33.2445,37.0991 14.3282,8.0592 25.8073,10.1652 52.3525,9.6047 17.0169,-0.3592 21.7296,-1.0022 39.3333,-5.3656 z M 1760.004,1407.8457 c 1.7606,-4.0333 3.8293,-8.1601 4.5972,-9.1706 2.79,-3.6716 13.8062,-24.0195 15.969,-29.496 0.4344,-1.1 1.8332,-3.6091 3.1084,-5.5758 2.1952,-3.3853 23.675,-41.1989 28.2643,-49.7576 5.3877,-10.0474 31.4331,-53.5221 39.6079,-66.113 3.0545,-4.7046 7.8032,-12.1536 10.5528,-16.5536 2.7496,-4.4 7.7505,-12.0738 11.1132,-17.0527 3.3626,-4.9791 8.2138,-12.2876 10.7805,-16.2411 11.9581,-18.4198 31.5061,-46.8423 33.0555,-48.0623 0.9472,-0.7458 2.4472,-2.6203 3.3333,-4.1656 3.5207,-6.1395 11.4692,-17.5666 12.7845,-18.3795 0.7671,-0.4741 5.4119,-6.9902 10.3216,-14.4804 8.362,-12.7567 19.9148,-27.7265 22.1718,-28.7296 0.55,-0.2444 1,-1.181 1,-2.0813 0,-0.9003 3.5801,-5.8003 7.9557,-10.8889 4.3756,-5.0886 7.9756,-9.6898 8,-10.2249 0.024,-0.5352 2.4417,-4.1352 5.3719,-8 2.9301,-3.8649 5.3301,-7.5479 5.3333,-8.1844 0,-0.6365 1.6557,-3.1138 3.6724,-5.5051 2.0167,-2.3912 6.1873,-7.8705 9.2681,-12.176 3.0808,-4.3055 7.3108,-9.6839 9.4,-11.952 2.0892,-2.268 6.5536,-7.968 9.921,-12.6666 3.3672,-4.6986 7.6872,-9.9976 9.5998,-11.7754 1.9128,-1.7778 3.4778,-3.9137 3.4778,-4.7464 0,-0.8326 2.664,-4.6348 5.92,-8.4493 3.256,-3.8145 7.265,-8.8787 8.9092,-11.2537 1.644,-2.375 5.13,-6.7891 7.7466,-9.8091 2.6167,-3.02 7.0367,-8.42 9.8224,-12 2.7859,-3.58 12.224,-15.5091 20.9739,-26.5091 8.7499,-11 15.9207,-20.9377 15.9351,-22.0839 0.031,-2.4081 -6.6756,-9.2494 -9.0664,-9.2494 -0.8874,0 -2.715,1.8115 -4.0615,4.0255 -2.7515,4.5244 -15.1088,15.9489 -24.1793,22.3539 -8.6902,6.1365 -13.1859,6.6945 -18.424,2.2869 -2.3335,-1.9635 -4.2427,-4.4167 -4.2427,-5.4515 0,-2.9839 -3.3744,-2.2134 -10.0564,2.2962 -3.6956,2.4941 -8.5508,4.4438 -12.0479,4.8379 -4.998,0.5634 -6.2372,0.1949 -8.444,-2.511 l -2.5865,-3.1712 -4.9408,5.7495 c -2.7175,3.1623 -8.0121,8.1144 -11.7659,11.0047 -3.7538,2.8904 -10.0078,7.6961 -13.8976,10.6794 -3.8898,2.9833 -9.214,5.7717 -11.8313,6.1964 -4.2925,0.6966 -5.2012,0.2626 -9.2729,-4.4289 l -4.514,-5.2011 -6.988,7.4738 c -8.4239,9.0096 -24.8674,18.5262 -32.011,18.5262 -6.1933,0 -10.4698,-5.5861 -11.3588,-14.8371 -0.6332,-6.5903 -2.3325,-8.4072 -3.8934,-4.1629 -3.717,10.1069 -43.1416,60.3333 -47.3579,60.3333 -0.3755,0 -3.6117,2.7684 -7.1915,6.1519 -13.2989,12.5699 -16.9502,14.4044 -26.1516,13.1389 l -6.6985,-0.9213 -23.0176,23.3727 c -12.6597,12.8549 -24.9969,24.3962 -27.4161,25.6472 -2.4192,1.251 -5.3346,3.4163 -6.4784,4.8118 -1.3312,1.6239 -4.5487,2.8251 -8.9384,3.337 -6.3978,0.746 -7.0182,0.5561 -9.2339,-2.8254 -1.3064,-1.9938 -2.6443,-6.8699 -2.9732,-10.8356 -0.3289,-3.9658 -1.0472,-7.2105 -1.5964,-7.2105 -1.5161,0 -12.0047,11.7291 -12.0047,13.4245 0,1.306 -16.201,17.7494 -31.7669,32.2421 -7.2173,6.7197 -16.2331,6.6307 -16.2331,-0.1603 0,-2.5386 7.6003,-19.3005 11.8675,-26.173 3.3029,-5.3195 6.4597,-10.9743 13.6512,-24.4538 5.3483,-10.0246 15.8063,-26.4007 20.148,-31.5498 2.0167,-2.3916 3.6667,-5.1802 3.6667,-6.1969 0,-1.0166 2.4,-4.7527 5.3333,-8.3025 10.3019,-12.4667 5.2865,-10.631 -9,3.2941 -7.8833,7.6839 -19.7304,18.7493 -26.3269,24.5898 -6.5966,5.8405 -20.3966,18.4486 -30.6667,28.018 -10.2701,9.5693 -21.4076,19.2687 -24.7497,21.5541 -3.3423,2.2854 -6.9316,5.1854 -7.9767,6.4445 -1.7437,2.1011 -8.8988,7.7606 -29.0517,22.9793 -10.3312,7.8017 -13.3526,9.9086 -33.0756,23.0649 -29.8975,19.9432 -32.8488,21.8198 -39.6712,25.225 -3.6731,1.8333 -6.8498,3.9333 -7.0591,4.6666 -0.3732,1.3073 3.4851,3.7266 23.5776,14.7848 16.3151,8.9792 35.2469,21.3263 56.6667,36.9574 5.8666,4.2812 13.3666,9.5488 16.6666,11.7058 3.3,2.1571 17.908,14.5638 32.4622,27.5703 25.0214,22.3608 40.1762,38.7189 55.5036,59.9103 7.4877,10.3525 25.0874,42.857 29.4577,54.4048 2.2203,5.8666 5.1248,13.3666 6.4547,16.6666 1.971,4.8915 6.0664,17.5763 9.0044,27.8896 0.7262,2.5499 1.9789,0.8432 5.7908,-7.8896 z M 819.39218,1200.6996 c 6.5661,-3.266 15.0952,-8.6583 18.9536,-11.9827 3.8583,-3.3245 8.9583,-7.3869 11.3333,-9.0276 2.375,-1.6407 6.7182,-5.4585 9.6515,-8.484 11.1869,-11.5382 27.825,-30.1175 30.1452,-33.6624 1.3309,-2.0334 6.0462,-7.8972 10.4784,-13.0305 4.4321,-5.1333 10.605,-12.8258 13.7174,-17.0944 3.1125,-4.2685 7.7959,-10.5685 10.4076,-14 2.6117,-3.4314 7.5418,-10.4389 10.9557,-15.5723 8.2646,-12.4268 18.613,-27.2003 20.4187,-29.1498 0.8009,-0.8647 8.5272,-12.0598 17.1694,-24.8779 8.6423,-12.8181 16.537,-24.2529 17.5438,-25.4106 4.0752,-4.6863 2.3286,-5.922 -10.8747,-7.694 -6.9879,-0.9378 -15.8379,-2.6215 -19.6667,-3.7416 -12.0126,-3.5143 -25.5355,-3.7231 -38.6958,-0.5975 -6.4417,1.5299 -18.7368,3.6987 -27.3223,4.8194 -8.5855,1.1208 -21.01,2.8643 -27.61,3.8744 -6.6,1.0102 -16.1646,1.9338 -21.2546,2.0525 -5.0901,0.1186 -9.8681,0.595 -10.6179,1.0584 -2.5587,1.5813 -35.4376,6.4657 -51.8125,7.6971 -6.4267,0.4833 -16.60486,2.1742 -22.61816,3.7575 l -10.9332,2.8788 -18.4127,27.3333 c -16.7996,24.9387 -37.1913,54.9795 -40.249,59.2942 -0.8499,1.1993 0.08,3.3929 3,7.0803 2.3273,2.9384 4.2318,5.8563 4.2323,6.4841 4e-4,0.6278 2.7004,4.5802 6,8.7832 3.2995,4.203 5.9991,8.1358 5.9991,8.7395 0,0.6037 1.95,3.2861 4.3334,5.9609 6.5298,7.3285 13.2759,15.6969 17,21.0882 4.0005,5.7918 19.9024,24.8118 27.3333,32.6932 3.0957,3.2834 10.368,8.2804 17.33326,11.9104 11.9101,6.207 12.0754,6.2483 22.0616,5.506 8.3669,-0.622 12.0722,-1.7481 22,-6.6861 z m 607.27182,-12.9172 c 3.3,-0.7043 9.6,-1.8883 14,-2.631 11.9404,-2.0155 54.1009,-18.5759 53.9573,-21.1941 -0.037,-0.6663 -11.8125,-6.5092 -41.9573,-20.8181 -3.6667,-1.7405 -8.4667,-3.5787 -10.6667,-4.0849 -2.2,-0.5062 -6.4,-2.1312 -9.3333,-3.6112 -5.5216,-2.7858 -23.28,-10.2623 -40.6667,-17.1211 -5.5,-2.1696 -11.8,-4.7526 -14,-5.7399 -2.2,-0.9873 -7.3,-3.1283 -11.3333,-4.7578 -4.0334,-1.6294 -9.0095,-3.8406 -11.0583,-4.9137 -2.0487,-1.0731 -5.5732,-2.4812 -7.8324,-3.1291 l -4.1075,-1.178 0.845,6.3698 c 0.8518,6.4217 4.6586,18.6462 8.2234,26.4073 1.0614,2.3108 1.9298,5.3244 1.9298,6.697 0,4.448 9.7698,19.4113 19.2086,29.4196 7.4872,7.9389 11.4704,10.8782 21.3079,15.723 12.9581,6.3818 18.9139,7.2448 31.4835,4.5622 z m 73.3333,-29.27 c 0,-0.7333 -0.8645,-1.3333 -1.9213,-1.3333 -1.0567,0 -2.2922,0.6 -2.7454,1.3333 -0.4532,0.7333 0.4114,1.3333 1.9214,1.3333 1.5098,0 2.7453,-0.6 2.7453,-1.3333 z m 22.3487,-8.895 c 7.8749,-4.159 16.014,-8.959 18.0869,-10.6667 2.0729,-1.7077 4.3485,-3.105 5.0569,-3.105 0.7084,0 4.7123,-2.55 8.8975,-5.6666 4.1852,-3.1167 9.1096,-6.4132 10.9431,-7.3255 1.8334,-0.9124 7.8336,-4.9627 13.3336,-9.0007 5.5,-4.038 13,-9.4097 16.6666,-11.9371 3.6667,-2.5273 14.1667,-10.7845 23.3334,-18.3492 9.1666,-7.5647 19.6666,-15.9459 23.3333,-18.6248 3.6667,-2.6789 8.4667,-6.7976 10.6667,-9.1525 2.2,-2.355 7,-6.6591 10.6666,-9.5647 19.2363,-15.2437 106.9646,-101.9892 138.6667,-137.1132 9.5333,-10.5624 23.1833,-25.2524 30.3333,-32.64442 7.15,-7.392 13,-13.8629 13,-14.37974 0,-0.51685 -2.25,-0.65472 -5,-0.30638 -2.75,0.34834 -11,1.28214 -18.3333,2.07512 -23.1637,2.5048 -35.5327,4.0876 -52,6.6542 -8.8,1.3715 -20.2,2.8599 -25.3333,3.3074 -9.2918,0.8101 -57.9682,7.72562 -70.6667,10.03982 -12.3132,2.244 -35.8923,5.2068 -46.3065,5.8186 -3.1315,0.184 -16.7935,2.2501 -30.3602,4.5914 -26.9422,4.6495 -78.61,11.7868 -98.6666,13.6297 -18.2832,1.6799 -28.2588,2.5676 -43.3334,3.8564 -7.3333,0.627 -16.9333,2.0703 -21.3333,3.2074 -4.4,1.1371 -13.4,2.762 -20,3.6109 -31.6329,4.0688 -33.2353,4.6309 -36.8419,12.9227 -5.0865,11.6945 -10.7806,27.6575 -10.8266,30.3512 -0.104,6.0846 -5.1734,21.377 -8.1467,24.5749 -1.7515,1.8838 -3.5008,4.9251 -3.8875,6.7585 -0.3865,1.8333 -2.0108,7.5333 -3.6096,12.6666 -1.5986,5.1334 -3.5033,12.3334 -4.2325,16 -0.7291,3.6667 -1.8979,8.5589 -2.5971,10.8717 -0.6992,2.3127 -1.6294,14.9127 -2.0672,28 l -0.796,23.795 3.1692,2.8713 c 1.7431,1.5793 7.0692,4.1031 11.8359,5.6085 4.7667,1.5055 16.7667,6.1364 26.6667,10.2909 18.221,7.6466 31.4522,12.9686 46,18.5028 13.3194,5.067 24.9709,10.1372 32,13.9251 3.6666,1.9759 14.6304,7.0941 24.3638,11.3738 9.7335,4.2797 18.019,8.3016 18.412,8.9377 1.375,2.2247 4.6966,1.0994 18.9062,-6.4051 z m -571.23622,-25.2299 c 5.412,-7.2646 11.7541,-16.5084 14.0936,-20.5418 2.3396,-4.0333 6.555,-10.5858 9.3676,-14.561 2.8126,-3.9752 7.0554,-11.1752 9.4284,-16 4.3059,-8.7548 5.0102,-10.3126 10.8828,-24.0698 1.7133,-4.0136 7.82782,-16.8009 13.58792,-28.4161 5.76,-11.6153 10.1499,-21.4415 9.7553,-21.836 -1.3808,-1.3809 -3.417,0.9908 -6.79,7.9084 -3.5391,7.2583 -8.3217,15.4563 -14.23552,24.4014 -3.221,4.8721 -10.9358,18.6089 -15.6727,27.9065 -1.1209,2.2 -2.8376,4.8068 -3.815,5.7929 -0.9774,0.9862 -2.7475,3.6862 -3.9336,6 -1.1861,2.3139 -3.5721,5.9031 -5.3022,7.976 -1.7302,2.0729 -3.1458,4.6042 -3.1458,5.6251 0,1.0209 -2.8461,6.2248 -6.3247,11.5644 -3.4786,5.3395 -6.9845,10.9082 -7.791,12.3749 -4.9989,9.0914 -7.698,13.5738 -9.2329,15.3333 -0.9596,1.1 -3.6808,5.6 -6.0471,10 -2.3663,4.4 -5.3758,9.2 -6.6878,10.6667 -1.312,1.4667 -2.8239,4.4667 -3.3599,6.6667 -0.8689,3.567 -0.089,3.0484 7.2042,-4.7916 4.4982,-4.8354 12.6065,-14.7354 18.0184,-22 z m 63.14142,-37.7945 c 2.7586,-4.0777 8.18,-10.9662 12.0475,-15.3078 3.8676,-4.3417 7.0319,-8.5871 7.0319,-9.4343 0,-0.8472 1.5038,-2.953 3.3416,-4.6796 4.4152,-4.1478 16.2925,-25.1454 22.7772,-40.2669 1.3503,-3.1489 2.6761,-6.1753 2.946,-6.7253 0.2699,-0.55 -0.6859,-1 -2.1242,-1 -1.4382,0 -4.6382,-0.8208 -7.1111,-1.824 -2.4729,-1.0032 -7.017,-2.2057 -10.098,-2.6721 l -5.6019,-0.8481 -2.7966,6.3221 c -1.5381,3.4772 -3.8983,7.5296 -5.2448,9.0054 -1.3466,1.4758 -2.8756,4.0896 -3.3978,5.8085 -0.5222,1.7188 -2.731,5.7647 -4.9083,8.9909 -5.0744,7.5189 -26.44872,51.5314 -26.44872,54.4614 0,1.2219 -0.8398,3.8455 -1.8661,5.8302 -1.0263,1.9847 -2.2342,5.9249 -2.6841,8.756 -0.45,2.8311 -1.1456,5.6775 -1.546,6.3252 -0.4003,0.6478 -0.3188,1.8396 0.1811,2.6485 1.2052,1.9501 18.97462,-15.7412 25.50232,-25.3901 z m 678.7372,4.4987 c 2.4569,-3.6186 13.289,-15.7719 24.0713,-27.0072 10.7824,-11.2354 20.2043,-21.4613 20.9376,-22.7243 0.7333,-1.263 3.9255,-5.752 7.0937,-9.9754 3.1683,-4.2235 6.4246,-9.5842 7.2364,-11.9128 0.8118,-2.3285 4.6695,-9.7653 8.5728,-16.526 3.9035,-6.7607 7.0971,-12.5918 7.0971,-12.958 0,-1.189 25.5701,-43.8202 33.2741,-55.4756 9.9403,-15.0385 9.7295,-14.6667 8.3115,-14.6667 -0.6811,0 -4.7665,4.3034 -9.0787,9.5632 -4.3121,5.2597 -15.2354,17.1097 -24.274,26.3333 -15.337,15.6511 -24.2329,26.4908 -24.2329,29.5281 0,0.7099 -3.8172,7.1298 -8.4827,14.2664 -4.6654,7.1366 -9.2534,14.4757 -10.1954,16.309 -0.9422,1.8334 -3.275,5.1947 -5.1842,7.4697 -1.909,2.275 -4.4562,5.875 -5.6604,8 -1.2041,2.125 -5.9146,9.8637 -10.4677,17.197 -4.5531,7.3333 -9.5779,16.0333 -11.1661,19.3333 -1.5883,3.3 -5.2155,9.5581 -8.0603,13.9068 -5.2923,8.0901 -8.5221,17.3395 -5.7297,16.4088 0.8088,-0.2697 3.4808,-3.451 5.9376,-7.0696 z m -1005.93378,-12.246 c 17.232,-24.6653 29.4482,-42.9579 33.6138,-50.3333 2.0709,-3.6667 5.2733,-8.3104 7.1165,-10.3194 1.8432,-2.0091 3.0951,-3.8708 2.7819,-4.1373 -0.3133,-0.2665 -6.5695,0.2891 -13.9028,1.2345 -23.3298,3.0079 -35.6445,4.4805 -49.3334,5.8994 -21.1291,2.1901 -54.5003,6.8646 -56.4103,7.9016 -1.1576,0.6285 0.094,1.7754 3.7236,3.4121 11.5498,5.2083 38.9549,27.1862 53.9335,43.2528 9.364,10.0442 11.3613,12.0896 11.8047,12.0896 0.2117,0 3.2143,-4.05 6.6725,-9 z m 370.27598,2.6639 c 1.8334,-2.7112 6.6949,-8.2447 10.8034,-12.2967 7.2559,-7.156 25.1966,-31.6894 25.1966,-34.4556 0,-0.7555 1.4314,-3.0748 3.1809,-5.1539 3.6559,-4.3448 7.9017,-13.7862 6.7277,-14.9603 -0.4363,-0.4363 -1.6184,0.3353 -2.627,1.7145 -1.7586,2.4051 -2.1884,2.4187 -10.4983,0.3313 -4.7655,-1.1971 -9.5154,-2.1765 -10.5552,-2.1765 -1.0901,0 -5.3039,6.9149 -9.9531,16.3333 -7.7633,15.7271 -12.5327,29.1512 -14.9826,42.171 -0.6378,3.3893 -1.5594,7.8124 -2.0481,9.829 -1.2331,5.0887 0.7968,4.5184 4.7557,-1.3361 z m 270.2992,-11.6777 c 0.9946,-30.9747 4.6707,-53.0575 13.2679,-79.6991 2.7145,-8.4123 3.0349,-10.7584 1.6901,-12.3788 -1.9037,-2.2939 -0.441,-5.9502 5.564,-13.9083 3.6164,-4.7927 17.8446,-37.112 16.7984,-38.1581 -0.3206,-0.3207 -2.3024,0.071 -4.4037,0.8695 -2.1013,0.7989 -7.1345,1.3451 -11.1849,1.2138 -4.0504,-0.1314 -8.2643,0.1186 -9.3643,0.5556 -1.1,0.4369 -5.6,1.6999 -10,2.8066 -6.4397,1.6199 -9.0063,3.1208 -13.1595,7.6958 -14.254,15.7019 -31.3986,32.1572 -35.9948,34.5477 -6.1342,3.1904 -10.34,2.4845 -12.8212,-2.1518 -2.1757,-4.0653 -2.209,-15.4383 -0.06,-20.6253 0.8591,-2.074 1.3687,-5.792 1.1324,-8.2623 l -0.4302,-4.4915 -5.8475,8.5832 c -3.2163,4.7208 -7.0159,9.8208 -8.4437,11.3334 -1.4279,1.5125 -5.3875,6.5344 -8.799,11.1596 -6.3593,8.6219 -17.211,17.8584 -22.6116,19.246 -2.0794,0.5343 -4.2394,-0.2334 -6.8592,-2.4378 -2.1032,-1.7698 -4.1521,-3.2177 -4.553,-3.2177 -0.4011,0 -3.9144,3.0589 -7.8076,6.7976 -8.819,8.469 -13.2296,10.7997 -19.4511,10.2781 -4.0792,-0.342 -5.5199,-1.3656 -8.7875,-6.2437 l -3.9084,-5.8346 -2.4361,3.168 c -1.3397,1.7423 -2.4493,3.8196 -2.4657,4.6161 -0.028,1.36 -11.0682,15.7808 -15.3911,20.1038 -2.4108,2.4107 -2.5256,4.9952 -0.304,6.8391 0.9173,0.7613 10.0673,3.5693 20.3333,6.24 17.4602,4.5423 67.7215,20.3803 82.6655,26.0489 3.6667,1.3908 8.4667,2.9482 10.6667,3.4609 2.2,0.5126 8.5,2.8913 14,5.2859 5.5,2.3946 13.6,5.2879 18,6.4296 4.4,1.1417 12.2,3.8826 17.3333,6.0908 5.1333,2.2082 10.2333,3.8673 11.3333,3.6868 1.5212,-0.2496 2.0716,-2.5596 2.2992,-9.6478 z m 432.7864,-10.4368 c 6.6707,-4.2672 48.122,-46.2439 52.984,-53.6555 1.2908,-1.9676 2.7302,-6.3487 3.1987,-9.7357 0.4684,-3.387 1.6715,-7.9582 2.6733,-10.1582 1.0019,-2.2 4.6271,-10.3 8.056,-18 3.429,-7.7 7.9211,-16.7 9.9826,-20 2.0614,-3.3 5.633,-9.579 7.9369,-13.9534 2.3037,-4.3744 5.0056,-8.8744 6.0041,-10 0.9984,-1.1256 4.0708,-6.2466 6.8274,-11.3799 2.7566,-5.1333 6.0528,-10.5334 7.3246,-12 1.272,-1.4667 3.5546,-5.0181 5.0724,-7.8921 1.518,-2.874 3.2798,-5.574 3.9151,-6 0.6353,-0.426 3.5377,-4.3746 6.4496,-8.77462 2.9119,-4.4 7.5133,-11.1438 10.2255,-14.9863 2.712,-3.84248 4.9309,-7.55476 4.9309,-8.24951 0,-1.92489 -9.3745,-0.0936 -14.8428,2.89945 -2.6636,1.45791 -6.0899,4.83 -7.614,7.49356 -1.5243,2.6635 -4.6193,6.7863 -6.878,9.1616 -2.2585,2.3754 -4.9908,6.82482 -6.0713,9.88772 -1.0807,3.0628 -3.1675,6.4111 -4.6372,7.4406 -1.4699,1.0296 -4.15,4.7876 -5.9559,8.3514 -1.8059,3.5637 -3.8703,6.8422 -4.5875,7.2855 -1.3536,0.8365 -14.019,19.708 -17.9304,26.716 -1.2278,2.2 -4.1637,6.491 -6.5244,9.5355 -2.3605,3.0445 -6.6918,9.2498 -9.6252,13.7895 -5.2457,8.1185 -8.0624,12.4456 -16,24.5801 -2.2,3.3632 -7.15,10.1445 -11,15.0696 -3.85,4.9251 -7,9.6747 -7,10.5546 0,0.8799 -2.1066,4.3596 -4.6813,7.7327 -2.5748,3.3731 -7.1081,11.669 -10.0741,18.4354 -2.966,6.7665 -6.1786,13.8026 -7.1391,15.636 -1.8895,3.6064 -3.9435,14.6666 -2.7239,14.6666 0.4106,0 3.8774,-2.0028 7.704,-4.4506 z m -1465.44758,-8.2739 c 4.2009,-0.3591 9.1899,-1.2431 11.0868,-1.9642 1.8969,-0.7212 7.0357,-1.3113 11.4196,-1.3113 4.384,0 16.378,-0.9273 26.6534,-2.0607 15.6811,-1.7297 20.3657,-2.8007 29.1584,-6.6667 5.7617,-2.5332 11.1497,-4.6059 11.9734,-4.6059 0.8237,0 2.8265,-0.8643 4.4507,-1.9207 5.7946,-3.7687 39.3452,-13.9521 56.9974,-17.3 42.0195,-7.9694 43.3367,-8.1126 74.6223,-8.1126 h 30 l 18.4005,5.848 18.4004,5.8481 14.2662,-1.3947 c 7.8464,-0.7671 24.4663,-2.3658 36.9329,-3.5526 25.3616,-2.4145 47.7389,-5.2158 64.6667,-8.0954 6.2333,-1.0603 16.3764,-2.3118 22.5401,-2.781 12.6444,-0.9627 12.432,-0.8167 22.1147,-15.2058 11.7022,-17.39 17.0592,-26.8187 15.8743,-27.9396 -1.0809,-1.0226 -13.9042,-2.1215 -39.8624,-3.4161 -5.1334,-0.256 -18.9334,-1.1203 -30.6667,-1.9206 -24.732,-1.6869 -96.8551,-4.0979 -98.1756,-3.2819 -0.4923,0.3043 -15.5209,0.8479 -33.3969,1.2079 -37.711,0.7596 -68.9968,2.5475 -94.4275,5.3962 -9.9,1.1089 -23.4,2.6021 -30,3.3181 -6.6,0.7159 -15,1.8744 -18.6667,2.5743 -3.6666,0.6999 -11.4666,1.6453 -17.3333,2.1009 -5.8667,0.4556 -16.3667,1.9198 -23.3333,3.254 -24.1434,4.6234 -28.851,5.3735 -33.7264,5.3735 -2.6945,0 -13.7584,1.732 -24.5864,3.8489 -10.828,2.1168 -24.1872,4.5844 -29.6872,5.4835 -5.5,0.8991 -13.3,2.7318 -17.3334,4.0726 -7.6707,2.5501 -29.715,7.3537 -40,8.7162 -3.3,0.4371 -10.2,1.9823 -15.3333,3.4337 -5.1333,1.4514 -12.8153,3.1913 -17.0711,3.8664 -4.2558,0.6752 -8.7558,1.7619 -10,2.415 -1.2442,0.653 -4.9622,1.6169 -8.2622,2.1418 -3.3,0.525 -11.7,2.476 -18.6667,4.3355 -6.9667,1.8595 -16.2667,4.2215 -20.6667,5.2489 -4.4,1.0273 -12.2,2.8479 -17.3333,4.0458 -13.78139,3.216 -45.999992,14.8291 -45.999992,16.5806 0,1.2763 6.0831,3.1539 22.666702,6.9965 12.2092,2.8289 31.24239,5.1681 53.99999,6.6366 9.5511,0.6163 129.1792,-0.4331 138.3046,-1.2132 z m 1711.15598,-8.8148 c 0.5895,-0.9538 0.3658,-1.1774 -0.588,-0.588 -2.285,1.4123 -1.8644,-0.6083 0.7844,-3.7677 1.6694,-1.991 1.2899,-1.8575 -1.3476,0.4742 -2.7006,2.3876 -3.2269,3.5279 -1.9904,4.3129 2.144,1.361 2.0236,1.3776 3.1416,-0.4314 z m -1556.79398,-7.9539 c 5.5,-0.6988 14.4985,-1.8362 19.9967,-2.5276 5.4981,-0.6914 15.0981,-1.5986 21.3333,-2.0161 14.686,-0.9832 32.1197,-2.9685 51.3367,-5.846 5.1333,-0.7687 10.2033,-1.4095 11.2667,-1.424 1.4679,-0.02 1.5606,-0.3991 0.3848,-1.5749 -2.1212,-2.1212 -46.0628,-3.1053 -58.9848,-1.321 -29.9379,4.1338 -51.0986,7.9241 -57.3334,10.2695 -2.5666,0.9655 -7.8166,2.4553 -11.6666,3.3107 -16.3977,3.6432 -1.6561,4.3467 23.6666,1.1294 z m 673.26258,-3.0882 c 1.2306,-1.4829 1.2264,-2.5927 -0.019,-4.9201 l -1.6084,-3.0053 -2.4841,3.0678 c -1.3663,1.6873 -2.4842,3.9013 -2.4842,4.9201 0,2.4285 4.5644,2.3853 6.5959,-0.063 z m 14.0708,-17.9495 c 3.8646,-3.7217 14.7474,-18.7372 19.7864,-27.3003 1.3492,-2.2928 4.0994,-5.9688 6.1117,-8.1688 4.9277,-5.3876 15.4679,-21.9103 16.4575,-25.7985 0.6956,-2.733 0.4265,-3.0187 -2.1127,-2.2433 -7.5235,2.2975 -12.6107,3.3141 -16.7303,3.3433 -3.557,0.025 -5.5612,1.2065 -9.6666,5.6979 -2.8487,3.1164 -5.1794,6.4442 -5.1794,7.3952 0,1.626 -8.5181,20.0891 -17.7518,38.4774 -3.496,6.9619 -3.8528,8.5279 -2.3544,10.3334 2.6654,3.2116 6.9818,2.5564 11.4396,-1.7363 z m -24.1064,-15.8024 c 11.6482,-26.5741 14.7189,-33.1165 16.5992,-35.3649 3.459,-4.1365 0.104,-4.8709 -11.1595,-2.4431 -5.8667,1.2645 -11.8667,2.959 -13.3333,3.7655 -2.1644,1.1903 -22,36.733 -22,39.4212 0,0.421 3.15,1.424 7,2.2288 3.85,0.8047 7.9,2.0381 9,2.7408 1.1,0.7026 3.5254,1.2867 5.3898,1.2979 2.9886,0.018 3.9951,-1.3605 8.5038,-11.6462 z m 728.3726,3.3333 c 18.4656,-17.3735 31.1424,-30.6594 35.5128,-37.2193 2.6068,-3.9127 7.7343,-10.8191 11.3944,-15.3475 3.6602,-4.5284 7.6607,-10.2284 8.8902,-12.6666 1.2294,-2.4383 4.457,-7.1332 7.1725,-10.4332 2.7155,-3.3 6.7572,-9.3 8.9816,-13.3334 2.2245,-4.0333 6.8189,-12.2617 10.21,-18.2853 8.5305,-15.15282 24.0967,-46.96805 23.3469,-47.71788 -0.5698,-0.56976 -5.468,0.7676 -12.7489,3.48083 -1.6357,0.60959 -4.21,3.73744 -5.7204,6.95077 -1.5105,3.21335 -4.5221,7.54375 -6.6925,9.62316 -2.1704,2.0793 -3.9462,4.3235 -3.9462,4.987 0,0.6635 -1.2234,2.8012 -2.7189,4.7505 -3.8041,4.95892 -11.8215,17.43432 -14.274,22.21092 -1.1296,2.2 -4.6683,8.0181 -7.8637,12.9291 -3.1955,4.9109 -5.81,9.4409 -5.81,10.0666 0,0.6257 -3.6,6.3794 -8,12.786 -4.4,6.4066 -8,12.2057 -8,12.8869 0,0.6813 -1.6928,3.2095 -3.7618,5.6184 -3.8453,4.477 -16.1973,22.3877 -23.824,34.5454 -2.3388,3.7284 -5.1165,7.7663 -6.1725,8.9732 -1.9436,2.2212 -6.2417,10.1138 -6.2417,11.4615 0,2.1871 3.6468,-0.039 10.2662,-6.2671 z m -767.591,-11.3333 c 3.0664,-6.4167 7.0189,-14.517 8.7834,-18.0007 1.7644,-3.4837 3.208,-6.6564 3.208,-7.0504 0,-1.8068 -27.0234,3.788 -27.6703,5.7288 -0.2015,0.6044 -1.572,3.1742 -3.0457,5.7106 -5.2271,8.9968 -7.9535,15.7194 -7.1861,17.7193 0.4277,1.1146 2.9807,2.4082 5.6733,2.8747 2.6925,0.4664 6.3955,1.6899 8.2288,2.7189 1.8334,1.029 4.0308,1.8922 4.8833,1.9182 0.8525,0.026 4.0588,-5.2027 7.1253,-11.6194 z m -280.96692,4.9587 c 10.4271,-1.4894 26.557,-3.8894 35.8443,-5.3334 9.2874,-1.4439 18.5275,-2.6253 20.5338,-2.6253 2.0063,0 6.7092,-1.4978 10.451,-3.3285 3.7417,-1.8307 11.0015,-3.874 16.1329,-4.5407 5.1313,-0.6667 10.7538,-1.7596 12.4944,-2.4286 2.687,-1.0327 1.7813,-1.4546 -6,-2.795 -5.0406,-0.8683 -15.1647,-2.1831 -22.4981,-2.9219 -7.3333,-0.7388 -16.3333,-1.935 -20,-2.6583 -3.6666,-0.7233 -13.5666,-2.2103 -22,-3.3046 -8.4333,-1.0943 -19.1089,-2.6166 -23.7235,-3.3829 -4.6146,-0.7663 -8.9055,-1.0748 -9.5354,-0.6855 -0.6298,0.3893 -3.3969,4.1589 -6.149,8.3769 -2.7521,4.218 -7.61116,11.6498 -10.79796,16.5151 -3.1867,4.8653 -5.7941,9.5153 -5.7941,10.3333 0,2.2142 9.65166,1.8347 31.04166,-1.2206 z M 2042.664,992.5124 c 1.7222,-1.8333 2.5314,-3.3333 1.7981,-3.3333 -0.7333,0 -2.7425,1.5 -4.4648,3.3333 -1.7223,1.8333 -2.5315,3.3333 -1.7981,3.3333 0.7333,0 2.7425,-1.5 4.4648,-3.3333 z M 1033.4045,976.0325 c 1.5093,-3.1972 2.4078,-6.1496 1.9966,-6.5608 -1.3797,-1.3796 -7.5166,5.5778 -10.1287,11.483 -5.5794,12.613 2.028,8.0085 8.1321,-4.9222 z m -125.38382,6.9903 c 1.0967,-1.0971 0.9385,-1.701 -0.6004,-2.2915 -1.1493,-0.441 -2.0897,-0.2207 -2.0897,0.4896 0,0.7103 -1.2,1.2915 -2.6666,1.2915 -1.4667,0 -2.6667,0.4779 -2.6667,1.0619 0,1.5928 6.3136,1.1588 8.0234,-0.5515 z m 94.38002,-3.1061 c 3.7491,-5.071 2.149,-5.9569 -7.42262,-4.109 -14.5316,2.8053 -14.6847,2.8592 -11.6475,4.0971 1.4667,0.5977 4.9167,1.129 7.6667,1.1805 2.75,0.052 5,0.6938 5,1.4271 0,2.68 3.574,1.2312 6.40342,-2.5957 z m 192.4566,0.5038 c 1.7271,-1.8839 5.7171,-5.9069 8.8668,-8.94 7.8159,-7.5264 10.7621,-12.7011 11.2195,-19.7052 0.4301,-6.5901 1.029,-6.3805 -10.5656,-3.6977 -6.801,1.5735 -7.0427,1.797 -11.0694,10.2267 -4.906,10.2704 -7.0846,25.5414 -3.6441,25.5414 1.1291,0 3.4659,-1.5413 5.1928,-3.4252 z m -224.29682,-9.972 c -1.1285,-0.6975 -0.6296,-1.2411 1.554,-1.6932 2.513,-0.5204 2.3441,-0.6197 -0.7725,-0.4544 -2.5579,0.1356 -4.1401,1.0109 -4.4109,2.4403 -0.3203,1.6897 0.2686,2.0481 2.4346,1.4817 2.004,-0.5241 2.3608,-1.0539 1.1948,-1.7744 z M 1858.664,944.4269 c 6.9666,-10.6602 14.5792,-22.202 16.9166,-25.6484 15.4247,-22.7421 29.75,-45.31202 29.75,-46.87192 0,-0.6545 2.1378,-3.9906 4.7507,-7.4136 5.4648,-7.15927 8.0565,-12.28456 6.8315,-13.50959 -0.468,-0.46807 -1.8584,-0.0155 -3.0896,1.00564 -2.4823,2.05881 -16.4926,23.32135 -16.4926,25.02975 0,0.5942 -1.2877,2.2233 -2.8616,3.62032 -1.5738,1.397 -4.8149,5.5399 -7.2022,9.2066 -2.3875,3.6667 -5.536,7.9231 -6.9967,9.4588 -1.4608,1.5356 -3.7057,4.8356 -4.9888,7.3333 -1.2831,2.4977 -5.4679,9.3413 -9.2997,15.2079 -3.8319,5.8667 -9.4939,15.7667 -12.5822,22 -3.0882,6.2334 -6.4672,12.9259 -7.5086,14.8724 -1.0414,1.9465 -1.8935,3.8965 -1.8935,4.3333 0,2.901 3.5227,-1.5723 14.6667,-18.6245 z m -621.3334,12.5318 c 1.8334,-3.015 5.0564,-7.2258 7.1624,-9.3573 4.0611,-4.1101 4.005,-5.8508 -0.1462,-4.5333 -2.833,0.8992 -11.2026,11.8545 -12.563,16.4443 -1.4778,4.9861 1.9108,3.426 5.5468,-2.5537 z m 50.0274,-7.8658 c 0.4374,-1.3785 3.1604,-4.5306 6.0508,-7.0047 6.229,-5.3319 6.6541,-7.5758 1.435,-7.5758 -4.7273,0 -10.8465,4.6173 -10.8465,8.1844 0,1.4617 -0.6277,3.8305 -1.3949,5.2641 -0.7674,1.4336 -1.0482,3.168 -0.624,3.8541 1.139,1.8431 4.4648,0.1603 5.3796,-2.7221 z m 645.7776,-7.9942 c 4.3388,-2.9775 13.0144,-10.7943 19.279,-17.3708 9.8672,-10.3583 11.7819,-13.1556 14.319,-20.9197 1.6108,-4.9294 4.0437,-11.0625 5.4065,-13.6292 1.3627,-2.5666 3.0965,-6.1666 3.8528,-8 1.1685,-2.83242 4.012,-8.25522 12.9344,-24.66664 0.7973,-1.46666 2.1445,-4.16666 2.9939,-6 0.8492,-1.83333 3.2818,-6.54413 5.406,-10.46844 l 3.8618,-7.1351 -4.9292,0.99332 c -2.711,0.54633 -6.7292,0.9586 -8.9292,0.91613 -3.7224,-0.0719 -3.653,0.0165 1,1.27424 2.75,0.74328 5,1.81281 5,2.37675 0,0.56393 -2.25,1.38116 -5,1.81608 -5.704,0.90208 -6.8372,1.164 -14.7353,3.40565 -3.1544,0.89529 -6.0993,2.64636 -6.5444,3.89125 -0.4449,1.2449 -2.964,5.23958 -5.598,8.87706 -5.3459,7.38276 -7.3655,10.63138 -9.3771,15.08378 -0.753,1.6669 -3.478,6.3273 -6.0554,10.35652 -6.2848,9.8246 -16.7946,30.8287 -18.3199,36.6128 -4.9447,18.7503 -5.9755,28 -3.1203,28 0.3667,0 4.2167,-2.4361 8.5554,-5.4137 z m -717.1383,0.6683 c 0,-1.1433 -0.6097,-1.7018 -1.3551,-1.2412 -0.7453,0.4606 -1.0098,1.3961 -0.588,2.0787 1.143,1.8494 1.9431,1.5046 1.9431,-0.8375 z m 37.3333,-5.9213 c 0,-0.7333 -1.5,-1.3333 -3.3333,-1.3333 -1.8333,0 -3.3333,0.6 -3.3333,1.3333 0,0.7334 1.5,1.3334 3.3333,1.3334 1.8333,0 3.3333,-0.6 3.3333,-1.3334 z m 80,-10.0787 c 0,-1.1433 -0.6097,-1.7018 -1.355,-1.2412 -0.7454,0.4606 -1.0099,1.3961 -0.588,2.0787 1.1429,1.8494 1.943,1.5046 1.943,-0.8375 z m 652.6667,-4.3015 c 2.9333,-2.5812 9.7431,-9.2516 15.1328,-14.8231 9.3007,-9.6145 10.0311,-10.8287 14.3531,-23.8584 2.5045,-7.55062 7.8905,-20.38172 11.9688,-28.51356 4.0782,-8.13184 7.9909,-16.35406 8.6948,-18.27162 1.2617,-3.43732 1.2318,-3.4301 -2.1242,0.51354 -1.8721,2.2 -4.3641,5.75623 -5.5376,7.90274 -2.9954,5.47898 -10.9149,16.7995 -14.526,20.76388 -1.6698,1.8334 -4.1444,5.4904 -5.4989,8.1267 -2.5208,4.9063 -4.5171,7.80912 -18.4992,26.90042 -7.6364,10.4267 -15.2969,23.7073 -15.2969,26.5192 0,2.2929 5.8196,-0.408 11.3333,-5.2598 z m -619.3333,-0.2864 c 0,-0.7334 -0.9,-1.3334 -2,-1.3334 -1.1,0 -2,0.6 -2,1.3334 0,0.7333 0.9,1.3333 2,1.3333 1.1,0 2,-0.6 2,-1.3333 z m 80,-12 c 0,-0.7334 -0.6,-1.3334 -1.3334,-1.3334 -0.7333,0 -1.3333,0.6 -1.3333,1.3334 0,0.7333 0.6,1.3333 1.3333,1.3333 0.7334,0 1.3334,-0.6 1.3334,-1.3333 z m -33.5215,-2.0948 c 8.3299,-0.3007 20.6299,-1.3759 27.3333,-2.3893 6.7035,-1.0134 13.3882,-1.8287 14.8548,-1.8117 5.4722,0.063 14.8531,-1.9877 20.5512,-4.4931 6.7106,-2.9505 18.7214,-5.8687 29.4488,-7.1552 4.0334,-0.4837 15.7334,-2.0449 26,-3.4693 10.2667,-1.4245 24.6667,-3.1786 32,-3.8981 7.3334,-0.7196 17.5334,-1.9886 22.6667,-2.8201 5.1333,-0.8316 12.9333,-1.6389 17.3333,-1.79402 12.4491,-0.439 28.2695,-2.8814 42.6667,-6.5871 4.4,-1.1324 10.4,-2.1018 13.3333,-2.154 2.9334,-0.052 8.9334,-0.9643 13.3334,-2.0267 4.4,-1.0624 10.7,-1.9391 14,-1.9481 3.3,-0.01 13.2,-1.1724 22,-2.5853 8.8,-1.41285 21.4,-3.25026 28,-4.08308 25.1301,-3.17106 31.1977,-3.98886 49.3333,-6.64926 10.2667,-1.50607 25.0855,-3.34864 32.9308,-4.0946 21.5864,-2.05255 40.7083,-5.87362 43.9208,-8.77662 1.5236,-1.37666 3.7552,-4.3991 4.9592,-6.71653 1.2041,-2.31743 5.6404,-9.33784 9.8587,-15.60092 7.7456,-11.50056 14.6793,-18.18557 18.862,-18.18557 2.5697,0 34.6849,-32.06938 45.3981,-45.33334 7.4396,-9.21105 63.9561,-67.60229 77.4037,-79.97131 4.4,-4.0471 14.9,-14.33109 23.3334,-22.85329 8.4333,-8.52221 17.6552,-17.19908 20.493,-19.28192 7.7136,-5.66135 3.7056,-5.41932 -8.7686,0.52951 -12.6964,6.05484 -19.922,9.36704 -30.6719,14.05986 -4.2991,1.87678 -10.4201,6.12339 -14.0591,9.75388 -15.9162,15.87928 -40.7872,39.22551 -50.8825,47.76327 -6.0699,5.13333 -13.528,11.46895 -16.5736,14.07913 -5.6072,4.80574 -21.8309,16.76374 -38.8707,28.65048 -12.8561,8.96834 -50.7137,28.06246 -74,37.32314 -18.3025,7.27874 -41.9238,14.24048 -56.6666,16.70092 -3.6667,0.61193 -8.1667,1.42085 -10,1.7976 -3.2716,0.67232 -9.3571,1.22816 -32,2.92292 -17.1107,1.28068 -37.2003,-4.59204 -49.6791,-14.52247 -8.9117,-7.09191 -23.586,-22.46725 -26.656,-27.92949 -2.8387,-5.05076 -2.9769,-5.11608 -9.6059,-4.53794 -3.6992,0.32263 -11.5257,1.48402 -17.3924,2.58087 -21.867,4.08832 -37.385,5.29823 -59.4002,4.63133 -24.0047,-0.72716 -29.1034,-1.97562 -40.3,-9.86772 -7.0138,-4.94376 -11.6331,-13.56842 -11.6331,-21.71993 0,-7.29183 8.3895,-25.53188 14.9217,-32.44217 3.9944,-4.22554 5.5892,-5 10.2963,-5 4.1635,0 6.4116,-0.84171 8.9032,-3.33334 1.8333,-1.83333 3.9061,-3.33333 4.6061,-3.33333 2.4314,0 1.253,3.53623 -2.1701,6.51261 -1.9323,1.68011 -3.1215,3.83099 -2.7104,4.90231 0.4781,1.24596 -0.9885,2.7872 -4.2239,4.43839 -6.183,3.15576 -8.35,5.63 -12.7768,14.58957 -6.635,13.42868 -3.5384,23.25125 9.1635,29.06632 10.6265,4.865 37.5711,5.68645 65.3237,1.99153 35.1124,-4.6748 37.5926,-5.6235 35.3294,-13.51472 -0.726,-2.53149 -1.7059,-11.81909 -2.1774,-20.63909 -1.0156,-18.99781 1.1638,-32.22193 8.1763,-49.61268 5.7177,-14.17989 23.3065,-45.7726 26.8119,-48.15933 0.7337,-0.49954 2.6641,-3.09812 4.2897,-5.77463 3.7001,-6.09176 23.5596,-25.04215 32.6809,-31.18478 8.1008,-5.45542 16.1944,-6.29204 19.827,-2.04946 2.0004,2.33624 2.7134,2.41321 7.963,0.85954 6.2712,-1.85602 9.0992,-1.49206 9.0992,1.17106 0,2.0723 -8.103,5.25657 -20.6666,8.12141 -5.1334,1.17055 -11.7334,3.55159 -14.6667,5.2912 -7.2703,4.31162 -16.6667,13.21656 -16.6667,15.79487 0,1.32971 -0.7409,1.82787 -2,1.34472 -1.1,-0.42212 -2,-0.18167 -2,0.53433 0,0.716 -2.4,4.3161 -5.3333,8.0002 -2.9333,3.68412 -5.3333,7.22618 -5.3333,7.87124 0,0.64508 -1.9607,4.15919 -4.3572,7.80912 -6.8991,10.50794 -11.6428,18.96984 -11.6428,20.76871 0,0.91167 -0.823,2.60483 -1.8287,3.76257 -3.868,4.45234 -10.0255,27.5744 -11.0316,41.42503 -0.7711,10.61529 1.3284,35.68144 3.1404,37.49348 1.4824,1.48232 69.0884,-12.09448 91.0532,-18.28552 4.0333,-1.13684 14.2333,-3.59316 22.6667,-5.45851 16.1053,-3.56226 53.68,-14.06286 70.6666,-19.74849 5.5,-1.84091 11.3276,-3.34123 12.9503,-3.33405 1.6227,0.007 10.3227,-2.58967 19.3333,-5.77079 9.0107,-3.18111 21.1831,-7.08973 27.0498,-8.68583 13.0761,-3.5575 36.1172,-12.23552 57.3333,-21.59361 1.4667,-0.64692 5.9667,-2.32043 10,-3.71889 4.0333,-1.39847 14.4155,-5.16959 23.0715,-8.38026 l 15.7381,-5.83757 20.2619,-20.60252 c 11.144,-11.33137 21.8456,-22.73137 23.7812,-25.33333 1.9356,-2.60195 6.4356,-7.75054 10,-11.4413 6.2918,-6.51496 14.3205,-15.96653 31.1094,-36.62285 4.4703,-5.5 9.4819,-11.5 11.1368,-13.33334 1.655,-1.83333 4.7528,-5.73333 6.8843,-8.66666 2.1315,-2.93334 7.3572,-9.28504 11.6128,-14.11491 4.2555,-4.82987 7.7373,-9.45871 7.7373,-10.28631 0,-0.82758 1.2294,-2.87588 2.7319,-4.55174 5.4689,-6.09963 21.2681,-26.89695 21.2681,-27.99623 0,-0.62109 2.25,-4.05235 5,-7.62501 2.75,-3.57267 7.1,-9.57384 9.6667,-13.33594 2.5667,-3.7621 7.4041,-10.27136 10.7499,-14.46502 3.3457,-4.19367 9.0166,-12.12484 12.602,-17.62484 3.5853,-5.5 8.798,-13.05452 11.5834,-16.78783 2.7856,-3.73331 5.0647,-7.19276 5.0647,-7.68768 0,-0.49492 2.6701,-4.6404 5.9337,-9.21218 12.7879,-17.91404 24.733,-36.24792 24.733,-37.96146 0,-0.69899 1.1846,-2.34302 2.6326,-3.65339 1.4479,-1.31037 3.0208,-3.65336 3.4952,-5.20664 0.4744,-1.55329 4.6846,-7.98617 9.3558,-14.29529 4.6713,-6.30914 9.7725,-14.40914 11.3358,-18 1.5634,-3.59088 3.614,-7.42887 4.557,-8.52887 0.9429,-1.1 3.342,-5 5.3313,-8.66667 5.7684,-10.63241 6.468,-11.81657 9.4644,-16.01876 3.3605,-4.71305 16.4924,-29.9714 19.0533,-36.6479 0.9846,-2.56667 3.5334,-8.13406 5.6642,-12.37198 4.0402,-8.03564 11.0525,-27.11188 13.3417,-36.29469 0.7313,-2.93333 2.0217,-6.76175 2.8677,-8.50758 0.8459,-1.74584 1.3574,-4.55302 1.1366,-6.23821 -0.2208,-1.68517 0.8358,-7.06997 2.3481,-11.9662 2.8581,-9.25357 3.7224,-23.28801 1.4341,-23.28801 -2.3568,0 -5.2516,-9.24984 -5.1649,-16.5042 0.2032,-17.011706 -16.7956,-36.675806 -33.5756,-38.839906 -1.1308,-0.1459 -3.4832,-1.0291 -5.2277,-1.9627 -2.6888,-1.439 -3.4134,-1.3672 -4.7578,0.4713 -2.1348,2.9195 -6.7313,2.7328 -11.9378,-0.4851 -3.9614,-2.4482 -5.1619,-2.5394 -15.4908,-1.176 -6.158,0.8128 -13.5966,1.6228 -16.5299,1.7999 -7.7084,0.4654 -22.0267,3.9254 -23.0903,5.5798 -1.1457,1.7823 -8.6142,3.3874 -15.5764,3.3477 -9.5117,-0.054 -54.4496,15.139796 -66.8129,22.590196 -2.2805,1.3743 -6.6388,3.3781 -9.6852,4.4529 -3.0464,1.0748 -9.7493,4.67791 -14.8953,8.00681 -5.146,3.32896 -9.7228,6.05263 -10.1707,6.05263 -0.4479,0 -4.7463,2.48319 -9.5517,5.51819 -4.8056,3.03498 -10.2706,5.95301 -12.1442,6.48449 -1.8737,0.53148 -3.261,1.63515 -3.083,2.45261 0.178,0.81747 -1.322,2.34295 -3.3334,3.38998 -2.0113,1.04702 -5.4569,3.49528 -7.6569,5.44054 -2.2,1.94528 -5.65,4.41718 -7.6667,5.49311 -2.0706,1.10472 -3.6666,3.08385 -3.6666,4.54681 0,1.76347 -0.6434,2.34371 -2.015,1.81738 -1.2046,-0.46227 -4.4629,1.29714 -8.1025,4.37517 -3.3481,2.83161 -11.1239,9.04839 -17.2795,13.81506 -11.0484,8.55549 -29.4024,23.53145 -75.1825,61.34488 -12.8813,10.63968 -25.6041,20.96956 -28.2729,22.95528 -2.6688,1.98572 -15.982,13.53053 -29.5848,25.65512 -13.6028,12.1246 -25.2192,22.07373 -25.8143,22.1092 -0.5951,0.0355 -4.3819,3.82433 -8.4152,8.41969 -4.0333,4.59536 -10.7833,10.86487 -15,13.93224 -4.2167,3.06737 -7.6667,6.40951 -7.6667,7.42697 0,1.01746 -1.4528,2.80182 -3.2284,3.96524 -2.8354,1.85784 -11.6449,10.29154 -53.1766,50.90815 -5.2772,5.1609 -10.5415,10.5609 -11.6983,12 -1.1568,1.43911 -5.6568,5.99194 -10,10.1174 -4.3432,4.12547 -12.9967,13.06008 -19.23,19.8547 -14.4195,15.7179 -14.6763,15.9778 -15.7833,15.9778 -0.5094,0 -2.8675,2.9655 -5.2403,6.59002 -2.3728,3.62451 -7.9132,9.75799 -12.312,13.62995 -4.3988,3.87195 -7.9977,7.76289 -7.9977,8.64653 0,0.88364 -1.3822,2.70016 -3.0715,4.03672 -5.7296,4.5332 -31.5952,32.62982 -31.5952,34.32038 0,0.9243 -2.85,4.34088 -6.3333,7.59236 -3.4834,3.25149 -8.7334,8.89805 -11.6667,12.54792 -2.9333,3.64986 -7.4333,8.8072 -10,11.46074 -2.5667,2.65355 -7.6387,8.65355 -11.2711,13.33334 -3.6324,4.67978 -7.8324,9.76953 -9.3333,11.31054 -1.5009,1.54102 -5.7289,6.54546 -9.3956,11.12098 -3.6667,4.57553 -7.6517,8.85103 -8.8556,9.50112 -1.2039,0.65008 -3.9909,4.34564 -6.1933,8.21235 -2.2024,3.86672 -8.7175,12.47786 -14.4778,19.1359 -9.2592,10.70216 -15.0365,18.10856 -21.8066,27.95542 -1.1,1.5999 -4.5464,6.1407 -7.6586,10.09065 -8.5172,10.80988 -9.857,12.58721 -22.0666,29.27024 -6.2075,8.482 -12.2668,17.182 -13.465,19.33333 -2.7698,4.97315 -15.2477,23.22695 -21.7806,31.86279 -2.7535,3.63987 -7.3595,10.53987 -10.2354,15.33333 -2.876,4.79347 -7.1142,11.11539 -9.4185,14.04872 -2.3041,2.93334 -4.8928,6.83334 -5.7524,8.66667 -0.8597,1.83333 -2.9265,5.53887 -4.5929,8.23452 -9.9076,16.02624 -13.03,21.42468 -13.03,22.52771 0,0.68077 -0.5672,1.23777 -1.2606,1.23777 -0.6933,0 -2.0433,1.41938 -3,3.15416 -4.8892,8.8657 -9.3618,16.68022 -12.0633,21.07695 -18.1061,29.46711 -18.6291,30.37121 -26.2023,45.29093 -3.5888,7.0704 -8.2012,15.7151 -10.2496,19.2104 l -3.7242,6.355 5.9166,-0.9843 c 3.2542,-0.5414 12.732,-1.2305 21.0619,-1.5312 z m 679.6664,-773.6708 c -0.4703,-0.76095 -0.2053,-1.7851 0.5887,-2.27587 1.9814,-1.22461 2.6829,-0.25067 1.3605,1.88901 -0.7084,1.14631 -1.3956,1.28268 -1.9492,0.38686 z m -637.1727,774.96 c -0.443,-0.4431 -1.593,-0.4904 -2.5556,-0.1052 -1.0636,0.4256 -0.7477,0.7416 0.8056,0.8055 1.4055,0.058 2.1931,-0.2572 1.75,-0.7003 z m 586.595,-16.1638 c 4.8482,-4.8408 7.4341,-8.7094 8.4665,-12.6667 2.4749,-9.48582 7.9109,-22.30796 15.4645,-36.47654 3.9427,-7.39526 7.1684,-15.15994 7.1684,-17.25484 0,-3.63538 -0.089,-3.691 -1.9576,-1.22076 -1.0766,1.42349 -1.9766,3.61706 -2,4.8746 -0.023,1.25753 -1.1922,2.90178 -2.5976,3.6539 -1.4053,0.75214 -5.623,7.3727 -9.3726,14.71239 -3.7496,7.33969 -8.1499,15.38687 -9.7782,17.88263 -3.2469,4.9765 -11.9414,18.66222 -16.5694,26.08142 -1.6183,2.5941 -2.9683,6.0537 -3,7.688 -0.053,2.7497 0.2126,2.8492 3.5689,1.3333 1.9948,-0.9009 6.7679,-4.7743 10.6071,-8.6074 z m 36.4328,-4.0038 c 18.9424,-19.99822 25.6052,-28.96091 29.3126,-39.43099 1.3495,-3.81107 3.7063,-9.45023 5.2372,-12.53147 4.4528,-8.96212 4.079,-9.50453 -4.495,-6.52048 -3.8248,1.33118 -5.6608,2.91668 -6.6667,5.75708 -1.9873,5.61187 -23.868,37.92644 -30.0071,44.31596 -2.8465,2.9627 -5.8941,7.6358 -6.7726,10.3848 -0.8784,2.7491 -2.1247,5.5682 -2.7695,6.2649 -0.6448,0.6967 -1.1723,2.3621 -1.1723,3.7009 0,2.2294 0.3086,2.2736 3.6667,0.5255 2.0167,-1.0498 8.1667,-6.6596 13.6667,-12.4662 z m -487,0.054 c -1.2834,-0.3353 -3.3834,-0.3353 -4.6667,0 -1.2833,0.3354 -0.2333,0.6098 2.3333,0.6098 2.5667,0 3.6167,-0.2744 2.3334,-0.6098 z m 30.6666,-2.5097 c 1.65,-0.3421 3,-1.551 3,-2.6864 0,-1.5174 -0.795,-1.8272 -3,-1.169 -13.5554,4.0462 -16.4994,4.943 -17.6666,5.3815 -1.6852,0.6331 13.635,-0.6903 17.6666,-1.5261 z m -20.0277,-0.043 c -0.4431,-0.443 -1.5931,-0.4904 -2.5556,-0.1052 -1.0636,0.4257 -0.7477,0.7416 0.8056,0.8056 1.4055,0.058 2.1931,-0.2572 1.75,-0.7003 z m 65.3333,-8.00002 c -0.443,-0.443 -1.593,-0.4904 -2.5556,-0.1052 -1.0636,0.4257 -0.7477,0.7416 0.8056,0.8056 1.4055,0.058 2.1931,-0.2572 1.75,-0.7003 z m 334.8826,-14.56744 c 3.7465,-5.52184 6.8118,-10.36188 6.8118,-10.75563 0,-0.39375 1.4574,-2.62655 3.2386,-4.96176 1.781,-2.33521 4.4821,-7.24519 6.0022,-10.91104 l 2.7639,-6.66519 -3.4295,4 c -9.2341,10.7705 -25.7984,39.33336 -22.8102,39.33336 0.3362,0 3.6766,-4.5179 7.4232,-10.03974 z m 123.1732,3.03974 c 3.1578,-3.11669 7.2982,-7.76669 9.2009,-10.33336 1.9027,-2.56666 9.2296,-10.50441 16.2819,-17.63944 7.0524,-7.13502 12.8225,-13.3327 12.8225,-13.77261 0,-0.43991 -1.8036,-0.40368 -4.008,0.0805 -2.2045,0.48418 -6.7093,1.06243 -10.0109,1.28502 -3.3015,0.22257 -6.892,1.14268 -7.9788,2.04466 -4.4363,3.68178 -20.8967,30.733 -24.5436,40.33523 -2.1278,5.6021 1.402,4.745 8.236,-2 z m -391.6616,2.9465 c 0.5621,-0.9096 -0.4431,-1.0744 -2.9214,-0.4791 -5.1085,1.2273 -5.5921,1.8659 -1.4126,1.8659 1.9122,0 3.8625,-0.624 4.334,-1.3868 z m 22.9392,-3.4188 c -0.4431,-0.443 -1.5931,-0.4904 -2.5556,-0.1052 -1.0636,0.4257 -0.7478,0.7416 0.8056,0.8056 1.4054,0.058 2.193,-0.2572 1.75,-0.7003 z m 5.3333,0 c -0.4431,-0.443 -1.5931,-0.4904 -2.5556,-0.1052 -1.0636,0.4257 -0.7477,0.7416 0.8056,0.8056 1.4055,0.058 2.1931,-0.2572 1.75,-0.7003 z m 326.9695,-31.19442 c -0.029,-1.16526 -2.2543,0.43664 -5.3298,3.83815 -2.9033,3.21097 -5.253,6.81097 -5.2218,8 0.036,1.38188 1.9593,-0.003 5.3297,-3.83815 2.9001,-3.3 5.25,-6.9 5.2219,-8 z m -140.6084,4 c 0.4532,-0.73333 0.1886,-1.33333 -0.588,-1.33333 -0.7766,0 -1.412,0.6 -1.412,1.33333 0,0.73334 0.2645,1.33334 0.588,1.33334 0.3233,0 0.9588,-0.6 1.412,-1.33334 z m -42.0522,-0.85625 c 2.3548,-0.47093 4.6479,-1.82093 5.0959,-3 0.448,-1.17907 2.1348,-3.18884 3.7485,-4.46617 1.6136,-1.27735 5.0815,-5.55775 7.7062,-9.51202 7.0516,-10.62368 16.1346,-19.49889 19.9557,-19.49889 1.7711,0 5.3935,0.90805 8.0497,2.01789 3.7435,1.56416 4.8295,2.77534 4.8295,5.38646 0,3.85336 -4.0887,12.53024 -8.9728,19.04177 -4.3461,5.79415 -2.6756,7.61849 4.8429,5.28897 4.5476,-1.40897 6.141,-2.81645 8.478,-7.48845 1.5828,-3.16436 4.852,-8.05973 7.2648,-10.87863 2.413,-2.81888 4.3871,-5.50561 4.3871,-5.9705 0,-0.4649 2.4432,-4.08126 5.4293,-8.03635 9.408,-12.46075 17.8128,-17.11432 25.5707,-14.15784 5.4961,2.09452 4.726,6.47089 -2.6667,15.154 -3.4833,4.09139 -7.8333,9.63811 -9.6666,12.32603 -1.8334,2.68792 -5.0422,6.93002 -7.1308,9.42688 -3.27,3.9092 -3.493,4.65662 -1.6047,5.38118 1.206,0.46279 5.0148,0.40594 8.4641,-0.12626 3.4492,-0.53227 8.5263,-1.05716 11.2823,-1.16643 4.5153,-0.179 5.4387,-0.88372 9.3333,-7.12332 7.7146,-12.35896 22.3595,-30.66422 25.7795,-32.22246 1.8343,-0.83574 4.6568,-1.5173 6.2724,-1.51456 3.1468,0.005 11.6167,4.61787 11.5844,6.30875 -0.044,2.33555 -4.0807,12.29662 -8.5171,21.0196 -8.5821,16.87404 -4.6857,13.94332 7.1367,-5.36806 7.1856,-11.73721 21.6541,-26.64234 27.2175,-28.03865 3.7276,-0.93556 10.1824,2.18948 10.1824,4.9297 0,1.74976 -8.7939,16.7024 -12.043,20.47701 -2.592,3.01136 -5.9433,12.45812 -4.8186,13.5828 2.2458,2.24595 7.9188,-1.62676 12.598,-8.60032 11.6937,-17.42747 13.849,-20.29089 17.7326,-23.5588 5.3207,-4.47699 13.6902,-5.02748 19.531,-1.28463 3.698,2.36974 3.775,5.11018 0.3333,11.86095 -1.4667,2.87679 -2.6667,5.75902 -2.6667,6.40495 0,0.64595 -1.2338,2.74311 -2.742,4.66037 -1.7909,2.27679 -2.4734,4.55603 -1.9677,6.571 0.4259,1.69679 0.1581,4.23635 -0.5949,5.64346 -0.7774,1.45252 -0.857,2.87497 -0.1842,3.29078 0.6518,0.40283 4.6363,-4.51076 8.8544,-10.91908 22.9708,-34.89775 25.8122,-37.7356 35.624,-35.58055 3.6675,0.80551 3.923,1.23032 3.2467,5.398 -0.9477,5.84062 -9.5521,23.49862 -12.9477,26.57155 -3.3403,3.02296 -3.5336,6.59872 -0.2886,5.33908 1.2834,-0.49816 6.5334,-1.2442 11.6667,-1.65786 5.1333,-0.41367 10.3759,-1.28738 11.65,-1.94156 1.2741,-0.6542 4.5039,-4.62235 7.1772,-8.81812 2.6733,-4.19578 5.2447,-7.92869 5.7141,-8.29535 0.4695,-0.36667 1.9036,-2.31667 3.187,-4.33334 1.5472,-2.43146 3.4786,-3.66666 5.7333,-3.66666 2.3257,0 4.9493,-1.76815 8.3027,-5.59571 2.6962,-3.07763 8.2024,-9.32132 12.2357,-13.87485 4.0333,-4.55354 9.7333,-11.40694 12.6667,-15.22979 8.6093,-11.22011 28.8413,-34.53855 41.5998,-47.94599 4.5466,-4.77785 9.9466,-10.8741 12,-13.54724 5.1038,-6.64401 14.9299,-18.1571 27.7152,-32.47309 5.8943,-6.6 13.0575,-14.7 15.9182,-18 2.8605,-3.3 9.7484,-10.8 15.3062,-16.66667 5.5578,-5.86666 15.3135,-16.44281 21.6794,-23.50254 6.3657,-7.05974 12.9708,-14.30626 14.6777,-16.10337 1.7069,-1.79712 8.5035,-8.94226 15.1035,-15.8781 6.6,-6.93584 16.4312,-17.68932 21.8472,-23.89664 5.416,-6.20731 18.616,-20.52136 29.3333,-31.809 10.7173,-11.28766 21.4441,-22.68766 23.8373,-25.33334 14.5178,-16.04988 31.6196,-33.97562 50.3155,-52.73928 46.7129,-46.88246 85.0245,-86.15744 84.5259,-86.65152 -0.758,-0.75119 -8.5299,3.32356 -18.5259,9.71297 -4.7667,3.04686 -10.1667,6.14887 -12,6.89335 -5.0757,2.06115 -13.7464,6.81985 -16.1049,8.83889 -1.1578,0.99106 -2.776,1.80191 -3.5962,1.80191 -1.5902,0 -13.0018,5.81699 -15.5334,7.91805 -2.5371,2.10554 -51.1868,26.10813 -66.0988,32.61153 -7.7,3.3581 -17,7.67474 -20.6667,9.59253 -3.6667,1.91777 -28.8667,15.0512 -56,29.18537 -53.4752,27.85606 -61.5784,32.26499 -62.7328,34.13282 -0.4168,0.6745 -1.8295,1.22637 -3.1392,1.22637 -1.3097,0 -3.4365,1.16599 -4.7263,2.59109 -1.2897,1.42511 -4.0534,2.96636 -6.1418,3.42503 -2.0883,0.45867 -7.276,3.07367 -11.5284,5.81109 -4.2523,2.73743 -11.6315,6.87924 -16.3982,9.20404 -4.7666,2.3248 -11.6666,5.93502 -15.3333,8.02271 -3.6667,2.08768 -10.8667,6.1062 -16,8.93003 -5.1333,2.82382 -11.7333,6.64808 -14.6667,8.49834 -2.9333,1.85028 -9.2333,5.42484 -14,7.94348 -4.7666,2.51864 -13.1666,7.0176 -18.6666,9.99768 -5.5,2.9801 -13.4192,7.25394 -17.5984,9.49743 -4.1791,2.24349 -13.2895,7.22875 -20.2454,11.07832 -6.9558,3.84959 -22.3769,11.78839 -34.269,17.64176 -11.8923,5.85339 -22.5819,11.51084 -23.7547,12.57212 -1.1729,1.06128 -4.8995,3.11556 -8.2813,4.56508 -3.3819,1.44952 -7.8819,4.18998 -10,6.0899 -2.1182,1.89993 -10.1343,9.00685 -17.8138,15.79316 -7.6793,6.7863 -17.964,16.23874 -22.8549,21.00541 -31.7917,30.98444 -38.5159,37.76103 -38.5159,38.81613 0,0.65114 -0.45,1.19259 -1,1.20324 -1.4212,0.0275 -16.9568,14.84756 -18.4849,17.63358 -0.6999,1.2758 -5.8315,7.03928 -11.4037,12.80773 -5.5722,5.76847 -11.1708,12.07464 -12.4414,14.01372 -1.2705,1.93908 -3.1498,3.5256 -4.1762,3.5256 -1.0264,0 -2.908,1.71297 -4.1812,3.80661 -1.2732,2.09363 -4.2644,5.44698 -6.6471,7.45186 -2.3827,2.00489 -4.3321,4.42772 -4.3321,5.38406 0,0.95636 -0.8322,2.05816 -1.8492,2.44844 -1.0171,0.3903 -6.2468,6.00448 -11.6218,12.47599 -5.3748,6.47151 -14.624,17.16637 -20.5538,23.76637 -8.7327,9.71969 -28.6419,39.30011 -28.6419,42.55521 0,1.04073 9.268,0.9912 14.6145,-0.0781 z m 249.3076,-145.67023 c -10.8894,-3.53275 -17.2554,-9.56221 -17.2554,-16.34344 0,-10.6876 8.519,-27.61311 17.6288,-35.02475 13.5917,-11.05809 22.5748,-15.67904 24.4817,-12.59358 1.3939,2.25534 6.2411,1.1011 11.0309,-2.62679 8.0314,-6.25067 16.2628,-10.07327 31.7895,-14.76263 16.0551,-4.84896 21.8383,-5.03785 30.1243,-0.98386 6.1894,3.02824 7.7205,4.6022 11.3814,11.70064 7.2202,13.99957 5.4924,24.2018 -6.2932,37.16049 -10.2638,11.28549 -12.8152,13.68775 -18.097,17.04015 -7.3506,4.66533 -23.8803,10.495 -38.4403,13.55701 -13.6935,2.87979 -41.0984,4.58068 -46.3507,2.87676 z m 52.7446,-18.71339 c 16.4732,-4.26017 29.0874,-11.00889 34.5709,-18.49569 2.5237,-3.44567 5.5516,-7.3388 6.7287,-8.65141 2.374,-2.64722 4.7004,-8.09791 4.7004,-11.01252 0,-1.0407 -1.6691,-3.76022 -3.7091,-6.04339 -6.5267,-7.30459 -22.3619,-6.91603 -44.0407,1.08067 -3.8756,1.42957 -8.1112,4.76796 -12.9941,10.24137 -7.6759,8.60445 -8.2288,10.19352 -5.3528,15.3866 3.8543,6.95976 -1.5895,9.06967 -8.4677,3.28199 -2.4922,-2.097 -4.1023,-4.71368 -4.1023,-6.66667 0,-1.76815 -0.7113,-3.21481 -1.5807,-3.21481 -2.0058,0 -7.7526,5.33956 -7.7526,7.20324 0,0.77278 -2.4,3.59889 -5.3334,6.28021 -5.932,5.42244 -7.4501,12.35 -3,13.69063 5.6832,1.71212 39.899,-0.38175 50.3334,-3.08022 z m -178.05,144.90614 c 0.028,-0.55 -0.4354,-1 -1.0286,-1 -2.319,0 -5.3169,3.54888 -6.758,8 l -1.5106,4.66667 4.6234,-5.33334 c 2.5431,-2.93333 4.6462,-5.78333 4.6738,-6.33333 z m 136.05,2.41203 c 0,-2.64762 -1.3348,-3.09226 -6,-1.99859 -3.0398,0.7126 -3.2987,0.97559 -1.0787,1.09548 1.6067,0.0868 3.2921,0.75775 3.7453,1.49108 1.2262,1.98383 3.3334,1.61212 3.3334,-0.58797 z m 542.3056,-2.88426 c -0.4431,-0.44305 -1.5931,-0.49041 -2.5556,-0.1052 -1.0636,0.42563 -0.7478,0.74158 0.8056,0.80555 1.4054,0.0579 2.193,-0.25724 1.75,-0.70029 z m -461.7094,-4.64165 c -0.4293,-0.69463 -1.3488,-0.91171 -2.0434,-0.4824 -0.6947,0.42929 -0.9118,1.34887 -0.4824,2.04349 0.4293,0.69463 1.3488,0.91171 2.0434,0.4824 0.6947,-0.42929 0.9118,-1.34886 0.4824,-2.04349 z m 336.7371,1.44721 c 0,-0.73333 -1.05,-1.32414 -2.3333,-1.31292 -1.994,0.0175 -2.0426,0.20835 -0.3334,1.31292 2.5163,1.62615 2.6667,1.62615 2.6667,0 z m 18.6667,0 c 0,-0.73333 -0.9355,-1.33333 -2.0787,-1.33333 -1.1433,0 -1.7079,0.6 -1.2547,1.33333 0.4532,0.73334 1.3887,1.33334 2.0787,1.33334 0.6901,0 1.2547,-0.6 1.2547,-1.33334 z m -328.3698,-2.20014 c 0.3234,-0.98546 -1.9488,-1.70022 -6.3578,-2 -7.3682,-0.501 -9.4278,0.51478 -5.6338,2.7786 2.9971,1.78834 11.327,1.2475 11.9916,-0.7786 z m 52.3698,-3.13319 c 0,-0.73333 -0.6,-1.33333 -1.3334,-1.33333 -0.7333,0 -1.3333,0.6 -1.3333,1.33333 0,0.73333 0.6,1.33333 1.3333,1.33333 0.7334,0 1.3334,-0.6 1.3334,-1.33333 z m -574.6667,-20.21231 c 26.6673,-3.47084 54.8272,-10.16533 68,-16.16569 4.0333,-1.83724 10.3333,-4.34431 14,-5.57127 12.0695,-4.03873 46.3331,-22.25615 63.8039,-33.9236 9.4385,-6.30325 20.0809,-13.26047 23.6498,-15.46047 3.5688,-2.2 10.1144,-7.5011 14.5458,-11.78025 4.4313,-4.27913 12.0942,-11.08212 17.0288,-15.11776 20.924,-17.11257 37.7033,-34.02637 26.4245,-26.63617 -1.8135,1.1882 -5.5821,2.98144 -8.3749,3.98498 -2.7928,1.00354 -13.1779,4.84495 -23.0779,8.53648 -9.9,3.69152 -23.1,8.3362 -29.3333,10.32152 -6.2334,1.98531 -12.8334,4.21463 -14.6667,4.95403 -8.5279,3.43935 -40.7243,13.82828 -57.7715,18.64132 -10.3924,2.93415 -21.8952,6.20692 -25.5618,7.27285 -3.6667,1.06592 -9.0667,2.45859 -12,3.09479 -2.9334,0.63621 -11.3334,2.75437 -18.6667,4.70701 -7.3333,1.95264 -16.9333,4.3526 -21.3333,5.33326 -4.4,0.98064 -13.1,3.03238 -19.3334,4.55941 -6.2333,1.52703 -15.8333,3.73183 -21.3333,4.89955 -5.5,1.16772 -13.5587,3.00466 -17.908,4.0821 -4.3495,1.07743 -11.8495,2.31502 -16.6667,2.75019 -4.8173,0.43519 -9.9421,1.60247 -11.3886,2.59396 -1.4466,0.99151 -4.2475,1.80273 -6.2243,1.80273 -11.5192,0 -10.6393,5.19536 3.2189,19.0063 12.5242,12.48145 18.9903,16.41953 32.302,19.67308 10.0368,2.45312 9.7659,2.4635 40.6667,-1.55835 z m 520.1701,-78.12103 c 1.6584,-2.11474 1.6114,-2.1619 -0.5034,-0.50341 -2.221,1.74183 -2.9274,2.83675 -1.8299,2.83675 0.2768,0 1.3268,-1.05 2.3333,-2.33334 z m -1263.5034,-95.06 c 1.4666,-1.31637 5.3666,-3.43448 8.6666,-4.70688 3.3,-1.2724 6.9,-3.00681 8,-3.85426 1.1,-0.84744 5.9,-3.56556 10.6667,-6.04026 8.9117,-4.62668 21.1314,-12.71885 41.2829,-27.3386 2.0216,-1.46667 5.4,-3.86667 7.5077,-5.33333 3.7103,-2.58198 6.2876,-4.73951 11.8761,-9.9421 1.4666,-1.36538 7.1666,-6.17958 12.6666,-10.69821 9.3043,-7.64404 41.4262,-37.40948 51.8287,-48.02636 17.7716,-18.13804 21.5047,-22.23575 21.5047,-23.60531 0,-0.85157 1.224,-1.93682 2.7201,-2.41165 1.496,-0.47483 5.1352,-3.96525 8.0871,-7.75651 2.9518,-3.79126 16.6422,-18.5932 30.423,-32.8932 13.7808,-14.3 27.0916,-28.38728 29.5796,-31.30505 2.4879,-2.91779 6.0235,-6.60299 7.8568,-8.18935 3.1487,-2.72453 6.3372,-5.93958 30.6667,-30.92203 5.5,-5.64761 13.128,-13.8643 16.9511,-18.25932 3.823,-4.395 15.823,-17.10209 26.6666,-28.23797 28.1508,-28.90956 46.1131,-48.10373 47.6876,-50.95824 0.7488,-1.35727 7.2852,-8.80415 14.5256,-16.54861 7.2404,-7.74447 14.3612,-16.06803 15.8242,-18.4968 1.4628,-2.42879 5.4389,-7.51934 8.8357,-11.31235 9.0141,-10.06569 19.7901,-23.44413 25.8393,-32.07964 2.9107,-4.15525 7.5328,-10.28553 10.2714,-13.62283 2.7385,-3.33729 6.1234,-7.95827 7.5221,-10.26881 1.3987,-2.31055 5.1391,-8.49406 8.312,-13.74114 3.1729,-5.24708 7.3208,-14.75662 9.2173,-21.13233 3.2416,-10.89723 3.361,-12.28904 1.9914,-23.21544 -2.4624,-19.642696 -5.0576,-22.007896 -19.5318,-17.800196 -3.9542,1.1496 -9.0118,2.0901 -11.239,2.0901 -2.2272,0 -4.3902,0.5513 -4.8067,1.2252 -0.4164,0.6739 -4.6753,3.4164 -9.4643,6.0945 -6.5218,3.647196 -9.6334,4.665696 -12.3988,4.058396 -9.2045,-2.021696 -42.0136,18.75771 -97.1184,61.50925 -16.4124,12.73303 -52.4186,45.03841 -52.4186,47.03078 0,0.63048 -3.45,4.98581 -7.6667,9.67852 -4.2167,4.69271 -9.6205,10.9032 -12.0085,13.80111 -7.4547,9.0462 -11.5568,13.84896 -14.474,16.94609 -1.5487,1.64423 -5.1024,6.58949 -7.8971,10.98949 -2.7948,4.4 -7.3776,10.73862 -10.1843,14.08582 -2.8065,3.34718 -5.1028,6.55276 -5.1028,7.12348 0,0.57072 -2.1281,3.8321 -4.7293,7.24752 -8.5693,11.2521 -13.2424,17.77726 -15.2911,21.35154 -1.1113,1.93874 -4.4302,6.82498 -7.3754,10.85831 -8.4663,11.59407 -9.96,14.36413 -9.13,16.93013 0.6017,1.86018 0.4786,1.98358 -0.5448,0.5461 -1.0408,-1.46206 -2.0488,-0.70588 -4.7384,3.55458 -1.879,2.97643 -4.0651,5.81268 -4.858,6.30278 -0.7931,0.4901 -6.8023,9.09053 -13.3539,19.11208 -6.5517,10.02154 -13.0227,19.421 -14.3799,20.88767 -1.3573,1.46666 -4.5201,5.96666 -7.0286,10 -2.5084,4.03333 -5.2823,8.23333 -6.164,9.33333 -0.8818,1.1 -6.1262,8.9 -11.6542,17.33333 -5.5281,8.43334 -10.6428,16.23334 -11.366,17.33334 -0.7233,1.1 -3.731,5.67565 -6.684,10.16812 -2.953,4.49248 -5.369,8.56012 -5.369,9.03922 0,0.47911 -2.25,3.81483 -5,7.41272 -2.75,3.59791 -8.6,12.34208 -13,19.43154 -4.4,7.08944 -9.326,14.77805 -10.9465,17.08581 -1.6206,2.30776 -4.2064,6.29592 -5.7462,8.86259 -1.5399,2.56666 -6.0269,9.76666 -9.9712,16 -3.9444,6.23333 -9.916,15.83333 -13.2702,21.33333 -3.3543,5.5 -8.471,13.6 -11.3704,18 -2.8995,4.4 -6.0132,9.5 -6.9194,11.33333 -0.9062,1.83334 -4.4334,7.53334 -7.8382,12.66667 -12.2298,18.43874 -14.60462,22.49451 -14.60462,24.94218 0,2.14646 0.40872,2.27425 3.00002,0.93812 1.65,-0.85078 4.2,-2.62391 5.6667,-3.9403 z m 778.1701,-235.60667 c 1.6584,-2.11475 1.6113,-2.16191 -0.5035,-0.50341 -1.2833,1.00646 -2.3333,2.05646 -2.3333,2.33333 0,1.09739 1.0949,0.39108 2.8368,-1.82992 z m 466.4965,-48.33333 c 0,-0.73334 -0.2645,-1.33334 -0.588,-1.33334 -0.3233,0 -0.9588,0.6 -1.412,1.33334 -0.4532,0.73333 -0.1886,1.33333 0.588,1.33333 0.7766,0 1.412,-0.6 1.412,-1.33333 z M 1201.9973,301.17902 c 0.4532,-0.73333 0.224,-1.33333 -0.5093,-1.33333 -0.7334,0 -1.7042,0.6 -2.1574,1.33333 -0.4532,0.73333 -0.224,1.33333 0.5094,1.33333 0.7333,0 1.7041,-0.6 2.1573,-1.33333 z M 1439.57,93.769314 c 4.9473,-3.3573 7.7024,-5.6907 5.094,-4.3142 -0.7334,0.3869 -3.5834,1.7515 -6.3334,3.0323 -2.75,1.2808 -5,2.8604 -5,3.5102 0,1.766 0.746,1.4996 6.2394,-2.2283 z m 784.3393,779.844766 c -2.8649,-7.5351 2.1048,-15.9849 8.4629,-14.38913 1.8464,0.46343 6.5636,-0.15944 10.4902,-1.38511 8.6226,-2.69161 14.7242,-1.26118 13.5629,3.17966 -0.9468,3.62068 -3.5483,5.68198 -14.2956,11.32688 -11.304,5.9372 -16.3127,6.2857 -18.2204,1.2677 z M 3335.129,831.79939 c -1.0937,-1.10936 -1.1506,-2.76359 -0.1982,-5.75527 0.7352,-2.30913 1.2861,-5.69842 1.2245,-7.53176 -0.2464,-7.32313 3.7873,-8.23989 11.0653,-2.51493 3.3674,2.64871 4.8687,9.1816 2.11,9.1816 -0.7333,0 -1.3333,0.82653 -1.3333,1.83675 0,4.08548 -9.9207,7.77336 -12.8683,4.78361 z m -916.5629,-89.07112 c -4.3392,-4.3393 -5.262,-6.06816 -4.536,-8.49838 1.6967,-5.67886 4.4372,-8.6782 8.7103,-9.5328 6.9298,-1.38598 22.5902,-1.00598 22.5902,0.54815 0,2.5882 -3.8825,8.93672 -5.9506,9.73036 -1.1272,0.43252 -2.0494,2.21224 -2.0494,3.95493 0,3.98075 -3.588,7.29944 -9.0793,8.3977 -3.7077,0.74154 -4.9188,0.16633 -9.6852,-4.59996 z m 139.6604,-3.5105 c -2.6444,-2.64444 -2.616,-2.39773 -0.7488,-6.49578 1.0635,-2.33404 2.9217,-3.47964 6.5975,-4.06743 8.8637,-1.41737 51.9318,-3.65055 57.7188,-2.99284 14.2413,1.6186 19.5366,2.61851 19.5366,3.68908 0,0.63885 0.9,1.16156 2,1.16156 2.4295,0 2.6198,4.00692 0.3334,7.01995 -1.4142,1.86346 -2.9935,2.02728 -10.4226,1.08104 -9.0581,-1.15374 -40.3845,-0.6416 -43.9108,0.71786 -1.1,0.42408 -8.0468,1.07362 -15.4374,1.44342 -11.376,0.56922 -13.7794,0.3304 -15.6667,-1.55686 z M 722.68442,64.924414 c -0.011,-1.9734 0.5796,-3.9588 1.3129,-4.4121 1.7025,-1.0522 1.7025,3.3655 0,6 -1.0109,1.5643 -1.297,1.2184 -1.3129,-1.5879 z"
       id="path293" />
  </g>
</svg>
