<?xml version="1.0" encoding="UTF-8" standalone="no"?>
<!-- Created with Inkscape (http://www.inkscape.org/) -->

<svg
   width="57.200001mm"
   height="22.4mm"
   viewBox="0 0 57.2 22.399999"
   version="1.1"
   id="svg34763"
   inkscape:version="1.2.2 (b0a8486541, 2022-12-01)"
   sodipodi:docname="firma_asercap_02.svg"
   xmlns:inkscape="http://www.inkscape.org/namespaces/inkscape"
   xmlns:sodipodi="http://sodipodi.sourceforge.net/DTD/sodipodi-0.dtd"
   xmlns="http://www.w3.org/2000/svg"
   xmlns:svg="http://www.w3.org/2000/svg">
  <sodipodi:namedview
     id="namedview34765"
     pagecolor="#505050"
     bordercolor="#ffffff"
     borderopacity="1"
     inkscape:showpageshadow="0"
     inkscape:pageopacity="0"
     inkscape:pagecheckerboard="1"
     inkscape:deskcolor="#505050"
     inkscape:document-units="mm"
     showgrid="false"
     inkscape:zoom="4"
     inkscape:cx="190.25"
     inkscape:cy="57.875"
     inkscape:window-width="2512"
     inkscape:window-height="1011"
     inkscape:window-x="0"
     inkscape:window-y="0"
     inkscape:window-maximized="1"
     inkscape:current-layer="layer1" />
  <defs
     id="defs34760" />
  <g
     inkscape:label="Capa 1"
     inkscape:groupmode="layer"
     id="layer1">
    <g
       id="g32158"
       transform="matrix(0.49562935,0,0,0.49629452,-112.58206,-109.60161)"
       style="fill:#1b4d96;fill-opacity:1">
      <path
         style="fill:#1b4d96;fill-opacity:1;stroke-width:0.353553"
         d="m 1080.1418,1002.9219 c -0.2144,-0.4006 -0.3897,-1.0365 -0.3897,-1.4133 0,-0.7547 0.4141,-0.8104 10.7171,-1.4406 4.5191,-0.27642 6.178,-0.67074 5.2458,-1.24689 -0.6116,-0.37799 -7.1037,-1.64756 -9.024,-1.7647 -0.9968,-0.0608 -2.4674,-0.29303 -3.2678,-0.51607 -0.8005,-0.22303 -3.3461,-0.64783 -5.6569,-0.944 -3.9389,-0.50485 -6.4013,-0.70058 -12.8635,-1.02246 -4.1755,-0.20799 -7.9222,-0.62895 -8.3134,-0.93405 -0.4796,-0.37404 -4.4813,-0.55499 -5.0088,-0.22649 -0.2296,0.143 -0.5112,0.10846 -0.6256,-0.0767 -0.1145,-0.1852 -1.4188,-0.60609 -2.8985,-0.93529 -3.9117,-0.87027 -5.1649,-2.51275 -2.7868,-3.65254 1.1892,-0.56994 13.3392,-0.79244 14.4182,-0.26404 0.4611,0.22579 0.6187,0.15506 0.6187,-0.27761 0,-0.46446 0.1368,-0.50739 0.6839,-0.2146 1.2086,0.64683 7.0943,0.32545 7.0943,-0.38738 0,-0.16901 -1.343,-0.30729 -2.9843,-0.30729 -1.7903,0 -3.0806,-0.15571 -3.2249,-0.38917 -0.1357,-0.21952 -0.6782,-0.30163 -1.2446,-0.18836 -0.5522,0.11045 -1.0998,0.046 -1.2168,-0.14332 -0.1169,-0.18927 -1.5152,-0.33158 -3.1073,-0.31624 -3.892,0.0375 -8.2396,-0.26463 -9.9656,-0.69257 -2.2432,-0.55617 -5.8296,-0.77225 -6.5367,-0.39383 -0.4488,0.2402 -1.0092,0.19598 -1.8283,-0.14426 -0.6495,-0.26985 -3.3288,-0.67048 -5.954,-0.89029 -8.1996,-0.68659 -11.4279,-1.09282 -11.9182,-1.49974 -0.3052,-0.25327 -1.3572,-0.31898 -2.9581,-0.18476 -1.9978,0.16748 -2.5237,0.10635 -2.6842,-0.31204 -0.1381,-0.35989 -0.3305,-0.41179 -0.6238,-0.16832 -0.2723,0.22592 -0.859,0.23447 -1.6381,0.0239 -0.6677,-0.18046 -3.2823,-0.57531 -5.8102,-0.87743 -8.31488,-0.99376 -12.5337,-2.12108 -13.50917,-3.60983 -0.32913,-0.50232 -0.43715,-0.98162 -0.25143,-1.11566 0.17907,-0.12924 0.50022,-0.55319 0.71364,-0.9421 0.76439,-1.39287 4.38493,-2.05206 14.46116,-2.63291 9.4601,-0.54533 10.7834,-0.70212 10.7834,-1.27758 0,-0.60581 -0.735,-0.76964 -4.5962,-1.02455 -1.6528,-0.10911 -5.0735,-0.37811 -7.6014,-0.59776 -2.5279,-0.21966 -6.2667,-0.4365 -8.30848,-0.48189 -2.04177,-0.0454 -4.94899,-0.27082 -6.46048,-0.501 -2.15794,-0.32861 -3.00843,-0.32438 -3.96001,0.0197 -0.97205,0.3515 -1.40768,0.34838 -2.20158,-0.0158 -1.29467,-0.59385 -7.57072,-0.94656 -8.4169,-0.47302 -0.45697,0.25574 -0.98099,0.21859 -1.81146,-0.1284 -0.64578,-0.26982 -2.3993,-0.492 -3.91988,-0.49666 -1.51327,-0.005 -3.38235,-0.15472 -4.15352,-0.33352 -0.79487,-0.1843 -1.56227,-0.19218 -1.7719,-0.0182 -0.35829,0.29735 -2.96776,-0.14549 -4.07382,-0.69135 -0.70969,-0.35023 -0.89285,-1.44362 -0.30291,-1.80822 0.36168,-0.22353 0.37593,-0.39065 0.0602,-0.70638 -0.42709,-0.42709 -12.18289,-0.27285 -27.86479,0.36557 -3.88909,0.15833 -11.12809,0.3523 -16.08668,0.43104 -4.95858,0.0787 -10.68615,0.36237 -12.72792,0.63028 -4.13172,0.54216 -4.95161,0.5553 -11.4021,0.18277 -2.47929,-0.14318 -4.5078,-0.39795 -4.5078,-0.56615 0,-0.1682 -0.35798,-0.30799 -0.7955,-0.31065 -2.13889,-0.013 -3.06635,-0.82798 -2.23542,-1.96435 0.80191,-1.09667 6.31012,-1.66373 8.22636,-0.84688 0.93921,0.40036 1.27654,0.40286 2.00155,0.0149 0.68287,-0.36546 1.58804,-0.39211 4.17373,-0.12287 1.81596,0.1891 7.35877,0.31111 12.31735,0.27114 18.80514,-0.15156 64.85901,-1.42757 65.48488,-1.81437 0.14202,-0.0878 1.94577,0.0366 4.00833,0.27632 2.75979,0.3208 3.91596,0.33235 4.37814,0.0437 0.44838,-0.28002 3.09474,-0.3106 9.25189,-0.1069 6.82932,0.22593 8.77612,0.19026 9.35552,-0.17142 0.5154,-0.32181 1.1943,-0.37202 2.2981,-0.16999 0.8615,0.1577 6.0212,0.44289 11.4659,0.63374 11.332,0.39722 10.6641,0.37152 16.2635,0.62588 2.3334,0.10601 4.7612,0.28184 5.3949,0.39074 0.6608,0.11355 1.3675,0.0194 1.6568,-0.22068 0.3895,-0.32327 0.6909,-0.3187 1.3226,0.0201 1.0198,0.54694 7.0474,1.07614 7.5458,0.66249 0.2069,-0.17172 0.5933,-0.16156 0.8855,0.0233 0.2852,0.18035 1.5606,0.33035 2.8343,0.33333 1.2753,0.003 2.4996,0.1893 2.725,0.41469 0.31,0.31 0.5413,0.29975 0.9534,-0.0423 0.4307,-0.35741 0.8874,-0.36513 2.1903,-0.037 0.9779,0.24624 2.4279,0.31686 3.5716,0.17397 1.2531,-0.15656 2.413,-0.0796 3.3219,0.22032 0.9726,0.32098 1.6864,0.35767 2.3516,0.12085 0.694,-0.24706 1.2371,-0.20063 1.9864,0.16982 0.8192,0.40505 1.2522,0.42642 2.1065,0.10394 0.711,-0.26836 1.1942,-0.28709 1.426,-0.0553 0.4922,0.49216 1.5341,0.43686 1.7204,-0.0913 0.1178,-0.33385 0.414,-0.29375 1.2113,0.16393 1.0489,0.60212 4.6073,0.9272 12.6571,1.15629 1.7501,0.0498 4.3408,0.29342 5.7571,0.54138 1.8446,0.32294 2.8066,0.34533 3.3913,0.0789 0.4921,-0.22422 1.0139,-0.24677 1.314,-0.0568 0.6753,0.42752 2.7025,0.40958 2.9719,-0.0263 0.1369,-0.22165 0.6058,-0.15154 1.2646,0.18911 0.6615,0.34211 2.4434,0.60666 4.8413,0.71876 2.0869,0.0976 5.2262,0.29772 6.9763,0.44479 1.7501,0.14707 3.235,0.14124 3.2999,-0.0129 0.1571,-0.3737 1.3825,-0.35946 1.6162,0.0188 0.2547,0.41212 9.1237,0.94913 13.6476,0.82636 2.7217,-0.0739 4.0602,0.0436 5.008,0.43965 1.0221,0.42707 1.5291,0.45832 2.4165,0.14895 1.3151,-0.45842 5.5393,-0.20328 6.1117,0.36914 0.5135,0.5135 1.8551,0.49937 2.7003,-0.0284 0.5079,-0.31722 1.3508,-0.3269 3.4423,-0.0396 1.5234,0.20929 3.0482,0.49489 3.3884,0.63467 0.4464,0.18336 0.6188,0.0867 0.6188,-0.34713 0,-1.80269 3.2403,-5.49786 6.2227,-7.09633 0.5638,-0.30217 1.5024,-0.85632 2.0858,-1.23144 0.9602,-0.61744 2.0882,-1.16139 3.2579,-1.57104 0.5047,-0.17676 2.5588,-4.19031 3.4407,-6.72289 0.3386,-0.97227 0.8307,-2.17547 1.0936,-2.67376 0.2629,-0.4983 1.0369,-2.88479 1.72,-5.30331 0.6832,-2.41851 1.5477,-5.28132 1.9211,-6.36179 0.3735,-1.08047 0.7967,-2.83056 0.9405,-3.88909 0.1437,-1.05852 0.4689,-2.48144 0.7227,-3.16203 0.2537,-0.68059 0.5613,-1.98314 0.6834,-2.89457 0.192,-1.43249 0.1247,-1.70924 -0.4962,-2.04155 -0.3951,-0.21144 -3.0568,-0.46119 -5.915,-0.555 -2.8581,-0.0938 -6.1626,-0.32635 -7.3433,-0.51673 -3.219,-0.51903 -14.1127,-1.22774 -14.8027,-0.963 -0.8535,0.32754 -0.747,0.78099 0.2948,1.25571 0.7749,0.35305 0.843,0.50998 0.4998,1.15134 -0.2186,0.40842 -0.7162,3.68207 -1.1058,7.27478 -0.6741,6.21725 -0.6785,6.56506 -0.091,7.21391 0.9733,1.07556 1.7939,0.81782 3.0062,-0.94423 0.9387,-1.3643 1.0559,-1.74834 0.7284,-2.38649 -0.2868,-0.55882 -0.2729,-2.02646 0.052,-5.53351 l 0.4426,-4.77297 1.5518,-0.11136 1.5517,-0.11136 -0.2078,2.94433 c -0.1143,1.61938 -0.3663,3.36126 -0.56,3.87083 -0.7604,1.99999 1.3521,4.41759 2.6906,3.07914 0.3038,-0.30389 0.4615,-0.17814 0.6329,0.50481 0.4099,1.63309 -0.078,2.29243 -2.1427,2.89249 -1.2668,0.36827 -2.0565,0.82548 -2.3248,1.34583 -0.6639,1.28813 -1.8107,2.37908 -2.5008,2.37908 -0.355,0 -0.6454,0.1591 -0.6454,0.35355 0,0.51364 -0.7907,0.43406 -2.0806,-0.20942 -1.5114,-0.754 -2.0625,-0.46576 -2.9273,1.53107 -0.401,0.92595 -1.3002,2.28017 -1.9982,3.00938 -1.4784,1.54438 -2.7142,1.71279 -4.4945,0.61249 -2.0147,-1.24519 -2.2328,-1.90569 -2.4651,-7.46764 -0.2424,-5.80359 -0.4416,-7.47176 -0.8614,-7.21233 -0.1625,0.10048 -0.4044,0.76288 -0.5374,1.472 -0.1331,0.70912 -0.5489,1.86198 -0.924,2.56193 -0.3752,0.69995 -0.6821,1.64086 -0.6821,2.09092 0,0.45006 -0.2533,1.30808 -0.5628,1.90671 -0.3096,0.59863 -0.8014,1.89166 -1.093,2.8734 -1.2731,4.28707 -4.0719,7.67032 -6.3453,7.67032 -1.7257,0 -3.2292,-1.14026 -3.5154,-2.66627 -0.3068,-1.63505 -1.3854,-1.62976 -2.9792,0.0146 -0.6596,0.68059 -1.509,1.23744 -1.8874,1.23744 -1.0814,0 -4.4242,-3.05792 -4.7602,-4.35451 -0.1602,-0.61847 -0.5277,-1.17001 -0.8167,-1.22566 -0.2889,-0.0556 -1.5993,0.60427 -2.9121,1.46647 -3.488,2.29097 -4.2706,2.55956 -5.8349,2.00271 -2.6516,-0.9439 -4.1358,-1.80771 -4.7266,-2.75098 -0.3347,-0.53442 -0.759,-1.21031 -0.9428,-1.50199 -0.98,-1.55479 -1.3957,-3.40714 -1.6185,-7.21216 -0.1356,-2.31382 -0.4049,-4.62075 -0.5986,-5.12652 -0.3988,-1.04124 -0.1831,-3.52654 0.6577,-7.5798 0.5339,-2.57374 0.533,-2.84206 -0.013,-3.76686 -0.3235,-0.54766 -0.5882,-1.24023 -0.5882,-1.53905 0,-0.74297 -0.7222,-1.13272 -1.0665,-0.57557 -0.2116,0.34233 -1.0203,0.39671 -3.2972,0.2217 -1.6593,-0.12754 -3.3847,-0.3714 -3.8344,-0.5419 -1.1791,-0.44714 -5.8361,0.0513 -6.4782,0.69335 -0.3522,0.35224 -0.7173,2.13826 -1.0813,5.28951 -0.3022,2.61674 -0.6898,5.31455 -0.8612,5.99514 -0.1714,0.68059 -0.4656,1.84569 -0.6538,2.58911 -0.4304,1.69992 -1.2578,2.63741 -3.0567,3.46347 -1.7274,0.7932 -2.7773,0.83528 -3.3588,0.13461 -0.6437,-0.77559 -1.3754,-0.64872 -1.8143,0.31457 -0.6924,1.51965 -3.5774,2.19813 -4.6759,1.09964 -0.6184,-0.61836 -1.902,-0.68265 -3.2671,-0.16364 -0.666,0.25322 -1.0779,0.25322 -1.3311,0 -0.2017,-0.20168 -0.6624,-0.36669 -1.0238,-0.36669 -0.3615,0 -1.2692,-0.49185 -2.0173,-1.09301 -1.7431,-1.40082 -2.5858,-1.26069 -2.8682,0.47694 -0.1181,0.72648 -0.4932,1.6286 -0.8336,2.00472 -0.3404,0.37611 -0.8826,1.21191 -1.2049,1.85731 -0.4606,0.92229 -0.8373,1.19757 -1.7601,1.28612 -0.677,0.065 -1.5561,-0.1377 -2.0767,-0.47877 -0.7179,-0.47043 -1.0778,-0.51155 -1.7593,-0.20104 -2.0786,0.94707 -4.8543,0.23444 -7.0887,-1.81996 -0.6434,-0.59156 -0.8815,-0.64194 -1.3188,-0.27903 -0.4401,0.36524 -0.7254,0.28139 -1.6285,-0.47844 -0.6021,-0.50671 -1.3213,-0.92128 -1.598,-0.92128 -0.2768,0 -0.5032,-0.1591 -0.5032,-0.35356 0,-0.56987 -1.2843,-0.40583 -1.8129,0.23154 -1.2636,1.52361 -5.1738,2.11208 -5.5093,0.82912 -0.3913,-1.49635 -1.2005,-0.62849 -1.9933,2.13769 -0.6328,2.20841 -1.6925,3.40499 -3.3001,3.72651 -1.4956,0.29911 -3.5701,-0.74215 -4.45,-2.23356 l -0.703,-1.1915 -0.6755,0.72498 c -0.3714,0.39873 -0.8883,0.72497 -1.1486,0.72497 -0.2603,0 -0.6714,0.23865 -0.9134,0.53033 -0.4884,0.58845 -2.8285,0.7347 -2.8285,0.17678 0,-0.19446 0.1485,-0.35356 0.3299,-0.35356 0.1815,0 0.9046,-1.07392 1.607,-2.38648 1.2227,-2.28486 1.8717,-4.47504 2.6979,-9.104 0.2083,-1.16673 0.6345,-3.31457 0.9472,-4.77297 0.3127,-1.45841 0.5242,-3.3108 0.4699,-4.11643 -0.056,-0.83164 0.1429,-1.93198 0.4602,-2.5457 0.7046,-1.36245 0.7498,-3.59092 0.073,-3.59092 -0.2674,0 -0.9573,-0.0942 -1.5332,-0.2094 -1.9199,-0.38399 -2.2229,0.35752 -2.2267,5.44957 0,3.05135 -0.2286,5.61138 -0.7091,8.01808 -0.6788,3.40056 -1.9914,7.74825 -2.5617,8.48528 -0.1505,0.19446 -0.6288,0.89826 -1.063,1.56402 -0.8154,1.25047 -3.3051,3.27173 -4.8552,3.94177 -0.657,0.28399 -1.0654,0.26931 -1.591,-0.0572 -0.3889,-0.2416 -1.4676,-0.82143 -2.3972,-1.28851 -1.5922,-0.80009 -5.91132,-4.82184 -5.91132,-5.50437 0,-0.17287 -0.30762,-0.74632 -0.6836,-1.27433 -0.37598,-0.52802 -0.79747,-1.42762 -0.93663,-1.99913 -0.13917,-0.5715 -0.46795,-1.35292 -0.73062,-1.73648 -0.26267,-0.38356 -0.47959,-0.94041 -0.48206,-1.23744 -0.002,-0.29702 -0.47976,-1.47728 -1.06066,-2.6228 -0.5809,-1.14552 -1.05618,-2.34313 -1.05618,-2.66137 0,-0.31824 -0.25246,-0.93905 -0.56101,-1.37958 -0.43579,-0.62218 -0.46841,-0.91256 -0.1461,-1.30092 0.32231,-0.38835 0.2897,-0.67873 -0.14609,-1.30091 -0.31396,-0.44825 -0.56101,-1.51366 -0.56101,-2.41936 0,-0.89011 -0.19092,-1.8093 -0.42427,-2.04265 -0.56162,-0.56162 -7.68127,-0.56642 -9.55035,-0.006 -1.08157,0.32404 -1.97873,0.31968 -3.99693,-0.0195 -2.71262,-0.4558 -5.31798,-0.10963 -5.92503,0.78724 -0.1509,0.22295 -0.25053,1.83725 -0.22141,3.58734 0.0291,1.75008 -0.1227,4.05702 -0.33738,5.12652 -0.21468,1.0695 -0.6266,4.33811 -0.91538,7.26359 -0.50301,5.0957 -0.80416,6.29251 -2.487,9.88375 -0.27336,0.58336 -0.54589,1.37886 -0.60562,1.76777 -0.15088,0.98246 -2.58533,2.11505 -4.52801,2.10658 -1.20018,-0.005 -1.97827,-0.27734 -3.16758,-1.10777 -1.48833,-1.03921 -1.61724,-1.2657 -2.30279,-4.04591 -0.62156,-2.52064 -0.6848,-3.4559 -0.43886,-6.48972 0.51618,-6.36737 2.86864,-14.09345 5.18965,-17.04413 1.60385,-2.03897 1.82846,-2.00279 -11.03607,-1.77794 -6.46561,0.113 -16.44907,0.45742 -22.18548,0.76538 -9.59972,0.51536 -12.28653,0.72777 -20.32932,1.60714 -1.55563,0.17009 -4.5492,0.31926 -6.65236,0.3315 -2.10317,0.0122 -4.12597,0.18388 -4.49511,0.38144 -0.41238,0.2207 -5.00421,0.36471 -11.90918,0.3735 -12.26201,0.0156 -20.29983,0.60468 -22.00647,1.61282 -1.08361,0.6401 -2.12502,2.20006 -1.89395,2.837 0.19541,0.53864 -0.39327,0.88344 -1.06695,0.62493 -0.84398,-0.32387 -1.00901,-1.2348 -0.3938,-2.17373 0.66238,-1.01093 3.79975,-2.56463 5.18877,-2.5696 0.53081,-0.002 1.56496,-0.23764 2.29809,-0.52386 0.79088,-0.30877 3.70546,-0.66509 7.16662,-0.87615 3.20849,-0.19566 7.18597,-0.59798 8.83883,-0.89405 1.65286,-0.29607 4.19845,-0.52239 5.65685,-0.50294 8.16062,0.10882 15.96259,-0.10348 20.32932,-0.55318 5.33746,-0.54967 17.52465,-1.05263 39.02353,-1.6105 13.93707,-0.36165 16.66549,-0.6643 17.74807,-1.96873 0.38022,-0.45813 0.5967,-0.37625 1.61531,0.61103 0.64694,0.62704 1.27856,1.03776 1.4036,0.91272 0.29321,-0.29321 0.87807,-6.25473 0.84375,-8.60035 -0.0145,-0.99273 0.14725,-2.50417 0.35952,-3.35875 0.21226,-0.85459 0.43518,-3.54254 0.49538,-5.97322 0.1394,-5.62886 0.74502,-12.54454 1.23825,-14.1398 0.4732,-1.53048 0.48682,-4.46295 0.0336,-7.23072 -0.31439,-1.91986 -0.28036,-2.16132 0.39301,-2.78866 0.59974,-0.55875 0.69589,-0.94513 0.51566,-2.07224 -0.19504,-1.21973 -0.0936,-1.51338 0.84817,-2.45514 1.24535,-1.24536 1.82835,-1.1798 2.26258,0.2544 0.17182,0.56748 0.44204,1.34997 0.6005,1.73888 0.15846,0.38891 0.33817,1.02531 0.39936,1.41421 0.13824,0.87866 1.80898,1.17492 6.81949,1.20926 4.19211,0.0287 5.95501,-0.39236 7.30837,-1.74572 0.85029,-0.85029 0.99902,-1.2823 0.99275,-2.88348 -0.01,-2.54218 0.99884,-10.36171 1.57788,-12.23058 0.40387,-1.30349 0.39533,-1.5487 -0.0629,-1.8051 -0.47072,-0.26344 -0.4701,-0.39167 0.006,-1.14326 0.29464,-0.46561 0.71124,-2.38617 0.92577,-4.26793 0.47189,-4.13933 1.02778,-6.65961 1.65939,-7.52339 0.44231,-0.60489 0.52601,-0.6086 1.36257,-0.0605 0.83787,0.54899 0.87915,0.71626 0.6884,2.78942 -0.11161,1.21297 -0.34205,2.6827 -0.51209,3.26606 -0.30152,1.03446 -0.69566,3.84109 -1.4331,10.20494 -0.19974,1.72363 -0.51484,3.53285 -0.70024,4.02048 -0.23044,0.60609 -0.20912,1.0408 0.0674,1.37393 0.30637,0.36916 0.29032,0.62484 -0.0662,1.05443 -0.47402,0.57116 -0.87256,2.71241 -1.2555,6.74567 l -0.20759,2.18624 1.18875,0.2172 c 0.6538,0.11945 2.14333,0.21884 3.31011,0.22086 1.1667,0.002 3.0759,0.03 4.2426,0.0623 3.746,0.10353 14.4271,0.0519 16.617,-0.0803 1.1667,-0.0705 6.0193,-0.10193 10.7834,-0.07 12.6055,0.0846 25.8915,-0.30113 26.4652,-0.76835 0.3405,-0.27728 0.435,-0.99991 0.3266,-2.49845 -0.1225,-1.69434 0.01,-2.44344 0.6708,-3.81498 0.7228,-1.49822 0.9578,-1.70663 1.9244,-1.70663 0.9789,0 1.0738,0.0883 0.8556,0.7955 -0.5718,1.85323 -0.8678,3.75131 -0.8823,5.65685 l -0.015,2.03294 h 1.3768 c 0.7572,0 2.9448,-0.15435 4.8613,-0.34299 1.9166,-0.18865 10.6441,-0.58751 19.3945,-0.88637 15.9492,-0.54471 19.1585,-0.74036 19.9261,-1.21479 0.6438,-0.39791 1.8175,-5.11023 1.8175,-7.29734 0,-1.08474 0.1732,-2.29598 0.385,-2.69163 0.2117,-0.39566 0.5975,-2.13366 0.8572,-3.86223 0.3076,-2.0471 0.7365,-3.51392 1.2301,-4.20713 0.897,-1.25978 1.0987,-1.29465 1.9631,-0.33946 0.5808,0.6418 0.6029,0.8544 0.1924,1.85615 -0.2549,0.62224 -0.764,3.09473 -1.1312,5.49443 -0.3672,2.39969 -0.9064,5.39267 -1.1982,6.65106 -0.6848,2.95274 -0.6767,4.23373 0.029,4.50437 0.3076,0.11804 1.5008,0.2146 2.6516,0.2146 2.7866,0 3.3235,-0.54749 3.6168,-3.6885 0.1318,-1.41111 0.5885,-3.15984 1.117,-4.27714 0.4918,-1.03953 0.8942,-2.05342 0.8942,-2.25307 0,-0.19965 0.358,-0.55134 0.7955,-0.78153 0.4375,-0.23018 1.222,-0.77312 1.7434,-1.20653 0.5213,-0.43341 1.7145,-1.15323 2.6516,-1.59961 0.9371,-0.44638 2.0832,-1.10228 2.5469,-1.45756 0.4638,-0.35528 1.23,-0.64596 1.7027,-0.64596 0.4727,0 1.1961,-0.18017 1.6075,-0.40038 0.4115,-0.22021 1.5545,-0.60752 2.54,-0.86069 0.9856,-0.25317 2.9056,-0.79237 4.2668,-1.19822 3.972,-1.18429 5.6861,-1.44965 11.4905,-1.77885 3.0141,-0.17095 7.0711,-0.48863 9.0156,-0.70597 1.9446,-0.21734 6.4789,-0.34892 10.0763,-0.29239 3.5974,0.0565 6.6998,0.009 6.8943,-0.10554 0.1944,-0.11457 2.1036,0.0133 4.2426,0.28427 2.139,0.27092 5.0028,0.54238 6.364,0.60325 2.3624,0.10564 5.9705,1.15096 8.7599,2.53789 0.6268,0.31164 1.7883,1.29567 2.5812,2.18673 0.9672,1.08687 1.6252,1.5497 1.9991,1.40618 0.5884,-0.22577 1.6858,-4.29695 1.6858,-6.25388 0,-0.59359 0.1444,-1.07925 0.3208,-1.07925 0.1765,0 0.3869,-0.83527 0.4676,-1.85616 0.2319,-2.93402 1.3726,-8.83311 1.9131,-9.89351 0.2708,-0.53146 0.9833,-1.22011 1.5832,-1.53034 1.0365,-0.53597 1.1315,-0.52574 1.91,0.20558 4.057,3.81136 5.2455,20.732 2.4332,34.64118 -0.4914,2.43068 -1.2019,5.26066 -1.5787,6.28884 -0.3769,1.02818 -0.6844,2.22142 -0.6835,2.65165 0,0.83024 -0.9379,3.95849 -1.4564,4.8481 -0.17,0.29168 -1.0433,1.96222 -1.9406,3.71231 -1.6767,3.27014 -3.3159,5.76344 -4.5597,6.93554 -2.6325,2.48081 -4.838,4.26624 -6.3639,5.15184 -2.2845,1.3258 -3.1149,2.83918 -2.8587,5.20966 0.1035,0.95738 0.3521,1.90462 0.5525,2.10498 0.4078,0.40778 2.8193,1.11556 5.4881,1.61074 0.9723,0.1804 2.4837,0.60669 3.3588,0.94731 1.235,0.48074 2.7776,0.63102 6.8943,0.67165 5.576,0.055 6.339,0.19568 6.9165,1.27473 0.1959,0.36603 0.5244,0.66551 0.7299,0.66551 0.2056,0 0.7783,0.3182 1.2727,0.70711 0.4945,0.3889 1.1559,0.70808 1.47,0.70928 0.3141,0.001 1.0251,0.239 1.5801,0.52845 0.555,0.28946 1.1359,0.4479 1.2909,0.3521 0.155,-0.0958 1.2919,0.13081 2.5265,0.50358 1.2345,0.37276 3.1911,0.86761 4.348,1.09964 1.1569,0.23204 2.4297,0.56732 2.8285,0.74508 0.3987,0.17775 2.8728,0.70033 5.4979,1.16129 2.6252,0.46095 6.6026,1.33319 8.8389,1.9383 2.2362,0.60511 4.8613,1.27789 5.8336,1.49505 0.9723,0.21716 2.2451,0.59828 2.8284,0.84693 0.5834,0.24865 2.2535,0.63398 3.7114,0.85628 1.458,0.2223 2.8023,0.55573 2.9876,0.74095 0.1852,0.18523 0.9464,0.33677 1.6916,0.33677 0.7452,0 1.9262,0.23873 2.6246,0.53052 0.6983,0.29178 2.2936,0.69409 3.5452,0.89403 1.2515,0.19993 2.5445,0.51136 2.8732,0.69206 0.9177,0.50448 7.9073,2.12603 9.1641,2.12603 0.613,0 1.1996,0.13764 1.3036,0.30586 0.1039,0.16823 1.1873,0.4947 2.4073,0.72549 1.2201,0.23079 3.4116,0.79509 4.87,1.25401 1.4584,0.45891 3.0871,0.93047 3.6195,1.0479 1.2265,0.2706 2.1809,1.66793 1.8503,2.70931 -0.2411,0.75984 -0.3266,0.76948 -4.7138,0.53135 -2.4576,-0.1334 -5.0829,-0.40526 -5.834,-0.60415 -0.7511,-0.19889 -1.9662,-0.26015 -2.7002,-0.13613 -1.321,0.22318 -3.7189,-0.21029 -5.1707,-0.93474 -0.5301,-0.26452 -0.9588,-0.26384 -1.4561,0.002 -0.3877,0.20746 -0.8145,0.26757 -0.9485,0.13356 -0.134,-0.134 -0.8311,-0.26795 -1.5491,-0.29767 -0.718,-0.0297 -2.7428,-0.2989 -4.4996,-0.59817 -1.7569,-0.29927 -5.4161,-0.72741 -8.1318,-0.95142 -2.7156,-0.22401 -5.5739,-0.55372 -6.3517,-0.7327 -0.7778,-0.17898 -2.7931,-0.37637 -4.4785,-0.43865 -1.8718,-0.0692 -3.2844,-0.29588 -3.6299,-0.58258 -0.4117,-0.34172 -1.1819,-0.4062 -2.8323,-0.23712 -1.4549,0.14905 -2.3494,0.0986 -2.4974,-0.14081 -0.1268,-0.20518 -0.8939,-0.35633 -1.7047,-0.33589 -0.8108,0.0204 -5.6474,-0.39003 -10.748,-0.91214 -5.1006,-0.52212 -9.5156,-0.85652 -9.8111,-0.74311 -0.3301,0.12668 -0.5373,0.65491 -0.5373,1.36996 0,0.64007 -0.5549,2.43493 -1.2331,3.98857 -0.6782,1.55364 -1.2351,3.10322 -1.2375,3.44352 0,0.34029 -0.1483,0.61871 -0.3242,0.61871 -0.176,0 -0.7509,0.73534 -1.2776,1.63408 -0.5267,0.89874 -2.2124,3.05739 -3.7459,4.79699 -1.5336,1.73961 -2.7883,3.27307 -2.7883,3.4077 0,0.40434 -4.6857,3.79618 -5.922,4.28676 -0.632,0.25077 -1.1491,0.5872 -1.1491,0.74762 0,0.16041 -0.9546,0.63973 -2.1213,1.06514 -1.1667,0.42541 -2.1213,0.91125 -2.1213,1.07965 0,0.1684 -0.2784,0.31137 -0.6187,0.31772 -0.3403,0.006 -1.4938,0.31935 -2.5633,0.69557 -1.0695,0.37621 -2.3821,0.68921 -2.9168,0.69556 -0.5348,0.006 -0.9723,0.17064 -0.9723,0.3651 0,0.19445 -0.3497,0.35355 -0.7772,0.35355 -1.1429,0 -6.6474,1.7386 -6.6474,2.09959 0,0.16999 -0.3128,0.22728 -0.6952,0.12729 -0.3824,-0.1 -1.4885,0.009 -2.4582,0.24113 -1.397,0.33514 -2.0416,0.75219 -3.1055,2.00923 -0.7384,0.87246 -1.5414,1.80163 -1.7844,2.06481 -0.2431,0.26318 -0.442,0.63578 -0.442,0.828 0,0.19221 -0.6613,0.89884 -1.4697,1.57028 -1.8387,1.52735 -1.6713,2.23016 0.6129,2.57269 1.6477,0.24709 6.4304,0.002 6.7799,-0.34769 0.1004,-0.10037 -0.01,-0.64796 -0.246,-1.21687 -0.6532,-1.57708 -0.1321,-4.23412 1.0653,-5.43149 1.3112,-1.31124 1.9158,-1.28072 1.2216,0.0617 -0.2966,0.57371 -0.5394,1.3692 -0.5394,1.76776 0,0.39857 -0.1591,0.72467 -0.3535,0.72467 -0.5357,0 -0.423,1.51135 0.1766,2.36732 0.296,0.42269 1.5176,1.08548 2.7665,1.5011 1.7956,0.59753 2.7189,0.70082 4.6848,0.52403 1.6638,-0.14963 3.1847,-0.0474 4.7464,0.31905 1.991,0.46715 2.3728,0.47186 2.8563,0.0352 0.7534,-0.68033 2.5235,-0.63416 5.3099,0.13849 1.6933,0.46953 2.5307,0.54727 3.1102,0.2887 0.5488,-0.24487 1.3571,-0.21884 2.6249,0.0845 3.1313,0.74928 4.13,0.85629 4.13,0.44256 0,-0.46401 3.8978,-0.18339 5.4113,0.38958 0.7084,0.26816 1.1026,0.26484 1.3791,-0.0116 0.2804,-0.28044 0.7345,-0.24197 1.6477,0.13961 0.9282,0.38784 1.8913,0.46458 3.6524,0.29104 1.9254,-0.18973 2.5681,-0.12022 3.2955,0.3564 0.6819,0.44681 1.5727,0.57237 3.6305,0.51174 1.4999,-0.0442 4.1589,0.10062 5.909,0.32177 1.7501,0.22117 5.8071,0.65455 9.0156,0.96309 5.6775,0.54598 8.8993,1.23405 9.8221,2.09768 0.3649,0.34153 0.3055,0.55676 -0.3056,1.10739 -0.6822,0.6146 -1.2801,0.67916 -5.933,0.64056 -2.846,-0.0236 -6.2086,-0.23453 -7.4726,-0.46872 -1.2639,-0.2342 -3.6372,-0.45353 -5.2738,-0.48741 -2.0201,-0.0418 -3.0231,-0.20355 -3.1231,-0.50355 -0.1728,-0.51858 -1.5026,-0.60351 -1.5026,-0.096 0,0.22339 -0.2818,0.22603 -0.7955,0.007 -1.028,-0.4375 -5.3875,-0.92019 -14.4073,-1.5952 -3.9863,-0.29832 -7.4865,-0.62917 -7.7782,-0.73522 -0.6003,-0.21826 -15.6547,-1.21205 -21.0364,-1.38868 -1.9445,-0.0638 -8.7858,-0.4528 -15.2028,-0.86441 -6.417,-0.4116 -12.94,-0.73517 -14.4957,-0.71903 -1.5556,0.0161 -3.5443,-0.14761 -4.4194,-0.36387 -0.875,-0.21628 -2.466,-0.30986 -3.5355,-0.20798 -1.0695,0.10187 -2.1037,0.19958 -2.2981,0.21711 -0.1945,0.0175 -1.1491,-0.13792 -2.1213,-0.34545 -1.6385,-0.34972 -11.6993,-0.97223 -20.8597,-1.29069 -2.139,-0.0744 -4.4669,-0.22903 -5.1731,-0.34371 -0.7493,-0.12166 -1.3803,-0.0528 -1.5152,0.16534 -0.1617,0.26174 -0.5188,0.25765 -1.1908,-0.0136 -1.2067,-0.4872 -6.021,-0.68426 -6.2849,-0.25725 -0.301,0.48707 -1.4325,0.37846 -1.8978,-0.18216 -0.4113,-0.49555 -3.2104,-0.74573 -12.1246,-1.08364 -1.8907,-0.0717 -3.5945,-0.22727 -3.7863,-0.34578 -0.7737,-0.47818 -4.9583,-0.64436 -5.4729,-0.21734 -0.3962,0.32882 -0.6952,0.33262 -1.2861,0.0163 -0.4235,-0.22664 -1.3485,-0.34066 -2.0556,-0.25338 -0.707,0.0873 -1.645,0.0264 -2.0843,-0.13529 -1.0601,-0.39014 -6.3153,-0.73525 -18.2931,-1.20129 -2.139,-0.0832 -4.6051,-0.32458 -5.4801,-0.53634 -0.875,-0.21176 -2.8638,-0.36199 -4.4194,-0.33382 -1.5557,0.0282 -3.2633,-0.0591 -3.7948,-0.19392 -0.5315,-0.13482 -1.2475,-0.12244 -1.591,0.0275 -0.3435,0.14995 -0.8413,0.23649 -1.106,0.19231 -0.2648,-0.0442 -0.8624,0.27758 -1.328,0.71501 -0.9673,0.90868 -3.1144,1.30445 -7.383,1.36087 -1.5556,0.0205 -3.9421,0.2179 -5.3033,0.43855 -1.3612,0.22065 -5.4438,0.41432 -9.0724,0.43038 -3.6286,0.0161 -6.7205,0.15117 -6.8707,0.30025 -0.5946,0.58987 0.5279,0.94044 3.4207,1.06838 1.6668,0.0737 3.1832,0.22833 3.3697,0.34359 0.1865,0.11526 2.1624,0.31563 4.391,0.44528 2.2286,0.12964 4.1753,0.3119 4.3259,0.40502 0.1507,0.0931 4.693,0.54719 10.094,1.00907 5.401,0.46187 10.2169,0.99068 10.702,1.17512 1.2843,0.48828 1.8023,1.26286 1.5409,2.30427 l -0.2265,0.90224 -5.195,-0.21325 c -3.7783,-0.1551 -5.4156,-0.0953 -6.0036,0.21944 -0.6588,0.35259 -1.0251,0.32986 -1.9791,-0.12281 -1.0232,-0.48556 -2.967,-0.5343 -15.4403,-0.38718 -14.4324,0.17022 -20.9472,0.52996 -21.6106,1.19333 -0.20006,0.20007 -0.81539,0.27342 -1.3674,0.16302 -0.74099,-0.1482 -1.06363,-0.0444 -1.23282,0.39647 -0.12604,0.32846 -0.0648,0.76162 0.13621,0.96258 0.36801,0.36801 7.83221,1.45977 9.80481,1.4341 0.5833,-0.008 2.2539,0.30661 3.7123,0.69822 1.6975,0.45582 3.9988,0.74194 6.3955,0.79518 2.0592,0.0457 3.9443,0.20701 4.1892,0.35837 0.2449,0.15135 2.3785,0.41886 4.7414,0.59445 2.3629,0.1756 5.3303,0.49948 6.5942,0.71974 1.264,0.22026 2.6561,0.38232 3.0936,0.36013 0.4375,-0.0222 0.9944,-0.0477 1.2374,-0.0568 0.2431,-0.009 1.8739,0.2125 3.624,0.49231 1.75,0.2798 4.1854,0.51922 5.4119,0.53203 1.2264,0.0128 2.9589,0.20685 3.8498,0.43119 1.2088,0.30437 1.7828,0.30621 2.2615,0.007 0.4086,-0.25515 0.7193,-0.27489 0.8556,-0.0543 0.1177,0.19048 0.9297,0.34632 1.8044,0.34632 0.8747,0 2.2574,0.15749 3.0727,0.34999 2.454,0.57939 16.1271,1.41082 17.1025,1.03996 0.5109,-0.19423 1.1108,-0.20054 1.462,-0.0154 0.3275,0.17271 1.5241,0.50507 2.6591,0.73858 2.1683,0.44612 4.5741,1.79249 4.179,2.33878 -0.9594,1.32669 -4.206,1.83357 -13.3136,2.07865 -2.7224,0.0733 -5.4271,0.32077 -6.0104,0.55003 -1.0348,0.40664 -1.0413,0.42426 -0.2694,0.72101 0.4352,0.16731 3.6967,0.55675 7.2478,0.86542 3.5512,0.30867 7.8089,0.85831 9.4618,1.22142 1.6529,0.36312 5.1308,0.91439 7.7287,1.22507 5.1743,0.61875 10.1486,1.87325 12.8443,3.23927 3.0707,1.55604 2.6706,2.56524 -1.3741,3.46554 -1.5183,0.338 -4.2278,0.5711 -6.7175,0.578 -2.2951,0.01 -5.2866,0.1619 -6.6478,0.3456 -6.3328,0.8546 -6.0827,0.8521 -6.5045,0.064 z m -20.5533,-11.60616 c 0.092,-0.092 -0.067,-0.31938 -0.3528,-0.50531 -0.6621,-0.43034 -3.7021,-0.26919 -3.7021,0.19625 0,0.69795 3.4064,0.95758 4.0549,0.30906 z m 2.4048,-0.0623 c 0.1979,-0.59369 -0.9431,-0.95147 -1.4423,-0.45226 -0.318,0.31793 -0.2917,0.49327 0.1121,0.7483 0.627,0.396 1.1374,0.28242 1.3302,-0.29604 z m -35.8046,-19.15837 c 0.1202,-0.19445 -0.1091,-0.35355 -0.5095,-0.35355 -0.4003,0 -0.7279,0.1591 -0.7279,0.35355 0,0.19446 0.2292,0.35356 0.5094,0.35356 0.2802,0 0.6078,-0.1591 0.728,-0.35356 z m -15.3796,-4.41941 c 0,-0.29168 -0.2386,-0.53033 -0.5303,-0.53033 -0.2917,0 -0.5303,0.23865 -0.5303,0.53033 0,0.29168 0.2386,0.53033 0.5303,0.53033 0.2917,0 0.5303,-0.23865 0.5303,-0.53033 z m -5.6568,-0.17678 c 0,-0.19445 -0.3182,-0.35355 -0.7071,-0.35355 -0.3889,0 -0.7071,0.1591 -0.7071,0.35355 0,0.19445 0.3182,0.35355 0.7071,0.35355 0.3889,0 0.7071,-0.1591 0.7071,-0.35355 z m -22.98098,-2.48029 c 0.4714,-0.30945 0.4714,-0.38682 0,-0.69628 -0.29169,-0.19148 -0.76898,-0.34813 -1.06066,-0.34813 -0.29169,0 -0.76898,0.15665 -1.06066,0.34813 -0.47141,0.30946 -0.47141,0.38683 0,0.69628 0.29168,0.19148 0.76897,0.34814 1.06066,0.34814 0.29168,0 0.76897,-0.15666 1.06066,-0.34814 z m -4.91769,-0.67439 c -0.27405,-0.17349 -0.71157,-0.23358 -0.97227,-0.13354 -0.74763,0.28689 -0.55753,0.46026 0.49827,0.45438 0.70759,-0.004 0.83663,-0.0913 0.474,-0.32084 z m 23.37317,-0.098 c -0.33,-0.32998 -0.5185,-0.32998 -0.84853,0 -0.32998,0.32998 -0.2357,0.42426 0.42423,0.42426 0.66,0 0.7543,-0.0943 0.4243,-0.42426 z m -31.89051,-0.26198 c 0,-0.5762 -0.68687,-0.7886 -1.7764,-0.5493 -1.51838,0.33349 -1.29314,0.88199 0.36218,0.88199 0.77782,0 1.41422,-0.14971 1.41422,-0.33269 z m 209.63861,-6.55505 c 0.8165,-0.28808 2.865,-0.77988 4.5522,-1.09287 2.9042,-0.53875 6.4669,-1.57062 7.7758,-2.25214 0.3274,-0.17046 1.9476,-0.9485 3.6004,-1.72898 3.3065,-1.56133 7.9867,-5.12579 10.1686,-7.74448 3.7001,-4.44072 7.1556,-11.23908 7.1556,-14.07786 0,-1.12431 -0.1478,-1.31843 -1.4457,-1.89953 -1.1515,-0.51556 -1.649,-0.57049 -2.445,-0.27001 -0.7708,0.29093 -1.5002,0.23801 -3.1883,-0.23133 -1.3553,-0.3768 -2.3428,-0.486 -2.5931,-0.28673 -0.2223,0.17701 -0.7224,0.19358 -1.1113,0.0368 -0.998,-0.40224 -3.1487,-0.39709 -4.2196,0.0101 -1.2191,0.4635 -1.1512,1.46292 0.1655,2.4364 1.2986,0.96016 3.2311,3.55183 2.9669,3.97919 -0.2873,0.46484 -2.1907,-0.64524 -2.437,-1.42129 -0.361,-1.13732 -1.0542,-1.50649 -2.0897,-1.11281 -0.9341,0.35516 -1.2765,1.52627 -0.5733,1.96089 0.532,0.32883 0.429,1.94455 -0.124,1.94455 -0.2627,0 -0.9705,-0.17183 -1.5729,-0.38184 -1.9209,-0.66962 -2.3823,-3.99986 -0.7579,-5.46993 0.3779,-0.34198 0.687,-1.06371 0.687,-1.60383 0,-1.14276 -0.6223,-1.43734 -2.8917,-1.36879 -0.8402,0.0254 -2.2875,-0.15433 -3.2161,-0.39935 -2.076,-0.54773 -2.2945,-0.3694 -2.9218,2.38386 -0.259,1.1368 -0.7064,2.78285 -0.9942,3.6579 -0.2877,0.87504 -0.765,2.54558 -1.0605,3.71231 -1.4504,5.72671 -3.004,11.00005 -4.6905,15.92172 -0.2687,0.78432 -0.4886,1.69914 -0.4886,2.03293 0,0.33379 -0.1519,0.6069 -0.3376,0.6069 -0.4197,0 -0.8777,2.29226 -0.5605,2.80549 0.313,0.50635 0.8849,0.47453 2.6473,-0.14729 z m -46.8159,-8.1454 c 0.3952,-0.78174 0.9919,-1.81151 1.3259,-2.28838 0.334,-0.47687 0.6073,-1.1162 0.6073,-1.42072 0,-0.30453 0.2962,-1.13464 0.6582,-1.8447 0.362,-0.71006 0.9417,-2.45401 1.2881,-3.87546 0.3465,-1.42144 0.9215,-3.41522 1.2777,-4.43063 0.8898,-2.53635 2.3425,-8.37769 2.6289,-10.5705 l 0.2364,-1.8101 -1.6305,-0.22284 c -0.8967,-0.12256 -2.3178,-0.31616 -3.1579,-0.43022 -1.3086,-0.17769 -1.6882,-0.0722 -2.6491,0.73641 -0.8573,0.72132 -1.1107,1.20778 -1.0751,2.06355 0.026,0.61586 -0.2743,2.39253 -0.6665,3.94817 -1.5321,6.07584 -1.8411,8.02902 -1.9017,12.02081 -0.029,1.89577 0.4084,8.71951 0.5961,9.30558 0.3042,0.94957 1.7312,0.26514 2.4622,-1.18097 z m -9.7465,-0.14641 c 0.2013,-0.37613 0.3669,-1.0523 0.3681,-1.50261 0,-0.4503 0.2459,-1.28605 0.5437,-1.8572 1.5619,-2.9951 4.0504,-12.02248 4.0504,-14.69329 0,-0.58939 0.1395,-1.34789 0.3101,-1.68555 0.5431,-1.07491 1.063,-3.03244 1.3055,-4.91441 0.2259,-1.75392 0.1951,-1.8463 -0.7837,-2.35246 -0.7424,-0.38392 -1.6724,-0.47438 -3.4283,-0.33344 -2.0315,0.16307 -2.4524,0.31024 -2.6837,0.93825 -0.1509,0.40966 -0.3729,2.97223 -0.4933,5.69459 -0.244,5.51313 -1.0347,10.71174 -1.8468,12.14097 -2.7145,4.77758 -2.7117,4.76258 -1.3071,6.97945 1.3207,2.08437 3.279,2.86754 3.9651,1.5857 z m 25.0427,-3.29362 c 0.8624,-1.43041 1.3644,-3.67341 1.8396,-8.22011 0.2032,-1.94455 0.6866,-5.18687 1.0741,-7.20516 0.5273,-2.74634 0.6046,-3.79009 0.3072,-4.1484 -0.3107,-0.37437 -0.2067,-0.55122 0.4768,-0.81109 0.9753,-0.37084 1.4096,-1.16635 1.0905,-1.99781 -0.1402,-0.36552 -0.4039,-0.45849 -0.7844,-0.27653 -0.3152,0.15075 -2.045,0.32992 -3.844,0.39814 -3.723,0.14118 -4.2244,0.51536 -3.8261,2.85578 0.2523,1.48235 0.2527,1.32764 -0.016,5.60345 -0.1413,2.25195 -0.037,4.10692 0.3384,6.0104 0.7757,3.93419 0.7987,4.3941 0.2831,5.63897 -0.3694,0.89187 -0.3747,1.28211 -0.026,1.94351 0.911,1.72871 2.121,1.81058 3.0867,0.20885 z m -33.5771,-0.97884 c 1.0019,-0.97588 2.1197,-2.368 2.4841,-3.09359 1.4413,-2.87016 3.0006,-8.76915 2.5371,-9.59751 -0.1601,-0.28608 -0.1191,-0.887 0.092,-1.3509 0.281,-0.61679 0.262,-1.16391 -0.073,-2.08931 -0.3073,-0.84995 -0.3616,-1.78369 -0.1684,-2.89935 0.602,-3.47679 -0.1796,-4.65084 -3.0963,-4.65084 -0.9584,0 -3.2429,-0.1673 -5.0766,-0.37177 -2.3563,-0.26275 -3.541,-0.26098 -4.0399,0.006 -1.1159,0.5972 -1.5173,2.88624 -1.7503,9.98003 -0.2055,6.25612 -0.2595,6.64864 -1.0125,7.35 -1.7267,1.60827 -0.4775,6.61919 1.9834,7.95619 0.5688,0.30901 1.9811,0.51259 3.6158,0.52122 l 2.6823,0.0141 1.8216,-1.77433 z m -148.34009,0.68852 c 1.01591,-0.46288 1.34913,-0.97935 2.51974,-3.90542 0.52778,-1.31923 0.99563,-3.33155 1.10388,-4.74799 0.10333,-1.3521 0.48952,-4.84485 0.8582,-7.76166 0.36867,-2.91682 0.72367,-6.69544 0.78888,-8.39695 0.11426,-2.9814 0.0905,-3.09364 -0.65391,-3.09359 -1.18804,8e-5 -2.58628,0.63475 -2.58628,1.17394 0,0.26636 -0.3182,0.77225 -0.70711,1.12421 -0.38891,0.35196 -0.7071,0.83689 -0.7071,1.07763 0,0.24074 -0.24398,0.53133 -0.54218,0.64576 -0.87654,0.33636 -2.6859,4.70521 -3.60578,8.70643 -0.46939,2.04177 -0.84317,4.03051 -0.83061,4.41942 0.10377,3.21306 0.71894,8.67681 1.04567,9.2873 0.39876,0.7451 1.72874,1.84963 2.22716,1.84963 0.14204,0 0.63228,-0.17042 1.08944,-0.37871 z m 61.22549,-3.35885 c 0.3055,-0.30557 0.5555,-0.74923 0.5555,-0.98591 0,-0.23667 0.326,-1.06058 0.7244,-1.8309 0.7305,-1.41236 1.0101,-3.11777 1.9395,-11.8304 1.0672,-10.00476 1.0555,-9.42267 0.1983,-9.88143 -0.4223,-0.22603 -1.4379,-0.36233 -2.2569,-0.3029 -1.4632,0.10617 -1.491,0.13266 -1.5945,1.52227 -0.058,0.77782 -0.5203,3.72115 -1.0276,6.54074 -0.5072,2.81958 -0.9552,6.31976 -0.9955,7.77817 -0.04,1.45841 -0.187,3.4691 -0.326,4.4682 -0.1494,1.07412 -0.1055,2.08561 0.1073,2.47488 0.1979,0.36207 0.4521,1.09584 0.5648,1.63059 0.234,1.11063 1.2217,1.30562 2.1107,0.41669 z m -15.5598,-1.44 c 0.5007,-0.36084 1.3209,-1.53111 1.8225,-2.60061 0.5017,-1.0695 1.1383,-2.42184 1.4147,-3.00521 0.7635,-1.6114 1.2183,-4.52229 1.4085,-9.01561 0.095,-2.23622 0.2405,-5.04364 0.3241,-6.23871 0.1396,-1.99643 0.089,-2.19238 -0.6269,-2.41333 -0.4283,-0.13226 -4.2219,-0.30525 -8.4303,-0.38443 l -7.65152,-0.14395 -0.2301,1.2265 c -0.12655,0.67457 -0.0762,1.51407 0.11192,1.86555 0.20769,0.38808 0.23589,1.95206 0.0718,3.98243 -0.50828,6.28914 0.49716,10.24621 3.5119,13.82149 2.1534,2.55378 4.4047,3.93713 6.0647,3.72659 0.714,-0.0906 1.7079,-0.45987 2.2087,-0.82071 z m 38.9512,-1.53995 c 0.2249,-0.48614 0.745,-1.59983 1.1558,-2.47487 0.4854,-1.0339 0.9996,-3.50986 1.4686,-7.07107 0.3969,-3.01405 0.8786,-5.87783 1.0703,-6.36396 0.1917,-0.48614 0.4797,-1.97868 0.64,-3.31675 l 0.2914,-2.43286 -3.1296,0.23625 c -1.7213,0.12994 -3.346,0.31929 -3.6105,0.42079 -0.322,0.12356 -0.5456,1.08295 -0.6768,2.90371 -0.1077,1.49556 -0.3671,4.23063 -0.5763,6.07794 -0.2093,1.84732 -0.4195,5.16063 -0.4671,7.36292 l -0.087,4.00416 1.0142,0.8763 c 1.2256,1.05891 2.3538,0.97252 2.9066,-0.22256 z m 6.7705,-2.74004 c 1.8927,-4.72587 3.0149,-8.79576 2.8253,-10.24638 -0.2003,-1.53161 0.918,-3.62411 1.939,-3.62818 1.1007,-0.004 1.3596,1.14091 0.9483,4.19653 -0.3091,2.29679 -0.2889,3.03432 0.1046,3.83056 0.3508,0.70988 0.3918,1.25447 0.1463,1.94414 -0.4764,1.33844 0.1889,2.6209 1.7446,3.36275 0.9953,0.47465 1.3235,0.50786 1.541,0.15594 0.152,-0.24593 0.4527,-2.92065 0.6683,-5.94381 0.4115,-5.77096 0.8427,-7.19497 2.1784,-7.19497 1.1277,0 1.7849,0.9856 1.7849,2.67691 0,1.909 0.5351,2.06287 0.8344,0.23991 0.1197,-0.72921 0.6167,-1.80312 1.1045,-2.38649 l 0.8869,-1.06066 0.7084,0.83466 c 0.6116,0.72052 0.7085,1.34572 0.7085,4.57154 0,3.06427 0.1365,4.03901 0.7586,5.41552 0.7592,1.67988 1.745,2.3211 2.8918,1.88104 1.1773,-0.4518 2.5233,-5.78015 2.9332,-11.61223 0.1956,-2.78276 0.1424,-3.3296 -0.3746,-3.8466 -0.6484,-0.64834 -3.523,-0.8377 -4.3887,-0.2891 -0.2833,0.17952 -1.1468,0.0951 -2.1213,-0.20745 -2.3369,-0.72545 -15.8909,-1.04267 -16.7507,-0.39204 -0.4731,0.35807 -0.7362,1.58182 -1.1637,5.41243 -0.3038,2.72236 -0.87,6.22254 -1.2584,7.77817 -0.3884,1.55564 -0.8025,3.8228 -0.9204,5.03814 -0.197,2.03268 -0.1586,2.20971 0.4796,2.20971 0.5353,0 0.9445,-0.626 1.7912,-2.74004 z m -21.1686,-0.43012 c 0.4024,-0.77212 0.9137,-2.79805 1.1375,-4.50781 0.2235,-1.70798 0.5406,-3.42361 0.7046,-3.81252 0.1639,-0.3889 0.3635,-2.05944 0.4433,-3.71231 0.1103,-2.28205 0.3329,-3.32093 0.9251,-4.31728 0.6913,-1.16333 0.8583,-1.26353 1.4732,-0.88388 0.9668,0.59701 1.1037,1.46361 0.6823,4.31728 -0.6588,4.46148 -0.8871,12.10332 -0.3798,12.71455 0.6484,0.78136 1.0396,0.6743 1.4465,-0.39592 0.3982,-1.04749 1.1187,-7.55628 1.1092,-10.02053 0,-0.87505 0.295,-2.69167 0.6631,-4.03693 0.9216,-3.36807 0.8149,-3.46028 -3.8915,-3.36292 -2.0546,0.0425 -3.9936,-0.0344 -4.3088,-0.17086 -0.7365,-0.31887 -1.7249,0.65048 -1.7249,1.69162 0,0.43335 -0.1877,0.97562 -0.4172,1.20504 -0.3204,0.32046 -0.3137,0.61023 0.029,1.25043 0.3719,0.69495 0.3454,1.06306 -0.1596,2.21686 -0.9121,2.08407 -1.1841,11.09899 -0.3722,12.33804 0.8563,1.307 1.7858,1.12645 2.6403,-0.51286 z m 36.2436,-0.96796 c 0.3541,-1.67855 0.1308,-2.5794 -0.6392,-2.5794 -0.6357,0 -1.4001,2.54413 -1.0735,3.57303 0.3828,1.20619 1.3694,0.63384 1.7127,-0.99363 z m 208.4849,-1.69551 c 0,-0.19446 -0.4027,-0.4039 -0.8949,-0.46543 -0.6378,-0.0797 -0.8949,0.054 -0.8949,0.46543 0,0.41144 0.2571,0.54516 0.8949,0.46542 0.4922,-0.0615 0.8949,-0.27097 0.8949,-0.46542 z m -6.086,-0.13617 c 0.8891,-0.56346 0.3032,-1.60775 -1.0229,-1.82331 -0.6851,-0.11137 -1.4659,-0.33857 -1.735,-0.50492 -0.2692,-0.16634 -1.7752,-0.58302 -3.3468,-0.92595 -1.5715,-0.34294 -3.7324,-0.85552 -4.8019,-1.13907 -1.0695,-0.28356 -3.2969,-0.78703 -4.9497,-1.11883 -1.6529,-0.3318 -4.0394,-0.88846 -5.3033,-1.23702 -1.264,-0.34856 -3.0141,-0.81356 -3.8891,-1.03332 -0.8751,-0.21977 -3.182,-0.81529 -5.1266,-1.32339 -5.2707,-1.37721 -9.3413,-2.27861 -11.2253,-2.4857 -0.9236,-0.10153 -1.6794,-0.32835 -1.6794,-0.50404 0,-0.17568 -0.5966,-0.3286 -1.3258,-0.33981 -0.7292,-0.0112 -2.4395,-0.34039 -3.8007,-0.73152 -3.872,-1.1126 -8.7546,-2.46651 -9.6888,-2.68663 -0.7965,-0.18767 -0.8355,-0.12746 -0.6187,0.95621 0.1272,0.63607 0.2313,2.72393 0.2313,4.63969 0,3.3107 0.043,3.51142 0.8702,4.05339 0.9333,0.61156 5.0248,1.10313 11.833,1.42166 2.2226,0.10399 4.3409,0.34946 4.7071,0.54548 0.3663,0.19603 2.6048,0.50355 4.9745,0.6834 10.002,0.7591 19.8043,1.78265 20.4666,2.13711 0.4187,0.22411 0.8417,0.25059 1.028,0.0643 0.1838,-0.18382 1.1681,-0.18883 2.3485,-0.012 1.1177,0.16746 2.525,0.35037 3.1275,0.40645 0.6025,0.0561 1.3184,0.24058 1.591,0.41 0.2725,0.16941 1.7441,0.34178 3.27,0.38304 1.5259,0.0413 2.865,0.16561 2.9757,0.27633 0.2723,0.27225 0.5257,0.2463 1.0906,-0.11164 z m 3.1695,-0.30577 c -0.1321,-0.6931 -1.2682,-0.96608 -2.0122,-0.4835 -0.738,0.47874 -0.136,1.10221 1.0644,1.10221 0.8242,0 1.039,-0.14022 0.9478,-0.61871 z m -64.0649,-7.01238 c 0.2129,-0.84798 0.066,-3.26063 -0.444,-7.28111 -0.1724,-1.35968 -0.3752,-1.72037 -1.1398,-2.02722 -1.1109,-0.44581 -5.2895,-1.43273 -6.0975,-1.44013 -0.8356,-0.008 -5.1223,3.52984 -5.7775,4.76775 -0.3088,0.58336 -0.8964,1.48384 -1.3058,2.00106 -0.4345,0.54884 -0.7624,1.5057 -0.7876,2.2981 l -0.043,1.35769 2.9168,0.26517 c 1.6042,0.14584 4.2294,0.40209 5.8336,0.56945 1.6042,0.16735 3.7491,0.32645 4.7662,0.35355 1.7117,0.0456 1.8665,-0.0188 2.0787,-0.86431 z m -18.9943,-1.41367 c 0.395,-0.50217 0.8202,-1.23452 0.9449,-1.62745 0.4305,-1.35641 2.9042,-4.79531 4.6638,-6.48354 2.2141,-2.12435 1.8793,-2.33338 -8.2202,-5.13231 l -2.4748,-0.68588 -0.6187,0.74277 c -0.3403,0.40851 -0.6238,1.2422 -0.63,1.85263 -0.01,0.61044 -0.2356,1.4061 -0.5098,1.76814 -0.2743,0.36204 -0.6053,1.55529 -0.7357,2.65165 -0.1304,1.09637 -0.4886,2.53712 -0.796,3.20168 -0.559,1.20841 -0.7022,3.40116 -0.2517,3.85448 0.2025,0.20382 2.2578,0.41369 6.9634,0.71105 0.6429,0.0406 1.177,-0.23313 1.6648,-0.85322 z m -17.6375,-0.55436 c 4.9088,0.45379 5.5304,0.45385 5.8914,7.1e-4 0.4972,-0.62432 1.1876,-2.78282 1.7359,-5.42747 0.2419,-1.16672 0.6911,-2.99636 0.9983,-4.06586 1.0956,-3.81483 0.6034,-5.00311 -2.2801,-5.50531 -0.6704,-0.11676 -1.9787,-0.52296 -2.9072,-0.90267 -0.9285,-0.3797 -2.5991,-0.85561 -3.7123,-1.05756 -1.1132,-0.20195 -2.6888,-0.75266 -3.5012,-1.2238 -0.8125,-0.47113 -1.775,-0.8566 -2.139,-0.8566 -0.364,0 -0.813,-0.13955 -0.9977,-0.3101 -0.1848,-0.17055 -1.211,-0.58935 -2.2805,-0.93066 -1.0695,-0.34132 -2.1209,-0.75947 -2.3366,-0.92925 -0.2156,-0.16977 -1.0907,-0.53504 -1.9445,-0.81172 -4.5241,-1.46593 -10.2489,-3.92468 -11.9823,-5.14621 -1.1927,-0.84047 -2.3071,-0.40057 -2.5919,1.02305 -0.1195,0.59771 -0.1256,1.32577 -0.014,1.6179 0.1829,0.47655 -0.8356,5.14793 -2.16,9.90641 -0.2705,0.97227 -0.6779,3.16072 -0.9052,4.86322 -0.2274,1.70251 -0.5671,3.1905 -0.7551,3.30666 -0.3713,0.22946 -0.062,2.75252 0.4599,3.74584 0.2228,0.42464 0.7576,0.59999 1.815,0.59513 0.8246,-0.004 2.4537,0.0904 3.6205,0.20939 1.1667,0.11895 3.0759,0.27148 4.2426,0.33896 2.6695,0.15438 9.1015,0.74447 14.0496,1.28895 3.018,0.33209 3.9062,0.3268 4.3311,-0.0258 0.3268,-0.27125 0.5344,-0.29947 0.5344,-0.0726 0,0.45697 1.0503,0.75785 1.7678,0.50641 0.2917,-0.10222 0.769,-0.16379 1.0606,-0.13683 z m -36.416,-3.25575 c 0.6206,-0.28811 0.974,-0.83065 1.1862,-1.82108 0.1663,-0.7759 0.5502,-2.20622 0.8532,-3.17849 0.4825,-1.54804 0.9609,-3.7531 2.1864,-10.07627 0.8744,-4.51171 1.3793,-7.44697 1.5938,-9.26617 l 0.2381,-2.01832 -1.2179,-0.50887 c -0.6699,-0.27987 -1.3236,-0.67987 -1.4528,-0.88888 -0.1292,-0.20901 -0.8944,-0.55762 -1.7005,-0.77469 -0.8061,-0.21706 -2.7486,-1.21575 -4.3165,-2.21931 -3.7109,-2.37513 -3.9313,-2.51204 -6.1285,-3.80741 -1.0253,-0.60448 -2.0253,-1.40001 -2.2221,-1.76785 -0.1969,-0.36785 -0.5738,-0.66881 -0.8376,-0.66881 -0.2638,0 -1.2526,-0.68097 -2.1973,-1.51326 -0.9447,-0.83229 -2.5131,-2.16815 -3.4854,-2.96859 -0.9722,-0.80044 -2.1655,-2.11844 -2.6516,-2.9289 -1.7724,-2.95476 -1.8642,-3.02711 -2.9435,-2.31988 -0.7904,0.51788 -1.3838,0.58025 -3.5708,0.37531 -3.3527,-0.31417 -3.8814,0.10853 -4.2304,3.38181 -0.1325,1.24366 -0.4712,2.97714 -0.7526,3.85219 -1.0897,3.38911 -2.0505,7.65944 -2.0046,8.90947 0.026,0.71945 -0.1798,1.95389 -0.4583,2.7432 -0.2785,0.78931 -0.6886,3.144 -0.9112,5.23265 -0.2227,2.08865 -0.5514,3.97771 -0.7305,4.19791 -0.1791,0.2202 -0.3156,0.8566 -0.3034,1.41422 0.012,0.55761 -0.1436,1.80934 -0.3462,2.78161 -0.3975,1.9075 -1.0322,8.00931 -1.0572,10.16466 -0.02,1.68389 0.6998,1.7548 1.7934,0.17678 2.6906,-3.88262 5.3031,-6.3347 7.7668,-7.29004 1.9573,-0.75894 2.1826,-0.78055 2.7534,-0.26403 0.3419,0.3094 1.1316,0.74033 1.7549,0.95762 1.2377,0.43148 2.4211,2.47031 3.7705,6.49639 0.9067,2.70514 1.8638,3.30579 5.4899,3.44545 2.2423,0.0864 2.8039,-0.0139 3.7135,-0.66268 l 1.0716,-0.76443 2.1103,1.21575 c 1.9604,1.12934 2.2612,1.20004 4.2317,0.99453 1.1667,-0.12168 2.5191,-0.4059 3.0052,-0.63159 z m -21.948,-1.07704 c 0.4857,-0.58524 -0.5297,-4.01784 -1.5084,-5.09928 -0.3218,-0.35569 -0.5852,-0.80838 -0.5852,-1.006 0,-0.19762 -0.3086,-0.63859 -0.6858,-0.97993 -0.6512,-0.58937 -0.778,-0.58999 -2.5174,-0.0123 -1.0074,0.33461 -2.0671,0.86765 -2.3548,1.18455 -3.4632,3.81396 -4.2039,5.12499 -3.2403,5.73523 0.6774,0.42899 2.3443,0.39925 2.6199,-0.0467 0.2628,-0.42518 4.392,-0.0808 4.9233,0.41065 0.5322,0.49228 2.8946,0.3609 3.3487,-0.18622 z m -121.9482,-1.46852 c 0,-0.28021 -0.1591,-0.50947 -0.35356,-0.50947 -0.19445,0 -0.35355,0.32759 -0.35355,0.72798 0,0.40038 0.1591,0.62964 0.35355,0.50946 0.19446,-0.12018 0.35356,-0.44777 0.35356,-0.72797 z m 103.6866,0.40525 c 0.5844,-0.58444 1.1245,-9.26138 0.6554,-10.52956 l -0.2868,-0.77529 -0.6642,0.77565 c -0.3653,0.42661 -0.8025,0.77565 -0.9717,0.77565 -0.1692,0 -0.7121,0.3182 -1.2066,0.7071 -0.4944,0.38891 -1.2434,0.70711 -1.6644,0.70711 -0.421,0 -0.9516,0.18614 -1.1791,0.41365 -0.8303,0.83025 -5.9158,-1.31895 -6.4508,-2.7262 -0.411,-1.081 -0.8879,-1.10372 -1.5514,-0.0739 -0.6776,1.05187 -1.4963,9.20584 -0.9428,9.39035 0.215,0.0717 0.6154,0.35478 0.8897,0.6291 0.5714,0.5713 1.9635,0.67426 1.9635,0.14521 0,-0.19446 0.3182,-0.35356 0.7071,-0.35356 0.3889,0 0.7071,0.14012 0.7071,0.31138 0,0.41146 6.7275,0.72603 7.4759,0.34957 0.3793,-0.19075 0.7326,-0.1106 1.0156,0.23036 0.5418,0.65285 0.8689,0.65795 1.5035,0.0234 z m -20.0712,-0.91472 c 0.1202,-0.19445 0.5764,-0.35355 1.0139,-0.35355 1.4439,0 1.9787,-0.74151 2.1673,-3.00521 0.097,-1.16672 0.4203,-4.26915 0.718,-6.89429 0.6655,-5.86975 1.2796,-12.6328 1.244,-13.70019 -0.015,-0.43752 -0.039,-1.23302 -0.054,-1.76777 -0.047,-1.65071 0.4746,-5.75522 0.7531,-5.92731 0.145,-0.0897 0.7465,0.005 1.3367,0.21101 1.1092,0.3867 1.6548,1.17509 1.2576,1.81764 -0.1252,0.20271 -0.206,3.31718 -0.1795,6.92106 0.041,5.61303 0.1534,6.8637 0.7814,8.723 1.3211,3.91108 4.2679,5.31299 7.6091,3.6199 3.2543,-1.64909 4.3114,-4.06225 6.5139,-14.8703 0.5885,-2.88763 1.219,-5.52889 1.4013,-5.86946 0.1823,-0.34056 0.6579,-2.91002 1.057,-5.70991 0.399,-2.79988 0.8117,-5.46791 0.917,-5.92895 0.184,-0.80554 0.1322,-0.82965 -1.3286,-0.61771 -0.836,0.1213 -6.3726,0.45597 -12.3034,0.74371 -5.9309,0.28774 -11.738,0.61087 -12.9047,0.71807 -1.1668,0.10721 -5.9108,0.25337 -10.5423,0.32481 -4.6315,0.0715 -8.4743,0.18538 -8.5395,0.25319 -0.065,0.0678 -0.2885,2.27113 -0.4959,4.89626 -0.2075,2.62514 -0.4474,5.48892 -0.5332,6.36396 -1.0932,11.15256 -1.9926,28.39571 -1.5064,28.8819 0.1,0.0998 2.7656,0.34313 5.924,0.54066 5.0868,0.31814 5.7889,0.29558 6.1495,-0.19758 0.3684,-0.50375 0.4648,-0.4993 1.0135,0.0468 0.4792,0.47691 1.1563,0.58723 3.2283,0.52594 1.4421,-0.0427 2.7173,0.0767 2.8338,0.26517 0.2786,0.45081 2.188,0.44243 2.4682,-0.0108 z m -25.4152,-1.1264 c 0.1425,-0.23062 0.3789,-1.96618 0.5254,-3.85679 0.1517,-1.95857 0.5101,-3.90908 0.8331,-4.53364 0.419,-0.81019 0.4718,-1.27373 0.2026,-1.77683 -0.4638,-0.86648 -0.4681,-4.6117 -0.01,-7.70327 0.9375,-6.31157 1.1523,-8.27734 1.2154,-11.11801 0.038,-1.71602 0.2499,-3.28719 0.4807,-3.56525 0.3183,-0.38352 0.2778,-0.84012 -0.1769,-1.9977 -0.3972,-1.01115 -0.4679,-1.578 -0.217,-1.73804 0.2048,-0.13063 0.4559,-0.79435 0.5579,-1.47494 0.1021,-0.68059 0.3063,-1.61809 0.4537,-2.08333 l 0.268,-0.8459 -2.7944,0.23795 c -5.466,0.46542 -50.9833,0.87423 -51.6473,0.46386 -0.4477,-0.27673 -8.15053,0.24629 -8.48004,0.5758 -0.12879,0.12879 -0.35208,1.54746 -0.49621,3.1526 -0.47988,5.34434 -0.78169,7.33785 -1.11096,7.33785 -0.17941,0 -0.30531,0.99437 -0.27977,2.20971 0.0255,1.21534 -0.004,2.52791 -0.0654,2.91682 -0.16099,1.01826 0.41738,19.19065 0.66149,20.7841 0.21732,1.41858 1.07523,2.17042 2.04985,1.79642 0.31694,-0.12162 0.49256,-0.43925 0.39026,-0.70583 -0.1023,-0.26659 -0.038,-0.48471 0.14283,-0.48471 0.18086,0 0.49957,-0.67617 0.70826,-1.5026 0.20868,-0.82643 0.76006,-2.4572 1.22528,-3.62393 0.46523,-1.16672 0.95505,-2.51906 1.0885,-3.0052 0.13345,-0.48614 1.80791,-4.07461 3.72091,-7.9744 2.558,-5.21458 3.7167,-7.2181 4.3794,-7.57275 0.4955,-0.26523 0.901,-0.59763 0.901,-0.73866 0,-0.14103 0.4616,-0.75054 1.0258,-1.35447 0.8659,-0.92696 1.2845,-1.09805 2.6865,-1.09805 1.393,0 1.8222,0.17269 2.6612,1.07081 0.5501,0.58894 1.3545,2.13538 1.7875,3.43653 0.7232,2.17318 0.7967,3.15791 0.9028,12.09906 0.1232,10.38666 0.2235,11.50298 1.0624,11.82489 0.7548,0.28963 10.7874,0.29931 11.5384,0.0111 0.34,-0.1305 0.8565,-0.0395 1.1477,0.2021 0.3687,0.30599 1.3602,0.38238 3.2659,0.25164 1.505,-0.10325 3.4982,-0.0301 4.4292,0.16268 1.1704,0.24228 1.8332,0.2339 2.1477,-0.0272 0.4808,-0.39903 9.9325,0.003 10.3707,0.44116 0.3877,0.38779 2.1745,0.24634 2.4465,-0.19367 z M 990.62329,915.564 c 0.79937,-0.61456 0.83782,-0.80601 0.63876,-3.18039 -0.1683,-2.00748 -0.0888,-2.74306 0.38686,-3.58086 0.56409,-0.99346 0.563,-1.1172 -0.0188,-2.14153 -0.5274,-0.92858 -0.54573,-1.15891 -0.12561,-1.57902 0.42011,-0.42012 0.41436,-0.7128 -0.0395,-2.00644 -0.41765,-1.19052 -0.48203,-2.43474 -0.30091,-5.81521 0.12673,-2.36535 0.0921,-4.38611 -0.0769,-4.49058 -0.16903,-0.10447 -1.21108,0.91631 -2.31567,2.2684 -3.46056,4.23596 -6.85206,5.60779 -9.64837,3.90267 -1.23346,-0.75214 -3.31581,-4.60643 -3.31581,-6.13738 0,-0.92677 -0.55686,-1.58684 -0.98095,-1.16275 -0.41385,0.41385 -0.73607,9.18401 -0.35465,9.6528 0.24729,0.30393 0.18123,0.81152 -0.21401,1.64443 -0.31444,0.66263 -0.57171,2.07384 -0.57171,3.13602 0,1.06219 -0.16406,2.78823 -0.36459,3.83566 -0.20052,1.04743 -0.26174,2.73968 -0.13604,3.76057 l 0.22856,1.85615 4.46706,0.0374 c 3.68609,0.0309 6.94108,0.20445 11.36136,0.60579 0.29169,0.0265 0.91309,-0.24611 1.38091,-0.60577 z m 24.09821,0.30366 c 0.6331,-0.33884 0.6836,-0.79128 0.6812,-6.0988 0,-3.15304 -0.1732,-7.08515 -0.3815,-8.73801 -0.2084,-1.65286 -0.4856,-4.55202 -0.6161,-6.44258 -0.1998,-2.89604 -0.3613,-3.56145 -1.0251,-4.22519 -1.3811,-1.38101 -2.3681,-0.64987 -5.0942,3.77348 -1.3182,2.139 -2.6672,4.60503 -2.9979,5.48008 -0.3306,0.87504 -0.7218,1.67179 -0.8694,1.77055 -0.5182,0.34677 -4.1948,9.97602 -4.55691,11.93495 -0.20139,1.08939 -0.36616,2.13199 -0.36616,2.31688 0,0.20775 1.92467,0.24678 5.03817,0.10217 2.8944,-0.13443 5.4894,-0.0924 6.0988,0.0988 1.452,0.45564 3.2664,0.4679 4.0891,0.0276 z m 170.9607,-8.38987 c 0.2169,-0.14286 0.7372,-0.93592 1.1562,-1.76235 l 0.7618,-1.50261 h -0.8321 c -1.5406,0 -5.0116,0.79936 -5.5191,1.27102 -0.4298,0.39952 -0.3762,0.51597 0.3681,0.79894 0.4792,0.18219 1.0831,0.58648 1.342,0.89841 0.486,0.58563 2.029,0.75368 2.7231,0.29659 z m -5.417,-4.47714 c 3.2657,-0.66098 6.3275,-1.45726 6.804,-1.76951 1.0562,-0.692 1.8077,-2.40804 2.4878,-5.68036 0.2829,-1.36119 0.7416,-3.19082 1.0192,-4.06587 1.6801,-5.29467 1.9594,-6.35298 1.9594,-7.42444 0,-1.11203 0.6523,-3.4946 1.0649,-3.88927 0.3236,-0.30957 1.0571,-3.25852 1.6059,-6.45618 0.2924,-1.70359 0.7046,-3.53323 0.9161,-4.06587 0.3379,-0.85072 0.8313,-2.55489 2.072,-7.15562 0.3963,-1.46926 0.097,-3.53553 -0.512,-3.53553 -0.2372,0 -0.6515,0.4115 -0.9206,0.91445 -0.5138,0.96 -2.8425,2.97464 -3.4384,2.97464 -0.1913,0 -0.5458,0.23865 -0.7879,0.53033 -0.2421,0.29168 -0.783,0.53033 -1.2021,0.53033 -0.419,0 -1.0757,0.21832 -1.4593,0.48515 -0.3836,0.26684 -1.2542,0.60341 -1.9348,0.74793 -0.6806,0.14453 -1.3965,0.37836 -1.591,0.51962 -0.1945,0.14127 -1.5468,0.60862 -3.0052,1.03856 -6.3847,1.88223 -7.6269,2.28512 -8.0433,2.60876 -0.2926,0.2273 -0.6144,0.20029 -0.952,-0.0799 -0.5157,-0.42797 -2.5309,-0.24273 -8.152,0.74935 -3.5348,0.62384 -6.0945,0.9392 -12.2308,1.50681 -3.2268,0.29848 -6.9656,0.70141 -8.3085,0.89542 -1.3429,0.19401 -6.2601,0.51777 -10.927,0.71947 -11.6399,0.50308 -13.6118,0.67823 -13.6118,1.20907 0,0.24224 0.3604,0.63331 0.8009,0.86906 0.4405,0.23575 1.1167,1.01835 1.5026,1.73912 0.4344,0.81134 1.005,1.35356 1.498,1.42357 0.4379,0.0622 1.313,0.74333 1.9445,1.51363 1.1707,1.42793 5.5513,4.91403 6.1749,4.91403 0.1891,0 0.6318,0.31819 0.9838,0.7071 0.352,0.38891 0.8369,0.70711 1.0776,0.70711 0.2408,0 0.5165,0.19887 0.6127,0.44194 0.096,0.24307 1.5849,1.15685 3.3082,2.03062 1.7233,0.87377 3.2363,1.73192 3.3623,1.907 0.3193,0.44373 2.7725,1.34178 3.8329,1.40315 0.7774,0.045 0.9125,-0.13446 1.1591,-1.54007 0.1535,-0.87504 0.3747,-2.54558 0.4914,-3.71231 0.1168,-1.16673 0.3907,-2.25276 0.6087,-2.4134 0.2872,-0.21162 0.2746,-0.34148 -0.046,-0.4714 -0.6419,-0.26047 -0.5452,-0.70376 0.3318,-1.52084 1.9422,-1.80938 3.6467,0.0399 2.6601,2.88589 -0.6611,1.90673 -1.3141,4.89571 -1.5534,7.10948 -0.1858,1.71879 0.4567,3.07233 1.4584,3.07233 0.2204,0 1.031,0.32907 1.8013,0.73127 0.7703,0.4022 3.3295,1.42245 5.687,2.26723 2.3575,0.84477 4.5849,1.69453 4.9497,1.88835 0.9785,0.51981 9.7967,3.91287 10.2093,3.92834 0.1945,0.007 3.0255,-0.52755 6.2912,-1.18854 z m 11.5633,-4.08204 c 0,-0.18946 0.4375,-0.57212 0.9722,-0.85035 1.4176,-0.73758 5.194,-4.11754 5.3398,-4.77925 0.069,-0.31166 0.3424,-0.8126 0.6082,-1.11318 0.6994,-0.79083 3.3289,-6.07542 3.3345,-6.70133 0,-0.29168 0.3961,-1.32582 0.8744,-2.29809 0.4783,-0.97228 0.8746,-2.04892 0.8806,-2.39255 0.014,-0.81047 2.1162,-7.05236 2.5203,-7.48444 0.1804,-0.19289 0.079,-0.58618 -0.2437,-0.94238 -0.498,-0.55033 -0.4991,-0.69386 -0.011,-1.43852 0.3386,-0.51683 0.747,-2.77942 1.0884,-6.03025 1.1782,-11.21959 0.3276,-22.32864 -1.7714,-23.1341 -0.8134,-0.31213 -1.0947,0.3032 -1.5469,3.38377 -0.2166,1.47572 -0.687,3.63772 -1.0454,4.80445 -0.3583,1.16672 -0.853,3.67609 -1.0992,5.57636 -0.2463,1.90028 -0.5859,3.54043 -0.7548,3.64479 -0.1688,0.10436 -0.307,0.80639 -0.307,1.56008 0,0.75368 -0.1726,1.81821 -0.3835,2.36562 -0.2109,0.5474 -0.604,2.02943 -0.8737,3.29338 -0.2696,1.26395 -0.9837,4.04819 -1.587,6.18718 -0.6033,2.139 -1.1827,4.52549 -1.2874,5.30331 -0.1048,0.77781 -0.3233,1.57946 -0.4856,1.78143 -0.1623,0.20197 -0.4675,1.4466 -0.6783,2.76584 -0.3627,2.27068 -1.1725,5.21451 -2.3816,8.65774 -0.4913,1.39925 -1.8688,7.22368 -1.8688,7.90189 0,0.15569 0.1591,0.28308 0.3535,0.28308 0.1945,0 0.3536,-0.15502 0.3536,-0.34448 z m -207.55354,-2.39556 c 1.70566,-1.53073 3.19966,-3.2355 3.19966,-3.65109 0,-0.19172 0.23865,-0.44016 0.53033,-0.55209 0.29168,-0.11193 0.53033,-0.43657 0.53033,-0.72144 0,-0.28486 0.38725,-1.18266 0.86057,-1.99511 0.47332,-0.81244 1.0518,-2.27266 1.28551,-3.24493 0.23371,-0.97227 0.5624,-1.91891 0.73041,-2.10365 0.16802,-0.18473 0.30549,-1.52454 0.30549,-2.97736 0,-1.91337 0.15427,-2.81196 0.55966,-3.25991 0.51289,-0.56674 0.50414,-0.64813 -0.10465,-0.97395 -0.85322,-0.45663 -4.7879,-0.60942 -6.73059,-0.26136 -1.01194,0.18131 -1.5026,0.14362 -1.5026,-0.11541 0,-0.22653 -0.73623,-0.38463 -1.79101,-0.38463 -1.76637,0 -3.08763,0.44172 -3.59526,1.20197 -0.14287,0.21396 -0.25984,3.88919 -0.25996,8.16719 -1.6e-4,6.14201 0.10735,7.9641 0.51105,8.66206 0.28119,0.48613 0.62696,1.12253 0.76838,1.41421 0.71452,1.47375 3.43426,1.93382 4.70268,0.7955 z m 155.40444,-25.90782 c 4.6669,-0.19951 9.9171,-0.53038 11.6672,-0.73527 7.0758,-0.82836 8.235,-0.97295 10.7017,-1.33483 1.4135,-0.20737 2.8945,-0.55071 3.2911,-0.76298 0.3966,-0.21227 1.1863,-0.28377 1.7549,-0.15889 0.9147,0.2009 4.1852,-0.26604 5.6423,-0.80557 0.2917,-0.108 1.2949,-0.23759 2.2294,-0.28798 0.9345,-0.0504 2.0666,-0.33236 2.5156,-0.62661 0.5204,-0.34092 0.9394,-0.41217 1.1552,-0.19641 0.2157,0.21577 0.8061,0.14327 1.6272,-0.19984 0.7088,-0.29614 1.6087,-0.53844 1.9998,-0.53844 0.8224,0 5.2445,-1.31944 6.0291,-1.79892 0.2917,-0.17825 0.8656,-0.47021 1.2752,-0.64879 0.4097,-0.17859 1.6312,-0.89169 2.7145,-1.58466 3.324,-2.12632 3.0614,-3.50423 -1.0224,-5.36527 -3.2777,-1.49368 -6.2452,-1.98315 -11.4525,-1.88899 -2.316,0.0419 -4.7596,-0.11102 -5.6776,-0.35527 -1.065,-0.28332 -2.8641,-0.35516 -5.3033,-0.21175 -6.5558,0.38544 -18.8354,0.70138 -21.2809,0.54754 -1.291,-0.0812 -4.9228,0.61956 -5.3321,1.02888 -0.2078,0.20775 -0.863,0.37872 -1.4561,0.37992 -0.5931,10e-4 -2.7297,0.47851 -4.7479,1.06066 -2.0183,0.58216 -3.8748,1.05847 -4.1256,1.05847 -0.2508,0 -0.9065,0.23062 -1.457,0.51248 -0.5505,0.28186 -2.035,0.97959 -3.299,1.55052 -3.4718,1.56819 -6.4316,4.13464 -7.012,6.08011 -0.2592,0.86878 -0.7096,2.05691 -1.0009,2.64027 -0.4061,0.81342 -0.4425,1.2873 -0.1562,2.03293 l 0.3734,0.97227 5.9308,-4.2e-4 c 3.2619,-2.2e-4 9.7491,-0.16364 14.4161,-0.36316 z"
         id="path32152"
         transform="scale(0.26458333)" />
      <path
         style="fill:#1b4d96;fill-opacity:1;stroke-width:0.0625"
         d="m 1127.3588,1001.6335 c -0.298,-0.1115 -0.4213,-0.214 -0.4213,-0.3502 0,-0.119 -0.1535,-0.2722 -0.3391,-0.3385 -0.066,-0.024 -0.3197,-0.01 -0.5634,0.031 -0.619,0.104 -0.8833,0.042 -1.193,-0.2808 -0.3068,-0.3198 -0.4045,-0.623 -0.4045,-1.25613 0,-0.94121 0.441,-2.03302 0.8212,-2.03302 0.1568,0 0.2359,0.17952 0.2984,0.6774 0.065,0.52199 0.1055,0.60108 0.4757,0.94236 0.8599,0.7926 2.4932,1.03509 3.9047,0.57969 0.8587,-0.27704 1.3208,-0.38641 1.9207,-0.45457 0.7279,-0.0827 1.1197,-0.28212 1.7059,-0.86832 0.5786,-0.57869 0.7943,-0.99561 0.8733,-1.68841 0.083,-0.72978 0.2598,-1.00065 0.6522,-1.00065 0.2422,0 0.1972,-0.14899 -0.1248,-0.41285 -0.369,-0.30231 -0.4648,-0.49803 -0.4648,-0.94907 0,-0.28495 0.043,-0.45392 0.1898,-0.74788 0.3305,-0.6615 0.8797,-1.04116 1.6177,-1.11829 0.6578,-0.0688 0.7564,0.1677 0.6356,1.52462 -0.092,1.03946 -0.2056,1.50196 -0.5138,2.10116 -0.1599,0.31091 -0.329,0.79304 -0.4605,1.3125 -0.4278,1.69097 -0.7431,2.06788 -2.051,2.4518 -0.9097,0.26706 -1.2001,0.39436 -1.5308,0.67126 -0.3399,0.2846 -0.5522,0.3447 -1.4786,0.4186 -0.8944,0.071 -1.3295,0.187 -1.5363,0.4085 -0.281,0.301 -0.6037,0.4189 -1.2159,0.4441 -0.3818,0.016 -0.6379,-0.01 -0.7974,-0.065 z"
         id="path32154"
         transform="scale(0.26458333)" />
    </g>
  </g>
</svg>
