<?xml version="1.0" encoding="UTF-8" standalone="no"?>
<!-- Created with Inkscape (http://www.inkscape.org/) -->

<svg
   version="1.1"
   id="svg1"
   width="780.47998"
   height="185"
   viewBox="0 0 780.47998 185"
   sodipodi:docname="francisH-N.svg"
   inkscape:version="1.2.2 (b0a8486541, 2022-12-01)"
   xml:space="preserve"
   xmlns:inkscape="http://www.inkscape.org/namespaces/inkscape"
   xmlns:sodipodi="http://sodipodi.sourceforge.net/DTD/sodipodi-0.dtd"
   xmlns="http://www.w3.org/2000/svg"
   xmlns:svg="http://www.w3.org/2000/svg"><defs
     id="defs1" /><sodipodi:namedview
     id="namedview1"
     pagecolor="#505050"
     bordercolor="#eeeeee"
     borderopacity="1"
     inkscape:showpageshadow="0"
     inkscape:pageopacity="0"
     inkscape:pagecheckerboard="0"
     inkscape:deskcolor="#505050"
     inkscape:zoom="1.1685117"
     inkscape:cx="436.45263"
     inkscape:cy="19.255263"
     inkscape:window-width="1920"
     inkscape:window-height="1043"
     inkscape:window-x="0"
     inkscape:window-y="0"
     inkscape:window-maximized="1"
     inkscape:current-layer="svg1"
     showgrid="false" /><g
     id="g422"
     transform="matrix(0.423827,0,0,0.423827,-9.9185698,-9.7775664)"><path
       style="fill:#000000;stroke-width:0.665719"
       d="M 168.75977,445.96292 C 134.25116,441.7953 107.18999,432.07289 86.099308,416.26508 77.440593,409.77523 59.854306,391.8767 55.168962,384.78558 45.701568,370.45696 36.688799,349.00378 32.914975,331.81417 29.10309,314.45121 29.964171,280.26404 34.615712,264.29044 45.396599,227.2684 68.330387,204.48589 107.97036,191.41965 c 5.56032,-1.83281 12.67975,-3.78057 15.82096,-4.32835 13.8563,-2.41633 38.40761,-2.85105 53.95565,-0.95537 12.83174,1.5645 33.57495,8.28488 49.92893,16.17595 32.63102,15.74502 62.26645,38.8377 113.96381,88.80353 16.79541,16.23286 19.66204,18.74378 20.74031,18.16671 1.48875,-0.79676 5.435,-8.63732 7.39943,-14.70146 4.44359,-13.71726 4.33642,-32.70255 -0.24868,-44.0541 -4.49587,-11.13068 -13.50562,-22.32338 -24.11338,-29.95578 -10.68053,-7.68476 -26.52986,-14.83954 -40.34699,-18.21362 -7.15411,-1.74701 -25.05958,-4.96758 -27.63201,-4.97005 -0.82383,-6.6e-4 -1.49749,-0.37589 -1.49703,-0.83358 4.6e-4,-0.45768 1.77561,-5.02618 3.94477,-10.15221 l 3.94394,-9.32007 75.26544,-0.37799 c 41.39599,-0.20789 75.41022,-0.52276 75.58717,-0.69971 0.17695,-0.17695 1.96137,-5.69876 3.96538,-12.27068 8.09906,-26.55995 16.51324,-49.55594 20.6399,-56.40894 7.28819,-12.103242 28.19515,-33.197553 46.65848,-47.076591 27.3984,-20.595614 52.39936,-30.793488 66.67827,-27.198018 5.78666,1.457097 6.72124,5.682612 3.95423,17.878182 -2.47139,10.89259 -9.10816,32.499219 -10.78658,35.116677 -1.1333,1.767377 -4.94506,2.078328 -6.24698,0.509609 -0.86264,-1.039419 -0.62761,-2.980603 1.63311,-13.488377 1.7367,-8.07207 0.2088,-12.618571 -5.33178,-15.865565 -12.81302,-7.508929 -46.08784,5.375912 -61.60181,23.853761 -11.3109,13.471803 -16.15769,24.753782 -27.95503,65.071712 -2.62486,8.97056 -5.54364,18.93335 -6.48619,22.13952 -1.36567,4.6455 -1.54569,5.99752 -0.88642,6.65719 0.63626,0.63663 9.8898,0.8731 40.07193,1.02401 l 39.24462,0.19622 v 1.69002 c 0,2.76591 -5.2972,22.263 -12.03335,44.29039 l -1.96625,6.42971 -3.81813,0.26048 c -2.09998,0.14325 -3.89942,0.21427 -3.99875,0.15781 -0.31567,-0.17942 2.36355,-13.19856 3.1181,-15.15178 1.66815,-4.31819 0.5932,-7.74295 -3.74967,-11.94628 l -2.58621,-2.50311 -31.15381,0.1731 -31.15382,0.1731 -6.82237,20.63729 c -17.9832,54.39815 -35.99174,89.77415 -63.85229,125.43154 -41.78248,53.4754 -99.45507,90.21954 -154.70082,98.56237 -18.78711,2.83709 -41.33105,3.47899 -56.75667,1.61602 z m 56.58611,-17.23698 c 21.05935,-0.82778 45.09795,-7.17534 66.90476,-17.66666 29.07776,-13.98939 53.78521,-35.32442 73.98539,-63.88682 13.702,-19.37421 27.65667,-44.18311 36.50549,-64.90023 7.51137,-17.58587 24.98293,-73.84272 24.98293,-80.44283 0,-1.22733 -0.44854,-1.72899 -1.83072,-2.04749 -3.15559,-0.72716 -91.36993,-1.32856 -91.36993,-0.62292 0,0.97067 3.17167,3.70758 7.98862,6.89358 17.74273,11.73529 31.61251,29.72789 36.73629,47.65625 1.28886,4.50974 1.48753,6.67347 1.39949,15.24165 -0.23412,22.78314 -4.76821,39.3174 -17.66529,64.41919 l -6.07681,11.82739 -3.03609,-3.50011 C 330.31322,314.53982 293.7158,276.97723 275.93938,261.71107 241.56794,232.19332 204.0964,210.65545 171.42264,201.637 c -33.37828,-9.2129 -63.3179,-6.55278 -86.820313,7.71396 -19.318164,11.72676 -33.746536,29.76468 -39.403428,49.26102 -6.175766,21.28461 -5.41732,52.34026 1.809207,74.08044 4.503893,13.54946 14.670827,30.93445 24.943751,42.65266 22.37927,25.52781 59.777953,45.0405 99.137923,51.72503 8.98345,1.52566 28.31144,2.62065 39.27742,2.22516 3.29531,-0.11884 10.03572,-0.37504 14.97868,-0.56933 z"
       id="path364" /><path
       style="fill:#000000;stroke-width:0.665719"
       d="m 623.21095,330.36305 c 1.62629,-5.54642 13.75045,-41.25208 26.05232,-76.72411 16.09629,-46.4131 18.78574,-55.27544 18.78574,-61.90324 0,-5.88121 -2.2262,-6.43257 -12.24872,-3.03361 -5.56279,1.88651 -5.97798,1.93856 -6.80245,0.85276 -2.20112,-2.89882 -0.58314,-4.61123 10.25772,-10.85634 16.13604,-9.29552 38.54458,-20.59025 40.85068,-20.59025 1.35139,0 0.10651,11.06603 -2.35904,20.97015 -1.27609,5.12604 -3.66327,13.5141 -5.30485,18.64013 -3.54143,11.05851 -4.44034,14.31296 -3.95338,14.31296 0.1986,0 7.13953,-6.8411 15.42431,-15.20244 20.35723,-20.54535 35.97826,-33.47122 46.66167,-38.61093 4.35918,-2.09717 5.72931,-2.4241 11.15321,-2.66132 9.49936,-0.41547 9.583,-0.18478 5.08857,14.0351 l -2.47234,7.8222 -8.37097,0.0206 c -12.29181,0.0302 -17.49618,0.85465 -23.04523,3.65077 -18.48844,9.31619 -40.18393,34.96271 -55.4629,65.56345 -7.49474,15.01046 -11.80947,26.0199 -22.04631,56.25325 l -8.34012,24.63161 -11.98294,3.13512 c -6.59062,1.72432 -12.19147,3.14729 -12.44635,3.16216 -0.25487,0.0149 -0.002,-1.54571 0.56138,-3.46798 z"
       id="path366" /><path
       style="fill:#000000;stroke-width:0.665719"
       d="m 818.5015,333.392 c -0.54921,-0.19853 -2.13163,-1.4434 -3.51647,-2.76638 -10.89668,-10.40984 -4.17103,-45.12622 13.90904,-71.79555 11.04325,-16.28952 33.33935,-40.02798 50.52072,-53.78894 24.14954,-19.34193 57.84979,-35.69748 89.20635,-43.29401 13.0833,-3.1696 21.91437,-4.30612 33.37136,-4.29476 11.2796,0.0112 13.1143,0.51919 13.429,3.71843 0.2905,2.95338 -2.2814,9.25854 -4.558,11.17422 -3.0612,2.57581 -7.4573,3.07093 -26.26511,2.95816 -18.71061,-0.11219 -25.15549,0.53055 -38.91969,3.88142 -20.31621,4.94593 -44.60451,17.40837 -61.60387,31.60925 -24.61218,20.56043 -44.26711,51.40554 -48.60416,76.27603 -1.87961,10.77847 -0.8948,21.61272 2.38297,26.21592 1.67884,2.35772 5.72761,3.54833 10.27236,3.02077 4.01107,-0.46561 12.47162,-4.56578 17.88555,-8.66774 17.21236,-13.04126 38.47837,-36.51674 51.02821,-56.3299 9.78689,-15.45113 22.66562,-46.3198 25.45093,-61.00264 l 0.78268,-4.12597 1.80347,0.93261 c 5.144,2.66007 8.38984,12.7825 7.13646,22.2557 -1.38466,10.46551 -6.91507,23.31874 -15.69394,36.47428 -2.75836,4.13353 -4.89843,7.63228 -4.75571,7.775 0.41418,0.41418 8.99295,-1.37032 16.07204,-3.3432 3.57997,-0.99771 6.70061,-1.62245 6.93473,-1.38832 0.23414,0.23414 -2.91191,8.73879 -6.99122,18.89924 -8.52607,21.23614 -13.44259,34.8261 -13.44259,37.15717 0,0.89145 0.63671,2.25752 1.41492,3.03573 1.24697,1.24697 1.96039,1.37588 6.01056,1.08609 3.76976,-0.26972 5.83058,-0.92923 11.46743,-3.66984 l 6.87178,-3.34103 1.09775,1.85836 c 0.60377,1.02209 1.09776,2.30753 1.09776,2.85654 0,2.38006 -18.21402,12.28224 -34.28453,18.63904 -8.17545,3.23386 -24.78058,8.2783 -25.25066,7.67085 -0.0932,-0.12047 0.22894,-2.91519 0.71592,-6.2105 1.65476,-11.19762 8.57908,-32.35722 16.62738,-50.81061 6.35752,-14.57671 6.07452,-14.44384 -16.72424,7.85167 -17.66512,17.27518 -28.21789,26.16003 -42.27316,35.59164 -7.78152,5.2217 -20.57148,11.41171 -26.90168,13.01972 -4.93012,1.25235 -13.35708,1.72003 -15.70434,0.87155 z"
       id="path368" /><path
       style="fill:#000000;stroke-width:0.332859"
       d="m 1069.644,334.03298 c 0,-0.17841 3.1267,-6.80648 6.9482,-14.72903 19.7345,-40.91218 31.9947,-68.93714 40.8132,-93.29235 10.0516,-27.76102 12.7633,-43.6736 8.1095,-47.58944 -1.6009,-1.34714 -4.3263,-1.17875 -11.5172,0.71161 -3.2496,0.85427 -6.4327,1.56576 -7.0734,1.58108 l -1.165,0.0279 0.041,-1.94388 c 0.054,-2.59232 0.6963,-3.40772 3.9747,-5.04686 2.8675,-1.43372 3.7347,-1.75343 19.1185,-7.04917 5.5837,-1.92214 13.822,-4.97318 18.3073,-6.78008 11.0262,-4.44197 13.4132,-4.9934 14.3157,-3.30715 0.8476,1.5837 0.012,7.87741 -2.0136,15.17535 -3.1024,11.17491 -8.5858,26.21029 -17.2858,47.39706 -6.8812,16.75756 -8.7718,21.63861 -8.4903,21.92007 0.2716,0.27162 4.3105,-3.95604 9.9704,-10.43642 8.9892,-10.29231 36.5556,-37.29739 48.7252,-47.73297 17.7338,-15.20695 39.6446,-26.76672 52.8504,-27.88302 2.0697,-0.17495 2.5962,-0.0989 3.9911,0.57638 2.2717,1.09968 4.9667,3.82233 5.4166,5.47198 0.5204,1.90851 0.4476,11.0918 -0.1174,14.81224 -1.3695,9.01734 -5.5874,18.667 -16.6589,38.11242 -11.9255,20.94525 -18.7981,33.67482 -25.6085,47.43248 -9.5682,19.32852 -15.6285,34.08914 -16.999,41.40295 -0.7557,4.03263 -0.2207,5.62579 2.2985,6.84533 3.0136,1.45884 7.5182,0.69917 14.3906,-2.42684 6.7146,-3.05429 7.4018,-3.11679 8.4674,-0.77003 0.9105,2.00519 0.8081,2.66584 -0.6059,3.90788 -4.2117,3.69977 -19.4149,12.07652 -28.2098,15.54327 -8.6417,3.40634 -23.9052,7.81202 -28.1266,8.11849 l -1.4979,0.10875 -0.1026,-1.23636 c -0.2762,-3.32872 5.3851,-21.62511 11.9253,-38.54035 8.1574,-21.09779 15.9271,-38.38191 33.4426,-74.3941 8.3724,-17.21401 12.5489,-25.95858 15.1822,-31.78808 0.8845,-1.95804 1.1263,-2.92718 1.1209,-4.49361 -0.013,-3.71307 -2.0843,-6.48664 -4.847,-6.48951 -4.6236,-0.005 -16.3458,7.041 -27.1463,16.31676 -27.8013,23.87643 -52.9102,54.66381 -72.7465,89.19845 -4.3208,7.52249 -7.3766,13.28984 -15.0897,28.47934 l -6.602,13.00136 -8.1798,2.7366 c -9.5514,3.19547 -14.7865,5.24356 -16.5801,6.48649 -1.2749,0.8835 -2.7455,1.18617 -2.7455,0.56505 z"
       id="path370" /><path
       style="fill:#000000;stroke-width:0.332859"
       d="m 1359.343,336.52737 c -5.345,-0.96983 -10.2581,-3.14656 -13.2274,-5.86036 -2.1768,-1.98946 -5.5343,-6.89262 -6.5154,-9.51492 -1.1792,-3.15162 -1.4272,-7.25314 -1.2398,-20.50705 0.2015,-14.25621 0.4759,-16.44657 3.0673,-24.4843 9.8792,-30.64227 32.8145,-62.40961 63.5722,-88.05288 11.9829,-9.99037 25.288,-18.51584 37.0981,-23.77124 14.8557,-6.61065 28.3032,-9.80449 44.4525,-10.55765 4.5181,-0.21071 6.2567,0.0318 6.4232,0.89571 0.195,1.01223 -9.0956,19.47489 -19.7453,39.23872 -8.3387,15.47489 -9.6752,17.09971 -13.5555,16.47923 -2.1821,-0.34894 -2.3274,-0.61687 -1.5176,-2.79966 0.3849,-1.03719 1.7079,-4.21004 2.9401,-7.05077 5.9038,-13.61041 6.0221,-18.80511 0.4907,-21.55259 -4.0761,-2.02459 -15.277,-2.20938 -24.1815,-0.39895 -15.7836,3.20904 -28.0014,13.02104 -42.794,34.3674 -17.3286,25.00597 -25.7756,44.51011 -29.2228,67.47607 -2.2788,15.18246 -0.6685,24.4054 5.4071,30.96755 3.6674,3.96123 3.0832,3.8204 15.7313,3.79181 12.4296,-0.0281 12.8971,-0.10214 19.6517,-3.11177 7.6669,-3.41616 14.8736,-8.64759 22.9628,-16.66892 10.5694,-10.48075 16.5406,-18.48558 26.4433,-35.44953 6.1292,-10.49964 8.1344,-13.61089 8.8579,-13.74395 0.3424,-0.063 0.7489,0.40008 1.165,1.32687 1.0124,2.25486 0.8499,8.14357 -0.3335,12.08422 -2.6252,8.74202 -7.9944,18.21022 -14.7879,26.07725 -3.9577,4.58301 -15.7555,16.20153 -20.9895,20.67038 -23.0474,19.67838 -46.1817,30.72327 -64.1063,30.60606 -2.0138,-0.0132 -4.7348,-0.2187 -6.0467,-0.45673 z"
       id="path372" /><path
       style="fill:#000000;stroke-width:0.332859"
       d="m 1565.5194,333.98341 c -0.469,-0.26244 -0.5796,-0.78525 -0.576,-2.72153 0.01,-4.42495 2.5126,-20.03986 4.6699,-29.11683 2.126,-8.94533 4.4864,-14.59298 20.6208,-49.33826 18.8079,-40.50257 25.401,-56.10005 27.6477,-65.40689 1.1867,-4.9157 0.5512,-8.92258 -1.6485,-10.39416 -2.2193,-1.4847 -5.7816,-0.88524 -16.1712,2.72125 -3.4748,1.2062 -6.492,2.12622 -6.705,2.04448 -0.4873,-0.18696 -2.2433,-5.3927 -2.0175,-5.98093 0.092,-0.23951 6.6591,-3.0303 14.5938,-6.20176 18.233,-7.28765 27.5297,-11.14307 33.0442,-13.70363 6.7207,-3.12063 7.9169,-3.58553 9.2477,-3.59403 0.8872,-0.006 1.3339,0.174 1.5811,0.63594 0.5434,1.01538 0.4044,5.83505 -0.3335,11.5657 -2.752,21.37219 -3.8901,24.38117 -29.9391,79.16039 -18.1763,38.22366 -23.5685,51.58222 -24.1941,59.93895 -0.239,3.19329 0.1788,4.75923 1.5858,5.94309 2.0719,1.74346 5.5921,1.49026 13.2062,-0.94991 2.6127,-0.83732 5.0235,-1.52239 5.3574,-1.52239 1.0042,0 1.6739,1.08466 1.9101,3.09358 0.2194,1.86691 0.2021,1.9206 -0.9776,3.03313 -1.9753,1.86299 -8.6501,4.88493 -32.0104,14.49229 -13.9371,5.7319 -17.6792,6.98012 -18.8918,6.30152 z"
       id="path374" /><path
       style="fill:#000000;stroke-width:0.332859"
       d="m 1731.2022,335.66802 c -10.5202,-1.43273 -15.9198,-5.35485 -18.2698,-13.2708 -1.0933,-3.68296 -0.2865,-11.97808 1.8406,-18.9229 1.5016,-4.90251 2.0504,-4.77458 8.7498,2.03951 6.0971,6.20142 9.529,8.88935 14.3145,11.21136 5.1166,2.48259 8.0118,3.13868 13.8358,3.13531 5.346,-0.003 8.4867,-0.5257 13.3144,-2.21547 13.8333,-4.84196 23.7905,-16.68615 24.8942,-29.61184 0.3375,-3.95303 -0.046,-7.88565 -1.1989,-12.2943 -1.3796,-5.27581 -2.8327,-9.02201 -7.4749,-19.27065 -7.92,-17.48498 -10.3097,-24.40997 -11.2464,-32.59093 -0.6619,-5.78103 0.086,-11.55519 2.3896,-18.45421 2.768,-8.28903 5.3418,-12.19125 13.3827,-20.29016 20.2898,-20.43621 36.4532,-27.70672 63.858,-28.72411 6.5411,-0.24283 10.8579,0.001 11.7658,0.66505 0.5209,0.38085 0.4839,0.61186 -0.4888,3.05322 -1.4724,3.69562 -4.1657,8.4094 -12.2543,21.44776 -3.1754,5.11862 -11.6739,17.90084 -12.0605,18.13981 -0.1828,0.11295 -1.269,-0.28997 -2.4138,-0.89539 -2.8029,-1.4822 -2.8155,-1.81182 -0.319,-8.30435 2.287,-5.94751 2.7338,-7.58825 2.7238,-10.00283 -0.013,-3.17123 -1.8126,-5.76887 -4.5799,-6.6115 -0.6808,-0.20731 -3.7332,-0.45655 -6.7831,-0.55387 -11.6487,-0.37169 -19.2069,2.19434 -25.7384,8.73829 -3.5831,3.58995 -5.7432,7.0338 -7.4545,11.8847 l -1.205,3.41596 0.022,5.65861 c 0.021,5.4218 0.073,5.85055 1.241,10.24476 1.5186,5.71505 3.8801,11.87468 8.8949,23.20105 4.4769,10.11169 5.3369,12.46693 6.4641,17.70291 1.5442,7.17307 1.9511,11.00385 1.7441,16.42176 -0.2593,6.79162 -1.4712,11.53517 -4.6028,18.01738 -3.3975,7.03257 -8.3611,13.52349 -16.1356,21.10094 -13.2505,12.91454 -28.7012,22.41632 -41.399,25.45943 -2.6407,0.63286 -12.4821,0.92883 -15.8109,0.4755 z"
       id="path376" /><ellipse
       style="fill:#000000;stroke-width:1.23702"
       id="path869"
       cx="1642.1831"
       cy="122.12695"
       rx="11.94144"
       ry="12.50351" /><g
       id="g940"><path
         style="fill:#000000;stroke-width:0.0692137"
         d="m 628.97797,91.480897 c -4.82299,-0.298019 -8.12703,-1.638117 -11.32183,-4.592057 -1.16038,-1.072895 -1.94735,-1.965878 -2.82565,-3.206296 -3.64981,-5.154613 -4.86695,-11.406383 -3.33594,-17.134894 1.97595,-7.393314 7.86552,-13.372608 15.16819,-15.399269 5.83693,-1.619889 12.11227,-1.165659 16.42202,1.188683 2.26649,1.238149 3.82322,2.962897 4.43014,4.908287 0.19919,0.638468 0.2728,2.103843 0.14335,2.853815 -0.45591,2.641516 -2.37008,4.798345 -4.92286,5.546964 -0.68831,0.201851 -1.89241,0.25209 -2.61595,0.109147 -0.76364,-0.150866 -1.77188,-0.623516 -2.15671,-1.011039 -0.30033,-0.302429 -0.30917,-0.323803 -0.27096,-0.654955 0.0468,-0.40565 0.20249,-0.744139 0.76596,-1.665407 0.23045,-0.376782 0.57987,-0.983411 0.77649,-1.348066 1.25994,-2.336633 1.13167,-4.002971 -0.42567,-5.53009 -0.72277,-0.708748 -1.33856,-1.142742 -2.21551,-1.561434 -0.80837,-0.385947 -1.61164,-0.631171 -2.43245,-0.742572 -0.85613,-0.116197 -2.72364,-0.04724 -3.63085,0.134065 -0.88583,0.177034 -2.42437,0.643506 -3.15279,0.955895 -3.65213,1.56626 -6.15296,6.245088 -6.81456,12.749441 -0.1286,1.264362 -0.10878,4.239463 0.0368,5.518159 0.64962,5.707026 2.65312,9.933834 5.8974,12.441827 2.02259,1.563554 4.15113,2.363946 6.54039,2.459366 2.53177,0.101112 5.06556,-0.616128 7.57916,-2.145428 1.00529,-0.611636 1.58586,-1.037666 3.05661,-2.243007 2.20836,-1.809843 2.98177,-2.286307 3.71933,-2.291338 0.39912,-0.0027 0.43067,0.0097 0.69572,0.273265 0.47305,0.470465 0.46211,1.075931 -0.036,1.99111 -0.73558,1.351542 -2.68273,3.135442 -5.22557,4.787433 -3.06453,1.990915 -6.17102,3.066111 -10.04071,3.475217 -0.98469,0.104102 -3.08767,0.177658 -3.80754,0.133178 z"
         id="path647" /><path
         style="fill:#000000;stroke-width:0.0692137"
         d="m 688.8234,91.33967 c -2.9907,-0.272078 -5.27573,-0.773285 -7.28048,-1.596932 -6.2748,-2.577996 -11.20137,-9.60902 -12.04965,-17.196837 -0.11219,-1.003592 -0.1118,-3.178021 7.5e-4,-4.101014 0.33671,-2.761216 1.50153,-5.957052 3.21184,-8.812091 2.26122,-3.774692 4.55136,-5.878282 8.31352,-7.636292 6.89839,-3.223534 15.13886,-2.771444 20.79634,1.140898 3.06851,2.121977 5.07154,5.204206 5.57421,8.57746 0.24732,1.659797 0.19983,3.765233 -0.1082,4.795997 -0.63621,2.129 -2.43798,2.799181 -8.25701,3.071254 -0.84951,0.03972 -4.92286,0.09918 -9.05187,0.132127 -7.76445,0.06196 -8.40488,0.08606 -9.53334,0.358737 -1.00097,0.241869 -1.4812,0.55023 -1.74569,1.12092 -0.14674,0.316617 -0.15825,0.421425 -0.12271,1.117428 0.0459,0.898448 0.21351,1.566211 1.02109,4.067551 0.66085,2.046858 0.92912,2.726624 1.47731,3.74332 1.98655,3.684334 5.4801,6.22687 9.62706,7.006383 0.72554,0.136383 1.02101,0.154027 2.54501,0.151977 1.52018,-0.0021 1.81306,-0.02028 2.4755,-0.154133 2.84929,-0.575717 5.0257,-1.682691 7.37932,-3.753303 1.61889,-1.424229 2.77734,-2.266076 3.73507,-2.714291 2.32267,-1.087013 2.80976,0.157789 1.03938,2.656295 -3.6086,5.092749 -10.20924,8.1216 -17.56067,8.058092 -0.67944,-0.0058 -1.34848,-0.02096 -1.48678,-0.03354 z m 3.48426,-24.890244 c 2.37154,-0.173628 3.69308,-0.418914 4.66962,-0.866711 2.87141,-1.316711 3.2,-4.746177 0.80411,-8.392672 -1.24974,-1.902086 -2.65579,-3.14403 -4.17884,-3.691102 -0.94432,-0.339194 -1.72355,-0.462153 -2.94722,-0.465053 -5.82007,-0.01379 -9.60471,3.039661 -11.24052,9.068876 -0.18123,0.667954 -0.93641,4.23541 -0.93641,4.423558 0,0.09077 12.4876,0.02133 13.82926,-0.0769 z"
         id="path649" /><path
         style="fill:#000000;stroke-width:0.0978833"
         d="m 745.00432,93.538479 c -2.36483,-0.142301 -3.82527,-0.613049 -5.94345,-1.915784 -2.95253,-1.815876 -3.91003,-3.974305 -4.43463,-9.996659 -0.0744,-0.854149 -0.13057,-5.711527 -0.15911,-13.758554 l -0.0441,-12.438294 -0.98301,0.05855 c -3.75127,0.223404 -4.62741,0.180368 -5.24616,-0.257691 -0.19545,-0.138375 -0.37087,-0.379701 -0.44664,-0.614468 -0.31676,-0.981354 0.68832,-1.830319 3.64302,-3.077199 1.92935,-0.81416 2.53279,-1.16756 3.45432,-2.02293 0.9511,-0.88282 1.34701,-1.47653 2.2325,-3.34779 1.73264,-3.66154 2.43049,-4.38813 3.93596,-4.09804 0.67342,0.12977 0.98623,0.38617 1.14692,0.9401 0.15826,0.54553 0.12624,3.01998 -0.0831,6.42453 l -0.17188,2.795081 5.2834,0.04548 c 5.74754,0.04947 6.10309,0.08049 6.64064,0.579454 0.26009,0.241419 0.26831,0.283589 0.26831,1.376414 0,1.092825 -0.009,1.134994 -0.26831,1.376413 -0.5257,0.487962 -0.94136,0.527386 -6.10693,0.579214 l -4.74969,0.04766 6.2e-4,11.375785 c 3e-4,6.402968 0.0462,12.260097 0.10496,13.398733 0.31428,6.090098 1.16731,7.694653 4.26406,8.020667 0.69733,0.07341 1.59711,0.07181 3.25022,-0.0058 3.02721,-0.142105 4.60471,-0.02952 5.50428,0.39283 0.66924,0.314207 0.63722,0.708015 -0.1081,1.329564 -1.03608,0.864031 -3.30889,1.840974 -5.44698,2.34133 -1.79094,0.419115 -3.60969,0.56739 -5.53707,0.451414 z"
         id="path651" /><path
         style="fill:#000000;stroke-width:0.0978833"
         d="m 779.84002,108.802 c -3.12542,-0.16043 -5.1538,-0.40414 -6.00987,-0.72208 -0.47721,-0.17723 -0.59184,-0.47581 -0.3577,-0.93158 0.22368,-0.43538 0.42026,-0.53465 2.1303,-1.07568 3.58162,-1.1332 4.06698,-1.67831 4.58347,-5.14773 0.29352,-1.971629 0.39749,-5.988721 0.39652,-15.319762 -8.6e-4,-8.894307 -0.13717,-17.345781 -0.33901,-21.029838 -0.35824,-6.538562 -0.94782,-8.289545 -2.99445,-8.893165 -0.27939,-0.0824 -0.98853,-0.214078 -1.57586,-0.292612 -2.32658,-0.311094 -2.87442,-0.796992 -1.86874,-1.657447 0.98338,-0.84138 3.18367,-1.600448 7.6101,-2.62538 5.12848,-1.187485 6.11848,-1.231775 6.70198,-0.29981 0.18895,0.301788 0.20963,0.522524 0.24151,2.576511 0.0295,1.901035 0.0572,2.238484 0.18025,2.194656 0.0799,-0.02849 0.9558,-0.533347 1.9463,-1.121916 2.48606,-1.477265 2.86765,-1.683254 4.30264,-2.32263 2.3277,-1.037135 4.48203,-1.610219 6.81982,-1.814177 3.65089,-0.318519 7.74835,0.758156 11.3255,2.975959 4.51381,2.798525 7.58569,7.687004 8.62903,13.731921 0.26728,1.548563 0.26869,5.812178 0.003,7.308576 -1.34477,7.557376 -5.54335,12.75689 -12.47908,15.454109 -3.41982,1.329924 -6.75674,1.92053 -10.29719,1.822518 -2.80407,-0.07763 -4.39148,-0.398309 -7.31049,-1.476833 -2.58117,-0.953696 -2.69258,-0.988589 -2.80958,-0.879984 -0.49237,0.457026 -0.30672,9.408125 0.2637,12.713954 0.24123,1.39808 0.59375,2.07663 1.45332,2.79745 0.67247,0.56393 1.225,0.80109 2.8009,1.20222 2.3569,0.59994 2.72631,0.83765 2.56236,1.64881 -0.0585,0.2897 -0.13698,0.37736 -0.44598,0.49843 -0.5105,0.20002 -2.22305,0.4609 -3.88006,0.59105 -1.74766,0.13727 -9.51403,0.20061 -11.58211,0.0945 z m 21.90635,-20.042052 c 2.26572,-0.366287 4.04455,-1.128528 5.3481,-2.291709 2.50142,-2.232045 4.58686,-7.243417 5.26466,-12.651097 0.18357,-1.464555 0.15784,-4.450257 -0.0491,-5.705404 -0.85516,-5.185218 -3.49056,-9.935152 -6.62177,-11.934831 -2.5672,-1.639486 -7.42865,-1.961919 -11.33054,-0.751491 -1.23791,0.384019 -2.08749,0.814889 -3.98953,2.023329 l -1.55455,0.987665 -0.0635,2.95158 c -0.035,1.62337 -0.12002,6.146105 -0.18906,10.050523 -0.19105,10.805842 -0.11759,11.347939 1.83168,13.515637 1.86552,2.074552 4.28403,3.354162 7.19937,3.809117 1.10668,0.172704 3.07525,0.171131 4.15434,-0.0033 z"
         id="path653" /><path
         style="fill:#000000;stroke-width:0.0978833"
         d="m 841.42212,90.330767 c -1.60114,-0.09413 -2.28161,-0.237559 -2.67501,-0.563848 -0.29949,-0.24841 -0.3212,-0.308244 -0.31356,-0.864007 0.0172,-1.24646 0.40653,-1.487172 2.5796,-1.594675 1.74363,-0.08626 2.11713,-0.174615 2.65901,-0.629029 0.94665,-0.793851 1.30241,-2.167423 1.50828,-5.823443 0.13199,-2.34407 0.13171,-15.561931 -3.8e-4,-18.106408 -0.21956,-4.229115 -0.67588,-6.028275 -1.74425,-6.877114 -0.56029,-0.445157 -1.16397,-0.600254 -2.72802,-0.700879 -1.77365,-0.114109 -2.26552,-0.392225 -2.26552,-1.280982 0,-0.55957 0.29536,-0.902283 1.12278,-1.30282 2.02852,-0.981962 9.56816,-2.580381 12.40776,-2.630473 1.02147,-0.01803 1.19998,0.101289 1.54653,1.033564 0.21165,0.569427 0.2385,0.839569 0.2759,2.776229 0.0248,1.285219 0.0806,2.14542 0.13922,2.14542 0.0538,0 1.27242,-0.736296 2.70808,-1.636213 2.87797,-1.804008 4.31517,-2.618187 6.03814,-3.420647 1.95318,-0.909676 2.30984,-1.012059 3.53158,-1.013809 0.89593,-0.002 1.18564,0.03798 1.80903,0.244984 2.46753,0.819466 4.62099,2.974437 5.24745,5.251134 0.26078,0.947767 0.29402,1.627968 0.11877,2.430768 -0.83048,3.804369 -4.62379,6.266503 -7.61383,4.941927 -0.85422,-0.378415 -1.22819,-0.773308 -1.15093,-1.215307 0.0309,-0.176885 0.30707,-0.730914 0.61364,-1.231171 0.88598,-1.445697 0.96428,-2.123306 0.35904,-3.10696 -0.82797,-1.34565 -2.17791,-1.926616 -3.95506,-1.702115 -1.56692,0.197943 -2.77393,0.753337 -5.70786,2.626406 l -2.14187,1.367411 0.0586,10.562071 c 0.0331,5.953417 0.10588,11.158728 0.16692,11.929482 0.21435,2.707036 0.53488,3.80207 1.32853,4.538747 0.5312,0.493073 1.23058,0.744486 2.58733,0.930094 0.88793,0.121473 1.90909,0.586907 2.31398,1.054681 0.39994,0.462058 0.48831,1.087822 0.18912,1.339153 -0.3183,0.267371 -1.21586,0.425039 -3.01109,0.528938 -1.82754,0.105769 -14.1985,0.10491 -16.00196,-0.0011 z"
         id="path655" /><path
         style="fill:#000000;stroke-width:0.0978833"
         d="m 910.97358,91.337182 c -0.16764,-0.02188 -0.73441,-0.0861 -1.25949,-0.142697 -2.44375,-0.263411 -5.48936,-1.212568 -7.85021,-2.446498 -5.89584,-3.08153 -9.56566,-7.971897 -10.61964,-14.151591 -0.25135,-1.473744 -0.24863,-4.932701 0.005,-6.545073 0.76715,-4.874043 2.5284,-8.317301 5.90241,-11.53931 2.00673,-1.916317 3.92661,-3.221384 6.40517,-4.354016 3.09058,-1.412308 6.07989,-2.065745 9.46877,-2.069783 6.55151,-0.008 12.3069,2.612371 16.59069,7.553051 2.49597,2.878716 3.75292,5.454713 4.3203,8.854038 0.22319,1.337211 0.31327,4.854689 0.15968,6.234769 -0.45678,4.104444 -2.10766,7.906412 -4.78631,11.022901 -0.89615,1.042636 -2.87257,2.830949 -3.93808,3.56327 -3.78134,2.598917 -7.89599,3.933055 -12.41728,4.026194 -0.922,0.01899 -1.81352,0.01663 -1.98115,-0.0053 z m 4.2671,-3.307046 c 1.79743,-0.315754 3.13953,-1.020981 4.72989,-2.485383 2.47213,-2.276322 3.79911,-5.158636 4.47197,-9.713442 0.17493,-1.184189 0.22585,-2.116019 0.26829,-4.909453 0.074,-4.868692 -0.13688,-6.845269 -0.9864,-9.246599 -1.69452,-4.789969 -5.13241,-7.924321 -9.44143,-8.607847 -2.41813,-0.38358 -4.77895,0.03356 -6.9368,1.22567 -1.1152,0.616098 -2.90961,2.250064 -3.66535,3.337626 -1.25738,1.809453 -2.22219,4.022097 -2.54948,5.846861 -0.28829,1.607324 -0.36835,3.260055 -0.36729,7.581607 0.002,5.514037 0.18358,7.429876 0.87819,9.232962 0.37989,0.986145 1.35109,2.716379 2.1736,3.872358 1.88646,2.651284 3.99344,3.802746 7.35202,4.017864 1.36311,0.08731 3.07306,0.0234 4.07279,-0.152224 z"
         id="path657" /><path
         style="fill:#000000;stroke-width:0.0978833"
         d="m 1014.3401,91.712018 c -5.0835,-0.591348 -10.5169,-4.045861 -13.5873,-8.638646 -1.74997,-2.61771 -2.93895,-5.864844 -3.3351,-9.10833 -0.17974,-1.471582 -0.0736,-4.770933 0.19904,-6.189729 1.33876,-6.965833 5.54756,-12.351549 11.94826,-15.289388 5.3665,-2.463174 12.1226,-2.634514 18.0931,-0.458859 0.4973,0.18123 1.0557,0.32951 1.2408,0.32951 0.299,0 0.3582,-0.04536 0.5302,-0.406304 0.3587,-0.752495 0.4248,-2.219051 0.3778,-8.370721 -0.037,-4.8862 -0.072,-5.94615 -0.2182,-6.77155 -0.4164,-2.34288 -1.1228,-3.09198 -3.2601,-3.45743 -1.5121,-0.25854 -1.9747,-0.41803 -2.4573,-0.84731 -0.7674,-0.6825 -0.552,-1.11281 0.893,-1.78428 2.1322,-0.99076 8.747,-2.63024 12.5368,-3.10728 0.6538,-0.0823 0.6778,-0.0381 0.7719,1.4179 0.1631,2.52139 0.2942,12.62886 0.2997,23.091214 0.01,12.77817 0.1517,27.094317 0.2947,29.092847 0.1282,1.791774 0.366,3.274487 0.6301,3.929737 0.5559,1.379382 2.5952,2.573964 4.7426,2.778319 0.5215,0.04962 1.1899,0.174177 1.4854,0.2768 0.8016,0.278435 1.605,0.852525 1.8896,1.350388 l 0.2441,0.427216 -0.2104,0.263252 c -0.1158,0.144788 -0.383,0.316834 -0.5937,0.382321 -0.4772,0.148255 -2.9198,0.361112 -5.5917,0.48728 -2.8294,0.133601 -10.8087,0.331635 -10.8752,0.269906 -0.03,-0.02797 -0.1917,-0.737419 -0.3592,-1.576561 -0.5278,-2.645091 -0.706,-2.85723 -1.5989,-1.904246 -1.4939,1.594177 -5.5796,3.167875 -9.6836,3.729809 -0.9817,0.134414 -3.5523,0.183496 -4.4064,0.08413 z m 8.2802,-4.310596 c 2.7843,-0.601633 5.0665,-1.711904 5.8895,-2.865218 0.9011,-1.262677 0.9986,-2.661358 1.2701,-18.222606 0.03,-1.737555 0.082,-4.073755 0.1152,-5.191556 l 0.06,-2.032366 -1.8765,-1.928411 c -3.0358,-3.119624 -3.3527,-3.267694 -7.196,-3.361891 -3.4453,-0.08444 -4.982,0.129266 -6.3902,0.888733 -0.8418,0.453974 -3.1164,2.543915 -3.8321,3.5211 -1.8891,2.579077 -3.0658,5.760251 -3.5216,9.520601 -0.2391,1.971743 -0.2977,3.85629 -0.1713,5.500161 0.3083,4.007404 1.3113,7.064734 3.1542,9.615205 1.9017,2.631691 4.5605,4.256603 7.764,4.744922 1.2251,0.186757 3.3977,0.100179 4.7346,-0.188674 z"
         id="path659" /><path
         style="fill:#000000;stroke-width:0.0978833"
         d="m 1081.5697,90.770972 c -3.5339,-0.21617 -6.6314,-1.09237 -9.6928,-2.74183 -5.4499,-2.93636 -8.4457,-7.13304 -9.4777,-13.27654 -0.304,-1.80899 -0.3331,-6.20391 -0.053,-7.8744 0.8365,-4.97629 3.0144,-9.07608 6.4909,-12.21876 1.7506,-1.58252 3.0994,-2.47502 5.2617,-3.48158 4.7,-2.18794 10.7712,-2.49521 15.7795,-0.79861 4.6515,1.57572 9.172,6.41674 10.4768,11.21957 0.8536,3.14181 0.042,5.57372 -2.2008,6.594 -1.5316,0.69676 -6.4728,0.94815 -18.6427,0.94847 l -8.0515,2.1e-4 v 1.88126 c 0,1.12853 0.06,2.30768 0.1515,2.94701 0.5097,3.58411 2.0161,6.64359 4.4203,8.97743 2.7515,2.67103 5.6429,3.74955 10.1089,3.77071 2.3858,0.0113 3.9216,-0.29908 5.6594,-1.14375 1.2561,-0.61051 2.3639,-1.41487 4.1721,-3.02943 1.7764,-1.58621 2.8072,-2.30678 3.6095,-2.52327 0.5052,-0.13632 0.5838,-0.13536 0.9999,0.0121 0.5456,0.19339 0.7978,0.50658 0.7023,0.87167 -0.099,0.37686 -1.0017,1.8646 -1.5316,2.52332 -0.2504,0.31121 -0.9009,0.98279 -1.4456,1.49241 -3.5254,3.29862 -7.2688,5.04481 -12.166,5.6751 -1.092,0.14055 -3.5783,0.23565 -4.5718,0.17488 z m 3.5051,-24.92131 c 4.0739,-0.36543 5.2899,-0.76313 5.9434,-1.94389 l 0.3049,-0.55064 v -1.70414 c 0,-1.47024 -0.035,-1.82711 -0.2429,-2.60004 -0.304,-1.13439 -0.619,-1.91153 -1.1848,-2.92343 -1.525,-2.72732 -3.3319,-3.72355 -6.7482,-3.72065 -1.5492,10e-4 -2.4897,0.13183 -3.7973,0.52695 -1.5312,0.46268 -2.2301,0.86011 -3.3715,1.91706 -1.4962,1.38555 -2.7756,3.26939 -3.651,5.37574 -0.6651,1.60024 -0.7858,2.18912 -0.8385,4.09136 l -0.048,1.73062 6.2341,-0.0471 c 3.4288,-0.0259 6.76,-0.0942 7.4026,-0.15187 z"
         id="path661" /><path
         style="fill:#000000;stroke-width:0.0692137"
         d="m 1182.4798,90.554736 c -4.3597,-0.268349 -7.3595,-1.361065 -10.3922,-3.785384 -3.4119,-2.727467 -6.0798,-7.015576 -7.1643,-11.51487 -0.629,-2.60922 -0.7192,-5.488065 -0.2529,-8.065843 1.1248,-6.218548 5.1294,-11.781015 10.8137,-15.020651 2.5929,-1.477707 5.547,-2.373573 9.2227,-2.796897 1.1194,-0.128919 4.1196,-0.108197 5.2444,0.03622 3.8826,0.498521 6.7877,1.678424 8.8824,3.607574 1.8581,1.711256 2.6714,3.679773 2.3973,5.801937 -0.2261,1.749875 -1.0187,3.256309 -2.3265,4.421737 -1.8685,1.66501 -4.3321,2.13619 -6.4003,1.224094 -0.8096,-0.35701 -1.3307,-0.818684 -1.3314,-1.179546 -6e-4,-0.29953 0.2347,-0.83305 0.7182,-1.629169 1.4026,-2.308973 1.7959,-3.36328 1.7014,-4.560204 -0.1037,-1.312017 -0.8304,-2.346399 -2.4118,-3.432944 -0.9747,-0.669664 -2.047,-1.096704 -3.3059,-1.316529 -0.8735,-0.152513 -2.7831,-0.10001 -3.7784,0.103877 -1.5275,0.312918 -2.9471,0.790722 -3.9496,1.329351 -0.8449,0.453936 -2.1498,1.674166 -2.8618,2.675992 -1.5389,2.165653 -2.5571,5.020189 -3.0799,8.634638 -0.1466,1.013724 -0.1639,1.401607 -0.163,3.667574 9e-4,2.2623 0.019,2.655491 0.1653,3.667573 0.8172,5.636208 2.8597,9.585959 6.2001,11.989945 3.5159,2.530208 7.7372,2.865933 11.9505,0.950423 1.6889,-0.767836 2.7801,-1.482481 4.7415,-3.105326 2.5918,-2.144453 3.6512,-2.695225 4.3391,-2.255777 1.6597,1.060406 -0.7799,4.25381 -5.4885,7.184159 -0.6322,0.393442 -1.4374,0.861025 -1.7894,1.039073 -2.2524,1.139468 -5.1584,1.940292 -8.0887,2.229042 -0.7651,0.07539 -2.9865,0.137196 -3.592,0.09993 z"
         id="path663" /><path
         style="fill:#000000;stroke-width:0.0692137"
         d="m 1240.3716,90.912873 c -4.775,-0.426005 -8.98,-2.139343 -12.6343,-5.147822 -2.8292,-2.329197 -5.0981,-5.638598 -6.2149,-9.06504 -1.4627,-4.487615 -1.2366,-9.220124 0.6508,-13.624404 1.1483,-2.679688 2.7435,-4.937104 5.0126,-7.093609 4.3815,-4.163856 9.6828,-6.338773 15.4592,-6.342331 8.1122,-0.0048 15.8019,4.495704 19.4244,11.368762 1.1098,2.105741 1.7787,4.285552 2.0566,6.701656 0.1496,1.301206 0.096,3.792315 -0.1089,5.067919 -0.5859,3.644009 -1.8824,6.737458 -3.9762,9.486692 -3.2379,4.251552 -8.2648,7.292007 -13.7424,8.312017 -1.7764,0.330766 -4.3507,0.476781 -5.9269,0.33616 z m 4.8416,-3.328823 c 1.4864,-0.297815 2.7625,-0.769256 3.5328,-1.305107 1.4525,-1.01056 3.0173,-2.986106 4.083,-5.155165 1.4525,-2.956164 1.7566,-5.008452 1.6709,-11.279832 -0.053,-3.875699 -0.2109,-5.699628 -0.664,-7.668562 -0.6259,-2.719549 -1.7127,-4.643476 -3.7156,-6.577345 -1.0174,-0.982337 -1.7869,-1.552009 -2.6004,-1.925059 -1.2751,-0.5848 -2.49,-0.730286 -5.69,-0.681369 -2.5537,0.03904 -3.1427,0.120597 -4.1675,0.577053 -0.7319,0.325954 -1.2716,0.702553 -2.2023,1.536536 -3.2313,2.895462 -5.0894,8.06198 -5.2647,14.638721 -0.1949,7.314998 2.0184,13.739222 5.5954,16.241124 1.0408,0.727994 2.5782,1.311546 4.189,1.590089 1.13,0.195409 1.1315,0.195493 2.9063,0.172383 1.3195,-0.01718 1.7469,-0.04721 2.3271,-0.163467 z"
         id="path665" /><path
         style="fill:#000000;stroke-width:0.0692137"
         d="m 1296.764,90.890816 c -2.3065,-0.233628 -4.6478,-0.777191 -6.4692,-1.502024 -3.0783,-1.224971 -5.2853,-3.31209 -6.096,-5.764777 -0.1827,-0.55272 -0.1979,-0.686411 -0.2013,-1.764972 0,-1.329953 0.067,-1.673689 0.5358,-2.567302 0.6675,-1.274303 1.8219,-2.121516 3.4108,-2.503186 0.7321,-0.175853 2.1443,-0.239733 3.0371,-0.137375 1.7657,0.202442 2.2633,0.81473 1.7721,2.180241 -0.065,0.179825 -0.3226,0.732289 -0.573,1.227699 -0.6268,1.239671 -0.7835,1.778343 -0.7851,2.700145 0,0.594088 0.03,0.818317 0.164,1.179655 0.4864,1.312361 1.7943,2.365295 3.7485,3.017833 0.8021,0.267826 2.1013,0.54677 3.1768,0.682037 1.1921,0.149957 4.5592,0.17108 5.5159,0.0346 3.5587,-0.507646 5.7344,-2.046632 6.4757,-4.580713 0.2332,-0.79679 0.2368,-2.451805 0.01,-3.187399 -0.5674,-1.81736 -2.1161,-3.293066 -4.7268,-4.503965 -1.4435,-0.669572 -2.5044,-1.032524 -5.0248,-1.718938 -6.4343,-1.752425 -9.8689,-3.253731 -12.1097,-5.293331 -1.7004,-1.547635 -2.5988,-3.297466 -2.8759,-5.600926 -0.1184,-0.984696 -0.044,-2.985175 0.1401,-3.782995 0.6315,-2.731822 2.1855,-4.809851 4.8239,-6.450859 1.5001,-0.933081 4.2122,-1.959648 6.3219,-2.392938 5.6115,-1.152521 12.0524,-0.386583 15.7241,1.869881 0.7632,0.469035 1.6789,1.317682 2.0402,1.890862 1.0525,1.669933 1.2958,5.2356 0.4682,6.865097 -0.2233,0.439836 -1.2747,1.375561 -1.9251,1.713385 -1.1007,0.571731 -2.384,0.838045 -3.3597,0.697242 -0.8702,-0.125571 -2.0561,-0.743865 -2.4394,-1.271815 -0.3489,-0.480547 -0.1741,-0.983087 0.7663,-2.203309 0.8127,-1.054576 1.0414,-1.59755 1.0403,-2.46971 -9e-4,-0.68337 -0.1398,-1.147325 -0.5167,-1.725615 -0.9725,-1.492222 -3.0797,-2.54473 -5.8326,-2.913273 -1.0397,-0.139187 -3.4345,-0.104508 -4.421,0.06403 -1.2888,0.220138 -2.6989,0.718952 -3.5425,1.253058 -0.5049,0.319771 -1.2154,0.971711 -1.5389,1.412186 -0.6296,0.857312 -0.9029,1.645999 -0.9666,2.789975 -0.1006,1.809198 0.4136,3.069193 1.7668,4.329052 1.4465,1.34674 3.1775,2.171913 7.1907,3.427835 4.664,1.459628 7.0778,2.347654 9.6984,3.567997 4.2714,1.989142 5.4497,3.144658 6.1173,5.999258 0.1464,0.626052 0.1637,0.880183 0.1638,2.400594 10e-5,1.848857 -0.052,2.259717 -0.4665,3.719152 -0.5202,1.828959 -1.2921,3.129943 -2.6123,4.403034 -0.8241,0.794729 -1.4478,1.282677 -2.3761,1.859188 -2.6044,1.617368 -6.03,2.68064 -9.8422,3.055009 -1.2469,0.122444 -4.1791,0.12048 -5.4044,-0.0036 z"
         id="path667" /><path
         style="fill:#000000;stroke-width:0.0692137"
         d="m 1395.7849,90.56183 c -1.8942,-0.07805 -3.1028,-0.263753 -3.4423,-0.528913 -0.2743,-0.214235 -0.3223,-0.434916 -0.1879,-0.864128 0.2242,-0.715473 1.1491,-1.331819 2.3011,-1.533233 1.556,-0.272049 1.8232,-0.336051 2.2709,-0.543903 1.3349,-0.619893 1.7782,-1.8636 2.0157,-5.655329 0.118,-1.882868 0.1168,-13.126315 0,-15.403806 -0.2504,-4.81496 -0.7048,-6.911032 -1.8277,-8.429874 -0.9379,-1.268663 -3.2007,-2.434756 -5.5105,-2.839704 -0.8016,-0.140537 -2.5445,-0.141421 -3.4124,-0.0018 -1.3576,0.218506 -3.24,0.818703 -4.7056,1.500276 -2.0769,0.965919 -3.0404,2.063399 -3.5914,4.090584 -0.6098,2.243845 -0.7428,4.597055 -0.7427,13.148961 0,7.848783 0.097,9.838475 0.5624,11.542116 0.455,1.665773 1.1678,2.1898 3.4345,2.525228 1.1808,0.174739 1.8354,0.45936 2.2468,0.976907 0.2464,0.310173 0.2409,0.741641 -0.012,0.959575 -0.4138,0.355966 -1.5055,0.529854 -4.0095,0.638599 -2.1899,0.09511 -13.4369,0.04457 -14.5905,-0.06556 -2.1108,-0.201507 -2.7985,-0.501959 -2.6646,-1.164221 0.068,-0.338786 0.463,-0.727093 0.9845,-0.968977 0.434,-0.201269 0.5926,-0.23959 1.9315,-0.466455 1.0104,-0.17118 1.4995,-0.352539 1.9381,-0.718567 1.0293,-0.858989 1.3428,-2.20547 1.5138,-6.503245 0.1015,-2.548146 0.048,-15.907428 -0.068,-17.224651 -0.2605,-2.941336 -0.698,-3.878811 -2.6624,-5.705921 -1.811,-1.684412 -3.7769,-2.483449 -6.3374,-2.575872 -2.1772,-0.07859 -4.1215,0.373745 -6.1199,1.423769 -0.8576,0.450644 -1.5554,0.934303 -3.3041,2.290229 l -1.333,1.033588 v 9.635715 c 0,11.028703 0.056,13.284991 0.398,15.160514 0.2291,1.258136 0.5776,1.976597 1.2091,2.49254 0.4195,0.34271 0.9211,0.524576 1.9088,0.691901 1.3399,0.227039 1.4976,0.265206 1.9361,0.468593 0.7469,0.346447 1.1486,0.938675 0.9263,1.365738 -0.3548,0.681711 -2.2305,0.910878 -9.0048,1.100169 -4.0148,0.112181 -10.6982,0.116266 -11.3867,0.007 -0.6274,-0.0996 -1.1211,-0.308562 -1.3149,-0.556548 -0.1863,-0.238413 -0.1947,-1.164635 -0.015,-1.576382 0.2486,-0.567674 0.6963,-0.720791 2.3719,-0.811204 1.3247,-0.07148 1.8632,-0.198168 2.5217,-0.593181 0.4601,-0.276069 0.8274,-0.656951 0.9972,-1.034013 0.3223,-0.716099 0.5761,-3.365448 0.7611,-7.946254 0.1031,-2.549825 0.1004,-13.569971 0,-15.637197 -0.1315,-2.612622 -0.3417,-3.908923 -0.7597,-4.687659 -0.3762,-0.700809 -1.3514,-1.424178 -2.4759,-1.836582 -0.6203,-0.227472 -1.1004,-0.324668 -1.8853,-0.381681 -1.0716,-0.07784 -1.6312,-0.517237 -1.6338,-1.282746 0,-0.425354 0.1108,-0.644521 0.495,-0.966649 0.8041,-0.67436 2.8604,-1.275796 8.448,-2.47101 2.1778,-0.46584 3.2801,-0.643368 3.9949,-0.643368 1.4081,0 1.6421,0.431598 1.6446,3.03408 0,1.595692 0.1655,2.812921 0.4178,3.102198 l 0.1212,0.138966 0.3483,-0.171904 c 0.4974,-0.245468 1.4768,-0.935815 2.8842,-2.032935 1.8698,-1.457472 3.3718,-2.324803 5.1895,-2.996623 3.7246,-1.376592 8.013,-1.460772 11.5852,-0.227404 1.3859,0.478493 2.8352,1.232754 3.9791,2.070947 0.281,0.205898 1.2586,1.080204 2.1724,1.942902 1.577,1.488822 1.6689,1.563615 1.8091,1.471593 0.081,-0.05332 1.0309,-0.717235 2.1102,-1.475362 2.2831,-1.603599 3.1607,-2.128167 4.8361,-2.890581 2.9495,-1.342229 5.673,-1.965877 8.5849,-1.965877 2.5076,0 4.4576,0.410939 6.5375,1.377733 2.0025,0.930829 3.6543,2.330406 4.868,4.124974 0.3737,0.552555 1.138,2.089605 1.3753,2.765999 0.8238,2.347893 1.009,5.109038 1.0113,15.077253 0,8.34035 0.1627,10.789442 0.8109,12.362861 0.1799,0.436398 0.2993,0.607328 0.6569,0.9394 0.543,0.504156 0.9073,0.640944 2.3885,0.896753 1.2481,0.215567 1.754,0.406524 2.2794,0.860376 0.5346,0.4617 0.7664,1.090116 0.5443,1.475334 -0.1628,0.282479 -0.7648,0.456703 -2.0809,0.602327 -0.6333,0.07006 -14.7949,0.142974 -16.236,0.08359 z"
         id="path669" /><path
         style="fill:#000000;stroke-width:0.0692137"
         d="m 1444.8952,91.390503 c -3.4284,-0.324373 -6.4969,-1.240969 -8.7645,-2.61804 -3.5681,-2.166795 -6.4845,-5.635402 -8.2839,-9.852123 -1.5919,-3.730298 -2.1388,-7.950801 -1.4819,-11.435144 0.9252,-4.90821 4.2072,-10.58543 7.6156,-13.173801 1.6751,-1.27202 4.3731,-2.626861 6.6137,-3.321059 5.7315,-1.775857 11.9088,-1.230237 16.693,1.474432 3.894,2.201367 6.3496,5.694211 6.8661,9.766343 0.1131,0.891499 0.049,3.604803 -0.099,4.198029 -0.2623,1.049646 -0.9411,1.854324 -1.9335,2.291744 -1.0077,0.444191 -2.6502,0.737415 -5.0484,0.901253 -1.6089,0.109912 -6.5227,0.192898 -11.5663,0.195334 -5.9216,0.0029 -7.5186,0.08908 -8.7774,0.473858 -1.5176,0.46383 -1.8105,1.468522 -1.1362,3.895523 0.3747,1.348106 1.2398,3.987175 1.5573,4.749925 1.8134,4.35779 5.6066,7.422854 10.272,8.300218 0.7137,0.134215 1.0227,0.152972 2.5025,0.151929 1.5605,-0.0011 1.7565,-0.01481 2.5904,-0.181177 2.1317,-0.425265 4.0452,-1.255936 5.8108,-2.522491 0.3611,-0.259103 1.0999,-0.863467 1.6415,-1.343033 1.5914,-1.40902 2.6743,-2.169749 3.8062,-2.673879 0.5246,-0.233669 0.6951,-0.278034 1.0722,-0.278914 0.3721,-8.81e-4 0.4763,0.02487 0.6122,0.151193 0.242,0.22495 0.2204,0.892972 -0.048,1.481498 -0.4356,0.954894 -1.3242,2.152016 -2.5465,3.43042 -3.2132,3.360745 -8.1951,5.532333 -13.693,5.968776 -1.1333,0.08996 -3.1519,0.07541 -4.2746,-0.03081 z m 4.1308,-24.833838 c 3.2996,-0.241575 4.726,-0.635388 5.7662,-1.591999 1.6521,-1.519318 1.727,-3.982489 0.2067,-6.79643 -0.71,-1.313988 -1.8434,-2.746086 -2.71,-3.424088 -1.6298,-1.275241 -3.3936,-1.752468 -5.8605,-1.585626 -1.6386,0.110832 -3.0032,0.43777 -4.2703,1.023143 -0.9807,0.452996 -1.6686,0.918572 -2.5102,1.698804 -1.5829,1.467434 -2.7546,3.5461 -3.4852,6.182303 -0.2209,0.797587 -0.9659,4.296977 -0.9659,4.537447 0,0.08836 0.745,0.09591 6.4117,0.06503 3.6343,-0.01981 6.8474,-0.06684 7.4175,-0.108581 z"
         id="path671" /><path
         style="fill:#000000;stroke-width:0.0978833"
         d="m 1499.5362,93.659396 c -1.3912,-0.202913 -2.7261,-0.822824 -4.7274,-2.195378 -3.5314,-2.421968 -4.4597,-4.674302 -4.8849,-11.851712 -0.071,-1.186847 -0.1461,-6.604752 -0.1829,-13.06663 l -0.063,-11.039088 -1.7272,0.259933 c -2.8829,0.43387 -4.2669,0.317625 -4.6479,-0.390396 -0.6998,-1.300258 0.6392,-3.112039 2.3001,-3.112039 0.2044,0 0.6293,-0.08402 0.944,-0.1867 2.2692,-0.740305 4.9155,-3.274065 6.3869,-6.115235 1.1698,-2.25906 1.4437,-2.71515 1.9251,-3.20639 0.6391,-0.65209 1.119,-0.86079 1.9816,-0.86168 1.2693,-0.002 1.4773,0.31688 1.3848,2.11838 -0.054,1.03817 -0.7067,7.39029 -0.8221,7.992289 l -0.05,0.259336 3.8328,8.82e-4 c 6.6284,0.0014 8.3448,0.230793 8.8327,1.180243 0.3345,0.651108 -0.1459,1.867411 -0.87,2.202893 -0.9442,0.437361 -2.7359,0.574815 -7.5081,0.575985 l -3.378,8.01e-4 v 9.218237 c 0.01,17.275384 0.2112,20.289655 1.5229,22.187108 0.8947,1.294021 2.2252,1.595624 6.1961,1.404526 3.3676,-0.162064 5.1454,-0.02467 5.6991,0.440432 0.123,0.103358 0.1936,0.288079 0.1936,0.506898 0,1.371127 -3.7377,3.038229 -7.9247,3.534612 -1.5521,0.184024 -3.665,0.252301 -4.4163,0.14272 z"
         id="path673" /><path
         style="fill:#000000;stroke-width:0.0978833"
         d="m 1551.5188,91.104652 c -1.395,-0.118969 -3.9446,-0.527134 -4.9635,-0.794605 -4.809,-1.262413 -11.3857,-7.171207 -13.0081,-11.687055 -1.3758,-3.828952 -1.5599,-10.151108 -0.418,-14.347856 0.6849,-2.517415 2.5991,-5.274504 5.5884,-8.04927 4.6643,-4.329414 9.3452,-6.257529 15.1888,-6.256439 3.3848,6.41e-4 6.3285,0.617891 9.3469,1.959901 2.2433,0.997369 3.949,2.083056 5.6218,3.578203 2.2444,2.006115 3.7886,4.109624 4.9397,6.728826 2.8869,6.568503 2.1229,13.963108 -2.0533,19.87589 -3.5864,5.077843 -9.0293,8.252846 -15.366,8.96345 -1.2854,0.144144 -3.3802,0.156582 -4.8767,0.02895 z m 3.5559,-3.003047 c 1.7698,-0.107375 2.8158,-0.339988 3.8441,-0.854789 4.3559,-2.180856 6.7328,-7.30968 7.0128,-15.131645 0.2369,-6.617512 -0.7911,-11.373198 -3.1885,-14.751036 -1.1457,-1.614148 -3.0035,-3.075462 -4.7506,-3.736599 -1.6121,-0.610085 -2.4408,-0.746881 -4.4926,-0.741582 -1.6882,0.0043 -1.8974,0.02423 -2.7224,0.258554 -1.6705,0.474454 -2.9187,1.181224 -4.1861,2.37038 -2.6307,2.468124 -4.2644,6.545735 -4.7201,11.781718 -0.1352,1.553454 -0.1359,4.81295 0,6.674402 0.4064,5.623921 1.5702,8.557805 4.5148,11.381232 2.2087,2.117826 3.2507,2.620975 5.6929,2.74889 0.6705,0.03512 1.2877,0.06971 1.3715,0.07686 0.084,0.0071 0.8154,-0.02722 1.6256,-0.07638 z"
         id="path675" /><path
         style="fill:#000000;stroke-width:0.0978833"
         d="m 1596.7845,91.689913 c -1.3844,-0.208683 -1.6058,-0.417419 -1.5491,-1.460476 0.061,-1.133016 0.3953,-1.336331 2.4125,-1.470145 1.6639,-0.110387 2.304,-0.318225 3.0202,-0.980576 0.4161,-0.38494 0.5426,-0.577409 0.6293,-0.957274 0.5068,-2.220499 0.7407,-10.220905 0.7404,-25.316739 -4e-4,-16.835045 -0.2792,-24.663535 -0.9201,-25.829705 -0.3224,-0.58641 -1.085,-1.09197 -1.9871,-1.31727 -0.2232,-0.0558 -0.9846,-0.14199 -1.6921,-0.19165 -1.4195,-0.0997 -1.8211,-0.2293 -2.0647,-0.66664 -0.2302,-0.41332 -0.1966,-1.04775 0.076,-1.42728 0.3186,-0.44392 1.7363,-1.08915 3.385,-1.54067 4.5882,-1.25648 10.8922,-2.46451 11.1151,-2.12992 0.3783,0.56831 0.5849,10.54614 0.7175,34.659154 0.053,9.699188 0.1426,18.271439 0.1984,19.049449 0.2125,2.962261 0.5743,4.753695 1.1222,5.555493 0.4144,0.606691 0.9328,0.889289 1.9399,1.057628 2.4348,0.406986 3.3273,0.915715 3.0975,1.765564 -0.1758,0.649997 -1.6477,0.901981 -6.4136,1.097922 -3.0929,0.127156 -13.1692,0.202315 -13.8273,0.103135 z"
         id="path677" /><path
         style="fill:#000000;stroke-width:0.0978833"
         d="m 1656.5046,90.96001 c -2.3509,-0.302162 -4.3642,-0.87269 -6.4804,-1.836437 -2.4297,-1.106493 -4.2636,-2.34278 -6.1759,-4.163353 -8.322,-7.922391 -8.1632,-20.492418 0.3624,-28.691116 5.4382,-5.229738 12.3599,-7.378627 19.5935,-6.082959 2.1975,0.393603 5.1387,1.468543 7.1271,2.60477 4.8546,2.773938 8.3878,7.202623 9.7549,12.2274 0.4829,1.774584 0.6328,2.935698 0.6347,4.91389 0.01,5.688536 -2.201,10.898743 -6.2886,14.851806 -3.503,3.387656 -8.1646,5.572819 -13.1737,6.175282 -1.4397,0.17316 -4.0098,0.173505 -5.354,7.54e-4 z m 4.8793,-3.066535 c 1.117,-0.127141 2.5509,-0.480517 3.4003,-0.837981 1.9245,-0.809968 3.8994,-3.063562 5.333,-6.085297 1.2572,-2.650391 1.5216,-4.370534 1.5228,-9.906342 0,-4.628954 -0.1961,-6.887495 -0.8073,-9.247644 -0.6558,-2.532237 -1.6125,-4.151647 -3.555,-6.017377 -1.668,-1.60216 -2.6247,-2.158292 -4.2709,-2.482633 -1.2638,-0.248975 -5.7889,-0.248064 -6.9344,0.0014 -1.3968,0.304155 -2.1055,0.708442 -3.4892,1.990471 -0.7423,0.687887 -1.4375,1.437293 -1.7558,1.89307 -1.7442,2.497543 -2.8773,5.897416 -3.3787,10.137702 -0.1652,1.397366 -0.1652,5.298232 0,6.695599 0.6559,5.547154 2.5114,9.873885 5.0815,11.849783 2.0641,1.586794 5.5717,2.382803 8.8537,2.009253 z"
         id="path679" /><path
         style="fill:#000000;stroke-width:0.0978833"
         d="m 1716.344,109.54364 c -1.9495,-0.10881 -3.0195,-0.25801 -4.6988,-0.6552 -5.1848,-1.22632 -8.4657,-3.46847 -9.6312,-6.58193 -0.2637,-0.7044 -0.3136,-0.99408 -0.3544,-2.0568 -0.053,-1.404511 0.047,-2.09474 0.5028,-3.423964 0.8303,-2.424255 2.1314,-3.685542 4.3522,-4.218939 0.8527,-0.204836 3.2616,-0.230228 4.0638,-0.04284 1.6899,0.394747 2.366,1.315156 1.9825,2.698592 -0.086,0.311204 -0.4499,1.117505 -0.808,1.79178 -0.7574,1.42579 -0.9713,2.149301 -0.9713,3.286071 0,3.22237 3.3519,5.46486 9.1946,6.15141 1.5605,0.18337 4.9396,0.20978 6.299,0.0492 6.8487,-0.80873 11.4258,-3.83034 12.0472,-7.952791 0.2108,-1.398905 -0.225,-3.294059 -0.9762,-4.244644 -1.0987,-1.390364 -3.6935,-2.296626 -8.2771,-2.890886 -2.1316,-0.276366 -4.1343,-0.448356 -8.3817,-0.719815 -7.4736,-0.477647 -10.5011,-0.881366 -12.2805,-1.637613 -1.8007,-0.765274 -3.3435,-2.493723 -3.8807,-4.34767 -0.2337,-0.806314 -0.2343,-2.373306 0,-3.206342 0.4175,-1.492822 1.5401,-3.059144 2.921,-4.075346 1.0029,-0.738072 1.8476,-1.118959 4.047,-1.824887 1.0896,-0.349728 2.0189,-0.666424 2.0649,-0.703768 0.046,-0.03734 -0.6397,-0.416955 -1.5239,-0.843579 -2.1657,-1.044887 -3.1623,-1.675246 -4.2493,-2.687995 -2.4442,-2.277011 -3.6179,-5.109443 -3.4763,-8.388447 0.194,-4.490742 2.9952,-8.435818 7.591,-10.690758 3.2096,-1.5748 7.5299,-2.37473 12.1792,-2.25503 2.1991,0.05665 3.2072,0.17042 5.5496,0.626523 3.541,0.689514 4.9087,0.643617 11.1757,-0.375024 2.0163,-0.327739 2.6844,-0.398439 3.8607,-0.408529 1.3034,-0.0112 1.463,0.006 1.9084,0.209901 0.7004,0.320193 0.9323,0.772705 0.8506,1.660431 -0.1177,1.278121 -0.5371,2.144822 -1.1896,2.457991 -0.5351,0.256886 -1.3171,0.333163 -4.3126,0.420663 -3.6835,0.107601 -4.4194,0.263766 -4.4194,0.93783 0,0.282668 0.1604,0.523012 0.784,1.17505 1.0829,1.131934 1.7877,3.347176 1.9258,6.052216 0.083,1.629219 -0.079,2.808179 -0.5762,4.202441 -1.5231,4.266736 -4.6725,6.868551 -10.1927,8.420409 -2.3539,0.661723 -5.0294,1.066816 -9.0601,1.371756 -5.17,0.39113 -8.1741,0.799176 -9.1067,1.236945 -0.8353,0.392056 -1.4087,1.597153 -1.4087,2.96061 0,0.859422 0.1654,1.417623 0.5636,1.90216 0.29,0.352934 0.5496,0.434625 2.0272,0.63796 2.1457,0.295267 5.1932,0.520978 14.122,1.045939 10.095,0.593518 14.1177,1.549295 16.9833,4.035201 1.8754,1.626826 2.8301,3.531255 2.9508,5.885919 0.097,1.901364 -0.2762,3.446684 -1.295,5.355589 -1.9789,3.70795 -5.7378,6.64211 -10.3144,8.05146 -3.8366,1.18144 -12.6029,1.94124 -18.5607,1.60871 z m 8.8042,-35.788257 c 1.3332,-0.250107 2.6047,-0.972896 3.8027,-2.161607 1.5581,-1.546061 2.5368,-3.504197 3.0173,-6.037039 0.2171,-1.143968 0.2188,-3.416814 0,-4.526602 -0.6523,-3.362887 -2.7031,-6.085561 -5.5948,-7.428129 -2.603,-1.20849 -5.7655,-1.176785 -8.3957,0.08417 -3.6132,1.732202 -5.4724,5.022588 -5.4724,9.685293 0,6.008345 3.2667,9.966005 8.6879,10.525616 1.0125,0.104513 3.0234,0.0324 3.9515,-0.141701 z"
         id="path681" /><path
         style="fill:#000000;stroke-width:0.0978833"
         d="m 1767.7243,90.28016 c -2.0641,-0.09678 -3.7475,-0.254654 -4.5991,-0.431322 -0.5794,-0.120187 -0.7113,-0.185188 -0.8382,-0.412928 -0.3798,-0.681667 -0.04,-1.392072 0.8696,-1.814278 0.4796,-0.222845 0.7558,-0.274211 1.8676,-0.347341 1.5862,-0.104346 2.0668,-0.288175 2.5721,-0.984029 1.052,-1.448359 1.2286,-4.115757 1.0564,-15.947695 -0.066,-4.512456 -0.1487,-9.508422 -0.1844,-11.102145 l -0.065,-2.89768 -2.0106,-0.611378 c -2.2013,-0.669309 -3.1331,-1.058376 -3.5666,-1.489105 -0.3645,-0.36218 -0.3569,-0.554228 0.038,-0.972165 0.6677,-0.705864 2.2017,-1.248775 6.9179,-2.448403 2.9066,-0.739364 4.5323,-1.085439 5.0925,-1.084069 0.4753,8e-4 1.0431,0.227004 1.3973,0.555823 0.404,0.374927 0.7043,1.126635 0.908,2.272779 0.07,0.391484 0.1401,4.702088 0.195,11.929482 0.1065,14.029435 0.3103,19.259453 0.8142,20.890323 0.2338,0.756459 0.9089,1.330766 1.9644,1.671151 0.2324,0.07494 1.0007,0.172301 1.7072,0.21635 1.4646,0.09131 1.9238,0.230621 2.2237,0.674672 0.1724,0.255143 0.2045,0.430514 0.176,0.960065 -0.029,0.542439 -0.073,0.676856 -0.2714,0.82579 -0.3885,0.291959 -1.1939,0.453524 -2.7525,0.552143 -1.6996,0.107544 -11.1803,0.103305 -13.5125,-0.006 z"
         id="path683" /><path
         style="fill:#000000;stroke-width:0.0978833"
         d="m 1815.4821,90.484957 c -0.9457,-0.119777 -2.4095,-0.486023 -3.1385,-0.785295 -2.2065,-0.905767 -4.327,-3.101819 -5.4007,-5.592964 -0.529,-1.227218 -0.6822,-1.966778 -0.7314,-3.528956 -0.1832,-5.825384 2.7114,-9.170364 9.5246,-11.006392 1.8382,-0.495356 4.3354,-0.964238 6.807,-1.278109 1.2435,-0.157904 9.9921,-1.093658 10.2249,-1.093658 0.1141,0 0.1379,-0.652066 0.137,-3.748592 0,-5.271581 -0.1619,-6.61066 -0.9608,-8.020619 -0.4612,-0.813887 -1.629,-2.084155 -2.4009,-2.611607 -1.2069,-0.824721 -2.2874,-1.032405 -5.3746,-1.033045 -2.5047,-5.18e-4 -3.4152,0.128415 -4.6516,0.658691 -3.1929,1.369281 -4.1049,5.931887 -1.725,8.629721 0.6254,0.70895 0.8903,1.195082 0.8903,1.633469 0,0.298681 -0.067,0.426488 -0.36,0.68268 -0.1983,0.173572 -0.5977,0.383648 -0.889,0.467529 -0.7881,0.226966 -2.6988,0.280953 -3.6054,0.101869 -2.7624,-0.545669 -4.391,-2.678249 -4.391,-5.74982 0,-3.97276 2.0554,-6.548123 6.2098,-7.780774 2.4164,-0.717007 4.7895,-0.978072 8.8775,-0.976631 5.5315,0.0019 7.4525,0.32241 10.5661,1.762679 4.5303,2.095574 5.6515,4.038382 6.1498,10.656262 0.059,0.77801 0.1486,4.830733 0.2001,9.006051 0.052,4.175319 0.1415,8.228043 0.2,9.006053 0.3462,4.598169 1.0268,6.555736 2.5107,7.222561 0.3037,0.136458 0.8556,0.251143 1.5799,0.328322 0.9204,0.09809 1.157,0.156726 1.3672,0.338943 0.2266,0.196419 0.2497,0.279331 0.2126,0.763852 -0.07,0.916824 -0.6316,1.349658 -2.1114,1.6283 -1.0637,0.200317 -4.3726,0.293059 -5.199,0.145718 -1.4087,-0.251208 -3.2004,-1.340209 -4.7112,-2.863694 -0.8903,-0.8977 -1.3649,-1.622615 -1.5127,-2.310504 -0.2002,-0.932462 -0.5116,-0.816048 -2.7289,1.02015 -2.462,2.038961 -5.9634,3.512081 -9.8759,4.15503 -1.3921,0.228755 -4.5018,0.323194 -5.6895,0.17278 z m 9.4102,-4.843088 c 1.3176,-0.259231 2.4078,-0.914557 4.2438,-2.550819 1.4842,-1.322718 2.5834,-2.517116 3.0099,-3.270524 0.6417,-1.133449 0.6792,-1.442759 0.7322,-6.043225 0.047,-4.063803 0.044,-4.125809 -0.1537,-4.125809 -0.4837,0 -5.3616,0.687514 -6.4223,0.905191 -5.2222,1.071737 -9.2321,3.448079 -10.3119,6.111026 -0.4393,1.083223 -0.5892,2.118949 -0.5269,3.640158 0.062,1.511391 0.247,2.318788 0.7692,3.354536 0.7065,1.4014 1.3139,1.744021 3.5674,2.012514 1.1328,0.134962 4.3442,0.11412 5.0923,-0.03305 z"
         id="path685" /><ellipse
         style="fill:#000000;stroke-width:0.502628"
         id="path869-3"
         cx="1773.9764"
         cy="36.900665"
         rx="4.8520613"
         ry="5.0804424" /></g></g></svg>
