<?xml version="1.0" encoding="UTF-8" standalone="no"?>
<!-- Created with Inkscape (http://www.inkscape.org/) -->

<svg
   width="121mm"
   height="98mm"
   viewBox="0 0 121 98"
   version="1.1"
   id="svg2318"
   sodipodi:docname="iso-jasanz.svg"
   inkscape:version="1.2.2 (b0a8486541, 2022-12-01)"
   xmlns:inkscape="http://www.inkscape.org/namespaces/inkscape"
   xmlns:sodipodi="http://sodipodi.sourceforge.net/DTD/sodipodi-0.dtd"
   xmlns="http://www.w3.org/2000/svg"
   xmlns:svg="http://www.w3.org/2000/svg">
  <sodipodi:namedview
     id="namedview2320"
     pagecolor="#505050"
     bordercolor="#ffffff"
     borderopacity="1"
     inkscape:showpageshadow="0"
     inkscape:pageopacity="0"
     inkscape:pagecheckerboard="1"
     inkscape:deskcolor="#505050"
     inkscape:document-units="mm"
     showgrid="false"
     inkscape:zoom="1.3986392"
     inkscape:cx="125.8366"
     inkscape:cy="210.56181"
     inkscape:window-width="1920"
     inkscape:window-height="1043"
     inkscape:window-x="0"
     inkscape:window-y="0"
     inkscape:window-maximized="1"
     inkscape:current-layer="layer1" />
  <defs
     id="defs2315" />
  <g
     inkscape:label="Capa 1"
     inkscape:groupmode="layer"
     id="layer1">
    <g
       id="g3458"
       transform="matrix(0.10123912,0,0,0.10123912,-346.48205,-11.005818)">
      <path
         style="fill:#ffffff;fill-opacity:1;stroke:none;stroke-width:0.26774"
         d="m 4051.2592,583.43752 -37.5505,-0.0689 v -11.37803 -11.37803 h 187.6859 187.6858 v 11.33452 11.33451 l -69.6794,0.17825 c -63.5819,0.16267 -172.0771,0.15361 -268.1418,-0.0225 z"
         id="path3419" />
      <path
         style="fill:#ff2e17;fill-opacity:1;stroke:none;stroke-width:0.378642"
         d="m 4013.8792,572.02002 v -11.16989 h 187.4276 187.4276 v 10.92012 10.92012 l -8.8034,0.24895 c -4.8419,0.13691 -89.1843,0.24933 -187.4277,0.24977 h -178.6241 z"
         id="path4961" />
      <path
         style="fill:#274b99;fill-opacity:1;stroke:none;stroke-width:0.757287"
         d="m 4004.2238,794.51821 c -64.8807,-2.70953 -125.8926,-38.82884 -164.3436,-97.29242 -19.694,-29.94396 -31.3423,-62.77473 -35.2131,-99.24843 -1.2875,-12.13221 -1.4653,-36.73089 -0.3471,-48.02765 4.3913,-44.36428 19.9032,-83.39982 47.2021,-118.78336 7.0452,-9.13164 25.1347,-27.49379 34.5711,-35.09235 16.0202,-12.8998 40.0883,-26.63745 58.5779,-33.43523 24.6965,-9.0799 50.8972,-13.15025 78.8635,-12.25175 25.0106,0.80362 42.2299,4.21116 66.4515,13.15033 l 9.6554,3.5634 -0.04,74.62945 c -0.037,70.43845 -0.1119,74.52386 -1.3252,72.74781 -11.2887,-16.52379 -24.9575,-28.37807 -41.8425,-36.28811 -15.3839,-7.20671 -23.4159,-8.71081 -43.863,-8.21389 -17.3387,0.42143 -22.5555,1.62394 -36.9373,8.51452 -11.4711,5.49597 -18.7686,10.6514 -27.8771,19.69437 -17.1035,16.98027 -27.3793,39.04123 -30.2472,64.93708 l -0.4822,4.35435 h 10.2777 10.2779 v 3.78644 3.78636 h -10.288 -10.2879 l 0.5251,5.86894 c 2.1882,24.4584 11.9631,46.73348 27.8969,63.57183 10.6614,11.26658 23.1579,19.72396 37.0807,25.09538 13.0909,5.05042 17.002,5.617 36.2792,5.25534 15.98,-0.29981 17.1989,-0.4272 23.2991,-2.43497 17.6867,-5.82131 30.8003,-13.65272 42.4437,-25.3471 13.237,-13.29502 21.8494,-28.57429 27.57,-48.91223 l 1.7041,-6.05828 57.5418,-0.19405 57.5419,-0.19398 -1.0658,8.14551 c -3.5497,27.12989 -9.8602,48.56413 -21.349,72.51452 -11.4145,23.79536 -24.4065,42.20342 -42.8034,60.64713 -24.1831,24.24465 -51.5958,41.21848 -83.7191,51.83858 -24.1872,7.99639 -46.7755,10.88147 -75.7284,9.67246 z"
         id="path5446" />
      <path
         style="fill:#274b99;fill-opacity:1;stroke:none;stroke-width:0.26774"
         d="m 3748.5121,229.40358 c -0.7362,-0.12066 -2.6941,-0.55295 -4.3507,-0.96075 l -3.0121,-0.74145 v -8.98104 c 0,-9.63411 0.1772,-13.39875 0.6249,-13.39875 0.1537,0 1.0696,0.46547 2.0353,1.03437 2.7962,1.64723 4.2647,2.03892 7.6461,2.03907 2.354,1.5e-4 3.2945,-0.1202 4.6855,-0.59945 2.2293,-0.76812 4.4414,-2.50986 5.8314,-4.59147 4.2621,-6.3825 5.132,-17.40508 5.1415,-65.15225 l 0.01,-21.88773 h 9.9064 9.9064 l 3e-4,5.15401 c 0,18.52639 -0.8615,64.04006 -1.3486,71.15196 -0.7837,11.44311 -2.67,17.83886 -7.2902,24.71881 -4.1267,6.1453 -11.408,10.74134 -19.1747,12.10352 -2.3991,0.42076 -8.3385,0.483 -10.6075,0.11115 z"
         id="path5448" />
      <path
         style="fill:#274b99;fill-opacity:1;stroke:none;stroke-width:0.26774"
         d="m 3799.0481,227.52111 c -0.6667,-0.1993 -0.8701,-0.4099 -0.8701,-0.90053 0,-1.0101 5.4874,-19.90835 23.8522,-82.14578 4.5521,-15.42674 8.2765,-28.10756 8.2765,-28.1796 0,-0.0719 5.3972,-0.13107 11.9938,-0.13107 h 11.9936 l 15.9769,55.47508 c 8.7873,30.51136 15.9248,55.52727 15.861,55.59101 -0.2343,0.23434 -14.8189,0.48816 -17.6281,0.30684 -2.3212,-0.14987 -3.0015,-0.28827 -3.4044,-0.69255 -0.6266,-0.62889 -2.2893,-6.40961 -4.7087,-16.37063 l -1.8374,-7.56538 -16.7003,0.0689 -16.7002,0.0689 -2.9627,12.09297 -2.9627,12.09297 -2.6934,0.14911 c -5.5548,0.30752 -16.6294,0.39642 -17.486,0.14028 z m 52.1123,-53.72592 c -5.2882,-20.66201 -8.2618,-33.4649 -8.2675,-35.59684 0,-1.06927 -0.5092,-2.22144 -0.9763,-2.22144 -0.577,0 -1.094,1.10589 -1.2691,2.71484 -0.3043,2.79618 -5.6226,24.82599 -9.2542,38.33311 -1.4255,5.30214 -1.563,6.18118 -1.0196,6.51768 0.7456,0.46165 2.9358,0.56201 12.9593,0.59406 l 10.4827,0.0337 z"
         id="path5450" />
      <path
         style="fill:#274b99;fill-opacity:1;stroke:none;stroke-width:0.26774"
         d="m 3909.9056,229.15111 c -3.1484,-0.44195 -6.6824,-1.5817 -12.1745,-3.92649 l -2.899,-1.23763 v -11.86986 -11.86978 l 3.2799,2.47616 c 4.9273,3.72 9.1163,5.69646 14.6587,6.91627 3.5858,0.78924 9.5362,0.85821 12.4231,0.14402 2.8281,-0.69959 5.1848,-1.94695 6.8783,-3.64031 2.1039,-2.10379 2.5194,-3.40957 2.5194,-7.91701 0,-3.32494 -0.033,-3.53734 -0.7451,-4.7483 -2.0317,-3.45623 -8.1524,-8.25576 -15.9886,-12.53747 -3.9687,-2.16842 -8.7001,-5.24081 -11.0955,-7.20491 -8.3863,-6.87635 -12.1996,-15.13443 -12.1972,-26.41427 0,-10.016 2.6191,-17.52138 8.0661,-23.13434 4.5239,-4.66158 11.89,-8.42771 17.8607,-9.13187 3.0934,-0.36489 18.6573,-0.15436 22.1318,0.29935 2.1826,0.28498 7.743,1.88914 8.2308,2.3746 0.2223,0.22109 0.8699,21.68611 0.6607,21.89537 -0.073,0.0734 -1.5617,-0.58178 -3.3075,-1.45557 -6.6149,-3.31071 -11.5294,-4.64847 -17.0968,-4.65371 -5.7803,-0.007 -9.838,1.37116 -12.7186,4.31503 -1.8277,1.86794 -2.6512,3.75783 -2.8671,6.5803 -0.2709,3.54228 0.8749,6.42324 3.749,9.42568 2.1203,2.215 4.1799,3.59994 12.6895,8.53279 3.9487,2.28899 8.083,4.84506 9.1874,5.68013 2.7651,2.09068 7.0714,6.42856 9.0858,9.15217 4.1266,5.57948 5.2018,9.63726 5.1806,19.55244 -0.026,11.99261 -1.9737,17.48132 -8.4962,23.93961 -6.8043,6.73727 -12.2347,8.40562 -27.9926,8.59982 -4.0495,0.0502 -8.1099,-0.0142 -9.0231,-0.14222 z"
         id="path5452" />
      <path
         style="fill:#274b99;fill-opacity:1;stroke:none;stroke-width:0.26774"
         d="m 3974.8864,169.57826 v -8.43378 h 16.8676 16.8677 v 8.43378 8.43386 h -16.8677 -16.8676 z"
         id="path5454" />
      <path
         style="fill:#274b99;fill-opacity:1;stroke:none;stroke-width:0.26774"
         d="m 4017.2628,227.56642 c -0.7694,-0.0934 -1.5425,-0.31344 -1.7179,-0.48884 -0.2468,-0.2467 0.029,-1.48748 1.2202,-5.48182 0.8465,-2.83962 8.0996,-27.4523 16.118,-54.6949 9.2204,-31.32643 14.7364,-49.65084 15.0076,-49.8556 0.2359,-0.17802 0.9848,-0.40742 1.6644,-0.5098 1.0585,-0.15953 22.2918,0.0652 22.3878,0.23659 0.049,0.0885 10.272,35.60006 18.515,64.31905 10.1078,35.21592 13.0007,45.69986 12.6947,46.0058 -0.1424,0.14245 -1.3477,0.34924 -2.6782,0.45948 -2.9173,0.24161 -17.9232,-0.13234 -18.2193,-0.45401 -0.1152,-0.12522 -1.5729,-5.48556 -3.2393,-11.91187 l -3.0297,-11.6842 -3.4945,-0.15989 c -1.922,-0.0879 -9.4095,-0.23719 -16.6388,-0.33156 l -13.1442,-0.17166 -2.3291,9.33835 c -1.281,5.13603 -2.7009,10.75401 -3.1553,12.48429 l -0.8263,3.14594 -8.868,-0.0375 c -4.8774,-0.021 -9.4975,-0.11414 -10.2671,-0.2076 z m 50.0839,-43.64716 c 1.5957,-0.12298 3.0078,-0.33014 3.138,-0.4603 0.2823,-0.28235 -0.3965,-3.3701 -4.0226,-18.29842 -1.4845,-6.11115 -3.6088,-14.90637 -4.7209,-19.54503 -1.112,-4.63858 -2.0691,-8.58439 -2.127,-8.76848 -0.2792,-0.88885 -0.6664,-0.0652 -1.321,2.81131 -0.3938,1.73028 -2.4488,9.95324 -4.5665,18.27325 -4.7513,18.66615 -6.2827,24.79288 -6.2827,25.1347 0,0.14544 0.2711,0.35163 0.6024,0.45813 1.6568,0.53249 14.1882,0.78886 19.3003,0.39484 z"
         id="path5456" />
      <path
         style="fill:#274b99;fill-opacity:1;stroke:none;stroke-width:0.26774"
         d="m 4116.5209,171.98791 v -55.82378 h 10.6819 10.6819 l 7.1612,13.58778 c 6.3801,12.1057 29.2526,55.35248 32.2827,61.03958 0.6458,1.21202 1.2824,2.20601 1.4146,2.20886 0.2293,0.007 0.12,-23.61449 -0.2814,-60.83871 l -0.1724,-15.99751 h 9.4106 9.4107 v 55.85344 55.85352 l -8.3669,-0.19563 c -4.6017,-0.10755 -9.125,-0.27149 -10.0515,-0.36436 l -1.6847,-0.16866 -21.0732,-39.62556 c -16.1317,-30.33348 -21.0931,-39.45285 -21.158,-38.88919 -0.046,0.40503 0.1046,17.33288 0.3359,37.61749 0.2314,20.28461 0.4201,37.93534 0.4194,39.22382 v 2.34277 h -9.5047 -9.5048 z"
         id="path5458" />
      <path
         style="fill:#274b99;fill-opacity:1;stroke:none;stroke-width:0.26774"
         d="m 4211.5687,220.60072 v -7.21106 l 14.1431,-23.37827 c 21.5596,-35.63751 31.6404,-52.5828 31.6404,-53.18563 0,-0.48067 -2.6915,-0.56837 -22.8248,-0.7434 l -20.0136,-0.17398 v -9.87212 -9.87213 h 34.8062 34.8063 v 6.66695 6.66694 l -22.7864,38.78195 c -12.5326,21.33006 -22.8409,38.9175 -22.9077,39.08317 -0.089,0.22086 5.5842,0.34796 21.2469,0.47603 11.7525,0.0961 22.0609,0.2434 22.9076,0.32744 l 1.5396,0.15271 v 9.74622 9.74623 h -36.2789 -36.2787 z"
         id="path5460" />
      <path
         style="fill:#274b99;fill-opacity:1;stroke:none;stroke-width:0.378642"
         d="m 3600.4403,1047.1207 c -6.2749,-24.0803 -7.9173,-29.0699 -9.8825,-30.0222 -0.3124,-0.1514 -1.0792,-0.4261 -1.704,-0.6104 -0.9649,-0.2848 -1.1536,-0.5479 -1.2534,-1.7489 -0.1021,-1.2281 0.013,-1.4633 0.8766,-1.7916 1.108,-0.4213 16.8566,-0.4567 18.3623,-0.041 0.7299,0.2013 0.9746,0.5505 1.0689,1.5249 0.1572,1.625 -0.2873,2.0331 -2.4905,2.2863 -1.6074,0.1848 -1.8092,0.314 -1.9144,1.2255 -0.1603,1.3881 3.2255,14.1124 4.1117,15.4519 0.6341,0.9587 1.5378,-0.5546 4.9071,-8.2172 5.5965,-12.7274 7.1215,-15.1426 8.8405,-14.0012 1.1593,0.7697 2.9205,4.1985 6.1567,11.986 1.6032,3.8577 3.419,8.0281 4.0352,9.2675 1.0263,2.0641 1.1632,2.1949 1.6295,1.5572 0.619,-0.8465 4.6178,-12.983 4.9384,-14.9884 0.191,-1.1942 0.1,-1.504 -0.5456,-1.8493 -0.4262,-0.2281 -1.2852,-0.4147 -1.9087,-0.4147 -1.568,0 -2.3239,-0.8894 -2.3239,-2.7346 v -1.5445 l 17.5122,0.2384 c 9.6317,0.131 18.1086,0.3758 18.8374,0.5437 1.0569,0.2435 1.3492,0.5093 1.443,1.3115 0.1337,1.1428 -0.9696,1.8957 -3.4308,2.3413 -0.7809,0.1414 -1.4199,0.4298 -1.4199,0.6407 0,0.6426 2.2288,9.4062 3.2881,12.9292 0.548,1.8222 1.1883,3.3131 1.423,3.3131 0.6263,0 1.3042,-1.2955 4.9531,-9.466 5.3656,-12.0147 6.1013,-13.2525 7.8766,-13.2525 1.4399,0 2.3834,1.4325 4.7465,7.2065 4.6084,11.2602 6.6566,15.512 7.4726,15.512 0.854,0 5.0752,-12.6792 5.0752,-15.2442 0,-1.1634 -0.9141,-1.7946 -2.5987,-1.7946 -1.5497,0 -2.3237,-0.892 -2.3237,-2.6776 v -1.4875 h 19.3107 19.3107 v 1.4875 c 0,1.8721 -0.7826,2.6776 -2.6018,2.6776 -2.7637,0 -2.9001,1.1139 -1.0303,8.4084 1.3274,5.1781 2.3837,8.2517 2.8359,8.2517 0.5177,0 2.7732,-4.1899 6.0565,-11.2507 4.5503,-9.7857 5.8538,-11.5785 7.9369,-10.9173 0.836,0.2653 1.3926,1.3221 3.5987,6.8331 2.182,5.4509 5.866,13.7606 6.5913,14.8674 0.315,0.4808 0.7374,0.8192 0.9387,0.7521 0.5547,-0.1848 2.0773,-4.119 3.5289,-9.1182 1.8997,-6.5423 1.7375,-7.8265 -0.9883,-7.8265 -2.057,0 -3.2957,-1.778 -2.3151,-3.3232 0.4703,-0.7411 3.625,-0.9654 9.3023,-0.6614 4.1664,0.2232 5.3219,0.41 6.0048,0.9708 1.0274,0.8438 0.625,1.7955 -1.0826,2.5601 -0.6056,0.2711 -1.3566,0.6264 -1.669,0.7895 -1.4276,0.7452 -5.3261,10.8685 -9.3344,24.2387 l -2.168,7.2314 h -3.4512 -3.4512 l -3.1588,-7.6676 c -3.8164,-9.2638 -5.9527,-13.6375 -6.5678,-13.4461 -0.7049,0.2193 -2.9393,4.6682 -6.5626,13.0675 l -3.3076,7.6675 h -3.5138 -3.5138 l -0.3768,-1.4199 c -5.3212,-20.0493 -7.3216,-26.7536 -8.5351,-28.6056 -0.8172,-1.2471 -2.4004,-1.7808 -5.2782,-1.779 -3.1692,0 -4.4,0.8137 -5.8451,3.8553 -0.9789,2.0602 -6.1202,16.1982 -6.1202,16.8297 0,0.1235 -0.7713,2.6618 -1.7139,5.6407 l -1.7139,5.416 -2.8507,0.2672 c -2.6354,0.2469 -2.9194,0.2024 -3.7634,-0.5905 -0.5021,-0.4717 -1.448,-2.1539 -2.1019,-3.7382 -2.4599,-5.9596 -6.5251,-15.4239 -7.1681,-16.6884 l -0.6675,-1.3127 -2.0675,4.1525 c -1.1371,2.2839 -3.2296,6.9264 -4.6499,10.3169 -1.4203,3.3905 -2.9918,6.6061 -3.4921,7.146 -0.8706,0.9394 -1.0266,0.9701 -3.6299,0.7138 -1.4961,-0.1473 -2.781,-0.3285 -2.8555,-0.4027 -0.074,-0.074 -1.9088,-6.3215 -4.0765,-13.883 -5.3924,-18.8101 -4.7954,-17.2333 -6.6426,-17.5454 -1.7518,-0.296 -7.0035,0.1105 -7.9532,0.6156 -0.8454,0.4496 -3.0404,6.1573 -7.5995,19.7608 l -3.7798,11.2782 -3.4115,-0.1083 -3.4116,-0.1083 -4.4663,-10.3501 c -2.4565,-5.6925 -4.5796,-10.4631 -4.7178,-10.6013 -0.1383,-0.1383 -0.5144,0.089 -0.8359,0.5053 -0.867,1.1223 -5.0468,9.9621 -7.1029,15.0218 -2.3902,5.8817 -2.5057,5.9923 -6.2605,5.9923 h -2.9998 z"
         id="path5462" />
      <path
         style="fill:#274b99;fill-opacity:1;stroke:none;stroke-width:0.378642"
         d="m 4275.9849,1068.9554 c -5.4812,-0.8402 -8.8799,-2.9184 -11.2556,-6.8822 l -1.5146,-2.527 -44.9684,-0.013 -44.9686,-0.013 -0.8995,2.0341 c -0.4948,1.1187 -1.1316,2.1831 -1.4152,2.3653 -0.2835,0.1821 -1.7934,0.5182 -3.3553,0.7467 -1.566,0.2291 -4.5742,1.1115 -6.7063,1.9672 -4.7965,1.925 -7.065,2.3546 -12.39,2.3462 -4.952,-0.01 -8.6028,-0.7016 -11.2379,-2.1358 -2.2499,-1.2246 -3.4629,-2.5696 -4.8287,-5.3544 l -0.9971,-2.033 -155.4326,0.1851 c -146.4761,0.1745 -163.5871,0.2986 -165.9051,1.2027 -0.3454,0.1347 -0.832,0.7373 -1.0813,1.3392 -0.6561,1.5841 -3.8689,4.4414 -6.1597,5.478 -3.7535,1.6987 -6.0244,1.5854 -7.3018,-0.3641 -0.8083,-1.2338 -0.273,-1.9774 1.6723,-2.3229 0.7601,-0.135 1.9175,-0.5682 2.5721,-0.9626 1.1947,-0.7198 2.6919,-3.1966 2.2188,-3.6705 -0.4329,-0.4337 -50.11,-0.7183 -134.5137,-0.7708 l -81.124,-0.05 v -2.2719 -2.2718 h 108.2915 108.2916 v -8.2687 c 0,-4.5478 -0.112,-12.6202 -0.2489,-17.9387 l -0.2488,-9.67 -2.0492,-0.2115 c -2.5213,-0.2601 -3.207,-0.7785 -3.0575,-2.311 0.098,-1.0018 0.3298,-1.2312 1.6286,-1.6109 3.1086,-0.9087 12.7311,-2.8388 13.2192,-2.6515 0.8239,0.3161 1.0842,10.3465 0.6306,24.2982 -0.2234,6.8723 -0.5137,13.8157 -0.6453,15.4296 l -0.2392,2.9345 135.3187,-0.014 c 126.4988,-0.013 180.5526,-0.3231 184.1645,-1.057 0.8742,-0.1776 2.5164,-1.069 3.8802,-2.1063 2.5799,-1.962 2.5645,-1.8648 0.6943,-4.3686 -2.1321,-2.8545 -1.4553,-5.6208 2.2203,-9.0753 l 2.1739,-2.0433 -2.6471,-2.5004 c -3.5551,-3.3581 -4.0588,-4.3868 -4.0051,-8.1801 0.06,-4.243 1.1438,-6.9332 3.8969,-9.6718 3.0584,-3.0423 4.9421,-3.5807 12.5282,-3.5807 5.6742,0 5.9858,0.041 9.388,1.2481 3.3537,1.1895 3.7359,1.2429 8.1297,1.1359 5.2192,-0.1269 5.4321,0 4.2139,2.5699 -0.7767,1.6369 -2.3688,2.4296 -4.8792,2.4296 -1.5037,0 -1.7728,0.1248 -2.0947,0.9712 -0.2031,0.5343 -0.3693,1.696 -0.3693,2.5819 0,3.8006 -2.1485,7.9533 -5.3194,10.2809 -2.5623,1.8809 -5.159,2.6974 -9.8983,3.1124 -4.6901,0.4108 -5.9862,1.0036 -5.9862,2.7384 0,1.9899 1.1642,2.2209 13.1863,2.6161 7.9898,0.2627 9.1655,0.3839 10.816,1.1157 2.2314,0.9892 2.4695,0.8532 4.0753,-2.3277 2.0806,-4.1219 15.2425,-37.7863 17.3812,-44.45645 0.4817,-1.50231 1.1078,-2.8206 1.3914,-2.92942 0.2837,-0.10882 2.6531,-0.31209 5.2656,-0.45176 l 4.75,-0.25397 -1.3072,2.61546 c -2.7809,5.56384 -23.9566,58.76594 -23.5515,59.17114 0.3929,0.3932 62.5502,0.5064 76.1263,0.1387 11.9863,-0.3247 12.5607,-0.3736 13.3219,-1.1347 0.7914,-0.7915 1.0679,-0.9836 4.1848,-2.9078 l 1.6349,-1.0093 -1.4456,-1.134 c -2.0293,-1.5919 -2.3922,-2.1732 -2.3922,-3.831 0,-2.7702 1.674,-5.4495 4.4961,-7.196 l 1.2774,-0.7907 -2.8458,-2.7196 c -3.7343,-3.5686 -4.2064,-4.5103 -4.1761,-8.3305 0.056,-7.1107 4.0351,-11.8948 10.8842,-13.0875 3.984,-0.6939 11.2437,-0.2924 14.0293,0.7756 2.0075,0.7698 3.1216,0.8917 9.5745,1.047 8.3019,0.1998 13.1081,-0.2393 17.3443,-1.5845 3.0227,-0.9599 3.6789,-0.9443 4.1952,0.099 0.1723,0.3483 0.3133,7.2785 0.3133,15.4004 0,11.1956 0.1155,14.9691 0.4779,15.6026 0.3055,0.5343 0.9884,0.9172 1.8932,1.0617 2.0507,0.3274 2.5512,0.7028 2.5512,1.9133 0,0.8267 -0.2203,1.1388 -0.9466,1.3409 -1.2192,0.3391 -18.072,0.345 -19.2826,0.01 -1.2289,-0.3434 -1.3741,-0.9724 -0.44,-1.9064 0.7671,-0.7672 1.2031,-0.918 3.9143,-1.3538 l 1.4199,-0.2283 v -13.046 -13.046 h -2.2967 c -2.6117,0 -3.7616,-0.4602 -3.7616,-1.5055 0,-1.3232 -0.7198,-1.1892 -1.6664,0.3102 -0.9628,1.5252 -2.4805,2.3312 -4.3896,2.3312 -1.4889,0 -2.1119,0.9622 -2.7797,4.2932 -0.7156,3.569 -1.6907,5.6863 -3.6372,7.8976 -2.6665,3.0292 -5.7256,4.2305 -12.2181,4.7982 -4.1228,0.3604 -5.6003,1.0229 -5.6003,2.511 0,1.0372 1.0652,1.8756 2.8556,2.2475 0.6335,0.1316 5.344,0.3861 10.468,0.5656 6.45,0.226 9.6487,0.4842 10.3968,0.8392 1.6709,0.7929 3.5934,4.9324 3.8306,8.2481 0.1396,1.9496 0.3479,2.6992 0.8018,2.8841 1.472,0.5997 20.0313,0.8938 57.5042,0.9108 l 40.2307,0.018 v 2.2719 2.2718 l -50.454,8e-4 h -50.454 l -1.0681,1.6906 c -3.4294,5.4284 -14.4475,9.0944 -23.2686,7.7422 z m -120.5525,-5.0915 c 1.8896,-0.5667 5.3597,-3.1645 5.3597,-4.0123 0,-0.4296 -13.799,-0.406 -17.1781,0.029 -1.4302,0.1843 -2.7807,0.5154 -3.0012,0.7359 -0.8841,0.8842 2.4164,3.1682 5.5425,3.8355 2.1201,0.4525 6.7946,0.156 9.2771,-0.5886 z m 129.7566,0.5452 c 2.8692,-0.5304 4.5392,-1.4081 6.4238,-3.3763 l 1.5146,-1.5816 -9.7388,0.1319 c -8.3488,0.113 -9.826,0.2192 -10.3511,0.7443 -0.5081,0.5082 -0.5315,0.742 -0.1371,1.3736 1.4989,2.4 7.1813,3.6522 12.2886,2.7081 z m -119.7373,-1.8686 c 1.1782,-0.9268 1.6727,-2.2373 1.0008,-2.6526 -0.6962,-0.4302 -2.1027,0.3285 -2.5895,1.3967 -0.9308,2.0429 -0.1732,2.6418 1.5887,1.2559 z m -6.3635,-7.8881 c 1.9321,-0.2065 2.289,-0.3627 2.3863,-1.0445 0.1657,-1.161 -1.7938,-2.6462 -4.1609,-3.1539 -3.2492,-0.6969 -9.8508,-0.9433 -11.8411,-0.4422 -1.9844,0.4997 -4.5713,2.065 -4.9217,2.978 -0.576,1.5012 1.4781,1.8906 10.018,1.8992 3.4361,0 7.2699,-0.103 8.5194,-0.2366 z m 10.2621,-0.6258 c 0.7707,-0.7707 0.929,-1.2553 0.8347,-2.5559 -0.094,-1.3017 -0.2563,-1.6049 -0.8579,-1.6049 -0.5753,0 -0.8932,0.4977 -1.417,2.2181 -0.926,3.0414 -0.3863,3.7693 1.4402,1.9427 z m 121.5015,0.6258 c 2.5321,-0.2711 3.0009,-0.883 1.9294,-2.5183 -1.7321,-2.6436 -14.411,-3.2892 -18.2309,-0.9284 -1.2162,0.7517 -2.3628,2.4581 -1.9374,2.8835 0.5589,0.559 3.4338,0.8013 9.5339,0.8037 3.5403,0 7.4575,-0.1069 8.705,-0.2405 z m -138.8553,-23.0306 c 2.2614,-1.6943 2.5081,-2.4077 2.5141,-7.2676 0,-2.7763 -0.166,-4.7099 -0.4588,-5.2376 -0.7941,-1.4316 -3.0002,-2.843 -4.716,-3.0174 -6.9886,-0.7102 -8.1025,12.9641 -1.3268,16.2884 1.4186,0.696 2.2497,0.5364 3.9875,-0.7658 z m 131.8541,0.2825 c 1.7311,-1.2271 2.4113,-2.9252 2.5783,-6.4368 0.2491,-5.2378 -0.7367,-7.5784 -3.8204,-9.0712 -1.3202,-0.6392 -1.8637,-0.7154 -2.9545,-0.4141 -1.5958,0.4406 -3.1115,1.9727 -3.7033,3.7435 -0.9831,2.9416 -0.214,8.6114 1.4563,10.7348 0.9765,1.2414 3.7576,2.6112 4.7351,2.3322 0.4191,-0.1196 1.188,-0.5194 1.7085,-0.8884 z"
         id="path5464" />
      <path
         style="fill:#274b99;fill-opacity:1;stroke:none;stroke-width:0.378642"
         d="m 3828.5341,1049.1072 c -2.0431,-0.7231 -4.559,-3.4384 -5.1251,-5.5312 -0.5975,-2.2085 -0.2814,-6.191 0.6581,-8.294 1.5331,-3.4313 3.9617,-4.9521 11.192,-7.0085 2.5488,-0.7249 5.0602,-1.6327 5.5808,-2.017 1.9402,-1.4326 0.9994,-5.6658 -1.6121,-7.254 -2.6362,-1.6031 -6.7316,-1.2669 -8.2273,0.6755 -1.857,2.4115 -2.1268,2.6818 -2.8999,2.9056 -1.9867,0.5751 -2.752,-2.7689 -1.1707,-5.1155 2.1257,-3.1543 7.6856,-5.358 13.5314,-5.3634 4.4979,-0.01 7.2518,0.9239 9.2259,3.1091 2.3647,2.6174 2.6099,4.0797 2.8585,17.0452 0.1218,6.3517 0.3552,11.7549 0.5187,12.0072 0.1635,0.2522 0.8923,0.5703 1.6195,0.7067 2.4122,0.4525 2.7104,2.9614 0.4034,3.3943 -0.6789,0.1274 -3.7428,0.1758 -6.8088,0.1078 -6.0382,-0.134 -6.2853,-0.2244 -6.2969,-2.3009 -0.01,-1.4645 -0.6915,-1.3307 -3.6042,0.7055 -3.8222,2.6719 -6.7293,3.3298 -9.8433,2.2276 z m 11.5366,-7.8857 c 1.2432,-0.5893 1.8396,-2.6817 1.876,-6.5827 0.036,-3.8323 -0.3239,-4.1787 -3.2648,-3.143 -2.7731,0.9765 -4.2221,1.9123 -5.0624,3.2691 -0.9006,1.4542 -0.9794,4.544 -0.1462,5.7336 1.0709,1.5287 4.1789,1.8693 6.5974,0.723 z"
         id="path5466" />
      <path
         style="fill:#274b99;fill-opacity:1;stroke:none;stroke-width:0.378642"
         d="m 4195.6305,1048.0522 c -1.972,-0.9977 -1.303,-2.6962 1.1938,-3.031 0.8605,-0.1154 1.8977,-0.5432 2.3051,-0.9505 1.1242,-1.1242 1.4159,-5.0799 1.154,-15.646 l -0.2312,-9.3245 -2.0623,-0.2128 c -2.1838,-0.2254 -3.4986,-1.0532 -3.4986,-2.2026 0,-0.9687 1.3268,-1.7031 3.9757,-2.2009 1.2495,-0.2348 4.1015,-0.8658 6.3377,-1.4022 2.2363,-0.5364 4.3235,-0.8763 4.6384,-0.7555 0.4408,0.1691 0.5724,0.8759 0.5724,3.0713 0,1.5685 0.1061,2.8517 0.2358,2.8517 0.1296,0 1.3279,-1.0217 2.6629,-2.2704 3.2828,-3.071 4.7829,-3.7878 7.9265,-3.7878 h 2.5251 l -0.2582,3.1238 c -0.142,1.7181 -0.4371,4.1887 -0.6557,5.4903 -0.4678,2.7849 -0.7515,2.8836 -3.5383,1.2306 -2.6705,-1.5841 -4.3012,-1.5241 -6.2429,0.2301 -2.1435,1.9365 -2.4105,3.2458 -2.4241,11.8864 -0.01,6.5802 0.069,7.5483 0.7306,8.8981 0.7093,1.4474 0.8498,1.5316 3.1661,1.8994 2.5044,0.3978 3.3903,1.065 2.9471,2.2198 -0.132,0.3439 -0.6813,0.793 -1.2208,0.9981 -1.5088,0.5737 -19.0752,0.4735 -20.2391,-0.1154 z"
         id="path5468" />
      <path
         style="fill:#274b99;fill-opacity:1;stroke:none;stroke-width:0.378642"
         d="m 4239.5953,1049.2733 c -7.2794,-1.2936 -12.086,-7.4627 -13.1253,-16.8461 -0.6126,-5.5303 1.5648,-11.8489 5.2137,-15.1296 4.0109,-3.6061 8.7113,-5.2672 14.2726,-5.0438 4.3415,0.1743 7.0488,1.2739 9.3165,3.7841 2.7908,3.089 4.4995,8.8595 3.5135,11.8655 -0.74,2.2558 -1.7988,2.4842 -12.7051,2.7398 -5.0501,0.1184 -9.1821,0.2838 -9.1821,0.3675 0,0.084 0.265,1.3175 0.589,2.7418 1.0619,4.6688 3.808,7.737 8.0212,8.9618 2.2333,0.6492 4.292,0.5289 8.4729,-0.4953 1.3779,-0.3375 2.7836,-0.5069 3.1237,-0.3764 1.4264,0.5473 0.067,3.3993 -2.3973,5.0302 -3.0887,2.0441 -10.4972,3.2208 -15.1133,2.4005 z m 7.0829,-22.9383 c 2.6357,-0.7115 1.8386,-7.5281 -1.0552,-9.0246 -2.5856,-1.337 -5.8982,-0.3305 -7.4116,2.2519 -0.7769,1.3257 -0.9337,2.0901 -0.9337,4.5522 v 2.9589 l 4.2598,-0.2503 c 2.3428,-0.1376 4.6561,-0.3573 5.1407,-0.4881 z"
         id="path5470" />
      <path
         style="fill:#274b99;fill-opacity:1;stroke:none;stroke-width:0.378642"
         d="m 4338.1539,1049.1151 c -1.267,-0.2757 -3.1257,-0.9012 -4.1303,-1.3899 l -1.8266,-0.8885 0.08,-4.4782 c 0.097,-5.4323 0.3626,-6.3131 1.9009,-6.3131 1.3894,0 1.5281,0.2215 1.9334,3.0892 0.566,4.0042 3.1052,5.6953 8.5514,5.6953 4.5601,0 6.5655,-1.3634 6.5802,-4.4737 0.011,-2.4102 -1.456,-3.4484 -8.2663,-5.8485 -1.8022,-0.6351 -4.5278,-1.7557 -6.0569,-2.4901 -2.4908,-1.1963 -2.8629,-1.5193 -3.5745,-3.1028 -1.1326,-2.52 -1.1462,-7.8705 -0.026,-10.3208 1.5268,-3.3401 4.2224,-5.3017 8.352,-6.0773 2.5688,-0.4826 11.7294,-0.205 13.8228,0.4189 1.1943,0.356 1.4432,0.6212 1.6581,1.7666 0.3585,1.9108 -0.1632,6.984 -0.8223,7.9961 -0.3051,0.4686 -0.882,0.8519 -1.2818,0.8519 -0.8657,0 -1.906,-1.3588 -1.906,-2.4894 0,-1.3274 -1.5986,-3.3221 -3.4109,-4.256 -1.349,-0.6952 -2.1521,-0.8468 -3.883,-0.7328 -2.5807,0.1701 -3.9377,1.0194 -4.9785,3.1166 -0.6479,1.3051 -0.6665,1.5613 -0.1775,2.4367 0.8038,1.4393 3.5801,2.7793 9.0815,4.3832 7.5236,2.1936 8.9543,3.4203 9.7498,8.3593 1.1214,6.9639 -3.4173,12.8584 -11.339,14.7257 -2.9325,0.6913 -6.9136,0.6998 -10.0306,0.022 z"
         id="path5472" />
      <path
         style="fill:#274b99;fill-opacity:1;stroke:none;stroke-width:0.378642"
         d="m 4373.8124,1049.0808 c -1.9309,-0.7075 -3.8933,-2.224 -4.7982,-3.7078 -0.6716,-1.1014 -0.7237,-2.0381 -0.725,-13.0194 v -11.8325 h -2.0362 c -3.6143,0 -3.7799,-1.5988 -0.4277,-4.1298 2.5077,-1.8933 2.6488,-2.4479 2.2096,-8.6837 l -0.322,-4.5718 3.9147,-1.5593 c 2.1531,-0.8576 4.4893,-1.6525 5.1917,-1.76642 1.1566,-0.18776 1.3021,-0.1065 1.5455,0.86322 0.1477,0.5888 0.071,3.7193 -0.171,6.9567 -0.2418,3.2374 -0.4394,6.2661 -0.4391,6.7303 5e-4,0.8399 0.024,0.8429 4.6425,0.6088 5.4048,-0.2739 5.8315,-0.078 5.3999,2.4761 -0.4133,2.4466 -1.1928,2.8585 -5.8214,3.0759 l -4.0312,0.1893 -0.1084,4.5437 c -0.1511,6.3358 0.4656,14.5864 1.1961,15.9989 0.7679,1.4849 1.4367,1.702 4.299,1.3955 2.3366,-0.2503 2.3755,-0.2393 2.3755,0.6714 0,0.5092 -0.5418,1.7438 -1.204,2.7436 -2.1179,3.1974 -6.6814,4.4856 -10.6889,3.0173 z"
         id="path5474" />
      <path
         style="fill:#274b99;fill-opacity:1;stroke:none;stroke-width:0.378642"
         d="m 4402.4051,1048.7198 c -4.708,-1.3148 -8.6813,-4.6989 -10.3259,-8.7946 -0.7987,-1.9892 -0.8742,-2.7608 -0.8787,-8.9914 -0.01,-6.3792 0.053,-6.9437 0.8992,-8.8163 1.1643,-2.5764 5.1274,-6.2838 8.8354,-8.2649 l 2.7557,-1.4723 h 4.9223 c 5.8501,0 7.7332,0.5594 10.4559,3.1062 2.3768,2.2233 3.4437,4.7632 3.6641,8.723 0.2172,3.9023 -0.249,5.1986 -2.0881,5.8056 -0.7324,0.2417 -5.1874,0.5661 -9.9002,0.7208 -4.7127,0.1548 -8.8832,0.4149 -9.2676,0.5781 -0.9149,0.3883 -0.6482,1.8185 0.9474,5.0818 1.5897,3.2509 3.7944,5.4162 6.201,6.09 2.8624,0.8014 7.5244,0.6501 10.0215,-0.3254 3.0228,-1.181 3.1637,-1.1342 2.9264,0.9715 -0.2515,2.2314 -1.8074,3.7863 -5.044,5.0407 -2.9187,1.1313 -10.9227,1.4414 -14.1244,0.5472 z m 6.7693,-22.0115 3.5174,-0.2496 -0.2301,-2.9837 c -0.4061,-5.2663 -1.9156,-6.9787 -5.8633,-6.6513 -1.8793,0.1558 -2.2356,0.3372 -3.6929,1.8795 -1.2579,1.3314 -1.6729,2.1075 -1.8857,3.5264 -0.3337,2.2248 0.1087,3.6124 1.352,4.2414 1.0849,0.549 1.9745,0.58 6.8026,0.2373 z"
         id="path5476" />
      <path
         style="fill:#274b99;fill-opacity:1;stroke:none;stroke-width:0.378642"
         d="m 4401.6082,1057.2493 v -2.2718 h 27.0729 27.0729 v 2.2718 2.2719 h -27.0729 -27.0729 z"
         id="path5478" />
      <path
         style="fill:#274b99;fill-opacity:1;stroke:none;stroke-width:0.378642"
         d="m 4427.3559,1048.2034 c -1.0378,-0.287 -1.4954,-1.7267 -0.7771,-2.445 0.2326,-0.2326 1.1416,-0.5963 2.0199,-0.8082 2.2233,-0.5365 2.8383,-1.9371 3.3528,-7.6355 0.4404,-4.8777 0.1942,-13.8646 -0.4415,-16.1198 -0.4687,-1.6626 -1.6017,-2.567 -3.2161,-2.567 -0.6408,0 -1.3696,-0.2045 -1.6196,-0.4544 -0.7302,-0.7301 -0.5262,-2.132 0.3976,-2.7321 1.0291,-0.6685 13.4159,-3.3777 14.152,-3.0952 0.3776,0.1449 0.5204,0.9819 0.5204,3.0513 0,1.5685 0.107,2.8517 0.2379,2.8517 0.1309,0 1.3738,-1.0715 2.762,-2.3811 3.1577,-2.9788 4.5944,-3.6771 7.5646,-3.6771 2.6844,0 2.5427,-0.4141 1.7546,5.1285 -0.6171,4.3401 -1.0938,5.8521 -1.8451,5.8521 -0.2888,0 -1.1685,-0.5112 -1.9546,-1.1359 -1.8228,-1.4487 -3.6333,-1.5065 -5.5876,-0.1785 -2.4785,1.6842 -2.5532,2.054 -2.5532,12.6416 0,8.9766 0.038,9.4919 0.7324,9.8634 0.4028,0.2156 1.2121,0.3945 1.7985,0.3975 1.8019,0.01 2.9594,0.8195 2.9594,2.0711 0,0.8589 -0.2126,1.1668 -0.9466,1.371 -1.23,0.3421 -18.0742,0.3435 -19.3107,0 z"
         id="path5480" />
      <path
         style="fill:#274b99;fill-opacity:1;stroke:none;stroke-width:0.26774"
         d="m 4103.2117,1048.4403 c -1.9875,-0.2264 -2.4874,-0.5808 -2.4874,-1.7631 0,-1.0689 0.7798,-1.7227 2.055,-1.7227 3.4049,0 4.0474,-3.0975 3.5844,-17.281 -0.1477,-4.5251 -0.3196,-8.2785 -0.382,-8.3409 -0.062,-0.062 -0.9189,-0.2275 -1.9034,-0.3669 -2.718,-0.3849 -3.3428,-0.8174 -3.3499,-2.3185 -0.01,-1.2491 0.705,-1.593 5.1259,-2.4802 2.1116,-0.4237 5.1426,-1.0876 6.7356,-1.4752 2.2716,-0.5526 2.9792,-0.636 3.2799,-0.3864 0.288,0.239 0.3834,1.0151 0.3834,3.119 0,1.5787 0.1068,2.7618 0.2448,2.7115 0.1346,-0.049 1.4191,-1.158 2.8543,-2.4642 3.3717,-3.0687 4.5811,-3.6431 7.6774,-3.6466 2.253,0 2.3426,0.02 2.3387,0.5999 -0.01,1.2332 -1.3248,9.3206 -1.6016,9.8379 -0.401,0.7493 -0.7369,0.6885 -3.1634,-0.573 -2.0923,-1.0877 -2.1612,-1.1034 -3.4354,-0.787 -1.946,0.4833 -3.1607,1.4431 -3.8655,3.0541 -0.5138,1.1746 -0.6248,1.9885 -0.7269,5.3285 -0.067,2.1681 -0.033,6.4005 0.075,9.4054 l 0.1951,5.4633 2.1417,0.4296 c 2.3407,0.4695 3.8346,1.2289 4.1072,2.0881 0.2905,0.915 -0.4849,1.3888 -2.6232,1.6032 -2.438,0.2444 -15.0308,0.219 -17.2593,-0.035 z"
         id="path5482" />
      <path
         style="fill:#274b99;fill-opacity:1;stroke:none;stroke-width:0.26774"
         d="m 4075.1882,1049.4831 c -6.9085,-0.9371 -11.6457,-5.327 -13.6036,-12.6064 -0.7871,-2.9262 -0.8406,-8.6255 -0.1115,-11.8688 1.5139,-6.7339 5.3654,-10.7179 11.9417,-12.3524 2.7924,-0.6941 10.5699,-0.7065 13.1192,-0.021 5.3301,1.4333 8.5721,4.6508 10.0397,9.9638 0.6086,2.2035 0.8499,9.3796 0.4077,12.1228 -1.2231,7.5857 -5.5264,12.3434 -12.857,14.2144 -2.4817,0.6335 -6.492,0.8792 -8.9362,0.5477 z m 6.9736,-4.8234 c 0.4667,-0.1473 1.3342,-0.7947 1.9276,-1.4385 1.7542,-1.9031 2.434,-5.1581 2.434,-11.6537 0,-6.1852 -0.6755,-9.6169 -2.4263,-12.3257 -1.288,-1.9928 -2.7547,-2.9896 -4.6275,-3.1448 -3.3335,-0.2765 -6.1961,2.8693 -7.2978,8.0198 -0.8394,3.9244 0.19,12.9988 1.8984,16.734 1.6755,3.6634 4.4366,4.9631 8.0916,3.8089 z"
         id="path5484" />
      <path
         style="fill:#274b99;fill-opacity:1;stroke:none;stroke-width:0.26774"
         d="m 4006.849,1048.4237 c -3.0024,-0.2021 -4.1176,-0.5168 -4.1176,-1.1619 0,-0.8667 5.7748,-9.3998 13.8472,-20.4611 3.1491,-4.3153 5.7879,-8.008 5.8639,-8.2061 0.1755,-0.4572 -4.0139,-0.7774 -8.3937,-0.6413 -2.813,0.087 -3.051,0.1378 -3.696,0.7833 -0.5295,0.5301 -0.7255,1.0577 -0.8451,2.2758 -0.086,0.8723 -0.2588,1.7869 -0.3848,2.0326 -0.349,0.6809 -1.7373,0.8869 -2.5202,0.374 -0.6255,-0.4099 -0.6584,-0.5632 -0.6584,-3.0616 0,-1.4466 0.079,-3.7443 0.1757,-5.1061 l 0.1757,-2.476 14.2154,0.1314 c 12.6916,0.1173 16.1433,0.2853 16.6693,0.8113 0.4739,0.4739 -2.6742,5.2856 -10.3648,15.8415 -6.5801,9.0317 -9.4213,13.1976 -9.2842,13.6128 0.056,0.1707 0.9336,0.3869 1.955,0.4817 1.8999,0.1763 12.3439,-0.1319 12.5833,-0.3713 0.073,-0.073 0.4284,-1.2362 0.7892,-2.5843 0.3608,-1.3481 0.8406,-2.8083 1.0664,-3.2449 0.8447,-1.6334 2.4339,-1.9966 3.1239,-0.7138 0.1998,0.3714 0.3589,2.6574 0.4368,6.2737 l 0.1223,5.6895 -13.8909,-0.04 c -7.64,-0.022 -15.2308,-0.1295 -16.8684,-0.2398 z"
         id="path5486" />
      <path
         style="fill:#274b99;fill-opacity:1;stroke:none;stroke-width:0.26774"
         d="m 3959.3575,1048.4407 c -2.1681,-0.2701 -2.4096,-0.433 -2.4096,-1.6254 0,-1.4351 0.6873,-1.8608 3.0046,-1.8608 h 1.8147 v -13.1192 -13.1193 h -1.8147 c -2.3451,0 -3.0678,-0.4485 -2.9524,-1.8327 0.073,-0.8681 0.2225,-1.0485 1.3307,-1.5985 0.6871,-0.3409 3.9739,-1.2261 7.304,-1.9671 4.854,-1.08 6.1331,-1.2825 6.4485,-1.0207 0.2888,0.2397 0.3934,0.923 0.3934,2.5695 0,1.2337 0.077,2.2431 0.1701,2.2431 0.093,0 1.2191,-0.7811 2.5013,-1.7358 1.2822,-0.9547 3.043,-2.0692 3.913,-2.4766 1.5096,-0.7071 1.7648,-0.7406 5.5978,-0.7356 3.6294,0.01 4.1509,0.066 5.4156,0.6328 2.7126,1.2163 4.0283,3.3752 4.9142,8.0635 0.1531,0.8099 0.3455,6.563 0.4276,12.7847 l 0.1493,11.3119 h 1.9253 c 2.1683,0 2.7504,0.2879 2.9777,1.4726 0.3781,1.971 -0.71,2.2277 -9.5621,2.2563 l -6.0687,0.019 -0.099,-12.6507 c -0.1168,-14.8446 -0.024,-14.2968 -2.7069,-16.0307 -2.2167,-1.4327 -2.9926,-1.3927 -6.6474,0.3428 l -2.9074,1.3806 v 11.5798 11.5797 l 2.6646,0.092 c 1.6607,0.058 2.7905,0.2181 2.9987,0.4267 0.4136,0.4142 0.4393,2.1037 0.038,2.5048 -0.1627,0.1628 -1.1808,0.3985 -2.2624,0.5238 -2.2928,0.2655 -14.403,0.2575 -16.5582,-0.011 z"
         id="path5488" />
      <path
         style="fill:#274b99;fill-opacity:1;stroke:none;stroke-width:0.26774"
         d="m 4045.8309,1048.9037 c -1.8183,-0.9196 -2.764,-2.4694 -2.8923,-4.7395 -0.1274,-2.2544 0.258,-3.5037 1.5074,-4.8866 1.7656,-1.9544 4.1825,-2.6066 6.3315,-1.7087 2.0771,0.8679 3.8993,3.6892 3.8929,6.0277 0,1.2102 -1.0353,3.4152 -2.0386,4.3558 -1.7466,1.6376 -4.643,2.0427 -6.8009,0.9513 z"
         id="path5490" />
      <path
         style="fill:#274b99;fill-opacity:1;stroke:none;stroke-width:0.26774"
         d="m 3924.819,1048.9505 c -1.4587,-0.6585 -3.316,-2.4057 -4.1051,-3.8621 -0.5219,-0.9631 -0.5804,-1.4754 -0.5804,-5.0871 0,-3.8576 0.03,-4.0763 0.7505,-5.5443 1.2674,-2.5808 3.9064,-4.1723 9.5022,-5.7302 5.3316,-1.4844 6.706,-1.9771 7.5892,-2.7202 0.7855,-0.661 0.8176,-0.7677 0.7153,-2.3749 -0.1353,-2.124 -0.9971,-3.2828 -3.4376,-4.622 -1.4708,-0.8071 -1.9585,-0.9386 -3.4626,-0.9334 -2.3866,0.01 -4.1759,1.0418 -4.6792,2.7029 -0.2488,0.8212 -1.6667,1.9529 -2.4467,1.9529 -0.3568,0 -0.903,-0.2541 -1.2136,-0.5648 -0.854,-0.8539 -0.6346,-3.5202 0.4141,-5.0334 1.4907,-2.1511 4.9906,-3.9794 9.12,-4.7642 2.7849,-0.5292 8.0967,-0.373 9.6189,0.2829 1.0661,0.4594 3.0487,1.9848 5.2447,4.0352 l 1.2088,1.1288 -0.1866,9.352 c -0.1026,5.1437 -0.083,10.7572 0.044,12.4745 0.3089,4.1853 0.921,5.3114 2.8868,5.3114 1.0263,0 1.6656,0.7496 1.6656,1.9528 0,1.5762 -0.3716,1.6628 -7.0951,1.6542 -3.8924,-0.01 -6.1334,-0.1137 -6.607,-0.3206 -0.5313,-0.2321 -0.8107,-0.6454 -1.0794,-1.5969 -0.2286,-0.8092 -0.5321,-1.3164 -0.8214,-1.3721 -0.2524,-0.049 -1.4406,0.6035 -2.6405,1.4491 -3.0241,2.1312 -4.687,2.7723 -7.1919,2.7729 -1.4452,3e-4 -2.3458,-0.152 -3.2129,-0.5434 z m 10.5182,-7.3139 c 1.9274,-0.4535 2.4993,-0.9606 3.0054,-2.6649 0.3992,-1.3442 0.5663,-6.6565 0.2364,-7.5161 -0.2352,-0.6128 -1.4029,-0.5274 -3.5036,0.2566 -3.7004,1.3807 -5.4205,3.328 -5.4297,6.1472 -0.01,1.534 0.4075,3.2406 0.8493,3.5137 1.0276,0.6351 2.8432,0.7339 4.8422,0.2635 z"
         id="path5492" />
      <path
         style="fill:#274b99;fill-opacity:1;stroke:none;stroke-width:0.26774"
         d="m 3897.9111,1034.5132 c -2.0615,-0.1025 -4.1545,-0.2778 -4.651,-0.3896 -0.9001,-0.2027 -0.9021,-0.2067 -0.7323,-1.4466 0.094,-0.6838 0.6105,-2.5805 1.1484,-4.215 l 0.978,-2.9716 4.5736,-0.1735 c 2.5155,-0.095 7.2878,-0.1739 10.6051,-0.1743 5.0618,-7e-4 6.1286,0.067 6.6348,0.4217 0.7549,0.5288 0.6679,1.0931 -0.8845,5.7355 l -1.1192,3.3467 -6.4022,0.026 c -3.5213,0.014 -8.0891,-0.058 -10.1507,-0.1598 z"
         id="path5494" />
      <path
         style="fill:#274b99;fill-opacity:1;stroke:none;stroke-width:0.26774"
         d="m 3866.4517,1049.1136 c -4.336,-0.9306 -5.3525,-1.5116 -5.3587,-3.0627 0,-0.9336 0.7339,-7.8675 0.9617,-9.0408 0.1486,-0.7656 1.6304,-1.2812 2.6106,-0.9085 0.7518,0.2858 0.8768,0.6334 1.0774,2.9954 0.2661,3.1349 2.0328,4.9555 5.4307,5.5967 6.0616,1.1437 10.8979,-1.9122 9.3094,-5.8822 -0.4061,-1.0148 -0.6767,-1.2509 -2.3586,-2.0584 -1.045,-0.5015 -3.9482,-1.5817 -6.4516,-2.4002 -6.8617,-2.2437 -7.5169,-2.7028 -9.3651,-6.5591 -1.256,-2.6207 -1.3753,-3.6965 -0.6653,-5.9988 0.8461,-2.7437 2.0109,-4.7609 3.6374,-6.2992 2.9189,-2.7605 6.2017,-3.5928 13.4821,-3.4176 4.9832,0.1198 6.0371,0.3487 7.1011,1.5419 0.4892,0.5486 0.5355,0.9792 0.5355,4.9768 0,4.6858 -0.085,5.0054 -1.3326,5.0054 -1.0312,0 -1.9076,-0.9816 -2.679,-3.0004 -0.7601,-1.9891 -2.087,-3.4861 -3.6773,-4.1486 -1.3745,-0.5726 -4.0907,-0.525 -5.4574,0.096 -2.2695,1.0307 -3.8747,3.473 -3.4347,5.226 0.4238,1.6885 2.4408,2.5875 9.5516,4.2572 3.5617,0.8364 5.42,1.6708 7.0333,3.1579 3.1449,2.8989 3.8856,7.7721 1.825,12.0068 -0.9303,1.9118 -3.5014,4.4753 -5.7111,5.6941 -0.9572,0.5279 -2.7644,1.289 -4.0161,1.6913 -1.9804,0.6366 -2.7969,0.7427 -6.2919,0.8181 -2.7305,0.059 -4.5732,-0.033 -5.7564,-0.2868 z"
         id="path5496" />
      <path
         style="fill:#274b99;fill-opacity:1;stroke:none;stroke-width:0.13387"
         d="m 3784.5488,1049.5146 c -1.7123,-0.4936 -3.0032,-1.4526 -3.6901,-2.7413 -1.0669,-2.0017 -1.0254,-4.3321 0.1171,-6.5716 0.8051,-1.578 3.3715,-3.2749 4.953,-3.2749 1.608,0 4.308,1.809 5.1236,3.433 1.6685,3.3217 0.3959,7.3447 -2.7957,8.8382 -1.0386,0.4861 -2.6444,0.6232 -3.7079,0.3166 z"
         id="path5498" />
      <path
         style="fill:#274b99;fill-opacity:1;stroke:none;stroke-width:0.13387"
         d="m 3806.0763,1005.4843 c -2.138,-0.7112 -3.4209,-2.2592 -3.8831,-4.6852 -0.3457,-1.8145 -0.181,-3.22739 0.5146,-4.41439 1.052,-1.79514 4.1551,-3.15627 6.3617,-2.79064 1.7295,0.28662 3.2787,1.33844 3.9644,2.69156 0.7657,1.51107 0.9964,4.26977 0.4731,5.65807 -0.5427,1.4402 -1.838,2.6782 -3.4816,3.3278 -0.9246,0.3654 -3.1327,0.4844 -3.9491,0.2128 z"
         id="path5500" />
      <path
         style="fill:#274b99;fill-opacity:1;stroke:none;stroke-width:0.0946605"
         d="m 4315.1682,1005.7977 c -1.7798,-0.3167 -3.1222,-1.4475 -4.0502,-3.4125 -0.4953,-1.0486 -0.6581,-1.7767 -0.6545,-2.92607 0,-0.82399 0.046,-1.11975 0.2555,-1.73021 0.8666,-2.52851 3.1029,-4.04774 5.9502,-4.04243 2.8059,0.007 4.5807,1.25433 5.2431,3.69012 0.2345,0.86219 0.2361,2.84669 0,3.69009 -0.6151,2.2251 -2.3909,4.0464 -4.4668,4.5814 -0.7538,0.1943 -1.6853,0.2554 -2.2802,0.1496 z"
         id="path5502" />
      <path
         style="fill:#274b99;fill-opacity:1;stroke:none;stroke-width:0.26774"
         d="m 3741.1493,844.68492 v -16.33214 h 3.8823 3.8822 v 12.44991 12.44992 h 11.9144 11.9144 v 3.88222 3.8823 h -15.7966 -15.7967 z"
         id="path5504" />
      <path
         style="fill:#274b99;fill-opacity:1;stroke:none;stroke-width:0.26774"
         d="m 3782.1136,857.13483 v -3.88222 h 11.7805 11.7806 v 3.88222 3.8823 h -11.7806 -11.7805 z"
         id="path5506" />
      <path
         style="fill:#274b99;fill-opacity:1;stroke:none;stroke-width:0.26774"
         d="m 3822.0068,857.13483 v -3.88222 h 11.9145 11.9144 v 3.88222 3.8823 h -11.9144 -11.9145 z"
         id="path5508" />
      <path
         style="fill:#274b99;fill-opacity:1;stroke:none;stroke-width:0.26774"
         d="m 3861.9001,857.13483 v -3.88222 h 11.9144 11.9144 v 3.88222 3.8823 h -11.9144 -11.9144 z"
         id="path5510" />
      <path
         style="fill:#274b99;fill-opacity:1;stroke:none;stroke-width:0.26774"
         d="m 3901.7934,857.16898 v -3.91637 h 12.4811 12.4811 l -0.1607,1.67336 c -0.088,0.92038 -0.237,2.53151 -0.3302,3.58033 l -0.1694,1.90688 -7.1309,0.17046 c -3.9219,0.0938 -9.3898,0.24506 -12.1509,0.33613 l -5.0201,0.16566 z"
         id="path5512" />
      <path
         style="fill:#274b99;fill-opacity:1;stroke:none;stroke-width:0.26774"
         d="m 3941.9544,857.16749 v -3.91488 h 12.3506 12.3506 l -0.1752,2.20886 c -0.096,1.21486 -0.2444,2.82696 -0.3291,3.58242 l -0.154,1.37349 -7.1352,0.16888 c -3.9243,0.0929 -9.334,0.24251 -12.0215,0.33246 l -4.8862,0.16357 z"
         id="path5514" />
      <path
         style="fill:#274b99;fill-opacity:1;stroke:none;stroke-width:0.26774"
         d="m 3981.8477,857.13483 v -3.88222 h 12.316 12.3161 v 3.88222 3.8823 h -12.3161 -12.316 z"
         id="path5516" />
      <path
         style="fill:#274b99;fill-opacity:1;stroke:none;stroke-width:0.26774"
         d="m 4011.8346,851.1107 v -11.78058 h 3.8822 3.8822 v 11.78058 11.78059 h -3.8822 -3.8822 z"
         id="path5518" />
      <path
         style="fill:#274b99;fill-opacity:1;stroke:none;stroke-width:0.26774"
         d="M 4011.8346,810.68198 V 798.3659 h 3.8822 3.8822 v 12.31608 12.316 h -3.8822 -3.8822 z"
         id="path5520" />
      <path
         style="fill:#274b99;fill-opacity:1;stroke:none;stroke-width:0.26774"
         d="m 4021.7409,857.13483 v -3.88222 h 12.3161 12.316 v 3.88222 3.8823 h -12.316 -12.3161 z"
         id="path5522" />
      <path
         style="fill:#274b99;fill-opacity:1;stroke:none;stroke-width:0.26774"
         d="m 4011.8346,892.07492 v -11.78051 h 3.8822 3.8822 v 11.78051 11.78058 h -3.8822 -3.8822 z"
         id="path5524" />
      <path
         style="fill:#274b99;fill-opacity:1;stroke:none;stroke-width:0.26774"
         d="m 4011.8346,932.9053 v -11.91442 h 3.8822 3.8822 v 11.91442 11.91442 h -3.8822 -3.8822 z"
         id="path5526" />
      <path
         style="fill:#274b99;fill-opacity:1;stroke:none;stroke-width:0.26774"
         d="m 4061.6342,857.13483 v -3.88222 h 12.316 12.3161 v 3.88222 3.8823 h -12.3161 -12.316 z"
         id="path5528" />
      <path
         style="fill:#274b99;fill-opacity:1;stroke:none;stroke-width:0.13387"
         d="m 4304.6084,904.57344 c -3.8677,-0.48861 -7.5452,-2.43002 -10.5116,-5.54945 -2.232,-2.34711 -3.6959,-5.205 -4.4382,-8.66415 -0.392,-1.82675 -0.4237,-5.44856 -0.064,-7.24932 0.763,-3.81475 2.2854,-6.68904 4.9704,-9.38382 4.6339,-4.65094 11.064,-6.50173 17.3388,-4.99066 6.3254,1.52328 11.133,6.05701 12.8967,12.16217 0.6295,2.17898 0.8009,3.67731 0.7174,6.27383 -0.1274,3.96228 -1.0546,6.95866 -3.1213,10.08699 -1.3997,2.11877 -4.0616,4.41121 -6.405,5.51605 -3.3,1.55578 -7.7449,2.25799 -11.3837,1.79836 z m 5.2362,-3.00012 c 2.3601,-0.41162 5.0242,-1.53803 6.7785,-2.86605 4.065,-3.07719 6.6924,-8.89498 6.1385,-13.59198 -0.3537,-2.99862 -1.997,-6.59685 -4.0207,-8.80398 -2.9706,-3.23963 -8.7917,-5.43187 -13.1174,-4.93996 -3.2449,0.36893 -5.9225,1.77335 -8.7127,4.56983 -2.3417,2.34704 -3.5326,4.5219 -4.1795,7.63301 -0.3471,1.66977 -0.2745,4.99335 0.1437,6.57415 1.623,6.13415 6.1588,10.43188 12.068,11.43442 1.4076,0.23876 3.5013,0.23472 4.9016,-0.01 z"
         id="path5530" />
      <path
         style="fill:#274b99;fill-opacity:1;stroke:none;stroke-width:0.13387"
         d="m 4300.1572,895.68446 c -0.1616,-0.11324 -0.3977,-0.51985 -0.5246,-0.90361 -0.2064,-0.62401 -0.2361,-1.59375 -0.2804,-9.16512 l -0.049,-8.46733 h 4.8855 c 5.3313,0 6.6105,0.10373 7.692,0.62365 1.2678,0.60941 2.9693,3.2406 2.9693,4.59184 0,1.15106 -0.6603,2.66924 -1.5938,3.66444 -0.5909,0.63001 -0.9678,0.83125 -1.777,0.94898 -0.8383,0.12186 -1.3147,0.50659 -1.3147,1.06148 0,0.51625 0.3261,1.02411 0.6575,1.02411 0.8045,0 4.5403,5.59505 4.2467,6.36017 -0.1124,0.29307 -0.6655,0.46719 -1.484,0.46719 -1.3163,0 -2.5874,-1.10311 -4.7902,-4.15753 -1.1017,-1.52785 -2.5695,-3.01143 -3.3417,-3.37781 -0.5939,-0.2819 -1.2933,-0.29464 -1.6704,-0.0307 -0.4024,0.28183 -0.5506,1.12694 -0.6464,3.68361 -0.093,2.47743 -0.2103,3.101 -0.6722,3.56295 -0.2692,0.26909 -0.4523,0.31927 -1.1657,0.31927 -0.545,0 -0.9512,-0.0734 -1.1404,-0.20581 z m 8.0656,-10.9244 c 1.1772,-0.17045 2.0232,-0.56358 2.2794,-1.05908 0.1141,-0.22056 0.1972,-0.74647 0.1972,-1.24774 0,-1.51002 -0.6703,-1.95736 -3.3539,-2.23836 -2.087,-0.21855 -3.3889,-0.13129 -3.7735,0.25276 -0.2738,0.27352 -0.3065,0.45177 -0.3467,1.89071 -0.051,1.81454 0.1121,2.35693 0.7496,2.49735 0.2012,0.0442 0.4259,0.10418 0.4996,0.13309 0.199,0.0779 2.6729,-0.0726 3.7483,-0.22873 z"
         id="path5532" />
      <path
         style="fill:#274b99;fill-opacity:1;stroke:none;stroke-width:0.13387"
         d="m 4256.3482,857.06795 v -3.88222 h 0.5454 c 1.1049,0 23.8752,-0.54741 23.8953,-0.57444 0.011,-0.0157 0.1197,-4.6666 0.2407,-10.33602 0.121,-5.66936 0.257,-11.16645 0.3023,-12.21565 l 0.082,-1.90763 h 3.866 3.866 v 16.39909 16.39909 h -16.399 -16.3991 z"
         id="path5534" />
      <path
         style="fill:#274b99;fill-opacity:1;stroke:none;stroke-width:0.13387"
         d="m 4101.5944,857.06795 v -3.88222 h 12.383 12.383 v 3.88222 3.88222 h -12.383 -12.383 z"
         id="path5536" />
      <path
         style="fill:#274b99;fill-opacity:1;stroke:none;stroke-width:0.13387"
         d="m 4141.4877,857.06795 v -3.88222 h 12.4499 12.4499 v 3.88222 3.88222 h -12.4499 -12.4499 z"
         id="path5538" />
      <path
         style="fill:#274b99;fill-opacity:1;stroke:none;stroke-width:0.13387"
         d="m 4181.381,857.06795 v -3.88222 h 12.4499 12.4499 v 3.88222 3.88222 h -12.4499 -12.4499 z"
         id="path5540" />
      <path
         style="fill:#274b99;fill-opacity:1;stroke:none;stroke-width:0.13387"
         d="m 4226.8298,860.86008 c -1.7646,-0.0867 -4.2463,-0.32939 -4.5503,-0.44495 -0.5834,-0.22176 -0.7659,-1.17704 -0.8377,-4.38469 l -0.064,-2.84471 h 12.3979 12.398 v 3.88222 3.88222 l -9.2705,-0.0255 c -5.0988,-0.0142 -9.632,-0.0434 -10.0738,-0.0652 z"
         id="path5542" />
      <path
         style="fill:#274b99;fill-opacity:1;stroke:none;stroke-width:0.0946605"
         d="m 3741.1151,587.11895 c 0,-0.62215 -0.5757,-11.11522 -0.6118,-11.15132 -0.021,-0.021 -1.3939,-0.13983 -3.0502,-0.26348 -4.1019,-0.30609 -4.7186,-0.44966 -5.1001,-1.1873 -0.2346,-0.45371 -0.3238,-1.66647 -0.3245,-4.41367 l -8e-4,-2.57951 h 3.1027 c 3.3239,0 4.4757,-0.0876 5.1013,-0.38788 0.5641,-0.27082 0.6969,-0.53198 0.7944,-1.56147 0.046,-0.48974 0.1501,-1.01782 0.2306,-1.17352 0.3263,-0.63106 1.2867,-0.84916 3.7395,-0.84916 2.4363,0 3.3493,0.20244 3.7111,0.82287 0.089,0.15211 0.1868,0.57152 0.2179,0.93191 0.092,1.07159 0.1374,1.25133 0.389,1.55031 0.3933,0.46742 0.9544,0.58073 3.2611,0.65877 1.8259,0.0614 2.0869,0.0911 2.4713,0.27719 0.4357,0.2109 0.6424,0.52276 0.7862,1.18655 0.032,0.14979 0.058,1.29986 0.058,2.55584 0,3.03824 -0.1331,3.47263 -1.1291,3.74764 -0.1881,0.0517 -1.5675,0.12328 -3.0655,0.15848 l -2.7235,0.0644 v 5.94856 5.94848 h -3.9285 -3.9284 z"
         id="path5544" />
      <path
         style="fill:#274b99;fill-opacity:1;stroke:none;stroke-width:0.0946605"
         d="m 3767.9987,571.49943 v -3.97576 h 12.4479 12.4478 v 3.97576 3.9757 h -12.4478 -12.4479 z"
         id="path5546" />
      <path
         style="fill:#274b99;fill-opacity:1;stroke:none;stroke-width:0.0946605"
         d="m 3696.1515,571.49943 v -3.97576 h 11.9272 11.9272 v 3.97576 3.9757 h -11.9272 -11.9272 z"
         id="path5548" />
      <path
         style="fill:#274b99;fill-opacity:1;stroke:none;stroke-width:0.0946605"
         d="m 3660.1805,571.49943 v -3.97576 h 11.9272 11.9272 v 3.97576 3.9757 h -11.9272 -11.9272 z"
         id="path5550" />
      <path
         style="fill:#274b99;fill-opacity:1;stroke:none;stroke-width:0.0946605"
         d="m 3741.0205,609.45822 v -11.92723 h 3.9757 3.9758 v 11.92723 11.92722 h -3.9758 -3.9757 z"
         id="path5552" />
      <path
         style="fill:#274b99;fill-opacity:1;stroke:none;stroke-width:0.26774"
         d="M 3741.1493,642.40731 V 630.4929 h 3.8823 3.8822 v 11.91441 11.91442 h -3.8822 -3.8823 z"
         id="path5554" />
      <path
         style="fill:#274b99;fill-opacity:1;stroke:none;stroke-width:0.26774"
         d="m 3741.1493,676.27642 v -11.78059 h 3.8823 3.8822 v 11.78059 11.78058 h -3.8822 -3.8823 z"
         id="path5556" />
      <path
         style="fill:#274b99;fill-opacity:1;stroke:none;stroke-width:0.26774"
         d="m 3741.1493,709.34235 v -11.91449 h 3.8823 3.8822 v 11.91449 11.91442 h -3.8822 -3.8823 z"
         id="path5558" />
      <path
         style="fill:#274b99;fill-opacity:1;stroke:none;stroke-width:0.26774"
         d="m 3741.1493,743.21145 v -11.78058 h 3.8823 3.8822 v 11.78058 11.78058 h -3.8822 -3.8823 z"
         id="path5560" />
      <path
         style="fill:#274b99;fill-opacity:1;stroke:none;stroke-width:0.26774"
         d="m 3741.1493,776.14347 v -11.78058 h 3.8823 3.8822 v 11.78058 11.78059 h -3.8822 -3.8823 z"
         id="path5562" />
      <path
         style="fill:#274b99;fill-opacity:1;stroke:none;stroke-width:0.26774"
         d="M 3741.1493,810.14649 V 798.3659 h 3.8823 3.8822 v 11.78059 11.78058 h -3.8822 -3.8823 z"
         id="path5564" />
      <path
         style="fill:#274b99;fill-opacity:1;stroke:none;stroke-width:0.26774"
         d="m 3741.1493,542.54026 v -11.91442 h 3.8823 3.8822 v 11.91442 11.91442 h -3.8822 -3.8823 z"
         id="path5566" />
      <path
         style="fill:#274b99;fill-opacity:1;stroke:none;stroke-width:0.26774"
         d="m 3741.1493,508.53724 v -11.91441 h 3.8823 3.8822 v 11.91441 11.91442 h -3.8822 -3.8823 z"
         id="path5568" />
      <path
         style="fill:#274b99;fill-opacity:1;stroke:none;stroke-width:0.26774"
         d="M 3741.1493,475.60522 V 463.6908 h 3.8823 3.8822 v 11.91442 11.91442 h -3.8822 -3.8823 z"
         id="path5570" />
      <path
         style="fill:#274b99;fill-opacity:1;stroke:none;stroke-width:0.26774"
         d="m 3741.1493,441.60221 v -11.91442 h 3.8823 3.8822 v 11.91442 11.91442 h -3.8822 -3.8823 z"
         id="path5572" />
      <path
         style="fill:#274b99;fill-opacity:1;stroke:none;stroke-width:0.26774"
         d="m 3741.1493,408.67019 v -11.91442 h 3.8823 3.8822 v 11.91442 11.91442 h -3.8822 -3.8823 z"
         id="path5574" />
      <path
         style="fill:#274b99;fill-opacity:1;stroke:none;stroke-width:0.26774"
         d="m 3741.1493,303.84992 v -15.79665 h 15.7967 15.7966 v 3.88223 3.88222 h -11.9144 -11.9144 v 11.91449 11.91442 h -3.8822 -3.8823 z"
         id="path5576" />
      <path
         style="fill:#274b99;fill-opacity:1;stroke:none;stroke-width:0.26774"
         d="m 3783.9877,291.9355 v -3.88223 h 11.9144 11.9145 v 3.88223 3.88222 h -11.9145 -11.9144 z"
         id="path5578" />
      <path
         style="fill:#274b99;fill-opacity:1;stroke:none;stroke-width:0.26774"
         d="m 3741.1493,341.73515 v -11.91442 h 3.8823 3.8822 v 11.91442 11.91442 h -3.8822 -3.8823 z"
         id="path5580" />
      <path
         style="fill:#274b99;fill-opacity:1;stroke:none;stroke-width:0.26774"
         d="M 3741.1493,374.80109 V 363.0205 h 3.8823 3.8822 v 11.78059 11.78058 h -3.8822 -3.8823 z"
         id="path5582" />
      <path
         style="fill:#274b99;fill-opacity:1;stroke:none;stroke-width:0.26774"
         d="m 3823.881,291.9355 v -3.88223 h 11.9144 11.9145 v 3.88223 3.88222 h -11.9145 -11.9144 z"
         id="path5584" />
      <path
         style="fill:#274b99;fill-opacity:1;stroke:none;stroke-width:0.26774"
         d="m 3864.042,291.9355 v -3.88223 h 11.7806 11.7806 v 3.88223 3.88222 h -11.7806 -11.7806 z"
         id="path5586" />
      <path
         style="fill:#274b99;fill-opacity:1;stroke:none;stroke-width:0.26774"
         d="m 3903.9353,291.9355 v -3.88223 h 11.7806 11.7805 v 3.88223 3.88222 h -11.7805 -11.7806 z"
         id="path5588" />
      <path
         style="fill:#274b99;fill-opacity:1;stroke:none;stroke-width:0.26774"
         d="m 3943.8285,291.9355 v -3.88223 h 11.9145 11.9144 v 3.88223 3.88222 h -11.9144 -11.9145 z"
         id="path5590" />
      <path
         style="fill:#274b99;fill-opacity:1;stroke:none;stroke-width:0.26774"
         d="m 3983.7218,291.9355 v -3.88223 h 11.9145 11.9144 v 3.88223 3.88222 h -11.9144 -11.9145 z"
         id="path5592" />
      <path
         style="fill:#274b99;fill-opacity:1;stroke:none;stroke-width:0.26774"
         d="m 4011.8346,291.9355 v -11.91442 h 3.8822 3.8822 v 11.91442 11.91442 h -3.8822 -3.8822 z"
         id="path5594" />
      <path
         style="fill:#274b99;fill-opacity:1;stroke:none;stroke-width:0.26774"
         d="m 4023.6151,291.9355 v -3.88223 h 11.9145 11.9144 v 3.88223 3.88222 h -11.9144 -11.9145 z"
         id="path5596" />
      <path
         style="fill:#274b99;fill-opacity:1;stroke:none;stroke-width:0.26774"
         d="M 4011.8346,332.76588 V 320.9853 h 3.8822 3.8822 v 11.78058 11.78058 h -3.8822 -3.8822 z"
         id="path5598" />
      <path
         style="fill:#274b99;fill-opacity:1;stroke:none;stroke-width:0.26774"
         d="m 4011.8346,251.90836 v -11.78059 h 3.8822 3.8822 v 11.78059 11.78058 h -3.8822 -3.8822 z"
         id="path5600" />
      <path
         style="fill:#274b99;fill-opacity:1;stroke:none;stroke-width:0.26774"
         d="m 4063.7761,291.9355 v -3.88223 h 12.3161 12.316 v 3.88223 3.88222 h -12.316 -12.3161 z"
         id="path5602" />
      <path
         style="fill:#274b99;fill-opacity:1;stroke:none;stroke-width:0.26774"
         d="m 4103.6694,291.9355 v -3.88223 h 12.316 12.3161 v 3.88223 3.88222 h -12.3161 -12.316 z"
         id="path5604" />
      <path
         style="fill:#274b99;fill-opacity:1;stroke:none;stroke-width:0.26774"
         d="m 4143.5626,291.9355 v -3.88223 h 12.3161 12.3161 v 3.88223 3.88222 h -12.3161 -12.3161 z"
         id="path5606" />
      <path
         style="fill:#274b99;fill-opacity:1;stroke:none;stroke-width:0.26774"
         d="m 4183.456,291.9355 v -3.88223 h 12.316 12.316 v 3.88223 3.88222 h -12.316 -12.316 z"
         id="path5608" />
      <path
         style="fill:#274b99;fill-opacity:1;stroke:none;stroke-width:0.26774"
         d="m 4223.3493,291.9355 v -3.88223 h 12.4499 12.4499 v 3.88223 3.88222 h -12.4499 -12.4499 z"
         id="path5610" />
      <path
         style="fill:#274b99;fill-opacity:1;stroke:none;stroke-width:0.26774"
         d="m 4281.4489,307.73221 v -11.91449 h -12.5839 -12.5837 v -3.88222 -3.88223 h 16.466 16.466 v 15.79665 15.79671 h -3.8822 -3.8822 z"
         id="path5612" />
      <path
         style="fill:#274b99;fill-opacity:1;stroke:none;stroke-width:0.26774"
         d="m 4281.4489,338.79001 v -11.91442 h 3.8822 3.8822 v 11.91442 11.91449 h -3.8822 -3.8822 z"
         id="path5614" />
      <path
         style="fill:#274b99;fill-opacity:1;stroke:none;stroke-width:0.26774"
         d="m 4281.4489,371.72203 v -11.91442 h 3.8822 3.8822 v 11.91442 11.91449 h -3.8822 -3.8822 z"
         id="path5616" />
      <path
         style="fill:#274b99;fill-opacity:1;stroke:none;stroke-width:0.26774"
         d="m 4281.4489,405.18955 v -12.44992 h 3.8822 3.8822 v 12.44992 12.44991 h -3.8822 -3.8822 z"
         id="path5618" />
      <path
         style="fill:#274b99;fill-opacity:1;stroke:none;stroke-width:0.26774"
         d="m 4281.4489,438.65706 v -11.91442 h 3.8822 3.8822 v 11.91442 11.9145 h -3.8822 -3.8822 z"
         id="path5620" />
      <path
         style="fill:#274b99;fill-opacity:1;stroke:none;stroke-width:0.26774"
         d="m 4281.4489,472.12458 v -12.44991 h 3.8822 3.8822 v 12.44991 12.44992 h -3.8822 -3.8822 z"
         id="path5622" />
      <path
         style="fill:#274b99;fill-opacity:1;stroke:none;stroke-width:0.26774"
         d="m 4011.8346,494.61476 v -11.91442 h 3.8822 3.8822 v 11.91442 11.91442 h -3.8822 -3.8822 z"
         id="path5624" />
      <path
         style="fill:#274b99;fill-opacity:1;stroke:none;stroke-width:0.26774"
         d="m 4011.8346,535.57898 v -11.91442 h 3.8822 3.8822 v 11.91442 11.91449 h -3.8822 -3.8822 z"
         id="path5626" />
      <path
         style="fill:#274b99;fill-opacity:1;stroke:none;stroke-width:0.26774"
         d="m 3985.8637,571.45614 v -3.88222 h 11.7806 11.7806 v 3.88222 3.8823 h -11.7806 -11.7806 z"
         id="path5628" />
      <path
         style="fill:#274b99;fill-opacity:1;stroke:none;stroke-width:0.26774"
         d="m 3949.7188,571.45614 v -3.88222 h 11.9144 11.9145 v 3.88222 3.8823 h -11.9145 -11.9144 z"
         id="path5630" />
      <path
         style="fill:#274b99;fill-opacity:1;stroke:none;stroke-width:0.26774"
         d="m 4011.8346,608.4043 v -11.91442 h 3.8822 3.8822 v 11.91442 11.91442 h -3.8822 -3.8822 z"
         id="path5632" />
      <path
         style="fill:#274b99;fill-opacity:1;stroke:none;stroke-width:0.26774"
         d="m 4011.8346,648.29761 v -11.91442 h 3.8822 3.8822 v 11.91442 11.91442 h -3.8822 -3.8822 z"
         id="path5634" />
      <path
         style="fill:#274b99;fill-opacity:1;stroke:none;stroke-width:0.26774"
         d="m 4281.4489,605.86082 v -12.31608 h 3.8822 3.8822 v 12.31608 12.316 h -3.8822 -3.8822 z"
         id="path5636" />
      <path
         style="fill:#274b99;fill-opacity:1;stroke:none;stroke-width:0.26774"
         d="m 4281.4489,639.32826 v -11.78051 h 3.8822 3.8822 v 11.78051 11.78058 h -3.8822 -3.8822 z"
         id="path5638" />
      <path
         style="fill:#274b99;fill-opacity:1;stroke:none;stroke-width:0.26774"
         d="m 4281.4489,672.79578 v -12.31601 h 3.8822 3.8822 v 12.31601 12.31607 h -3.8822 -3.8822 z"
         id="path5640" />
      <path
         style="fill:#274b99;fill-opacity:1;stroke:none;stroke-width:0.26774"
         d="m 4281.4489,706.26329 v -11.78051 h 3.8822 3.8822 v 11.78051 11.78059 h -3.8822 -3.8822 z"
         id="path5642" />
      <path
         style="fill:#274b99;fill-opacity:1;stroke:none;stroke-width:0.26774"
         d="m 4281.4489,739.73081 v -12.316 h 3.8822 3.8822 v 12.316 12.31608 h -3.8822 -3.8822 z"
         id="path5644" />
      <path
         style="fill:#274b99;fill-opacity:1;stroke:none;stroke-width:0.26774"
         d="m 4281.4489,773.19833 v -11.78059 h 3.8822 3.8822 v 11.78059 11.78058 h -3.8822 -3.8822 z"
         id="path5646" />
      <path
         style="fill:#274b99;fill-opacity:1;stroke:none;stroke-width:0.26774"
         d="m 4281.4489,806.66585 v -12.31601 h 3.8822 3.8822 v 12.31601 12.31607 h -3.8822 -3.8822 z"
         id="path5648" />
      <path
         style="fill:#274b99;fill-opacity:1;stroke:none;stroke-width:0.26774"
         d="M 4281.4489,539.05962 V 526.6097 h 3.8822 3.8822 v 12.44992 12.44991 h -3.8822 -3.8822 z"
         id="path5650" />
      <path
         style="fill:#274b99;fill-opacity:1;stroke:none;stroke-width:0.26774"
         d="m 4281.4489,505.5921 v -11.91442 h 3.8822 3.8822 v 11.91442 11.91442 h -3.8822 -3.8822 z"
         id="path5652" />
    </g>
  </g>
</svg>
