<?xml version="1.0" encoding="UTF-8" standalone="no"?>
<!-- Created with Inkscape (http://www.inkscape.org/) -->

<svg
   width="121mm"
   height="98mm"
   viewBox="0 0 121 98"
   version="1.1"
   id="svg2318"
   inkscape:version="1.2.2 (b0a8486541, 2022-12-01)"
   sodipodi:docname="iso-9001.svg"
   xmlns:inkscape="http://www.inkscape.org/namespaces/inkscape"
   xmlns:sodipodi="http://sodipodi.sourceforge.net/DTD/sodipodi-0.dtd"
   xmlns="http://www.w3.org/2000/svg"
   xmlns:svg="http://www.w3.org/2000/svg">
  <sodipodi:namedview
     id="namedview2320"
     pagecolor="#505050"
     bordercolor="#ffffff"
     borderopacity="1"
     inkscape:showpageshadow="0"
     inkscape:pageopacity="0"
     inkscape:pagecheckerboard="1"
     inkscape:deskcolor="#505050"
     inkscape:document-units="mm"
     showgrid="false"
     inkscape:zoom="1.9779745"
     inkscape:cx="213.85514"
     inkscape:cy="170.6291"
     inkscape:window-width="1920"
     inkscape:window-height="1043"
     inkscape:window-x="0"
     inkscape:window-y="0"
     inkscape:window-maximized="1"
     inkscape:current-layer="layer1" />
  <defs
     id="defs2315" />
  <g
     inkscape:label="Capa 1"
     inkscape:groupmode="layer"
     id="layer1">
    <g
       id="g3520"
       transform="matrix(0.08844448,0,0,0.08844448,8.8395798,-3.2334798)">
      <g
         id="g3224">
        <path
           style="fill:#00b9f2;fill-opacity:1;stroke:none;stroke-width:1.07096"
           d="m 577.13069,596.96479 c -46.52999,-9.54064 -89.83765,-20.96758 -134.13781,-35.39298 -14.03948,-4.57162 -21.68694,-7.57294 -21.68694,-8.51122 0,-2.60318 9.08454,-13.82902 17.84725,-22.05399 26.48811,-24.8626 69.72051,-43.33882 118.91726,-50.82174 15.11676,-2.29933 53.8489,-4.1794 63.50173,-3.08243 l 8.02883,0.91244 0.87776,6.42579 c 1.16431,8.5241 -0.0734,38.37797 -2.06514,49.79965 -4.77234,27.37052 -18.10586,68.65169 -22.12102,68.48767 -0.7243,-0.0292 -13.84722,-2.6231 -29.16192,-5.76319 z"
           id="path2561" />
        <path
           style="fill:#ff2e17;fill-opacity:1;stroke:none;stroke-width:0.757287"
           d="m 597.20598,684.54505 c 0,-0.26969 1.97915,-3.63282 4.39817,-7.47356 7.02793,-11.15858 14.65008,-24.89368 21.84077,-39.35713 6.47723,-13.02832 6.75397,-13.44182 8.99758,-13.44182 1.27305,0 8.94508,0.69046 17.04888,1.53429 28.95985,3.01555 49.95468,4.52444 75.50744,5.42662 l 25.93824,0.91581 -2.46245,2.56071 c -3.11793,3.24225 -17.07345,13.59123 -24.73836,18.34515 -25.89457,16.06035 -59.04716,25.95307 -100.02538,29.84765 -16.96912,1.6127 -26.50489,2.20354 -26.50489,1.64228 z"
           id="path3413" />
        <path
           style="fill:#ffffff;fill-opacity:1;stroke:none;stroke-width:0.378642"
           d="m 475.85128,808.67107 v -28.20881 h 6.81553 6.81562 v 28.20881 28.20881 h -6.81562 -6.81553 z"
           id="path3490" />
        <path
           style="fill:#ffffff;fill-opacity:1;stroke:none;stroke-width:0.378642"
           d="m 539.24066,837.21555 c -13.77891,-0.83791 -27.65579,-8.26114 -33.20486,-17.76239 -6.00435,-10.28075 -3.13335,-22.15278 7.36459,-30.45392 5.67115,-4.48437 13.73046,-8.00126 20.57243,-8.97736 5.07177,-0.72356 17.67964,-0.61578 22.32361,0.19075 6.83449,1.18708 12.37951,3.40672 17.44814,6.98435 5.52466,3.89968 9.56521,8.77163 11.68262,14.08673 1.014,2.54529 1.13375,3.28067 1.14132,7.00869 0.007,3.37504 -0.14979,4.59117 -0.82556,6.41126 -1.27628,3.43727 -3.00327,6.03603 -6.45537,9.71417 -1.73328,1.84675 -3.04663,3.5273 -2.91849,3.73453 0.41012,0.66364 4.83428,1.81364 8.0659,2.0966 3.70944,0.32489 3.87286,0.50201 3.87286,4.19925 v 2.54049 l -4.82769,-0.21038 c -3.811,-0.16612 -5.78446,-0.47116 -9.37138,-1.44853 -6.15197,-1.67644 -8.40719,-1.78668 -12.1782,-0.59541 -6.67855,2.10977 -14.58343,2.9742 -22.68992,2.48117 z m 12.8354,-9.98911 c 3.57987,-0.62432 5.26545,-1.24287 5.08375,-1.86569 -0.19899,-0.68221 -4.74703,-2.73185 -9.68129,-4.36297 -5.24575,-1.7341 -12.34109,-3.25573 -16.98634,-3.64279 -3.55187,-0.2959 -8.00359,0.36309 -8.33791,1.23434 -0.75838,1.97638 9.27379,7.8105 15.0945,8.77799 3.30981,0.55017 11.29962,0.47423 14.82729,-0.14088 z m 14.94075,-7.90277 c 3.60923,-3.91548 4.84462,-7.2324 4.53605,-12.17858 -0.3165,-5.07297 -2.41235,-8.67673 -7.37949,-12.68852 -3.16653,-2.5575 -6.24259,-4.12241 -10.51629,-5.35016 -2.57449,-0.73958 -3.89653,-0.86817 -8.89303,-0.86488 -7.0215,0.007 -9.38441,0.51228 -15.02868,3.229 -3.18256,1.53174 -4.38334,2.37228 -6.85171,4.79586 -4.4807,4.39959 -5.89688,8.03242 -5.22583,13.40497 l 0.25337,2.02888 10.49195,0.007 c 9.44081,0.007 10.87526,0.0891 14.31778,0.84788 5.6024,1.23494 9.10401,2.49144 15.67427,5.62457 3.22794,1.5393 6.14538,2.79895 6.4833,2.79925 0.33792,3e-4 1.30017,-0.74348 2.13831,-1.65269 z"
           id="path3492" />
        <path
           style="fill:#ffffff;fill-opacity:1;stroke:none;stroke-width:0.378642"
           d="m 632.23032,837.37403 c -16.58857,-1.77649 -32.07336,-12.13326 -35.01259,-23.41767 -1.19044,-4.57058 -0.45857,-11.11297 1.75605,-15.69793 0.87387,-1.80907 2.15142,-3.42657 4.82215,-6.10494 5.07162,-5.08623 11.4133,-9.05278 17.07539,-10.68023 8.61959,-2.47743 24.36995,-2.76608 32.88843,-0.60268 7.25053,1.84128 17.8501,8.47198 20.68365,12.93882 l 0.6605,1.04126 -7.14305,-0.009 c -3.92873,-0.007 -7.88113,-0.17944 -8.78324,-0.3875 -0.9021,-0.20798 -2.94679,-1.14521 -4.54369,-2.08274 -1.59697,-0.93745 -4.26665,-2.16212 -5.93268,-2.72158 -2.82015,-0.94689 -3.48626,-1.01789 -9.65538,-1.0289 -5.74934,-0.0105 -7.05213,0.10328 -9.84471,0.85799 -7.76827,2.09951 -13.46698,6.23308 -16.19059,11.74403 -1.37761,2.78727 -1.41625,2.9796 -1.41625,7.05011 0,3.92963 0.0749,4.342 1.22175,6.76408 1.49309,3.15231 5.06742,6.99768 8.22579,8.84944 5.12106,3.00252 12.25871,4.54332 19.29961,4.16638 5.18291,-0.27756 8.12386,-1.00568 12.5651,-3.11096 1.8964,-0.89896 4.1967,-1.84083 5.11169,-2.09308 1.94059,-0.53504 13.55288,-0.565 15.2947,-0.0397 l 1.13592,0.34272 -2.08251,1.97054 c -2.34315,2.2171 -7.77201,5.97275 -10.96034,7.58223 -6.73353,3.39908 -20.48585,5.60008 -29.1757,4.66944 z"
           id="path3494" />
        <path
           style="fill:#274b99;fill-opacity:1;stroke:none;stroke-width:0.757287"
           d="m 163.66126,486.64645 c -0.83305,-0.21023 -2.26765,-0.66821 -3.1881,-1.01782 l -1.67352,-0.63563 1.39274,-4.04811 c 2.34022,-6.80206 2.61763,-9.89534 1.05107,-11.72007 -1.46741,-1.70916 -16.79484,-6.90638 -61.894423,-20.98697 -33.693399,-10.51944 -36.428691,-11.25834 -38.189157,-10.3161 -1.572258,0.84144 -4.165774,5.86573 -4.987515,9.6622 -0.286696,1.3248 -1.00688,2.81176 -1.600268,3.30426 -1.229316,1.02021 -6.05094,0.38114 -6.847441,-0.90764 -0.277184,-0.44847 3.365527,-13.07626 8.094881,-28.06165 l 8.598771,-27.24619 2.617483,0.42473 c 4.382968,0.71127 5.015151,1.91078 3.465587,6.57602 -1.670818,5.03036 -1.813717,9.44628 -0.351404,10.86088 2.38913,2.31132 96.217826,31.8295 98.992366,31.14272 1.8824,-0.46591 4.27677,-4.61109 5.98376,-10.35916 1.19449,-4.02228 1.84435,-4.29661 6.03289,-2.54656 1.99354,0.83298 2.57741,1.46479 2.27454,2.46118 -10.38725,34.17182 -17.0998,54.2364 -18.0267,53.88394 -0.12709,-0.0487 -0.91258,-0.25988 -1.74556,-0.47003 z"
           id="path6123" />
        <path
           style="fill:#274b99;fill-opacity:1;stroke:none;stroke-width:0.757287"
           d="m 175.39915,411.25262 c -10.17657,-6.34116 -17.94094,-11.42708 -25.26448,-16.54918 -1.16266,-0.81321 2.51428,-6.05416 3.94918,-5.62891 10.09583,2.99173 24.00311,4.23288 30.47473,2.71964 7.06741,-1.65262 12.10915,-4.49793 17.35557,-9.79476 5.61828,-5.6722 8.51145,-10.60033 10.28307,-17.51577 1.47467,-5.75593 1.05414,-9.89796 -1.52065,-14.9791 -4.99553,-9.85827 -16.36974,-14.12852 -25.81137,-9.6905 -2.22077,1.04387 -7.86862,5.50301 -13.65856,10.78389 -18.1821,16.5834 -23.15546,20.23653 -31.27251,22.97099 -5.50631,1.85491 -10.33325,1.9722 -16.37745,0.39792 -10.67836,-2.78135 -21.18791,-11.27527 -26.157752,-21.14081 -2.642573,-5.24567 -2.650512,-5.29241 -2.650512,-15.59398 v -10.3325 l 3.017943,-5.98862 c 4.328591,-8.58964 12.102181,-16.21905 21.404511,-21.0075 3.85264,-1.9832 7.00487,-4.06714 7.00487,-4.63094 0,-0.56381 -0.84863,-2.84801 -1.88584,-5.07597 -2.24586,-4.82439 -2.32787,-6.00607 -0.56763,-8.17988 l 1.33305,-1.64618 13.73016,8.30706 c 7.55159,4.56885 15.80368,9.62534 18.33803,11.2367 l 4.60787,2.92971 -1.53144,2.51833 c -1.38427,2.27626 -1.80091,2.4829 -4.33608,2.15044 -14.66881,-1.92389 -20.45672,-2.22646 -25.67356,-1.34218 -11.18495,1.89595 -20.6459,8.44194 -24.96746,17.27491 -1.75927,3.59575 -2.1222,5.31877 -2.11172,10.02595 0.0105,4.82402 0.34287,6.28604 2.1947,9.66302 3.81078,6.949 10.63238,10.59583 18.33339,9.80098 5.22943,-0.53969 8.64738,-2.57697 17.62579,-10.50573 3.92582,-3.46686 10.74135,-9.47361 15.14566,-13.34835 5.12615,-4.50984 10.00035,-8.03414 13.5448,-9.79356 13.23211,-6.56861 29.35904,-2.95249 41.90242,9.39565 9.30532,9.1604 12.55821,22.2222 8.99945,36.13675 -4.0589,15.87004 -15.52724,28.51678 -31.2591,34.47088 -2.66385,1.00815 -2.68684,2.82846 -0.12201,9.63358 1.91206,5.07327 1.92786,5.26268 0.63803,7.66304 -0.72738,1.35364 -1.52448,2.45886 -1.77125,2.45601 -0.24678,0 -6.07154,-3.5088 -12.94385,-7.79103 z"
           id="path6125" />
        <path
           style="fill:#274b99;fill-opacity:1;stroke:none;stroke-width:0.757287"
           d="m 239.36673,304.71412 c -20.67909,-2.91713 -43.26423,-20.10471 -53.75536,-40.90842 -12.99117,-25.76149 -7.65712,-53.95629 13.47185,-71.20948 15.59016,-12.73039 38.69784,-15.73501 58.28893,-7.57923 20.80805,8.66235 39.77887,30.75888 44.16221,51.43841 1.38083,6.51424 1.35754,19.50137 -0.0472,26.21438 -2.9283,13.99543 -14.73592,29.07908 -28.41095,36.29335 -9.44418,4.98235 -22.89341,7.27681 -33.70965,5.75099 z m 34.1006,-16.71994 c 14.53587,-6.95813 18.29204,-24.67125 8.75672,-41.2939 -7.77591,-13.55543 -29.88794,-36.74872 -43.41596,-45.53892 -7.25884,-4.71654 -12.27781,-6.27203 -20.17302,-6.2518 -4.77377,0.012 -7.36159,0.4042 -9.71245,1.47137 -4.41532,2.00432 -10.55958,7.9442 -12.93695,12.50676 -1.70992,3.28157 -1.97999,4.7334 -1.97474,10.61695 0.007,5.76289 0.34211,7.63421 2.18212,12.11648 4.32582,10.53756 12.14607,21.21585 25.00296,34.14067 13.18904,13.25877 23.00163,20.34453 32.58196,23.52784 4.79324,1.5927 15.06822,0.91663 19.68936,-1.29545 z"
           id="path6127" />
        <path
           style="fill:#274b99;fill-opacity:1;stroke:none;stroke-width:0.757287"
           d="m 390.46272,207.81648 c -8.72571,-2.65426 -15.37109,-11.84522 -14.1235,-19.53358 0.79261,-4.88408 6.09003,-10.05022 10.30569,-10.05022 2.40411,0 8.68025,3.81474 9.83932,5.98046 0.45281,0.84609 1.31095,4.33174 1.90703,7.74588 1.34601,7.71052 2.27192,8.8233 6.32955,7.60754 8.85191,-2.65208 12.26837,-11.81563 9.97391,-26.75211 -1.55698,-10.13598 -6.84437,-26.38768 -8.58499,-26.38768 -0.50015,0 -1.5832,1.26489 -2.40681,2.81078 -2.25364,4.23026 -9.34284,11.0455 -13.614,13.08794 -2.98536,1.42756 -5.07626,1.81979 -9.88395,1.85401 -5.56698,0.0397 -6.59872,-0.20423 -11.85758,-2.80329 -6.6787,-3.30082 -11.77818,-8.38076 -15.58746,-15.5277 -6.62845,-12.43628 -7.28318,-29.29163 -1.57323,-40.5022 2.38568,-4.68396 9.11599,-10.779765 15.1879,-13.755992 14.63975,-7.175928 28.03498,-4.663672 40.42371,7.581481 11.55522,11.421311 21.70603,32.160011 24.99719,51.070991 1.80458,10.36882 1.1819,23.99959 -1.47153,32.21431 -4.33848,13.4317 -13.38931,22.63232 -24.86867,25.28029 -3.77685,0.87117 -12.24178,0.91581 -14.99258,0.0791 z m 3.68847,-59.65141 c 7.33359,-5.35458 6.67437,-20.86887 -1.56169,-36.75321 -3.41129,-6.57925 -7.8001,-11.538751 -11.62525,-13.136996 -5.91501,-2.471439 -12.15581,-0.386305 -14.97049,5.001896 -2.90777,5.56622 -0.32661,18.54991 6.32011,31.79078 5.44977,10.85639 10.59965,15.49377 16.53638,14.89065 1.81768,-0.18462 4.20314,-0.99153 5.30094,-1.79312 z"
           id="path6129" />
        <path
           style="fill:#274b99;fill-opacity:1;stroke:none;stroke-width:0.757287"
           d="m 489.67176,178.53323 c -18.44341,-4.93456 -33.88011,-30.38861 -37.82929,-62.37794 -1.99878,-16.19066 0.54246,-33.633406 6.34175,-43.529197 2.58693,-4.414274 8.87012,-10.041162 13.66193,-12.234892 12.44377,-5.69699 24.61748,-2.870551 34.72799,8.062827 19.79346,21.404433 27.88999,68.152142 16.06259,92.742212 -4.54301,9.44537 -11.02235,14.92247 -20.60583,17.4187 -5.26305,1.37087 -6.97229,1.35956 -12.35914,-0.0817 z m 12.14127,-9.02215 c 4.94086,-2.55502 5.78784,-7.46375 4.56466,-26.45665 -2.05337,-31.88463 -11.00437,-66.447852 -19.37644,-74.819993 -1.56245,-1.562371 -2.81992,-2.079666 -5.05544,-2.079666 -4.12736,0 -5.81188,1.111058 -7.51221,4.954936 -3.0258,6.840401 -2.6574,19.266798 1.278,43.101183 4.89008,29.61592 10.9342,48.42669 17.37819,54.08458 2.97922,2.61576 5.37105,2.94912 8.72324,1.21561 z"
           id="path6131" />
        <path
           style="fill:#274b99;fill-opacity:1;stroke:none;stroke-width:0.757287"
           d="m 583.05559,171.52529 c -7.6062,-2.62834 -12.27803,-6.88376 -18.01285,-16.40733 -3.46858,-5.7602 -6.8714,-16.37445 -8.02328,-25.027 -1.28623,-9.6613 -0.4955,-31.275134 1.47018,-40.188087 4.04924,-18.360352 12.55656,-31.81782 23.5169,-37.200552 3.78381,-1.858279 5.03867,-2.071877 12.17026,-2.071877 7.16372,0 8.37656,0.20873 12.24186,2.106928 5.4762,2.689231 12.34753,9.968289 15.53945,16.461555 5.18059,10.53861 7.80497,24.028956 7.80886,40.140833 0.007,27.16785 -8.05376,48.98443 -21.52142,58.25036 -7.3007,5.02301 -17.45233,6.6089 -25.18996,3.93517 z m 13.56456,-8.97212 c 5.08346,-4.60046 8.34353,-20.83007 9.698,-48.27892 0.8129,-16.47549 0.12792,-34.675193 -1.61368,-42.874403 -1.81154,-8.528445 -5.68096,-13.564866 -10.42739,-13.572355 -2.71252,-0.0075 -7.18297,4.98392 -9.11179,10.167208 -3.63096,9.757312 -5.72426,34.74746 -5.18269,61.86986 0.37716,18.88708 1.00455,23.45653 4.12226,30.02672 2.15066,4.53215 8.86959,5.96129 12.51529,2.66189 z"
           id="path6133" />
        <path
           style="fill:#274b99;fill-opacity:1;stroke:none;stroke-width:0.757287"
           d="m 687.32269,186.62736 c -12.28695,-3.62593 -24.67088,-7.37687 -27.51993,-8.33544 l -5.18015,-1.74287 0.50606,-2.75528 c 0.27824,-1.51542 0.80714,-3.06595 1.17525,-3.44559 0.40113,-0.4138 3.18428,-0.0307 6.94592,0.95677 3.45218,0.906 6.81367,1.64258 7.46989,1.63697 1.99968,-0.0172 4.32186,-3.17927 6.41403,-8.73411 2.19628,-5.83127 21.54815,-73.121232 21.54815,-74.926785 0,-1.806527 -3.35818,-3.531643 -11.99994,-6.164405 -7.87732,-2.399915 -8.06238,-2.507613 -7.82714,-4.555149 0.52561,-4.575671 1.19711,-4.977854 7.19121,-4.307025 6.9266,0.775231 19.08488,0.735912 29.37387,-0.09497 5.29255,-0.427422 8.19044,-0.387429 8.50245,0.117284 0.26026,0.421206 -3.62833,15.378883 -8.64138,33.23939 -17.78517,63.36557 -19.56758,69.99342 -19.1299,71.13392 0.61084,1.59188 3.30959,2.86852 11.05029,5.22762 3.64444,1.11076 6.62621,2.33274 6.62621,2.7156 0,1.66797 -2.51511,6.77786 -3.30067,6.70581 -0.47543,-0.0434 -10.91728,-3.0458 -23.20422,-6.67174 z"
           id="path6135" />
        <path
           style="fill:#274b99;fill-opacity:1;stroke:none;stroke-width:0.757287"
           d="m 768.65144,159.9965 c -5.12854,-1.48792 -9.20511,-8.49339 -8.40666,-14.44645 1.28781,-9.60168 12.97777,-15.95549 20.28955,-11.02811 9.22257,6.2151 7.33838,20.68859 -3.27026,25.12114 -3.09845,1.29462 -5.08712,1.37625 -8.61263,0.35342 z"
           id="path6137" />
        <path
           style="fill:#274b99;fill-opacity:1;stroke:none;stroke-width:0.757287"
           d="m 746.27159,210.78491 c -8.0856,-2.32157 -12.15798,-9.77251 -9.35401,-17.11448 4.50655,-11.80028 16.57053,-14.58463 23.37798,-5.39562 2.46035,3.3212 2.6046,10.62639 0.29515,14.94824 -2.98836,5.59222 -9.39512,8.97557 -14.31912,7.56186 z"
           id="path6139" />
        <path
           style="fill:#274b99;fill-opacity:1;stroke:none;stroke-width:0.757287"
           d="m 801.10452,239.18291 c -15.93138,-10.59965 -28.96607,-19.50175 -28.96607,-19.78237 0,-0.28063 0.9033,-1.69464 2.00747,-3.1422 2.67455,-3.50648 7.08388,-5.41523 32.90663,-14.2449 34.08054,-11.65334 36.6784,-12.92804 46.92305,-23.0235 10.87818,-10.71978 14.59616,-20.84827 10.55838,-28.76303 -4.59769,-9.01226 -19.99297,-12.23115 -26.0386,-5.4443 -1.95436,2.19396 -1.77791,4.93621 0.53295,8.28242 4.78815,6.93357 5.1958,11.11253 1.55024,15.89213 -2.91302,3.81917 -6.10232,5.48347 -10.50798,5.48347 -7.23681,0 -11.33743,-4.46048 -11.20442,-12.18771 0.15174,-8.81724 7.66439,-19.19857 17.82037,-24.62504 5.41943,-2.89564 5.61542,-2.93758 13.28311,-2.84479 8.83941,0.10703 12.23242,1.10282 19.65864,5.76949 5.67879,3.56864 10.05203,8.36165 12.87622,14.11257 1.91452,3.89847 2.09052,4.98991 2.09052,12.96556 0,8.09503 -0.15623,9.02687 -2.21665,13.22335 -2.99532,6.10067 -10.69993,13.67256 -17.47277,17.17185 -9.40254,4.85787 -13.64201,5.81248 -36.7282,8.26969 -16.02605,1.70571 -25.60983,3.30224 -26.7665,4.45891 -1.03729,1.03728 0.0142,2.1034 7.11354,7.21532 9.84345,7.08725 21.88526,14.02996 24.33453,14.02996 3.02476,0 7.16897,-2.25642 11.81317,-6.43193 4.15828,-3.73865 5.5776,-3.94678 8.07743,-1.18453 1.08522,1.19914 1.14438,1.71973 0.36361,3.19911 -0.7619,1.44344 -16.71912,22.90038 -21.71083,29.19353 l -1.33177,1.67898 z"
           id="path6141" />
        <path
           style="fill:#274b99;fill-opacity:1;stroke:none;stroke-width:0.757287"
           d="m 883.00338,307.05465 c -8.53294,-2.44283 -15.39559,-7.88114 -19.36237,-15.34354 -1.54297,-2.90275 -1.74773,-4.32739 -1.72519,-12.00249 0.03,-10.21574 1.30534,-15.69479 5.70913,-24.52835 10.63702,-21.33703 33.50661,-41.77233 54.8342,-48.99754 7.94322,-2.69088 18.78253,-2.59397 24.80306,0.22184 9.86674,4.61469 16.19973,13.67653 17.00574,24.33332 1.26212,16.68811 -11.4643,39.48012 -32.03756,57.37672 -11.99867,10.43765 -22.65749,16.3221 -34.17984,18.86986 -7.98089,1.76466 -9.11,1.7699 -15.04717,0.0704 z m 5.37801,-13.73099 c 8.94673,-4.29287 28.74026,-21.58942 43.74527,-38.22675 18.59133,-20.6137 23.5044,-30.46688 18.28471,-36.67008 -4.58241,-5.44586 -13.92443,-1.7162 -29.55271,11.79849 -9.13127,7.89633 -29.9755,28.87859 -35.61631,35.85223 -11.86911,14.67337 -15.04321,23.97862 -9.51698,27.89972 3.94626,2.80007 5.64074,2.71252 12.65602,-0.65361 z"
           id="path6143" />
        <path
           style="fill:#274b99;fill-opacity:1;stroke:none;stroke-width:0.757287"
           d="m 938.19333,387.05358 c -8.2058,-12.68336 -24.266,-38.6046 -24.83152,-40.07822 -0.31711,-0.82631 0.35073,-1.70415 2.13553,-2.80719 1.42831,-0.88278 2.94133,-1.60499 3.36231,-1.60499 0.42098,0 2.42546,2.53907 4.45434,5.64239 5.14038,7.86264 5.97036,8.12065 13.51694,4.20105 11.44161,-5.94271 47.39727,-27.99184 62.36078,-38.24158 5.32679,-3.64878 5.51339,-3.87968 5.13219,-6.35276 -0.2176,-1.41146 -2.2837,-5.73017 -4.5913,-9.59704 -2.30757,-3.86687 -4.19558,-7.22042 -4.19558,-7.45229 0,-0.23187 1.42906,-1.1506 3.17574,-2.04169 l 3.17584,-1.62019 2.2604,2.93001 c 4.1598,5.39202 13.6668,14.29531 19.8829,18.62009 5.4903,3.81984 9.3693,7.48367 9.3693,8.84959 0,0.26445 -2.4707,1.98934 -5.4903,3.83302 -12.0784,7.3744 -63.53892,39.48078 -70.99533,44.29417 -4.3733,2.82314 -9.42568,6.32962 -11.22749,7.79216 -3.94948,3.20593 -3.89023,3.91533 1.04216,12.48017 1.85333,3.21829 3.3698,6.17234 3.3698,6.56442 0,0.65367 -4.57245,3.86559 -5.50302,3.86559 -0.22101,0 -3.10265,-4.17453 -6.40369,-9.27671 z"
           id="path6145" />
        <path
           style="fill:#274b99;fill-opacity:1;stroke:none;stroke-width:0.757287"
           d="m 987.39675,470.93384 c -6.17429,-1.73298 -9.49091,-3.73888 -14.69472,-8.88742 -5.02084,-4.96759 -9.01391,-11.54062 -10.92971,-17.99194 -1.55361,-5.23145 -1.54589,-14.09827 0.0165,-19.06024 3.92401,-12.46198 16.68107,-20.37494 27.84789,-17.27349 5.86468,1.62873 9.6989,8.09885 8.14169,13.73855 -0.95243,3.44948 -5.82453,7.94262 -9.32464,8.59922 -3.21911,0.60395 -4.7379,0.17765 -11.3492,-3.18518 -4.88101,-2.48275 -5.2608,-2.56154 -6.58126,-1.3666 -2.27514,2.05907 -3.04865,7.44772 -1.77238,12.34761 1.51766,5.82685 3.60399,8.87737 7.73052,11.30313 3.18354,1.87146 4.20218,2.06798 10.34673,1.99563 14.12323,-0.16619 34.16983,-9.32187 40.12993,-18.32814 2.9972,-4.52909 3.2653,-9.10896 0.8251,-14.09647 -2.723,-5.56555 -9.0629,-11.33743 -11.7588,-10.70518 -5.8579,1.37394 -7.2322,1.32721 -9.3176,-0.31665 -2.5498,-2.01001 -2.6723,-4.49988 -0.3298,-6.70065 1.4299,-1.3433 2.6629,-1.64662 6.6944,-1.64662 6.1428,0 11.8925,-1.46 36.0937,-9.16513 10.5445,-3.35714 19.6203,-5.93178 20.1685,-5.72148 0.5481,0.21038 1.5693,3.04955 2.2692,6.30933 3.3698,15.69374 7.3585,26.57319 12.861,35.07917 1.9039,2.9432 3.4617,5.84528 3.4617,6.44915 0,1.56589 -3.0707,2.13075 -9.3322,1.71658 -7.2996,-0.48292 -12.3799,-2.78719 -17.0637,-7.73966 -4.4377,-4.69213 -7.3289,-10.20308 -10.6952,-20.38609 l -2.4688,-7.46794 -2.3876,0.3875 c -4.0599,0.65885 -17.8779,5.16412 -17.8779,5.82895 0,0.34601 2.1838,3.37834 4.8528,6.73855 6.8029,8.56469 7.6424,11.11155 7.6424,23.18474 0,9.32952 -0.1154,10.08251 -2.2066,14.38841 -4.3441,8.94493 -14.4223,16.99712 -26.5702,21.22895 -5.2158,1.81702 -19.0921,2.23942 -24.4218,0.74341 z"
           id="path6147" />
        <path
           style="fill:#274b99;fill-opacity:1;stroke:none;stroke-width:0.0946605"
           d="m 748.23667,417.0609 v -25.51096 l 0.78092,7e-5 c 0.88008,0 11.30935,0.32235 15.35866,0.47468 13.60696,0.51175 17.19792,1.63105 20.35561,6.3449 1.48673,2.21942 2.18714,4.3766 2.28847,7.04808 0.14957,3.94394 -1.34345,7.69225 -4.18539,10.50731 -1.16528,1.15435 -2.25589,1.8758 -4.43487,2.93361 -1.08245,0.52553 -1.97901,1.02515 -2.18048,1.21516 -0.55339,0.52194 -0.49909,0.6739 0.6769,1.89378 1.75552,1.82098 3.82283,4.62443 7.55055,10.23903 1.96081,2.95339 6.5761,10.19455 6.5761,10.31767 0,0.0262 -2.41737,0.0472 -5.37195,0.0464 h -5.37195 l -1.93602,-3.3358 c -2.90522,-5.00579 -4.07552,-6.94233 -5.36251,-8.87348 -1.61502,-2.42336 -2.71364,-3.81414 -4.15394,-5.25871 -1.74032,-1.74541 -3.18533,-2.6592 -5.02129,-3.17529 -0.69015,-0.19405 -1.00673,-0.21547 -3.71259,-0.25157 l -2.95818,-0.0397 v 10.46806 10.46814 h -4.44902 -4.44902 z m 14.63742,-3.36096 c 9.53698,-0.40817 11.82515,-0.83073 13.13745,-2.42628 1.13502,-1.38 1.66917,-2.70338 1.7389,-4.30769 0.0758,-1.74407 -0.41252,-3.19118 -1.53519,-4.54976 -1.40779,-1.7037 -2.70788,-2.14999 -7.10598,-2.43946 -1.83573,-0.12081 -10.21649,-0.47513 -11.24089,-0.47528 l -0.73367,-8e-5 v 7.19421 7.1942 h 0.65136 c 0.35822,0 2.64782,-0.0855 5.08802,-0.18986 z"
           id="path6149" />
        <path
           style="fill:#3e187c;fill-opacity:1;stroke:none;stroke-width:0.0946605"
           d="m 766.08017,463.3412 c -2.26398,-0.17383 -3.14227,-0.26663 -4.49643,-0.47528 -0.85904,-0.13234 -1.83873,-0.30363 -2.17718,-0.38062 -3.41983,-0.7783 -6.55498,-1.80982 -9.62595,-3.16705 -14.77149,-6.52825 -24.71034,-19.58121 -26.95028,-35.39448 -0.40466,-2.85707 -0.47813,-3.97015 -0.47768,-7.24146 6e-4,-4.71587 0.3881,-8.02201 1.42906,-12.19333 3.24068,-12.98593 11.5001,-23.2153 23.65037,-29.29118 5.33195,-2.66631 10.64159,-4.27722 16.51817,-5.01155 1.95931,-0.24483 7.48741,-0.24424 9.46605,0 5.95807,0.7386 11.22734,2.36156 16.9226,5.21219 7.62769,3.81789 12.23647,7.81703 16.64879,14.4466 3.77296,5.6689 6.31607,12.15917 7.4553,19.02669 1.20235,7.24827 0.82009,14.38803 -1.13691,21.23487 -1.72189,6.02413 -5.76581,13.33696 -10.33976,18.69775 -1.36211,1.59645 -2.91968,3.05944 -4.58968,4.31107 -7.53018,5.64374 -16.55083,9.14505 -25.88109,10.04573 -1.45243,0.1402 -5.46317,0.25217 -6.41538,0.179 z m 7.33613,-9.12671 c 3.71828,-0.25246 5.8297,-0.69112 8.5575,-1.77799 1.40907,-0.56141 4.35339,-1.982 5.65288,-2.7275 6.01566,-3.45098 10.96319,-8.50748 14.43252,-14.75067 1.80166,-3.24195 3.31332,-7.25854 4.15311,-11.03456 1.29807,-5.83712 0.96509,-11.86581 -0.99699,-18.04789 -0.74737,-2.35498 -2.31806,-5.86341 -3.59995,-8.04148 -3.03067,-5.14929 -7.23494,-9.68519 -11.87015,-12.80641 -2.06709,-1.39199 -3.27431,-2.07308 -5.71609,-3.22518 -3.09733,-1.46141 -4.78395,-2.01121 -7.1104,-2.31791 -2.90148,-0.38256 -13.56336,-0.38278 -16.47091,-3.7e-4 -1.53908,0.20236 -3.05749,0.59758 -4.5365,1.18071 -1.39049,0.54823 -5.02047,2.31925 -6.33577,3.09104 -6.66605,3.91173 -11.57882,9.3606 -15.34795,17.02304 -2.17583,4.42318 -2.9921,6.91604 -3.33235,10.17604 -0.16986,1.62783 -0.16978,9.82457 1.5e-4,11.4539 0.26123,2.50514 0.7977,4.49531 1.91745,7.11324 5.24095,12.25272 12.87666,19.86535 23.13861,23.06873 3.24322,1.01243 5.8652,1.45707 10.3653,1.758 0.88263,0.0592 5.55095,-0.0292 7.09954,-0.13474 z"
           id="path6151" />
        <path
           style="fill:#3e187c;fill-opacity:1;stroke:none;stroke-width:0.757287"
           d="m 487.7785,755.44807 c -9.31723,-0.65563 -22.34315,-3.98798 -29.53406,-7.55542 -13.1907,-6.5439 -26.97515,-21.60283 -32.61447,-35.62987 -3.26068,-8.11053 -3.01802,-9.25829 0.70363,-3.32831 12.10428,19.28673 26.08151,29.05662 44.5393,31.13239 15.51234,1.74459 31.08056,-3.08819 49.84744,-15.47385 7.51759,-4.96145 18.93209,-14.29501 18.93209,-15.48066 0,-0.72595 -1.58244,-0.98232 -14.3884,-2.33094 -37.69628,-3.97007 -79.29231,-17.44626 -109.59921,-35.50794 -24.73925,-14.74355 -45.26884,-35.90825 -53.69805,-55.35929 -7.03273,-16.22863 -7.44368,-36.74482 -1.11009,-55.42497 l 2.24069,-6.60845 -6.95087,-3.91083 c -15.09241,-8.49168 -29.61398,-19.38326 -35.62694,-26.72126 -5.70935,-6.96757 -7.59407,-14.60515 -5.43591,-22.02883 3.34366,-11.50183 18.42394,-19.82633 43.8666,-24.21477 11.30725,-1.95032 11.46423,-1.50537 1.16041,3.28824 -20.90998,9.72773 -24.33041,14.39073 -19.64756,26.78439 3.55883,9.41894 11.35623,16.98507 25.69393,24.93189 l 7.11669,3.94453 3.05232,-3.73895 c 4.72261,-5.78484 19.23077,-20.02967 25.12219,-24.66616 13.58097,-10.68817 27.09595,-18.67835 47.43861,-28.04629 27.80378,-12.80386 66.2171,-22.2204 101.74129,-24.94057 11.06017,-0.8469 45.04573,-0.55848 64.56328,0.54786 9.52341,0.53983 9.46058,0.5805 6.91237,-4.47479 -4.55919,-9.04484 -13.90608,-18.9512 -21.9018,-23.21291 -10.5452,-5.62052 -26.48512,-7.06793 -42.31359,-3.8423 -4.30096,0.87648 -7.95349,1.45999 -8.11676,1.29672 -0.61967,-0.61968 13.64216,-6.72387 19.24134,-8.23546 8.95055,-2.41647 27.16478,-2.39745 34.98944,0.0367 7.61571,2.36898 11.65327,4.50961 17.87849,9.47908 8.39558,6.70192 16.21462,16.34839 22.56956,27.84422 1.53226,2.77177 3.20069,5.35412 3.70765,5.73856 1.23418,0.93588 5.7202,2.50551 17.96064,6.28408 31.84298,9.83004 56.14103,22.66558 75.51905,39.89346 5.70036,5.06787 14.28707,14.41341 13.74296,14.95752 -0.1727,0.17263 -2.86246,-1.73515 -5.97724,-4.23947 -16.17067,-13.00166 -43.00554,-25.23078 -70.41096,-32.08744 -12.03005,-3.00985 -24.03861,-5.36318 -24.58407,-4.81773 -0.21203,0.21203 0.0984,2.91766 0.68985,6.01245 2.81431,14.7252 2.06821,46.51943 -1.49347,63.64133 -2.91017,13.99041 -5.1734,22.00419 -11.49546,40.70463 -4.35802,12.89074 -5.495,17.07427 -4.76343,17.52641 1.90854,1.17951 23.41587,3.26479 56.03499,5.43298 22.6333,1.50441 74.5055,1.3105 85.95708,-0.32129 27.65339,-3.9405 40.60061,-12.28111 40.49261,-26.08548 -0.027,-3.39474 -2.4832,-7.91229 -7.14208,-13.13355 -2.38127,-2.66872 -3.9867,-4.96655 -3.56774,-5.10623 2.357,-0.78564 17.23514,8.7407 22.73756,14.55872 5.27743,5.58015 7.24842,10.02011 7.24573,16.32225 -0.008,18.38919 -24.73851,28.9934 -73.40262,31.4742 l -10.60197,0.54044 -12.13753,11.82282 c -17.05682,16.61457 -26.39457,23.9623 -41.36648,32.55104 -18.74988,10.75595 -43.00546,19.51867 -70.34056,25.41173 -10.09635,2.17665 -32.25041,5.41906 -41.62186,6.09161 -12.50279,0.89731 -11.42731,0.38084 -21.92413,10.52977 -14.45903,13.97993 -25.19453,22.11915 -36.9838,28.0397 -12.85772,6.45717 -30.96118,10.54797 -42.94668,9.70451 z m 135.5537,-71.79126 c 39.77789,-3.74787 72.51017,-13.07019 97.31091,-27.71466 12.27624,-7.24888 31.80591,-22.08807 31.80591,-24.16691 0,-0.37792 -3.32253,-0.6906 -7.38346,-0.69487 -19.80259,-0.021 -60.09313,-2.52012 -91.82063,-5.69557 -26.27968,-2.63021 -23.46852,-3.08842 -26.86056,4.3781 -4.35885,9.59457 -15.76901,30.76308 -23.22504,43.08785 -3.69087,6.10089 -6.71069,11.51486 -6.71069,12.03095 0,1.04366 5.43546,0.79598 26.88356,-1.22489 z m -59.70773,-1.64401 c 6.34662,-8.08642 22.06118,-32.85189 29.41798,-46.36133 7.3556,-13.50727 8.3684,-17.43713 4.49404,-17.43713 -3.3158,0 -47.54601,-7.62335 -68.34335,-11.77938 -25.007,-4.99733 -61.93082,-14.25877 -84.57977,-21.21481 -29.90188,-9.18362 -33.27399,-10.09433 -33.87682,-9.14961 -0.97235,1.52365 -0.62222,15.28294 0.54396,21.37799 2.2302,11.65603 7.98756,20.97027 20.79359,33.63963 17.4232,17.23731 39.00087,29.76893 68.21438,39.61679 20.2635,6.83089 53.20615,13.92391 60.10767,12.94212 1.20467,-0.17143 2.6574,-0.90682 3.22832,-1.63427 z m 45.19298,-79.56178 c 3.92656,-4.33885 15.0635,-40.3706 19.82161,-64.13009 2.66452,-13.3049 4.05104,-38.88253 2.81813,-51.98717 -0.47386,-5.03657 -1.01669,-9.31251 -1.20625,-9.50207 -0.9015,-0.9015 -30.40351,-1.09413 -43.26834,-0.2825 -18.9694,1.19681 -29.83387,2.56925 -45.49555,5.74724 -36.89469,7.48637 -68.90476,20.98458 -93.08725,39.25348 -12.38363,9.35536 -27.52832,26.37046 -27.87224,31.31453 -0.14664,2.10753 -0.0726,2.14168 17.07757,7.87589 34.65406,11.58676 66.10086,20.48384 105.54053,29.85994 14.01737,3.33235 60.50999,13.00974 63.21967,13.15908 0.66431,0.0367 1.76773,-0.55212 2.45212,-1.30833 z"
           id="path8024" />
        <path
           style="fill:#3e187c;fill-opacity:1;stroke:none;stroke-width:0.53548"
           d="m 545.26959,849.01823 c -32.94566,-1.72332 -55.56301,-3.96259 -77.77727,-7.70026 -41.50129,-6.98285 -68.01022,-17.50768 -73.2696,-29.0901 -1.99032,-4.38296 -1.08784,-7.74812 3.331,-12.42033 14.48187,-15.31252 64.39492,-27.3285 130.04507,-31.30696 26.41494,-1.60072 79.90733,-1.18378 107.8621,0.84076 46.75333,3.38598 85.57579,11.31062 106.59767,21.75936 8.24534,4.09822 13.38834,8.39521 15.58559,13.02166 1.59674,3.36193 1.60019,5.18456 0.0165,8.58574 -8.204,17.61777 -67.44064,32.22711 -146.47149,36.12379 -9.55825,0.47124 -57.86204,0.60785 -65.91947,0.18634 z m 8.57517,-11.9986 c 2.21298,-0.28729 5.58645,-0.99759 7.49671,-1.57847 4.45291,-1.35394 5.56779,-1.33267 12.04084,0.2294 2.94514,0.71067 7.59548,1.46531 10.33407,1.67681 l 4.97928,0.38465 -0.1599,-3.67491 -0.15998,-3.67499 -2.6774,-0.40256 c -5.17287,-0.77763 -8.29994,-1.57503 -8.29994,-2.11644 0,-0.3007 1.33649,-2.02365 2.97009,-3.82875 4.44078,-4.9073 6.35546,-9.18302 6.5913,-14.71981 0.15391,-3.61223 -0.0389,-5.1072 -1.00216,-7.77718 -3.38051,-9.36809 -13.07184,-17.49989 -24.6377,-20.67294 -8.04822,-2.20804 -24.58228,-2.3722 -32.29535,-0.3207 -4.39562,1.16918 -10.56984,4.12204 -14.53512,6.95162 -11.31938,8.07736 -14.98823,20.36146 -9.37011,31.37377 2.58438,5.06586 8.52111,10.38029 15.25037,13.65167 10.25611,4.98602 19.82154,6.27158 33.475,4.49883 z m 95.74975,-0.24708 c 6.45237,-1.224 11.3596,-3.03487 15.91078,-5.87149 4.68164,-2.91803 9.81715,-7.46427 9.17134,-8.11915 -0.24588,-0.24932 -4.3423,-0.44764 -9.10319,-0.44083 l -8.65621,0.0127 -3.74839,1.8033 c -5.38019,2.58835 -8.36653,3.2463 -14.72566,3.24458 -9.39744,0 -16.18923,-2.33701 -21.1068,-7.25465 -3.84485,-3.84477 -5.13416,-6.83066 -5.12,-11.85675 0.0135,-4.83106 0.97894,-7.44202 3.97936,-10.76306 4.4822,-4.96131 11.45532,-7.92038 19.89651,-8.44322 7.34279,-0.45483 11.21566,0.29973 17.34434,3.37923 l 5.08712,2.55615 8.78743,0.17106 8.7875,0.17098 -0.92876,-1.50972 c -2.55764,-4.15784 -11.21356,-9.94987 -18.88469,-12.63663 -4.52437,-1.58469 -5.16142,-1.66362 -15.16461,-1.87909 -15.6503,-0.3371 -21.99849,1.02942 -30.58408,6.58343 -10.50341,6.79457 -15.05384,14.83366 -14.2124,25.10864 0.43865,5.35592 2.29985,8.80787 7.53684,13.97821 11.12571,10.98408 27.56359,15.21329 45.73357,11.7665 z M 489.84739,808.67391 V 780.0257 l -7.36287,-0.14897 -7.36279,-0.14896 v 28.57407 c 0,15.71568 0.16732,28.74131 0.37178,28.94584 0.20446,0.20446 3.51779,0.3049 7.36286,0.22311 l 6.99102,-0.14866 z"
           id="path8030" />
        <path
           style="fill:#3e187c;fill-opacity:1;stroke:none;stroke-width:0.26774"
           d="m 562.53888,819.6863 c -1.10447,-0.48838 -3.81535,-1.73979 -6.02421,-2.78105 -4.61491,-2.1753 -8.33409,-3.47375 -12.71766,-4.43996 -4.98294,-1.0984 -8.60012,-1.34098 -17.58205,-1.17929 l -8.07735,0.14545 -0.1957,-2.31589 c -0.46435,-5.49387 1.39768,-9.3719 6.72049,-13.9973 2.42763,-2.10955 7.7616,-4.77646 11.50408,-5.75196 2.4584,-0.64072 3.14818,-0.70019 8.43377,-0.727 5.2128,-0.0262 5.98107,0.0292 8.13555,0.59129 5.58458,1.45654 9.60221,3.75707 13.55371,7.7607 1.86517,1.88974 2.76802,3.04476 3.37684,4.31976 1.93707,4.05658 2.13082,9.23515 0.48059,12.84363 -1.15801,2.53218 -4.43861,6.45567 -5.37367,6.42661 -0.12447,-0.007 -1.13,-0.4066 -2.23439,-0.89499 z"
           id="path8036" />
        <path
           style="fill:#3e187c;fill-opacity:1;stroke:none;stroke-width:0.26774"
           d="m 540.31645,827.25236 c -2.73986,-0.13743 -3.79363,-0.3183 -5.81076,-0.997 -4.43022,-1.49062 -9.58498,-4.39592 -11.33413,-6.38804 -0.78812,-0.89768 -0.8213,-1.00628 -0.40136,-1.31342 0.85327,-0.62387 4.15611,-0.991 7.37207,-0.81942 3.41848,0.18237 9.31866,1.30436 14.42436,2.74301 5.41853,1.52679 12.22313,4.37271 12.00684,5.02166 -0.40369,1.2109 -8.86944,2.12386 -16.25702,1.75321 z"
           id="path8038" />
        <path
           style="fill:#274b99;fill-opacity:1;stroke:none;stroke-width:0.13387"
           d="m 134.95792,651.08735 c -0.82923,-0.13092 -2.47788,-0.59159 -4.02407,-1.12447 -4.42176,-1.5238 -8.67,-4.31856 -11.37099,-7.48045 -3.14092,-3.67686 -5.00676,-7.75725 -5.91373,-12.93238 -0.33815,-1.92973 -0.33418,-7.26977 0.007,-9.49908 0.66723,-4.35817 1.94695,-7.85117 3.98094,-10.86604 4.8497,-7.18866 14.25988,-11.90536 26.6916,-13.37876 2.75461,-0.32654 8.86809,-0.33702 11.51283,-0.0195 6.68957,0.80234 11.74995,2.48073 16.05847,5.32596 1.95303,1.28976 3.16534,2.3093 4.9676,4.17761 9.28345,9.62363 10.53217,24.54033 2.90238,34.66897 -2.25657,2.99563 -5.1194,5.39195 -8.73418,7.31074 -2.66032,1.41213 -4.55043,1.91467 -5.45051,1.44921 -0.98756,-0.51063 -1.52006,-1.55563 -2.18931,-4.29639 -0.79321,-3.24832 -0.6981,-3.40762 3.29947,-5.52518 2.47967,-1.31358 3.79886,-2.19374 5.03305,-3.35797 3.02378,-2.85257 4.26051,-6.15332 4.26051,-11.37151 0,-4.56788 -1.1828,-7.79328 -4.16907,-11.36866 -3.09568,-3.70652 -7.14395,-6.04877 -12.22208,-7.07153 -3.00357,-0.60492 -3.89758,-0.67015 -9.17808,-0.66918 -5.51694,0 -6.98802,0.12133 -10.72397,0.87716 -9.96769,2.01653 -15.91483,7.19166 -17.31768,15.06942 -0.70228,3.94357 -0.26078,8.04486 1.19734,11.12301 2.13052,4.49748 5.69564,7.31074 11.68382,9.21972 3.41825,1.08972 4.32777,1.59653 4.33975,2.41827 0.01,0.64476 -1.36435,5.70133 -1.71283,6.3046 -0.18057,0.31246 -0.51348,0.66394 -0.73981,0.78093 -0.43536,0.22513 -1.51743,0.34167 -2.18856,0.23577 z"
           id="path10450" />
        <path
           style="fill:#274b99;fill-opacity:1;stroke:none;stroke-width:0.13387"
           d="m 136.36354,697.14101 c -1.99541,-0.37769 -5.847,-1.74594 -7.87185,-2.79641 -4.40371,-2.28457 -7.34653,-5.73346 -8.86996,-10.39533 -0.90772,-2.77768 -1.41595,-6.55708 -1.2929,-9.61397 0.30871,-7.66761 4.34312,-13.43867 11.94363,-17.0849 4.78492,-2.29551 10.351,-3.60331 15.99743,-3.75865 5.39614,-0.14844 9.57727,0.62814 13.45395,2.49885 1.96785,0.94952 3.3868,1.98755 4.9067,3.58947 7.27464,7.66671 7.25794,21.45843 -0.0344,28.33748 -2.32869,2.1968 -7.56875,4.96557 -12.57386,6.64395 -1.54874,0.51932 -6.37179,1.65097 -6.52337,1.53061 -0.0187,-0.015 -0.79081,-4.23879 -1.71509,-9.38606 -2.28472,-12.72305 -3.39144,-18.01329 -4.47336,-21.38278 -0.44832,-1.39626 -0.74587,-1.8314 -1.25231,-1.8314 -1.35693,0 -4.37885,1.31897 -6.25008,2.72803 -3.76831,2.83752 -5.75818,6.49986 -5.75039,10.5831 0.008,4.18802 2.26488,7.61196 6.28955,9.54229 5.24852,2.51727 5.53919,2.71462 5.67752,3.85444 0.0449,0.36765 0.23157,1.60229 0.41551,2.74353 0.42915,2.66309 0.43289,3.34927 0.021,3.82837 -0.25748,0.29943 -0.43858,0.36886 -1.03743,0.39777 -0.39904,0.0195 -0.87612,0.007 -1.06021,-0.0285 z m 18.3796,-12.60719 c 3.34755,-1.63884 5.35832,-3.45488 6.62298,-5.98159 1.27508,-2.54753 1.49437,-5.67355 0.58343,-8.31634 -1.2541,-3.63845 -4.1078,-6.1504 -8.75043,-7.70266 -2.60033,-0.86945 -4.92543,-0.87597 -5.14172,-0.0142 -0.13347,0.5319 0.0539,3.76816 0.34376,5.92616 0.9048,6.74424 2.72069,14.97056 3.63103,16.44912 0.25734,0.41799 0.31778,0.4463 0.81133,0.38009 0.29336,-0.0389 1.14813,-0.37252 1.89962,-0.7404 z"
           id="path10452" />
        <path
           style="fill:#274b99;fill-opacity:1;stroke:none;stroke-width:0.13387"
           d="m 138.58903,758.12711 c -0.69173,-0.54411 -2.11989,-4.07777 -2.8361,-7.0173 -0.96412,-3.95712 0.29104,-7.20132 3.61006,-9.33086 2.66017,-1.70677 6.65968,-3.25708 19.98526,-7.7467 9.07232,-3.05659 12.38767,-4.3426 13.66043,-5.29878 0.71546,-0.53751 0.75486,-0.71741 0.44397,-2.02754 -0.15211,-0.64094 -0.30931,-1.44703 -0.34938,-1.7914 -0.11759,-1.01159 -0.49925,-1.43437 -1.92846,-2.13673 -1.68325,-0.82721 -1.79312,-0.97355 -1.69246,-2.25485 0.25614,-3.25977 0.25636,-3.24105 -0.0517,-4.15244 -0.58492,-1.73178 -2.33932,-3.88986 -3.64143,-4.47928 -0.39088,-0.17698 -1.21472,-0.39409 -1.83072,-0.48247 -1.61098,-0.23112 -6.75937,-0.0882 -9.38883,0.26056 -5.4052,0.71711 -8.75373,1.27889 -14.12328,2.36965 -8.34496,1.69516 -13.52315,2.51885 -13.73009,2.18407 -0.44667,-0.72273 -1.48058,-7.0695 -1.24968,-7.6712 0.0434,-0.11257 0.37739,-0.25704 0.76774,-0.33186 0.38016,-0.0726 8.37199,-1.70032 17.75962,-3.61672 22.30527,-4.55335 30.34195,-6.12861 30.49354,-5.97709 0.11983,0.11983 0.67562,2.66721 0.97168,4.45359 0.44907,2.70938 0.30542,3.02506 -1.43805,3.15949 -0.95954,0.0742 -1.36817,0.20858 -1.81409,0.59751 -0.55714,0.48599 0.021,1.50156 0.8553,1.50156 1.88996,0 5.02743,3.78958 5.70792,6.8944 0.0807,0.3681 0.18267,1.24152 0.2267,1.94103 0.19383,3.08048 1.1891,7.02255 2.17149,8.6011 0.23832,0.38286 0.39941,0.50171 0.67892,0.50051 0.46,0 3.12871,-0.76676 7.51175,-2.15291 1.86824,-0.59084 3.46919,-1.0465 3.55764,-1.01257 0.0884,0.0337 1.17741,0.83567 2.41991,1.78166 2.38696,1.81731 4.67835,3.92252 4.59327,4.21992 -0.10538,0.36841 -2.91167,1.59001 -5.80169,2.52559 -7.51543,2.43295 -8.42262,2.77701 -9.17539,3.48019 -0.54957,0.5134 -0.52276,1.12244 0.13916,3.15702 1.03968,3.1956 0.6518,4.16937 -2.01466,5.05762 -0.55579,0.18521 -1.4337,0.4066 -1.95085,0.49198 -1.6992,0.28063 -1.99384,-0.0697 -3.27678,-3.89226 -0.45715,-1.3621 -0.84952,-2.49922 -0.87199,-2.52686 -0.0292,-0.0367 -31.3707,10.40657 -31.45668,10.48139 -0.007,0.007 0.0457,1.33747 0.11624,2.95893 0.15817,3.62728 0.0704,4.22554 -0.74715,5.11296 -0.39791,0.43162 -0.95962,0.79515 -2.02851,1.3126 -2.48245,1.2019 -3.55928,1.41775 -4.2728,0.85649 z"
           id="path10454" />
        <path
           style="fill:#274b99;fill-opacity:1;stroke:none;stroke-width:0.13387"
           d="m 143.37538,771.30769 c -0.26483,-0.41401 -0.63256,-1.09173 -0.81718,-1.50605 -0.62686,-1.40689 -2.05907,-5.1343 -1.99668,-5.19662 0.0344,-0.0344 10.50423,-4.12375 23.26691,-9.08805 l 23.20496,-9.02605 0.44682,0.50217 c 0.52232,0.58695 1.40809,2.37445 2.08214,4.20143 0.90712,2.45885 0.94464,3.01876 0.22723,3.38971 -0.21217,0.10972 -3.0276,1.21913 -6.25645,2.46523 -3.22884,1.24616 -10.17792,3.93517 -15.44239,5.97559 -10.74367,4.16405 -16.79656,6.47507 -20.54907,7.84564 -1.39895,0.511 -2.68189,0.9877 -2.851,1.05938 -0.60477,0.25643 -0.81747,0.1557 -1.31529,-0.62238 z"
           id="path10456" />
        <path
           style="fill:#274b99;fill-opacity:1;stroke:none;stroke-width:0.13387"
           d="m 198.78447,750.45149 c -0.85282,-0.71764 -2.16175,-3.84081 -2.28046,-5.44153 -0.13399,-1.80555 0.41679,-2.23597 5.6567,-4.42071 1.54619,-0.64462 2.85325,-1.13165 2.90455,-1.08215 0.14514,0.13975 2.22152,5.18501 2.4486,5.94953 0.40023,1.3478 0.20206,2.02215 -0.77037,2.62063 -0.32459,0.19982 -5.13041,1.93445 -7.3386,2.64887 -0.11676,0.0374 -0.39596,-0.0858 -0.62042,-0.27464 z"
           id="path10458" />
        <path
           style="fill:#274b99;fill-opacity:1;stroke:none;stroke-width:0.13387"
           d="m 151.08927,791.88117 c 0,-0.37267 -0.54164,-1.84262 -1.7702,-4.80447 -0.59818,-1.44209 -1.02179,-2.63658 -0.95685,-2.69822 0.0644,-0.0607 5.20223,-2.25904 11.41802,-4.88491 18.41098,-7.77763 25.16165,-10.91151 26.9538,-12.51275 l 0.42053,-0.37582 -0.22243,-1.02508 c -0.12231,-0.56373 -0.43574,-1.49751 -0.69652,-2.07494 -0.54224,-1.20094 -0.54591,-1.22528 -0.26677,-1.76496 0.27583,-0.53348 1.15726,-1.07788 3.81646,-2.35715 l 2.21643,-1.06628 1.18805,2.72953 c 0.65337,1.50126 1.26077,2.82906 1.34974,2.95076 0.15001,0.20514 0.23794,0.20327 1.21404,-0.0262 0.57878,-0.13616 2.43137,-0.6915 4.11687,-1.23411 4.14151,-1.33319 5.2772,-1.56477 7.71194,-1.57256 1.46321,-0.007 2.17187,0.0539 2.87827,0.23794 4.14593,1.08043 6.95873,4.4166 8.70482,10.32441 0.20207,0.68379 0.38735,1.7061 0.42855,2.36457 0.0651,1.03811 0.0412,1.21059 -0.22476,1.64108 -0.52029,0.84182 -1.96493,1.45595 -4.3936,1.86779 -1.91153,0.32407 -2.56574,-0.0502 -3.44387,-1.96867 -1.75523,-3.83541 -2.29334,-4.61574 -3.57733,-5.18733 -0.94262,-0.41971 -2.64235,-0.42338 -4.21318,-0.009 -1.14768,0.30265 -5.24695,1.66251 -5.58106,1.85139 -0.1578,0.0893 0,0.57736 0.87664,2.65291 1.83776,4.36821 2.00163,5.06435 1.369,5.81622 -0.62342,0.74078 -3.89264,2.14902 -4.98917,2.14902 -1.02912,0 -1.41737,-0.48772 -2.38688,-2.99847 -0.77006,-1.99444 -1.65756,-3.5682 -2.11015,-3.74188 -0.11331,-0.0434 -0.73291,0.1062 -1.37686,0.33269 -1.81993,0.64004 -10.66435,4.22374 -17.97142,7.2819 -17.42717,7.29366 -20.03851,8.36285 -20.42586,8.36285 -0.0307,0 -0.0562,-0.11691 -0.0562,-0.25981 z"
           id="path10460" />
        <path
           style="fill:#274b99;fill-opacity:1;stroke:none;stroke-width:0.13387"
           d="m 162.49141,816.86354 c -0.27973,-0.34654 -2.01952,-3.96866 -2.35655,-4.90596 -0.1978,-0.5501 -0.39409,-1.36877 -0.43618,-1.81926 -0.095,-1.01736 -0.37485,-0.80616 4.10825,-3.09928 5.28342,-2.70248 39.91255,-19.58974 40.15214,-19.58068 0.0834,0 3.91345,7.51708 3.85833,7.56965 -0.0562,0.0539 -28.95858,14.15908 -38.45488,18.7674 -6.50158,3.15508 -6.72169,3.25334 -6.87111,3.06813 z"
           id="path10462" />
        <path
           style="fill:#274b99;fill-opacity:1;stroke:none;stroke-width:0.13387"
           d="m 190.5237,854.70848 c -1.87334,-0.26033 -4.16391,-0.83957 -5.58607,-1.41258 -5.37562,-2.16595 -9.69815,-7.41994 -11.27048,-13.69923 -0.54156,-2.1628 -0.68199,-3.3468 -0.67458,-5.68823 0.0105,-3.40237 0.60942,-6.16732 1.94179,-8.96935 1.19606,-2.51525 2.42388,-4.18711 4.60293,-6.26753 5.60173,-5.34828 14.54082,-9.53398 22.08792,-10.34261 10.141,-1.08657 19.36648,5.61064 21.77434,15.80698 0.39731,1.68242 0.49041,5.2772 0.18431,7.11766 -0.69831,4.19955 -2.57509,7.67083 -6.23885,11.53957 -2.39729,2.53136 -5.69062,5.03627 -9.56693,7.27644 l -1.61157,0.93138 -3.87204,-7.17413 c -7.13272,-13.21533 -10.25214,-18.62877 -12.08368,-20.96937 -0.70146,-0.89648 -0.9215,-0.91663 -1.98388,-0.18184 -2.10004,1.4525 -4.74972,4.57327 -6.01364,7.08283 -2.53592,5.03492 -1.62304,9.46066 2.80861,13.6164 2.45002,2.29738 3.13111,2.54947 7.50015,2.77588 4.32118,0.22386 4.43127,0.28288 5.6364,3.02101 0.78249,1.77815 1.25792,3.21155 1.25792,3.79303 0,0.71711 -0.5152,1.23066 -1.58296,1.57787 -0.76056,0.24738 -1.2625,0.29651 -3.37025,0.32991 -1.68505,0.027 -2.9441,-0.0255 -3.93944,-0.16409 z m 20.60583,-17.03412 c 0.67592,-0.4603 1.77425,-1.88367 2.82329,-3.65889 1.56754,-2.65254 1.98725,-3.97277 1.99197,-6.26507 0,-1.2568 -0.0539,-1.71163 -0.30714,-2.4766 -0.63196,-1.90883 -1.65831,-3.49487 -3.6001,-5.56345 -2.06431,-2.1992 -3.09471,-2.72354 -5.81442,-2.95916 -2.91302,-0.25231 -7.26019,0.18964 -8.03482,0.81695 -0.28273,0.22895 -0.28797,0.27209 -0.12298,1.0095 0.37687,1.684 2.28054,5.77533 4.83406,10.3895 2.68534,4.85218 4.58129,7.75658 5.54143,8.48897 1.05257,0.8028 1.74759,0.85919 2.68871,0.21825 z"
           id="path10464" />
        <path
           style="fill:#274b99;fill-opacity:1;stroke:none;stroke-width:0.13387"
           d="m 215.35859,790.68489 c -0.45663,-0.64132 -2.47047,-4.83578 -2.82539,-5.88475 l -0.33231,-0.98202 0.33471,-0.27186 c 0.76886,-0.62462 7.10028,-3.5861 8.48006,-3.96648 l 0.51475,-0.14193 0.64312,1.36488 c 0.50359,1.06859 1.59877,3.6126 2.50514,5.81884 0.0464,0.11391 -0.98179,0.68116 -3.11321,1.71695 -2.95241,1.43483 -5.74163,2.73147 -5.87561,2.73147 -0.0315,0 -0.18042,-0.1733 -0.33126,-0.3851 z"
           id="path10466" />
        <path
           style="fill:#274b99;fill-opacity:1;stroke:none;stroke-width:0.13387"
           d="m 212.3945,898.18952 c -0.74004,-0.47019 -1.3138,-1.11914 -2.20856,-2.49795 -1.49063,-2.29701 -1.69554,-3.0327 -0.9949,-3.57298 0.22214,-0.17129 0.58358,-0.45229 0.80324,-0.62447 0.82983,-0.65061 0.44165,-1.0647 -2.4119,-2.57278 -2.65275,-1.40202 -3.66338,-2.08116 -5.0684,-3.40604 -8.11555,-7.65256 -6.25323,-20.8446 4.24854,-30.09428 3.12609,-2.75334 5.52915,-4.37847 9.05293,-6.12209 6.50727,-3.21993 12.94444,-4.16015 18.27325,-2.66886 2.67694,0.74917 6.32752,3.04356 8.19396,5.14996 2.33835,2.63906 3.14714,5.23227 3.59928,11.54048 0.0908,1.26691 0.20873,2.37407 0.26213,2.46043 0.0644,0.10425 2.04836,-1.19172 5.90175,-3.85527 3.19267,-2.20676 6.70843,-4.61491 7.81283,-5.35157 2.1273,-1.4188 5.1158,-3.25454 5.29832,-3.25454 0.10635,0 4.70981,6.57558 4.64218,6.63085 -0.0187,0.015 -4.55223,3.1577 -10.07434,6.98307 -5.52219,3.82538 -14.1969,9.83858 -19.27728,13.36266 -17.16115,11.90401 -24.12595,16.64527 -26.31728,17.91548 -0.77411,0.44876 -0.99924,0.44584 -1.73575,-0.0217 z m 6.50195,-14.62417 c 4.50377,-1.17929 10.82171,-5.04616 15.17262,-9.28645 2.57599,-2.51046 3.88522,-4.55365 4.59492,-7.17069 0.44809,-1.65254 0.4469,-4.45089 0,-5.89029 -0.51879,-1.66145 -1.17606,-2.76412 -2.36194,-3.96236 -3.56947,-3.60661 -8.99159,-3.96146 -15.27104,-0.99946 -3.91008,1.84442 -8.14506,5.08023 -11.34447,8.66804 -2.38508,2.67463 -3.25461,4.07373 -3.58055,5.7614 -0.25689,1.33005 -0.0965,5.3396 0.26296,6.57385 0.89019,3.05674 2.61186,4.6475 6.5039,6.0093 2.15388,0.75374 3.94393,0.84182 6.02615,0.29666 z"
           id="path10468" />
        <path
           style="fill:#274b99;fill-opacity:1;stroke:none;stroke-width:0.13387"
           d="m 272.26961,969.97846 c -0.40705,-0.28512 -0.71209,-0.92599 -1.28114,-2.69163 -1.00403,-3.11545 -1.83132,-6.76408 -2.02844,-8.9462 -0.19023,-2.10633 -0.92794,-2.79237 -5.82154,-5.41382 -2.55502,-1.36862 -4.2158,-2.43249 -5.94616,-3.80897 -5.63715,-4.48393 -9.1777,-10.50386 -10.67701,-18.15365 -0.38122,-1.94463 -0.40803,-5.3542 -0.0584,-7.42405 1.36922,-8.10836 6.04712,-16.33386 13.29465,-23.3767 7.0862,-6.88609 12.30836,-9.87804 19.38453,-11.10624 2.98282,-0.51774 10.07217,-0.55773 12.97972,-0.0734 8.06132,1.3433 17.2952,10.06984 20.33973,19.22223 2.29596,6.90189 1.46741,14.83545 -2.38374,22.82488 -5.26732,10.92746 -15.1891,19.58847 -26.65183,23.26519 -0.80991,0.25973 -2.73769,0.81485 -4.28388,1.23351 -1.5462,0.41866 -2.85962,0.80691 -2.91871,0.8627 -0.0592,0.0554 0.28677,1.66146 0.76857,3.56827 0.89783,3.55306 1.41385,6.18935 1.41385,7.22334 0,0.43176 -0.0785,0.65817 -0.30115,0.86907 -0.71644,0.67832 -4.22599,2.13486 -5.14397,2.13486 -0.2121,0 -0.52029,-0.0943 -0.68491,-0.20962 z m 5.59334,-23.48507 c 0.72191,-0.1471 1.93617,-0.48405 2.69844,-0.7488 5.43629,-1.88793 9.12064,-4.22531 13.37029,-8.48216 5.48467,-5.49387 9.47594,-12.16022 10.66376,-17.81107 0.31553,-1.50074 0.31306,-4.40821 -0.007,-6.15804 -1.16296,-6.39493 -5.73076,-12.12959 -11.73617,-14.73427 -3.19889,-1.38749 -6.95746,-1.91857 -9.92058,-1.40187 -7.76572,1.35424 -17.64571,8.60319 -23.17883,17.00633 -2.89819,4.40147 -4.26471,8.67644 -4.27939,13.387 -0.0105,3.31572 0.53467,5.87022 1.83072,8.58139 1.28916,2.69657 2.93518,4.75452 5.25114,6.56517 2.31207,1.80765 3.80471,2.39302 4.01052,1.57293 0.16814,-0.66978 -0.47475,-2.62063 -2.14475,-6.50832 -0.21367,-0.49745 -0.21337,-0.4988 0.15436,-0.68776 1.95197,-1.00313 6.31674,-2.89684 6.67698,-2.89684 0.16964,0 1.17247,2.42853 1.90718,4.61852 0.96449,2.87504 1.62341,5.36303 1.62446,6.13362 0,0.7643 0.23015,1.52889 0.50651,1.68999 0.35231,0.20536 1.13271,0.16716 2.57053,-0.12582 z"
           id="path10470" />
        <path
           style="fill:#274b99;fill-opacity:1;stroke:none;stroke-width:0.189321"
           d="m 312.09476,993.92653 c -2.04948,-1.70617 -2.9405,-2.67598 -2.9405,-3.20076 0,-0.15526 0.32856,-0.67188 0.73007,-1.14806 1.19217,-1.41393 1.22782,-2.10677 0.1271,-2.47001 -0.34317,-0.11324 -1.93303,-0.28213 -3.53299,-0.37522 -2.18894,-0.1274 -3.32142,-0.28999 -4.57448,-0.6569 -6.99483,-2.04814 -11.68576,-7.9382 -11.6803,-14.66619 0,-2.76165 0.44383,-4.29032 1.98111,-6.85882 4.4649,-7.45963 18.33669,-27.22717 21.2682,-30.30758 0.54194,-0.5695 0.76475,-0.68318 1.15802,-0.59099 1.35476,0.3174 5.15999,2.77236 5.79173,3.73648 0.25149,0.38391 0.26565,0.548 0.0783,0.90734 -0.386,0.74026 -3.82238,5.64562 -8.13225,11.60863 -5.04975,6.98675 -6.90938,9.62385 -9.28428,13.16635 -3.30531,4.93022 -3.85691,6.26319 -3.74569,9.05271 0.0851,2.13501 0.80706,3.70622 2.35168,5.11798 1.97886,1.80847 4.52369,2.66287 7.93715,2.66474 3.31528,0 4.87383,-0.6703 7.61159,-3.28254 2.8167,-2.68744 4.92423,-5.37959 14.24761,-18.19986 3.25618,-4.47741 5.99671,-8.16955 6.09003,-8.20467 0.49213,-0.18529 7.07609,4.58368 6.84482,4.95793 -0.34009,0.55025 -21.28865,29.00808 -24.82763,33.7274 -2.9086,3.87863 -5.15752,6.72094 -5.31795,6.72094 -0.0773,0 -1.05885,-0.76452 -2.1813,-1.6989 z"
           id="path10472" />
        <path
           style="fill:#274b99;fill-opacity:1;stroke:none;stroke-width:0.189321"
           d="m 356.10568,1021.763 c -1.24436,-0.5062 -3.16541,-1.6684 -3.99201,-2.4152 -1.00943,-0.912 -1.20153,-1.6123 -0.92038,-3.3553 0.30295,-1.8778 0.17765,-2.32 -0.72161,-2.5459 -0.38945,-0.098 -2.19897,-0.2257 -4.02115,-0.2842 -3.75543,-0.1205 -5.77496,-0.4745 -8.44681,-1.4805 -8.58387,-3.2319 -13.27518,-10.9883 -11.03606,-18.24645 1.85843,-6.0242 7.00464,-10.38036 13.18575,-11.16143 2.17523,-0.27487 5.65138,0.75156 17.55711,5.18411 3.64189,1.35589 6.62733,2.44897 6.63437,2.42912 0.007,-0.0195 0.44337,-0.54733 0.96973,-1.17202 2.04559,-2.4277 2.65628,-3.96618 2.46769,-6.21601 -0.27508,-3.28112 -3.17597,-6.73787 -7.48224,-8.91587 -1.25276,-0.63361 -3.58542,-1.24437 -4.75265,-1.24437 -1.97496,0 -4.4327,1.03601 -6.55123,2.76151 -1.16101,0.94576 -1.47722,0.99879 -2.60056,0.4367 -0.79186,-0.39626 -5.42947,-3.77445 -5.43014,-3.95554 -2.2e-4,-0.0517 0.61616,-0.73741 1.36974,-1.52298 1.57234,-1.63921 2.99758,-2.6592 5.3754,-3.8471 4.7143,-2.35512 7.39207,-2.45211 13.38392,-0.48464 6.56981,2.15718 12.07177,6.31936 14.36878,10.86964 1.00194,1.98486 1.30436,3.09943 1.41393,5.2113 0.085,1.63862 0.0322,2.275 -0.29718,3.59711 -0.52479,2.10468 -2.67291,6.40421 -6.00496,12.01897 -6.92952,11.67685 -10.86185,18.89525 -11.51208,21.13215 -0.16282,0.5602 -0.34714,1.4292 -0.40967,1.9313 -0.1268,1.019 -0.61631,1.6485 -1.26961,1.6326 -0.23427,-0.01 -0.80939,-0.1663 -1.27808,-0.357 z m -4.26613,-15.5047 c 1.44344,-0.6755 3.44934,-2.4319 5.87554,-5.1448 2.52544,-2.82377 3.25528,-3.87102 2.95226,-4.23613 -0.7786,-0.93805 -14.06628,-5.32596 -18.20854,-6.01275 -1.04208,-0.17278 -1.42569,-0.15458 -2.3391,0.111 -3.51951,1.02313 -5.53327,6.30797 -3.82523,10.03888 1.28788,2.8131 5.39105,5.1143 10.43997,5.855 0.31239,0.046 1.33133,0.048 2.26428,0.01 1.35672,-0.064 1.92546,-0.1867 2.84082,-0.6151 z"
           id="path10474" />
        <path
           style="fill:#274b99;fill-opacity:1;stroke:none;stroke-width:0.189321"
           d="m 370.79659,1029.8025 c -2.09045,-0.9428 -3.63732,-1.8337 -4.38132,-2.5236 -0.37972,-0.352 -0.46689,-0.5706 -0.37447,-0.9388 0.28377,-1.1305 18.37742,-35.41182 27.55258,-52.20261 3.18017,-5.81981 4.09605,-7.41439 4.34807,-7.57017 0.32983,-0.20386 2.70024,0.47371 4.33833,1.2401 1.97773,0.92525 3.04947,1.64244 3.04947,2.0408 0,0.34878 -3.38844,6.85328 -10.37107,19.90827 -9.8695,18.45221 -22.08605,40.89761 -22.25695,40.89241 -0.0165,-6e-4 -0.8735,-0.3815 -1.90464,-0.8464 z"
           id="path10476" />
        <path
           style="fill:#274b99;fill-opacity:1;stroke:none;stroke-width:0.189321"
           d="m 388.47428,1037.97 c -1.37806,-0.4893 -5.29556,-2.5653 -5.29556,-2.8064 0,-0.2392 15.45565,-33.4531 19.56585,-42.04668 0.95079,-1.98777 1.52583,-2.98184 1.72505,-2.98184 0.89244,0 5.54862,2.0536 6.65331,2.93443 l 0.5292,0.42196 -0.73097,1.77694 c -1.77387,4.31264 -7.43446,16.42909 -13.6265,29.16769 -4.31107,8.8691 -6.93402,13.8614 -7.3171,13.9269 -0.14695,0.025 -0.82347,-0.1517 -1.50328,-0.393 z"
           id="path10478" />
        <path
           style="fill:#274b99;fill-opacity:1;stroke:none;stroke-width:0.189321"
           d="m 411.57687,983.76299 c -1.92636,-1.00164 -3.53719,-1.85116 -3.57966,-1.88794 -0.11496,-0.0994 2.13884,-4.82304 3.02589,-6.3419 0.42352,-0.72513 1.02567,-1.60963 1.33821,-1.9656 l 0.56815,-0.64709 1.24616,0.46906 c 1.35866,0.51138 4.2218,1.97587 4.96977,2.54207 l 0.46899,0.35492 -0.63885,1.576 c -1.20558,2.97428 -3.47345,7.72888 -3.6848,7.72528 -0.11631,0 -1.78751,-0.82316 -3.71386,-1.8248 z"
           id="path10480" />
        <path
           style="fill:#274b99;fill-opacity:1;stroke:none;stroke-width:0.189321"
           d="m 422.24736,1073.2504 c -1.61951,-0.4245 -3.16578,-1.1784 -3.78291,-1.8443 -0.5862,-0.6325 -0.59916,-1.9558 -0.0494,-5.0692 0.41724,-2.3646 0.75711,-3.3133 1.18693,-3.3133 0.13915,0 0.96756,0.3349 1.84105,0.744 3.90604,1.8301 6.42429,1.343 9.47369,-1.832 1.30061,-1.3543 2.53772,-3.0697 3.28112,-4.5498 0.70775,-1.4091 0.92629,-3.705 0.7789,-8.1826 -0.27157,-8.2473 -1.88854,-32.8428 -2.51151,-38.2011 -0.13046,-1.1226 -0.56605,-1.6129 -2.1249,-2.3917 -1.10537,-0.5523 -4.35428,-1.7093 -4.47119,-1.5924 -0.14522,0.1452 -7.37261,18.2282 -8.58335,21.4756 -1.34952,3.6195 -2.96484,8.582 -3.14264,9.6547 -0.11901,0.7179 -0.0808,0.8184 0.49842,1.3095 0.34504,0.2925 1.35155,0.869 2.23665,1.2811 2.26173,1.0529 2.4611,1.2679 2.4611,2.6529 0,1.1041 -0.81313,5.2039 -1.16199,5.8587 -0.23209,0.4356 -0.99646,0.4239 -2.95226,-0.045 -6.85785,-1.6441 -11.13499,-5.9266 -10.2767,-10.2894 0.57392,-2.9172 2.9599,-9.6532 7.52172,-21.2349 1.92755,-4.894 3.92491,-10.0372 4.43846,-11.4294 1.1169,-3.0279 1.13128,-2.9866 -1.30481,-3.7461 -0.87274,-0.2721 -1.772,-0.6447 -1.99833,-0.828 l -0.41155,-0.3333 0.42555,-1.2977 c 0.56276,-1.71588 1.52313,-3.44894 2.17763,-3.92946 0.57706,-0.42368 1.40554,-0.48037 3.20593,-0.21937 1.06372,0.15414 1.09406,0.14567 1.66318,-0.46359 0.54096,-0.57901 1.50073,-2.42104 3.40252,-6.52989 0.43379,-0.93708 1.00763,-1.99107 1.27523,-2.34202 0.89866,-1.17876 3.67784,-2.04634 7.20057,-2.24773 l 1.75125,-0.10014 v 0.45926 c 0,0.84975 -1.16311,4.1964 -3.33362,9.59209 -1.18618,2.94874 -2.15673,5.39607 -2.15673,5.43846 0,0.0427 1.85303,1.01279 4.11777,2.15639 4.19108,2.1164 7.07294,3.7446 7.66483,4.3305 0.57534,0.5694 0.7082,2.0198 0.99205,10.8273 0.2718,8.4349 1.20543,27.6585 1.35087,27.8144 0.10149,0.1089 -0.87888,1.5589 11.02947,-16.3131 5.94938,-8.9289 10.92334,-16.234 11.05321,-16.2337 0.12987,5e-4 1.35978,0.2973 2.73312,0.66 2.46013,0.6496 4.4464,1.3949 4.66644,1.7509 0.14417,0.2333 -2.30562,4.0317 -9.73926,15.1008 -15.55219,23.1581 -24.98715,36.6072 -27.3497,38.9858 -4.07313,4.1007 -8.58896,5.6433 -13.07648,4.4667 z"
           id="path10482" />
        <path
           style="fill:#274b99;fill-opacity:1;stroke:none;stroke-width:0.189321"
           d="m 544.66946,1077.3949 c -3.12445,-0.4022 -3.78644,-0.8328 -3.78644,-2.4627 0,-0.5028 0.38166,-3.9204 0.84818,-7.5947 1.41865,-11.1742 3.45023,-29.2298 4.15986,-36.9717 0.16229,-1.7701 0.34331,-3.6657 0.40226,-4.2124 0.0697,-0.6438 0.0359,-0.994 -0.0944,-0.994 -0.48621,0 -6.11625,12.0526 -19.23474,41.1773 -2.06364,4.5816 -3.78097,8.3664 -3.81632,8.4107 -0.14859,0.1861 -7.67547,-1.1002 -7.93056,-1.3554 -0.18874,-0.1887 -0.33995,-0.9796 -3.49697,-18.2898 -4.42858,-24.2823 -6.64171,-35.0544 -7.20192,-35.0544 -0.44674,0 -1.69853,9.7559 -4.90498,38.23 -0.83762,7.438 -1.5429,13.5416 -1.56724,13.5634 -0.11946,0.1071 -6.23323,-0.8825 -7.11781,-1.152 l -1.01519,-0.3094 0.12597,-1.6429 c 0.94809,-12.3584 6.37366,-60.8597 7.23165,-64.6459 0.40862,-1.8035 0.62492,-1.9195 3.34081,-1.7917 2.38486,0.1123 9.08109,0.8837 9.40419,1.0834 0.27673,0.1711 1.06649,4.2466 5.11858,26.4152 4.24329,23.2147 5.61078,30.3919 5.83299,30.6141 0.61766,0.6176 1.97272,-2.2319 17.53015,-36.8618 l 6.71907,-14.9563 2.14026,-0.058 c 2.26458,-0.061 8.7887,0.2533 9.29656,0.4482 0.23292,0.089 0.28116,0.313 0.2154,0.9984 -0.0464,0.4857 -0.25988,2.7574 -0.47386,5.0482 -0.53504,5.7291 -1.71695,16.3435 -4.15274,37.2962 -1.13787,9.7879 -2.24646,19.3694 -2.46365,21.2922 -0.21712,1.9228 -0.43237,3.5336 -0.47835,3.5795 -0.1435,0.1435 -1.84989,0.3807 -2.64295,0.3674 -0.41648,-0.01 -1.31102,-0.084 -1.98784,-0.1712 z"
           id="path10484" />
        <path
           style="fill:#274b99;fill-opacity:1;stroke:none;stroke-width:0.189321"
           d="m 570.8165,1078.3432 c -2.02357,-0.1951 -3.90889,-0.7621 -5.67227,-1.7059 -3.56767,-1.9094 -5.51732,-4.2782 -6.50638,-7.9049 -0.53369,-1.9571 -0.5832,-7.0201 -0.0879,-9.0029 1.29485,-5.1842 4.94385,-8.1566 12.90841,-10.5149 0.72888,-0.2159 3.71065,-0.9451 6.62621,-1.6206 6.26633,-1.4519 9.31963,-2.3147 9.76413,-2.7592 0.46262,-0.4627 0.61465,-1.9656 0.37394,-3.6973 -0.66918,-4.8151 -4.18479,-7.3354 -10.23274,-7.3354 -5.3545,0 -8.1363,1.6724 -10.3128,6.2 -1.18064,2.4559 -1.77335,3.2538 -2.54267,3.4228 -0.59039,0.1297 -3.19109,-0.277 -5.13003,-0.8022 -1.21382,-0.3288 -1.23134,-0.3429 -1.28901,-1.0367 -0.0816,-0.9809 0.76729,-4.0352 1.55743,-5.6043 2.26945,-4.5064 7.36758,-8.265 12.79772,-9.4349 1.99451,-0.4297 9.08229,-0.4868 11.35631,-0.091 2.23941,0.3894 4.82656,1.1104 5.85584,1.6319 1.16753,0.5916 3.19963,2.468 3.96273,3.6592 1.74946,2.7305 2.49286,7.2538 3.14916,19.1606 0.53452,9.6981 1.12117,16.8252 1.62843,19.7841 0.10717,0.6247 0.40241,1.8005 0.65615,2.6129 0.92187,2.9516 0.68925,3.2281 -2.79543,3.3228 -3.10872,0.084 -4.37593,-0.068 -4.99636,-0.6019 -0.30938,-0.2662 -0.66319,-0.9806 -1.00073,-2.0208 -0.64934,-2.0015 -0.9588,-2.1211 -2.38943,-0.9237 -3.60871,3.0203 -8.32107,4.8396 -13.65871,5.273 -1.31665,0.107 -2.40284,0.1828 -2.4137,0.1686 -0.0112,-0.014 -0.73464,-0.095 -1.60828,-0.1789 z m 8.66917,-7.9414 c 4.20015,-1.0068 6.96802,-3.5542 8.24857,-7.5913 0.89274,-2.8145 1.10596,-8.2728 0.36713,-9.4003 -0.37372,-0.5704 -0.0592,-0.6242 -6.32505,1.0812 -6.34655,1.7272 -8.40405,2.3515 -10.40523,3.157 -2.22369,0.895 -2.93825,1.4144 -3.55441,2.5836 -0.49078,0.9312 -0.52344,1.1406 -0.52344,3.3596 0,2.2103 0.036,2.4448 0.54748,3.552 1.21374,2.628 3.26929,3.5972 7.68798,3.6248 1.76047,0.011 2.77387,-0.083 3.95697,-0.3666 z"
           id="path10486" />
        <path
           style="fill:#274b99;fill-opacity:1;stroke:none;stroke-width:0.189321"
           d="m 610.93471,1075.5143 c -1.38802,-0.3264 -1.6267,-0.9743 -2.36981,-6.4324 -1.33282,-9.7904 -4.82739,-40.351 -4.82739,-42.217 0,-0.5031 0.0539,-0.529 1.94059,-0.9321 1.06725,-0.228 2.61336,-0.5103 3.4357,-0.6274 1.4537,-0.2069 1.50493,-0.2008 1.84585,0.2203 0.29553,0.3648 0.35073,0.7724 0.35073,2.5892 0,1.186 0.0517,2.1562 0.11422,2.1562 0.0629,0 0.93603,-0.7794 1.94051,-1.732 4.9971,-4.7391 7.72505,-5.88 14.03752,-5.8713 5.06503,0.01 7.40608,0.7604 9.76016,3.1407 2.63239,2.6618 4.13754,6.9003 5.65198,15.9165 0.83702,4.983 2.25275,16.6873 2.83969,23.4758 0.47753,5.5229 0.49138,5.9169 0.216,6.1455 -0.3556,0.295 -4.31646,1.1605 -5.50466,1.2027 -2.19194,0.078 -2.36884,-0.5623 -3.96641,-14.3531 -1.5915,-13.7384 -2.55067,-19.9473 -3.41518,-22.1067 -1.99002,-4.9709 -7.26947,-6.7708 -12.25556,-4.1782 -1.7028,0.8853 -4.75991,3.8311 -5.50788,5.3072 -1.29268,2.5508 -1.14933,7.4894 0.6336,21.8297 1.41438,11.3761 1.67816,14.9378 1.17352,15.8473 -0.12739,0.2298 -0.55017,0.5061 -0.9394,0.6143 -0.82219,0.2283 -4.18974,0.2315 -5.15378,0.01 z"
           id="path10488" />
        <path
           style="fill:#274b99;fill-opacity:1;stroke:none;stroke-width:0.189321"
           d="m 663.94157,1068.3825 c -1.52013,-0.2566 -4.25116,-1.1329 -5.39135,-1.73 -5.85838,-3.0682 -8.61704,-12.0417 -5.78431,-18.8159 0.58312,-1.3944 1.88381,-3.3155 2.87444,-4.2451 1.65629,-1.5546 6.82879,-4.4939 11.97044,-6.8023 8.65382,-3.8852 9.96185,-4.7797 9.96185,-6.8125 0,-1.3021 -1.91213,-4.4106 -3.37189,-5.4815 -1.61982,-1.1884 -2.9474,-1.513 -6.18882,-1.513 -2.44703,0 -3.03615,0.061 -4.2597,0.4433 -2.9724,0.9277 -5.154,2.5706 -6.11197,4.6028 -0.68521,1.4535 -1.21906,3.1769 -1.37784,4.4478 -0.1772,1.4183 -0.74489,1.9858 -2.39587,2.3952 -1.75417,0.435 -4.08795,0.7363 -5.16531,0.6671 l -0.94659,-0.061 -0.0569,-1.1982 c -0.098,-2.0692 1.05541,-6.5281 2.448,-9.463 0.74632,-1.5729 2.9933,-3.8789 5.18156,-5.3174 3.27776,-2.1549 8.06216,-4.1318 11.72629,-4.8453 2.34404,-0.4564 6.7724,-0.3192 8.81506,0.2731 3.06513,0.8888 5.91763,2.7904 6.80678,4.5377 1.10199,2.1655 3.43068,9.5991 5.90594,18.8529 3.57516,13.366 5.06009,17.9647 6.80386,21.071 0.42884,0.764 0.43663,0.8288 0.12791,1.0603 -0.49849,0.3739 -6.5546,1.8656 -7.05954,1.7388 -0.77748,-0.1951 -1.48845,-0.974 -2.42365,-2.655 l -0.91401,-1.643 -2.78218,2.7092 c -1.53024,1.4899 -3.39788,3.1191 -4.15035,3.6203 -4.09574,2.7281 -10.92244,4.7238 -14.24198,4.1637 z m 7.75419,-8.5829 c 4.6925,-1.566 7.79635,-4.7122 8.93092,-9.0527 0.6074,-2.3233 0.52711,-5.3999 -0.24887,-9.5425 -0.18304,-0.9771 -0.25195,-1.0886 -0.6724,-1.0886 -1.12731,0 -12.06361,5.1362 -14.87792,6.9874 -3.99306,2.6264 -5.09963,4.7402 -4.13671,7.9017 0.85357,2.8029 2.48687,4.3747 5.28432,5.0853 1.47999,0.3759 4.12645,0.2415 5.72066,-0.2906 z"
           id="path10490" />
        <path
           style="fill:#274b99;fill-opacity:1;stroke:none;stroke-width:0.189321"
           d="m 714.11158,1072.2064 c -1.99474,-0.4535 -3.52438,-1.3222 -5.05028,-2.8681 -2.18422,-2.2128 -4.63619,-6.2773 -4.3059,-7.1379 0.16619,-0.4332 4.75025,-1.638 6.23241,-1.638 0.95872,0 1.53039,0.2838 2.61381,1.2973 2.35483,2.203 3.94296,2.8697 6.82482,2.865 2.0781,0 3.66249,-0.3504 5.48579,-1.2015 2.76443,-1.2903 4.86843,-3.3417 5.61955,-5.4786 1.31117,-3.7307 0.86593,-8.485 -1.31402,-14.0298 l -0.21622,-0.5501 -1.11129,1.8227 c -1.42127,2.331 -1.91175,2.916 -3.52243,4.2004 -3.57208,2.8484 -8.72893,4.5039 -12.65257,4.0616 -9.36614,-1.0557 -18.23813,-10.9825 -20.55761,-23.0016 -0.59586,-3.0878 -0.87911,-8.2408 -0.61563,-11.2026 0.45349,-5.099 1.78556,-7.9459 5.21857,-11.1529 1.98597,-1.8552 4.11155,-3.1515 6.51004,-3.9701 4.19206,-1.4308 7.84765,-1.3471 12.4386,0.2845 0.6772,0.2407 1.19299,0.331 1.29702,0.227 0.10396,-0.104 -0.0985,-0.7731 -0.50905,-1.6825 -0.37493,-0.8304 -0.68169,-1.5907 -0.68169,-1.6897 0,-0.5616 1.77462,-1.56453 4.41674,-2.49621 2.22122,-0.78317 2.48822,-0.77014 2.95473,0.1444 2.19448,4.30151 12.80305,35.45841 16.80031,49.34161 0.68992,2.3962 0.70835,2.5412 0.69854,5.4903 -0.012,3.6332 -0.32894,5.0537 -1.77395,7.9514 -2.59906,5.2124 -7.51153,8.6825 -14.34998,10.1368 -2.48238,0.5279 -8.62963,0.6906 -10.45031,0.2766 z m 2.20459,-26.8083 c 3.6138,-1.1062 6.43634,-3.0491 7.59353,-5.227 1.05931,-1.9937 1.26857,-3.1586 1.26804,-7.0601 -3.7e-4,-3.1184 -0.0547,-3.7309 -0.49542,-5.5851 -1.70505,-7.175 -5.58248,-13.3401 -9.62415,-15.3025 -1.86652,-0.9062 -3.3373,-1.263 -5.20629,-1.263 -4.92452,0 -8.72796,3.0739 -10.07284,8.1408 -0.4385,1.6523 -0.42914,5.3691 0.0195,7.6675 1.44584,7.4081 6.01395,15.1497 10.24271,17.3583 1.44149,0.7529 3.92266,1.6559 4.5711,1.6636 0.22333,0 0.9901,-0.1739 1.70392,-0.3925 z"
           id="path10492" />
        <path
           style="fill:#274b99;fill-opacity:1;stroke:none;stroke-width:0.189321"
           d="m 756.04613,1035.5563 c -2.83655,-0.3341 -6.25563,-1.6072 -8.65023,-3.2211 -7.94262,-5.3529 -14.28415,-19.4772 -13.2366,-29.4815 0.6187,-5.90923 3.34837,-11.01919 7.63188,-14.28691 7.99924,-6.10247 18.52595,-5.36034 26.06197,1.83731 2.34486,2.23964 5.74761,6.81516 7.24325,9.7397 0.93431,1.8268 1.08343,2.5635 0.62223,3.0731 -1.19794,1.3237 -10.24585,5.8239 -24.2162,12.0446 -2.91556,1.2983 -5.35681,2.4164 -5.42512,2.4848 -0.21989,0.2202 2.52237,3.8631 4.09215,5.4363 2.92321,2.9294 5.87502,4.4375 8.98134,4.5885 2.22616,0.1082 3.44626,-0.1476 5.50945,-1.155 2.77888,-1.3568 4.99867,-3.9492 6.02952,-7.0416 0.20828,-0.6248 0.46427,-2.0618 0.5689,-3.1934 0.1602,-1.7324 0.27463,-2.1935 0.7243,-2.9172 0.96367,-1.5509 3.34074,-2.5035 6.24724,-2.5035 1.60596,0 1.76503,0.2196 1.76503,2.4362 0,5.0596 -1.16505,9.9839 -3.05816,12.9262 -3.06527,4.7638 -9.59284,8.4975 -16.15793,9.2422 -1.91962,0.2178 -2.82352,0.2161 -4.73302,-0.01 z m -9.18205,-26.7751 c 2.81842,-1.0797 18.04609,-8.029 18.42603,-8.4089 0.22319,-0.2232 -2.90223,-4.01642 -4.21498,-5.1155 -1.31492,-1.10094 -2.88793,-2.00881 -4.34267,-2.50656 -1.79792,-0.61511 -4.33549,-0.60515 -6.26177,0.0247 -1.72384,0.56366 -3.81722,1.93318 -5.09948,3.33617 -1.92262,2.10364 -3.08737,5.63159 -3.12122,9.45369 -0.0367,4.1844 0.71636,4.7096 4.61409,3.2164 z"
           id="path10494" />
        <path
           style="fill:#274b99;fill-opacity:1;stroke:none;stroke-width:0.189321"
           d="m 793.10662,1018.6698 c -3.67551,-4.8682 -25.99433,-39.01544 -26.30207,-40.24153 -0.10291,-0.4099 0.0352,-0.62739 0.9185,-1.44981 1.13338,-1.05496 3.81452,-2.55697 4.56422,-2.55697 0.52246,0 1.22744,0.70536 2.59628,2.59764 0.46862,0.64776 0.9042,1.18018 0.96801,1.18325 0.0637,0 0.25906,-0.73995 0.43379,-1.65104 0.713,-3.71776 1.64318,-5.90684 3.38568,-7.96801 1.75155,-2.07188 4.39637,-3.76696 7.6157,-4.88109 1.30691,-0.45221 1.80713,-0.52359 3.68908,-0.52621 1.95092,0 2.36621,0.0599 3.99531,0.60417 0.99999,0.33403 1.99908,0.60725 2.22017,0.60725 0.63068,0 0.99699,-0.78639 1.48066,-3.17889 0.70835,-3.50379 2.24466,-6.27802 4.73939,-8.55803 2.89332,-2.6443 6.34819,-4.25026 9.65463,-4.48775 1.97475,-0.14192 3.54071,0.1635 5.25819,1.02538 2.30285,1.1557 3.39339,2.05076 4.99283,4.09792 6.69638,8.57084 21.61526,30.99039 21.61526,32.48266 0,0.1035 -0.27134,0.49722 -0.60297,0.87499 -0.68528,0.7804 -5.37899,3.93952 -5.62621,3.78673 -0.0891,-0.0554 -3.16953,-4.59552 -6.84535,-10.08977 -9.63838,-14.40668 -11.72576,-17.33482 -14.39432,-20.19226 -2.9384,-3.14647 -4.78621,-3.57067 -8.26497,-1.89745 -5.16674,2.48514 -6.62673,8.54687 -3.53644,14.68326 1.39693,2.77401 4.72973,8.10072 12.65738,20.23002 l 4.64015,7.09954 -0.70415,0.6338 c -1.21988,1.098 -3.88942,3.0485 -4.73857,3.4623 l -0.81597,0.3976 -0.47955,-0.4483 c -1.09915,-1.0277 -5.73699,-7.48875 -11.32943,-15.7833 -7.53093,-11.16975 -10.61882,-15.00321 -13.02233,-16.16677 -2.17006,-1.05047 -4.68614,-0.0697 -7.53317,2.93668 -2.08124,2.1977 -2.73859,3.96738 -2.58858,6.96914 0.18432,3.68967 1.31387,6.04772 7.10635,14.83553 5.47501,8.30622 11.96662,18.36562 11.96535,18.54142 0,0.1733 -6.08112,3.8301 -6.58846,3.9628 -0.25456,0.067 -0.56013,-0.1876 -1.12439,-0.9349 z"
           id="path10496" />
        <path
           style="fill:#274b99;fill-opacity:1;stroke:none;stroke-width:0.26774"
           d="m 920.04104,905.48947 c -2.98425,-1.10896 -5.83225,-3.21214 -19.61416,-14.48441 -7.47843,-6.11655 -9.4152,-7.5916 -10.3376,-7.8732 -0.65457,-0.19982 -1.15622,0.1927 -2.61868,2.04881 -0.55115,0.69944 -1.08896,1.27171 -1.19516,1.27171 -0.43476,0 -4.57118,-3.53374 -4.73295,-4.0434 -0.12051,-0.37971 0.12417,-1.03549 0.78706,-2.1094 1.06006,-1.71748 1.21516,-2.87534 0.49341,-3.68315 -0.25771,-0.28842 -1.19142,-1.10829 -2.07503,-1.82196 -4.36559,-3.52625 -5.49537,-5.18366 -5.46773,-8.02096 0.0195,-2.01346 0.77238,-4.94962 1.3627,-5.31533 0.58987,-0.36548 1.38622,0.19802 7.77179,5.49942 2.80464,2.32847 5.1194,4.23363 5.14389,4.23363 0.0247,0 1.12447,-1.31919 2.44433,-2.93152 1.31994,-1.61232 2.46005,-2.93466 2.53368,-2.9384 0.0734,-0.007 1.35184,0.9907 2.84051,2.21013 l 2.70661,2.2171 -2.23807,3.05307 c -1.23096,1.6792 -2.23177,3.1183 -2.22406,3.19799 0.0315,0.32526 18.3101,15.16678 23.37138,18.97688 1.59683,1.20205 3.08468,2.18549 3.30621,2.18549 0.22162,0 1.49752,-1.07908 2.83543,-2.39797 l 2.43242,-2.39796 1.93759,1.20759 c 1.06567,0.66417 2.49316,1.69666 3.17223,2.29439 l 1.23471,1.08687 -0.55872,0.94689 c -1.63689,2.77438 -5.12584,6.2384 -7.48853,7.43514 -1.40922,0.71374 -4.12174,0.78481 -5.82326,0.15255 z"
           id="path10498" />
        <path
           style="fill:#274b99;fill-opacity:1;stroke:none;stroke-width:0.26774"
           d="m 883.96083,941.29003 c -6.64171,-6.36827 -17.07584,-16.23201 -24.84613,-23.48785 -3.06086,-2.85819 -5.5299,-5.34551 -5.48684,-5.52743 0.14695,-0.62012 3.44904,-4.4255 4.09605,-4.72029 0.55946,-0.25494 0.77179,-0.18244 1.60274,0.54711 0.52681,0.46254 1.24489,0.84098 1.5957,0.84098 0.74497,0 1.10042,-0.83642 1.99107,-4.68546 1.26331,-5.45965 4.54122,-9.72938 9.26682,-12.07088 6.64763,-3.29377 10.66653,-2.06693 20.61603,6.2936 3.01449,2.53308 6.34684,5.55716 15.62034,14.17511 l 7.3204,6.80295 -2.23335,2.26758 c -2.51982,2.55839 -3.55284,3.16054 -4.68412,2.73042 -0.40481,-0.15391 -2.2487,-1.74953 -4.09755,-3.5458 -7.94217,-7.71644 -17.32756,-16.1983 -20.64822,-18.66045 -2.59606,-1.92486 -4.42948,-2.55877 -6.64703,-2.29813 -2.99495,0.352 -5.51739,2.07172 -6.82579,4.65371 -0.86009,1.6974 -1.17098,2.93803 -1.63614,6.53034 l -0.39208,3.02797 13.45043,13.30529 13.4505,13.3052 -2.94514,2.95354 -2.94515,2.95353 z"
           id="path10500" />
        <path
           style="fill:#274b99;fill-opacity:1;stroke:none;stroke-width:0.26774"
           d="m 851.29655,972.26221 c -3.68899,-0.69704 -6.37935,-1.91085 -9.65156,-4.35458 -7.11257,-5.31166 -12.27099,-12.12053 -14.18611,-18.72486 -1.67494,-5.77615 -0.90248,-11.50497 2.21103,-16.39752 1.34255,-2.1097 4.72381,-5.35293 6.97513,-6.69039 3.2078,-1.90576 5.49658,-2.52057 9.43055,-2.53345 4.01516,-0.0127 5.66673,0.37597 9.50477,2.23912 3.19132,1.54926 5.98368,3.60676 9.71664,7.15967 l 2.75544,2.6225 -5.29892,4.79519 c -8.37911,7.5826 -15.79889,14.60417 -17.34808,16.41714 -1.0292,1.20438 -1.38495,1.81978 -1.28122,2.21642 0.34421,1.31612 3.90462,3.50716 7.84166,4.82567 2.56933,0.86046 5.64172,0.67727 8.12394,-0.48426 2.40748,-1.12664 4.85166,-3.56146 6.07244,-6.04922 0.76287,-1.55458 0.91993,-2.19875 1.01175,-4.14997 0.0891,-1.89498 0,-2.59824 -0.47783,-3.91623 -0.95018,-2.60265 -0.96194,-3.10699 -0.0918,-3.91682 0.41612,-0.38721 1.91498,-1.49969 3.33086,-2.47227 l 2.57434,-1.76825 1.12626,2.4587 c 1.58252,3.45451 1.98575,5.19086 1.97631,8.50995 -0.0202,7.01004 -3.32006,13.03993 -9.28937,16.97331 -4.76575,3.14024 -9.80479,4.22681 -15.02628,3.24015 z m -11.88633,-21.16507 c 0.44255,-0.22887 1.73178,-1.2356 2.86486,-2.23724 2.70361,-2.38973 13.55123,-12.61708 13.64904,-12.8685 0.12246,-0.31478 -4.06137,-2.94799 -5.79936,-3.64998 -2.17793,-0.87971 -5.04504,-1.0972 -7.19473,-0.54583 -2.33461,0.59878 -3.69993,1.35679 -5.17902,2.87535 -1.78121,1.82869 -2.42291,3.63065 -2.5897,7.27246 -0.1966,4.28995 0.54104,7.25307 2.22436,8.93647 0.7464,0.74633 0.95753,0.76902 2.02455,0.21727 z"
           id="path10502" />
        <path
           style="fill:#274b99;fill-opacity:1;stroke:none;stroke-width:0.26774"
           d="m 939.65077,864.57416 c -1.4886,-0.20588 -4.00422,-0.92419 -5.62187,-1.60536 -0.8839,-0.37215 -1.88389,-0.78197 -2.22219,-0.91079 -0.61503,-0.23404 -0.61488,-0.23449 0.7846,-2.959 0.76984,-1.49871 1.76106,-3.1365 2.20279,-3.63957 0.90278,-1.02829 0.95318,-1.02889 4.05343,-0.0487 2.76892,0.87567 6.85433,0.8544 9.24114,-0.0479 5.66202,-2.141 10.80187,-8.10222 12.45179,-14.44195 0.67105,-2.57839 0.46217,-6.3288 -0.46435,-8.33709 -1.85588,-4.0225 -6.44555,-6.29899 -10.68652,-5.3005 -2.78929,0.65667 -3.72899,1.33304 -11.83279,8.51676 -5.86085,5.19542 -8.75313,7.34811 -12.09626,9.00298 -3.13643,1.55263 -5.30881,2.10775 -8.29994,2.12093 -4.58166,0.0202 -8.22071,-1.69868 -12.37135,-5.84333 -3.66144,-3.6562 -5.10622,-7.54366 -4.82035,-12.96976 0.18693,-3.54722 0.92786,-6.35898 2.58206,-9.79858 3.31265,-6.88811 8.60094,-12.08113 14.29935,-14.04172 3.57411,-1.22961 9.09315,-1.23141 13.46631,-0.007 1.84996,0.5191 2.05772,0.53011 2.65186,0.14088 0.57339,-0.37574 1.95399,-2.93017 3.17147,-5.86805 l 0.42742,-1.03144 1.80945,0.16701 c 0.9952,0.0918 8.1348,0.76295 15.86577,1.49137 18.21536,1.71621 21.15174,1.96598 21.30535,1.81237 0.20491,-0.20491 -4.31654,-4.41599 -13.30775,-12.39419 -12.19116,-10.81774 -14.9588,-13.61482 -14.9588,-15.11803 0,-0.67727 2.00634,-4.63109 2.63351,-5.18965 0.54553,-0.48591 0.59204,-0.48681 1.30878,-0.0247 2.47143,1.59293 32.7486,29.31306 40.7814,37.33716 10.57962,10.56827 12.10782,13.83464 9.21342,19.69243 -1.9465,3.93944 -3.35496,4.5019 -7.68146,3.06722 -3.12429,-1.03594 -3.46753,-1.34053 -2.64969,-2.35101 2.70451,-3.34134 3.09726,-5.62823 1.54784,-9.01264 -0.47415,-1.03564 -1.49586,-2.32846 -3.3128,-4.19161 l -2.62722,-2.6941 -10.70457,-0.91588 c -21.28947,-1.82151 -33.52946,-2.8039 -36.94389,-2.96522 l -3.48154,-0.16454 -0.84706,0.71277 c -0.46726,0.39327 -1.45325,1.89295 -2.19912,3.34493 -0.74362,1.44771 -1.54125,2.78922 -1.77245,2.98109 -0.34609,0.28722 -0.76235,0.28243 -2.35161,-0.027 -2.82883,-0.5504 -7.74624,-0.49535 -9.46956,0.10598 -3.89002,1.35738 -7.17391,5.41591 -9.5002,11.74134 -1.47228,4.00317 -0.91237,7.27186 1.72294,10.05831 1.84001,1.94553 3.82298,2.88291 6.10292,2.88478 1.65719,0 1.88007,-0.0753 3.66383,-1.26077 1.97234,-1.31073 6.09505,-4.59867 11.8408,-9.44321 4.07844,-3.4387 8.76069,-6.8371 10.87758,-7.89491 5.45029,-2.72353 12.69916,-1.91887 18.04138,2.00267 2.93705,2.15599 6.28573,6.47425 7.2652,9.36869 0.58283,1.72257 0.49902,11.8035 -0.11699,14.05632 -1.12611,4.11889 -3.77909,8.36346 -7.88128,12.60952 -5.70598,5.90609 -9.3758,7.51991 -16.89744,7.43094 -1.86457,-0.0217 -3.75153,-0.0902 -4.19334,-0.15121 z"
           id="path10504" />
        <path
           style="fill:#274b99;fill-opacity:1;stroke:none;stroke-width:0.189321"
           d="m 985.02972,780.70551 c -0.66926,-0.35792 -0.95461,-1.64992 -0.9952,-4.50639 -0.0352,-2.47803 0.16911,-3.45008 0.7759,-3.69124 0.17264,-0.0689 1.33627,-0.19473 2.58581,-0.28026 2.53008,-0.17308 4.11559,-0.64034 5.76551,-1.69905 1.36398,-0.87529 2.95901,-2.71327 3.70158,-4.26538 1.05362,-2.20235 1.30983,-3.45428 1.31747,-6.43688 0.007,-2.52925 -0.018,-2.70009 -0.52568,-3.73475 -0.99415,-2.02447 -3.99172,-4.08025 -5.67318,-3.89069 -2.39999,0.27052 -4.32559,2.27364 -9.60527,9.99196 -5.75863,8.4185 -7.8732,10.22143 -12.66307,10.79662 -3.87975,0.46592 -8.11914,-0.59272 -10.94513,-2.73312 -3.18234,-2.41033 -4.8199,-6.30663 -4.82118,-11.47127 0,-8.57009 4.11934,-16.09143 10.31865,-18.83039 2.64272,-1.1676 6.7497,-1.67426 8.02875,-0.99048 0.7604,0.40653 1.18648,1.20131 1.18648,2.21313 0,0.65053 -0.3938,3.59088 -0.67555,5.04436 -0.10298,0.53145 -0.4066,0.64409 -2.5023,0.92802 -2.25619,0.30571 -3.54744,0.93198 -5.04443,2.44657 -2.55847,2.58865 -4.04325,6.42271 -3.83804,9.91047 0.16102,2.73582 1.38345,4.57769 3.52176,5.30657 0.98831,0.3368 1.74669,0.26482 2.81438,-0.26723 1.72781,-0.86106 3.63073,-2.98686 7.61443,-8.5062 4.74366,-6.57235 8.01011,-10.34089 9.81416,-11.32275 2.3069,-1.25561 5.87546,-1.60806 8.93153,-0.88218 4.12802,0.98044 8.2916,4.11245 10.0179,7.53594 2.13,4.22382 2.2077,10.47345 0.2055,16.52454 -1.2192,3.68451 -2.6562,6.24005 -4.69792,8.35499 -1.52343,1.57803 -2.56139,2.25545 -4.60271,3.00394 -3.5246,1.29245 -8.86053,2.06604 -10.01015,1.45115 z"
           id="path10506" />
        <path
           style="fill:#274b99;fill-opacity:1;stroke:none;stroke-width:0.189321"
           d="m 1005.1924,736.7038 c -5.0512,-1.292 -10.82426,-2.84763 -16.18699,-4.36184 -12.54204,-3.54138 -16.2207,-4.3426 -17.78547,-3.87384 -0.90337,0.27067 -1.33589,0.95019 -1.33589,2.09869 0,1.03961 -0.49827,1.52493 -1.56192,1.52118 -0.92195,0 -2.77648,-0.41027 -3.8793,-0.85162 -1.11525,-0.44615 -1.29013,-0.92727 -1.21995,-3.35467 l 0.0599,-2.06506 -0.66851,-0.63046 c -0.54725,-0.5161 -1.31447,-0.83957 -4.2304,-1.78361 -4.10676,-1.32953 -5.38371,-2.00448 -6.15332,-3.25237 -0.75846,-1.22984 -1.8493,-4.5863 -1.97984,-6.0922 l -0.11084,-1.27792 0.64274,0.007 c 0.97131,0.007 3.40597,0.59032 8.13653,1.95205 2.35138,0.6769 4.8026,1.33447 5.44721,1.46134 1.07084,0.2106 1.20603,0.19974 1.56649,-0.12627 0.61533,-0.55647 1.09219,-1.64371 1.57391,-3.58842 0.49408,-1.99451 0.88061,-2.73192 1.4319,-2.73192 0.63391,0 5.56555,1.54215 5.91523,1.84974 0.4487,0.39477 0.42398,0.659 -0.25471,2.7162 -0.32227,0.97692 -0.63233,2.22331 -0.68903,2.76967 l -0.10313,0.99347 1.78166,0.84391 c 2.47204,1.17105 8.42434,3.11695 17.01398,5.56225 8.14255,2.31806 10.47045,2.8719 12.06595,2.87085 1.6203,0 2.1113,-0.38241 3.0653,-2.38044 1.5181,-3.18009 1.9041,-3.45742 4.2039,-3.02116 0.8426,0.1599 1.8507,0.29066 2.2401,0.29066 1.0666,0 1.8787,0.35508 2.1903,0.95775 0.4464,0.86309 0.3558,3.08685 -0.2046,5.02032 -1.5173,5.23587 -4.811,8.62042 -8.4961,8.73021 -0.7364,0.0217 -1.8502,-0.0908 -2.475,-0.25059 z"
           id="path10508" />
        <path
           style="fill:#274b99;fill-opacity:1;stroke:none;stroke-width:0.189321"
           d="m 994.59043,715.60719 c -0.93715,-0.0962 -2.34629,-0.3371 -3.13148,-0.53527 -2.53113,-0.63893 -8.14334,-3.04131 -10.33161,-4.42274 -4.27377,-2.69784 -7.4242,-7.00906 -8.80158,-12.04443 -0.60282,-2.2037 -0.707,-6.71855 -0.21023,-9.11113 0.71697,-3.45345 2.18834,-6.46353 4.4515,-9.107 1.96897,-2.29993 5.26387,-4.59589 7.81979,-5.44902 2.94642,-0.98351 9.0602,-1.65471 13.49057,-1.48118 3.15421,0.1235 4.35211,0.39978 4.72111,1.08866 0.3113,0.58126 0.1811,3.22997 -0.3569,7.26243 -0.3216,2.41093 -3.74543,23.40052 -4.07496,24.98169 l -0.11272,0.54074 3.75858,-0.0846 c 3.2474,-0.0734 3.9388,-0.1432 5.0837,-0.51513 2.8534,-0.92681 5.018,-2.35303 6.4779,-4.26808 1.8586,-2.43803 2.6034,-4.9219 2.4696,-8.23545 -0.1161,-2.87647 -0.484,-3.55779 -3.7309,-6.90901 -3.231,-3.33482 -3.2303,-3.334 -3.4206,-4.17776 -0.2986,-1.32413 0.9408,-5.05739 2.0071,-6.04562 0.9667,-0.89596 2.5613,-0.4752 4.9719,1.31185 4.6281,3.43091 7.2443,7.87155 7.9823,13.54869 0.8099,6.22971 -1.882,14.26768 -6.1963,18.50183 -2.5804,2.5324 -5.754,4.01553 -10.4869,4.90071 -1.9049,0.35627 -9.79257,0.5155 -12.37987,0.24985 z m -4.43824,-11.04295 c 1.12124,-2.5348 3.01757,-13.43335 3.67866,-21.1423 0.1599,-1.86525 0.0464,-1.9719 -1.94261,-1.826 -1.63786,0.12005 -4.48288,0.89708 -6.76386,1.84734 -2.01166,0.83799 -3.31332,2.12356 -4.40094,4.34642 -1.51137,3.08894 -1.9334,5.8682 -1.21022,7.97003 0.43948,1.2774 1.35469,3.0852 2.00328,3.9572 1.54379,2.07532 4.40176,4.43981 6.32041,5.22897 1.5906,0.6542 1.87805,0.60687 2.31528,-0.38166 z"
           id="path10510" />
        <path
           style="fill:#274b99;fill-opacity:1;stroke:none;stroke-width:0.189321"
           d="m 1017.2142,668.75582 c -6.2365,-0.46883 -31.21018,-2.57337 -38.47943,-3.2427 -1.48478,-0.13668 -1.38907,0.16043 -0.9892,-3.06924 0.45011,-3.63545 0.64731,-3.86455 3.44259,-3.99891 l 1.96987,-0.0947 -1.35941,-1.89318 c -0.74767,-1.04125 -1.68864,-2.5852 -2.09112,-3.43106 -1.79447,-3.7713 -2.1446,-8.90823 -0.85035,-12.47395 0.9874,-2.72017 3.58751,-5.98271 5.56615,-6.98398 0.55159,-0.27913 1.05398,-0.64087 1.1166,-0.80391 0.15952,-0.41567 -0.53902,-1.76938 -1.83604,-3.55816 -2.50462,-3.45428 -3.5965,-6.71316 -3.5965,-10.73438 0,-2.38119 0.39469,-4.17604 1.36817,-6.22095 0.62462,-1.3123 1.06694,-1.91041 2.39677,-3.24128 3.60399,-3.60699 7.25352,-4.35653 18.2909,-3.75655 6.6446,0.36114 26.6516,1.98118 29.3921,2.37999 l 0.8046,0.11714 v 0.90539 c 0,0.83088 -0.7321,7.02981 -0.8444,7.14994 -0.027,0.0285 -4.8104,-0.3314 -10.6301,-0.80017 -18.7669,-1.51167 -22.99385,-1.74923 -25.69731,-1.44441 -2.37827,0.26812 -3.51038,0.79171 -4.93007,2.28008 -3.37864,3.54221 -3.13299,8.13563 0.63922,11.95232 3.13785,3.17477 7.20102,4.14106 21.39466,5.08787 11.3451,0.75681 16.1818,1.2631 17.2261,1.80308 0.3158,0.16335 0.6183,0.50621 0.6866,0.77823 0.142,0.56568 -0.1968,3.25049 -0.6601,5.231 l -0.3217,1.37536 -3.2885,-0.0337 c -3.7562,-0.0389 -9.039,-0.34181 -24.339,-1.39692 l -10.7913,-0.74423 -2.00418,2.03413 c -2.37572,2.41122 -2.82351,3.30629 -2.82351,5.64419 0,3.17545 2.18661,7.09122 4.79076,8.57915 2.98477,1.70549 6.78229,2.34194 21.05153,3.52827 11.3479,0.94352 15.4354,1.50178 16.0861,2.19733 0.1909,0.20401 0.2075,0.82983 0.077,2.91039 -0.2044,3.26517 -0.239,3.41766 -0.8702,3.83137 -0.6764,0.4433 -5.0231,0.50359 -9.8975,0.13721 z"
           id="path10512" />
        <g
           id="g10608"
           transform="matrix(1.4580001,0,0,1.4580001,7030.6824,-1997.4421)"
           style="fill:#274b99;fill-opacity:1;stroke:none">
          <path
             style="fill:#274b99;fill-opacity:1;stroke:none;stroke-width:0.424539"
             d="m -4440.7625,2148.2084 c -1.2842,-0.088 -5.4871,-0.3607 -9.3398,-0.6069 -66.2008,-4.2302 -128.8954,-27.4228 -182.8569,-67.644 -14.2556,-10.6256 -25.1136,-20.0865 -38.7626,-33.775 -28.432,-28.5144 -50.4278,-59.3275 -68.5171,-95.9833 -19.6957,-39.9113 -31.7187,-82.0815 -36.3114,-127.3619 -1.2927,-12.7445 -1.7208,-22.5839 -1.7211,-39.558 0,-13.7844 0.079,-15.6504 0.6871,-16.2589 0.3781,-0.378 0.8006,-0.5741 0.939,-0.4357 0.1385,0.1384 0.2002,6.7862 0.1373,14.773 -0.2611,33.1151 3.6504,65.7949 11.5956,96.882 19.6053,76.7095 63.0311,144.1954 124.6163,193.6604 53.3768,42.8721 121.4147,69.5125 187.8587,73.5566 36.827,2.2414 72.2357,-0.7761 104.8614,-8.9364 70.2674,-17.5751 134.5731,-58.2915 181.8773,-115.1591 45.1637,-54.2943 74.2558,-122.4398 81.943,-191.9435 1.5992,-14.4588 1.8342,-19.1686 2.0998,-42.1007 0.2841,-24.5181 0.5143,-27.0798 1.8601,-20.6942 0.7945,3.7703 0.6238,32.2699 -0.2657,44.3274 -1.8199,24.6726 -5.131,45.3086 -10.8645,67.7141 -14.5326,56.7906 -42.6864,109.8496 -81.096,152.8343 -5.4522,6.1016 -26.881,27.2889 -33.1209,32.7475 -10.3649,9.0673 -22.2588,18.1063 -35.2618,26.798 -54.8216,36.6445 -118.5732,56.358 -184.8621,57.1636 -7.2383,0.088 -14.2113,0.088 -15.4957,0 z"
             id="path10574" />
          <path
             style="fill:#274b99;fill-opacity:1;stroke:none;stroke-width:0.60039"
             d="m -4440.5367,2038.3444 c -35.2667,-2.4442 -64.1981,-10.1878 -94.2612,-25.2294 -46.5245,-23.2777 -84.6406,-61.12 -108.7491,-107.9677 -14.1489,-27.4939 -22.6169,-54.653 -27.2794,-87.491 -1.3122,-9.2418 -1.861,-42.9057 -0.8948,-54.8793 1.2365,-15.3224 4.9554,-35.2373 9.4032,-50.3549 28.6127,-97.2512 108.8382,-166.7211 206.2525,-178.6008 15.6885,-1.9133 39.7791,-1.7759 56.3552,0.3213 45.0458,5.6992 88.213,24.441 122.1743,53.0442 34.2856,28.8762 58.6253,62.3225 74.0971,101.8201 12.8198,32.7271 18.0902,60.6632 18.1231,96.0624 0.039,42.3044 -8.0526,77.7666 -26.1676,114.6744 -13.0038,26.4945 -27.6368,46.9313 -48.5973,67.8721 -19.7739,19.7552 -38.8024,33.5866 -62.6396,45.5315 -29.1848,14.6245 -62.1252,23.5441 -91.1136,24.6716 -13.2965,0.5172 -23.8314,0.7246 -26.7028,0.5255 z m 43.8284,-3.7391 c 21.0353,-3.2709 37.3976,-7.631 54.9357,-14.639 34.0864,-13.6203 62.9384,-33.862 89.6354,-62.8853 35.4394,-38.5273 58.1089,-89.9062 64.1037,-145.2859 1.306,-12.0649 0.9303,-48.5514 -0.6117,-59.4136 -7.5124,-52.9143 -27.948,-98.358 -61.303,-136.322 -39.0675,-44.4659 -89.9819,-71.8944 -148.8615,-80.1944 -9.1754,-1.2934 -35.8262,-1.7821 -48.9318,-0.8972 -32.6319,2.2032 -67.8433,13.0102 -97.5633,29.9438 -32.276,18.3899 -61.6783,46.0299 -82.8295,77.8652 -23.093,34.7574 -36.5695,72.3524 -41.5373,115.8752 -1.4156,12.4011 -1.4202,40.2667 -0.01,52.9885 5.6768,51.1658 23.8315,95.7302 54.8944,134.7483 7.9905,10.0369 27.4918,29.5925 37.3603,37.4642 32.9998,26.3228 69.3384,42.7109 110.4718,49.8207 13.1973,2.2812 18.459,2.5914 40.5262,2.3896 18.2985,-0.1674 22.8575,-0.3911 29.7193,-1.4581 z"
             id="path10588" />
        </g>
      </g>
    </g>
  </g>
</svg>
