<?xml version="1.0" encoding="UTF-8" standalone="no"?>
<!-- Created with Inkscape (http://www.inkscape.org/) -->

<svg
   width="113mm"
   height="13mm"
   viewBox="0 0 113 13"
   version="1.1"
   id="svg1510"
   inkscape:version="1.2.2 (b0a8486541, 2022-12-01)"
   sodipodi:docname="logo_negro_asercap.svg"
   xmlns:inkscape="http://www.inkscape.org/namespaces/inkscape"
   xmlns:sodipodi="http://sodipodi.sourceforge.net/DTD/sodipodi-0.dtd"
   xmlns="http://www.w3.org/2000/svg"
   xmlns:svg="http://www.w3.org/2000/svg">
  <sodipodi:namedview
     id="namedview1512"
     pagecolor="#505050"
     bordercolor="#ffffff"
     borderopacity="1"
     inkscape:showpageshadow="0"
     inkscape:pageopacity="0"
     inkscape:pagecheckerboard="1"
     inkscape:deskcolor="#505050"
     inkscape:document-units="mm"
     showgrid="false"
     inkscape:zoom="1.9779745"
     inkscape:cx="200.20481"
     inkscape:cy="31.597981"
     inkscape:window-width="1920"
     inkscape:window-height="1043"
     inkscape:window-x="0"
     inkscape:window-y="0"
     inkscape:window-maximized="1"
     inkscape:current-layer="layer1" />
  <defs
     id="defs1507" />
  <g
     inkscape:label="Capa 1"
     inkscape:groupmode="layer"
     id="layer1">
    <path
       d="M 16.885398,12.417802 H 11.427785 V 2.2023127 H 9.6085098 V 8.1613995 L 7.3649138,12.417802 H 0.51259359 L 6.8798088,0.49980768 H 16.885398 Z M 32.550885,9.0126175 c 0,1.0342025 -0.3302,1.8603025 -0.9905,2.4781945 -0.66029,0.61799 -1.54298,0.92699 -2.64788,0.92699 h -6.36732 c -1.105003,0 -1.987688,-0.309 -2.647982,-0.92699 C 19.237015,10.87292 18.906815,10.04682 18.906815,9.0126175 v -0.170216 h 5.8214 v 1.8727915 h 1.81927 V 7.3101115 h -4.0023 c -1.158872,0 -2.054998,-0.299614 -2.688375,-0.8985948 -0.633307,-0.599123 -0.949995,-1.434607 -0.949995,-2.506592 0,-1.034133 0.3302,-1.860233 0.990388,-2.478229 0.660294,-0.61789002 1.542979,-0.92688802 2.647982,-0.92688802 h 6.36732 c 1.1049,0 1.98759,0.308998 2.64788,0.92688802 0.6603,0.617996 0.9905,1.444096 0.9905,2.478229 v 0.170285 h -6.0034 v -1.872897 h -1.81927 v 3.405188 h 4.18429 c 1.15888,0 2.0549,0.299508 2.68838,0.8985948 0.63331,0.599017 0.95,1.434606 0.95,2.506522 z m 14.5537,3.4051845 h -12.7345 V 0.49980768 h 12.7345 V 3.9049247 h -5.45757 v -1.702612 h -1.81931 v 3.405188 h 5.45761 v 1.7026108 h -5.45761 v 3.4050815 h 1.81931 V 9.0126175 h 5.45757 z m 18.0709,0 h -6.85249 l -2.2436,-4.2564025 V 2.2023127 h -1.81931 V 12.417802 h -5.45758 V 0.49980768 h 10.0057 c 1.45528,0 2.6749,0.277389 3.65859,0.83230802 1.17242,0.668479 1.75849,1.645885 1.75849,2.932289 0,0.61789 -0.13469,1.223292 -0.40418,1.815994 -0.31002,0.6811078 -0.7209,1.1540068 -1.23299,1.4188018 z m 14.5536,-3.4051845 c 0,1.0342025 -0.33009,1.8603025 -0.99049,2.4781945 -0.66019,0.61799 -1.54291,0.92699 -2.64781,0.92699 h -6.36739 c -1.1049,0 -1.98759,-0.309 -2.64792,-0.92699 -0.66029,-0.617892 -0.99038,-1.443992 -0.99038,-2.4781945 V 3.9049247 c 0,-1.034133 0.33009,-1.860233 0.99038,-2.478229 0.66033,-0.61789002 1.54302,-0.92688802 2.64792,-0.92688802 h 6.36739 c 1.1049,0 1.98762,0.308998 2.64781,0.92688802 0.6604,0.617996 0.99049,1.444096 0.99049,2.478229 v 1.702576 h -5.82139 v -3.405188 h -1.81921 v 8.5128803 h 1.81921 V 7.3101115 h 5.82139 z m 16.43363,3.4051845 h -5.45762 V 2.2023127 h -1.81931 v 5.9590868 l -2.24359,4.2564025 h -6.85239 l 6.36728,-11.91799432 h 10.00563 z M 112.27291,3.9049247 c 0,1.046797 -0.39423,1.876001 -1.18261,2.487683 -0.78829,0.6116098 -1.75521,0.9175038 -2.90051,0.9175038 h -2.72887 V 2.2023127 h -1.81921 V 12.417802 H 98.184097 V 0.49980768 h 10.005693 c 1.15891,0 2.11561,0.290018 2.8702,0.87019702 0.8085,0.63059 1.21292,1.475493 1.21292,2.53492"
       style="fill:#000000;fill-opacity:1;fill-rule:nonzero;stroke:none;stroke-width:0.352778"
       id="path54" />
  </g>
</svg>
