<?xml version="1.0" encoding="UTF-8" standalone="no"?>
<!-- Created with Inkscape (http://www.inkscape.org/) -->

<svg
   width="80mm"
   height="73mm"
   viewBox="0 0 80 73"
   version="1.1"
   id="svg284"
   xml:space="preserve"
   inkscape:version="1.2.2 (b0a8486541, 2022-12-01)"
   sodipodi:docname="logo-lumitrac80x73.svg"
   xmlns:inkscape="http://www.inkscape.org/namespaces/inkscape"
   xmlns:sodipodi="http://sodipodi.sourceforge.net/DTD/sodipodi-0.dtd"
   xmlns="http://www.w3.org/2000/svg"
   xmlns:svg="http://www.w3.org/2000/svg"><sodipodi:namedview
     id="namedview286"
     pagecolor="#505050"
     bordercolor="#ffffff"
     borderopacity="1"
     inkscape:showpageshadow="0"
     inkscape:pageopacity="0"
     inkscape:pagecheckerboard="1"
     inkscape:deskcolor="#505050"
     inkscape:document-units="mm"
     showgrid="false"
     inkscape:zoom="1.9779745"
     inkscape:cx="235.59455"
     inkscape:cy="132.71152"
     inkscape:window-width="2512"
     inkscape:window-height="1011"
     inkscape:window-x="0"
     inkscape:window-y="0"
     inkscape:window-maximized="1"
     inkscape:current-layer="layer1" /><defs
     id="defs281" /><g
     inkscape:label="Capa 1"
     inkscape:groupmode="layer"
     id="layer1"><g
       id="g818"
       transform="matrix(0.59097855,0,0,0.59097855,613.32988,-60.758586)"><g
         id="g2043"
         style="fill:#f9c501;fill-opacity:1"
         transform="matrix(0.26458333,0,0,0.26458333,-1037.2934,104.11401)"><path
           style="fill:#f9c501;fill-opacity:1;stroke:none;stroke-width:0.267068"
           d="m 174.60839,83.68268 -8.39347,-5.859484 -3.35753,2.308857 c -7.21659,4.96263 -12.22092,8.243687 -13.3147,8.729709 -1.72006,0.764331 -1.82449,0.45705 -1.00386,-2.953617 0.87505,-3.636779 3.44874,-12.472645 4.15467,-14.263594 0.80652,-2.046186 0.70666,-2.748432 -0.59101,-4.156219 -0.6167,-0.669058 -3.89657,-3.252774 -7.28863,-5.7416 -3.39205,-2.488903 -6.80788,-5.085496 -7.59073,-5.770343 -1.39703,-1.22207 -1.41165,-1.24997 -0.79019,-1.508502 0.36181,-0.150536 5.10582,-0.312953 11.06946,-0.3791 l 10.43629,-0.115661 3.15831,-8.852652 c 3.69433,-10.355023 3.98716,-11.07896 4.57254,-11.303537 0.75367,-0.289269 1.33901,0.882751 3.0248,6.056391 0.88546,2.71739 2.37916,6.983829 3.31935,9.480933 l 1.70943,4.540148 10.38134,0.156668 c 5.70974,0.08615 10.64929,0.26819 10.97678,0.404469 0.55256,0.229943 0.42098,0.391133 -1.82632,2.237499 -2.79183,2.293681 -9.6046,7.426469 -12.31771,9.280269 l -1.85369,1.266603 0.1798,1.472784 c 0.19183,1.571431 1.56074,7.031734 3.34871,13.357389 1.19763,4.237082 1.52134,7.267501 0.79043,7.399718 -0.22033,0.03986 -4.17766,-2.564401 -8.79407,-5.787128 z"
           id="path605" /><path
           style="fill:#f9c501;fill-opacity:1;stroke:none;stroke-width:0.267068"
           d="m 230.77097,64.536707 c 0.0826,-0.271563 1.2418,-3.978934 2.57605,-8.238704 3.47514,-11.094826 4.61061,-15.047469 4.44595,-15.476543 -0.2322,-0.605133 -3.37004,-3.098788 -9.52302,-7.56796 -6.28418,-4.564522 -9.08033,-6.726216 -9.08033,-7.020006 0,-0.485487 1.55686,-0.60659 10.28214,-0.799359 12.557,-0.277541 14.55522,-0.479661 14.55522,-1.472402 0,-1.270665 5.85947,-17.7162637 7.40976,-20.7967333 0.61998,-1.2319579 0.69023,-1.2875275 1.03333,-0.8183671 0.20247,0.276928 0.67678,1.5327233 1.05403,2.7906647 0.88723,2.9585998 4.28483,13.1512057 5.71755,17.1523677 l 1.1151,3.114118 11.53141,0.119417 c 6.34227,0.06592 11.80978,0.212774 12.15002,0.326825 l 0.61861,0.207256 -0.84275,0.869491 c -0.46351,0.478281 -4.73455,3.677018 -9.49121,7.108304 -4.75664,3.431362 -8.65179,6.421924 -8.65588,6.645659 -0.004,0.223811 0.95694,3.288415 2.13561,6.810298 2.33575,6.979153 4.6668,14.621002 4.95412,16.240873 l 0.18167,1.02432 -1.16903,-0.589574 c -2.07423,-1.046011 -5.82405,-3.434275 -12.84109,-8.178459 l -6.86484,-4.641246 -8.11641,5.468657 c -8.17755,5.509818 -11.59471,7.665303 -12.71653,8.021332 -0.50959,0.161803 -0.58498,0.112518 -0.45948,-0.300229 z"
           id="path607" /><path
           style="fill:#f9c501;fill-opacity:1;stroke:none;stroke-width:0.267068"
           d="m 319.60767,89.217561 c 7.6e-4,-1.051683 1.59989,-6.588633 3.74429,-12.967175 1.34674,-4.005914 2.38655,-7.445248 2.31066,-7.642998 -0.21839,-0.569109 -6.42147,-5.642725 -10.47827,-8.570436 -2.03538,-1.468875 -4.41945,-3.264883 -5.29793,-3.99112 l -1.59722,-1.320409 0.78506,-0.21653 c 0.94344,-0.260219 8.09706,-0.700713 15.58752,-0.959859 l 5.45506,-0.188783 2.45277,-6.810221 c 2.65233,-7.364384 4.5023,-11.930516 5.07606,-12.528904 0.30791,-0.321077 0.4593,-0.162186 1.01749,1.068315 0.36066,0.79499 1.9572,5.368786 3.54786,10.163863 l 2.89211,8.718289 10.95442,0.128768 c 6.02492,0.07052 11.30537,0.239831 11.73431,0.375497 l 0.7799,0.246805 -1.04697,0.84826 c -0.57583,0.466554 -3.81113,2.804002 -7.18954,5.194336 -3.37842,2.390334 -6.8937,5.072235 -7.81175,5.959892 -2.08472,2.01568 -2.09838,2.22945 -0.48319,7.559069 2.57947,8.511493 4.11514,14.591876 3.772,14.935027 -0.26759,0.267577 -4.61587,-2.328939 -11.129,-6.645429 l -6.83868,-4.53233 -3.30991,2.047106 c -1.82046,1.125878 -4.0911,2.67761 -5.04587,3.448302 -3.13663,2.531826 -9.88193,6.409737 -9.88118,5.680665 z"
           id="path609" /></g><path
         style="fill:#000000;stroke:none;stroke-width:0.0706617"
         d="m -1000.6389,182.09288 c 0,-0.61502 -0.3061,-6.56464 -0.342,-6.59934 -0.026,-0.025 -1.0328,-0.49624 -2.2376,-1.0472 -2.2501,-1.02895 -3.9428,-1.87502 -4.5605,-2.27936 -0.4982,-0.32618 -0.5043,-0.35208 -0.878,-3.72949 -0.1354,-1.22423 -0.3929,-3.32289 -0.5721,-4.66369 -0.4669,-3.49362 -0.4337,-3.83665 0.3988,-4.12503 0.3387,-0.11732 0.6816,-0.13674 2.9737,-0.1684 l 2.5908,-0.0358 -0.03,-0.22024 c -0.082,-0.59766 -0.2404,-2.36597 -0.2404,-2.68682 0,-0.46235 0.1086,-0.61449 0.6416,-0.89857 0.6503,-0.34662 0.6301,-0.21584 0.3544,-2.28779 -0.078,-0.58296 -0.2703,-2.20465 -0.4282,-3.60377 -0.8293,-7.34473 -1.2434,-9.87008 -1.8272,-11.14334 -0.4032,-0.87915 -0.8511,-1.2323 -2.9546,-2.32921 l -1.0697,-0.55777 -0.052,-1.92355 c -0.062,-2.33204 -0.025,-4.96625 0.072,-5.05822 0.183,-0.17392 4.4175,1.2706 6.3182,2.15531 1.9332,0.89987 3.60829,2.48044 4.52004,4.26512 0.60199,1.17835 0.85133,2.09264 1.06814,3.9166 0.0782,0.65787 0.15136,1.2053 0.16258,1.21651 0.0112,0.0112 0.55332,-0.15508 1.20468,-0.36953 0.88939,-0.29284 1.2651,-0.38463 1.50887,-0.36859 l 0.3246,0.0214 0.11717,0.42397 c 0.32038,1.15923 1.98854,4.05452 3.25742,5.65365 1.29822,1.63611 3.64853,3.69521 4.60202,4.03183 0.32893,0.11612 0.62253,0.0849 0.62253,-0.0662 0,-0.15441 -0.35738,-0.59278 -1.27493,-1.56381 -2.06716,-2.1877 -3.59899,-4.26868 -4.42127,-6.00626 -0.33897,-0.7163 -0.5927,-1.55811 -0.5927,-1.96644 0,-0.31642 0.17632,-0.72999 0.35111,-0.82354 0.45644,-0.24427 5.37478,-0.80891 8.62294,-0.98991 6.02473,-0.33575 16.84608,-0.36889 22.25848,-0.0682 1.72869,0.096 2.77335,0.1827 5.05232,0.4191 1.08819,0.11288 2.4873,0.24106 3.10912,0.28483 1.30323,0.0918 1.49225,0.13733 1.76928,0.4265 0.55612,0.58045 0.15858,1.98962 -1.15536,4.09553 -1.08702,1.74216 -2.48395,3.37697 -4.21567,4.93348 -1.39881,1.25726 -1.70078,1.55273 -1.64445,1.60907 0.10052,0.10051 0.86528,-0.13277 1.49823,-0.45702 1.14477,-0.58647 2.35731,-1.54972 3.79869,-3.0177 1.85159,-1.88579 2.95726,-3.6102 3.87001,-6.03565 0.24132,-0.64124 0.44596,-1.17356 0.45476,-1.18291 0.009,-0.009 0.66199,0.20614 1.45154,0.47888 0.78955,0.27272 1.45052,0.4809 1.46882,0.4626 0.0183,-0.0183 0.0902,-0.53589 0.1597,-1.15016 0.0695,-0.61429 0.19585,-1.38717 0.28073,-1.71753 0.41141,-1.60114 1.3525,-3.44209 2.21135,-4.32578 1.2213,-1.25661 4.28523,-2.88797 6.92929,-3.68942 1.17487,-0.35613 2.51528,-0.6873 2.59139,-0.64025 0.19343,0.11953 0.23129,0.66416 0.26035,3.74446 l 0.03,3.1798 -1.14811,0.60062 c -1.78546,0.93404 -2.18993,1.23191 -2.63875,1.9432 -0.31934,0.50608 -0.50164,0.99137 -0.73939,1.96833 -0.3863,1.58739 -0.67519,3.59999 -1.56774,10.92205 l -0.51185,4.19899 0.16997,0.11138 c 0.44783,0.29349 0.74842,0.56051 0.84492,0.75057 0.0824,0.16226 0.11099,0.55678 0.12842,1.77121 l 0.0224,1.56245 2.4154,0.0391 c 3.45331,0.0559 3.59474,0.11219 3.59073,1.42903 -0.002,0.69174 -0.95913,8.14122 -1.28452,9.99864 -0.23932,1.3662 -0.0851,1.18885 -1.71896,1.97702 -0.78226,0.37737 -2.34442,1.11011 -3.47148,1.62832 -1.12706,0.51823 -2.06974,0.96039 -2.09485,0.98261 -0.04,0.0354 -0.17199,2.39112 -0.31807,5.67568 l -0.0463,1.04228 h -1.9715 -1.9715 l 0.0378,-0.58296 c 0.0208,-0.32065 0.0555,-1.18714 0.0771,-1.92554 0.14663,-5.00967 0.60596,-10.44471 1.34522,-15.91765 0.38538,-2.85314 0.52263,-3.30411 1.4893,-4.89378 l 0.4521,-0.74347 -0.62992,-1.8357 c -1.21467,-3.53976 -1.61413,-4.51842 -1.87038,-4.58228 -0.68353,-0.17039 -11.47433,-0.31709 -27.25065,-0.37051 -13.57485,-0.0459 -20.4942,0.0184 -24.67744,0.22995 l -2.45429,0.12406 -0.70475,2.1235 c -1.30689,3.93781 -1.34019,4.37352 -0.43904,5.73715 0.75701,1.14546 0.76554,1.19048 1.31674,6.95029 0.43421,4.53742 0.64031,7.05809 0.95041,11.62388 0.11614,1.71 0.22855,3.32374 0.2498,3.58608 l 0.0386,0.47698 h -2.01436 c -1.87154,0 -2.01434,-0.009 -2.01394,-0.12367 z m 61.68656,-9.8143 c 0.56395,-0.21924 1.03164,-0.40304 1.03931,-0.40847 0.0424,-0.03 0.728,-9.24886 0.728,-9.78944 0,-0.19251 -0.01,-0.19691 -0.72428,-0.3178 -0.39835,-0.0674 -0.85125,-0.11158 -1.00643,-0.0981 -0.28033,0.0243 -0.28247,0.0268 -0.33233,0.37781 -0.073,0.51433 -0.24124,2.60397 -0.44647,5.54694 -0.0989,1.41854 -0.22661,3.09641 -0.28374,3.72858 -0.12001,1.32786 -0.1212,1.35907 -0.0517,1.35907 0.0287,0 0.51365,-0.17938 1.0776,-0.3986 z m -62.55396,-0.008 c 0.098,-0.35066 0.047,-4.30357 -0.077,-6.02392 -0.137,-1.8911 -0.3124,-3.82467 -0.3865,-4.26135 -0.05,-0.29578 -0.051,-0.29637 -0.3895,-0.31809 -0.4115,-0.0264 -1.3537,0.15926 -1.5883,0.31298 -0.1494,0.0979 -0.165,0.1477 -0.1265,0.40484 0.094,0.62555 0.2531,3.01472 0.3569,5.34553 0.06,1.34081 0.1278,2.79109 0.1512,3.22284 l 0.043,0.78501 0.4706,0.19765 c 0.7016,0.29464 1.3075,0.521 1.4056,0.52516 0.048,0.002 0.1114,-0.0838 0.1413,-0.19065 z m 1.67331,-21.07425 0.60687,-0.7413 -7.9e-4,-1.41389 c -10e-4,-2.36079 -0.13456,-8.20078 -0.21303,-9.32798 -0.17621,-2.5313 -0.49376,-3.49213 -1.58796,-4.80501 -0.5439,-0.65256 -0.9071,-0.97087 -1.6961,-1.4864 -1.109,-0.72472 -2.9243,-1.51674 -3.4763,-1.51674 -0.3206,0 -0.3747,0.10973 -0.3747,0.75959 0,0.92626 0.089,1.03198 1.8185,2.16468 0.6311,0.41322 1.3151,0.91907 1.5202,1.12414 1.0206,1.02062 1.406,2.5533 1.887,7.50481 0.1322,1.36139 0.7805,8.41548 0.7805,8.49299 0,0.10582 0.1942,-0.0934 0.73573,-0.75489 z m 58.15174,-1.4647 c 0.0256,-0.38012 0.14115,-2.42409 0.25666,-4.54219 0.30891,-5.66436 0.42014,-6.92166 0.71577,-8.09078 0.2058,-0.81385 0.48618,-1.3513 1.19887,-2.29804 0.34597,-0.4596 0.62904,-0.85618 0.62904,-0.88133 0,-0.0251 -0.2418,0.17118 -0.53733,0.43625 -1.0764,0.96544 -2.06147,2.53342 -2.39423,3.81098 -0.26632,1.02245 -0.54916,5.78531 -0.55973,9.42542 -0.007,2.41841 0.0174,2.60058 0.37398,2.78742 0.10137,0.0531 0.20366,0.0846 0.22732,0.07 0.0236,-0.0146 0.064,-0.33758 0.0897,-0.7177 z m -33.55518,0.47071 c 1.09432,-0.0946 2.03172,-0.28641 2.93289,-0.60007 2.38265,-0.82936 6.73306,-3.00373 10.45753,-5.22679 2.14457,-1.28004 4.56458,-2.84178 4.50141,-2.90497 -0.0691,-0.0691 -1.82593,-0.3079 -2.80552,-0.38134 -1.59388,-0.11948 -10.57231,-0.16899 -13.74373,-0.0758 -3.21706,0.0945 -4.21577,0.15956 -6.17532,0.40206 -3.53292,0.43719 -4.53232,0.77562 -4.98925,1.68946 -0.20727,0.41456 -0.21198,0.44754 -0.21198,1.48391 0,1.10565 0.11322,1.68879 0.45979,2.36814 0.45219,0.88637 1.41694,1.77214 2.49716,2.29278 1.67042,0.80509 4.45208,1.17951 7.07702,0.9526 z"
         id="path611" /><path
         style="fill:#000000;stroke:none;stroke-width:0.141324"
         d="m -995.72836,158.73791 -2.04919,-0.0871 0.0223,-0.66473 c 0.0362,-1.0776 1.30458,-4.83902 1.54927,-4.59432 0.0374,0.0374 -0.0306,0.81994 -0.15119,1.73904 -0.12053,0.91908 -0.21915,1.785 -0.21915,1.92426 0,0.2353 0.209,0.25317 2.95931,0.25317 h 2.95931 l 1.66904,-1.57226 c 2.16291,-2.03752 2.69811,-2.38479 3.67524,-2.38479 0.46958,0 0.74961,0.0606 0.74961,0.16209 0,0.20848 -0.79991,1.18687 -2.04114,2.49657 l -0.98122,1.03536 3.2712,-0.0451 3.27119,-0.0451 0.5365,-0.51502 c 0.83306,-0.79977 3.15893,-2.53314 3.78694,-2.82227 0.59162,-0.27237 2.25018,-0.37158 2.39143,-0.14305 0.0875,0.14163 -0.85805,1.05383 -2.63805,2.54496 -0.67973,0.56941 -1.20065,1.09232 -1.15758,1.162 0.0431,0.0697 0.70326,0.12669 1.4671,0.12669 h 1.38879 l 0.82871,-0.57057 c 0.4558,-0.31381 1.36928,-1.02112 2.02997,-1.57181 0.66069,-0.5507 1.55103,-1.16838 1.97853,-1.37264 l 0.77728,-0.37138 4.87567,-0.0393 c 2.68161,-0.0216 5.33999,0.0101 5.90749,0.0707 l 1.03182,0.10994 -1.45579,1.19827 c -1.71768,1.41382 -2.9397,2.53976 -2.9397,2.70863 0,0.22109 0.99301,0.12468 1.52486,-0.14804 0.43862,-0.22492 1.72775,-1.29007 4.3285,-3.57646 l 0.43555,-0.38291 3.8864,0.008 c 2.13752,0.005 4.04372,0.0522 4.23601,0.10574 0.33178,0.0924 0.28515,0.15838 -0.91434,1.29316 -0.69518,0.65767 -1.47256,1.39609 -1.72752,1.64093 -0.5298,0.50877 -0.60511,0.89739 -0.1739,0.89739 0.47454,0 1.01214,-0.34629 2.95626,-1.90424 2.0056,-1.60723 2.33927,-1.82872 2.55443,-1.69575 0.40106,0.24788 1.90179,4.04371 1.80339,4.56137 -0.036,0.1894 -0.26837,0.26013 -1.10419,0.33606 -1.37326,0.12478 -48.60993,0.24656 -51.29916,0.13224 z"
         id="path613" /><path
         style="fill:#000000;stroke:none;stroke-width:0.141324"
         d="m -992.97254,225.1357 c -7.60966,-0.14938 -8.20056,-0.22523 -9.19166,-1.17994 -0.7807,-0.75201 -0.9307,-1.28875 -1.0157,-3.6345 l -0.07,-1.9252 -1.1591,-0.64542 -1.1591,-0.64542 -0.312,-4.84887 c -0.43,-6.68409 -0.4274,-6.75675 0.2456,-6.75675 0.2094,0 0.4569,-0.0763 0.5502,-0.16958 0.2372,-0.23721 0.2189,-3.16471 -0.052,-8.28762 -0.1218,-2.30519 -0.1819,-4.45882 -0.1335,-4.78585 0.1047,-0.70786 0.551,-1.13377 1.869,-1.78368 l 0.8886,-0.4382 v -2.57347 -2.57348 l 0.9893,-0.8792 c 0.7927,-0.7045 0.9892,-0.96016 0.9892,-1.28659 v -0.40737 l 1.94324,0.0393 1.9432,0.0393 0.10805,2.33184 c 0.0594,1.28253 0.15482,2.61803 0.21198,2.96781 0.10016,0.61279 0.12196,0.63595 0.59857,0.63595 0.48251,0 0.49572,-0.015 0.5387,-0.61301 0.0752,-1.04674 -1.53718,-25.52023 -1.76029,-26.71783 l -0.0893,-0.47933 25.56374,0.0901 c 14.06005,0.0496 25.93424,0.13046 26.38708,0.17976 l 0.82334,0.0896 -0.0812,0.6529 c -0.36803,2.95986 -1.52749,20.82455 -1.54661,23.82998 l -0.0189,2.96779 0.45038,0.0436 c 0.41333,0.04 0.46301,0 0.60418,-0.49464 0.0846,-0.29602 0.188,-1.52398 0.22978,-2.72875 0.10966,-3.16238 -0.14112,-2.82649 2.11013,-2.82649 h 1.90517 l 0.004,0.60063 c 0.004,0.58079 0.0352,0.62137 0.93606,1.22872 l 0.93157,0.62811 -0.0907,1.49175 c -0.0499,0.82048 -0.12916,1.98017 -0.17615,2.57712 l -0.0854,1.08535 1.59339,0.79912 1.59339,0.79913 -0.0918,3.1325 c -0.0505,1.72288 -0.16543,4.76206 -0.25541,6.75373 -0.09,1.99164 -0.12391,3.72463 -0.0754,3.85107 0.0519,0.13514 0.25017,0.23074 0.48129,0.23202 0.8508,0.005 0.83408,-0.15271 0.49042,4.61706 -0.17257,2.39515 -0.35309,4.96272 -0.40117,5.70569 l -0.0874,1.35085 -0.888,0.46041 c -1.17309,0.60821 -1.36429,1.00498 -1.44841,3.00571 -0.058,1.37878 -0.0412,1.51062 0.2016,1.58194 0.30257,0.0889 3.94931,0.32285 6.97773,0.44766 3.07855,0.12686 11.26749,0.59161 18.72538,1.06273 3.65322,0.23076 6.8966,0.4263 7.20751,0.43451 l 0.5653,0.015 -0.49464,0.11679 c -2.5067,0.59182 -68.47436,1.21844 -87.97398,0.83564 z m -0.63596,-2.26257 c 0,-0.0828 -0.0674,-0.27657 -0.1498,-0.43052 -0.0824,-0.15394 -0.20807,-0.63793 -0.27929,-1.07555 -0.24449,-1.50218 -0.69567,-1.32978 -0.69934,0.26723 -10e-4,0.5183 0.0364,1.04296 0.0836,1.16591 0.0974,0.25391 1.04481,0.32004 1.04481,0.0729 z m 2.9678,0.068 c 0,-0.0454 -0.28228,-0.44291 -0.62728,-0.88328 -0.75824,-0.96785 -0.92728,-1.38448 -0.92728,-2.28542 0,-0.37901 -0.0636,-0.72839 -0.14133,-0.77643 -0.0902,-0.0558 -0.1401,0.36282 -0.13795,1.15758 0.003,1.28874 0.15524,2.23734 0.39652,2.47863 0.21674,0.21673 1.43732,0.47907 1.43732,0.30892 z m 44.03147,-0.10229 c 0.039,-0.10168 0.0529,-0.94433 0.0309,-1.87255 l -0.04,-1.68765 -0.42186,1.69589 c -0.23202,0.93274 -0.44337,1.77538 -0.46966,1.87254 -0.0654,0.24182 0.80779,0.23383 0.90067,-0.008 z m -2.39958,-0.29024 c 0.0406,-0.10586 0.0545,-0.55907 0.0309,-1.00713 l -0.043,-0.81466 -0.89397,1.00713 -0.89396,1.00713 h 0.86307 c 0.59793,0 0.88576,-0.0591 0.93693,-0.19247 z m -8.18769,-1.52512 c -0.0505,-0.71149 -0.0918,-1.67524 -0.0918,-2.1417 v -0.84805 l -3.6102,0.0994 c -1.98561,0.0547 -3.74627,0.14976 -3.91257,0.21129 -0.19068,0.0705 -0.3586,0.31592 -0.45461,0.66435 -0.12008,0.43579 -0.27129,0.6122 -0.71578,0.83513 -0.52264,0.26214 -0.8456,0.28266 -4.44994,0.28266 -2.13752,0 -4.12843,-0.0513 -4.42425,-0.11387 -0.65671,-0.13906 -1.08737,-0.54311 -1.08737,-1.02023 0,-0.24836 -0.10496,-0.39671 -0.3454,-0.48811 -0.52958,-0.20136 -3.46213,-0.42391 -5.60709,-0.42553 l -1.92477,-0.002 -0.0697,1.9432 c -0.0383,1.06876 -0.0414,1.975 -0.007,2.01388 0.0995,0.11184 7.94063,0.22429 17.76164,0.25469 l 9.03054,0.0279 z m 18.10155,-5.1796 c 0.48466,-0.0596 0.94188,-0.16968 1.01603,-0.24465 0.0741,-0.075 0.23757,-1.63083 0.36317,-3.45742 0.12559,-1.82661 0.28281,-3.63909 0.34938,-4.02773 0.0666,-0.38864 0.11026,-0.7177 0.0971,-0.73125 -0.0371,-0.0382 -8.37728,0.90685 -9.49045,1.07537 -0.5441,0.0824 -2.19188,0.35263 -3.66173,0.60057 l -2.67246,0.45079 -0.57799,-0.6497 c -0.31789,-0.35735 -1.15096,-1.27549 -1.85127,-2.04032 -0.70031,-0.76484 -1.4388,-1.60436 -1.64109,-1.86561 l -0.36779,-0.47499 -0.76898,0.22355 c -0.42294,0.12295 -2.15871,0.93134 -3.85728,1.79639 l -3.08829,1.57283 -5.73687,-0.0601 -5.73687,-0.0601 -1.13059,-0.66358 c -1.19961,-0.70407 -4.86553,-2.53358 -5.41369,-2.70174 -0.28135,-0.0863 -0.51379,0.099 -1.69589,1.35223 -0.75341,0.79874 -1.8282,1.92568 -2.38842,2.5043 -1.17691,1.21558 -0.71752,1.15744 -4.28106,0.54183 -2.15327,-0.37197 -6.4843,-0.94288 -9.82201,-1.29471 -2.3742,-0.25028 -2.3321,-0.27443 -2.3313,1.33452 5e-4,1.20808 0.2333,5.19896 0.3705,6.35266 l 0.091,0.76205 31.67297,-0.0934 c 17.42017,-0.0514 32.06959,-0.14216 32.55426,-0.20177 z m -49.58655,-8.84569 c 0.26142,-0.13778 1.32665,-1.04729 2.36717,-2.02112 l 1.89187,-1.77062 -0.002,-9.06407 c -7.9e-4,-4.98523 -0.0423,-9.31069 -0.0921,-9.61211 -0.0838,-0.50739 -0.19116,-0.61311 -1.44701,-1.42511 -1.66745,-1.07811 -6.48431,-3.95574 -7.16424,-4.27997 -0.43362,-0.20679 -0.51598,-0.21073 -0.63843,-0.0306 -0.1552,0.22831 -0.0447,5.78914 0.15958,8.02992 0.17385,1.90709 0.45118,2.37938 3.05078,5.19522 3.04387,3.29707 4.98083,5.70705 4.58688,5.70705 -0.24764,0 -2.67192,-1.70808 -5.23745,-3.69018 -3.64282,-2.81437 -4.62097,-3.51733 -4.89432,-3.51733 -0.13512,0 -1.80157,0.76597 -3.70323,1.70216 l -3.4575,1.70215 0.097,3.20884 c 0.1027,3.39212 0.3605,8.68808 0.426,8.75363 0.032,0.0323 2.081,0.29633 10.54258,1.3587 1.11767,0.14033 3.03496,0.006 3.51377,-0.24656 z m 41.99245,-0.0871 c 4.96928,-0.58544 7.94567,-0.97195 8.01449,-1.04076 0.22585,-0.22585 0.71034,-11.77041 0.50266,-11.97804 -0.0596,-0.0596 -1.50535,-0.77931 -3.21274,-1.59936 -3.60861,-1.73318 -3.79735,-1.77023 -5.08022,-0.99774 -0.45052,0.27129 -2.00487,1.43863 -3.45412,2.5941 -1.44925,1.15546 -3.01657,2.35691 -3.48294,2.66988 -0.95064,0.63796 -2.04919,1.21952 -2.04919,1.08482 0,-0.21877 2.04099,-2.66069 4.76806,-5.70469 l 2.96928,-3.31437 0.10305,-4.26857 c 0.10623,-4.40064 0.0561,-5.3479 -0.29012,-5.48076 -0.29288,-0.11239 -0.4041,-0.0567 -3.73453,1.86939 -3.22259,1.86374 -3.95008,2.32192 -4.911,3.09301 l -0.60063,0.48197 v 9.22982 9.22981 l 1.82162,1.76489 c 2.04669,1.98294 2.64636,2.47598 3.22152,2.64862 0.6909,0.20738 1.71199,0.15419 5.41481,-0.28202 z m -15.38425,-2.50674 2.94631,-1.51923 5.3e-4,-5.14802 c 5.3e-4,-2.83143 0.0703,-7.65338 0.15543,-10.71545 0.0851,-3.06209 0.12403,-5.59808 0.0865,-5.63558 -0.1074,-0.1074 -6.58476,-1.84055 -8.40198,-2.24811 -2.45864,-0.55142 -3.57858,-0.64552 -4.91171,-0.41263 -1.96766,0.34372 -8.48459,2.05793 -9.60773,2.52722 -0.41979,0.1754 -0.48823,0.27965 -0.57843,0.88113 -0.11349,0.75684 0.0374,17.96057 0.17351,19.78418 l 0.086,1.15262 2.91411,1.41992 2.91412,1.41992 5.63837,0.007 5.63837,0.007 2.94631,-1.51921 z m -22.32233,-23.56512 c 0.0537,-0.37538 0.21272,-0.79566 0.35338,-0.93392 0.39012,-0.38351 11.32394,-3.07783 13.00855,-3.20555 0.46058,-0.035 1.42174,0.0858 2.54383,0.3195 2.87926,0.59971 10.66319,2.60325 11.01858,2.83612 0.25275,0.1656 0.32477,0.34427 0.32646,0.80985 0.003,0.77989 0.15687,1.01234 0.59755,0.90173 0.41477,-0.10409 1.04454,-1.22517 1.52058,-2.70687 0.50178,-1.56176 0.46676,-1.53655 4.92407,-3.547 2.98378,-1.34584 3.55257,-1.68853 3.55395,-2.14127 5.3e-4,-0.19414 -0.0848,-0.31799 -0.21928,-0.31799 -0.12113,0 -1.21815,0.31195 -2.43783,0.6932 -4.33689,1.35566 -4.88724,1.4776 -6.59863,1.46199 -1.68299,-0.0154 -3.65916,-0.24322 -7.63148,-0.87996 -4.12578,-0.66134 -5.27808,-0.75657 -8.05545,-0.6658 -1.79082,0.0585 -3.33866,0.20906 -5.22897,0.50855 -4.3957,0.69641 -6.23651,0.88969 -8.62075,0.90519 -2.57898,0.0166 -2.89246,-0.0367 -6.55209,-1.11628 -2.84962,-0.84065 -3.1739,-0.89484 -3.10224,-0.51825 0.10317,0.54216 2.03354,1.52674 6.05058,3.08613 l 1.90787,0.74061 0.50697,1.39007 c 0.27884,0.76455 0.61041,1.58914 0.73682,1.83244 0.33498,0.64471 0.95706,1.3443 1.14087,1.28303 0.0875,-0.0292 0.20297,-0.36014 0.25666,-0.73552 z m 28.68324,-7.5479 c 0.58927,-0.46352 3.09381,-5.69373 3.86389,-8.06897 0.13861,-0.42749 0.52986,-1.37571 0.86945,-2.10714 0.3396,-0.73145 0.59191,-1.35541 0.5607,-1.38662 -0.0598,-0.0598 -3.63255,0.18578 -4.7955,0.32964 -0.45221,0.0559 -0.70835,0.16254 -0.76166,0.31696 -0.59748,1.73076 -1.90526,4.75429 -3.04896,7.04905 -0.78378,1.57263 -1.37634,2.90803 -1.31679,2.96757 0.14589,0.14592 0.42777,-0.25195 1.07441,-1.51651 1.12817,-2.20621 1.31913,-2.01507 0.35201,0.35234 -0.34906,0.85446 -0.63466,1.62923 -0.63466,1.72168 0,0.22304 0.40118,0.3393 1.61132,0.46694 1.62844,0.17177 1.86552,0.15845 2.22579,-0.12494 z m -26.25189,-0.28422 c 0.31915,-0.14626 1.18443,-0.82362 1.92285,-1.50528 2.59166,-2.39242 7.85354,-7.39593 8.83273,-8.39902 l 0.98927,-1.01342 -1.21245,0.0472 c -1.17017,0.0456 -1.23915,0.0675 -1.97853,0.62701 -0.42135,0.31888 -2.22964,1.94057 -4.01843,3.60376 -1.78879,1.6632 -4.22132,3.90537 -5.40563,4.98258 -1.18431,1.07722 -2.15329,1.99285 -2.15329,2.03471 0,0.17923 2.48587,-0.13121 3.02348,-0.37759 z m -5.17071,-0.54192 c 0.4795,-0.29148 1.61985,-1.20335 2.53412,-2.0264 1.99263,-1.79382 8.09253,-7.7461 8.09253,-7.89669 0,-0.0585 -1.31961,-0.14798 -2.93246,-0.19889 -1.61286,-0.0509 -3.54189,-0.1309 -4.28673,-0.17779 l -1.35427,-0.0852 -3.04614,3.23163 c -4.11027,4.36058 -4.91527,5.3021 -4.91527,5.74899 0,0.4992 0.37546,0.72733 2.11986,1.28808 2.52417,0.81139 2.63912,0.81492 3.78836,0.1163 z m 37.79311,-0.72228 c 0.13436,-0.12839 0.37268,-0.73546 0.5296,-1.34902 0.49982,-1.95426 0.84435,-4.87946 0.5245,-4.45314 -0.0243,0.0324 -0.38279,1.01283 -0.79664,2.17875 -0.41386,1.16592 -0.87449,2.46222 -1.02363,2.88069 -0.14914,0.41845 -0.23613,0.85209 -0.19332,0.96367 0.0934,0.24334 0.59437,0.12797 0.95949,-0.22095 z"
         id="path615" /><path
         style="fill:#f9c501;fill-opacity:1;stroke:none;stroke-width:0.141324"
         d="m -1027.8795,224.20293 c -4.1973,-0.10566 -7.7905,-0.23194 -7.9848,-0.28061 -0.3532,-0.0885 -0.3532,-0.0885 0.076,-0.20705 0.83,-0.22941 18.1495,-2.95092 21.4056,-3.36359 0.6607,-0.0837 2.9184,-0.34338 5.017,-0.57698 2.0987,-0.2336 3.9906,-0.46173 4.2044,-0.50693 l 0.3886,-0.0822 v 0.98282 c 0,0.54055 -0.038,1.17332 -0.085,1.40613 l -0.085,0.4233 -1.7879,0.0958 c -3.0525,0.16352 -7.5425,0.5089 -8.4134,0.64719 -1.3686,0.21729 -1.308,0.32143 0.4234,0.72743 0.6907,0.16195 1.6056,0.39332 2.0331,0.51415 l 0.7773,0.21967 -0.5653,0.10935 c -0.8019,0.15512 -6.5387,0.11474 -15.4043,-0.10842 z"
         id="path617" /><path
         style="fill:#000000;stroke:none;stroke-width:0.141324"
         d="m -974.81245,204.08075 c -0.34978,-0.0625 -1.74888,-0.62543 -3.10912,-1.25089 l -2.47317,-1.13718 -0.0907,-2.01826 c -0.15911,-3.54224 -0.31026,-15.27767 -0.2057,-15.97095 0.12053,-0.79926 -0.32761,-0.62983 5.61321,-2.12235 l 4.04494,-1.01622 1.32536,0.25074 c 1.79702,0.33997 6.03647,1.40999 7.70832,1.94553 l 1.36487,0.43722 -0.0932,6.38092 c -0.0512,3.50952 -0.13487,7.65787 -0.18581,9.21858 l -0.0926,2.83762 -2.74486,1.29609 -2.74487,1.2961 -3.84036,-0.0166 c -2.1122,-0.009 -4.12655,-0.0678 -4.47632,-0.13032 z m 4.54038,-1.21735 c 0.28829,-0.34737 0.28829,-19.3945 0,-19.74188 -0.28587,-0.34445 -0.57025,-0.28507 -0.74213,0.15494 -0.21101,0.54021 -0.21064,18.89029 5.3e-4,19.432 0.17142,0.44001 0.45584,0.49941 0.74173,0.15494 z m -4.93304,-0.54358 c 0.0673,-0.23317 0.0834,-1.4097 0.0358,-2.61447 -0.0476,-1.2048 -0.13768,-5.04109 -0.2002,-8.5251 -0.0763,-4.25338 -0.16447,-6.38537 -0.2683,-6.48918 -0.11195,-0.11196 -0.18516,-0.0799 -0.26525,0.11633 -0.14472,0.35446 -0.14433,17.10896 5.3e-4,17.62782 0.14445,0.51776 0.53347,0.45341 0.69755,-0.1154 z m 9.61001,0.10601 c 0.12032,-0.28232 0.16451,-2.59248 0.16152,-8.4441 -0.004,-7.69982 -0.0671,-9.4924 -0.32897,-9.33057 -0.15974,0.0987 -0.25221,2.27958 -0.44681,10.53784 -0.12681,5.38123 -0.12635,7.07374 0.002,7.3135 0.22308,0.41683 0.41204,0.39316 0.61229,-0.0767 z"
         id="path619" /><path
         style="fill:#000000;stroke:none;stroke-width:0.0249828"
         d="m -990.78039,206.16694 c -0.055,-0.005 -0.27418,-0.0217 -0.48716,-0.0367 -1.6173,-0.11333 -6.20574,-0.68053 -8.07332,-0.99801 -0.84573,-0.14376 -2.19213,-0.38908 -2.20423,-0.40164 -0.021,-0.0213 -0.2899,-2.44315 -0.3138,-2.82131 -0.064,-1.01668 -0.054,-2.57615 0.024,-3.72242 0.039,-0.57519 0.1716,-2.04928 0.2137,-2.38197 0.075,-0.59117 0.174,-0.88644 0.3247,-0.96663 0.1213,-0.0645 0.4982,-0.0442 0.8681,0.047 1.46478,0.36075 4.29249,1.3345 5.39381,1.85741 0.20245,0.0961 0.4109,0.18051 0.46321,0.18753 0.28641,0.0384 0.18132,-0.28138 -0.42855,-1.30403 -0.46926,-0.78685 -0.81131,-1.53144 -0.85514,-1.86149 -0.0118,-0.0892 -0.005,-0.1251 0.0331,-0.17207 0.0437,-0.0539 0.0558,-0.0567 0.13374,-0.0308 0.37432,0.12489 1.66664,1.47241 2.7484,2.86581 0.80217,1.03325 1.22283,1.71211 1.90287,3.07083 0.6801,1.35884 1.37699,2.97818 1.74116,4.0459 0.22153,0.64952 0.28401,0.90744 0.28175,1.163 -0.004,0.47749 -0.26974,1.14268 -0.52258,1.30924 -0.15441,0.10172 -0.35721,0.14155 -0.76957,0.15116 -0.20611,0.005 -0.41971,0.004 -0.47467,0 z m -0.1291,-2.96657 c 0.057,-0.0655 0.0444,-0.13951 -0.0644,-0.37808 -0.13856,-0.3037 -0.49366,-0.96681 -0.63043,-1.17725 -0.53818,-0.82808 -1.49487,-1.60027 -2.77796,-2.24227 -0.36209,-0.18116 -0.5502,-0.26572 -1.22884,-0.55246 -0.61515,-0.25988 -1.10832,-0.48941 -2.15192,-1.00151 -1.33999,-0.65753 -1.66624,-0.78671 -1.98459,-0.78578 -0.1612,0 -0.24025,0.0406 -0.29507,0.14987 -0.083,0.1651 -0.062,0.23486 0.1249,0.42952 0.66619,0.69199 3.93861,2.99976 6.25193,4.40895 1.38418,0.84319 1.94673,1.11551 2.51076,1.21536 0.0911,0.016 0.19924,-0.0132 0.24564,-0.0663 z"
         id="path621" /><path
         style="fill:#000000;stroke:none;stroke-width:0.0499655"
         d="m -951.59176,206.07607 c -0.17634,-0.0847 -0.30402,-0.19242 -0.39972,-0.33717 -0.12864,-0.19454 -0.14049,-0.25131 -0.13906,-0.66582 0.002,-0.52717 0.0881,-0.88771 0.52101,-2.17695 1.07025,-3.18736 2.84764,-6.16387 4.99349,-8.36235 0.60281,-0.61762 1.06037,-0.98119 1.23477,-0.98119 0.29571,0 0.0828,0.59405 -0.66321,1.85021 -0.79095,1.33191 -0.8658,1.49746 -0.67699,1.49746 0.15579,0 1.46533,-0.46138 3.75803,-1.32406 1.83527,-0.69057 2.28213,-0.84108 2.55948,-0.86215 0.32667,-0.0248 0.34011,-0.0211 0.48346,0.13232 0.22317,0.23892 0.3038,0.68892 0.36356,2.02892 0.10019,2.24665 -0.0367,7.54208 -0.20181,7.80821 -0.0941,0.15161 -9.43865,1.41772 -10.9993,1.49032 -0.53887,0.025 -0.59072,0.019 -0.83371,-0.0978 z m 2.18277,-3.04621 c 0.23359,-0.0949 0.66182,-0.30738 0.95162,-0.47228 2.14331,-1.21937 6.50081,-4.28883 7.20525,-5.0754 0.15644,-0.17468 0.18398,-0.43108 0.0576,-0.53599 -0.13026,-0.10811 -0.79461,0.15042 -2.1936,0.85368 -0.68702,0.34534 -1.71006,0.82651 -2.27343,1.06924 -2.31292,0.99657 -3.21661,1.58894 -3.8431,2.51919 -0.31542,0.46836 -0.80317,1.50169 -0.80345,1.70215 l -2e-4,0.16936 0.23733,-0.0287 c 0.13054,-0.0158 0.42846,-0.10635 0.66205,-0.20121 z"
         id="path623" /><path
         style="fill:#000000;stroke:none;stroke-width:0.0499655"
         d="m -941.76427,214.30567 c -0.0962,-0.009 -0.29386,-0.0411 -0.43928,-0.071 -0.31674,-0.0652 -0.31719,-0.0584 0.0469,-0.72088 0.43733,-0.7958 0.73665,-1.44256 0.82695,-1.78687 0.0863,-0.32897 0.0861,-0.3379 -0.0109,-0.43469 -0.1595,-0.15932 -0.66451,-0.19965 -2.52227,-0.2015 -2.57795,-0.003 -4.24706,-0.12127 -4.24706,-0.30204 0,-0.12594 0.69181,-0.23657 3.12284,-0.49935 2.59229,-0.28023 4.56265,-0.54697 5.37936,-0.72824 0.10778,-0.0239 0.15041,-0.003 0.22485,0.1109 0.0836,0.12783 0.0915,0.25944 0.0878,1.46647 -0.005,1.53365 -0.0821,2.19803 -0.30847,2.6479 -0.17814,0.35398 -0.3189,0.44968 -0.74137,0.50411 -0.33026,0.0426 -1.04918,0.0502 -1.41941,0.0152 z"
         id="path625" /><path
         style="fill:#000000;stroke:none;stroke-width:0.0499655"
         d="m -977.68944,214.78464 c -5.19565,-0.0436 -5.92265,-0.0938 -6.82678,-0.47142 -0.97239,-0.40613 -1.10089,-0.43931 -1.59239,-0.41134 -0.27159,0.0154 -0.78613,0.10621 -1.29911,0.22914 -1.047,0.25088 -1.72925,0.37163 -1.78495,0.31594 -0.10042,-0.10043 0.50683,-1.03544 1.46883,-2.26161 1.74125,-2.21939 3.60603,-4.20338 4.39644,-4.67749 0.36867,-0.22113 0.43462,-0.24103 0.47245,-0.14245 0.0561,0.14626 -0.32273,0.81387 -1.21393,2.13923 -0.47605,0.70796 -0.86555,1.30015 -0.86555,1.31596 0,0.0463 28.0361,-0.0158 28.24678,-0.0625 l 0.19117,-0.0424 -0.32111,-0.52464 c -0.17661,-0.28856 -0.55818,-0.89092 -0.84795,-1.3386 -0.52831,-0.81626 -0.97863,-1.63444 -0.92764,-1.68542 0.16701,-0.16703 4.46863,4.20627 5.69237,5.78721 0.35648,0.46053 0.80582,1.17405 0.86853,1.37918 l 0.0367,0.12014 -0.31676,-0.0331 c -0.17421,-0.0182 -0.79308,-0.14536 -1.37526,-0.28253 -1.51743,-0.35757 -1.68166,-0.35027 -2.71444,0.12082 -0.55268,0.2521 -0.96104,0.3536 -1.72631,0.42908 -1.36774,0.13488 -9.96021,0.17739 -19.56112,0.0968 z"
         id="path627" /><path
         style="fill:#000000;stroke:none;stroke-width:0.0249828"
         d="m -1000.8484,214.32463 c -0.5568,-0.0266 -0.6984,-0.0945 -0.847,-0.40575 -0.3548,-0.74327 -0.6002,-2.48595 -0.5217,-3.70512 0.046,-0.72342 0.066,-0.73869 0.7441,-0.58945 1.1337,0.24942 3.65665,0.58107 6.2207,0.81776 1.25078,0.11545 1.80701,0.19608 2.04846,0.29697 0.16467,0.0688 0.0996,0.12555 -0.21677,0.18915 -0.60465,0.12154 -1.3453,0.15119 -4.17382,0.16708 -2.10785,0.0118 -2.49207,0.0195 -2.49207,0.0488 0,0.019 0.051,0.23976 0.11326,0.49024 0.17749,0.71395 0.31417,1.08585 0.71825,1.95437 0.1847,0.397 0.26168,0.60154 0.23603,0.62719 -0.0421,0.0421 -0.39262,0.0861 -0.86763,0.10888 -0.28171,0.0136 -0.52901,0.0231 -0.54961,0.0212 -0.021,-0.002 -0.2061,-0.0116 -0.4122,-0.0213 z"
         id="path629" /><path
         style="fill:#000000;stroke:none;stroke-width:0.0499655"
         d="m -986.47662,192.91552 c -0.21184,-0.39628 -0.31811,-1.42911 -0.55567,-5.40024 -0.0548,-0.91591 -0.111,-1.68372 -0.12492,-1.70623 -0.0139,-0.0225 -0.55939,-0.45151 -1.21216,-0.95329 -2.35859,-1.81302 -3.35018,-2.65526 -3.29862,-2.80178 0.0645,-0.18325 0.8514,0.0924 2.36158,0.82709 1.62073,0.78853 2.59843,1.36482 3.08284,1.81716 0.41701,0.38941 0.41518,0.37568 0.41193,3.08334 -0.002,1.83763 -0.0214,2.53312 -0.0885,3.19779 -0.15488,1.53606 -0.38223,2.29961 -0.57652,1.93616 z"
         id="path631" /><path
         style="fill:#000000;stroke:none;stroke-width:0.0499655"
         d="m -955.07269,192.55797 c -0.26797,-0.49235 -0.37882,-2.19651 -0.38098,-5.8573 l -10e-4,-1.93033 0.66204,-0.42335 c 1.31992,-0.84405 3.3212,-1.96592 4.13457,-2.31773 0.39416,-0.17049 0.84949,-0.27641 0.84949,-0.19761 0,0.30418 -1.18325,1.35773 -3.45569,3.0769 l -0.82556,0.62457 -0.0861,1.19918 c -0.22402,3.12093 -0.48328,5.56206 -0.63236,5.95414 -0.0647,0.17013 -0.11511,0.14563 -0.26429,-0.12847 z"
         id="path633" /></g></g></svg>
