<?xml version="1.0" encoding="UTF-8" standalone="no"?>
<!-- Created with Inkscape (http://www.inkscape.org/) -->

<svg
   width="174mm"
   height="51mm"
   viewBox="0 0 174 51"
   version="1.1"
   id="svg5"
   inkscape:version="1.2.2 (b0a8486541, 2022-12-01)"
   sodipodi:docname="logo-web-lumitrac-blanco.svg"
   xmlns:inkscape="http://www.inkscape.org/namespaces/inkscape"
   xmlns:sodipodi="http://sodipodi.sourceforge.net/DTD/sodipodi-0.dtd"
   xmlns="http://www.w3.org/2000/svg"
   xmlns:svg="http://www.w3.org/2000/svg">
  <sodipodi:namedview
     id="namedview7"
     pagecolor="#505050"
     bordercolor="#ffffff"
     borderopacity="1"
     inkscape:showpageshadow="0"
     inkscape:pageopacity="0"
     inkscape:pagecheckerboard="1"
     inkscape:deskcolor="#505050"
     inkscape:document-units="mm"
     showgrid="false"
     inkscape:zoom="3.955949"
     inkscape:cx="187.31283"
     inkscape:cy="117.92366"
     inkscape:window-width="2512"
     inkscape:window-height="1011"
     inkscape:window-x="0"
     inkscape:window-y="0"
     inkscape:window-maximized="1"
     inkscape:current-layer="layer1" />
  <defs
     id="defs2" />
  <g
     inkscape:label="Capa 1"
     inkscape:groupmode="layer"
     id="layer1">
    <g
       id="g909"
       style="fill:#ffffff"
       transform="matrix(0.09290083,0,0,0.09290083,-8.278463,3.5307654)">
      <path
         style="fill:#ffffff;stroke:none;stroke-width:1.06828"
         d="M 483.18669,236.03501 V 148.9707 h 29.37751 29.37753 v 87.06431 87.06431 H 512.5642 483.18669 Z"
         id="path589" />
      <path
         style="fill:#ffffff;stroke:none;stroke-width:1.06828"
         d="M 550.48791,305.47281 V 287.8463 h 14.4217 14.42168 v -10.68277 -10.68277 h 26.1727 26.1727 v 28.30928 28.30928 H 591.0823 550.48791 Z"
         id="path591" />
      <path
         style="fill:#ffffff;stroke:none;stroke-width:1.06828"
         d="m 666.11637,305.72805 -17.34731,-17.3712 V 218.66374 148.9707 h 28.84338 28.84339 v 69.4378 69.4378 h 10.68273 10.68273 v 17.62651 17.62651 h -22.17881 -22.17881 z"
         id="path593" />
      <path
         style="fill:#ffffff;stroke:none;stroke-width:1.06828"
         d="M 737.43575,305.47281 V 287.8463 h 10.68274 10.68274 v -69.4378 -69.4378 h 28.84338 28.84338 v 69.71703 69.71695 l -17.37123,17.34728 -17.37124,17.34736 h -22.15488 -22.15489 z"
         id="path595" />
      <path
         style="fill:#ffffff;stroke:none;stroke-width:1.06828"
         d="m 846.39962,246.78078 c 0,-41.97517 0.39267,-76.56113 0.87248,-76.85775 0.47989,-0.29655 12.73831,19.35123 27.24096,43.66173 l 26.36856,44.20086 v 32.65681 32.65689 h -27.24104 -27.24096 z"
         id="path597" />
      <path
         style="fill:#ffffff;stroke:none;stroke-width:1.06828"
         d="M 932.08611,293.57196 C 892.48863,226.97472 847.46794,150.8258 847.46794,150.44701 c 0,-0.22442 13.5861,-0.408 30.19136,-0.408 h 30.19136 l 7.07105,11.48389 c 3.88903,6.31623 14.14786,23.16515 22.79747,37.44216 8.64961,14.277 16.27536,25.77523 16.94618,25.55165 0.67082,-0.22359 8.91405,-13.31961 18.31834,-29.1022 l 17.09871,-28.69566 0.72202,4.74641 c 0.39711,2.61054 0.75766,21.45145 0.8012,41.8687 l 0.0792,37.12231 -20.36299,34.98621 c -11.19968,19.24232 -20.77075,35.39941 -21.26904,35.90452 -0.49966,0.50657 -8.55794,-11.95098 -17.96667,-27.77504 z"
         id="path599" />
      <path
         style="fill:#ffffff;stroke:none;stroke-width:1.06828"
         d="m 1000.9299,314.28607 c -0.8948,-11.49478 -0.9058,-150.20306 -0.012,-158.74897 l 0.6863,-6.5664 h 28.1571 28.1571 v 87.06431 87.06431 h -28.1509 -28.1509 z"
         id="path601" />
      <path
         style="fill:#ffffff;stroke:none;stroke-width:1.06828"
         d="m 1086.7612,304.93865 v -18.16066 h 8.5461 8.5462 v -50.20882 -50.2089 h -8.5462 -8.5461 V 167.66552 148.9707 h 45.9357 45.9358 v 18.69482 18.69475 h -8.5462 -8.5462 v 50.2089 50.20882 h 8.5462 8.5462 v 18.16066 18.16067 h -45.9358 -45.9357 z"
         id="path603" />
    </g>
    <g
       id="g2043"
       style="fill:#f9c501;fill-opacity:1"
       transform="matrix(0.10510692,0,0,0.10510692,-9.5592504,0.93831184)">
      <path
         style="fill:#f9c501;fill-opacity:1;stroke:none;stroke-width:0.267068"
         d="m 174.60839,83.68268 -8.39347,-5.859484 -3.35753,2.308857 c -7.21659,4.96263 -12.22092,8.243687 -13.3147,8.729709 -1.72006,0.764331 -1.82449,0.45705 -1.00386,-2.953617 0.87505,-3.636779 3.44874,-12.472645 4.15467,-14.263594 0.80652,-2.046186 0.70666,-2.748432 -0.59101,-4.156219 -0.6167,-0.669058 -3.89657,-3.252774 -7.28863,-5.7416 -3.39205,-2.488903 -6.80788,-5.085496 -7.59073,-5.770343 -1.39703,-1.22207 -1.41165,-1.24997 -0.79019,-1.508502 0.36181,-0.150536 5.10582,-0.312953 11.06946,-0.3791 l 10.43629,-0.115661 3.15831,-8.852652 c 3.69433,-10.355023 3.98716,-11.07896 4.57254,-11.303537 0.75367,-0.289269 1.33901,0.882751 3.0248,6.056391 0.88546,2.71739 2.37916,6.983829 3.31935,9.480933 l 1.70943,4.540148 10.38134,0.156668 c 5.70974,0.08615 10.64929,0.26819 10.97678,0.404469 0.55256,0.229943 0.42098,0.391133 -1.82632,2.237499 -2.79183,2.293681 -9.6046,7.426469 -12.31771,9.280269 l -1.85369,1.266603 0.1798,1.472784 c 0.19183,1.571431 1.56074,7.031734 3.34871,13.357389 1.19763,4.237082 1.52134,7.267501 0.79043,7.399718 -0.22033,0.03986 -4.17766,-2.564401 -8.79407,-5.787128 z"
         id="path605" />
      <path
         style="fill:#f9c501;fill-opacity:1;stroke:none;stroke-width:0.267068"
         d="m 230.77097,64.536707 c 0.0826,-0.271563 1.2418,-3.978934 2.57605,-8.238704 3.47514,-11.094826 4.61061,-15.047469 4.44595,-15.476543 -0.2322,-0.605133 -3.37004,-3.098788 -9.52302,-7.56796 -6.28418,-4.564522 -9.08033,-6.726216 -9.08033,-7.020006 0,-0.485487 1.55686,-0.60659 10.28214,-0.799359 12.557,-0.277541 14.55522,-0.479661 14.55522,-1.472402 0,-1.270665 5.85947,-17.7162637 7.40976,-20.7967333 0.61998,-1.2319579 0.69023,-1.2875275 1.03333,-0.8183671 0.20247,0.276928 0.67678,1.5327233 1.05403,2.7906647 0.88723,2.9585998 4.28483,13.1512057 5.71755,17.1523677 l 1.1151,3.114118 11.53141,0.119417 c 6.34227,0.06592 11.80978,0.212774 12.15002,0.326825 l 0.61861,0.207256 -0.84275,0.869491 c -0.46351,0.478281 -4.73455,3.677018 -9.49121,7.108304 -4.75664,3.431362 -8.65179,6.421924 -8.65588,6.645659 -0.004,0.223811 0.95694,3.288415 2.13561,6.810298 2.33575,6.979153 4.6668,14.621002 4.95412,16.240873 l 0.18167,1.02432 -1.16903,-0.589574 c -2.07423,-1.046011 -5.82405,-3.434275 -12.84109,-8.178459 l -6.86484,-4.641246 -8.11641,5.468657 c -8.17755,5.509818 -11.59471,7.665303 -12.71653,8.021332 -0.50959,0.161803 -0.58498,0.112518 -0.45948,-0.300229 z"
         id="path607" />
      <path
         style="fill:#f9c501;fill-opacity:1;stroke:none;stroke-width:0.267068"
         d="m 319.60767,89.217561 c 7.6e-4,-1.051683 1.59989,-6.588633 3.74429,-12.967175 1.34674,-4.005914 2.38655,-7.445248 2.31066,-7.642998 -0.21839,-0.569109 -6.42147,-5.642725 -10.47827,-8.570436 -2.03538,-1.468875 -4.41945,-3.264883 -5.29793,-3.99112 l -1.59722,-1.320409 0.78506,-0.21653 c 0.94344,-0.260219 8.09706,-0.700713 15.58752,-0.959859 l 5.45506,-0.188783 2.45277,-6.810221 c 2.65233,-7.364384 4.5023,-11.930516 5.07606,-12.528904 0.30791,-0.321077 0.4593,-0.162186 1.01749,1.068315 0.36066,0.79499 1.9572,5.368786 3.54786,10.163863 l 2.89211,8.718289 10.95442,0.128768 c 6.02492,0.07052 11.30537,0.239831 11.73431,0.375497 l 0.7799,0.246805 -1.04697,0.84826 c -0.57583,0.466554 -3.81113,2.804002 -7.18954,5.194336 -3.37842,2.390334 -6.8937,5.072235 -7.81175,5.959892 -2.08472,2.01568 -2.09838,2.22945 -0.48319,7.559069 2.57947,8.511493 4.11514,14.591876 3.772,14.935027 -0.26759,0.267577 -4.61587,-2.328939 -11.129,-6.645429 l -6.83868,-4.53233 -3.30991,2.047106 c -1.82046,1.125878 -4.0911,2.67761 -5.04587,3.448302 -3.13663,2.531826 -9.88193,6.409737 -9.88118,5.680665 z"
         id="path609" />
    </g>
    <path
       style="fill:#ffffff;stroke:none;stroke-width:0.0280707"
       d="M 5.0019158,31.915772 C 5.0026777,31.671454 4.8803051,29.30794 4.8660348,29.294156 4.8556838,29.284164 4.4557585,29.097021 3.9771547,28.878151 3.083312,28.469395 2.4108473,28.133289 2.1654908,27.972664 1.9675592,27.843088 1.9651352,27.832799 1.8166932,26.491108 1.7628911,26.004777 1.6606237,25.171072 1.5894366,24.638436 1.403947,23.25058 1.4171147,23.114309 1.7478253,22.999749 c 0.1345545,-0.04662 0.270805,-0.05431 1.1813238,-0.0669 l 1.0292267,-0.01422 -0.012037,-0.08748 c -0.032653,-0.237423 -0.095507,-0.939894 -0.095507,-1.06735 0,-0.183675 0.043164,-0.244111 0.2548823,-0.356962 C 4.3640528,21.26913 4.3560089,21.321088 4.2464935,20.49799 4.2156689,20.266413 4.1391303,19.622192 4.0763768,19.066387 3.746954,16.148656 3.5824544,15.145449 3.3505134,14.63964 3.1903685,14.290396 3.0124065,14.150105 2.1767769,13.714355 l -0.4249026,-0.221578 -0.020462,-0.76414 c -0.024832,-0.926415 -0.010003,-1.972867 0.028441,-2.009402 0.0727,-0.06908 1.7549047,0.504754 2.5099502,0.856206 0.7679891,0.357476 1.4334136,0.985369 1.79561,1.694339 0.2391435,0.468105 0.3381947,0.83131 0.4243239,1.555888 0.031066,0.261342 0.060134,0.47881 0.064586,0.483267 0.00446,0.0045 0.2198085,-0.06161 0.478564,-0.146801 0.3533148,-0.116331 0.5025669,-0.152792 0.5994058,-0.146423 l 0.1289492,0.0085 0.046544,0.16842 c 0.1272728,0.460507 0.7899566,1.610676 1.2940243,2.24594 0.5157249,0.64995 1.4493963,1.467937 1.8281733,1.601662 0.130667,0.04613 0.247302,0.03373 0.247302,-0.02631 0,-0.06134 -0.141969,-0.235482 -0.506472,-0.621228 C 9.8496291,17.523662 9.2411036,16.696983 8.914448,16.006719 8.779791,15.722168 8.6789958,15.387756 8.6789958,15.225545 c 0,-0.125702 0.07004,-0.289993 0.1394798,-0.327158 0.1813227,-0.09705 2.1351554,-0.321343 3.4255034,-0.393245 2.393349,-0.133379 6.69218,-0.146544 8.842281,-0.02707 0.68673,0.03816 1.101726,0.07258 2.007058,0.166491 0.432288,0.04483 0.98809,0.09576 1.235109,0.113147 0.517718,0.03644 0.592805,0.05454 0.702856,0.169428 0.220923,0.230587 0.06299,0.790388 -0.458973,1.626967 -0.431823,0.692085 -0.98676,1.34152 -1.674693,1.959848 -0.555683,0.499453 -0.675642,0.61683 -0.653265,0.639212 0.03992,0.03992 0.343737,-0.05275 0.59518,-0.181555 0.454765,-0.232977 0.936451,-0.615632 1.509046,-1.198796 0.735551,-0.749137 1.174786,-1.434165 1.537379,-2.397685 0.09588,-0.254738 0.177158,-0.466205 0.180655,-0.469922 0.0036,-0.0036 0.262979,0.08189 0.576632,0.190241 0.313651,0.108342 0.576223,0.191039 0.583494,0.18377 0.0073,-0.0071 0.03584,-0.212883 0.06345,-0.456908 0.02762,-0.244029 0.07781,-0.55106 0.11151,-0.682295 0.163436,-0.63606 0.537288,-1.367385 0.878469,-1.718436 0.485168,-0.499194 1.702328,-1.14726 2.752692,-1.46564 0.466723,-0.141475 0.999205,-0.273033 1.029442,-0.254342 0.07685,0.04747 0.0919,0.26384 0.103434,1.487506 l 0.01192,1.263186 -0.456093,0.238602 c -0.709281,0.37105 -0.869959,0.489381 -1.048256,0.771943 -0.126859,0.201046 -0.199278,0.393829 -0.293726,0.781928 -0.153458,0.630599 -0.268223,1.430113 -0.622791,4.338837 l -0.203335,1.668067 0.06752,0.04425 c 0.177902,0.116595 0.297313,0.222665 0.335649,0.298167 0.03273,0.06446 0.0441,0.221183 0.05101,0.703621 l 0.0089,0.620691 0.959529,0.01554 c 1.371842,0.02221 1.428025,0.04457 1.426432,0.567689 -7.62e-4,0.274796 -0.381018,3.234136 -0.51028,3.972005 -0.09508,0.54273 -0.0338,0.472277 -0.682866,0.785381 -0.310757,0.149911 -0.931332,0.440996 -1.379061,0.646857 -0.447729,0.20587 -0.822215,0.381519 -0.832188,0.390345 -0.0159,0.01406 -0.06832,0.949884 -0.126356,2.25469 l -0.0184,0.414051 H 28.070207 27.28702 l 0.01501,-0.231583 c 0.0083,-0.127378 0.02202,-0.471599 0.03064,-0.764929 0.05824,-1.990116 0.240719,-4.149209 0.534393,-6.323362 0.153095,-1.133419 0.207618,-1.312571 0.591631,-1.944073 l 0.1796,-0.295348 -0.25024,-0.72924 C 27.905521,20.270232 27.746836,19.881456 27.645038,19.856088 27.373501,19.788408 23.086808,19.730121 16.819594,19.7089 11.426922,19.69066 8.6781792,19.7163 7.0163678,19.80025 L 6.0413899,19.84953 5.7614253,20.693102 C 5.2422032,22.257416 5.2289547,22.430503 5.58696,22.97221 c 0.300726,0.455039 0.3041153,0.472925 0.5230814,2.761035 0.1724916,1.80251 0.2543659,2.80386 0.3775547,4.617639 0.046134,0.679307 0.09079,1.320372 0.09924,1.424586 l 0.015335,0.189484 H 5.8019828 c -0.7434568,0 -0.8001969,-0.0036 -0.8000295,-0.04913 z M 29.507183,28.016997 c 0.224032,-0.0871 0.409823,-0.160109 0.412871,-0.162266 0.01684,-0.01191 0.2892,-3.674153 0.2892,-3.888901 0,-0.07647 -0.0039,-0.07822 -0.287723,-0.126245 -0.158246,-0.02678 -0.338163,-0.04432 -0.399809,-0.03897 -0.111363,0.0097 -0.112212,0.01064 -0.13202,0.150087 -0.02898,0.204324 -0.09583,1.034441 -0.177361,2.203546 -0.03929,0.563522 -0.09002,1.230068 -0.112708,1.481196 -0.04768,0.5275 -0.04814,0.539897 -0.02052,0.539897 0.01146,0 0.204049,-0.07126 0.428081,-0.158346 z m -24.8498496,-0.003 c 0.038973,-0.139301 0.018789,-1.70961 -0.030741,-2.393028 C 4.57214,24.869669 4.5024741,24.101551 4.4730528,23.928078 4.4531092,23.81058 4.4528307,23.81034 4.3183146,23.801716 c -0.1635017,-0.01046 -0.5377873,0.06327 -0.6309792,0.12433 -0.059352,0.03889 -0.065538,0.05868 -0.050252,0.160827 0.037192,0.248501 0.1005381,1.197611 0.1417799,2.123536 0.023713,0.532642 0.050769,1.108774 0.060085,1.280287 l 0.01696,0.311849 0.1869556,0.07852 c 0.2787019,0.117052 0.519379,0.20697 0.5583574,0.208622 0.018994,7.61e-4 0.04427,-0.03329 0.056138,-0.07574 z m 0.6647349,-8.371909 0.2410815,-0.294486 -3.14e-4,-0.561671 C 5.5624384,17.84803 5.5093827,15.528071 5.4782087,15.080283 5.4082057,14.074715 5.2820609,13.69302 4.8473642,13.17147 4.6313061,12.912238 4.4870227,12.785789 4.1736166,12.580992 c -0.4405548,-0.287895 -1.1617073,-0.60253 -1.381008,-0.60253 -0.1273471,0 -0.1488463,0.04361 -0.1488463,0.301752 0,0.367959 0.035277,0.409955 0.722439,0.859927 0.2506673,0.164153 0.5224172,0.365108 0.6038859,0.446572 0.4054425,0.405443 0.558528,1.014308 0.7496035,2.981318 0.052538,0.540818 0.3100853,3.343089 0.3100853,3.373878 0,0.04203 0.077153,-0.03711 0.2922598,-0.299883 z M 28.42311,19.06011 c 0.01006,-0.151004 0.05607,-0.96298 0.101963,-1.804403 0.122715,-2.250192 0.166904,-2.749662 0.284345,-3.214102 0.08174,-0.323302 0.193136,-0.53681 0.476255,-0.912906 0.137438,-0.182574 0.24989,-0.340123 0.24989,-0.350115 0,-0.01 -0.09605,0.06801 -0.213459,0.173308 -0.427605,0.383523 -0.818926,1.006413 -0.951116,1.513928 -0.105807,0.40617 -0.218156,2.298242 -0.222356,3.744289 -0.0027,0.960726 0.0069,1.033096 0.148566,1.107317 0.04026,0.0211 0.08091,0.0336 0.09031,0.0278 0.0095,-0.0057 0.02541,-0.134104 0.0356,-0.28511 z m -13.329948,0.186992 c 0.434725,-0.03757 0.807111,-0.113785 1.165106,-0.238382 0.946517,-0.329467 2.674738,-1.193245 4.1543,-2.076364 0.851941,-0.508499 1.813301,-1.128909 1.788207,-1.154011 -0.02747,-0.02746 -0.725359,-0.122318 -1.114507,-0.151489 -0.633177,-0.04746 -4.199898,-0.06713 -5.459759,-0.0301 -1.277992,0.03756 -1.674735,0.06337 -2.453173,0.159723 -1.403468,0.173676 -1.800487,0.308119 -1.982002,0.671145 -0.08233,0.164685 -0.0842,0.177785 -0.0842,0.589489 0,0.439224 0.04498,0.67088 0.182652,0.940756 0.179635,0.352113 0.562887,0.70399 0.992009,0.910816 0.663583,0.319826 1.76861,0.468566 2.811377,0.378423 z"
       id="path611" />
    <path
       style="fill:#ffffff;stroke:none;stroke-width:0.0561415"
       d="m 6.9526504,22.637905 -0.8140494,-0.0346 0.0089,-0.264068 c 0.014383,-0.428082 0.5182501,-1.922322 0.6154536,-1.825116 0.014853,0.01484 -0.012194,0.325729 -0.06006,0.690846 -0.047882,0.365105 -0.087059,0.709096 -0.087059,0.764419 0,0.09347 0.083027,0.100576 1.1755997,0.100576 H 8.9670408 L 9.6300739,21.44537 C 10.489299,20.635957 10.70191,20.498 11.090081,20.498 c 0.186541,0 0.297784,0.02408 0.297784,0.06439 0,0.08282 -0.317767,0.471487 -0.81085,0.991773 l -0.389796,0.411302 1.2995,-0.01792 1.299494,-0.01792 0.213127,-0.204596 c 0.330939,-0.317712 1.254901,-1.006301 1.50438,-1.121157 0.235024,-0.108194 0.893894,-0.147616 0.950005,-0.05682 0.03476,0.05628 -0.340864,0.418641 -1.047975,1.010998 -0.270028,0.226203 -0.476965,0.433931 -0.459855,0.461612 0.01712,0.02768 0.279374,0.05033 0.582813,0.05033 h 0.551702 l 0.329207,-0.226671 c 0.181069,-0.124665 0.543952,-0.405646 0.806415,-0.624414 0.262461,-0.218766 0.616155,-0.464141 0.785982,-0.545283 l 0.308777,-0.147534 1.936881,-0.01561 c 1.065282,-0.0085 2.121336,0.0039 2.346778,0.02808 l 0.409896,0.04368 -0.578319,0.476016 c -0.682359,0.561647 -1.167809,1.008935 -1.167809,1.076019 0,0.08782 0.394477,0.04954 0.605756,-0.05881 0.174245,-0.08937 0.686358,-0.512488 1.719518,-1.420769 l 0.173023,-0.152111 1.54389,0.0033 c 0.849138,0.0019 1.606385,0.02072 1.682774,0.04201 0.131801,0.03673 0.113272,0.06291 -0.363226,0.513713 -0.276162,0.261262 -0.58498,0.554604 -0.686265,0.651866 -0.210464,0.202116 -0.240382,0.356498 -0.06908,0.356498 0.188515,0 0.402077,-0.13757 1.17439,-0.756472 0.796733,-0.638477 0.929283,-0.726469 1.014758,-0.673644 0.159323,0.09847 0.755493,1.606383 0.716404,1.812026 -0.01429,0.07525 -0.1066,0.103327 -0.438645,0.133499 -0.545533,0.04957 -19.3105143,0.09794 -20.3788229,0.05255 z"
       id="path613" />
    <path
       style="fill:#ffffff;stroke:none;stroke-width:0.0561415"
       d="M 8.047412,49.014729 C 5.0244334,48.955376 4.7897191,48.925251 4.3959842,48.545994 4.085836,48.247251 4.0262471,48.034034 3.9925046,47.102174 L 3.9648092,46.33738 3.5043525,46.080984 3.0438944,45.824587 2.9199584,43.898347 C 2.7491193,41.243064 2.7501688,41.2142 3.0175373,41.2142 c 0.083146,0 0.1815058,-0.03031 0.2185616,-0.06736 0.094233,-0.09424 0.086938,-1.257194 -0.020655,-3.292293 -0.048409,-0.915747 -0.072288,-1.771288 -0.053055,-1.901201 0.041621,-0.281201 0.218907,-0.450396 0.7424808,-0.708575 L 4.2578664,35.07069 V 34.048367 33.026041 L 4.650855,32.676774 C 4.9657536,32.396908 5.0438472,32.295348 5.0438472,32.16567 v -0.161828 l 0.7719444,0.01561 0.7719456,0.01562 0.042921,0.926334 c 0.023603,0.509492 0.061505,1.040025 0.084205,1.178975 0.039792,0.243434 0.048446,0.252636 0.2377835,0.252636 0.1916812,0 0.1969277,-0.0059 0.2140023,-0.243522 C 7.196523,33.733681 6.5559975,24.011475 6.4673662,23.535723 l -0.035469,-0.190427 10.1553128,0.03581 c 5.585419,0.0197 10.302493,0.05183 10.482387,0.0714 l 0.327076,0.03561 -0.03224,0.259369 c -0.1462,1.17582 -0.606804,8.272649 -0.614397,9.466566 l -0.0075,1.17897 0.178915,0.01732 c 0.164196,0.0159 0.183931,0 0.240015,-0.196496 0.0336,-0.117596 0.07468,-0.60541 0.0913,-1.08401 0.04355,-1.256268 -0.05606,-1.122836 0.838258,-1.122836 h 0.756839 l 0.0016,0.238603 c 0.0016,0.230723 0.014,0.246843 0.371853,0.488116 l 0.370071,0.249519 -0.03603,0.592605 c -0.01982,0.32594 -0.0513,0.786631 -0.06998,1.023773 l -0.03393,0.431159 0.632983,0.317453 0.632981,0.31746 -0.03646,1.244402 c -0.02005,0.684419 -0.06571,1.891747 -0.101481,2.682946 -0.03574,0.791189 -0.04923,1.479628 -0.02997,1.529858 0.02062,0.05368 0.0994,0.09166 0.191196,0.09217 0.337984,0.002 0.331342,-0.06066 0.194821,1.83415 -0.06855,0.951485 -0.140267,1.971464 -0.159366,2.266608 l -0.03473,0.536632 -0.352763,0.182896 c -0.466014,0.241616 -0.54197,0.39924 -0.575387,1.194039 -0.02304,0.547726 -0.01637,0.600095 0.08009,0.628428 0.120193,0.03533 1.568879,0.128258 2.771934,0.177835 1.222968,0.05042 4.476063,0.235021 7.438742,0.422175 1.45126,0.09169 2.739705,0.16935 2.863216,0.172613 l 0.224567,0.0062 -0.196496,0.04641 c -0.995787,0.235172 -27.20174,0.484094 -34.9480534,0.332027 z M 7.7947746,48.115915 c 0,-0.03291 -0.026781,-0.109858 -0.059506,-0.171028 -0.032728,-0.06116 -0.082652,-0.253424 -0.1109507,-0.427267 -0.09712,-0.596749 -0.2763587,-0.528263 -0.2778162,0.106158 -3.973e-4,0.2059 0.014454,0.414325 0.033207,0.463167 0.038697,0.100862 0.4150557,0.127136 0.4150557,0.02894 z m 1.1789733,0.02702 c 0,-0.01799 -0.1121433,-0.175949 -0.2491916,-0.350888 -0.3012133,-0.384478 -0.368366,-0.549991 -0.368366,-0.907888 0,-0.150565 -0.025264,-0.289357 -0.056138,-0.308446 -0.035832,-0.02216 -0.055656,0.144132 -0.054801,0.459856 0.00117,0.511959 0.061674,0.888793 0.1575185,0.984649 0.086107,0.0861 0.5709821,0.190309 0.5709821,0.122717 z m 17.4917011,-0.04067 c 0.01549,-0.04038 0.02101,-0.375136 0.01227,-0.743879 l -0.01589,-0.670427 -0.167585,0.673703 c -0.09217,0.370535 -0.176132,0.70528 -0.186576,0.743874 -0.02598,0.09605 0.320898,0.0929 0.357795,-0.0034 z m -0.953243,-0.115296 c 0.01613,-0.04204 0.02165,-0.22209 0.01227,-0.400081 l -0.01709,-0.323633 -0.355133,0.40009 -0.355129,0.400083 h 0.342857 c 0.237533,0 0.351873,-0.02348 0.372202,-0.07644 z m -3.252598,-0.605862 c -0.02005,-0.282638 -0.03647,-0.665497 -0.03647,-0.850796 V 46.19342 l -1.434166,0.03947 c -0.788793,0.02175 -1.488223,0.0595 -1.554287,0.08395 -0.07575,0.02797 -0.142454,0.125501 -0.180595,0.263918 -0.0477,0.173116 -0.107764,0.243195 -0.284346,0.331758 -0.207623,0.104131 -0.335921,0.11229 -1.76776,0.11229 -0.84914,0 -1.640039,-0.02036 -1.757555,-0.04524 -0.26088,-0.05528 -0.431962,-0.215755 -0.431962,-0.405291 0,-0.09866 -0.04171,-0.157595 -0.137211,-0.193902 -0.210379,-0.07998 -1.375347,-0.1684 -2.227442,-0.169044 l -0.764625,-6.94e-4 -0.02769,0.771944 c -0.01521,0.424574 -0.01645,0.784583 -0.0027,0.800027 0.03953,0.04441 3.154452,0.0891 7.055894,0.101166 l 3.587422,0.01108 z m 7.190923,-2.057619 c 0.192533,-0.02369 0.374166,-0.06738 0.403622,-0.0972 0.02944,-0.02978 0.09438,-0.647858 0.144272,-1.373479 0.04989,-0.725625 0.112347,-1.445641 0.138792,-1.60003 0.02647,-0.15439 0.04381,-0.28511 0.03857,-0.290493 -0.01474,-0.01518 -3.327913,0.36025 -3.770124,0.427196 -0.216145,0.03274 -0.870734,0.140084 -1.454639,0.238581 L 23.889376,42.80714 23.659769,42.549043 C 23.53348,42.40709 23.202539,42.042358 22.924338,41.738524 22.646135,41.434688 22.352766,41.101185 22.272407,40.997402 l -0.146106,-0.18869 -0.305482,0.08879 c -0.168015,0.04883 -0.857555,0.369979 -1.532322,0.713624 l -1.226837,0.624813 -2.278996,-0.02388 -2.278998,-0.02388 -0.449134,-0.26361 c -0.476548,-0.279679 -1.932852,-1.006461 -2.150613,-1.073264 -0.11177,-0.03428 -0.204105,0.03933 -0.673698,0.537181 -0.299297,0.317302 -0.726261,0.764984 -0.948811,0.994845 -0.4675336,0.48289 -0.2850389,0.459795 -1.700671,0.215241 C 7.7253448,42.450818 6.0048242,42.224021 4.6789109,42.084254 3.7357134,41.984834 3.7524741,41.975222 3.7527749,42.6144 c 2.084e-4,0.479916 0.092678,2.065311 0.1471674,2.523621 l 0.035999,0.302732 12.5822557,-0.03712 c 6.92024,-0.02042 12.739791,-0.05646 12.93233,-0.08015 z M 9.7520491,41.80952 c 0.1038535,-0.05475 0.5270169,-0.416041 0.9403679,-0.802901 l 0.751553,-0.703383 -7.61e-4,-3.600745 c -3.13e-4,-1.980406 -0.01681,-3.698715 -0.03658,-3.818454 -0.03329,-0.201562 -0.07594,-0.243563 -0.574833,-0.566132 -0.662401,-0.428284 -2.5759213,-1.571435 -2.8460258,-1.70024 -0.1722581,-0.08215 -0.2049751,-0.08371 -0.2536197,-0.01215 -0.061661,0.09069 -0.017753,2.299761 0.063396,3.189923 0.069065,0.757601 0.1792331,0.945218 1.2119369,2.063824 1.2091896,1.309776 1.9786566,2.267152 1.8221576,2.267152 -0.09837,0 -1.0614316,-0.678543 -2.0806001,-1.465942 -1.4471266,-1.11802 -1.8357005,-1.397273 -1.9442904,-1.397273 -0.053681,0 -0.7156819,0.304282 -1.4711258,0.676189 l -1.3735262,0.676187 0.038613,1.274726 c 0.040815,1.347536 0.1432145,3.451381 0.169255,3.477419 0.012832,0.01284 0.8266709,0.117716 4.1880839,0.539751 0.4439997,0.05576 1.2056506,0.0023 1.395859,-0.09794 z M 26.433741,41.77491 c 1.974067,-0.232571 3.156453,-0.386111 3.183792,-0.413447 0.08972,-0.08972 0.282186,-4.67585 0.199681,-4.758331 -0.02367,-0.02367 -0.598005,-0.309586 -1.276273,-0.635354 -1.433535,-0.688513 -1.508514,-0.703231 -2.018141,-0.396357 -0.17897,0.107766 -0.796444,0.571502 -1.372165,1.030519 -0.57572,0.459013 -1.198345,0.936294 -1.383613,1.060622 -0.377646,0.253434 -0.814051,0.48446 -0.814051,0.430949 0,-0.0869 0.810793,-1.056971 1.894134,-2.266214 l 1.17956,-1.316646 0.04094,-1.69571 c 0.04221,-1.748175 0.02228,-2.124478 -0.115245,-2.177257 -0.116357,-0.04465 -0.160532,-0.02253 -1.48356,0.742622 -1.280189,0.74038 -1.569189,0.922395 -1.950919,1.228714 l -0.238598,0.19147 v 3.666588 3.666584 l 0.723648,0.701114 c 0.813056,0.787731 1.051279,0.983594 1.279764,1.052177 0.274463,0.08236 0.680095,0.06125 2.151058,-0.112042 z m -6.111465,-0.995814 1.170435,-0.60352 2.12e-4,-2.045075 c 2.11e-4,-1.124801 0.02796,-3.04034 0.06173,-4.256763 0.0338,-1.216428 0.04928,-2.223862 0.0344,-2.238759 -0.04267,-0.04266 -2.615826,-0.731166 -3.337726,-0.893071 -0.976705,-0.219057 -1.421606,-0.256437 -1.9512,-0.16392 -0.78166,0.136545 -3.370539,0.817523 -3.816714,1.00395 -0.166763,0.06968 -0.193951,0.11108 -0.229784,0.350033 -0.04507,0.300658 0.01484,7.134918 0.06893,7.859356 l 0.03419,0.457882 1.157643,0.56407 1.157649,0.56407 2.239867,0.0027 2.239868,0.0027 1.170435,-0.603513 z m -8.867646,-9.36135 c 0.02134,-0.149121 0.0845,-0.316079 0.140381,-0.371004 0.154976,-0.152351 4.498488,-1.222682 5.167705,-1.273418 0.182967,-0.01387 0.564791,0.03407 1.01055,0.12692 1.143798,0.238239 4.235999,1.034156 4.37718,1.126663 0.100414,0.06577 0.129016,0.136764 0.129687,0.321717 0.0011,0.309815 0.06233,0.402156 0.237381,0.358217 0.164769,-0.04133 0.414948,-0.486705 0.604054,-1.075317 0.199337,-0.620419 0.185425,-0.610402 1.956112,-1.409061 1.18532,-0.534641 1.411274,-0.670777 1.41182,-0.850631 2.13e-4,-0.07713 -0.0337,-0.126321 -0.08711,-0.126321 -0.04812,0 -0.483918,0.123922 -0.96844,0.275376 -1.722849,0.538542 -1.941479,0.586983 -2.621336,0.580781 -0.668575,-0.0061 -1.453617,-0.09662 -3.031641,-0.349567 -1.638985,-0.26272 -2.096741,-0.30055 -3.200064,-0.264493 -0.711411,0.02324 -1.326296,0.08305 -2.077232,0.202025 -1.746212,0.276652 -2.477482,0.353434 -3.42463,0.359591 -1.024514,0.0065 -1.1490441,-0.01457 -2.6028493,-0.443448 -1.1320246,-0.333951 -1.2608464,-0.35548 -1.2323781,-0.205877 0.040983,0.215375 0.8078327,0.606505 2.4036192,1.225979 l 0.7579092,0.294211 0.201398,0.552212 c 0.110762,0.303719 0.242489,0.631291 0.292704,0.727946 0.133073,0.256111 0.380196,0.534027 0.453217,0.50969 0.03476,-0.01155 0.08063,-0.143069 0.101963,-0.292191 z M 22.849176,28.41931 c 0.234092,-0.184134 1.229031,-2.26186 1.534948,-3.205433 0.05507,-0.169825 0.21049,-0.546508 0.345394,-0.837071 0.134907,-0.290571 0.235139,-0.538445 0.222741,-0.550844 -0.02377,-0.02376 -1.443048,0.07381 -1.905036,0.130952 -0.179643,0.02223 -0.281395,0.06457 -0.302573,0.125914 -0.23735,0.687554 -0.756872,1.888663 -1.21121,2.800269 -0.311362,0.624734 -0.54676,1.155229 -0.523102,1.178881 0.05796,0.05797 0.169932,-0.100109 0.426813,-0.602443 0.448171,-0.876426 0.524031,-0.800494 0.139838,0.13997 -0.138665,0.33944 -0.252123,0.647218 -0.252123,0.683944 0,0.08861 0.159372,0.134789 0.640106,0.185496 0.646905,0.06824 0.741086,0.06294 0.884204,-0.04964 z M 12.420494,28.306393 c 0.126784,-0.05811 0.47052,-0.327186 0.76386,-0.597978 1.029551,-0.9504 3.119856,-2.938066 3.508842,-3.336549 l 0.392994,-0.402583 -0.481652,0.01876 c -0.464856,0.01812 -0.492259,0.02681 -0.785982,0.249083 -0.167381,0.126673 -0.885732,0.770897 -1.596338,1.431609 -0.710605,0.660712 -1.676938,1.551424 -2.147412,1.979351 -0.470471,0.427931 -0.855403,0.79167 -0.855403,0.808299 0,0.07119 0.987525,-0.05214 1.201091,-0.15 z m -2.05409,-0.215268 c 0.190486,-0.115789 0.643493,-0.478037 1.006693,-0.804997 0.791581,-0.712604 3.214794,-3.077173 3.214794,-3.136998 0,-0.02324 -0.52422,-0.05879 -1.164933,-0.079 -0.640716,-0.02021 -1.407033,-0.05201 -1.702922,-0.07064 l -0.537991,-0.03385 -1.2100933,1.28378 c -1.6328228,1.732263 -1.952613,2.106286 -1.952613,2.283814 0,0.19831 0.1491533,0.288936 0.842124,0.511696 1.0027384,0.322328 1.0484029,0.32373 1.5049413,0.0462 z m 15.013488,-0.286922 c 0.05337,-0.05099 0.148049,-0.292164 0.210385,-0.535904 0.198557,-0.776338 0.335423,-1.938387 0.20836,-1.769029 -0.0097,0.01287 -0.152067,0.402351 -0.316468,0.865518 -0.164407,0.463166 -0.347395,0.978128 -0.406643,1.144367 -0.05925,0.166234 -0.0938,0.338496 -0.07678,0.382821 0.0371,0.09666 0.236119,0.05085 0.381163,-0.08776 z"
       id="path615" />
    <path
       style="fill:#ffffff;stroke:none;stroke-width:0.0561415"
       d="m 15.261592,40.650555 c -0.138952,-0.02483 -0.694751,-0.248456 -1.235113,-0.496922 l -0.982478,-0.451753 -0.036,-0.801759 c -0.0632,-1.407172 -0.123252,-6.069124 -0.08171,-6.344533 0.04789,-0.31751 -0.130144,-0.250205 2.229873,-0.843114 l 1.606871,-0.4037 0.526506,0.09961 c 0.713874,0.135058 2.398014,0.560127 3.062164,0.772873 l 0.542203,0.173688 -0.03702,2.534849 c -0.02037,1.394171 -0.05357,3.042123 -0.07382,3.662122 l -0.03678,1.127259 -1.090407,0.514877 -1.090412,0.514881 -1.525603,-0.0065 c -0.839081,-0.0036 -1.63929,-0.02693 -1.778237,-0.05177 z m 1.803687,-0.483599 c 0.114525,-0.137993 0.114525,-7.704552 0,-7.842551 -0.113569,-0.136834 -0.226536,-0.113249 -0.294816,0.06155 -0.08382,0.214602 -0.08367,7.504255 2.11e-4,7.719452 0.0681,0.174797 0.181085,0.198394 0.294655,0.06155 z m -1.959674,-0.215939 c 0.02673,-0.09264 0.03314,-0.560009 0.01422,-1.03861 -0.01892,-0.478613 -0.05469,-2.002596 -0.07953,-3.386634 -0.03031,-1.689675 -0.06533,-2.53662 -0.106575,-2.577859 -0.04448,-0.04446 -0.07354,-0.03174 -0.105377,0.0462 -0.05751,0.140813 -0.05731,6.796612 2.09e-4,7.002733 0.05736,0.205684 0.211925,0.180119 0.277105,-0.04584 z m 3.817621,0.04212 c 0.0478,-0.112154 0.06536,-1.029873 0.06416,-3.354456 -0.0016,-3.058788 -0.02666,-3.7709 -0.130685,-3.706612 -0.06346,0.03921 -0.1002,0.905573 -0.177496,4.186203 -0.05038,2.137721 -0.05019,2.810076 7.61e-4,2.905322 0.08863,0.165588 0.163685,0.156186 0.243233,-0.03048 z"
       id="path619" />
    <path
       style="fill:#ffffff;stroke:none;stroke-width:0.00992454"
       d="m 8.9182547,41.479304 c -0.021859,-0.002 -0.1089154,-0.0086 -0.1935262,-0.01457 -0.6424811,-0.04502 -2.4652595,-0.270349 -3.2071636,-0.396468 -0.3359742,-0.05711 -0.87085,-0.154564 -0.8756525,-0.159554 -0.00819,-0.0084 -0.1151508,-0.970551 -0.1246269,-1.120778 -0.025457,-0.40388 -0.021413,-1.023387 0.00975,-1.478749 0.015611,-0.228495 0.068139,-0.814084 0.084855,-0.946248 0.029719,-0.234845 0.069123,-0.352143 0.1290033,-0.383997 0.048193,-0.02563 0.1979205,-0.01752 0.3448737,0.01868 0.5818737,0.143309 1.7051949,0.530135 2.1426997,0.737864 0.080427,0.03819 0.163231,0.07173 0.1840127,0.07449 0.1137779,0.01525 0.072026,-0.111782 -0.1702444,-0.518034 -0.1864166,-0.31257 -0.3222975,-0.608362 -0.3397092,-0.739475 -0.0047,-0.03544 -0.00205,-0.0497 0.013156,-0.06834 0.017368,-0.02142 0.022171,-0.02253 0.053128,-0.01219 0.1486994,0.04961 0.6620796,0.584922 1.0918137,1.138457 0.3186662,0.410463 0.4857751,0.680142 0.7559241,1.2199 0.2701719,0.539806 0.5470155,1.183096 0.6916841,1.607252 0.087999,0.258025 0.1128277,0.360485 0.1119248,0.462008 -0.00158,0.189685 -0.1071584,0.453934 -0.2075977,0.520102 -0.061337,0.04041 -0.1419039,0.05625 -0.305715,0.06005 -0.081883,0.002 -0.1667323,0.0016 -0.1885648,0 z M 8.8669671,40.30082 C 8.8896071,40.2748 8.8846111,40.24539 8.8413781,40.150625 8.7863372,40.02998 8.6452699,39.766557 8.590937,39.682958 8.377143,39.353998 7.9970933,39.047243 7.4873805,38.792206 7.3435388,38.72024 7.2688105,38.686648 6.9992176,38.572738 6.7548465,38.469503 6.5589335,38.378318 6.144358,38.174883 5.6120412,37.913679 5.482437,37.862358 5.3559708,37.86273 c -0.064046,0 -0.095435,0.01613 -0.117209,0.05953 -0.032894,0.06559 -0.024829,0.0933 0.049614,0.170629 0.2646473,0.274897 1.5646307,1.191668 2.4836076,1.751475 0.5498717,0.334961 0.7733476,0.443142 0.997411,0.482807 0.036193,0.0063 0.079149,-0.0052 0.097579,-0.02633 z"
       id="path621" />
    <path
       style="fill:#ffffff;stroke:none;stroke-width:0.0198489"
       d="m 24.486117,41.443205 c -0.07005,-0.03363 -0.120773,-0.07644 -0.158793,-0.133944 -0.05111,-0.07727 -0.05581,-0.09982 -0.05525,-0.264499 7.63e-4,-0.209421 0.03501,-0.352647 0.206974,-0.864804 0.425161,-1.266192 1.131236,-2.448625 1.983687,-3.321981 0.239469,-0.245352 0.421238,-0.389782 0.490518,-0.389782 0.117474,0 0.03291,0.235989 -0.263463,0.735003 -0.314209,0.529109 -0.343943,0.594873 -0.268939,0.594873 0.0619,0 0.582109,-0.183283 1.492896,-0.525989 0.72907,-0.274332 0.906586,-0.33412 1.016764,-0.342491 0.129771,-0.0099 0.135111,-0.0084 0.192056,0.05257 0.08867,0.09491 0.120687,0.273678 0.144427,0.805998 0.03981,0.892492 -0.01457,2.996126 -0.08017,3.101848 -0.03738,0.06023 -3.749547,0.563196 -4.36952,0.592035 -0.214071,0.01 -0.234669,0.0076 -0.331196,-0.03882 z m 0.867114,-1.21012 c 0.09281,-0.0377 0.262911,-0.12211 0.378036,-0.187617 0.85144,-0.484398 2.582476,-1.703757 2.862317,-2.016225 0.06215,-0.0694 0.07308,-0.171249 0.02287,-0.212927 -0.05174,-0.04294 -0.315661,0.05976 -0.871416,0.339132 -0.272922,0.137187 -0.679331,0.328332 -0.903131,0.42476 -0.91882,0.39589 -1.277815,0.631212 -1.526689,1.000758 -0.125303,0.186059 -0.319063,0.596553 -0.319174,0.676188 l -8e-5,0.06728 0.09429,-0.01146 c 0.05184,-0.0062 0.170208,-0.04225 0.263002,-0.07993 z"
       id="path623" />
    <path
       style="fill:#ffffff;stroke:none;stroke-width:0.0198489"
       d="m 28.390131,44.71245 c -0.03822,-0.0034 -0.11674,-0.01635 -0.174506,-0.02818 -0.125826,-0.0259 -0.126005,-0.02321 0.01863,-0.286379 0.17373,-0.316132 0.292637,-0.573062 0.32851,-0.709839 0.03427,-0.130685 0.03422,-0.134233 -0.0044,-0.172683 -0.06334,-0.06329 -0.26398,-0.0793 -1.001984,-0.08004 -1.024103,-0.0011 -1.687163,-0.04817 -1.687163,-0.119989 0,-0.05002 0.274824,-0.094 1.240563,-0.198369 1.029799,-0.111329 1.812534,-0.217288 2.136975,-0.289296 0.04281,-0.0096 0.05975,-0.0011 0.08932,0.04405 0.03321,0.05078 0.03635,0.103074 0.03488,0.582561 -0.002,0.609248 -0.03262,0.873178 -0.122543,1.051891 -0.07077,0.140621 -0.126683,0.178637 -0.294511,0.200261 -0.131198,0.01691 -0.416792,0.01994 -0.563868,0.0062 z"
       id="path625" />
    <path
       style="fill:#ffffff;stroke:none;stroke-width:0.0198489"
       d="m 14.118694,44.902724 c -2.063997,-0.01732 -2.3528,-0.03727 -2.711969,-0.187274 -0.386287,-0.161336 -0.437334,-0.174516 -0.632586,-0.163408 -0.107888,0.0062 -0.312292,0.04218 -0.516078,0.09103 -0.4159237,0.09966 -0.6869513,0.147628 -0.7090775,0.125507 -0.0399,-0.03988 0.2013404,-0.411332 0.5834995,-0.898434 0.691719,-0.881663 1.432512,-1.669814 1.746505,-1.858156 0.146457,-0.08783 0.172656,-0.09575 0.187684,-0.05658 0.02228,0.05811 -0.128206,0.323314 -0.482241,0.849818 -0.189113,0.28124 -0.343844,0.51649 -0.343844,0.522771 0,0.0184 11.13747,-0.0062 11.221164,-0.02483 l 0.07594,-0.01684 -0.127562,-0.208417 c -0.07016,-0.114633 -0.221739,-0.353923 -0.336852,-0.531766 -0.209875,-0.324263 -0.388766,-0.649289 -0.368508,-0.669541 0.06635,-0.06637 1.77518,1.670962 2.261318,2.298995 0.141614,0.182953 0.320117,0.4664 0.345027,0.547885 l 0.01457,0.04772 -0.125836,-0.01315 c -0.06922,-0.0071 -0.315056,-0.05777 -0.546329,-0.112235 -0.602805,-0.142045 -0.668048,-0.13915 -1.078322,0.048 -0.219555,0.10016 -0.381779,0.140473 -0.685785,0.170455 -0.543341,0.0536 -3.95674,0.07047 -7.770744,0.03844 z"
       id="path627" />
    <path
       style="fill:#ffffff;stroke:none;stroke-width:0.00992454"
       d="M 4.9186793,44.719979 C 4.6974961,44.709625 4.6412445,44.682449 4.5822162,44.558795 4.4412789,44.263531 4.3438009,43.571241 4.3749651,43.086921 c 0.018477,-0.287383 0.026141,-0.293447 0.295601,-0.234162 0.4503523,0.09908 1.4526213,0.230832 2.4712015,0.324858 0.4968785,0.04586 0.7178427,0.0779 0.8137609,0.117968 0.065417,0.02734 0.039562,0.04988 -0.086118,0.07514 -0.2402002,0.04828 -0.5344267,0.06006 -1.6580681,0.06637 -0.8373542,0.0047 -0.9899667,0.0077 -0.9899667,0.01939 0,0.0076 0.020222,0.09524 0.044968,0.194751 0.070508,0.283621 0.1248052,0.431362 0.2853267,0.776383 0.073373,0.157707 0.1039568,0.238962 0.093762,0.249151 -0.01673,0.01677 -0.1559694,0.03423 -0.3446703,0.04321 -0.1119011,0.0054 -0.2101506,0.0091 -0.2183389,0.0084 -0.00819,-6.96e-4 -0.081882,-0.0048 -0.1637557,-0.0084 z"
       id="path629" />
    <path
       style="fill:#ffffff;stroke:none;stroke-width:0.0198489"
       d="m 10.627946,36.215116 c -0.08416,-0.157425 -0.126371,-0.567722 -0.220743,-2.145271 -0.02177,-0.363849 -0.04411,-0.668863 -0.04964,-0.677807 -0.0055,-0.0089 -0.222221,-0.179364 -0.4815368,-0.378699 -0.9369605,-0.72023 -1.3308735,-1.054814 -1.3103916,-1.11302 0.025625,-0.07279 0.3382227,0.03671 0.9381483,0.328566 0.6438421,0.313247 1.0322391,0.54218 1.2246711,0.721875 0.165661,0.154696 0.164932,0.149241 0.163642,1.224871 -7.6e-4,0.730007 -0.0085,1.006295 -0.03515,1.270337 -0.06153,0.610207 -0.151844,0.91353 -0.229027,0.769148 z"
       id="path631" />
    <path
       style="fill:#ffffff;stroke:none;stroke-width:0.0198489"
       d="m 23.1033,36.073078 c -0.106452,-0.195589 -0.150486,-0.872574 -0.151345,-2.326839 l -3.97e-4,-0.766832 0.262999,-0.168179 c 0.524344,-0.335302 1.319362,-0.78097 1.642475,-0.920727 0.156583,-0.06774 0.337467,-0.109802 0.337467,-0.07851 0,0.120836 -0.470055,0.539363 -1.372791,1.222311 l -0.327958,0.248114 -0.0342,0.47638 c -0.089,1.239804 -0.191983,2.209553 -0.251207,2.365307 -0.02571,0.06758 -0.04573,0.05787 -0.104997,-0.05103 z"
       id="path633" />
    <g
       id="g1969"
       style="fill:#ffffff"
       transform="matrix(0.09290083,0,0,0.09290083,-8.278463,3.5307654)">
      <path
         style="fill:#ffffff;stroke:none;stroke-width:0.188846"
         d="m 510.99858,432.65198 c -2.52566,-0.23531 -3.55721,-0.64653 -6.26949,-2.49887 -4.19831,-2.86731 -5.84971,-5.90869 -6.69498,-12.33016 -0.60735,-4.61411 -0.50623,-38.38875 0.13739,-45.88956 0.38018,-4.43062 1.04907,-6.44163 2.99975,-9.01837 3.21468,-4.24651 8.89399,-6.23705 16.0142,-5.61283 5.46116,0.47874 8.7118,2.00119 11.44957,5.36242 2.40113,2.94795 3.64251,7.09122 4.16624,13.9055 0.15525,2.0199 0.33216,4.24613 0.39313,4.94722 l 0.11088,1.27465 h -6.14893 -6.14892 l -0.005,-2.97431 c -0.0139,-9.64511 -0.85868,-11.24115 -5.94436,-11.23057 -2.60617,0.008 -3.4639,0.40279 -4.27231,1.9792 -0.86843,1.69353 -1.18813,8.57503 -1.19526,25.72817 -0.007,16.60418 0.22595,20.33347 1.44753,23.18223 0.81193,1.89343 2.54144,2.64282 5.22426,2.26356 1.7908,-0.25316 2.74156,-0.88903 3.47581,-2.3248 0.83345,-1.62968 1.06648,-3.46401 1.20389,-9.47687 l 0.12409,-5.42933 h 6.12078 6.12079 l -0.1097,1.46358 c -0.0603,0.80496 -0.19649,3.12071 -0.30257,5.14605 -0.23028,4.39651 -0.45714,6.47198 -0.97018,8.87572 -1.6604,7.77959 -5.76284,11.54483 -13.56233,12.44751 -2.29813,0.26604 -5.71691,0.36338 -7.36499,0.20986 z"
         id="path635" />
      <path
         style="fill:#ffffff;stroke:none;stroke-width:0.188846"
         d="m 569.72964,431.78724 c -0.15579,-0.0337 -0.75139,-0.11221 -1.32354,-0.17483 -0.57216,-0.0629 -1.14926,-0.18128 -1.28245,-0.2636 -0.1927,-0.11911 -0.10458,-1.0529 0.4314,-4.57165 0.72192,-4.73935 5.60267,-35.56428 8.93802,-56.44901 l 2.03574,-12.74704 7.54492,0.008 c 7.5434,0.008 9.47928,0.14302 10.03256,0.70193 0.12781,0.12916 0.4122,1.46696 0.63199,2.97301 0.58059,3.9784 2.94864,19.09393 6.41997,40.9796 4.12536,26.00893 4.50709,28.56835 4.30047,28.83355 -0.36344,0.46648 -2.09736,0.66024 -6.78584,0.7582 -4.61221,0.0963 -4.84805,0.0844 -4.94818,-0.25141 -0.0579,-0.19384 -0.4518,-2.38819 -0.87548,-4.87617 -0.86088,-5.05537 -1.16224,-6.26602 -1.74391,-7.00544 -0.76466,-0.97212 -1.16939,-1.02915 -7.3027,-1.02915 h -5.65644 l -0.10615,0.51929 c -0.0584,0.28566 -0.44256,2.56241 -0.85371,5.05951 -1.02064,6.19896 -1.33881,7.03572 -2.83304,7.45077 -0.60499,0.16809 -5.91989,0.23622 -6.62363,0.0849 z m 20.20372,-23.51658 c 1.09084,-0.25132 1.51355,-0.64499 1.51355,-1.40947 0,-2.13755 -3.49827,-25.46289 -4.5374,-30.25391 -0.41744,-1.92462 -0.13363,-3.4332 -3.40169,18.08203 -1.03337,6.80317 -1.92927,12.6881 -1.9909,13.07755 l -0.11203,0.70822 3.84072,-0.008 c 2.1124,0 4.22189,-0.0924 4.68775,-0.19975 z"
         id="path637" />
      <path
         style="fill:#ffffff;stroke:none;stroke-width:0.188846"
         d="m 643.56837,394.59488 v -37.29706 l 1.55797,3.1e-4 c 2.07705,3.8e-4 10.72846,0.33112 14.96604,0.5721 8.78693,0.49974 11.51503,1.74005 15.24834,6.93278 2.03229,2.82676 2.21812,4.22604 2.21341,16.66711 -0.004,9.16951 -0.129,11.45491 -0.7372,13.42162 -0.83014,2.6845 -3.60454,5.8742 -6.34735,7.29762 -3.04485,1.58017 -6.04306,2.13111 -11.59726,2.13111 h -3.21782 v 13.7857 13.78577 h -6.04306 -6.04307 z m 19.92882,-1.99399 c 1.61151,-0.82956 1.94857,-1.84813 2.37121,-7.16502 0.30198,-3.79912 0.1269,-11.45239 -0.29296,-12.8056 -0.78229,-2.52125 -3.36597,-3.89026 -7.79642,-4.13116 l -2.12452,-0.11551 v 12.41547 12.41546 l 3.45203,-0.0652 c 3.26683,-0.0621 3.5024,-0.0911 4.39066,-0.54841 z"
         id="path639" />
      <path
         style="fill:#ffffff;stroke:none;stroke-width:0.188846"
         d="m 712.85056,431.69978 c -1.09988,-0.18579 -1.61711,-0.45981 -1.7685,-0.93678 -0.19236,-0.60613 1.13499,-9.41571 6.70146,-44.47734 1.96229,-12.35997 3.75765,-23.74736 3.98968,-25.3053 0.28644,-1.92332 0.51725,-2.91537 0.71894,-3.09021 0.41382,-0.35871 16.96753,-0.15881 17.30796,0.20902 0.21079,0.22772 1.27261,6.69265 8.1032,49.33726 4.01629,25.07436 3.81473,23.69202 3.48438,23.89621 -0.1476,0.0912 -0.73648,0.23309 -1.30863,0.31533 -1.32112,0.18993 -8.23934,0.19606 -8.91004,0.008 -0.27763,-0.0779 -0.76606,-0.36148 -1.08541,-0.6302 -0.84164,-0.70815 -1.23868,-2.24478 -1.98924,-7.69872 -0.35525,-2.58142 -0.67604,-4.72365 -0.71286,-4.76051 -0.079,-0.079 -13.6159,0.50771 -13.71729,0.59455 -0.0653,0.056 -1.70746,11.99038 -1.71929,12.4948 -0.005,0.18211 -0.94372,0.23101 -4.11292,0.21385 -2.25907,-0.0123 -4.50072,-0.0887 -4.98144,-0.16993 z m 21.54773,-23.47143 c 0.81252,-0.27915 1.16659,-0.93188 1.0443,-1.925 -0.97712,-7.93587 -3.66888,-24.97281 -4.25922,-26.95775 -0.86956,-2.92388 -1.3584,-1.36441 -2.9154,9.30066 -0.47765,3.2717 -1.26048,8.45554 -1.73963,11.5196 -0.47914,3.06399 -0.87911,6.07724 -0.88881,6.69602 -0.016,1.01849 0.0271,1.14795 0.45447,1.3664 0.63093,0.32238 7.36601,0.32245 8.30429,7e-5 z"
         id="path641" />
      <path
         style="fill:#ffffff;stroke:none;stroke-width:0.267068"
         d="m 800.64893,432.72602 c -4.14118,-0.5734 -7.0807,-1.95452 -9.69489,-4.55502 -3.02934,-3.01355 -4.31663,-6.32903 -4.7699,-12.28524 -0.71568,-9.40421 -0.55017,-37.26854 0.26358,-44.377 0.64543,-5.63805 3.65167,-10.0026 8.59819,-12.48322 3.04165,-1.52537 5.41993,-1.97475 9.52418,-1.79977 5.30833,0.22634 8.87041,1.52008 11.55452,4.19661 3.02224,3.01364 4.42324,7.36891 4.89728,15.22415 0.0842,1.39537 0.22243,3.34835 0.30712,4.33979 l 0.15399,1.80275 h -6.16971 -6.16968 l -0.005,-4.33987 c -0.0105,-8.16719 -0.90507,-9.86118 -5.22236,-9.889 -5.18062,-0.033 -5.52255,1.20367 -6.00125,21.71191 -0.48472,20.76584 0.22083,28.72854 2.73288,30.84225 0.94706,0.7969 2.92674,0.90613 4.79053,0.2642 3.08872,-1.06371 3.14508,-1.22521 3.51903,-10.07993 l 0.29041,-6.87706 h 6.10508 6.10513 l -0.16364,3.00451 c -0.74476,13.6728 -1.17173,15.98595 -3.52073,19.07316 -0.89227,1.17271 -4.24729,3.89225 -5.74317,4.65543 -2.56792,1.31006 -7.92579,2.04978 -11.38102,1.57135 z"
         id="path643" />
      <path
         style="fill:#ffffff;stroke:none;stroke-width:0.267068"
         d="m 858.28422,394.6736 v -37.25606 h 6.00903 6.00902 v 37.25606 37.25605 h -6.00902 -6.00903 z"
         id="path645" />
      <path
         style="fill:#ffffff;stroke:none;stroke-width:0.267068"
         d="m 917.50765,400.2153 -0.0675,-31.71443 -6.22578,-0.0713 c -5.75632,-0.0667 -6.21598,-0.10662 -6.09595,-0.53416 0.0713,-0.25431 0.20465,-2.26509 0.29617,-4.4684 0.0915,-2.20332 0.22696,-4.32117 0.301,-4.70632 l 0.13451,-0.70025 11.67053,-0.17001 c 6.41878,-0.0935 14.52481,-0.24435 18.01343,-0.33518 l 6.34282,-0.16525 v 5.5089 5.50882 h -6.14254 -6.14255 v 31.78118 31.78111 h -6.00795 -6.00795 z"
         id="path647" />
      <path
         style="fill:#ffffff;stroke:none;stroke-width:0.267068"
         d="m 976.7927,431.68453 c -2.39509,-0.34039 -2.35569,0.0751 -0.90973,-9.56961 0.69918,-4.66371 2.47434,-16.05087 3.94475,-25.30477 1.47041,-9.2539 3.44539,-21.7441 4.38884,-27.75596 1.06242,-6.76998 1.84453,-11.02185 2.0547,-11.17024 0.32207,-0.22742 16.98644,-0.0659 17.21924,0.16693 0.1051,0.10509 6.2662,38.07695 9.9505,61.32657 1.1415,7.20304 1.7464,11.71421 1.5921,11.87218 -0.3751,0.38385 -6.5366,0.78901 -8.5982,0.56543 -2.1356,-0.2317 -3.1472,-0.92506 -3.609,-2.47349 -0.1668,-0.55953 -0.6113,-3.17329 -0.9877,-5.80836 -0.3765,-2.635 -0.7418,-4.84828 -0.8118,-4.91826 -0.1681,-0.16808 -13.48233,0.40762 -13.6656,0.59088 -0.0779,0.0779 -0.51905,2.94266 -0.98017,6.36597 l -0.83837,6.22433 -3.73895,0.0345 c -2.05645,0.0192 -4.3112,-0.0468 -5.01061,-0.14617 z m 21.50856,-23.50109 c 1.11178,-0.42271 1.10955,-0.47353 -0.49668,-11.37329 -1.3677,-9.2805 -2.46644,-15.82054 -2.92771,-17.42623 -0.95495,-3.32451 -1.41231,-1.58775 -3.70982,14.08784 -0.65664,4.48013 -1.40464,9.44453 -1.66226,11.03213 -0.54864,3.38131 -0.44402,3.70783 1.27243,3.96889 1.55717,0.23677 6.65585,0.0406 7.52404,-0.28934 z"
         id="path649" />
      <path
         style="fill:#ffffff;stroke:none;stroke-width:0.267068"
         d="m 1062.1908,432.30078 c -2.8834,-0.51561 -4.6561,-1.43776 -6.946,-3.61287 -2.3285,-2.21182 -3.4546,-4.19776 -3.9271,-6.9258 -0.4977,-2.87291 -0.4968,-50.50215 0,-53.39476 0.4735,-2.75203 1.181,-4.07091 3.3795,-6.29967 3.3131,-3.35878 6.8549,-4.65014 12.7545,-4.65014 9.8085,0 14.7965,3.63318 16.506,12.02257 0.4233,2.07762 1.046,9.46952 1.0627,12.61452 v 0.73444 h -5.5771 -5.5771 l -0.1275,-4.33987 c -0.093,-3.14914 -0.2506,-4.6696 -0.5759,-5.5417 -1.1585,-3.10561 -2.8114,-4.35159 -5.7726,-4.35159 -3.1183,0 -3.9099,0.8701 -4.5666,5.01927 -0.4079,2.57697 -0.6329,34.45987 -0.2848,40.34855 0.3374,5.70704 0.5459,6.29048 2.581,7.22221 2.4291,1.112 5.0225,0.8632 6.3164,-0.60613 1.6931,-1.92279 2.3673,-5.18882 2.3673,-11.46803 v -4.65021 h 5.4749 5.4749 v 5.80874 c 0,6.34697 -0.369,9.56303 -1.4492,12.66887 -1.7717,5.09454 -5.2865,8.24644 -10.487,9.40382 -2.3893,0.53186 -7.6501,0.53071 -10.63,0 z"
         id="path651" />
      <path
         style="fill:#ffffff;stroke:none;stroke-width:0.267068"
         d="m 1121.8807,394.6736 v -37.25606 h 6.009 6.009 v 37.25606 37.25605 h -6.009 -6.009 z"
         id="path653" />
      <path
         style="fill:#ffffff;stroke:none;stroke-width:0.267068"
         d="m 1183.9106,432.34623 c -3.3825,-0.77498 -6.5362,-3.0249 -8.72,-6.22103 -1.7773,-2.60119 -2.5112,-4.93151 -2.854,-9.06175 -0.4058,-4.88996 -0.1753,-45.09496 0.27,-47.0937 0.4381,-1.9664 2.0843,-5.40527 3.4486,-7.20381 1.9663,-2.59222 4.236,-4.04508 7.7853,-4.98355 2.609,-0.68983 8.7833,-0.62123 11.5678,0.12846 4.4561,1.19976 7.6307,3.70752 9.7219,7.67948 1.9007,3.61034 1.9913,4.27211 2.1357,15.59634 0.1462,11.4576 -0.3227,36.54139 -0.7389,39.52613 -0.395,2.83252 -1.2832,4.47638 -3.828,7.085 -3.4801,3.56726 -6.1987,4.55127 -13.25,4.79577 -2.8192,0.0978 -4.3257,0.0307 -5.5384,-0.24734 z m 8.3635,-11.0716 c 1.409,-0.63993 2.1318,-1.58446 2.5329,-3.31018 0.7135,-3.06913 0.7175,-39.19118 0.01,-45.02529 -0.315,-2.57966 -0.6625,-3.23982 -2.0523,-3.8993 -1.2861,-0.61027 -4.6379,-0.64399 -6.0275,-0.0605 -1.3474,0.56566 -1.779,1.34892 -2.1022,3.81575 -0.4646,3.54534 -0.7644,23.04948 -0.5149,33.49602 0.2877,12.0484 0.6284,13.99978 2.6346,15.09017 1.0324,0.56113 4.1883,0.5002 5.5244,-0.10662 z"
         id="path655" />
      <path
         style="fill:#ffffff;stroke:none;stroke-width:0.267068"
         d="m 1185.579,355.05948 c -0.7261,-0.12202 -1.0948,-0.33235 -1.1572,-0.66024 -0.1063,-0.55808 1.9524,-4.28101 4.3858,-7.9315 2.476,-3.71427 2.5204,-3.75919 4.0004,-4.04125 1.3045,-0.24872 9.0144,-0.0368 10.2025,0.2803 0.5436,0.14509 0.029,0.75352 -4.8072,5.68235 -3.4538,3.52004 -5.8255,5.72113 -6.5463,6.07532 -1.2313,0.60514 -4.2558,0.90123 -6.078,0.59502 z"
         id="path657" />
      <path
         style="fill:#ffffff;stroke:none;stroke-width:0.267068"
         d="m 1244.5654,417.30765 c 0.091,-8.0421 0.2406,-24.68898 0.3328,-36.99307 l 0.1674,-22.37108 7.4878,0.0705 7.4878,0.0705 5.0979,19.00724 c 2.8039,10.45398 5.1726,19.08144 5.2638,19.17219 0.091,0.0908 0.2423,-5.81855 0.3357,-13.13174 0.093,-7.31318 0.2437,-16.09087 0.3341,-19.50598 l 0.1645,-6.20939 h 5.4422 5.4423 v 37.29047 37.29047 l -2.604,-0.1638 c -1.4321,-0.0901 -4.2464,-0.24136 -6.2541,-0.33633 -3.422,-0.1618 -3.6594,-0.20794 -3.7978,-0.73865 -2.2791,-8.73615 -13.1254,-48.70177 -13.2596,-48.85775 -0.1037,-0.12064 -0.2649,7.81132 -0.3581,17.62651 -0.093,9.81527 -0.2435,21.12088 -0.3341,25.12357 l -0.1648,7.27762 h -5.4745 -5.4747 z"
         id="path659" />
      <path
         style="fill:#ffffff;stroke:none;stroke-width:0.267068"
         d="m 1367.0494,394.6736 v -37.25606 h 3.2716 c 5.3244,0.008 14.7285,0.49515 17.5103,0.91119 3.2121,0.48043 6.4826,1.49655 8.0615,2.50462 1.4654,0.93556 3.2507,2.84508 3.96,4.23562 1.4849,2.91062 2.3631,7.82389 2.6176,14.6453 0.4582,12.28156 -2.3159,19.65277 -8.5424,22.69814 -2.7795,1.35942 -5.0339,1.73859 -10.3378,1.73859 h -4.5227 v 13.88756 13.88756 h -6.0091 -6.009 z m 19.4274,-1.87388 c 1.6984,-0.50435 2.5912,-1.51441 2.9924,-3.38553 0.5468,-2.54946 0.8342,-9.30357 0.5569,-13.0856 -0.3984,-5.43278 -0.7019,-6.07954 -3.1932,-6.80378 -1.7502,-0.50879 -7.427,-1.40687 -7.6272,-1.20666 -0.076,0.0759 -0.1382,5.70664 -0.1382,12.51242 v 12.37415 h 3.0228 c 1.9239,0 3.5186,-0.14724 4.3865,-0.405 z"
         id="path661" />
      <path
         style="fill:#ffffff;stroke:none;stroke-width:0.267068"
         d="m 1436.4407,431.73627 c -0.5396,-0.0567 -1.1069,-0.25501 -1.2605,-0.44011 -0.1985,-0.23922 0.1765,-3.07319 1.2969,-9.79979 0.8669,-5.20484 3.147,-19.25803 5.0669,-31.2294 4.3878,-27.35946 4.9702,-30.78783 5.3505,-31.49851 0.516,-0.96415 1.5369,-1.15186 6.9521,-1.27802 5.9828,-0.13943 9.1638,0.15904 9.9373,0.93249 0.6529,0.65289 0.707,0.96377 6.349,36.49195 2.4981,15.73117 4.8372,30.28457 5.198,32.34087 0.3721,2.12061 0.5554,3.83944 0.4236,3.97119 -0.474,0.47407 -2.6737,0.67972 -7.3897,0.69106 l -4.8443,0.0115 -0.1454,-0.86796 c -0.08,-0.47744 -0.4147,-3.48195 -0.7436,-6.6767 l -0.598,-5.80875 h -7.1221 -7.1222 l -0.5928,5.67515 c -0.326,3.1214 -0.6611,6.12591 -0.7444,6.6767 l -0.1516,1.00156 -4.4393,-0.0452 c -2.4415,-0.0245 -4.8807,-0.0915 -5.4204,-0.14847 z m 23.2416,-23.68842 c 0.3615,-0.36155 0.2997,-1.08196 -0.5791,-6.75596 -0.5411,-3.49314 -1.4054,-9.18982 -1.9205,-12.65928 -1.1765,-7.92215 -1.7299,-10.91784 -2.0173,-10.91784 -0.3106,0 -0.6419,1.26905 -1.7082,6.54318 -1.6763,8.29197 -3.6124,20.32642 -3.6152,22.47194 0,0.80327 0.1267,1.15922 0.4659,1.2991 1.7819,0.73452 8.6448,0.74831 9.3744,0.0184 z"
         id="path663" />
      <path
         style="fill:#ffffff;stroke:none;stroke-width:0.267068"
         d="m 1511.2663,394.57081 v -37.35883 l 1.6692,0.1024 c 0.918,0.0559 4.9741,0.22802 9.0136,0.38163 13.5947,0.51691 17.0436,1.23878 19.9636,4.17844 4.1223,4.15009 5.7446,12.85389 4.1682,22.36219 -0.755,4.55387 -2.062,7.47951 -4.4542,9.97079 l -1.6192,1.68617 1.9084,1.92715 c 3.884,3.92221 4.575,7.36331 5.1304,25.54927 0.1411,4.61963 0.2161,8.43968 0.1667,8.48904 -0.049,0.0491 -2.3588,-0.0337 -5.1321,-0.18549 -2.7734,-0.15146 -5.4229,-0.27593 -5.8877,-0.2767 h -0.8451 l -0.1513,-1.93627 c -0.083,-1.06487 -0.4004,-6.86365 -0.7049,-12.88601 l -0.5535,-10.9498 -0.8107,-0.83845 c -0.4458,-0.46119 -1.4308,-1.18015 -2.189,-1.59772 -1.2502,-0.68861 -1.6699,-0.76847 -4.5163,-0.85884 l -3.138,-0.0996 v 14.85048 14.85041 h -6.0091 -6.009 z m 18.8988,-3.90236 c 1.8062,-0.54527 3.1655,-1.74028 3.598,-3.16333 0.4825,-1.5876 0.4596,-12.52353 -0.031,-14.95664 -0.3142,-1.55748 -0.488,-1.9004 -1.1744,-2.31782 -1.0787,-0.65603 -3.505,-1.27396 -6.6691,-1.69844 l -2.6038,-0.34943 v 11.61649 11.61649 l 2.7373,-0.16142 c 1.5056,-0.0888 3.3702,-0.35243 4.1434,-0.5859 z"
         id="path665" />
      <path
         style="fill:#ffffff;stroke:none;stroke-width:0.267068"
         d="m 1583.8725,431.68476 c -1.881,-0.26359 -2.1943,-0.6443 -1.9886,-2.41662 0.2642,-2.27529 2.8264,-18.85257 5.9248,-38.33349 1.5419,-9.69455 3.3333,-21.04147 3.9809,-25.21532 0.7289,-4.69873 1.3086,-7.68132 1.5223,-7.83186 0.3271,-0.23048 16.9888,-0.0728 17.2246,0.16303 0.1295,0.12954 8.3627,51.03263 11.3879,70.40724 0.2409,1.54277 0.3001,2.63699 0.1512,2.79189 -0.3691,0.3837 -6.532,0.78909 -8.5944,0.56543 -2.1355,-0.2317 -3.1472,-0.92506 -3.6089,-2.47349 -0.1669,-0.55953 -0.6114,-3.17329 -0.9878,-5.80836 -0.3764,-2.635 -0.7429,-4.84943 -0.8143,-4.92086 -0.1683,-0.16824 -13.4935,0.42386 -13.6774,0.60781 -0.077,0.0767 -0.5128,2.96773 -0.969,6.42446 l -0.8296,6.28503 -3.7418,-0.036 c -2.0579,-0.0199 -4.2989,-0.11375 -4.9799,-0.20918 z m 20.0383,-23.24769 c 0.9393,-0.13575 1.8265,-0.36554 1.9716,-0.51063 0.4469,-0.44693 0.2504,-2.58954 -1.0099,-11.01258 -2.2659,-15.14328 -2.9906,-18.93205 -3.6211,-18.93205 -0.633,0 -1.0224,1.98716 -3.0615,15.62355 -0.8127,5.43478 -1.6173,10.80287 -1.7879,11.92906 -0.3698,2.44107 -0.1833,2.8145 1.482,2.96573 2.2162,0.20135 4.3526,0.17897 6.0268,-0.0629 z"
         id="path667" />
      <path
         style="fill:#ffffff;stroke:none;stroke-width:0.267068"
         d="m 1704.3567,394.6736 v -37.25606 h 8.4076 8.4076 l 0.1313,0.60092 c 0.072,0.33051 1.1636,7.09068 2.4253,15.02264 3.7309,23.45357 5.3858,32.98294 5.7282,32.98294 0.1109,0 0.2801,-0.45068 0.376,-1.00155 1.2596,-7.23531 6.6933,-42.22987 6.9978,-45.06775 0.1035,-0.96477 0.3391,-1.73531 0.5919,-1.93628 0.4765,-0.37879 5.647,-0.44624 12.2606,-0.16004 l 4.0155,0.17384 0.1675,25.79861 c 0.092,14.18916 0.2415,30.81611 0.3322,36.94869 l 0.1647,11.15009 h -6.0074 -6.0074 l -0.1653,-8.21234 c -0.091,-4.51684 -0.2431,-14.28153 -0.338,-21.69933 -0.095,-7.41781 -0.2699,-13.24656 -0.3891,-12.95285 -0.1191,0.2938 -1.1897,7.2042 -2.3789,15.35644 -3.3055,22.65805 -3.8053,25.28193 -5.0757,26.64556 -0.7786,0.83577 -1.2026,0.89027 -6.2632,0.80511 l -4.5274,-0.0759 -3.6513,-21.57662 c -2.0081,-11.86713 -3.7264,-21.65182 -3.8184,-21.7438 -0.092,-0.092 -0.1674,6.31248 -0.1677,14.23217 -3e-4,7.9197 -0.08,17.73451 -0.1765,21.81063 l -0.1759,7.41114 h -5.4321 -5.4319 z"
         id="path669" />
      <path
         style="fill:#ffffff;stroke:none;stroke-width:0.267068"
         d="m 1792.2222,394.6736 v -37.25606 h 6.009 6.009 v 37.25606 37.25605 h -6.009 -6.009 z"
         id="path671" />
      <path
         style="fill:#ffffff;stroke:none;stroke-width:0.267068"
         d="m 1842.5333,401.28354 c 0.093,-16.85536 0.2419,-33.5004 0.3316,-36.98894 l 0.1631,-6.3429 h 7.4153 c 6.8364,0 7.4252,0.0368 7.5409,0.4674 0.069,0.257 2.3966,8.94011 5.1723,19.29567 l 5.0467,18.82834 0.174,-2.00303 c 0.096,-1.10166 0.2604,-9.90487 0.366,-19.56279 l 0.1919,-17.55975 h 5.4427 5.4428 v 37.27361 37.27361 l -3.5386,-0.18319 c -1.9463,-0.10072 -4.7277,-0.25884 -6.1809,-0.35136 l -2.6422,-0.16824 -6.5902,-24.43673 c -3.6246,-13.44024 -6.654,-24.61708 -6.7321,-24.83737 -0.2053,-0.57961 -0.4598,11.95098 -0.6548,32.24851 l -0.17,17.69327 h -5.4737 -5.4735 z"
         id="path673" />
      <path
         style="fill:#ffffff;stroke:none;stroke-width:0.267068"
         d="m 1917.9114,431.67771 c -1.5761,-0.21868 -2.0829,-0.78901 -1.893,-2.13035 0.737,-5.20445 3.6995,-24.34444 6.6379,-42.88582 1.9786,-12.48544 3.8003,-24.02276 4.0479,-25.63857 0.2477,-1.61573 0.5865,-3.02605 0.7528,-3.13397 0.3515,-0.2281 9.5185,-0.20733 14.1779,0.0322 l 3.1927,0.1641 4.2155,26.17272 c 4.0032,24.85508 6.9108,43.11063 7.3022,45.84857 l 0.1784,1.24805 -1.2958,0.21139 c -0.7127,0.11628 -3.0596,0.21561 -5.2153,0.22075 -3.5596,0.008 -3.9887,-0.0414 -4.6737,-0.54658 -1.0416,-0.76785 -1.5568,-2.48016 -2.2116,-7.34951 -0.3041,-2.26195 -0.618,-4.40034 -0.6976,-4.752 l -0.1446,-0.6394 -4.8592,0.17576 c -2.6726,0.0966 -5.7776,0.24849 -6.9,0.33748 l -2.0408,0.1618 -0.1439,0.96959 c -0.079,0.53324 -0.4709,3.40316 -0.8707,6.37762 l -0.7269,5.40819 -3.7652,-0.036 c -2.0708,-0.0199 -4.351,-0.11689 -5.067,-0.21622 z m 20.2315,-23.22371 c 2.037,-0.25385 2.3987,-0.70331 2.1698,-2.69707 -0.2604,-2.26808 -2.4687,-17.00092 -3.2426,-21.6325 -0.7541,-4.51363 -1.1271,-5.91199 -1.6198,-6.07341 -0.569,-0.18648 -1.0995,2.44767 -2.8635,14.21898 -0.9466,6.31615 -1.8676,12.36074 -2.0468,13.43243 -0.2429,1.45278 -0.2487,2.02557 -0.023,2.25145 0.6298,0.62981 4.5313,0.88566 7.6257,0.50012 z"
         id="path675" />
    </g>
    <path
       style="fill:#f9c501;fill-opacity:1;stroke-width:0.0952927"
       d="m 109.4361,27.707156 v -5.959449 l 2.83497,-3.6e-5 2.83498,-3.7e-5 -0.0286,5.88126 c -0.0158,3.234681 -0.0372,5.887514 -0.0477,5.895182 -0.0106,0.0078 -1.27334,0.04288 -2.80636,0.07823 l -2.78734,0.0643 z m 11.91166,-2.190699 v -8.152241 l 2.73969,-2.8e-5 2.73968,-2.1e-5 -0.0282,8.072554 c -0.0155,4.439914 -0.037,8.079097 -0.0477,8.087072 -0.0107,0.008 -1.23088,0.04384 -2.7115,0.0797 l -2.69205,0.0652 z m 9.74704,6.640809 c -0.39602,-0.824796 -0.90535,-1.907006 -1.13187,-2.404917 l -0.4118,-0.905285 2.13558,-0.04765 2.13558,-0.04765 0.37333,-0.364675 0.37332,-0.364678 0.19178,0.317035 c 0.10554,0.174364 0.5148,0.938817 0.90958,1.698781 0.39477,0.759963 0.97622,1.852347 1.29207,2.427526 0.31585,0.575182 0.56603,1.051644 0.55596,1.05882 -0.009,0.0071 -1.29748,0.03987 -2.86093,0.07268 l -2.84257,0.05963 z m 7.1638,1.335346 c 0.0355,-0.09172 1.33001,-3.554443 2.877,-7.694938 1.547,-4.140493 2.8454,-7.562325 2.88536,-7.604068 0.04,-0.04174 0.14716,0.129781 0.23823,0.381174 0.0911,0.251386 0.29086,0.778685 0.44397,1.171765 0.1531,0.393088 0.27815,0.770488 0.27787,0.83866 0,0.06818 0.32091,0.996789 0.71379,2.063567 l 0.71429,1.939603 -1.46716,4.464025 -1.46711,4.464036 -1.55803,0.05828 c -0.85689,0.03207 -2.04502,0.06422 -2.64026,0.07147 -0.9946,0.01211 -1.07704,0 -1.01795,-0.153578 z m 12.52021,-0.09506 c -0.058,-0.144255 -0.20188,-0.541018 -0.31989,-0.881697 l -0.21455,-0.619403 h -2.57609 c -1.41684,0 -2.60151,-0.02531 -2.6326,-0.05628 -0.031,-0.03093 0.18387,-0.744705 0.47769,-1.586126 0.62306,-1.784403 0.43333,-1.645222 2.24258,-1.645222 0.62238,0 1.1316,-0.01822 1.1316,-0.04053 0,-0.02229 -0.26134,-0.719118 -0.58074,-1.548515 -0.31941,-0.829385 -0.72464,-1.915359 -0.90054,-2.413262 -0.17587,-0.49791 -0.61685,-1.655725 -0.97993,-2.572926 -0.36311,-0.917195 -0.92271,-2.329978 -1.24358,-3.139502 -0.32087,-0.809537 -0.58341,-1.485598 -0.58341,-1.50236 0,-0.01677 1.20837,-0.0191 2.68528,-0.005 l 2.68528,0.02531 0.31415,0.90529 c 0.17279,0.497903 1.59737,4.121437 3.16573,8.052287 1.56837,3.930848 2.84516,7.151764 2.83728,7.157589 -0.007,0.0058 -1.22672,0.03809 -2.70859,0.0717 l -2.6943,0.06114 z m 8.51954,-1.345542 -1.64381,-1.59848 V 25.551651 20.64978 l 1.6448,-1.642779 1.64482,-1.642787 h 1.07104 1.07107 v 8.086658 8.086661 l -0.50029,0.06009 c -0.27518,0.03304 -0.75759,0.05846 -1.07206,0.05648 l -0.57176,-0.0036 -1.64381,-1.598491 z m 4.64555,10e-4 c 0,-1.590597 0.003,-1.612209 0.21439,-1.668925 0.11795,-0.0316 0.90994,-0.05804 1.76001,-0.05877 l 1.54558,-0.0014 0.0267,-1.16734 0.0267,-1.167345 h 2.71586 2.71585 l -0.032,1.191168 -0.032,1.191168 -1.58785,1.585566 -1.58784,1.58558 -2.88264,0.06083 -2.88261,0.06083 V 32.0529 Z m -36.24323,-3.317195 c -0.0351,-0.03494 -0.0636,-0.737492 -0.0636,-1.561229 0,-1.472603 0.003,-1.498656 0.21439,-1.555153 0.11794,-0.03159 1.01846,-0.05804 2.00117,-0.05877 l 1.78675,-0.0014 0.001,-2.120276 c 0.001,-1.166154 0.0288,-2.288102 0.0627,-2.49322 l 0.0616,-0.372943 -1.7736,0.06173 c -0.97548,0.03395 -1.90421,0.03561 -2.06381,0.0037 l -0.2902,-0.05804 v -1.608043 -1.608079 l 3.12086,0.0025 3.12084,0.0025 1.59617,1.656851 1.59617,1.656844 v 2.415859 2.415859 l -1.22771,1.224984 c -1.07104,1.068652 -1.23995,1.203138 -1.32355,1.053746 -0.0914,-0.16324 -0.20439,-0.156733 -2.41727,0.13916 -2.90884,0.388928 -2.76296,0.354293 -2.69151,0.63889 0.0571,0.227853 0.0562,0.228096 -0.79484,0.228096 -0.46866,0 -0.8807,-0.02859 -0.91562,-0.06353 z m 39.7838,-6.462331 0.0371,-1.696733 -1.48106,0.06332 c -0.81457,0.03482 -1.61954,0.03562 -1.78878,0.0018 l -0.30774,-0.06156 V 18.97228 17.364207 h 2.88435 2.88434 l 1.59445,1.660126 1.59443,1.660133 v 1.57984 1.579848 h -1.07205 c -0.58962,0 -1.81678,0.02854 -2.72699,0.06306 l -1.65495,0.06278 0.037,-1.696733 z m -62.24129,-3.12259 1e-5,-1.786752 h 7.04574 7.04573 l -0.0546,1.739107 c -0.0299,0.956508 -0.0596,1.745581 -0.0656,1.753499 -0.006,0.0079 -3.15196,0.02936 -6.99109,0.04765 l -6.98024,0.03324 z"
       id="path703" />
  </g>
</svg>
