<?xml version="1.0" encoding="UTF-8" standalone="no"?>
<svg
   viewBox="0 0 500 500"
   version="1.1"
   id="svg922"
   sodipodi:docname="logo_asercap_cuadrado_grea.svg"
   width="500"
   height="500"
   inkscape:version="1.2.2 (b0a8486541, 2022-12-01)"
   inkscape:export-filename="Ministerio_de_Educacion_cuadrado.png"
   inkscape:export-xdpi="96"
   inkscape:export-ydpi="96"
   xmlns:inkscape="http://www.inkscape.org/namespaces/inkscape"
   xmlns:sodipodi="http://sodipodi.sourceforge.net/DTD/sodipodi-0.dtd"
   xmlns="http://www.w3.org/2000/svg"
   xmlns:svg="http://www.w3.org/2000/svg">
  <defs
     id="defs926" />
  <sodipodi:namedview
     id="namedview924"
     pagecolor="#505050"
     bordercolor="#ffffff"
     borderopacity="1"
     inkscape:showpageshadow="0"
     inkscape:pageopacity="0"
     inkscape:pagecheckerboard="1"
     inkscape:deskcolor="#505050"
     showgrid="false"
     inkscape:zoom="0.35355339"
     inkscape:cx="-548.71486"
     inkscape:cy="309.71277"
     inkscape:window-width="1920"
     inkscape:window-height="1043"
     inkscape:window-x="0"
     inkscape:window-y="0"
     inkscape:window-maximized="1"
     inkscape:current-layer="svg922" />
  <g
     id="g17087"
     transform="matrix(4.4640116,0,0,-4.4640116,-65.446311,3404.6593)">
    <path
       d="m 80.0544,761.6132 4.672,-8.2021 4.6724,-8.2015 -4.6724,-8.2017 -4.6723,-8.2018 H 70.71 61.3653 l -4.6724,8.2018 -4.672,8.2015 4.6723,8.2017 4.6723,8.2018 h 9.3442 z"
       style="fill:#fdb814;fill-opacity:1;fill-rule:evenodd;stroke:none"
       id="path266-2" />
    <path
       d="m 61.3602,695.9991 4.6723,8.2017 4.6721,8.2015 -4.6721,8.2018 -4.6723,8.2017 h -9.3445 l -9.3446,3e-4 -4.6721,-8.202 -4.6721,-8.2015 4.6721,-8.2018 4.6723,-8.2017 h 9.3444 z"
       style="fill:#fdb814;fill-opacity:1;fill-rule:evenodd;stroke:none"
       id="path268-0" />
    <path
       d="m 80.049,695.9991 -4.6724,8.2017 -4.672,8.2015 4.6723,8.2018 4.6724,8.2017 h 9.3441 l 9.3447,3e-4 4.6723,-8.202 4.6721,-8.2015 -4.6724,-8.2018 -4.6723,-8.2017 h -9.3441 z"
       style="fill:#fdb814;fill-opacity:1;fill-rule:evenodd;stroke:none"
       id="path270-2" />
    <path
       d="m 33.7941,675.1704 h -5.2674 v 10.796 h -1.756 v -6.2977 l -2.1651,-4.4983 h -6.6135 l 6.1452,12.5954 h 9.6568 z"
       style="fill:#000000;fill-opacity:1;fill-rule:nonzero;stroke:none"
       id="path272" />
    <path
       d="m 47.7635,678.7689 c 0,-1.093 -0.3008,-1.9658 -0.902,-2.6189 -0.6009,-0.6531 -1.4043,-0.9796 -2.4103,-0.9796 h -5.7963 c -1.006,0 -1.8096,0.3265 -2.4106,0.9796 -0.6012,0.6531 -0.9017,1.5259 -0.9017,2.6189 v 0.18 h 5.2994 v -1.9794 h 1.6563 v 3.5989 h -3.6434 c -1.055,0 -1.8708,0.3163 -2.4474,0.9496 -0.5766,0.6332 -0.8649,1.516 -0.8649,2.649 0,1.093 0.3005,1.9658 0.9017,2.6189 0.601,0.6531 1.4046,0.9799 2.4106,0.9799 h 5.7963 c 1.006,0 1.8094,-0.3268 2.4103,-0.9799 0.6012,-0.6531 0.902,-1.5259 0.902,-2.6189 v -0.18 h -5.4652 v 1.9794 H 40.642 v -3.5986 h 3.8092 c 1.0551,0 1.8709,-0.3166 2.4474,-0.9499 0.5766,-0.633 0.8649,-1.5159 0.8649,-2.649"
       style="fill:#000000;fill-opacity:1;fill-rule:nonzero;stroke:none"
       id="path274-3" />
    <path
       d="M 61.979,675.1704 H 49.3835 v 12.5954 H 61.979 v -3.5988 h -5.3983 v 1.7994 h -1.7992 v -3.5986 h 5.398 v -1.7994 h -5.398 v -3.5989 h 1.7992 v 1.7994 h 5.3983 z"
       style="fill:#000000;fill-opacity:1;fill-rule:nonzero;stroke:none"
       id="path276-7" />
    <path
       d="m 80.1513,675.1704 h -6.9681 l -2.2819,4.4983 v 6.2977 h -1.8499 v -10.796 h -5.55 v 12.5954 h 10.175 c 1.48,0 2.7201,-0.2934 3.7205,-0.8798 1.1922,-0.7064 1.7884,-1.7391 1.7884,-3.0989 0,-0.6531 -0.137,-1.2926 -0.4111,-1.9193 -0.3155,-0.7195 -0.7333,-1.2195 -1.2537,-1.4993 z"
       style="fill:#000000;fill-opacity:1;fill-rule:nonzero;stroke:none"
       id="path278-5" />
    <path
       d="m 93.3276,678.7689 c 0,-1.093 -0.3062,-1.9658 -0.9179,-2.6189 -0.6117,-0.6531 -1.4295,-0.9796 -2.4534,-0.9796 h -5.9 c -1.0239,0 -1.8414,0.3265 -2.4534,0.9796 -0.6117,0.6531 -0.9178,1.5259 -0.9178,2.6189 v 5.3981 c 0,1.093 0.3061,1.9658 0.9178,2.6189 0.612,0.6531 1.4295,0.9799 2.4534,0.9799 h 5.9 c 1.0239,0 1.8417,-0.3268 2.4534,-0.9799 0.6117,-0.6531 0.9179,-1.5259 0.9179,-2.6189 v -1.7992 h -5.3941 v 3.5986 h -1.6854 v -8.9969 h 1.6854 v 3.5989 h 5.3941 z"
       style="fill:#000000;fill-opacity:1;fill-rule:nonzero;stroke:none"
       id="path280-9" />
    <path
       d="m 109.3966,675.1704 h -4.9014 v 10.7968 h -2.1945 v -6.2983 l -2.1878,-4.4985 h -6.6818 l 6.2087,12.5963 h 9.7568 z"
       style="fill:#000000;fill-opacity:1;fill-rule:nonzero;stroke:none"
       id="path282-2" />
    <path
       d="m 123.4176,684.1675 c 0,-1.1061 -0.3503,-1.9825 -1.0505,-2.6291 -0.7001,-0.6463 -1.5593,-0.9697 -2.5767,-0.9697 h -2.7255 v 5.3985 h -1.315 v -10.7968 h -4.8481 v 12.5963 h 8.8886 c 1.0296,0 1.8794,-0.3067 2.5498,-0.9199 0.7183,-0.6664 1.0774,-1.5596 1.0774,-2.6793"
       style="fill:#000000;fill-opacity:1;fill-rule:nonzero;stroke:none"
       id="path284-2" />
    <text
       xml:space="preserve"
       transform="scale(0.95587656,-1.0461602)"
       style="font-variant:normal;font-weight:bold;font-size:7.73782px;font-family:Cambria;-inkscape-font-specification:Cambria-Bold;writing-mode:lr-tb;fill:#000000;fill-opacity:1;fill-rule:nonzero;stroke:none;stroke-width:0.955877"
       id="text288"
       x="21.901991"
       y="-632.47272"><tspan
         x="21.901991 27.024429 31.496889 35.466389 40.844177 44.901909 50.132675 54.566452 57.274685 62.652473 67.906456 69.608772 75.063934 77.772171 82.894608 87.287964 91.721733 96.44928 101.82706 106.94949 109.65774 114.70279"
         y="-632.47272"
         sodipodi:role="line"
         id="tspan286"
         style="fill:#000000;stroke-width:0.955877">RESOLUCIÓN	DIRECTORIAL</tspan></text>
    <text
       xml:space="preserve"
       transform="scale(1.0677078,-0.93658581)"
       style="font-variant:normal;font-weight:bold;font-size:8.6431px;font-family:Cambria;-inkscape-font-specification:Cambria-Bold;writing-mode:lr-tb;fill:#000000;fill-opacity:1;fill-rule:nonzero;stroke:none;stroke-width:0.936586"
       id="text292"
       x="31.519859"
       y="-695.95331"><tspan
         x="31.519859 37.388519 40.655609 42.557091 47.673801 52.790516 57.907227 60.81995 65.936661 71.053375 73.966103 79.558182 85.279907 90.218163"
         y="-695.95331"
         sodipodi:role="line"
         id="tspan290"
         style="fill:#000000;stroke-width:0.936586">N°	018-91-GREA</tspan></text>
  </g>
</svg>
