<?xml version="1.0" encoding="UTF-8" standalone="no"?>
<!-- Created with Inkscape (http://www.inkscape.org/) -->

<svg
   version="1.1"
   id="svg2"
   width="1122.5601"
   height="310.44"
   viewBox="0 0 1122.5601 310.44"
   sodipodi:docname="logo-grupo-harvard-cuadrado-negro.svg"
   xml:space="preserve"
   inkscape:version="1.2.2 (b0a8486541, 2022-12-01)"
   xmlns:inkscape="http://www.inkscape.org/namespaces/inkscape"
   xmlns:sodipodi="http://sodipodi.sourceforge.net/DTD/sodipodi-0.dtd"
   xmlns="http://www.w3.org/2000/svg"
   xmlns:svg="http://www.w3.org/2000/svg"><defs
     id="defs6" /><sodipodi:namedview
     id="namedview4"
     pagecolor="#505050"
     bordercolor="#ffffff"
     borderopacity="1"
     inkscape:showpageshadow="0"
     inkscape:pageopacity="0"
     inkscape:pagecheckerboard="1"
     inkscape:deskcolor="#505050"
     showgrid="false"
     inkscape:zoom="0.88627708"
     inkscape:cx="805.61713"
     inkscape:cy="137.09031"
     inkscape:window-width="2512"
     inkscape:window-height="1011"
     inkscape:window-x="0"
     inkscape:window-y="0"
     inkscape:window-maximized="1"
     inkscape:current-layer="g8" /><g
     inkscape:groupmode="layer"
     inkscape:label="Image"
     id="g8"><path
       style="fill:#000000;stroke-width:0.198087"
       d="m 92.279158,307.06695 c -3.040546,-0.25541 -6.342122,-0.79543 -7.519014,-1.22986 -1.886465,-0.69635 -3.600367,-2.83101 -3.93047,-4.89537 -0.146141,-0.91393 -0.108608,-0.90072 -3.148834,-1.10807 -5.742858,-0.39168 -14.191414,-2.85459 -16.302254,-4.75242 -1.195245,-1.07462 -1.984259,-2.72553 -2.079114,-4.35024 l -0.06727,-1.15302 -1.868503,-0.52404 c -3.925734,-1.10098 -8.169233,-3.03669 -11.768341,-5.3682 -3.047995,-1.97451 -4.110626,-3.49572 -4.145756,-5.93483 -0.01032,-0.70842 0.04859,-1.6026 0.130768,-1.98705 l 0.149318,-0.69901 -1.483884,-0.73424 c -3.754597,-1.85783 -7.615334,-4.68481 -10.774763,-7.88967 -2.395743,-2.4302 -3.093359,-3.76976 -3.080153,-5.91457 0.0072,-1.11845 0.12531,-1.75863 0.470074,-2.5411 0.253478,-0.57529 0.426443,-1.07021 0.38436,-1.09983 -0.966229,-0.67991 -3.630648,-3.06075 -4.866697,-4.34871 -2.743592,-2.85876 -5.821805,-7.31829 -6.515562,-9.43934 -0.650559,-1.98896 -0.112177,-4.61046 1.270209,-6.18491 l 0.619258,-0.70531 -0.415094,-0.37411 c -0.783742,-0.70633 -3.318982,-4.73354 -4.412997,-7.01 -0.602111,-1.2529 -1.471979,-3.39224 -1.933036,-4.75408 -0.758733,-2.24115 -0.839206,-2.66403 -0.848151,-4.45695 -0.0083,-1.71597 0.0553,-2.1133 0.477451,-2.9713 0.268025,-0.54473 0.854712,-1.34492 1.30375,-1.77821 l 0.816426,-0.78778 -1.040914,-2.18352 c -1.8272555,-3.833 -2.7906783,-7.35827 -3.2665812,-11.95268 -0.4677731,-4.51606 0.028269,-6.46155 2.1234672,-8.329 l 1.092602,-0.97382 -0.327111,-0.96259 c -1.23995,-3.64887 -1.7473401,-7.35449 -1.6524649,-12.06863 0.066957,-3.32851 0.1038304,-3.62159 0.5846549,-4.65089 0.627109,-1.34243 1.4984,-2.36322 2.453559,-2.87452 0.809927,-0.43356 0.808379,-0.30292 0.03312,-2.8073 -0.896249,-2.89531 -1.364527,-6.31722 -1.362753,-9.95797 0.0021,-5.22334 0.400135,-6.74376 2.229289,-8.52541 l 0.956242,-0.9314 -0.379191,-1.46181 c -0.682068,-2.62937 -1.014709,-5.49746 -1.019558,-8.79098 -0.0052,-3.86225 0.286204,-6.18955 0.949154,-7.56744 0.560358,-1.16464 2.136477,-2.69065 3.16205,-3.06151 0.374724,-0.1355 0.681314,-0.31755 0.681314,-0.40457 0,-0.087 -0.152331,-0.98278 -0.338511,-1.99059 -0.470394,-2.54633 -0.469269,-9.03947 0.0021,-11.53863 0.184912,-0.98052 0.424287,-2.09785 0.531966,-2.48292 0.504316,-1.80365 2.376244,-3.71035 4.123377,-4.19997 0.706447,-0.19797 0.835802,-0.30763 0.755783,-0.64067 -0.595291,-2.47738 -0.617256,-7.90153 -0.04498,-11.10199 0.608466,-3.40283 1.082584,-4.75702 2.099263,-5.99608 l 0.53437,-0.65125 -0.543407,-1.53561 c -0.838639,-2.36987 -1.417887,-5.28031 -1.445785,-7.2643 -0.02198,-1.56706 0.03982,-1.91461 0.51126,-2.87226 0.294984,-0.59921 0.724635,-1.32073 0.954777,-1.60338 l 0.418458,-0.5139 -1.081439,-1.66505 c -2.276654,-3.50521 -4.100154,-8.01294 -4.100154,-10.13559 0,-1.45707 0.479524,-2.86109 1.386378,-4.05925 l 0.746209,-0.98592 -0.689682,-0.86847 C 20.849657,55.29623 19.37351,52.75456 18.578874,50.957 17.800548,49.19637 17.588451,47.34239 18.01052,45.98918 l 0.278033,-0.89139 -1.810449,-1.88182 c -1.828834,-1.90093 -3.337645,-3.94631 -4.383655,-5.94259 -0.505461,-0.96467 -0.571067,-1.2937 -0.572676,-2.87226 -0.0021,-2.0888 0.41432,-3.16166 1.780952,-4.58795 l 0.826764,-0.86285 -0.941922,-1.92963 c -1.748516,-3.58207 -3.009554,-8.40879 -3.02213,-11.56747 -0.0052,-1.31298 0.07903,-1.6892 0.628791,-2.80579 1.125451,-2.28613 3.189822,-3.58768 5.677882,-3.57982 4.181029,0.0132 11.444945,4.15792 14.647942,8.35795 l 0.731569,0.95931 1.026057,-0.35457 c 2.230971,-0.77093 4.815061,-0.28835 6.527519,1.21902 2.061792,1.81486 3.986678,7.14938 4.405899,12.21032 l 0.13375,1.61451 0.922031,0.35154 c 1.3503,0.51482 3.023068,2.26513 3.583994,3.7501 1.059061,2.80375 1.437984,4.80735 1.545529,8.17232 0.101416,3.17138 0.110185,3.22341 0.565186,3.33761 1.457566,0.36582 3.401094,2.50026 3.928469,4.31437 0.996169,3.42673 1.273119,9.14686 0.619608,12.79775 -0.185272,1.035 -0.383586,2.15325 -0.440701,2.48499 -0.08759,0.50892 -0.02229,0.64037 0.418386,0.84113 0.949701,0.43271 2.430325,2.0022 2.884233,3.05733 0.890656,2.0704 0.890027,7.38747 -10e-4,11.50173 -0.463089,2.1374 -1.282672,4.6697 -2.102874,6.49737 l -0.553188,1.23268 0.484889,0.31561 c 1.054821,0.68658 1.938813,1.64381 2.383992,2.58148 0.256924,0.54115 0.506565,0.94448 0.554756,0.89629 0.04818,-0.0482 0.730527,-9.78973 1.516311,-21.64787 l 1.428699,-21.56027 0.537289,-1.19724 c 0.632206,-1.40874 1.608762,-2.42029 2.981296,-3.08813 0.544738,-0.26505 2.646219,-0.89155 4.669952,-1.39223 6.601182,-1.63313 84.048047,-19.57139 84.964197,-19.67943 0.66853,-0.0788 10.74658,1.75885 40.31058,7.35048 43.68778,8.26296 46.72779,8.86655 48.07891,9.54642 1.816,0.91373 3.18063,2.80654 3.42566,4.75136 0.0671,0.53244 -0.46303,9.7341 -1.178,20.44815 -0.71507,10.71404 -1.30015,19.7973 -1.30015,20.18502 v 0.70495 l 0.56475,-0.77965 c 0.73581,-1.01571 1.70922,-1.82775 2.7402,-2.28594 l 0.82887,-0.36837 -0.48366,-1.42218 c -0.97135,-2.85581 -1.36112,-5.50146 -1.36546,-9.26744 -0.0103,-7.09826 1.18801,-10.11335 4.56755,-11.5141 0.79678,-0.33025 1.05295,-0.52915 0.96773,-0.75137 -0.26102,-0.68007 -0.33148,-5.57693 -0.10956,-7.61353 0.24688,-2.26555 1.06647,-5.79252 1.79,-7.7021 0.90201,-2.38083 2.52581,-4.03217 4.4783,-4.55441 l 0.8266,-0.22106 0.1333,-1.59998 c 0.36088,-4.33225 2.27448,-10.01459 4.05571,-12.04325 0.69258,-0.78875 2.77404,-1.93714 3.51119,-1.93714 0.37337,0 0.47458,-0.13269 0.5663,-0.74283 0.29496,-1.96088 1.31965,-5.71474 1.97911,-7.24998 1.81972,-4.23691 3.44031,-6.45713 5.30191,-7.26387 1.40673,-0.60965 3.48158,-0.71639 4.79927,-0.2469 l 0.98207,0.34996 2.3854,-2.38587 c 3.43732,-3.43808 6.90136,-5.65021 11.29919,-7.21572 1.57128,-0.5593 1.97116,-0.6253 3.36994,-0.55618 1.84572,0.0912 3.22716,0.71434 4.35749,1.96551 1.30789,1.44765 1.58336,2.22134 1.57675,4.42861 0,1.79485 -0.0846,2.21582 -0.84465,4.48278 -0.92812,2.7688 -2.55212,6.22584 -3.91252,8.32876 l -0.88726,1.37162 0.47499,0.6338 c 1.06812,1.42509 1.3864,2.33499 1.3994,4.00126 0.0165,2.08231 -0.36316,3.02921 -2.17348,5.42477 -1.34472,1.77959 -4.13454,4.66903 -5.57769,5.7769 -0.62232,0.47779 -0.62902,0.50056 -0.42537,1.4464 0.43136,2.00299 -0.18746,3.9316 -2.27892,7.10262 -0.59581,0.90346 -1.65784,2.31483 -2.35991,3.13638 l -1.27642,1.49371 0.47241,0.68524 c 0.73746,1.0697 1.11568,2.63524 1.00632,4.16486 -0.0784,1.09642 -0.29001,1.73553 -1.20316,3.63442 -1.23547,2.56937 -2.79963,5.07419 -4.45159,7.12899 l -1.09938,1.36743 0.53907,0.95905 c 0.7941,1.41266 0.99125,2.97915 0.60818,4.83344 -0.37543,1.81791 -1.24835,4.34058 -2.25787,6.52584 l -0.74396,1.61015 0.54897,0.95847 c 1.38072,2.41066 1.5036,8.8446 0.27309,14.29051 -0.26732,1.18324 -0.48614,2.17345 -0.48614,2.20046 0,0.027 0.33829,0.22169 0.7518,0.43261 0.98259,0.50129 2.34299,1.99122 2.88092,3.15531 0.39793,0.86101 0.42795,1.23288 0.42558,5.28409 0,4.66743 -0.17034,6.00805 -1.22494,9.79256 l -0.52091,1.86908 0.47335,0.30987 c 1.7412,1.13989 2.84099,2.94476 3.05559,5.01452 0.32374,3.12323 -0.667,9.44065 -2.14615,13.68432 l -0.86817,2.49068 0.44239,0.41554 c 0.24327,0.22855 0.69908,0.87896 1.01303,1.44536 0.56568,1.02083 0.57063,1.05836 0.56052,4.29825 -0.0103,2.53535 -0.10771,3.76041 -0.44497,5.46198 -0.51534,2.59954 -1.58098,6.05187 -2.54428,8.24297 l -0.69299,1.57598 0.91934,0.98279 c 1.71975,1.83855 2.12273,3.57919 1.69612,7.32648 -0.44435,3.90299 -1.40672,7.59804 -2.90259,11.14493 -0.37151,0.88095 -0.67555,1.65881 -0.67555,1.72859 0,0.0697 0.30197,0.44705 0.67101,0.83836 1.26745,1.34387 1.60843,2.34605 1.59625,4.69226 -0.0227,4.38524 -2.55913,11.76125 -5.79382,16.84889 l -0.78699,1.23776 0.69114,0.96199 c 1.35896,1.89166 1.60399,4.08737 0.72983,6.54224 -1.61977,4.54884 -5.14448,10.38641 -8.38381,13.88529 l -1.0773,1.1636 0.34417,0.52872 c 0.75098,1.15395 0.99714,1.96601 1.07493,3.54629 0.0732,1.48661 0.0279,1.74083 -0.50728,2.87226 -0.96795,2.04483 -3.49592,5.21467 -6.76745,8.48563 -1.69673,1.69647 -3.90137,3.68846 -4.89913,4.42659 l -1.81414,1.34205 0.31642,0.72367 c 0.19881,0.45445 0.32065,1.31321 0.32767,2.30836 0.0103,1.36376 -0.0702,1.75039 -0.56981,2.77321 -1.39228,2.84827 -8.71818,8.70334 -14.66996,11.72455 l -2.17895,1.10609 v 2.00335 c 0,1.69997 -0.0681,2.13003 -0.44683,2.83973 -1.0446,1.95476 -3.02794,3.43361 -8.07089,6.01779 -3.37397,1.72898 -5.8093,2.73892 -8.81485,3.65559 l -2.07991,0.63437 -0.12814,1.27033 c -0.26411,2.61611 -1.51464,4.26242 -4.19005,5.51615 -4.50925,2.11311 -10.92024,3.75433 -17.40107,4.45471 l -1.11826,0.12084 -0.13464,0.89802 c -0.31498,2.10069 -1.71448,4.03518 -3.54607,4.90165 -1.0823,0.51201 -4.78986,1.29163 -8.24593,1.73393 -2.67577,0.34245 -10.56318,0.33986 -13.07371,-0.004 -6.5925,-0.90369 -12.03462,-2.79918 -16.42718,-5.72157 -5.43392,-3.61522 -9.33067,-9.68101 -8.55193,-13.31217 0.59066,-2.75414 3.92944,-7.51306 8.33398,-11.87885 1.25613,-1.24506 2.10558,-2.19617 1.88768,-2.11354 -1.50032,0.56884 -5.60889,1.6095 -8.0225,2.03203 -3.52681,0.61738 -9.61674,0.84119 -13.09959,0.48141 -3.34834,-0.3459 -6.86375,-1.1058 -9.97749,-2.15677 l -2.77322,-0.93603 2.58953,2.57737 c 3.60117,3.58428 6.069,7.009 7.65406,10.62194 0.55713,1.26993 0.64269,1.6869 0.64663,3.15148 0.004,1.51516 -0.0625,1.82419 -0.65105,3.01958 -0.36057,0.73245 -1.1956,2.06003 -1.85562,2.95019 -5.13662,6.92776 -14.634,11.7421 -25.9142,13.13623 -3.0756,0.38011 -8.741417,0.52957 -11.45007,0.30204 z m 10.756762,-9.00816 c 8.08806,-1.26474 14.6255,-4.15051 18.84372,-8.31801 1.54541,-1.52683 3.24293,-3.83022 3.24293,-4.40039 0,-0.14964 -0.27895,-0.82664 -0.61989,-1.50445 -2.69768,-5.36317 -8.58078,-11.00056 -16.47201,-15.78397 -2.55928,-1.55138 -7.86544,-4.36569 -8.23111,-4.36569 -0.343175,0 -0.279529,1.26894 0.154002,3.07034 1.309528,5.4414 4.061128,10.40684 7.564258,13.6502 2.23871,2.0727 4.10565,3.20552 7.20521,4.37193 0.27284,0.10265 -0.28215,0.26447 -1.78278,0.51966 -2.34335,0.39855 -5.74803,1.35723 -8.79774,2.4773 -2.5019,0.91886 -9.247057,4.2519 -12.049894,5.95431 -2.503081,1.52036 -5.398838,3.56653 -5.398838,3.81487 0,0.16828 1.929631,0.51128 4.55599,0.80989 2.186112,0.24855 9.474342,0.0655 11.786152,-0.29599 z m 77.57942,-1.69269 c 2.22133,-0.21934 6.43539,-0.94444 6.88593,-1.18488 0.20015,-0.10678 -0.13446,-0.45357 -1.18852,-1.23171 -6.8088,-5.02665 -16.28001,-8.99806 -23.56444,-9.88092 l -1.99905,-0.2423 1.07957,-0.43921 c 6.01532,-2.44731 11.40978,-7.79873 14.92311,-14.80412 1.45064,-2.8925 2.79366,-6.87755 2.31783,-6.87755 -0.0717,0 -1.47872,0.69919 -3.12664,1.55373 -11.22405,5.82043 -19.72814,12.67737 -24.15173,19.47381 -0.61362,0.94278 -1.11566,1.86625 -1.11566,2.0522 0,0.64251 1.25176,2.68324 2.44393,3.98427 3.7031,4.04128 9.86356,6.69949 17.56281,7.57825 2.14132,0.2444 7.54267,0.25443 9.93286,0.0185 z m -94.557533,-5.15904 c 4.114278,-0.45202 7.605955,-1.46398 10.936476,-3.16961 2.048896,-1.0493 4.752467,-3.09221 5.650737,-4.26991 l 0.56656,-0.74279 -0.41725,-1.5972 C 100.9784,274.4762 94.274519,266.02712 84.811956,258.76389 l -1.584692,-1.21638 -0.125125,0.54379 c -0.205979,0.89512 -0.184963,3.2016 0.04643,5.09976 0.447397,3.66946 1.738901,7.53961 3.498425,10.48347 1.218924,2.03937 3.946751,4.89569 5.878879,6.1558 l 1.518632,0.99043 -3.130654,0.1305 c -5.961786,0.24852 -12.198902,1.57862 -19.076611,4.06812 -2.688509,0.97316 -6.734942,2.80038 -6.734942,3.04125 0,0.26569 5.476835,1.95477 7.98527,2.46267 4.266454,0.86387 9.040247,1.11553 12.970181,0.68376 z M 196.4337,288.42834 c 2.39395,-0.27844 6.13903,-1.07181 8.43405,-1.7867 2.56718,-0.7997 5.63009,-1.97201 5.63009,-2.15489 0,-0.49484 -7.52884,-3.2217 -11.70733,-4.24026 -5.12703,-1.24974 -11.02594,-1.88284 -14.61802,-1.56887 -1.44548,0.12636 -1.95714,0.11833 -1.71564,-0.0269 4.88597,-2.93861 8.73547,-7.18005 11.07797,-12.20592 1.60946,-3.45301 2.89661,-8.22244 2.89826,-10.73929 v -0.9487 l -1.53517,1.1244 c -8.43297,6.17662 -15.74539,13.64952 -19.36435,19.78932 -1.11367,1.8905 -2.47405,4.97241 -2.47405,5.60637 0,0.50021 1.3439,2.00961 2.75818,3.09788 3.0593,2.35408 7.32656,3.82982 12.35837,4.27385 2.01598,0.17792 5.6725,0.0804 8.25764,-0.22027 z M 72.537152,281.89679 c 3.573285,-0.49699 6.706416,-1.62728 9.211169,-3.32298 l 1.677029,-1.13531 0.05994,-1.03348 c 0.0879,-1.51704 -0.462408,-4.37108 -1.362268,-7.06458 -1.88011,-5.6276 -6.036306,-12.57509 -10.956765,-18.31528 l -1.599012,-1.86541 -0.256337,0.87498 c -0.860923,2.9387 -1.101154,7.89853 -0.538403,11.11565 0.822245,4.70053 2.842047,8.55075 6.037894,11.50962 l 1.369645,1.26806 -1.858681,-0.44933 c -5.916195,-1.43027 -14.003604,-1.32134 -21.995571,0.29625 -2.494146,0.50481 -5.051196,1.21568 -5.051196,1.40426 0,0.25001 2.476216,1.75265 4.754067,2.88491 3.693096,1.83575 7.657169,3.09015 11.786149,3.72967 2.175774,0.33701 6.659236,0.38993 8.722369,0.10297 z m 138.331478,-3.46542 c 3.88549,-0.57116 7.94059,-1.7642 11.78419,-3.46697 2.25468,-0.99885 5.98129,-3.05293 6.97203,-3.84292 l 0.58054,-0.46293 -1.08845,-0.31396 c -0.59859,-0.17268 -2.11395,-0.48827 -3.36747,-0.70127 -7.50645,-1.27566 -16.27147,-1.01914 -22.48179,0.65798 -0.98053,0.2648 -1.8031,0.46151 -1.82786,0.4371 -0.0248,-0.0244 0.39411,-0.3794 0.93121,-0.78893 4.27692,-3.26164 7.71691,-9.4028 8.83301,-15.76869 0.45312,-2.58471 0.37678,-8.32229 -0.11081,-8.32229 -0.0836,0 -1.25454,1.21248 -2.60215,2.6944 -7.90582,8.694 -13.43667,17.78743 -14.74249,24.2388 l -0.33943,1.67715 0.8136,0.72207 c 1.57489,1.39756 4.67391,2.7211 7.62551,3.25664 1.99345,0.36171 6.50477,0.35363 9.02036,-0.0162 z m -150.160267,-9.1864 c 0.906215,-0.22489 2.299423,-0.71001 3.09601,-1.07806 l 1.448353,-0.66917 0.249568,-1.75716 c 0.868311,-6.11363 -1.547014,-16.19178 -5.949003,-24.82267 -1.7584,-3.44767 -1.626115,-3.36112 -2.440065,-1.59628 -3.546791,7.69036 -3.012164,16.3304 1.394973,22.5441 l 0.886427,1.2498 -1.355479,-0.6803 c -4.524029,-2.27063 -10.685201,-3.78507 -17.549343,-4.3137 -2.74876,-0.21167 -7.987541,-0.1319 -8.245012,0.12557 -0.145305,0.14531 2.394505,2.68916 4.035962,4.04239 4.156237,3.4264 9.837318,6.12761 14.764638,7.02019 2.663088,0.48242 2.733336,0.48776 5.440189,0.41416 1.727985,-0.0469 3.11716,-0.20452 4.222782,-0.47887 z m 82.638167,-3.59292 c 2.17919,-0.25908 5.74257,-1.05309 8.12155,-1.80968 4.18574,-1.33118 6.66522,-2.59184 19.51153,-9.92027 18.54357,-10.57858 25.45811,-15.09338 34.07085,-22.24639 3.55999,-2.95653 10.47248,-9.92138 13.05442,-13.15316 6.14512,-7.69164 10.2258,-15.56651 11.49841,-22.18968 0.3192,-1.66154 10.15038,-149.08415 9.95498,-149.27957 -0.26112,-0.26109 -7.71413,-1.71253 -45.63955,-8.88814 l -39.17168,-7.41141 -40.11779,9.31222 c -41.005562,9.5183 -46.883481,10.91522 -47.148298,11.20502 -0.08326,0.0911 -2.352298,33.42451 -5.042396,74.07433 l -4.891097,73.90876 0.332238,1.9504 c 2.329818,13.6771 12.755587,28.52569 28.120778,40.05022 5.947538,4.46089 12.892344,8.68945 28.700845,17.47534 5.71017,3.17352 8.05928,4.30582 10.86577,5.23744 5.55154,1.84282 11.61574,2.4174 17.77944,1.68457 z m -9.31006,-2.18531 c -3.51044,-0.39729 -7.79557,-1.56899 -10.99136,-3.0054 -1.79406,-0.80638 -10.5008,-5.59756 -17.83024,-9.81169 -14.138015,-8.12877 -20.609976,-12.78766 -27.831159,-20.03442 -5.802337,-5.82288 -9.745291,-11.15117 -12.979703,-17.54006 -2.519589,-4.97689 -4.215282,-10.29194 -4.392188,-13.76702 -0.0652,-1.28027 1.435612,-24.96242 4.694858,-74.08435 2.63486,-39.7114 4.82317,-72.23598 4.862921,-72.27684 0.174007,-0.17891 10.920232,-2.7122 46.766851,-11.02471 l 38.25944,-8.87202 38.49912,7.27851 c 36.76053,6.94982 43.913,8.33418 44.11779,8.53894 0.1626,0.16257 -9.47524,144.93537 -9.77216,146.79165 -0.43064,2.69217 -1.75967,6.49618 -3.48107,9.96373 -6.53107,13.15622 -19.92028,26.05713 -39.03812,37.61444 -8.01387,4.84463 -25.14315,14.59926 -28.498,16.2288 -4.04008,1.96237 -9.41746,3.50901 -13.96831,4.01752 -2.07949,0.23237 -6.29011,0.22383 -8.41867,-0.017 z m 10.79571,-4.20074 c 5.79997,-1.09417 8.39464,-2.16366 17.03545,-7.02177 12.71151,-7.14676 22.48467,-12.91834 27.51609,-16.24968 16.38377,-10.84785 28.12432,-23.58269 32.76274,-35.53735 1.63061,-4.20277 1.17284,1.33011 6.26552,-75.72862 2.55604,-38.67639 4.69837,-70.87125 4.76058,-71.54414 0.098,-1.05673 0.066,-1.23816 -0.2374,-1.33169 -0.67246,-0.20763 -78.00445,-14.80007 -78.49578,-14.81204 -0.45555,-0.0111 -81.020794,18.61425 -81.192222,18.77031 -0.04168,0.038 -2.20818,32.13975 -4.814442,71.33736 l -4.738663,71.26838 0.415249,2.17895 c 1.148933,6.02875 4.71544,13.40621 9.560534,19.77638 5.217155,6.85929 13.043617,13.93126 21.713601,19.62032 5.602243,3.67608 25.444713,15.04452 29.423153,16.85757 2.57412,1.17304 6.37892,2.25107 9.42796,2.67123 1.9029,0.26221 8.72583,0.0979 10.59763,-0.25521 z m -4.06395,-2.45339 c -0.004,-0.98676 6.92177,-106.15194 7.04212,-106.92915 l 0.0923,-0.59638 38.36625,-0.93523 c 21.1014,-0.51436 38.39075,-0.91068 38.42077,-0.88069 0.0299,0.03 -0.65266,10.70277 -1.51712,23.71729 -1.68703,25.40128 -1.60429,24.61407 -2.98708,28.41551 -3.41947,9.40057 -12.90751,20.59557 -25.43555,30.01158 -3.20044,2.40548 -7.24229,5.15124 -10.99377,7.46851 -6.36132,3.92935 -25.28892,14.77763 -29.25001,16.76454 -3.41483,1.71289 -8.52939,3.18198 -12.49673,3.5895 l -1.23804,0.12718 -0.003,-0.75266 z m 34.17311,-45.23218 c 9.31213,-0.20989 11.67783,-0.36904 14.68975,-0.98815 5.58726,-1.14851 9.77442,-3.69305 11.81956,-7.18268 1.47389,-2.51508 2.1122,-6.61993 1.4386,-9.2517 -1.07761,-4.20975 -5.19182,-7.06647 -11.00174,-7.63897 l -1.42631,-0.14054 1.67722,-0.63091 c 2.43347,-0.91539 4.38741,-2.15577 6.0795,-3.85938 2.46845,-2.48527 3.47198,-5.05772 3.33208,-8.54108 -0.0691,-1.73251 -0.14743,-2.05724 -0.81937,-3.41671 -1.13415,-2.29483 -2.92044,-3.58682 -6.32196,-4.57256 -3.19718,-0.92649 -4.86056,-0.99186 -18.04194,-0.70899 -13.55857,0.29098 -12.50505,0.13618 -12.38069,1.8191 l 0.0606,0.81928 2.37704,0.65171 c 2.45369,0.67272 3.26842,1.18202 3.26842,2.04314 0,0.2006 -0.53483,8.36102 -1.18852,18.13427 -0.65368,9.77326 -1.18851,17.99009 -1.18851,18.2596 0,0.90722 -0.92038,1.52593 -3.59653,2.41777 -2.71498,0.90476 -2.734,0.92183 -2.73954,2.45653 l -0.003,0.7501 2.52561,-0.10944 c 1.38908,-0.0601 6.53685,-0.19988 11.4395,-0.31039 z m 2.27263,-4.69547 c -0.003,-0.2996 0.2378,-4.34385 0.53502,-8.98721 l 0.54038,-8.44252 1.47573,-0.12474 c 3.49243,-0.29522 7.05507,0.003 8.74516,0.73189 1.43714,0.61985 2.31847,1.45187 2.99624,2.82852 0.61788,1.25512 0.66008,1.47654 0.7291,3.82522 0.16631,5.65392 -1.39855,8.59853 -5.28899,9.95249 -1.12401,0.39116 -4.9863,0.748 -8.19211,0.75685 l -1.53517,0.004 -0.005,-0.54474 z m 1.44719,-22.84715 c 0.0653,-0.80738 0.32205,-4.61871 0.57051,-8.46964 l 0.45178,-7.00167 3.29475,0.0686 3.29478,0.0686 1.36626,0.69491 c 2.37127,1.2061 3.24974,3.05164 3.24571,6.81881 -0.003,3.36103 -0.77567,5.50957 -2.53696,7.05992 -1.5065,1.32608 -3.54753,1.90327 -7.44629,2.10579 l -2.35927,0.12256 z m -98.622729,23.80686 c -1.380663,-0.62702 -1.357532,-0.8015 0.677384,-5.11047 l 1.384089,-2.93083 0.417911,-6.14068 c 0.229842,-3.37738 0.416652,-6.42303 0.415115,-6.76813 -0.0031,-0.6141 -0.04178,-0.64063 -1.835097,-1.24739 -3.471054,-1.17443 -4.760019,-0.43946 10.925897,-6.23003 l 13.8898,-5.12753 2.42389,0.84377 c 1.33313,0.46408 5.67745,1.89977 9.65404,3.19041 8.7376,2.83588 14.26223,4.75691 14.26223,4.95927 0,0.178 0.86943,-0.15116 -14.93635,5.65492 l -12.65835,4.64991 -10.082069,-3.40922 c -5.765443,-1.94957 -10.149841,-3.33294 -10.240362,-3.23104 -0.08708,0.098 -0.343371,3.11784 -0.569572,6.71072 l -0.411277,6.53254 0.856498,2.28231 c 1.629561,4.34236 1.632377,4.47941 0.10775,5.25201 -1.22891,0.62272 -3.060818,0.67385 -4.281527,0.11946 z m 21.779549,-4.38831 c -3.671421,-1.76605 -9.408136,-3.48551 -12.900773,-3.86674 -1.013161,-0.1106 -1.226724,-0.19498 -1.154597,-0.45618 0.0487,-0.17627 0.200088,-2.2629 0.336468,-4.63692 0.16695,-2.90618 0.317661,-4.29081 0.461294,-4.23803 0.117325,0.0431 3.778872,1.26007 8.136781,2.70438 l 7.923467,2.62599 8.31963,-3.05875 c 4.5758,-1.68231 8.35409,-2.97058 8.3962,-2.86282 0.0863,0.22095 -0.34506,7.92347 -0.48044,8.57813 -0.069,0.33384 -0.28603,0.45221 -1.0303,0.56202 -3.4866,0.51434 -9.16174,2.39104 -13.25424,4.38297 -1.43283,0.69741 -2.6362,1.26011 -2.67417,1.25046 -0.038,-0.009 -0.97366,-0.45267 -2.07932,-0.98451 z M 69.183877,149.19839 c -0.06531,-0.14303 6.024926,-91.59217 6.10511,-91.67236 0.111795,-0.11179 77.791143,-18.11249 77.858353,-18.04216 0.0739,0.0773 -7.04434,107.79381 -7.12958,107.889 -0.0307,0.0344 -16.13224,0.45239 -35.7811,0.92901 -19.648862,0.47661 -36.913104,0.89697 -38.364986,0.93412 -1.451871,0.0371 -2.661385,0.0202 -2.687797,-0.0377 z m 29.075447,-26.3544 c 4.018666,-0.10079 7.340786,-0.2174 7.382466,-0.25909 0.0417,-0.0417 0.0964,-0.54799 0.12158,-1.1251 l 0.0458,-1.04931 -2.4752,-0.75166 c -2.72803,-0.82843 -3.16769,-1.15127 -3.17434,-2.33092 -0.004,-0.78824 1.02625,-16.73586 1.08668,-16.8141 0.0747,-0.0967 18.92584,-0.51133 19.01885,-0.41832 0.0527,0.0527 -0.16449,3.95285 -0.48271,8.66691 -0.42424,6.28473 -0.65388,8.68598 -0.86089,9.00192 -0.37837,0.57747 -0.83107,0.79498 -3.5052,1.68426 l -2.27799,0.75754 -0.11687,1.07271 c -0.0643,0.58999 -0.0909,1.10548 -0.0592,1.14554 0.0706,0.0891 21.27934,-0.37367 21.59985,-0.47132 0.12567,-0.0383 0.25938,-0.56109 0.29713,-1.16179 l 0.0686,-1.09217 -2.17896,-0.63104 c -3.33417,-0.96561 -3.46651,-1.07313 -3.46651,-2.81639 0,-1.26324 2.08996,-33.52366 2.28915,-35.33515 0.16749,-1.52321 0.64348,-1.89125 3.68041,-2.84579 l 2.54816,-0.80091 v -1.16889 -1.1689 l -2.03039,0.09 c -1.11671,0.0494 -5.9949,0.18344 -10.84042,0.29772 -4.84551,0.11428 -8.82524,0.22481 -8.84382,0.24562 -0.0186,0.0208 -0.0653,0.52809 -0.10386,1.12731 l -0.07,1.08947 1.18852,0.35581 c 3.59616,1.07659 3.95429,1.22492 4.24964,1.76002 0.26137,0.47357 0.23927,1.35846 -0.20388,8.16298 -0.27337,4.19751 -0.53781,7.66778 -0.58766,7.71172 -0.12875,0.1135 -18.84732,0.55908 -18.95518,0.45121 -0.049,-0.049 0.13869,-3.52576 0.41707,-7.72615 0.39763,-5.99951 0.57346,-7.73979 0.82001,-8.11606 0.36126,-0.55136 1.42577,-1.03334 3.98935,-1.80626 l 1.81262,-0.54652 0.13505,-1.08096 c 0.0743,-0.59453 0.0942,-1.12184 0.0443,-1.1718 -0.11045,-0.11045 -18.949798,0.29476 -20.691412,0.44506 l -1.238041,0.10683 7.94e-4,1.12323 5.88e-4,1.12324 2.128739,0.57216 c 2.624864,0.7055 3.124506,0.95068 3.363066,1.65028 0.130366,0.38229 -0.18518,6.16445 -1.031546,18.90242 -1.01377,15.2576 -1.274202,18.43538 -1.544703,18.84823 -0.334849,0.51103 -0.691044,0.67269 -3.907371,1.77341 l -1.881822,0.64402 -0.05963,1.1479 -0.05963,1.1479 3.526188,-0.11673 c 1.939402,-0.0642 6.814198,-0.19921 10.832873,-0.30002 z m 91.498666,1.65414 c -0.0754,-0.19651 0.10604,-3.96888 0.40319,-8.38305 0.29714,-4.41418 0.53753,-8.13719 0.53415,-8.27338 -0.004,-0.14976 -0.2801,-0.24761 -0.69942,-0.24761 -0.62433,0 -0.69328,0.0542 -0.69304,0.54474 0,0.76208 -0.76141,12.66228 -0.94151,14.70793 l -0.14823,1.68373 -0.97127,0.0616 c -0.64341,0.0408 -1.02632,-0.026 -1.13441,-0.19809 -0.0898,-0.14284 -0.11269,-0.97281 -0.051,-1.84439 0.1536,-2.16998 0.61357,-14.63062 0.54536,-14.77395 -0.0302,-0.0636 -0.31536,-0.0774 -0.63361,-0.0306 l -0.57861,0.0849 -0.12684,5.27991 c -0.14179,5.90205 -0.49646,10.39415 -0.84831,10.74389 -0.30613,0.30431 -1.19093,0.0762 -1.41825,-0.36559 -0.10404,-0.20218 -0.10501,-3.00205 -0.002,-6.78213 0.15312,-5.63887 0.13389,-6.67675 -0.15489,-8.36318 -0.2149,-1.25497 -0.26356,-2.01367 -0.13977,-2.17895 0.10446,-0.13948 0.18447,-0.91242 0.17779,-1.71765 -0.009,-1.1385 -0.0851,-1.51009 -0.34038,-1.67109 -0.46344,-0.29233 -1.68611,0.1088 -2.87168,0.94213 -0.52796,0.3711 -1.33239,0.9272 -1.78763,1.23578 -0.64953,0.44028 -0.80569,0.65358 -0.72537,0.99076 0.14935,0.62703 -0.56498,0.9869 -2.24651,1.13175 -1.40482,0.12101 -1.4277,0.1153 -1.83555,-0.45745 -1.04788,-1.47162 -1.51176,-3.27434 -0.90271,-3.50805 0.22344,-0.0857 0.26622,-0.30078 0.17427,-0.87583 -0.19274,-1.20536 0.0364,-1.74876 0.89778,-2.12885 l 0.76091,-0.33577 -1.25326,-2.17964 c -1.55635,-2.70678 -1.76029,-3.72128 -1.75192,-8.71511 0.006,-3.86685 0.32493,-5.78806 1.33299,-8.04169 0.53023,-1.1854 2.20347,-3.54638 2.51333,-3.54638 0.10882,0 1.33466,-1.09658 2.7241,-2.43684 3.55258,-3.42686 5.18776,-4.44946 8.44807,-5.28325 1.92754,-0.49294 6.61639,-0.88431 8.70456,-0.72655 3.77592,0.28527 7.6678,1.93285 11.01062,4.66118 2.26695,1.85017 4.60406,5.34239 5.2595,7.85894 0.38555,1.48028 0.38834,4.89654 0,6.70413 -0.1595,0.75268 -0.82371,3.24857 -1.47615,5.54642 -1.39806,4.92414 -1.66507,6.34885 -1.25383,6.69018 0.39659,0.32915 0.14764,2.0161 -0.45106,3.05652 -0.81752,1.42082 -2.80612,2.83397 -4.00424,2.84555 -0.65306,0.006 -1.01829,-0.85427 -0.57187,-1.34752 0.19396,-0.21433 0.3286,-0.69695 0.3286,-1.1781 0,-0.90342 -0.49769,-1.43175 -1.34874,-1.43175 -0.42114,0 -3.3814,0.76588 -3.58919,0.9286 -0.0464,0.0365 -0.0671,0.48877 -0.0444,1.00502 0.0505,1.19217 -0.39514,2.89208 -1.26425,4.81692 -0.61551,1.36319 -0.70135,1.77876 -0.88097,4.26344 -0.18508,2.56142 -0.91037,7.75851 -1.36256,9.7644 -0.20036,0.88851 -0.47025,1.20079 -1.04264,1.20619 -0.17704,0.002 -0.59147,0.057 -0.921,0.12284 -0.48851,0.0977 -0.62273,0.0449 -0.72776,-0.28593 -0.0712,-0.22317 0.0495,-2.57241 0.26834,-5.22055 0.21842,-2.64813 0.45736,-5.70617 0.53092,-6.79565 0.15651,-2.31918 0.47489,-3.52378 1.1097,-4.1995 0.44951,-0.47852 0.45085,-0.49262 0.0733,-0.76863 -0.2115,-0.15465 -0.52349,-0.2798 -0.69331,-0.27813 -0.81824,0.008 -0.85136,0.17452 -1.2269,6.16743 -0.5761,9.19514 -1.0157,11.66529 -2.10365,11.81978 -0.28785,0.0409 -0.49532,-0.0636 -0.58369,-0.29386 z m -1.16832,-21.32601 c 0.0679,-0.36208 0.39652,-1.0888 0.73017,-1.61495 0.52658,-0.83032 0.62138,-1.19452 0.71813,-2.75866 l 0.11144,-1.80205 -0.53882,0.49522 c -0.59954,0.55103 -2.2339,3.44264 -2.29518,4.06078 -0.0818,0.82532 0.019,1.2503 0.41689,1.75605 0.53909,0.68535 0.70826,0.65844 0.85737,-0.13639 z m 3.82307,0.21264 c 1.0315,-1.1325 1.07493,-1.78414 0.24307,-3.64237 -0.8236,-1.83951 -0.85713,-1.89782 -1.22751,-2.13142 -0.49257,-0.31071 -0.58123,-0.0785 -0.61185,1.60229 -0.0229,1.2571 0.0553,1.70568 0.4175,2.39481 0.24511,0.46638 0.44567,1.15721 0.44567,1.53517 0,0.80096 0.17198,0.8576 0.73312,0.24152 z m -5.76679,-6.36341 c 1.16537,-0.36807 2.36767,-1.12324 2.24725,-1.41149 -0.0455,-0.10895 -0.48458,-0.34051 -0.97567,-0.5146 -1.45455,-0.51559 -3.26619,-1.49483 -6.8225,-3.6878 -5.29118,-3.26274 -6.54277,-3.76826 -7.03812,-2.8427 -0.33321,0.62262 -0.25061,3.96856 0.1252,5.0715 0.48907,1.43533 1.84302,2.70161 3.44458,3.22151 1.83242,0.59485 1.97092,0.60948 5.13906,0.54259 1.93632,-0.0409 3.20071,-0.1644 3.8802,-0.37901 z m 12.06574,0.16934 c 1.77659,-0.22336 5.72522,-1.29869 6.56492,-1.7878 1.58118,-0.921 2.81551,-3.46956 2.99162,-6.17693 0.12618,-1.93954 0.0114,-2.05053 -1.57613,-1.53036 -1.50195,0.49197 -3.12512,1.33691 -5.50763,2.86693 -1.14581,0.73582 -3.50799,2.07637 -5.24929,2.979 -4.35347,2.25662 -4.11205,2.03266 -2.86957,2.66227 1.1849,0.60044 3.67202,1.2918 4.25947,1.18407 0.2179,-0.0399 0.84187,-0.12868 1.38661,-0.19718 z m 24.62009,168.46704 c 5.96014,-0.64292 12.90029,-3.48105 18.34137,-7.5006 1.50608,-1.11263 4.42249,-3.57901 5.23423,-4.42654 l 0.65503,-0.68382 -1.07782,-0.12665 c -2.08682,-0.24528 -8.52649,0.3552 -12.59706,1.17465 -3.9476,0.79466 -8.66072,2.33986 -12.05522,3.95226 l -2.23446,1.06141 0.86684,-1.02904 c 3.56267,-4.22952 5.40632,-9.12 5.61534,-14.89508 0.0918,-2.54268 0.0464,-3.265 -0.31395,-5.00739 -0.43682,-2.1099 -1.12373,-4.20363 -1.37928,-4.20363 -0.23894,0 -2.51054,3.57853 -4.18891,6.59921 -4.38153,7.88537 -7.12493,16.19744 -7.12493,21.58721 v 1.66599 l 1.33709,0.61203 c 2.68046,1.22689 5.40456,1.59941 8.92173,1.21999 z M 48.28227,254.45783 c 1.64222,-0.37354 1.823542,-0.58519 2.50433,-2.92335 0.814548,-2.79756 1.10034,-5.25179 1.099257,-9.43964 -0.001,-5.32561 -0.604257,-9.71733 -2.058305,-14.99375 -0.866619,-3.14481 -0.890049,-3.1622 -2.003749,-1.48735 -2.86821,4.31338 -4.387256,9.12055 -4.394261,13.90598 -0.0052,3.19276 0.58742,5.95484 1.792632,8.36258 0.257234,0.51387 0.46769,0.98299 0.46769,1.04248 0,0.0594 -0.646257,-0.41863 -1.436127,-1.06247 -2.206808,-1.79884 -4.552947,-3.28548 -7.378724,-4.67558 -4.212248,-2.07213 -10.24484,-3.87096 -14.064619,-4.19386 l -1.532364,-0.12953 0.252302,0.47676 c 0.47744,0.9022 2.232972,3.44992 3.126673,4.53752 4.531198,5.51443 10.395024,9.25277 16.575912,10.56753 1.880099,0.39992 5.319573,0.4061 7.049353,0.0127 z m 189.07992,-4.54761 c 8.33408,-1.45047 17.26861,-7.71508 23.2307,-16.28864 l 0.45127,-0.64886 -0.85899,0.124 c -5.33555,0.7703 -12.02767,3.06407 -17.00181,5.82751 -2.27036,1.26136 -4.30725,2.61095 -6.46485,4.28362 l -1.61058,1.24857 0.86693,-1.52125 c 3.39492,-5.9572 3.87146,-12.94884 1.32646,-19.46046 -0.52586,-1.34548 -1.84045,-3.76364 -2.04596,-3.76364 -0.18303,0 -1.90721,4.16918 -2.68232,6.48573 -2.88753,8.63053 -3.93109,17.76856 -2.55728,22.39442 0.27371,0.92175 0.37275,1.037 1.03944,1.20977 1.86903,0.4843 3.94533,0.52025 6.30699,0.10923 z M 38.625551,237.29125 c 1.822118,-2.42795 3.358898,-7.70159 3.986853,-13.6813 0.467154,-4.44849 0.372764,-13.60512 -0.140249,-13.60512 -0.103552,0 -0.812062,0.60168 -1.574458,1.33708 -4.56575,4.40408 -7.197949,10.59252 -6.837751,16.07597 0.06149,0.93626 0.179577,1.87681 0.262392,2.09013 0.08285,0.21331 -0.779739,-0.57821 -1.916797,-1.7589 -1.137058,-1.1807 -2.985154,-2.83593 -4.10686,-3.67827 -3.384484,-2.54158 -8.165932,-5.24247 -11.572143,-6.53672 l -0.972966,-0.36969 0.135235,0.62954 c 0.07439,0.34623 0.400857,1.43178 0.725492,2.41231 3.299812,9.96677 11.953656,17.62989 20.003026,17.713 1.496843,0.0155 1.534036,0.004 2.008226,-0.62803 z m 209.759439,-4.89076 c 6.27408,-1.60466 12.74057,-6.74647 17.27428,-13.73582 1.13353,-1.74734 3.32465,-6.11011 3.5767,-7.12158 0.13432,-0.53907 0.13185,-0.54056 -0.52947,-0.31286 -0.36543,0.12584 -2.09074,0.95238 -3.83391,1.83673 -5.56777,2.82472 -9.96736,5.85802 -13.65084,9.41161 -1.18904,1.14709 -2.09662,1.90734 -2.01677,1.68944 0.82402,-2.25007 1.03985,-6.61543 0.44786,-9.05994 -0.54308,-2.24305 -1.50638,-4.4652 -2.7144,-6.26242 -1.12879,-1.67913 -3.24315,-3.97603 -3.46022,-3.75891 -0.18323,0.18321 -1.05337,4.88021 -1.39022,7.50419 -0.44466,3.46376 -0.59777,9.32352 -0.31436,12.0304 0.27495,2.62559 0.96846,5.49765 1.7021,7.04842 l 0.52751,1.11503 h 1.43963 c 0.79173,0 2.11571,-0.17293 2.94211,-0.38429 z M 31.529617,217.28451 c 3.599439,-3.95878 7.240589,-11.5532 8.998669,-18.7687 0.553704,-2.27249 1.118281,-5.69402 0.964878,-5.84742 -0.121328,-0.12132 -2.65435,1.57988 -4.154112,2.78997 -4.940856,3.98653 -8.074689,10.33239 -8.097066,16.3962 l -0.0072,1.81487 -0.850452,-2.07991 C 25.200866,203.80389 20.960648,198.5628 14.50996,194.44015 l -0.574998,-0.36748 0.142622,1.97397 c 0.281665,3.8984 1.433002,8.28147 2.998432,11.41477 2.778762,5.56192 7.389536,9.81758 11.758561,10.85293 1.362733,0.32292 1.518777,0.26328 2.694524,-1.02983 z m 224.937923,-4.62483 c 6.06485,-1.78379 12.78927,-9.20532 15.91016,-17.55947 1.16128,-3.10869 2.02719,-7.08299 1.54312,-7.08299 -0.0898,0 -0.80628,0.44333 -1.59285,0.98517 -6.24529,4.3023 -10.9321,9.6234 -14.69348,16.68186 -0.95154,1.7856 -1.16386,2.07974 -1.04583,1.44832 0.0815,-0.43579 0.14155,-1.90658 0.1334,-3.26843 -0.031,-5.21359 -1.87264,-9.56043 -5.54849,-13.09757 -1.20265,-1.15725 -3.9477,-3.14552 -4.34284,-3.14552 -0.25359,0 0.0928,5.55629 0.49944,8.0225 1.09918,6.65865 3.77655,13.45173 6.54388,16.60356 0.72177,0.82209 1.03283,0.87158 2.59349,0.41257 z M 28.7852,197.15583 c 4.33661,-3.46374 8.79009,-10.30434 11.129895,-17.0956 0.847356,-2.45944 1.565028,-5.43075 1.360999,-5.63478 -0.06768,-0.0677 -0.729072,0.20887 -1.46973,0.61458 -4.151657,2.27415 -7.639734,5.71673 -9.736727,9.60972 -0.975535,1.81104 -2.10305,5.11685 -2.469696,7.24102 l -0.271657,1.57383 -0.244286,-1.18852 c -1.403742,-6.82968 -3.496073,-11.1674 -7.34347,-15.22405 -1.785709,-1.88285 -3.841703,-3.69321 -4.194297,-3.69321 -0.331372,0 -0.0716,6.90742 0.327812,8.7158 1.554464,7.03861 5.443078,13.03921 9.890245,15.26186 0.643843,0.3218 1.371243,0.58507 1.616417,0.58507 0.245194,0 0.877214,-0.34457 1.404495,-0.76572 z m 233.21648,-5.5774 c 5.16831,-2.59147 10.34858,-9.85628 12.40146,-17.39173 0.84836,-3.11423 1.36824,-7.16908 0.91852,-7.16545 -0.34232,0.003 -4.31829,3.51348 -5.8061,5.12674 -3.33879,3.62047 -5.88978,7.94704 -7.60457,12.89793 l -0.85765,2.47608 -0.12298,-1.3866 c -0.21315,-2.40351 -0.83155,-5.29215 -1.47657,-6.89813 -1.15003,-2.86299 -3.25852,-5.61851 -5.80104,-7.58104 -1.06905,-0.82518 -3.84794,-2.44861 -4.2015,-2.45444 -0.24544,-0.004 0.0289,2.50898 0.57352,5.25807 1.34627,6.79168 5.21494,14.10896 9.07102,17.15701 1.08215,0.8554 1.12445,0.85484 2.90589,-0.0385 z M 29.73843,175.73962 c 1.09548,-0.75371 3.292745,-2.90353 4.660388,-4.55976 2.762513,-3.34541 6.007428,-9.13144 7.387545,-13.17275 0.767368,-2.24707 1.426161,-4.82137 1.273015,-4.97451 -0.05643,-0.0564 -0.668769,0.1804 -1.36072,0.52632 -4.495306,2.24734 -8.429655,6.08048 -10.563491,10.29174 -0.843673,1.66504 -1.791033,4.35963 -2.096787,5.96397 -0.292116,1.53276 -0.566404,2.13381 -0.577815,1.26619 -0.0041,-0.32684 -0.2301,-1.57479 -0.501767,-2.77321 -1.460208,-6.44134 -3.579445,-10.35243 -7.977451,-14.72245 -1.351208,-1.34261 -2.515266,-2.38256 -2.586814,-2.31102 -0.255232,0.25524 -0.37329,3.60262 -0.207981,5.89733 0.481908,6.68956 3.238065,12.92345 7.396552,16.72957 1.255353,1.14898 3.37266,2.42907 4.017742,2.42907 0.15363,0 0.665539,-0.26571 1.137584,-0.59049 z m 233.47839,-5.64468 c 6.82635,-3.42863 12.61935,-13.60221 13.35825,-23.45909 l 0.13959,-1.86312 -0.41773,0.29263 c -0.22987,0.16095 -1.25001,1.01973 -2.26706,1.90842 -5.00024,4.36892 -8.40929,9.57869 -10.49065,16.0319 -0.46509,1.44184 -0.91243,2.62293 -0.99414,2.62464 -0.0815,0.002 -0.14857,-0.47729 -0.14857,-1.06447 0,-2.44201 -1.05914,-6.22748 -2.41717,-8.63865 -1.82879,-3.24714 -5.38991,-6.43224 -8.75553,-7.83091 l -0.77315,-0.32132 0.12566,1.48754 c 0.5046,5.9683 3.73991,13.66328 7.69483,18.30153 1.27405,1.49412 3.09387,3.02156 3.60002,3.02156 0.20283,0 0.80844,-0.22079 1.34565,-0.49066 z M 30.946376,155.48151 c 3.062387,-2.02566 7.189355,-6.99098 9.964197,-11.98836 1.68193,-3.02906 3.46475,-7.5254 3.896599,-9.82737 l 0.142499,-0.75957 -2.155512,1.10629 c -5.806463,2.98011 -9.687804,7.37578 -11.749947,13.30695 -0.339182,0.97558 -0.730836,2.33887 -0.870353,3.02954 l -0.253643,1.25578 -0.437999,-2.66924 c -1.169494,-7.12728 -3.92395,-12.49607 -8.742601,-17.04054 -0.788064,-0.74322 -1.470607,-1.31355 -1.516755,-1.2674 -0.218256,0.21825 -0.399969,4.83105 -0.264208,6.7069 0.472272,6.52551 3.077894,12.66644 6.900603,16.26332 1.182277,1.11243 3.340905,2.50838 3.9002,2.5222 0.117511,0.003 0.651622,-0.28442 1.18692,-0.6385 z m 234.494064,-6.02374 c 1.55385,-0.92804 5.08691,-4.48227 6.35249,-6.39071 2.18917,-3.3012 3.99217,-7.45825 4.86086,-11.20736 0.49604,-2.14115 0.84084,-5.09213 0.76263,-6.52723 l -0.064,-1.17889 -2.45411,2.3674 c -3.89013,3.7526 -5.88719,6.42238 -7.84598,10.48897 -1.0123,2.10146 -2.14336,5.20821 -2.6884,7.38386 -0.30941,1.23517 -0.47985,1.03489 -0.65617,-0.77081 -0.2899,-2.97017 -1.62812,-6.53407 -3.36396,-8.9591 -1.08225,-1.51191 -2.99781,-3.35428 -4.64399,-4.46652 -1.40652,-0.95035 -4.15394,-2.31004 -4.32407,-2.13996 -0.0619,0.0613 0.0268,0.98651 0.19706,2.05594 1.18883,7.49255 5.48534,15.49373 10.42802,19.41984 1.29127,1.02571 1.6078,1.01878 3.44,-0.0754 z M 32.573213,134.65406 c 5.363049,-2.72112 11.917165,-11.04992 14.486822,-18.40946 0.8055,-2.30697 0.801291,-2.3702 -0.13213,-1.98487 -5.816522,2.40116 -10.132302,6.25164 -12.733013,11.36024 -0.360517,0.70816 -0.992321,2.22352 -1.40401,3.36747 l -0.74853,2.07991 -0.01032,-1.14681 c -0.04189,-4.69924 -1.399296,-10.05721 -3.422987,-13.51159 -1.40983,-2.40657 -4.733794,-6.48196 -4.972189,-6.09624 -0.239386,0.38734 -0.72704,4.49683 -0.72704,6.12685 0,6.21095 2.16,12.51055 5.546423,16.17608 1.033135,1.11828 2.762059,2.51248 3.115706,2.51248 0.03673,0 0.487293,-0.21333 1.001172,-0.47406 z M 265.5659,128.79078 c 1.393,-0.92377 3.67512,-3.3043 4.93885,-5.15168 2.23642,-3.26965 3.96638,-7.37675 4.78513,-11.3607 0.45519,-2.21521 0.7257,-7.07778 0.43528,-7.82702 -0.1724,-0.44506 -0.2831,-0.36062 -2.20743,1.68374 -4.7387,5.03416 -7.18631,9.81855 -8.54135,16.69525 l -0.52369,2.65779 -0.25978,-1.45382 c -0.56661,-3.17039 -2.10034,-6.66185 -3.93924,-8.96765 -1.73893,-2.18034 -4.9534,-4.42856 -8.10814,-5.67073 -1.2335,-0.4857 -1.22184,-0.51352 -0.74189,1.7681 1.22329,5.81544 5.09196,12.40797 9.36588,15.96072 1.43829,1.19554 3.13173,2.2545 3.60786,2.25612 0.16342,6e-4 0.69825,-0.26499 1.18852,-0.59012 z M 37.227318,113.71341 c 5.496768,-2.74585 11.868366,-10.42926 14.107177,-17.01162 0.272359,-0.80076 0.45466,-1.49648 0.405118,-1.54603 -0.139744,-0.13974 -2.618364,0.89098 -4.26697,1.77442 -4.792982,2.56838 -8.318066,6.66068 -10.519551,12.21221 l -0.760673,1.91822 -0.0062,-2.9713 c -0.01032,-4.72068 -0.79931,-8.35429 -2.536704,-11.67448 -0.72836,-1.39191 -3.199366,-4.83578 -3.962845,-5.52307 -0.395719,-0.35623 -0.403498,-0.34532 -0.706715,0.99043 -1.541031,6.78862 -0.32121,14.02799 3.250734,19.29237 0.912642,1.34507 2.850445,3.15448 3.378314,3.15448 0.212221,0 0.940437,-0.27704 1.618254,-0.61563 z m 227.270152,-5.73935 c 3.36314,-2.59465 6.51519,-8.2457 7.82142,-14.02228 0.4521,-1.99907 0.6963,-6.07775 0.48222,-8.0526 l -0.1498,-1.38216 -1.53156,1.62981 c -4.45365,4.73951 -7.16382,10.55274 -7.82886,16.79223 -0.25937,2.43388 -0.3126,2.50509 -0.70795,0.94816 -1.6566,-6.52297 -5.53734,-10.89432 -11.72497,-13.20719 l -1.33708,-0.49979 v 0.56321 c 0,0.74685 0.81484,3.51109 1.58046,5.36163 2.02822,4.90203 6.38922,9.9752 10.37437,12.06864 0.63759,0.33489 1.34245,0.60889 1.56643,0.60889 0.22398,0 0.87891,-0.36385 1.45532,-0.80855 z M 42.19277,94.68158 c 2.440602,-1.69155 4.824615,-4.62389 6.558542,-8.06699 1.078778,-2.14218 2.22086,-5.76702 2.572433,-8.16464 0.369586,-2.52047 0.415909,-5.71908 0.08284,-5.71908 -0.301483,0 -2.772953,2.52972 -4.160787,4.25886 -2.775657,3.45827 -4.399997,7.07477 -5.415387,12.0571 -0.263506,1.29298 -0.512703,2.38445 -0.553765,2.42553 -0.04106,0.0411 -0.177979,-0.48609 -0.304259,-1.17144 -0.788488,-4.27927 -2.951211,-8.09873 -5.923045,-10.46034 -1.325179,-1.05306 -5.476959,-3.33961 -5.685404,-3.13117 -0.172696,0.17269 0.482784,3.32646 1.055832,5.08007 1.519469,4.64974 4.964132,9.56741 8.438064,12.04636 1.941671,1.38555 2.391503,1.49963 3.334952,0.84574 z m 218.99758,-5.40155 c 3.53822,-1.79291 8.48976,-7.35783 10.99855,-12.36077 0.94958,-1.89354 2.40634,-5.9218 2.21186,-6.11622 -0.17889,-0.17891 -3.35581,1.43086 -4.90677,2.48624 -4.00588,2.72599 -6.81159,6.51434 -8.462,11.42578 l -0.56084,1.66907 -0.1369,-2.22112 c -0.26928,-4.36926 -1.34121,-8.14955 -3.15773,-11.13625 -0.99322,-1.63312 -3.93594,-5.24806 -4.27207,-5.24806 -0.24926,0 -0.38348,0.64916 -0.64533,3.11987 -0.73508,6.93714 2.2227,15.07723 6.65107,18.3047 0.9406,0.68546 1.07039,0.68982 2.28016,0.0768 z M 42.450912,74.8603 c 1.43945,-1.50802 2.151364,-2.53584 3.189957,-4.60552 2.314662,-4.6126 3.280014,-10.33939 2.54795,-15.11538 -0.438525,-2.86096 -0.475336,-2.89648 -1.551255,-1.49699 -1.918819,2.49588 -3.459633,5.18064 -4.384708,7.64 -0.971294,2.58224 -1.701666,6.88439 -1.720175,10.13236 l -0.0072,1.21705 -0.681005,-1.62266 c -1.5192,-3.61983 -3.576246,-6.25293 -6.298729,-8.06259 -1.758688,-1.16902 -2.936643,-1.7004 -5.376636,-2.4254 -2.169027,-0.64449 -2.125159,-0.65787 -1.769594,0.53943 1.484515,4.9989 5.995409,10.63343 10.772359,13.45568 1.156619,0.68333 3.256048,1.55622 3.781771,1.57237 0.173388,0.005 0.847037,-0.54743 1.497009,-1.22835 z M 264.83112,69.96741 c 4.29415,-1.83183 10.03711,-7.12122 13.02254,-11.99399 1.01282,-1.65322 2.04442,-3.85877 1.8812,-4.022 -0.20788,-0.20791 -3.51903,0.95465 -5.5522,1.94944 -3.95574,1.9355 -6.78199,4.76557 -9.43304,9.44613 l -0.98466,1.73841 0.15764,-1.48565 c 0.0867,-0.81711 0.14568,-2.91187 0.13113,-4.65503 -0.0227,-2.69932 -0.1011,-3.45243 -0.5275,-5.07781 -0.74386,-2.83397 -2.3237,-6.1599 -3.81327,-8.02798 l -0.4391,-0.55076 -0.60313,1.88275 c -1.46842,4.5842 -1.57902,9.57692 -0.31126,14.05179 1.01148,3.57016 3.37706,7.33629 4.60015,7.32384 0.28949,-0.003 1.13167,-0.26356 1.8715,-0.57914 z M 39.132612,56.88613 c 1.589675,-2.01108 2.71946,-4.59726 3.505647,-8.02469 0.440567,-1.92068 0.501148,-6.5149 0.1097,-8.31964 -0.412102,-1.89998 -0.881,-3.28168 -1.090033,-3.21201 -0.321478,0.10716 -2.224254,3.3996 -2.892796,5.00549 -1.55274,3.72985 -2.12683,8.53016 -1.467511,12.27067 0.07428,0.42126 -0.157789,0.14038 -0.797072,-0.96483 -1.913825,-3.30867 -3.798361,-5.17472 -6.558563,-6.4942 -1.587601,-0.75893 -3.733198,-1.39189 -5.498046,-1.62194 l -0.942046,-0.12279 0.308674,0.73875 c 1.443195,3.45407 4.62301,7.14966 8.06725,9.37577 2.116575,1.36802 4.484401,2.3384 5.73542,2.35052 0.652685,0.006 0.828714,-0.10735 1.519376,-0.9811 z M 269.73686,52.00917 c 3.50551,-1.04101 8.20976,-4.33427 11.23842,-7.86749 1.25227,-1.46091 3.40791,-4.59312 3.40853,-4.9527 2.1e-4,-0.0904 -0.28939,-0.1067 -0.64347,-0.0363 -6.10489,1.21392 -9.96159,3.72001 -13.34092,8.66895 -0.61366,0.89874 -1.05585,1.45781 -0.9827,1.24238 0.36976,-1.08835 0.90325,-5.12647 0.90325,-6.83628 0,-2.07015 -0.37254,-4.4474 -0.96732,-6.17273 -0.62572,-1.81496 -1.85675,-4.34412 -2.07836,-4.27023 -0.31611,0.10537 -1.42437,2.9652 -1.93495,4.99338 -0.3808,1.51222 -0.44797,2.29384 -0.44281,5.15025 0,2.84232 0.0743,3.6146 0.44136,4.95217 0.75232,2.73964 2.25097,5.44736 3.01484,5.44737 0.17085,0 0.79368,-0.14345 1.38413,-0.31878 z M 33.829237,41.97793 c 0.88069,-1.19331 1.690348,-3.04062 2.30711,-5.26386 0.480308,-1.73135 0.531955,-2.24254 0.533905,-5.28425 0.0021,-3.81876 -0.363355,-5.77536 -1.555403,-8.31963 l -0.649662,-1.38661 -0.525713,1.02819 c -0.795266,1.55535 -1.652021,3.80338 -2.150229,5.64194 -0.588864,2.17314 -0.647269,7.31108 -0.110754,9.74271 0.188874,0.85601 0.343402,1.59689 0.343402,1.64641 0,0.0495 -0.548493,-0.63785 -1.218872,-1.52751 -1.524245,-2.02283 -3.368441,-3.57702 -5.417027,-4.56519 -2.126676,-1.02585 -3.545636,-1.37594 -6.12953,-1.51232 l -2.167789,-0.11443 0.426216,0.67366 c 3.075459,4.86091 8.296979,8.68017 13.376258,9.78401 2.036402,0.44255 2.238182,0.40524 2.938088,-0.54312 z M 278.54057,36.14115 c 2.99843,-0.94514 6.08373,-2.71167 9.03016,-5.17045 1.57881,-1.31755 3.7784,-3.71524 4.65143,-5.07056 l 0.37203,-0.5775 -1.61781,0.12475 c -3.24027,0.24988 -6.59329,1.43119 -9.03667,3.18376 -1.19285,0.85561 -3.91695,3.54151 -4.90357,4.83486 -0.48903,0.64109 -0.48717,0.62392 0.14557,-1.31282 1.67796,-5.13617 1.72882,-9.58621 0.16322,-14.29229 -0.73798,-2.21826 -0.73323,-2.2162 -1.58511,-0.69298 -2.22073,3.97113 -3.33672,9.12782 -2.8738,13.27933 0.24328,2.18211 0.97847,4.63822 1.70819,5.70657 0.51048,0.74748 0.53844,0.7596 1.44108,0.62455 0.50636,-0.0757 1.6337,-0.3625 2.50528,-0.63722 z M 28.110045,28.8547 c 0.310243,-1.05291 0.23986,-3.68498 -0.132419,-4.95216 -1.254414,-4.26983 -5.649562,-8.59269 -10.37048,-10.19993 -0.777913,-0.26483 -1.478788,-0.41712 -1.557507,-0.3384 -0.205917,0.20591 0.221011,2.71706 0.815012,4.79381 0.280458,0.98053 0.996211,2.76331 1.590574,3.96174 1.909193,3.84955 4.476105,6.25638 7.624072,7.14861 1.350083,0.38265 1.824594,0.28599 2.030748,-0.41367 z M 284.73675,22.69281 c 3.46342,-1.28276 6.66118,-4.56568 9.07546,-9.31718 1.30438,-2.56722 2.80097,-7.00375 2.3626,-7.00375 -0.3222,0 -2.98482,1.12263 -4.06532,1.71407 -5.038,2.75774 -8.6864,6.94793 -9.79765,11.25269 -0.3061,1.18584 -0.40597,3.17825 -0.18776,3.74681 0.14289,0.37225 0.82381,0.2699 2.61267,-0.39264 z m 19.95124,274.13048 c -1.34606,-0.18617 -3.06673,-0.72764 -4.62398,-1.45511 -5.50773,-2.57287 -9.22289,-7.66514 -9.94405,-13.62986 -0.18189,-1.50478 -0.16228,-2.60967 0.10369,-5.84356 0.18044,-2.19332 0.45591,-4.59615 0.61211,-5.33957 0.6053,-2.88059 2.37229,-6.13928 4.49068,-8.28144 2.2586,-2.28414 4.75428,-3.7131 8.61016,-4.93001 l 2.02183,-0.63807 0.10884,-0.81808 c 0.14733,-1.10732 5.25662,-64.90205 5.25662,-65.63398 0,-0.54365 -0.10379,-0.61993 -1.67672,-1.23176 -6.35848,-2.47334 -10.65262,-8.38459 -10.94645,-15.06877 -0.12772,-2.90347 0.4004,-9.10568 0.94463,-11.0935 0.95184,-3.47701 3.28699,-6.94351 6.11086,-9.07133 3.13679,-2.36361 5.95787,-3.3672 9.9751,-3.5485 1.38909,-0.0627 2.52561,-0.15251 2.52561,-0.19961 0,-0.0471 -0.39122,-0.5941 -0.86952,-1.21559 -3.26791,-4.24697 -6.79942,-10.71539 -8.84106,-16.19355 -6.33258,-16.9919 -5.69736,-40.60254 1.59223,-59.18079 9.51269,-24.24425 30.1759,-42.45745 55.06486,-48.53606 7.28112,-1.77827 12.69126,-2.34384 22.48282,-2.35034 9.48855,-0.006 16.68281,0.57019 25.39614,2.035 5.76751,0.96957 13.83779,2.89068 17.06649,4.06266 l 1.31222,0.4763 0.69444,-0.65349 c 1.77814,-1.67322 3.86589,-3.00268 6.06393,-3.86129 2.54283,-0.99333 2.45648,-0.98858 29.59278,-1.62817 33.26482,-0.78404 38.5135,-0.71292 46.4513,0.6293 7.62375,1.28913 14.37066,3.69358 20.18935,7.19507 1.18996,0.71604 2.18215,1.28007 2.20505,1.25339 0.0227,-0.0267 0.33004,-0.6279 0.68258,-1.33606 2.27129,-4.56149 6.46618,-7.93377 11.3454,-9.12036 2.06062,-0.50113 2.07517,-0.50167 29.1634,-1.09297 29.01741,-0.6334 29.06744,-0.63358 31.2401,-0.11446 2.85585,0.68234 5.53508,2.08444 7.50604,3.92799 l 0.97351,0.91061 1.13735,-1.07903 c 2.35516,-2.23432 5.17026,-3.72692 8.3675,-4.4365 0.98672,-0.21899 6.2259,-0.4011 22.42092,-0.77939 11.62335,-0.2715 21.69605,-0.48149 22.38378,-0.46666 0.68773,0.0149 12.48193,-0.25074 26.20933,-0.59017 27.42013,-0.67802 31.62049,-0.72799 35.56654,-0.42308 9.43789,0.72927 17.34681,2.58221 24.2918,5.6912 6.36106,2.84763 13.01584,7.9626 16.51207,12.69157 l 0.45167,0.6109 2.92343,-2.84003 c 10.86226,-10.55253 23.93247,-17.29105 38.61119,-19.9065 12.13136,-2.16156 26.24276,-1.63689 37.11595,1.37999 12.80506,3.55291 24.17234,11.48075 31.88245,22.23557 5.24929,7.32211 9.14066,16.75671 10.94314,26.53129 0.31457,1.70539 0.40412,1.93131 0.76552,1.93101 0.22522,-2e-4 44.22117,-0.98048 97.76892,-2.17842 53.54776,-1.19793 98.85636,-2.17831 100.68586,-2.1786 4.9562,-7.9e-4 7.4467,0.64448 10.655,2.76076 4.3182,2.8484 7.0863,7.32272 7.6967,12.44057 0.186,1.55967 0.1428,2.76329 -0.2915,8.12154 -0.2804,3.45978 -0.6484,6.9035 -0.8178,7.6527 -0.9442,4.17596 -3.5785,7.98167 -7.203,10.40606 -2.1576,1.44323 -4.3972,2.32161 -6.8908,2.70263 -1.5032,0.22969 -23.2725,0.76531 -100.46699,2.47191 -54.20143,1.19828 -100.02566,2.17732 -101.83165,2.17563 l -3.2837,-0.003 -0.56,1.63421 c -2.7369,7.98703 -6.8637,15.78009 -11.99136,22.64471 -1.19945,1.60583 -2.13314,2.96739 -2.07495,3.02567 0.0578,0.0583 9.64557,-0.10183 21.30513,-0.35586 27.9398,-0.60866 33.21416,-0.48203 40.89239,0.98173 9.15335,1.74498 17.43306,5.26298 23.09813,9.81425 l 1.30871,1.05133 0.33798,-1.22358 c 0.79668,-2.88374 3.02021,-6.34808 5.29366,-8.24769 2.37188,-1.98191 5.17119,-3.33377 8.04654,-3.8859 1.87533,-0.3601 52.77391,-1.5547 59.76971,-1.40281 15.5092,0.33672 29.152,4.29069 40.3106,11.68283 8.9328,5.91756 15.9072,13.90189 20.3792,23.32998 4.116,8.67735 6.0304,17.22152 6.2985,28.1092 0.2169,8.81521 -0.7206,17.7656 -2.7077,25.85182 -3.5084,14.27637 -9.9404,25.61222 -20.2359,35.66443 -13.2944,12.98013 -31.9437,20.67568 -53.2557,21.97574 -1.035,0.0631 -19.977,0.51653 -42.09339,1.00752 -42.98592,0.95435 -42.92309,0.95427 -47.34269,0.0629 -2.47845,-0.49984 -5.00375,-1.33622 -6.87587,-2.27737 -1.63525,-0.8221 -4.36131,-2.52866 -4.70971,-2.94845 -0.19056,-0.22968 -0.55403,0.0435 -2.05216,1.54268 -3.36561,3.36802 -6.95356,4.94702 -11.81638,5.20034 -4.51359,0.23513 -100.67181,2.29321 -102.80691,2.20039 -1.45398,-0.0632 -2.80251,-0.24989 -3.72816,-0.51608 -4.50801,-1.29637 -8.68114,-4.68302 -10.7203,-8.69992 l -0.43847,-0.86385 -0.63418,1.26002 c -0.92327,1.83429 -1.81662,3.07112 -3.28773,4.55173 -3.05063,3.07022 -6.98905,4.81137 -11.39936,5.03952 -4.04777,0.20938 -37.93182,0.88551 -38.75873,0.77339 -3.19125,-0.43274 -6.41893,-1.7424 -8.81382,-3.57629 -2.6069,-1.99631 -4.71415,-4.94004 -5.70716,-7.97269 -0.19045,-0.58176 -0.41041,-0.98289 -0.48871,-0.89139 -0.0784,0.0915 -0.70362,1.4143 -1.3895,2.93957 -0.68598,1.52526 -1.64484,3.3896 -2.13098,4.14298 -1.78267,2.76293 -4.16714,4.81677 -7.29257,6.2814 -2.92972,1.37294 -4.13062,1.52236 -13.79106,1.71574 -4.64647,0.0931 -9.14788,0.096 -10.00337,0.006 -4.36213,-0.45607 -8.69971,-2.85753 -11.45507,-6.34209 -1.90256,-2.40612 -2.27666,-3.27988 -4.94474,-11.54906 l -0.25565,-0.79235 -0.14021,1.38661 c -0.49904,4.93253 -1.87955,8.14492 -4.82547,11.22832 -2.40087,2.51298 -5.15304,4.12545 -8.41393,4.92972 -1.49122,0.36776 -2.93199,0.43153 -16.98118,0.75148 -15.63893,0.35615 -18.8534,0.31919 -22.18569,-0.2552 -4.58158,-0.78973 -8.77781,-2.53 -11.96288,-4.96121 l -0.90243,-0.68883 -1.73842,1.73981 c -2.6234,2.62552 -4.80917,3.88781 -8.32809,4.80954 -1.45666,0.38155 -4.068,0.45932 -53.23246,1.58513 -28.43532,0.65115 -52.41741,1.14074 -53.29363,1.08801 -2.99843,-0.1805 -6.12315,-1.2691 -8.73098,-3.0418 -1.66248,-1.1301 -4.04602,-3.70889 -5.08504,-5.50159 l -0.89046,-1.53632 -0.39504,0.89299 c -1.97468,4.46422 -6.58741,8.23749 -11.58703,9.47844 -1.54487,0.38346 -3.82875,0.45483 -44.01999,1.37545 -23.31479,0.53406 -43.87772,0.9742 -45.69547,0.97804 -3.78273,0.008 -5.27364,-0.23502 -7.9084,-1.28912 l -1.72758,-0.69123 -0.6606,0.38971 c -1.05543,0.62259 -3.31124,1.41207 -4.91409,1.71984 -1.12249,0.21551 -7.72858,0.42621 -27.33595,0.87185 -24.75927,0.56275 -29.48776,0.63167 -30.80792,0.44913 z m 27.13786,-25.93088 c 13.5095,-0.28792 24.58408,-0.54052 24.61018,-0.5613 0.15094,-0.12023 0.45199,-5.1324 0.3157,-5.25547 -0.0908,-0.0819 -2.61195,-0.87987 -5.60275,-1.77324 -3.52718,-1.05361 -5.7183,-1.81276 -6.23642,-2.16074 -0.99137,-0.66583 -1.68766,-1.85617 -1.69798,-2.90276 -0.0103,-0.69714 3.17682,-40.96699 3.24357,-41.02769 0.0485,-0.0438 45.77419,-1.04264 45.81607,-1.00077 0.0227,0.0227 -0.70599,9.29492 -1.61946,20.60483 -1.84014,22.78474 -1.68115,21.65953 -3.2317,22.87784 -1.18841,0.9338 -1.85716,1.20613 -7.66027,3.11919 l -5.54643,1.82846 -0.12927,1.15697 c -0.0712,0.63635 -0.16022,1.82552 -0.19808,2.64262 l -0.0691,1.48565 3.07034,-0.059 c 23.47212,-0.45104 83.51907,-1.87192 83.6146,-1.97852 0.19757,-0.22061 0.53411,-5.0814 0.35945,-5.19263 -0.0856,-0.0545 -3.05879,-0.89987 -6.60732,-1.87867 -3.54844,-0.97879 -6.45175,-1.8719 -6.45175,-1.9847 0,-0.11281 3.01567,-6.79964 6.70162,-14.85964 l 6.70152,-14.65457 2.4116,-0.0556 c 22.93347,-0.52901 34.20985,-0.77628 34.24369,-0.75089 0.0588,0.0439 9.1613,28.87528 9.22021,29.20305 0.0351,0.19258 -1.94527,0.83109 -7.01959,2.26381 l -7.06787,1.99559 -0.10761,0.90555 c -0.0588,0.49807 -0.16507,1.68554 -0.23523,2.63883 l -0.12772,1.73326 1.55869,1.9e-4 c 2.3137,0 99.16553,-2.17058 99.51239,-2.2305 0.23285,-0.0402 0.34335,-0.60756 0.5111,-2.62465 0.11762,-1.41531 0.19592,-2.599 0.17395,-2.63039 -0.0217,-0.0314 -2.90135,-0.79887 -6.39851,-1.70546 -6.83285,-1.77126 -7.38233,-2.0011 -8.0257,-3.35692 -0.21274,-0.44828 -0.32241,-1.18785 -0.31756,-2.14061 0.0103,-1.73926 2.84316,-36.95757 2.98564,-37.10012 0.15104,-0.151 10.14719,2.47455 10.40728,2.73352 0.12515,0.12463 4.83569,8.42739 10.46774,18.45057 10.26914,18.27566 12.63091,22.22623 14.51613,24.28196 1.77164,1.93186 4.43693,2.99126 8.19449,3.25719 2.1414,0.15156 29.52367,-0.45847 29.70948,-0.66187 0.11751,-0.12863 0.56671,-5.02685 0.47159,-5.14271 -0.0248,-0.0302 -2.54397,-0.71438 -5.59801,-1.52038 -3.05415,-0.80597 -5.91072,-1.64794 -6.34795,-1.871 -1.15169,-0.58756 -3.6483,-2.64798 -4.69961,-3.87848 -0.77202,-0.90363 -24.8548,-40.53336 -24.8548,-40.9001 0,-0.0711 0.73539,-0.42744 1.63421,-0.79181 3.6971,-1.4988 8.6115,-4.2124 11.34046,-6.26199 3.32558,-2.49767 6.82356,-6.33928 8.88067,-9.75304 2.55769,-4.24443 4.08636,-10.15038 4.08615,-15.78756 0,-9.19797 -4.03137,-15.87638 -12.0028,-19.88517 -4.19479,-2.1095 -9.0963,-3.50122 -15.12721,-4.29517 -4.33975,-0.57131 -12.70736,-0.56784 -39.15542,0.0162 -13.60019,0.30033 -24.77103,0.58505 -24.82426,0.63269 -0.15641,0.14003 -0.51926,5.23283 -0.37905,5.3195 0.0702,0.0434 2.51652,0.7497 5.43593,1.5694 2.94261,0.82619 5.68797,1.71306 6.1608,1.99012 1.2269,0.719 1.85376,1.8794 1.85376,3.43149 0,0.67304 -1.55962,20.57724 -3.46569,44.23157 -3.25832,40.4347 -3.49231,43.06121 -3.91097,43.89935 -0.42991,0.86082 -1.50082,1.89238 -2.52767,2.43479 -0.27237,0.14386 -2.88763,1.0402 -5.81167,1.99187 l -5.31656,1.73029 -3.39925,-1.2939 c -1.86965,-0.71165 -3.74868,-1.47197 -4.1756,-1.68961 -1.01499,-0.51746 -2.47939,-2.03814 -3.02495,-3.14125 -0.23853,-0.48232 -7.50531,-23.41452 -16.14849,-50.96043 l -15.71476,-50.08349 -3.66017,0.0175 c -2.01315,0.009 -4.59818,0.0733 -5.74461,0.1415 l -2.08445,0.12402 -5.67126,9.63137 -5.67125,9.63137 -18.96225,40.50869 c -10.42915,22.27979 -19.29899,41.17724 -19.71064,41.99435 -0.8752,1.7372 -1.85242,2.93093 -3.10491,3.79267 -1.09123,0.75077 -8.47624,3.77443 -9.16882,3.75399 -0.27237,-0.008 -2.66984,-0.67646 -5.32771,-1.48543 -6.24622,-1.90107 -7.14721,-2.49602 -7.30041,-4.82054 -0.0413,-0.62791 1.49266,-20.57394 3.40884,-44.32451 3.41544,-42.33468 3.49375,-43.20311 3.98463,-44.21372 0.96598,-1.98858 1.68343,-2.35659 9.02584,-4.62998 l 5.27684,-1.63384 0.1141,-1.10673 c 0.0629,-0.60872 0.17312,-1.84021 0.24524,-2.73665 l 0.13113,-1.6299 -3.14504,0.10557 c -3.18754,0.10702 -46.48606,1.07432 -48.0885,1.07432 -1.04676,0 -1.02953,-0.0449 -1.22184,3.1748 l -0.13639,2.2834 5.22401,1.45703 c 2.87319,0.80138 5.66321,1.69033 6.20001,1.97546 1.45996,0.77546 2.09435,1.8854 2.09435,3.66452 0,1.19929 -2.73493,36.01952 -2.83501,36.09445 -0.0598,0.0448 -45.78079,1.05249 -45.8135,1.00977 -0.0165,-0.0214 0.62666,-8.19496 1.42901,-18.16367 1.01623,-12.62526 1.55034,-18.36998 1.7606,-18.93257 0.3352,-0.89705 1.1977,-1.86623 2.32876,-2.61683 0.41649,-0.2764 3.30381,-1.29942 6.53685,-2.31605 l 5.79083,-1.82096 0.19809,-2.62651 c 0.10895,-1.44459 0.1464,-2.65844 0.0836,-2.69743 -0.15321,-0.0946 -51.92973,1.08007 -52.03001,1.18036 -0.10317,0.10322 -0.43558,3.56271 -0.4395,4.57396 v 0.79234 l 5.29654,1.46488 c 5.63824,1.55942 6.16782,1.75247 7.04734,2.56899 0.93998,0.87257 1.18904,1.55801 1.16139,3.19629 -0.0145,0.81711 -1.58036,20.72517 -3.48127,44.24013 -3.33879,41.30388 -3.47219,42.78581 -3.93119,43.67808 -0.9015,1.7527 -1.76029,2.19958 -8.37545,4.35801 l -5.9426,1.93901 -0.23172,2.55764 c -0.12752,1.40668 -0.20159,2.60652 -0.16466,2.66627 0.0371,0.0597 0.72064,0.0852 1.51939,0.0566 0.79864,-0.0287 12.50535,-0.28763 26.01485,-0.57557 z m 134.0042,-51.50083 c 0,-0.0967 3.8991,-8.71066 8.66628,-19.14224 7.37656,-16.14132 8.72799,-18.96654 9.07257,-18.96677 0.36842,-2.1e-4 0.50843,0.46832 1.55302,5.19948 0.98229,4.44835 1.76514,7.15417 5.41746,18.72393 2.34805,7.4383 4.23421,13.55576 4.19139,13.59438 -0.0433,0.0386 -4.80215,0.17042 -10.57638,0.29288 -5.77422,0.12248 -12.25908,0.27924 -14.41079,0.34838 -2.23838,0.0719 -3.91273,0.0505 -3.91355,-0.05 z m 119.74868,-12.18363 c -1.19626,-0.10245 -2.23632,-0.25048 -2.31132,-0.32893 -0.15269,-0.15989 3.33311,-43.82302 3.51304,-44.00304 0.0629,-0.0631 3.38315,-0.11479 7.378,-0.11479 6.96274,0 7.33694,0.0191 9.04595,0.46132 6.31721,1.63466 10.0987,5.5028 11.45632,11.71902 0.61355,2.80928 0.59756,9.27831 -0.0309,12.43298 -2.03431,10.21394 -7.93574,17.44348 -15.90357,19.4827 -1.42622,0.36499 -2.32462,0.43344 -6.31761,0.48128 -2.56027,0.0306 -5.63381,-0.0281 -6.83007,-0.13054 z m 121.0448,56.80065 c 0.11875,-0.12281 1.93537,-4.01168 4.03694,-8.64196 3.19879,-7.04785 41.40845,-88.75321 42.9365,-91.81311 0.72683,-1.45534 1.99015,-3.02358 3.1276,-3.88234 0.55041,-0.41559 3.09252,-1.7373 5.64908,-2.93715 l 4.64832,-2.18153 0.21026,-2.63061 c 0.11566,-1.44683 0.18592,-2.66426 0.15631,-2.70543 -0.0578,-0.0804 -27.11774,0.48432 -33.06931,0.69003 l -3.58393,0.12389 -0.21118,2.60175 c -0.11607,1.43097 -0.15228,2.65586 -0.0805,2.72197 0.0722,0.0661 2.98306,1.08411 6.46939,2.2622 3.48632,1.1781 6.36672,2.16227 6.40098,2.18705 0.0547,0.0398 -34.79081,76.91684 -34.95815,77.12474 -0.14784,0.18379 -0.30477,-0.31059 -1.75761,-5.53682 -0.83186,-2.99227 -6.2291,-20.16992 -11.99393,-38.17258 -5.76473,-18.00264 -10.48136,-32.84427 -10.48125,-32.98141 10e-5,-0.15865 2.45534,-0.93363 6.75165,-2.13114 3.7134,-1.035 6.85359,-1.94425 6.97822,-2.02056 0.13278,-0.0813 0.31188,-1.20994 0.43238,-2.72369 l 0.20573,-2.58494 -2.38045,0.002 c -1.30923,9.9e-4 -12.00745,0.22314 -23.77379,0.49355 -11.76634,0.27042 -21.93901,0.49241 -22.6058,0.49333 l -1.21245,0.002 -0.12463,1.38661 c -0.0691,0.76263 -0.17766,1.98829 -0.24245,2.72369 l -0.11782,1.33708 4.4262,1.47265 4.4262,1.47265 1.19306,1.20152 c 0.65616,0.66083 1.396,1.60264 1.64402,2.09291 0.3385,0.66905 32.32328,100.56442 32.32328,100.9525 0,0.0417 3.23129,0.0192 7.18064,-0.0497 4.91451,-0.0858 7.24873,-0.19587 7.39657,-0.34869 z m 54.7211,-2.68948 c 8.86169,-0.2064 16.14364,-0.40679 16.18222,-0.44529 0.0929,-0.0933 0.52545,-5.14058 0.44683,-5.21915 -0.034,-0.0337 -3.02412,-0.88658 -6.64549,-1.89529 -3.62127,-1.00872 -6.58421,-1.886 -6.58421,-1.94952 0,-0.0636 3.01576,-6.71007 6.70162,-14.77007 l 6.70161,-14.65457 1.27137,-0.12804 c 2.32669,-0.23433 35.25084,-0.83527 35.4317,-0.64669 0.18756,0.19565 9.38435,29.21214 9.28252,29.28696 -0.034,0.025 -3.22634,0.93629 -7.09398,2.02514 l -7.03207,1.97971 -0.12927,1.17307 c -0.0712,0.64521 -0.16022,1.83594 -0.19809,2.6461 l -0.0691,1.47303 2.9713,-0.0493 c 8.66226,-0.14387 98.19738,-2.18341 98.24937,-2.23805 0.0877,-0.0918 0.53112,-5.14721 0.45829,-5.21999 -0.033,-0.0332 -2.90404,-0.7988 -6.37922,-1.70128 -3.64592,-0.9468 -6.57853,-1.81337 -6.93303,-2.04864 -0.77955,-0.51734 -1.50576,-1.94142 -1.50576,-2.95275 0,-0.86832 2.94777,-37.60933 3.02288,-37.67761 0.0258,-0.0237 2.36074,0.55654 5.18801,1.28946 5.07607,1.31583 5.14612,1.34109 5.5783,2.00955 0.2407,0.37235 4.84931,8.52763 10.24118,18.12289 10.78272,19.18845 10.88321,19.36148 12.82817,22.09783 2.9161,4.10245 4.97228,5.06843 11.17744,5.25084 5.12002,0.1505 81.43178,-1.66709 84.57858,-2.01452 12.7006,-1.40213 24.2773,-5.66019 32.92,-12.1083 7.6825,-5.73183 13.9126,-13.48924 17.5562,-21.86001 3.0521,-7.01197 4.7983,-14.57289 5.5026,-23.82605 0.327,-4.29591 0.1381,-11.70296 -0.3858,-15.12953 -2.538,-16.59833 -11.9857,-28.53855 -27.3744,-34.59649 -6.5904,-2.59435 -13.9569,-4.00993 -21.9746,-4.2228 -3.7923,-0.10069 -56.0196,1.01367 -56.2052,1.19922 -0.19097,0.19093 -0.49274,5.10328 -0.32334,5.26323 0.0949,0.0899 2.49063,0.80657 5.32327,1.59265 2.83264,0.78608 5.4707,1.59186 5.86223,1.79063 0.88654,0.44992 1.91803,1.60318 2.07485,2.31972 0.065,0.2976 0.1497,0.64443 0.18787,0.77073 0.0382,0.1263 -1.51773,19.91515 -3.45743,43.9752 -2.53272,31.41453 -3.60941,43.94102 -3.81956,44.43889 -0.41248,0.97693 -1.24692,1.90876 -2.20599,2.46351 -0.45147,0.26117 -3.09685,1.20723 -5.87842,2.10234 l -5.0574,1.62749 -4.74788,-1.23454 c -2.8865,-0.75056 -5.17636,-1.46102 -5.84088,-1.81224 -1.52413,-0.8055 -4.08801,-3.04586 -5.12992,-4.48271 -1.41828,-1.95575 -24.38136,-40.14414 -24.22609,-40.28882 0.0784,-0.0727 0.92699,-0.45477 1.88678,-0.84894 3.75363,-1.54174 8.39061,-4.1405 11.13071,-6.23822 3.29556,-2.52298 6.83935,-6.43656 8.83476,-9.75659 4.67536,-7.77912 5.31027,-20.25912 1.37226,-26.97606 -2.99069,-5.10117 -7.68679,-8.49543 -14.9611,-10.81364 -5.59791,-1.78395 -10.23231,-2.39625 -19.01631,-2.51245 -6.48744,-0.0858 -54.24455,0.91796 -54.47153,1.14491 -0.15991,0.15991 -0.58208,5.10106 -0.44724,5.23581 0.0578,0.058 2.4994,0.77666 5.42541,1.59701 2.926,0.82035 5.69106,1.70563 6.1447,1.96729 0.86591,0.49961 1.55034,1.41719 1.85851,2.49164 0.13216,0.46069 -0.78368,12.67728 -3.27101,43.63559 -1.89998,23.64767 -3.50159,43.37487 -3.55906,43.83826 -0.14268,1.14991 -0.72188,2.215 -1.67053,3.072 -1.12981,1.02078 -1.33038,1.10453 -7.19405,3.00478 l -5.28602,1.71304 -3.34601,-1.27383 c -1.84025,-0.70061 -3.72795,-1.46875 -4.195,-1.70699 -1.12579,-0.57433 -2.39819,-1.90989 -3.05848,-3.21019 -0.29455,-0.5801 -7.57588,-23.51239 -16.18067,-50.96069 -8.6049,-27.44827 -15.68443,-49.94521 -15.73241,-49.99317 -0.0485,-0.048 -3.1406,-0.008 -6.87247,0.0872 l -6.78518,0.17442 -3.83999,8.12153 c -2.112,4.46686 -12.75347,27.15272 -23.64772,50.41303 -10.89424,23.26031 -20.12569,42.9001 -20.51423,43.64395 -0.77687,1.48744 -1.93702,2.79214 -3.18094,3.5774 -0.44425,0.28047 -2.72524,1.27703 -5.06864,2.21455 -2.77899,1.11176 -4.29456,1.81925 -4.3577,2.03417 -0.0537,0.18125 -0.15796,1.37694 -0.23286,2.65708 l -0.13618,2.32751 1.85923,-0.005 c 1.02251,-0.003 9.1096,-0.17437 17.9714,-0.38079 z m 247.43787,-15.68964 c 0,-0.58546 7.3684,-92.35811 7.4263,-92.42771 0.024,-0.0282 3.6444,-0.0727 8.0468,-0.0991 7.0383,-0.042 8.2195,-0.005 9.787,0.30844 5.9201,1.1829 10.4345,3.54261 14.4417,7.54897 2.5315,2.53093 4.2979,5.02077 6.0562,8.536 3.8292,7.65587 5.5099,17.21388 4.9616,28.21759 -0.603,12.10195 -2.7282,21.59413 -6.5658,29.32655 -2.0023,4.03439 -3.9702,6.9442 -6.4094,9.47743 -2.5501,2.64846 -4.7745,4.31104 -7.7302,5.77801 -5.8093,2.88321 -9.0569,3.39209 -23.4237,3.67046 l -6.5864,0.12761 v -0.4643 z M 782.76985,212.3242 c 0,-0.0318 3.91025,-8.61136 8.6895,-19.06583 7.26328,-15.88856 8.75873,-19.01854 9.11198,-19.07146 0.23234,-0.0348 0.42248,-0.005 0.42248,0.0665 0,0.0714 0.5368,2.50833 1.19296,5.4153 0.99838,4.42348 1.88244,7.46529 5.42148,18.6526 2.32577,7.35194 4.21522,13.38478 4.19882,13.40629 -0.0382,0.0497 -25.45133,0.65418 -27.50504,0.65418 -0.84269,0 -1.53218,-0.0259 -1.53218,-0.0577 z m 120.53566,-12.15442 c -0.32684,-0.0382 -1.15138,-0.12109 -1.8323,-0.18419 -1.17903,-0.10924 -1.23825,-0.13992 -1.24382,-0.64368 -0.0103,-0.76894 3.41937,-43.49915 3.49685,-43.59168 0.0361,-0.0428 3.20952,-0.0874 7.0525,-0.099 6.07599,-0.0184 7.20622,0.0261 8.66773,0.34097 7.23996,1.55982 11.25163,5.79254 12.41528,13.09942 0.42743,2.68366 0.26835,8.87922 -0.29816,11.61674 -2.12273,10.25657 -8.39278,17.52915 -16.56746,19.21638 -1.47492,0.30444 -2.59752,0.36396 -6.44132,0.3416 -2.56027,-0.0148 -4.92245,-0.0584 -5.2493,-0.0966 z m -357.64659,9.61135 c 1.0902,-13.57808 1.98221,-24.86232 1.98221,-25.07612 0,-0.28614 -0.22212,-0.45455 -0.84187,-0.63816 -2.27428,-0.67387 -5.27044,-2.57397 -7.11388,-4.51144 -2.70327,-2.84109 -4.70559,-7.31224 -4.71828,-10.53574 v -0.87265 l -6.08559,0.1407 c -3.34704,0.0774 -6.12531,0.18046 -6.1739,0.22907 -0.0485,0.0486 4.33809,14.19451 9.74823,31.43535 11.85042,37.76428 11.09377,35.39844 11.16568,34.91255 0.032,-0.2179 0.95061,-11.5055 2.04091,-25.08356 z m -96.17111,-5.42177 c 14.43473,-30.84831 14.82089,-31.66104 15.87003,-33.40349 0.36945,-0.61347 0.67184,-1.1483 0.67195,-1.18852 0,-0.10737 -7.12885,-7.9e-4 -9.23496,0.13802 l -1.80651,0.11908 -0.13319,1.47004 c -0.48325,5.33272 -3.33456,10.19143 -7.67359,13.07602 -1.63555,1.08728 -2.88144,1.64343 -5.52878,2.46799 -1.13735,0.35421 -2.13593,0.7028 -2.21919,0.77464 -0.0836,0.0718 -0.94813,10.06384 -1.92175,22.20447 -0.97361,12.14062 -1.80908,22.46045 -1.85654,22.93297 -0.0475,0.47249 -0.0206,0.78448 0.0598,0.6933 0.0805,-0.0912 6.2781,-13.26922 13.77217,-29.28452 z m 413.10163,-0.91114 c 1.08071,-13.44416 1.99015,-24.83059 2.0209,-25.30317 l 0.0557,-0.85923 -0.98424,-0.35093 c -1.74244,-0.6213 -2.43719,-0.96062 -3.88693,-1.89844 -5.15418,-3.33423 -8.03871,-8.87614 -7.85847,-15.09826 0.0351,-1.22579 0.0103,-2.2286 -0.066,-2.22847 -0.0712,1.5e-4 -0.71466,0.26253 -1.42911,0.58309 -1.94445,0.8724 -5.89792,2.25736 -8.24607,2.88866 -1.14395,0.30755 -2.15574,0.62395 -2.24839,0.7031 -0.0928,0.0791 4.4913,14.9937 10.1866,33.14341 5.6952,18.14974 10.38541,32.96905 10.42265,32.93185 0.0371,-0.0372 0.95195,-11.06745 2.03276,-24.51161 z m -488.67021,-54.8534 c 12.93382,-0.88869 28.39272,-4.34605 39.3435,-8.79914 l 0.81566,-0.33167 0.13505,-2.31651 c 0.19799,-3.3942 2.27108,-29.33594 2.40851,-30.13845 0.15847,-0.92546 0.72208,-1.97791 1.4029,-2.61967 0.89397,-0.84258 2.20155,-1.3873 7.73446,-3.22229 3.70731,-1.22948 5.21793,-1.81669 5.28592,-2.05466 0.0526,-0.18325 0.1562,-1.38057 0.23089,-2.6607 l 0.13577,-2.32752 -1.45985,0.006 c -3.65934,0.0148 -51.31319,1.15107 -51.38747,1.22532 -0.11153,0.11163 -0.55309,5.1061 -0.45962,5.19891 0.0402,0.0399 2.70274,0.7505 5.9167,1.57909 6.96821,1.79646 7.25265,1.90584 8.3868,3.22521 0.75923,0.8832 0.74757,1.48363 -0.27898,14.31874 -0.54453,6.80923 -1.02778,12.48899 -1.07379,12.62169 -0.11276,0.32523 -3.0528,1.78077 -5.84551,2.89398 -10.35941,4.12943 -19.86715,4.08124 -26.59931,-0.13484 -7.38192,-4.62297 -12.19161,-13.94485 -13.89134,-26.92341 -1.42983,-10.91724 -0.48087,-25.08221 2.35414,-35.13978 2.66839,-9.46648 7.96555,-18.2809 14.06022,-23.39601 4.57921,-3.84308 9.83717,-6.34349 14.71061,-6.99554 3.964,-0.53038 12.88336,0.098 18.87383,1.32972 5.93682,1.22066 12.1654,4.05054 13.14552,5.97244 0.15156,0.29728 1.2824,3.86094 2.51291,7.91923 l 2.23745,7.37873 h 3.23067 c 3.19146,0 3.2317,-0.005 3.32084,-0.4457 0.0836,-0.41321 2.07238,-25.45268 2.15728,-27.16085 0.0444,-0.89522 0.29229,-0.78749 -4.81515,-2.09233 -5.87946,-1.50208 -12.27837,-2.60502 -19.11535,-3.29478 -6.72535,-0.6785 -18.73651,-0.67597 -23.86943,0.005 -14.34115,1.90268 -26.89706,8.182 -36.79055,18.39932 -12.47161,12.87972 -18.73579,29.92175 -18.21395,49.55159 0.15465,5.81815 0.7258,9.9057 2.04792,14.6584 2.9452,10.58661 9.90887,20.16052 18.98474,26.10089 2.81077,1.8397 7.34427,3.97426 10.9938,5.17637 4.18891,1.37976 7.67813,2.08564 12.67754,2.56474 1.60853,0.15413 8.03881,0.1112 10.69667,-0.0714 z m 83.88965,-4.25445 c 12.85582,-0.27556 24.36723,-0.55274 25.58082,-0.61594 l 2.2065,-0.11493 0.12617,-1.71509 c 0.0691,-0.9433 0.17426,-2.12043 0.23306,-2.61587 l 0.10699,-0.9008 -6.10426,-1.55939 c -6.05433,-1.54665 -6.95109,-1.83424 -7.66048,-2.45695 -0.63759,-0.55962 -1.11795,-1.74462 -1.11795,-2.758 0,-1.07929 2.91899,-37.49926 3.01153,-37.57436 0.11421,-0.0927 10.30556,2.63644 10.45876,2.80076 0.0856,0.0917 4.76285,8.36745 10.39398,18.39063 5.63122,10.02318 11.07149,19.47914 12.08957,21.01325 3.35478,5.05525 5.43314,6.30145 10.945,6.56257 2.41356,0.11434 23.67072,-0.23949 27.51061,-0.45792 l 2.00872,-0.11427 0.12463,-1.51758 c 0.0681,-0.83468 0.17415,-2.01246 0.23461,-2.61729 l 0.10998,-1.0997 -5.21463,-1.34211 c -3.27905,-0.84394 -5.72934,-1.58945 -6.60134,-2.00846 -1.60604,-0.77183 -3.57804,-2.33958 -4.92296,-3.91374 -1.14509,-1.34046 -24.9588,-40.76492 -24.74421,-40.96507 0.0836,-0.0781 0.77625,-0.38671 1.53889,-0.6858 4.22863,-1.6584 9.92104,-4.96829 12.73603,-7.40551 6.24581,-5.40769 9.49278,-10.75743 10.97864,-18.08881 0.38472,-1.89822 0.45116,-2.83296 0.44693,-6.29031 0,-3.7444 -0.0464,-4.22611 -0.53917,-6.18293 -0.69454,-2.75937 -1.32491,-4.23573 -2.68438,-6.28779 -5.41766,-8.17718 -17.07227,-12.3134 -34.60603,-12.28158 -5.97726,0.0108 -52.97484,1.10065 -53.10555,1.23144 -0.14846,0.1484 -0.51637,4.20221 -0.4393,4.83983 0.064,0.52645 0.58755,0.69772 10.5218,3.43965 0.77976,0.21521 2.17245,1.3306 2.55573,2.04688 0.12029,0.22474 0.28557,0.70506 0.36728,1.06738 0.0918,0.4072 -1.19729,17.35915 -3.37551,44.38855 -3.18579,39.53184 -3.56298,43.80592 -3.92893,44.52311 -0.41196,0.8076 -1.60873,2.01623 -2.44626,2.47058 -0.25473,0.1382 -3.04827,1.1038 -6.20775,2.14578 l -5.74451,1.89449 -0.1368,1.48565 c -0.0753,0.81711 -0.18529,1.9982 -0.24462,2.62465 l -0.10771,1.13899 1.13601,0.003 c 0.6247,0.002 11.6543,-0.22194 24.51011,-0.4975 z m 22.48283,-58.34291 c -1.79764,-0.0765 -3.77386,-0.20503 -4.39154,-0.2858 -1.12094,-0.14657 -1.12301,-0.14809 -1.0383,-0.7698 0.0464,-0.34262 0.85197,-10.24994 1.78958,-22.01628 0.93761,-11.76634 1.71944,-21.41074 1.73728,-21.43199 0.0175,-0.0212 2.74866,-0.1 6.06847,-0.17483 5.09289,-0.11491 6.38086,-0.0851 8.24298,0.19089 5.03428,0.74612 8.78483,2.75975 11.04838,5.9318 2.01852,2.82865 2.8769,5.84371 3.03309,10.65353 0.18303,5.63374 -0.54566,9.98422 -2.40623,14.36563 -2.86761,6.75304 -7.87146,11.49168 -13.67767,12.95265 -1.51454,0.38109 -5.30201,0.8173 -6.54336,0.75361 -0.32684,-0.0168 -2.06505,-0.093 -3.86268,-0.16941 z m 124.10121,57.33235 c 13.44245,-1.64828 26.29785,-7.9299 33.57567,-16.4063 4.13753,-4.81884 6.35796,-9.00795 7.71042,-14.54656 0.31529,-1.29121 0.67576,-3.18527 0.80101,-4.20903 0.12525,-1.02376 1.41477,-16.61806 2.86565,-34.65398 2.92859,-36.40543 2.59029,-33.60842 4.24555,-35.10388 1.10764,-1.00065 1.28292,-1.07793 7.58156,-3.34154 3.08963,-1.11036 5.63009,-2.02675 5.64547,-2.03641 0.0547,-0.0346 0.46694,-5.3331 0.41804,-5.3781 -0.13102,-0.12055 -39.38992,0.85737 -39.51692,0.98433 -0.0805,0.0802 -0.2374,1.29767 -0.34944,2.70557 l -0.20366,2.55982 5.37424,1.79136 c 2.95582,0.98525 5.77381,2.04482 6.26232,2.35458 1.27239,0.80695 1.80516,1.64462 1.89172,2.97439 0.0392,0.60634 -1.04872,14.95585 -2.4181,31.88779 -2.00707,24.8155 -2.58451,31.24961 -2.97769,33.17949 -1.37939,6.77006 -4.13857,12.1087 -8.50895,16.46369 -4.17282,4.15818 -8.89141,6.60464 -14.91675,7.73393 -2.69697,0.50547 -9.66105,0.61402 -12.5168,0.19509 -4.1562,-0.60969 -7.55091,-2.0434 -10.39696,-4.39089 -1.88079,-1.55142 -3.17248,-3.25815 -4.48047,-5.92057 -1.87935,-3.82519 -2.52767,-6.8133 -2.68624,-12.38041 -0.0908,-3.1918 0.10369,-5.95697 2.45483,-34.89247 l 2.55346,-31.42596 0.52328,-0.89295 c 0.53535,-0.91353 1.55044,-1.83265 2.60845,-2.36188 0.32684,-0.16349 2.95644,-1.03141 5.84355,-1.92872 2.88711,-0.89731 5.383,-1.70494 5.54642,-1.79475 0.22316,-0.12263 0.34686,-0.80811 0.49656,-2.75346 l 0.19932,-2.59016 -1.09071,-0.007 c -1.98241,-0.014 -51.00697,1.06385 -51.08363,1.12312 -0.12948,0.10018 -0.4916,5.21794 -0.37729,5.33224 0.0598,0.0597 2.57801,0.80586 5.59625,1.65798 6.12923,1.73049 6.78127,2.04365 7.61065,3.65531 l 0.49491,0.9616 -2.83594,35.18738 c -2.45927,30.51517 -2.82201,35.5556 -2.73163,37.96058 0.44136,11.75424 8.57384,21.5364 21.65395,26.04662 6.92374,2.38743 16.8356,3.27888 25.1379,2.26086 z m 149.5246,-2.94362 c 6.41088,-0.1525 11.69546,-0.31649 11.74333,-0.36442 0.0485,-0.048 -0.56764,-1.05718 -1.36783,-2.24279 -3.4758,-5.14926 -6.19804,-10.93764 -8.18716,-17.4083 -0.55557,-1.80752 -1.02758,-3.72058 -1.96116,-7.94985 -0.0877,-0.39934 -0.23843,-0.34915 -2.73484,0.91344 -3.37005,1.7044 -7.15979,3.18006 -10.70936,4.17001 -4.69372,1.30906 -8.16209,1.83821 -15.01692,2.29103 l -1.72108,0.11368 -0.10874,1.02319 c -0.0598,0.56275 -0.13216,1.54854 -0.16074,2.19064 l -0.0516,1.16746 1.28757,0.36546 c 6.63559,1.88343 11.61107,7.54481 12.52433,14.25088 l 0.2408,1.76793 2.28377,-0.005 c 1.25599,-0.003 7.52904,-0.13032 13.93993,-0.28281 z m -62.29028,-1.28355 c 18.76963,-0.4281 25.07198,-0.63063 25.18237,-0.80928 0.1593,-0.25773 0.48222,-4.92549 0.34985,-5.0578 -0.0444,-0.0442 -2.78136,-0.79825 -6.0828,-1.67577 -3.30144,-0.87753 -6.24416,-1.72038 -6.53933,-1.87302 -0.96629,-0.49972 -1.9525,-1.7811 -2.08889,-2.71429 -0.11369,-0.77678 2.74092,-37.53967 2.92941,-37.7282 0.0423,-0.0425 0.78193,0.32056 1.64299,0.80692 3.04248,1.71845 7.72733,3.36373 11.37089,3.99335 4.44848,0.7687 12.6471,-0.40748 18.27554,-2.62182 5.73007,-2.25434 10.3231,-5.28331 14.41534,-9.50654 3.32197,-3.42832 5.38558,-6.3684 7.32043,-10.4298 2.63827,-5.5379 4.01982,-11.76587 4.03013,-18.168 0.0124,-7.39205 -1.90617,-12.37986 -6.51302,-16.9364 -4.25463,-4.2081 -10.06125,-7.00938 -17.81881,-8.5963 -4.25711,-0.87085 -7.51099,-1.21686 -12.47945,-1.32703 -4.3251,-0.0959 -52.88756,0.94195 -53.08008,1.1344 -0.15032,0.15034 -0.56692,5.12576 -0.43981,5.25286 0.0609,0.0604 2.54737,0.79449 5.52672,1.63138 2.97924,0.8369 5.75441,1.73022 6.16688,1.98516 0.83867,0.5183 1.61596,1.59666 1.79815,2.49465 0.10111,0.499 -6.5709,84.91848 -6.93065,87.69071 -0.15476,1.19193 -1.02892,2.56532 -2.08187,3.27071 -0.49274,0.33009 -3.24315,1.35634 -6.79509,2.53543 l -5.96725,1.98086 -0.13836,1.78278 c -0.0763,0.98053 -0.17662,2.16162 -0.22326,2.62465 l -0.0846,0.84186 1.60986,-0.005 c 0.88541,-0.003 12.87563,-0.26219 26.64501,-0.57624 z m 19.53433,-55.27112 c -2.2521,-0.20285 -4.72622,-0.59935 -5.07153,-0.81274 -0.2181,-0.1348 0.066,-4.28704 1.60264,-23.42036 l 1.86779,-23.25651 3.25873,-0.12853 c 8.52794,-0.33634 11.56526,0.0191 15.24802,1.78446 1.46522,0.70237 2.18772,1.21079 3.46652,2.43941 3.66254,3.51886 5.19317,7.88339 5.42055,15.45626 0.11545,3.84288 -0.0567,5.72806 -0.84393,9.23746 -2.20402,9.82691 -7.46477,16.49418 -14.4502,18.3134 -1.80414,0.46986 -7.32137,0.67333 -10.49859,0.38715 z m 108.18187,54.86605 c 12.33295,-0.62801 21.63517,-3.56576 30.80122,-9.72748 10.22952,-6.87655 18.40378,-17.84663 22.93945,-30.78511 3.08654,-8.80465 4.39133,-16.5177 4.38968,-25.94933 0,-10.20339 -1.80022,-18.96525 -5.4481,-26.5436 -2.06062,-4.28075 -4.25071,-7.49431 -7.31063,-10.72689 -7.30465,-7.71689 -16.56695,-11.92308 -28.95706,-13.14991 -3.37655,-0.33434 -10.87918,-0.28261 -14.46032,0.0997 -9.71016,1.03664 -18.37985,4.06824 -25.81779,9.02793 -3.70907,2.47321 -5.65527,4.04449 -8.81052,7.11326 -5.91144,5.74936 -10.50818,12.51222 -13.87441,20.4125 -6.26284,14.69853 -7.58207,33.50266 -3.36789,48.00622 3.05054,10.49897 8.69734,18.57866 17.00738,24.33512 6.64952,4.60613 15.36894,7.33953 25.10077,7.86862 4.04478,0.2199 3.87083,0.21948 7.80822,0.019 z m -3.19601,-9.52904 c -3.78108,-0.32091 -7.48591,-1.58413 -10.42306,-3.55386 -1.73388,-1.16284 -4.18406,-3.70479 -5.68354,-5.89644 -5.20699,-7.61063 -7.60363,-18.73542 -7.3063,-33.91365 0.20119,-10.26543 1.32718,-18.33711 3.7068,-26.57249 2.2813,-7.89525 5.19544,-13.72868 9.33679,-18.69029 4.37544,-5.24204 9.067,-8.0694 15.12339,-9.11423 2.32711,-0.40144 7.35892,-0.40674 9.61638,-0.0103 3.31238,0.58198 6.29348,1.7934 8.81475,3.582 1.60171,1.13627 4.37771,4.08227 5.63711,5.98239 5.17903,7.81384 7.51398,19.70522 6.91518,35.2175 -0.78678,20.37828 -5.78217,35.78966 -14.61817,45.09861 -5.72387,6.0302 -12.60191,8.59346 -21.11933,7.87057 z M 997.25012,82.44651 c 52.54098,-1.16949 95.56518,-2.16257 95.60928,-2.20687 0.1141,-0.11471 0.8854,-9.57161 0.7887,-9.67098 -0.07,-0.0726 -200.00673,4.33459 -200.07627,4.41026 -0.0836,0.0909 -0.78709,9.56308 -0.71972,9.68943 0.0444,0.0833 2.05794,0.0957 4.4747,0.028 2.41676,-0.0679 47.38219,-1.08028 99.92331,-2.24976 z"
       id="path293" /></g></svg>
