<?xml version="1.0" encoding="UTF-8" standalone="no"?>
<!-- Created with Inkscape (http://www.inkscape.org/) -->

<svg
   version="1.1"
   id="svg2"
   width="500"
   height="348"
   viewBox="0 0 500 348"
   sodipodi:docname="logo_Tecsur_color.svg"
   inkscape:version="1.2.2 (b0a8486541, 2022-12-01)"
   xml:space="preserve"
   xmlns:inkscape="http://www.inkscape.org/namespaces/inkscape"
   xmlns:sodipodi="http://sodipodi.sourceforge.net/DTD/sodipodi-0.dtd"
   xmlns="http://www.w3.org/2000/svg"
   xmlns:svg="http://www.w3.org/2000/svg"><defs
     id="defs6" /><sodipodi:namedview
     id="namedview4"
     pagecolor="#505050"
     bordercolor="#ffffff"
     borderopacity="1"
     inkscape:showpageshadow="0"
     inkscape:pageopacity="0"
     inkscape:pagecheckerboard="1"
     inkscape:deskcolor="#505050"
     showgrid="false"
     inkscape:zoom="1.4142136"
     inkscape:cx="514.77373"
     inkscape:cy="182.7871"
     inkscape:window-width="2512"
     inkscape:window-height="1011"
     inkscape:window-x="0"
     inkscape:window-y="0"
     inkscape:window-maximized="1"
     inkscape:current-layer="g8" /><g
     inkscape:groupmode="layer"
     inkscape:label="Image"
     id="g8"><g
       id="g2068"
       transform="matrix(0.28755945,0,0,0.28755945,10.678687,7.7885901)"><path
         style="fill:#0f1f52;fill-opacity:1;stroke-width:0.267494"
         d="m 112.41647,1128.438 -20.407916,-0.1322 v -94.7377 -94.73776 l -2.421277,-0.23727 c -1.331703,-0.13051 -7.921038,-0.46083 -14.642966,-0.73406 -6.721928,-0.27323 -13.827728,-0.78629 -15.790664,-1.14013 -10.755278,-1.93879 -21.460403,-7.83976 -29.412649,-16.21312 -9.991957,-10.52108 -14.741976,-23.07315 -14.749417,-38.9758 l -0.0027,-5.81069 4.496659,-0.29777 c 2.473162,-0.16377 55.499145,-0.29884 117.83552,-0.30016 l 113.33886,-0.002 v 31.36131 31.36131 l -10.26161,4.1e-4 c -5.64388,2.2e-4 -23.18085,0.13803 -38.97104,0.30624 l -28.70944,0.30584 -0.0499,65.52945 c -0.0568,74.4987 -0.4625,123.6152 -1.0258,124.1785 -0.39696,0.3971 -23.73528,0.5058 -59.22561,0.276 z"
         id="path990" /><path
         style="fill:#0f1f52;fill-opacity:1;stroke-width:0.378293"
         d="M 278.1758,1002.1503 V 875.61784 h 111.85732 111.85733 v 30.87395 30.87396 l -39.62293,0.43246 c -21.79262,0.23785 -54.22472,0.43273 -72.07134,0.43305 l -32.44841,5.9e-4 v 17.9363 17.93631 h 72.27907 72.27908 l 5.49927,5.97863 c 11.49377,12.49568 19.53567,21.69951 19.36905,22.16761 -0.20165,0.5664 -10.5786,11.9128 -18.84717,20.6079 l -5.7372,6.0331 h -72.42105 -72.42105 v 18.5886 18.5885 h 71.96616 71.96617 l 0.43128,19.6731 c 0.23722,10.8202 0.4313,24.7133 0.4313,30.8736 v 11.2004 l -51.36306,0.433 c -28.24968,0.2381 -78.73223,0.4332 -112.18344,0.4334 l -60.82038,5e-4 z"
         id="path992" /><path
         style="fill:#0f1f52;fill-opacity:1;stroke-width:0.378293"
         d="m 572.0051,1127.3803 c -10.24628,-0.473 -13.50194,-1.4066 -21.41478,-6.1406 -10.10135,-6.0434 -16.89659,-13.3184 -21.38336,-22.8929 -4.1328,-8.8192 -4.56373,-11.785 -4.92677,-33.9086 l -0.32109,-19.5669 19.78351,-21.119 c 10.88093,-11.6154 19.871,-21.3434 19.97793,-21.6176 0.10694,-0.2743 -8.78968,-10.14197 -19.77026,-21.92817 l -19.9647,-21.42946 0.29621,-19.89299 c 0.17935,-12.04438 0.60836,-21.30832 1.08739,-23.48026 1.81004,-8.20691 8.69767,-19.85568 15.47753,-26.17654 5.92851,-5.52716 14.11023,-10.22715 20.88127,-11.99524 7.20883,-1.88242 24.88297,-2.25479 107.29622,-2.2606 l 82.67007,-0.006 v 32.96778 32.96779 l -73.70191,-0.46137 -73.70191,-0.46138 v 61.41454 61.4146 h 73.70191 73.70191 v 32.6115 32.6115 l -85.27898,-0.1144 c -46.90344,-0.063 -89.38803,-0.3041 -94.41019,-0.5359 z"
         id="path994" /><path
         style="fill:#0f1f52;fill-opacity:1;stroke-width:0.267494"
         d="m 717.62233,447.96661 c -3.59313,-1.8268 -5.3467,-3.08039 -7.94845,-5.68213 -11.07117,-11.07117 -11.02405,-29.4573 0.10401,-40.58536 4.11562,-4.11562 7.77095,-6.09391 12.30066,-6.6572 4.76485,-0.59253 20.77352,-0.9133 71.86995,-1.44008 51.03784,-0.52618 58.25274,-0.79735 60.65093,-2.27952 2.08192,-1.28669 4.5503,-4.31686 5.85128,-7.18299 1.58208,-3.48539 1.49492,-9.23004 -0.19214,-12.66519 -1.86713,-3.80178 -4.84239,-6.68624 -7.81873,-7.58013 -4.11041,-1.23449 -17.00129,-1.59705 -57.79954,-1.62564 -43.99201,-0.0308 -61.24914,-0.45466 -65.72378,-1.61416 -6.30105,-1.63277 -11.87103,-4.85633 -16.49867,-9.54843 -3.51977,-3.56879 -5.61665,-6.64282 -8.49273,-12.45035 l -2.21577,-4.47421 v -38.7721 -38.77211 l 2.12851,-4.25685 c 2.75135,-5.50247 5.31165,-9.06131 9.23466,-12.83624 3.95599,-3.80666 7.59721,-6.15415 12.58312,-8.11232 l 3.88427,-1.52551 79.59216,0.0126 c 43.77569,0.007 82.69049,0.20224 86.47733,0.43408 6.43352,0.39388 7.08398,0.52071 9.91571,1.93345 4.40906,2.19966 9.55657,7.44182 11.70182,11.91698 2.24789,4.68929 3.09024,8.21172 3.08374,12.89507 -0.0147,10.6039 -5.6417,19.06326 -16.4919,24.7933 l -3.56464,1.88251 -60.18605,0.52459 c -33.10233,0.28854 -62.63044,0.71097 -65.61802,0.93875 -6.15569,0.46932 -7.53986,1.05768 -10.23976,4.35254 -2.74458,3.34941 -3.66467,5.95979 -3.67204,10.41792 -0.005,3.25391 0.1957,4.35485 1.18316,6.47779 1.37927,2.96531 3.5058,5.53566 5.70366,6.894 2.50957,1.551 8.44196,1.78965 56.73175,2.28217 66.53966,0.67866 69.13464,0.79243 74.41291,3.26242 8.62697,4.03705 17.02137,13.06666 19.88487,21.38957 1.40274,4.07715 1.84682,10.59326 2.15631,31.64059 0.2827,19.22505 -0.31883,43.7058 -1.22765,49.96237 -1.63575,11.26102 -12.56145,23.02669 -24.89486,26.80879 -4.32195,1.32535 -20.30723,1.58312 -98.23393,1.58407 l -74.02192,9.3e-4 -4.61023,-2.34392 z"
         id="path996" /><path
         style="fill:#0268b2;fill-opacity:1;stroke-width:0.267494"
         d="m 487.25332,188.38447 c -25.09895,-0.27713 -25.14227,-0.27927 -30.06442,-1.48474 -17.7063,-4.3364 -31.81666,-12.34489 -44.19919,-25.08573 -7.29091,-7.50188 -11.89375,-13.85114 -16.01507,-22.09157 -17.03147,-34.05379 -10.27841,-75.953838 16.53977,-102.622696 10.92924,-10.868388 25.22131,-18.962576 42.3776,-24.000177 l 6.22614,-1.828183 311.99893,-0.255303 c 197.75595,-0.16182 324.32672,-0.08697 345.66622,0.204416 33.6088,0.45892 33.6769,0.461786 39.2016,1.648669 15.4367,3.316279 27.5945,9.322621 39.3905,19.460307 13.6253,11.709747 23.6466,27.17977 28.3524,43.767838 1.7459,6.154413 2.2397,11.254089 2.2551,23.290386 0.014,11.325063 -0.5303,17.676703 -1.9966,23.274923 -1.8197,6.94721 -6.1274,16.71432 -10.5937,24.01965 -8.2882,13.55633 -22.5511,26.52281 -36.8225,33.47542 -6.0664,2.95538 -17.6051,6.78549 -22.1768,7.3613 -7.6478,0.96322 -106.371,1.28856 -369.44034,1.21748 -151.56046,-0.041 -286.8753,-0.19936 -300.69964,-0.35199 z m 553.43488,-26.2637 c 23.2627,-0.45552 24.2551,-0.57631 31.9045,-3.88346 8.0638,-3.48633 14.4013,-7.82492 20.9329,-14.33046 8.1656,-8.13294 13.2926,-17.29389 16.317,-29.15525 4.916,-19.280171 -0.4318,-40.755849 -14.0813,-56.547713 -8.2999,-9.602599 -23.591,-18.486252 -34.7354,-20.180196 -1.6735,-0.254379 -19.4383,-0.65602 -39.4773,-0.892535 -47.04472,-0.555259 -439.16073,-0.566088 -451.97184,-0.01248 -13.19953,0.570391 -19.81311,2.128867 -29.40298,6.928748 -30.133,15.082037 -42.88589,52.085908 -28.43641,82.511226 3.32684,7.0051 6.90642,12.08646 12.39708,17.59814 7.37323,7.40146 16.23837,12.87139 25.6109,15.80234 5.44949,1.70415 6.70072,1.80693 26.05756,2.14056 27.20812,0.46894 441.05529,0.48771 464.88529,0.0211 z"
         id="path2049" /><path
         style="fill:#0268b2;fill-opacity:1;stroke-width:0.378293"
         d="m 806.47916,1131.3353 c -8.13428,-0.439 -12.06827,-2.0859 -18.1122,-7.5825 -7.17437,-6.5247 -9.93129,-13.4162 -9.93129,-24.8253 0,-10.9476 2.27812,-16.0807 10.8795,-24.5139 4.2965,-4.2126 6.7441,-5.4229 13.06784,-6.462 2.94029,-0.4831 28.82144,-0.8752 77.1482,-1.1688 71.69121,-0.4355 72.76523,-0.4609 75.6586,-1.7921 4.03695,-1.8573 8.75083,-6.2033 10.38104,-9.5709 1.91681,-3.9595 1.9205,-12.5641 0.007,-16.5167 -1.60847,-3.3227 -7.60397,-9.0039 -10.18634,-9.6525 -1.00782,-0.253 -32.65022,-0.7019 -70.31646,-0.9973 -37.66624,-0.2955 -69.51134,-0.7396 -70.76688,-0.987 -16.19876,-3.1921 -28.4599,-13.3207 -34.0867,-28.15823 -1.43249,-3.77738 -1.44489,-4.15267 -1.6396,-49.62891 l -0.19619,-45.82275 3.72594,-7.33394 c 4.97891,-9.80024 10.3467,-15.28864 19.23049,-19.66261 3.36471,-1.65662 7.73192,-3.36109 9.70491,-3.7877 2.69922,-0.58363 28.18761,-0.74299 102.96031,-0.64375 l 99.37307,0.1319 4.5765,2.40489 c 5.3431,2.80773 11.6223,8.77596 14.682,13.95495 2.7037,4.57645 3.6413,9.68552 3.2853,17.90084 -0.2559,5.90219 -0.5022,6.95849 -2.5101,10.76178 -2.9012,5.49558 -10.1693,12.7369 -15.286,15.22975 -3.2034,1.56067 -5.1441,1.9789 -11.3872,2.45396 -4.1391,0.31496 -38.63706,0.8273 -76.66203,1.13853 -48.04062,0.39321 -69.85523,0.79056 -71.49242,1.30223 -5.97484,1.86733 -10.22783,7.15674 -11.53438,14.3452 -1.28085,7.0471 2.33845,14.29249 9.97712,19.97299 l 1.95669,1.45509 70.76688,0.70806 c 43.42088,0.43445 72.02704,0.96945 74.02804,1.38447 1.7936,0.37203 5.7523,1.90182 8.797,3.39956 9.2545,4.55238 18.2216,14.66662 21.8096,24.59959 1.2773,3.5361 1.3337,5.3624 1.5482,50.1073 l 0.2226,46.4375 -3.2946,6.3931 c -5.8548,11.3611 -11.4454,17.0926 -21.3098,21.8465 -4.203,2.0256 -6.4504,2.6646 -11.0879,3.1524 -6.16897,0.6489 -182.00867,0.6728 -193.98685,0.026 z"
         id="path2051" /><path
         style="fill:#0268b2;fill-opacity:1;stroke-width:0.378293"
         d="m 1174.9911,1125.4003 c -17.0625,-2.0774 -29.6817,-6.112 -58.0484,-18.5592 -15.6544,-6.8691 -21.8231,-10.1555 -26.62,-14.1822 -5.7978,-4.8668 -12.0981,-12.892 -15.4985,-19.7417 -5.3736,-10.8244 -5.0462,-4.9786 -5.3207,-95.00679 l -0.2441,-80.00552 2.7116,-5.39305 c 8.8031,-17.50842 29.3064,-23.74726 45.963,-13.98583 4.1096,2.40835 9.5351,8.67737 12.5012,14.44462 l 2.6482,5.14912 0.4351,49.89554 c 0.2392,27.44255 0.6834,52.35361 0.987,55.35791 0.5481,5.4237 0.5751,5.4855 3.8131,8.7235 l 3.261,3.261 7.4115,0.5332 c 4.0763,0.2933 25.6437,0.5501 47.9275,0.5708 l 40.5161,0.038 3.2848,-2.6154 c 1.8809,-1.4976 3.6015,-3.5186 4.0257,-4.7287 1.5101,-4.3072 1.9377,-15.64562 2.3673,-62.77059 l 0.44,-48.26497 2.6756,-5.20087 c 12.8493,-24.97659 45.5151,-25.25052 58.6661,-0.49196 l 2.479,4.66695 -0.2393,80.41103 c -0.2664,89.49541 -0.01,84.41271 -4.7598,94.41521 -5.4363,11.4486 -16.9259,23.0524 -28.1147,28.3945 -7.7892,3.7189 -34.4463,15.2161 -40.3282,17.3936 -7.0261,2.601 -15.9855,4.8818 -25.4369,6.4753 -8.9636,1.5113 -29.588,2.1804 -37.5032,1.2168 z m 26.8202,-43.8414 c 5.9623,-8.6989 14.6016,-21.3928 19.1984,-28.2086 l 8.3579,-12.3923 -38.7058,-0.1683 c -21.2881,-0.093 -38.8396,-0.034 -39.0033,0.1293 -0.1637,0.1637 6.9828,10.9523 15.8811,23.9746 17.9453,26.2624 22.3484,32.4824 22.9943,32.4819 0.2402,-2e-4 5.3151,-7.1177 11.2774,-15.8166 z"
         id="path2053" /><path
         style="fill:#0268b2;fill-opacity:1;stroke-width:0.378293"
         d="M 1350.4408,999.86752 V 871.70446 l 87.5617,0.0227 c 86.6652,0.0225 116.1538,0.49456 123.1083,1.97068 6.067,1.28774 14.45,6.06874 20.3149,11.58602 5.5326,5.20473 8.8858,9.65297 12.134,16.09699 4.3489,8.6276 4.289,8.08279 4.5718,41.54134 l 0.2574,30.45344 -3.0056,5.8194 c -5.0611,9.79916 -11.126,15.48092 -19.9261,18.66736 -2.0549,0.74407 -3.7161,1.64636 -3.6916,2.00509 0.025,0.35872 1.9838,1.40672 4.3537,2.32882 8.798,3.423 14.5786,8.9928 19.2757,18.5726 l 2.8929,5.9002 v 50.7226 50.7226 l -29.5134,-0.2593 c -21.8661,-0.1921 -30.2489,-0.4814 -32.3522,-1.1165 -3.5778,-1.0804 -9.9452,-6.8676 -11.8223,-10.7452 -1.9671,-4.0634 -2.5987,-13.5925 -2.6177,-39.4888 -0.017,-23.498 -0.6185,-31.8391 -2.6219,-36.3682 -0.6997,-1.5818 -3.2729,-4.8767 -5.7181,-7.322 -7.0836,-7.0835 -5.0254,-6.7773 -47.2678,-7.0312 l -35.7095,-0.2146 v 51.231 51.2311 h -40.1121 -40.1121 z m 143.2551,-34.15314 18.3532,-0.46405 3.1197,-1.93217 c 4.7173,-2.92164 6.3092,-6.36557 6.0408,-13.06876 -0.1713,-4.27724 -0.5061,-5.69723 -1.7826,-7.55945 -2.4488,-3.5723 -5.2797,-5.1546 -10.2903,-5.75154 -2.4441,-0.29117 -21.0531,-0.73326 -41.3535,-0.98241 l -36.9099,-0.453 -0.4279,9.35423 c -0.2353,5.14483 -0.429,11.90898 -0.4303,15.03144 v 5.67721 l 4.4026,0.22817 c 8.2739,0.42881 40.9041,0.38496 59.2806,-0.0797 z"
         id="path2055" /><path
         style="fill:#0268b2;fill-opacity:1;stroke-width:0.378293"
         d="m 785.25004,755.56619 c -29.04981,-1.85673 -62.59854,-9.61506 -91.04952,-21.0557 -15.17696,-6.10293 -68.51671,-29.2546 -80.10314,-34.7681 -15.71836,-7.47971 -26.71633,-15.24966 -37.88871,-26.76798 -13.85486,-14.28387 -23.86667,-30.51134 -30.25676,-49.0412 -4.1971,-12.17067 -5.00315,-16.39479 -5.61512,-29.4262 -0.31165,-6.63644 -0.57798,-85.97917 -0.59184,-176.31718 l -0.0252,-164.25093 1.98419,-5.6548 c 2.96959,-8.46311 7.2634,-16.88539 11.56874,-22.692 9.11096,-12.28796 23.78768,-22.05533 39.81545,-26.49723 4.23934,-1.17488 6.85433,-1.39367 17.07238,-1.42839 11.19662,-0.038 12.5211,0.0862 18.37753,1.72439 15.88192,4.4425 29.2094,13.65179 39.40043,27.2257 4.87819,6.49749 7.78321,12.15941 10.89299,21.23056 l 2.23597,6.5223 0.4475,116.42293 0.4475,116.42293 2.54161,5.21783 c 5.87456,12.06025 15.10744,19.28608 26.28535,20.5714 3.12682,0.35955 45.52133,0.61821 101.79702,0.6211 l 96.43864,0.005 3.69004,-1.96676 c 8.33121,-4.4405 14.56187,-10.75019 18.66894,-18.90576 l 2.16604,-4.30118 0.42658,-94.54181 c 0.45839,-101.58982 1.06367,-135.04124 2.59541,-143.43746 1.05781,-5.79837 6.13837,-16.53625 11.16127,-23.58958 10.97504,-15.41154 27.98239,-25.95053 46.72288,-28.95288 7.25179,-1.16178 21.59389,-0.53857 28.35499,1.23211 20.0843,5.25999 37.0181,18.9141 46.6365,37.60408 1.6581,3.22188 3.4766,7.42772 4.0413,9.34632 2.633,8.94688 2.6952,13.56861 2.5505,189.57152 l -0.1388,168.92739 -2.6707,9.13121 c -10.0322,34.30086 -27.7104,59.089 -54.7739,76.80291 -9.4613,6.19271 -14.9404,8.78428 -60.65737,28.69077 -47.17264,20.54032 -65.94417,26.97873 -93.59491,32.10193 -22.27564,4.12729 -53.94489,5.821 -78.95378,4.22254 z m 43.49412,-91.75982 c 60.65778,-88.62422 66.29708,-97.05339 65.47892,-97.87264 -0.70142,-0.70237 -56.38677,-0.84196 -117.86803,-0.29547 l -55.88953,0.49677 43.49717,63.73141 c 23.92345,35.05228 43.69091,63.74222 43.92769,63.75542 0.23678,0.0132 9.62097,-13.40377 20.85378,-29.81549 z"
         id="path2057" /></g></g></svg>
