<?xml version="1.0" encoding="UTF-8" standalone="no"?>
<!-- Created with Inkscape (http://www.inkscape.org/) -->

<svg
   version="1.1"
   id="svg2"
   width="1961"
   height="468"
   viewBox="0 0 1961 468"
   sodipodi:docname="logo-certificado-asercap.svg"
   xml:space="preserve"
   inkscape:version="1.2.2 (b0a8486541, 2022-12-01)"
   xmlns:inkscape="http://www.inkscape.org/namespaces/inkscape"
   xmlns:sodipodi="http://sodipodi.sourceforge.net/DTD/sodipodi-0.dtd"
   xmlns="http://www.w3.org/2000/svg"
   xmlns:svg="http://www.w3.org/2000/svg"><defs
     id="defs6" /><sodipodi:namedview
     id="namedview4"
     pagecolor="#505050"
     bordercolor="#ffffff"
     borderopacity="1"
     inkscape:showpageshadow="0"
     inkscape:pageopacity="0"
     inkscape:pagecheckerboard="1"
     inkscape:deskcolor="#505050"
     showgrid="false"
     inkscape:zoom="0.50734281"
     inkscape:cx="1563.0457"
     inkscape:cy="529.22796"
     inkscape:window-width="2512"
     inkscape:window-height="1011"
     inkscape:window-x="0"
     inkscape:window-y="0"
     inkscape:window-maximized="1"
     inkscape:current-layer="g8" /><g
     inkscape:groupmode="layer"
     inkscape:label="Image"
     id="g8"><g
       id="g1969"
       style="fill:#000000"><path
         style="fill:#000000;stroke:none;stroke-width:0.188846"
         d="m 510.99858,432.65198 c -2.52566,-0.23531 -3.55721,-0.64653 -6.26949,-2.49887 -4.19831,-2.86731 -5.84971,-5.90869 -6.69498,-12.33016 -0.60735,-4.61411 -0.50623,-38.38875 0.13739,-45.88956 0.38018,-4.43062 1.04907,-6.44163 2.99975,-9.01837 3.21468,-4.24651 8.89399,-6.23705 16.0142,-5.61283 5.46116,0.47874 8.7118,2.00119 11.44957,5.36242 2.40113,2.94795 3.64251,7.09122 4.16624,13.9055 0.15525,2.0199 0.33216,4.24613 0.39313,4.94722 l 0.11088,1.27465 h -6.14893 -6.14892 l -0.005,-2.97431 c -0.0139,-9.64511 -0.85868,-11.24115 -5.94436,-11.23057 -2.60617,0.008 -3.4639,0.40279 -4.27231,1.9792 -0.86843,1.69353 -1.18813,8.57503 -1.19526,25.72817 -0.007,16.60418 0.22595,20.33347 1.44753,23.18223 0.81193,1.89343 2.54144,2.64282 5.22426,2.26356 1.7908,-0.25316 2.74156,-0.88903 3.47581,-2.3248 0.83345,-1.62968 1.06648,-3.46401 1.20389,-9.47687 l 0.12409,-5.42933 h 6.12078 6.12079 l -0.1097,1.46358 c -0.0603,0.80496 -0.19649,3.12071 -0.30257,5.14605 -0.23028,4.39651 -0.45714,6.47198 -0.97018,8.87572 -1.6604,7.77959 -5.76284,11.54483 -13.56233,12.44751 -2.29813,0.26604 -5.71691,0.36338 -7.36499,0.20986 z"
         id="path635" /><path
         style="fill:#000000;stroke:none;stroke-width:0.188846"
         d="m 569.72964,431.78724 c -0.15579,-0.0337 -0.75139,-0.11221 -1.32354,-0.17483 -0.57216,-0.0629 -1.14926,-0.18128 -1.28245,-0.2636 -0.1927,-0.11911 -0.10458,-1.0529 0.4314,-4.57165 0.72192,-4.73935 5.60267,-35.56428 8.93802,-56.44901 l 2.03574,-12.74704 7.54492,0.008 c 7.5434,0.008 9.47928,0.14302 10.03256,0.70193 0.12781,0.12916 0.4122,1.46696 0.63199,2.97301 0.58059,3.9784 2.94864,19.09393 6.41997,40.9796 4.12536,26.00893 4.50709,28.56835 4.30047,28.83355 -0.36344,0.46648 -2.09736,0.66024 -6.78584,0.7582 -4.61221,0.0963 -4.84805,0.0844 -4.94818,-0.25141 -0.0579,-0.19384 -0.4518,-2.38819 -0.87548,-4.87617 -0.86088,-5.05537 -1.16224,-6.26602 -1.74391,-7.00544 -0.76466,-0.97212 -1.16939,-1.02915 -7.3027,-1.02915 h -5.65644 l -0.10615,0.51929 c -0.0584,0.28566 -0.44256,2.56241 -0.85371,5.05951 -1.02064,6.19896 -1.33881,7.03572 -2.83304,7.45077 -0.60499,0.16809 -5.91989,0.23622 -6.62363,0.0849 z m 20.20372,-23.51658 c 1.09084,-0.25132 1.51355,-0.64499 1.51355,-1.40947 0,-2.13755 -3.49827,-25.46289 -4.5374,-30.25391 -0.41744,-1.92462 -0.13363,-3.4332 -3.40169,18.08203 -1.03337,6.80317 -1.92927,12.6881 -1.9909,13.07755 l -0.11203,0.70822 3.84072,-0.008 c 2.1124,0 4.22189,-0.0924 4.68775,-0.19975 z"
         id="path637" /><path
         style="fill:#000000;stroke:none;stroke-width:0.188846"
         d="m 643.56837,394.59488 v -37.29706 l 1.55797,3.1e-4 c 2.07705,3.8e-4 10.72846,0.33112 14.96604,0.5721 8.78693,0.49974 11.51503,1.74005 15.24834,6.93278 2.03229,2.82676 2.21812,4.22604 2.21341,16.66711 -0.004,9.16951 -0.129,11.45491 -0.7372,13.42162 -0.83014,2.6845 -3.60454,5.8742 -6.34735,7.29762 -3.04485,1.58017 -6.04306,2.13111 -11.59726,2.13111 h -3.21782 v 13.7857 13.78577 h -6.04306 -6.04307 z m 19.92882,-1.99399 c 1.61151,-0.82956 1.94857,-1.84813 2.37121,-7.16502 0.30198,-3.79912 0.1269,-11.45239 -0.29296,-12.8056 -0.78229,-2.52125 -3.36597,-3.89026 -7.79642,-4.13116 l -2.12452,-0.11551 v 12.41547 12.41546 l 3.45203,-0.0652 c 3.26683,-0.0621 3.5024,-0.0911 4.39066,-0.54841 z"
         id="path639" /><path
         style="fill:#000000;stroke:none;stroke-width:0.188846"
         d="m 712.85056,431.69978 c -1.09988,-0.18579 -1.61711,-0.45981 -1.7685,-0.93678 -0.19236,-0.60613 1.13499,-9.41571 6.70146,-44.47734 1.96229,-12.35997 3.75765,-23.74736 3.98968,-25.3053 0.28644,-1.92332 0.51725,-2.91537 0.71894,-3.09021 0.41382,-0.35871 16.96753,-0.15881 17.30796,0.20902 0.21079,0.22772 1.27261,6.69265 8.1032,49.33726 4.01629,25.07436 3.81473,23.69202 3.48438,23.89621 -0.1476,0.0912 -0.73648,0.23309 -1.30863,0.31533 -1.32112,0.18993 -8.23934,0.19606 -8.91004,0.008 -0.27763,-0.0779 -0.76606,-0.36148 -1.08541,-0.6302 -0.84164,-0.70815 -1.23868,-2.24478 -1.98924,-7.69872 -0.35525,-2.58142 -0.67604,-4.72365 -0.71286,-4.76051 -0.079,-0.079 -13.6159,0.50771 -13.71729,0.59455 -0.0653,0.056 -1.70746,11.99038 -1.71929,12.4948 -0.005,0.18211 -0.94372,0.23101 -4.11292,0.21385 -2.25907,-0.0123 -4.50072,-0.0887 -4.98144,-0.16993 z m 21.54773,-23.47143 c 0.81252,-0.27915 1.16659,-0.93188 1.0443,-1.925 -0.97712,-7.93587 -3.66888,-24.97281 -4.25922,-26.95775 -0.86956,-2.92388 -1.3584,-1.36441 -2.9154,9.30066 -0.47765,3.2717 -1.26048,8.45554 -1.73963,11.5196 -0.47914,3.06399 -0.87911,6.07724 -0.88881,6.69602 -0.016,1.01849 0.0271,1.14795 0.45447,1.3664 0.63093,0.32238 7.36601,0.32245 8.30429,7e-5 z"
         id="path641" /><path
         style="fill:#000000;stroke:none;stroke-width:0.267068"
         d="m 800.64893,432.72602 c -4.14118,-0.5734 -7.0807,-1.95452 -9.69489,-4.55502 -3.02934,-3.01355 -4.31663,-6.32903 -4.7699,-12.28524 -0.71568,-9.40421 -0.55017,-37.26854 0.26358,-44.377 0.64543,-5.63805 3.65167,-10.0026 8.59819,-12.48322 3.04165,-1.52537 5.41993,-1.97475 9.52418,-1.79977 5.30833,0.22634 8.87041,1.52008 11.55452,4.19661 3.02224,3.01364 4.42324,7.36891 4.89728,15.22415 0.0842,1.39537 0.22243,3.34835 0.30712,4.33979 l 0.15399,1.80275 h -6.16971 -6.16968 l -0.005,-4.33987 c -0.0105,-8.16719 -0.90507,-9.86118 -5.22236,-9.889 -5.18062,-0.033 -5.52255,1.20367 -6.00125,21.71191 -0.48472,20.76584 0.22083,28.72854 2.73288,30.84225 0.94706,0.7969 2.92674,0.90613 4.79053,0.2642 3.08872,-1.06371 3.14508,-1.22521 3.51903,-10.07993 l 0.29041,-6.87706 h 6.10508 6.10513 l -0.16364,3.00451 c -0.74476,13.6728 -1.17173,15.98595 -3.52073,19.07316 -0.89227,1.17271 -4.24729,3.89225 -5.74317,4.65543 -2.56792,1.31006 -7.92579,2.04978 -11.38102,1.57135 z"
         id="path643" /><path
         style="fill:#000000;stroke:none;stroke-width:0.267068"
         d="m 858.28422,394.6736 v -37.25606 h 6.00903 6.00902 v 37.25606 37.25605 h -6.00902 -6.00903 z"
         id="path645" /><path
         style="fill:#000000;stroke:none;stroke-width:0.267068"
         d="m 917.50765,400.2153 -0.0675,-31.71443 -6.22578,-0.0713 c -5.75632,-0.0667 -6.21598,-0.10662 -6.09595,-0.53416 0.0713,-0.25431 0.20465,-2.26509 0.29617,-4.4684 0.0915,-2.20332 0.22696,-4.32117 0.301,-4.70632 l 0.13451,-0.70025 11.67053,-0.17001 c 6.41878,-0.0935 14.52481,-0.24435 18.01343,-0.33518 l 6.34282,-0.16525 v 5.5089 5.50882 h -6.14254 -6.14255 v 31.78118 31.78111 h -6.00795 -6.00795 z"
         id="path647" /><path
         style="fill:#000000;stroke:none;stroke-width:0.267068"
         d="m 976.7927,431.68453 c -2.39509,-0.34039 -2.35569,0.0751 -0.90973,-9.56961 0.69918,-4.66371 2.47434,-16.05087 3.94475,-25.30477 1.47041,-9.2539 3.44539,-21.7441 4.38884,-27.75596 1.06242,-6.76998 1.84453,-11.02185 2.0547,-11.17024 0.32207,-0.22742 16.98644,-0.0659 17.21924,0.16693 0.1051,0.10509 6.2662,38.07695 9.9505,61.32657 1.1415,7.20304 1.7464,11.71421 1.5921,11.87218 -0.3751,0.38385 -6.5366,0.78901 -8.5982,0.56543 -2.1356,-0.2317 -3.1472,-0.92506 -3.609,-2.47349 -0.1668,-0.55953 -0.6113,-3.17329 -0.9877,-5.80836 -0.3765,-2.635 -0.7418,-4.84828 -0.8118,-4.91826 -0.1681,-0.16808 -13.48233,0.40762 -13.6656,0.59088 -0.0779,0.0779 -0.51905,2.94266 -0.98017,6.36597 l -0.83837,6.22433 -3.73895,0.0345 c -2.05645,0.0192 -4.3112,-0.0468 -5.01061,-0.14617 z m 21.50856,-23.50109 c 1.11178,-0.42271 1.10955,-0.47353 -0.49668,-11.37329 -1.3677,-9.2805 -2.46644,-15.82054 -2.92771,-17.42623 -0.95495,-3.32451 -1.41231,-1.58775 -3.70982,14.08784 -0.65664,4.48013 -1.40464,9.44453 -1.66226,11.03213 -0.54864,3.38131 -0.44402,3.70783 1.27243,3.96889 1.55717,0.23677 6.65585,0.0406 7.52404,-0.28934 z"
         id="path649" /><path
         style="fill:#000000;stroke:none;stroke-width:0.267068"
         d="m 1062.1908,432.30078 c -2.8834,-0.51561 -4.6561,-1.43776 -6.946,-3.61287 -2.3285,-2.21182 -3.4546,-4.19776 -3.9271,-6.9258 -0.4977,-2.87291 -0.4968,-50.50215 0,-53.39476 0.4735,-2.75203 1.181,-4.07091 3.3795,-6.29967 3.3131,-3.35878 6.8549,-4.65014 12.7545,-4.65014 9.8085,0 14.7965,3.63318 16.506,12.02257 0.4233,2.07762 1.046,9.46952 1.0627,12.61452 v 0.73444 h -5.5771 -5.5771 l -0.1275,-4.33987 c -0.093,-3.14914 -0.2506,-4.6696 -0.5759,-5.5417 -1.1585,-3.10561 -2.8114,-4.35159 -5.7726,-4.35159 -3.1183,0 -3.9099,0.8701 -4.5666,5.01927 -0.4079,2.57697 -0.6329,34.45987 -0.2848,40.34855 0.3374,5.70704 0.5459,6.29048 2.581,7.22221 2.4291,1.112 5.0225,0.8632 6.3164,-0.60613 1.6931,-1.92279 2.3673,-5.18882 2.3673,-11.46803 v -4.65021 h 5.4749 5.4749 v 5.80874 c 0,6.34697 -0.369,9.56303 -1.4492,12.66887 -1.7717,5.09454 -5.2865,8.24644 -10.487,9.40382 -2.3893,0.53186 -7.6501,0.53071 -10.63,0 z"
         id="path651" /><path
         style="fill:#000000;stroke:none;stroke-width:0.267068"
         d="m 1121.8807,394.6736 v -37.25606 h 6.009 6.009 v 37.25606 37.25605 h -6.009 -6.009 z"
         id="path653" /><path
         style="fill:#000000;stroke:none;stroke-width:0.267068"
         d="m 1183.9106,432.34623 c -3.3825,-0.77498 -6.5362,-3.0249 -8.72,-6.22103 -1.7773,-2.60119 -2.5112,-4.93151 -2.854,-9.06175 -0.4058,-4.88996 -0.1753,-45.09496 0.27,-47.0937 0.4381,-1.9664 2.0843,-5.40527 3.4486,-7.20381 1.9663,-2.59222 4.236,-4.04508 7.7853,-4.98355 2.609,-0.68983 8.7833,-0.62123 11.5678,0.12846 4.4561,1.19976 7.6307,3.70752 9.7219,7.67948 1.9007,3.61034 1.9913,4.27211 2.1357,15.59634 0.1462,11.4576 -0.3227,36.54139 -0.7389,39.52613 -0.395,2.83252 -1.2832,4.47638 -3.828,7.085 -3.4801,3.56726 -6.1987,4.55127 -13.25,4.79577 -2.8192,0.0978 -4.3257,0.0307 -5.5384,-0.24734 z m 8.3635,-11.0716 c 1.409,-0.63993 2.1318,-1.58446 2.5329,-3.31018 0.7135,-3.06913 0.7175,-39.19118 0.01,-45.02529 -0.315,-2.57966 -0.6625,-3.23982 -2.0523,-3.8993 -1.2861,-0.61027 -4.6379,-0.64399 -6.0275,-0.0605 -1.3474,0.56566 -1.779,1.34892 -2.1022,3.81575 -0.4646,3.54534 -0.7644,23.04948 -0.5149,33.49602 0.2877,12.0484 0.6284,13.99978 2.6346,15.09017 1.0324,0.56113 4.1883,0.5002 5.5244,-0.10662 z"
         id="path655" /><path
         style="fill:#000000;stroke:none;stroke-width:0.267068"
         d="m 1185.579,355.05948 c -0.7261,-0.12202 -1.0948,-0.33235 -1.1572,-0.66024 -0.1063,-0.55808 1.9524,-4.28101 4.3858,-7.9315 2.476,-3.71427 2.5204,-3.75919 4.0004,-4.04125 1.3045,-0.24872 9.0144,-0.0368 10.2025,0.2803 0.5436,0.14509 0.029,0.75352 -4.8072,5.68235 -3.4538,3.52004 -5.8255,5.72113 -6.5463,6.07532 -1.2313,0.60514 -4.2558,0.90123 -6.078,0.59502 z"
         id="path657" /><path
         style="fill:#000000;stroke:none;stroke-width:0.267068"
         d="m 1244.5654,417.30765 c 0.091,-8.0421 0.2406,-24.68898 0.3328,-36.99307 l 0.1674,-22.37108 7.4878,0.0705 7.4878,0.0705 5.0979,19.00724 c 2.8039,10.45398 5.1726,19.08144 5.2638,19.17219 0.091,0.0908 0.2423,-5.81855 0.3357,-13.13174 0.093,-7.31318 0.2437,-16.09087 0.3341,-19.50598 l 0.1645,-6.20939 h 5.4422 5.4423 v 37.29047 37.29047 l -2.604,-0.1638 c -1.4321,-0.0901 -4.2464,-0.24136 -6.2541,-0.33633 -3.422,-0.1618 -3.6594,-0.20794 -3.7978,-0.73865 -2.2791,-8.73615 -13.1254,-48.70177 -13.2596,-48.85775 -0.1037,-0.12064 -0.2649,7.81132 -0.3581,17.62651 -0.093,9.81527 -0.2435,21.12088 -0.3341,25.12357 l -0.1648,7.27762 h -5.4745 -5.4747 z"
         id="path659" /><path
         style="fill:#000000;stroke:none;stroke-width:0.267068"
         d="m 1367.0494,394.6736 v -37.25606 h 3.2716 c 5.3244,0.008 14.7285,0.49515 17.5103,0.91119 3.2121,0.48043 6.4826,1.49655 8.0615,2.50462 1.4654,0.93556 3.2507,2.84508 3.96,4.23562 1.4849,2.91062 2.3631,7.82389 2.6176,14.6453 0.4582,12.28156 -2.3159,19.65277 -8.5424,22.69814 -2.7795,1.35942 -5.0339,1.73859 -10.3378,1.73859 h -4.5227 v 13.88756 13.88756 h -6.0091 -6.009 z m 19.4274,-1.87388 c 1.6984,-0.50435 2.5912,-1.51441 2.9924,-3.38553 0.5468,-2.54946 0.8342,-9.30357 0.5569,-13.0856 -0.3984,-5.43278 -0.7019,-6.07954 -3.1932,-6.80378 -1.7502,-0.50879 -7.427,-1.40687 -7.6272,-1.20666 -0.076,0.0759 -0.1382,5.70664 -0.1382,12.51242 v 12.37415 h 3.0228 c 1.9239,0 3.5186,-0.14724 4.3865,-0.405 z"
         id="path661" /><path
         style="fill:#000000;stroke:none;stroke-width:0.267068"
         d="m 1436.4407,431.73627 c -0.5396,-0.0567 -1.1069,-0.25501 -1.2605,-0.44011 -0.1985,-0.23922 0.1765,-3.07319 1.2969,-9.79979 0.8669,-5.20484 3.147,-19.25803 5.0669,-31.2294 4.3878,-27.35946 4.9702,-30.78783 5.3505,-31.49851 0.516,-0.96415 1.5369,-1.15186 6.9521,-1.27802 5.9828,-0.13943 9.1638,0.15904 9.9373,0.93249 0.6529,0.65289 0.707,0.96377 6.349,36.49195 2.4981,15.73117 4.8372,30.28457 5.198,32.34087 0.3721,2.12061 0.5554,3.83944 0.4236,3.97119 -0.474,0.47407 -2.6737,0.67972 -7.3897,0.69106 l -4.8443,0.0115 -0.1454,-0.86796 c -0.08,-0.47744 -0.4147,-3.48195 -0.7436,-6.6767 l -0.598,-5.80875 h -7.1221 -7.1222 l -0.5928,5.67515 c -0.326,3.1214 -0.6611,6.12591 -0.7444,6.6767 l -0.1516,1.00156 -4.4393,-0.0452 c -2.4415,-0.0245 -4.8807,-0.0915 -5.4204,-0.14847 z m 23.2416,-23.68842 c 0.3615,-0.36155 0.2997,-1.08196 -0.5791,-6.75596 -0.5411,-3.49314 -1.4054,-9.18982 -1.9205,-12.65928 -1.1765,-7.92215 -1.7299,-10.91784 -2.0173,-10.91784 -0.3106,0 -0.6419,1.26905 -1.7082,6.54318 -1.6763,8.29197 -3.6124,20.32642 -3.6152,22.47194 0,0.80327 0.1267,1.15922 0.4659,1.2991 1.7819,0.73452 8.6448,0.74831 9.3744,0.0184 z"
         id="path663" /><path
         style="fill:#000000;stroke:none;stroke-width:0.267068"
         d="m 1511.2663,394.57081 v -37.35883 l 1.6692,0.1024 c 0.918,0.0559 4.9741,0.22802 9.0136,0.38163 13.5947,0.51691 17.0436,1.23878 19.9636,4.17844 4.1223,4.15009 5.7446,12.85389 4.1682,22.36219 -0.755,4.55387 -2.062,7.47951 -4.4542,9.97079 l -1.6192,1.68617 1.9084,1.92715 c 3.884,3.92221 4.575,7.36331 5.1304,25.54927 0.1411,4.61963 0.2161,8.43968 0.1667,8.48904 -0.049,0.0491 -2.3588,-0.0337 -5.1321,-0.18549 -2.7734,-0.15146 -5.4229,-0.27593 -5.8877,-0.2767 h -0.8451 l -0.1513,-1.93627 c -0.083,-1.06487 -0.4004,-6.86365 -0.7049,-12.88601 l -0.5535,-10.9498 -0.8107,-0.83845 c -0.4458,-0.46119 -1.4308,-1.18015 -2.189,-1.59772 -1.2502,-0.68861 -1.6699,-0.76847 -4.5163,-0.85884 l -3.138,-0.0996 v 14.85048 14.85041 h -6.0091 -6.009 z m 18.8988,-3.90236 c 1.8062,-0.54527 3.1655,-1.74028 3.598,-3.16333 0.4825,-1.5876 0.4596,-12.52353 -0.031,-14.95664 -0.3142,-1.55748 -0.488,-1.9004 -1.1744,-2.31782 -1.0787,-0.65603 -3.505,-1.27396 -6.6691,-1.69844 l -2.6038,-0.34943 v 11.61649 11.61649 l 2.7373,-0.16142 c 1.5056,-0.0888 3.3702,-0.35243 4.1434,-0.5859 z"
         id="path665" /><path
         style="fill:#000000;stroke:none;stroke-width:0.267068"
         d="m 1583.8725,431.68476 c -1.881,-0.26359 -2.1943,-0.6443 -1.9886,-2.41662 0.2642,-2.27529 2.8264,-18.85257 5.9248,-38.33349 1.5419,-9.69455 3.3333,-21.04147 3.9809,-25.21532 0.7289,-4.69873 1.3086,-7.68132 1.5223,-7.83186 0.3271,-0.23048 16.9888,-0.0728 17.2246,0.16303 0.1295,0.12954 8.3627,51.03263 11.3879,70.40724 0.2409,1.54277 0.3001,2.63699 0.1512,2.79189 -0.3691,0.3837 -6.532,0.78909 -8.5944,0.56543 -2.1355,-0.2317 -3.1472,-0.92506 -3.6089,-2.47349 -0.1669,-0.55953 -0.6114,-3.17329 -0.9878,-5.80836 -0.3764,-2.635 -0.7429,-4.84943 -0.8143,-4.92086 -0.1683,-0.16824 -13.4935,0.42386 -13.6774,0.60781 -0.077,0.0767 -0.5128,2.96773 -0.969,6.42446 l -0.8296,6.28503 -3.7418,-0.036 c -2.0579,-0.0199 -4.2989,-0.11375 -4.9799,-0.20918 z m 20.0383,-23.24769 c 0.9393,-0.13575 1.8265,-0.36554 1.9716,-0.51063 0.4469,-0.44693 0.2504,-2.58954 -1.0099,-11.01258 -2.2659,-15.14328 -2.9906,-18.93205 -3.6211,-18.93205 -0.633,0 -1.0224,1.98716 -3.0615,15.62355 -0.8127,5.43478 -1.6173,10.80287 -1.7879,11.92906 -0.3698,2.44107 -0.1833,2.8145 1.482,2.96573 2.2162,0.20135 4.3526,0.17897 6.0268,-0.0629 z"
         id="path667" /><path
         style="fill:#000000;stroke:none;stroke-width:0.267068"
         d="m 1704.3567,394.6736 v -37.25606 h 8.4076 8.4076 l 0.1313,0.60092 c 0.072,0.33051 1.1636,7.09068 2.4253,15.02264 3.7309,23.45357 5.3858,32.98294 5.7282,32.98294 0.1109,0 0.2801,-0.45068 0.376,-1.00155 1.2596,-7.23531 6.6933,-42.22987 6.9978,-45.06775 0.1035,-0.96477 0.3391,-1.73531 0.5919,-1.93628 0.4765,-0.37879 5.647,-0.44624 12.2606,-0.16004 l 4.0155,0.17384 0.1675,25.79861 c 0.092,14.18916 0.2415,30.81611 0.3322,36.94869 l 0.1647,11.15009 h -6.0074 -6.0074 l -0.1653,-8.21234 c -0.091,-4.51684 -0.2431,-14.28153 -0.338,-21.69933 -0.095,-7.41781 -0.2699,-13.24656 -0.3891,-12.95285 -0.1191,0.2938 -1.1897,7.2042 -2.3789,15.35644 -3.3055,22.65805 -3.8053,25.28193 -5.0757,26.64556 -0.7786,0.83577 -1.2026,0.89027 -6.2632,0.80511 l -4.5274,-0.0759 -3.6513,-21.57662 c -2.0081,-11.86713 -3.7264,-21.65182 -3.8184,-21.7438 -0.092,-0.092 -0.1674,6.31248 -0.1677,14.23217 -3e-4,7.9197 -0.08,17.73451 -0.1765,21.81063 l -0.1759,7.41114 h -5.4321 -5.4319 z"
         id="path669" /><path
         style="fill:#000000;stroke:none;stroke-width:0.267068"
         d="m 1792.2222,394.6736 v -37.25606 h 6.009 6.009 v 37.25606 37.25605 h -6.009 -6.009 z"
         id="path671" /><path
         style="fill:#000000;stroke:none;stroke-width:0.267068"
         d="m 1842.5333,401.28354 c 0.093,-16.85536 0.2419,-33.5004 0.3316,-36.98894 l 0.1631,-6.3429 h 7.4153 c 6.8364,0 7.4252,0.0368 7.5409,0.4674 0.069,0.257 2.3966,8.94011 5.1723,19.29567 l 5.0467,18.82834 0.174,-2.00303 c 0.096,-1.10166 0.2604,-9.90487 0.366,-19.56279 l 0.1919,-17.55975 h 5.4427 5.4428 v 37.27361 37.27361 l -3.5386,-0.18319 c -1.9463,-0.10072 -4.7277,-0.25884 -6.1809,-0.35136 l -2.6422,-0.16824 -6.5902,-24.43673 c -3.6246,-13.44024 -6.654,-24.61708 -6.7321,-24.83737 -0.2053,-0.57961 -0.4598,11.95098 -0.6548,32.24851 l -0.17,17.69327 h -5.4737 -5.4735 z"
         id="path673" /><path
         style="fill:#000000;stroke:none;stroke-width:0.267068"
         d="m 1917.9114,431.67771 c -1.5761,-0.21868 -2.0829,-0.78901 -1.893,-2.13035 0.737,-5.20445 3.6995,-24.34444 6.6379,-42.88582 1.9786,-12.48544 3.8003,-24.02276 4.0479,-25.63857 0.2477,-1.61573 0.5865,-3.02605 0.7528,-3.13397 0.3515,-0.2281 9.5185,-0.20733 14.1779,0.0322 l 3.1927,0.1641 4.2155,26.17272 c 4.0032,24.85508 6.9108,43.11063 7.3022,45.84857 l 0.1784,1.24805 -1.2958,0.21139 c -0.7127,0.11628 -3.0596,0.21561 -5.2153,0.22075 -3.5596,0.008 -3.9887,-0.0414 -4.6737,-0.54658 -1.0416,-0.76785 -1.5568,-2.48016 -2.2116,-7.34951 -0.3041,-2.26195 -0.618,-4.40034 -0.6976,-4.752 l -0.1446,-0.6394 -4.8592,0.17576 c -2.6726,0.0966 -5.7776,0.24849 -6.9,0.33748 l -2.0408,0.1618 -0.1439,0.96959 c -0.079,0.53324 -0.4709,3.40316 -0.8707,6.37762 l -0.7269,5.40819 -3.7652,-0.036 c -2.0708,-0.0199 -4.351,-0.11689 -5.067,-0.21622 z m 20.2315,-23.22371 c 2.037,-0.25385 2.3987,-0.70331 2.1698,-2.69707 -0.2604,-2.26808 -2.4687,-17.00092 -3.2426,-21.6325 -0.7541,-4.51363 -1.1271,-5.91199 -1.6198,-6.07341 -0.569,-0.18648 -1.0995,2.44767 -2.8635,14.21898 -0.9466,6.31615 -1.8676,12.36074 -2.0468,13.43243 -0.2429,1.45278 -0.2487,2.02557 -0.023,2.25145 0.6298,0.62981 4.5313,0.88566 7.6257,0.50012 z"
         id="path675" /></g><path
       id="path293"
       class="s0"
       d="m 1294.9599,305.83965 -47.6795,-0.13871 -12.6251,-24.83398 c -6.8906,-13.68876 -13.2264,-26.12884 -14.0125,-27.65498 -0.8325,-1.52608 -1.9424,-3.88463 -2.5435,-5.27199 -0.555,-1.38739 -1.4335,-2.82101 -1.9423,-3.2372 -0.8324,-0.6937 -0.8786,-2.08107 -0.9712,-45.36708 l -0.1387,-44.62713 h -12.7175 -12.7177 l -0.093,75.51928 -0.1387,75.47308 h -38.8467 -38.8465 l -0.093,-82.64116 c -0.045,-45.45958 -0.093,-85.18468 -0.093,-88.23688 v -5.54957 l 74.9181,0.13907 c 46.7546,0.0924 77.0453,0.3236 80.6064,0.60116 15.5846,1.34111 30.0135,5.827 40.65,12.62513 12.0238,7.723 19.0069,17.06465 22.1518,29.68973 1.1561,4.57837 1.2947,5.82695 1.2485,13.13381 0,6.65939 -0.1851,8.87916 -1.0174,12.48635 -3.2833,14.10492 -9.5728,25.57387 -17.5272,31.90955 -1.6185,1.24867 -3.2372,2.49731 -3.6995,2.72852 -0.6477,0.36995 -0.1391,1.6186 4.1157,10.08156 21.5969,42.6848 30.8461,61.13689 31.1235,61.96932 0.1847,0.69369 0.045,1.0174 -0.555,1.15614 -0.4625,0.0924 -22.2904,0.0924 -48.5581,0.0465 z m 241.0326,-0.87867 c 0.2775,-1.0637 8.7867,-18.49826 27.0536,-55.44867 6.4285,-12.94882 14.7527,-29.82849 18.4985,-37.45904 11.2376,-22.98414 26.6375,-54.15378 33.9907,-68.90617 l 6.937,-13.87373 h 68.2122 68.2126 l 0.14,88.2369 0.093,88.19063 h -34.4991 -34.4993 l 0.3236,-37.78277 c 0.2309,-20.8106 0.2309,-54.84744 0,-75.6118 l -0.3236,-37.82903 -13.4576,0.0465 c -7.4457,0 -14.2437,0.0924 -15.2149,0.27743 l -1.7111,0.27743 -0.14,43.97972 -0.1399,43.97969 -3.191,6.47439 c -4.9482,10.08162 -13.1337,26.91505 -20.2557,41.62118 -3.5608,7.39935 -6.6592,13.68876 -6.9368,14.01253 -0.37,0.4624 -10.6366,0.60114 -46.8932,0.69366 l -46.4768,0.0924 z m -1049.08479,0.32361 -12.3013,-0.23123 4.48567,-9.24917 c 2.4973,-5.08705 7.21441,-14.79865 10.49789,-21.50424 3.3298,-6.75189 6.98328,-14.24376 8.1393,-16.6485 1.15619,-2.451 4.80955,-10.03531 8.18553,-16.8797 21.31915,-43.56348 41.66739,-85.13843 50.22263,-102.80427 l 4.30103,-8.87921 h 66.50142 c 36.58037,0 66.96388,0.13889 67.56508,0.27744 l 1.01742,0.27743 v 88.05182 88.05193 h -36.76543 -36.76533 l -0.0935,-75.51926 -0.13871,-75.47308 -12.07014,-0.1387 -12.07016,-0.13907 -0.27736,21.87427 c -0.18488,12.02386 -0.32382,31.9558 -0.32382,44.34967 v 22.47541 l -4.67094,9.66536 c -6.65914,13.73501 -14.56732,30.15226 -19.23794,39.95638 -1.61878,3.42217 -3.69969,7.72306 -4.6246,9.57283 l -1.71117,3.37596 -33.7595,-0.13906 c -18.59089,-0.0463 -39.3552,-0.18467 -46.10705,-0.32353 z m 267.43907,-0.32361 c -14.9834,-2.31229 -26.91496,-11.97767 -32.97304,-26.68384 -2.45112,-5.96566 -4.1161,-14.89112 -4.1161,-22.10546 v -3.09839 l 36.90418,-0.13906 c 20.25568,-0.0926 36.95042,-0.0926 37.08916,0 0.13907,0.0924 0.27765,6.10445 0.27765,13.41122 0.0452,7.30683 0.0935,13.50378 0.13871,13.78125 0.0452,0.41619 2.95959,0.50873 11.51517,0.41619 l 11.42276,-0.18464 -0.18466,-24.88021 c -0.0933,-17.94332 -0.27777,-24.97269 -0.69386,-25.25016 -0.27743,-0.18511 -13.13383,-0.32362 -28.53346,-0.32362 -29.87473,0 -32.32568,-0.18466 -39.26279,-2.40472 -6.28938,-2.03485 -10.08128,-4.39341 -15.02973,-9.38795 -2.54369,-2.54349 -5.31817,-5.82695 -6.19699,-7.30679 -8.97167,-15.30737 -9.94274,-40.14131 -2.17348,-56.51232 2.45111,-5.1795 4.02338,-7.58429 7.58434,-11.42271 8.09297,-8.74042 17.24953,-12.57882 32.00182,-13.36502 9.43424,-0.50873 68.62868,-0.50873 81.62371,0 8.50954,0.32361 10.91418,0.60122 14.66002,1.57233 7.76945,2.03486 14.33616,5.9195 19.88579,11.79269 8.13917,8.64796 11.93125,19.00702 13.08744,35.79424 l 0.2309,3.60713 h -38.38389 -38.38377 l -0.0933,-13.78124 -0.13907,-13.73499 -11.42276,-0.13888 -11.4688,-0.13907 -0.0935,19.65447 c -0.0935,10.82148 -0.13907,22.15168 -0.13907,25.11143 v 5.45702 l 30.52228,0.2309 c 33.62045,0.27743 34.73029,0.36997 42.31476,3.28341 9.06404,3.46846 17.71218,11.60774 21.68919,20.34815 6.38206,14.10495 6.98313,35.28549 1.38748,49.06679 -6.42814,16.00098 -18.82199,25.5739 -35.56294,27.60868 -2.45109,0.3236 -20.48694,0.46248 -48.55809,0.46248 -36.39542,-0.0465 -45.41343,-0.18466 -48.92803,-0.73993 z m 159.91799,-87.26575 v -88.05184 l 1.38717,-0.27745 c 0.7401,-0.13907 40.2802,-0.27743 87.82076,-0.27743 78.7102,-0.0465 86.4334,0.0463 86.7109,0.69369 0.1391,0.41623 0.2775,11.74638 0.2775,25.20394 v 24.41775 l -2.4048,0.27743 c -1.3411,0.18467 -18.3596,0.23127 -37.8291,0.18467 l -35.3781,-0.13871 -0.1391,-12.62508 -0.093,-12.57884 h -12.4861 -12.48657 v 25.20392 25.20393 h 37.69037 37.6903 v 12.48632 12.48637 h -35.2393 c -19.4232,0 -36.39533,0.13907 -37.73648,0.27743 l -2.40489,0.27744 0.0938,25.06521 0.13871,25.01891 h 12.25496 12.2552 l 0.1391,-12.62504 0.093,-12.57884 h 37.9219 37.9215 v 25.20388 25.20397 h -88.0983 -88.09825 c 0,0 0,-88.05188 0,-88.05188 z m 476.10003,87.31198 c -19.8856,-3.14472 -33.5284,-17.24966 -37.3203,-38.56895 -0.8787,-5.13325 -0.8787,-92.58396 0.045,-97.57848 2.1735,-12.02394 7.6769,-22.2905 15.631,-29.22737 4.1621,-3.60712 11.7927,-7.35305 17.7121,-8.74046 7.3994,-1.66481 16.1399,-1.94226 60.5822,-1.66481 40.7423,0.18466 41.991,0.23091 46.4769,1.20241 9.1103,1.98854 15.7235,5.50324 21.9203,11.65392 7.862,7.86179 12.1165,17.20337 13.4576,29.64352 0.231,2.45102 0.4625,10.96018 0.4625,18.82202 v 14.38245 h -37.6903 -37.6904 v -25.20397 -25.20395 h -11.7923 -11.793 v 62.84798 c 0,34.59183 0.139,62.9405 0.3701,63.07921 0.1846,0.0924 5.5034,0.0924 11.7924,-0.0465 l 11.4691,-0.2309 -0.045,-24.78774 -0.045,-24.78769 2.9135,-0.13888 c 1.6186,-0.0465 18.5909,-0.13907 37.7829,-0.23091 l 34.8231,-0.0926 -0.2316,17.34218 c -0.185,15.44607 -0.3236,17.80457 -1.2025,21.78174 -2.312,10.54398 -6.2895,17.80465 -13.4576,24.55646 -4.393,4.20839 -8.1392,6.61311 -13.4111,8.648 -8.0468,3.09846 -5.4109,2.95973 -58.5008,3.09846 -39.5865,0.0924 -48.8356,0 -52.2578,-0.55499 z m 389.6203,-87.31198 v -88.05184 l 1.3874,-0.27745 c 2.1273,-0.41617 104.4227,-0.3236 119.7766,0.13907 12.44,0.36993 14.0123,0.50867 18.082,1.57234 5.8269,1.57234 8.6942,2.72847 12.9026,5.22575 9.5266,5.64198 16.7873,14.56743 20.3944,25.06521 1.5721,4.57832 2.7284,12.30137 2.7284,18.31332 0,9.43408 -1.7113,17.11091 -5.3644,24.46394 -2.5437,5.08707 -5.0873,8.46303 -9.6657,12.71764 -6.1041,5.68818 -13.1333,9.38789 -21.9666,11.51524 -4.8095,1.20234 -4.9483,1.20234 -28.3023,1.38732 l -23.4928,0.18511 V 192.2144 154.5241 h -9.2493 -9.249 v 75.61176 75.61181 h -33.9906 -33.9907 c 0,0 0,-88.05188 0,-88.05188 z"
       style="fill:#000000;stroke-width:0.462458" /><path
       style="fill:#ffcc00;stroke-width:0.480289"
       d="m 37.11104,383.44937 -28.46011,-48.93 28.156387,-48.44248 c 15.485877,-26.64336 28.373589,-48.71264 28.638807,-49.04284 0.381054,-0.47418 12.368274,-0.60041 57.023716,-0.60041 53.25552,0 56.5829,0.0487 57.25794,0.84056 1.24777,1.46352 56.64015,97.14182 56.45199,97.50886 -0.099,0.19269 -12.89759,22.23393 -28.44155,48.98016 l -28.26203,48.6296 -56.95262,-0.008 -56.952515,-0.008 z m 255.69664,47.86475 c -0.37725,-0.59547 -13.07763,-22.37155 -28.22319,-48.39137 -17.20127,-29.55213 -27.52667,-47.75946 -27.50952,-48.50952 0.027,-0.68173 12.18573,-22.06499 28.15607,-49.47005 l 28.12907,-48.26937 h 56.99424 56.99431 l 28.31231,48.70311 c 15.57161,26.78667 28.30405,48.94014 28.29416,49.22993 0,0.28974 -12.73615,22.35611 -28.28099,49.03633 l -28.26336,48.50948 -56.95821,0.12204 -56.9584,0.12202 z M 151.12181,187.79728 c -15.55336,-26.7425 -28.27972,-48.83885 -28.28132,-49.10302 0,-0.26411 12.72388,-22.36046 28.27864,-49.10292 l 28.28103,-48.622601 57.09197,0.1132 57.09191,0.113192 28.27254,48.509489 c 15.54979,26.68022 28.19726,48.83369 28.10573,49.22991 -0.091,0.39624 -12.81543,22.44163 -28.27543,48.98978 l -28.10874,48.26935 -57.08895,0.11318 -57.08903,0.11321 z"
       id="path902" /></g></svg>
