<?xml version="1.0" encoding="UTF-8" standalone="no"?>
<!-- Created with Inkscape (http://www.inkscape.org/) -->

<svg
   version="1.1"
   id="svg2"
   width="850"
   height="950"
   viewBox="0 0 850 950"
   sodipodi:docname="logo_versace.svg"
   xml:space="preserve"
   inkscape:version="1.2.2 (b0a8486541, 2022-12-01)"
   xmlns:inkscape="http://www.inkscape.org/namespaces/inkscape"
   xmlns:sodipodi="http://sodipodi.sourceforge.net/DTD/sodipodi-0.dtd"
   xmlns="http://www.w3.org/2000/svg"
   xmlns:svg="http://www.w3.org/2000/svg"><defs
     id="defs6" /><sodipodi:namedview
     id="namedview4"
     pagecolor="#505050"
     bordercolor="#ffffff"
     borderopacity="1"
     inkscape:showpageshadow="0"
     inkscape:pageopacity="0"
     inkscape:pagecheckerboard="1"
     inkscape:deskcolor="#505050"
     showgrid="false"
     inkscape:zoom="0.69384853"
     inkscape:cx="314.18961"
     inkscape:cy="502.27101"
     inkscape:window-width="2512"
     inkscape:window-height="1011"
     inkscape:window-x="0"
     inkscape:window-y="0"
     inkscape:window-maximized="1"
     inkscape:current-layer="g8" /><g
     inkscape:groupmode="layer"
     inkscape:label="Image"
     id="g8"><path
       style="fill:#b32037;fill-opacity:1"
       d="m 234.11357,946.06944 c -0.3126,-0.5056 0.1109,-1.5985 0.9409,-2.4286 0.8301,-0.83 1.5092,-1.9568 1.5092,-2.5038 0,-0.5471 1.0699,-2.2668 2.3775,-3.8215 2.3898,-2.8413 4.6987,-6.6842 9.2788,-15.4435 1.3608,-2.6026 3.5699,-5.9142 4.909,-7.3591 1.3391,-1.4449 2.4395,-2.9415 2.4454,-3.3256 0.01,-0.3842 1.801,-2.9485 3.9893,-5.6985 2.1883,-2.75 3.9836,-5.3375 3.9894,-5.75 0.01,-0.4125 0.7123,-1.5375 1.5698,-2.5 0.8576,-0.9625 4.7581,-6.2374 8.6679,-11.7219 3.9098,-5.4846 7.4763,-10.4346 7.9257,-11 0.4494,-0.5655 1.9489,-2.4431 3.3322,-4.1725 1.3832,-1.7294 2.515,-3.3822 2.515,-3.673 0,-0.2908 1.2375,-1.8637 2.75,-3.4954 1.5125,-1.6317 4.1725,-4.7038 5.911,-6.8269 1.7386,-2.1232 5.2977,-6.3185 7.9092,-9.3229 2.6115,-3.0045 5.2391,-6.0667 5.839,-6.8049 0.6,-0.7382 2.2158,-2.5841 3.5908,-4.102 1.375,-1.5179 3.9018,-4.4196 5.6151,-6.4483 5.4822,-6.4914 26.2537,-27.5501 28.8564,-29.2555 1.3823,-0.9057 4.229,-3.2847 6.326,-5.2867 2.097,-2.002 6.1855,-5.665 9.0856,-8.14 2.9,-2.475 6.2189,-5.5125 7.3752,-6.75 1.1563,-1.23749 2.4508,-2.24999 2.8766,-2.24999 0.4258,0 1.8109,-1.0125 3.0779,-2.25 1.267,-1.2375 3.8093,-3.375 5.6497,-4.75 1.8403,-1.375 5.3874,-4.2186 7.8824,-6.3191 2.4951,-2.1006 5.7107,-4.5648 7.1458,-5.476 1.4351,-0.9113 2.9643,-2.2215 3.3982,-2.9115 0.4338,-0.69 2.7963,-2.4311 5.25,-3.869 2.4536,-1.438 4.4611,-3.0217 4.4611,-3.5194 0,-0.4978 0.4296,-0.905 0.9546,-0.905 0.525,0 2.0213,-1.0125 3.3251,-2.25 1.3038,-1.2375 6.9493,-5.1174 12.5454,-8.622 5.5962,-3.5046 10.1749,-6.6948 10.1749,-7.0894 0,-0.3945 -1.6875,-2.3475 -3.75,-4.3398 -2.0625,-1.99242 -4.65,-4.82917 -5.75,-6.30393 -1.1,-1.47476 -3.0366,-3.78651 -4.3036,-5.13724 -1.267,-1.35072 -3.2169,-4.77263 -4.333,-7.60425 -1.1161,-2.83161 -2.4082,-5.60497 -2.8714,-6.16303 -1.4781,-1.78097 -5.2839,-12.7854 -6.5677,-18.99035 -0.6828,-3.3 -1.9522,-8.475 -2.821,-11.5 -0.8687,-3.025 -1.5849,-6.5125 -1.5914,-7.75 -0.01,-1.2375 -0.243,-2.25 -0.5254,-2.25 -1.2022,0 -5.3544,2.80802 -10.4859,7.09132 -3.0253,2.52523 -7.0562,5.12179 -8.9576,5.77014 -1.9013,0.64834 -4.3763,1.99298 -5.5,2.98807 -2.5634,2.27018 -16.8044,8.38652 -26.043,11.18522 -3.85,1.1663 -8.35,2.56444 -10,3.10699 -3.2232,1.05986 -7.7893,1.53169 -22.1075,2.28447 -5.0092,0.26335 -9.5092,0.5895 -10,0.72477 -1.4261,0.39299 -10.4106,-1.14613 -16.3925,-2.80817 -3.025,-0.84048 -7.3,-2.01641 -9.5,-2.61317 -2.2,-0.59676 -4.7104,-1.68005 -5.5787,-2.40733 -0.8683,-0.72727 -2.3369,-1.32231 -3.2636,-1.32231 -0.9266,0 -2.4662,-0.39325 -3.4212,-0.87388 -6.9645,-3.50498 -10.8225,-4.94013 -11.4888,-4.27382 -0.7456,0.74561 2.6669,23.39142 3.8015,25.22723 0.303,0.49033 0.962,3.26053 1.4645,6.15599 0.5024,2.89547 1.8588,9.53948 3.0143,14.76448 1.1555,5.225 2.7268,13.325 3.4918,18 0.765,4.675 1.7076,9.625 2.0945,11 0.387,1.375 0.6068,3.2698 0.4885,4.2107 -0.1184,0.9409 0.2287,2.5402 0.7712,3.5539 0.5426,1.0137 0.6804,2.3346 0.3062,2.9353 -1.0251,1.6459 -21.4994,3.5464 -27.3575,2.5394 -3.0568,-0.5255 -2.9142,0.5477 -4.6816,-35.2393 -2.0969,-42.46181 -3.19,-61.67993 -3.6771,-64.64853 -0.3769,-2.29718 -1.3882,-3.57277 -3.7403,-4.71751 -3.5325,-1.71929 -21.7237,-19.71048 -21.7237,-21.48492 0,-0.60662 -1.1048,-1.82684 -2.4551,-2.71162 -1.3504,-0.88477 -3.6298,-3.61303 -5.0655,-6.06279 -1.4356,-2.44976 -3.8761,-5.89872 -5.4232,-7.66437 -1.5471,-1.76564 -3.7351,-5.01026 -4.8623,-7.21026 -4.1702,-8.13965 -5.2343,-10.0673 -7.1756,-13 -1.0922,-1.65 -3.0626,-5.25 -4.3787,-8 -1.3162,-2.75 -3.236,-5.90037 -4.2663,-7.00081 -2.8509,-3.04503 -7.3699,-9.26308 -7.4001,-10.18247 -0.015,-0.4492 -2.2133,-3.18314 -4.8856,-6.07543 -2.6724,-2.89229 -5.0857,-6.12627 -5.363,-7.18661 -0.4686,-1.79193 0.087,-1.92625 7.8793,-1.90453 9.6192,0.0268 8.8211,-0.61159 16.1485,12.91684 2.2541,4.16184 6.0445,10.3802 8.423,13.81858 2.3786,3.43838 5.7514,8.58324 7.4951,11.43302 9.9084,16.1927 21.4676,30.65742 36.2242,45.32949 16.2502,16.15707 25.2973,22.72931 37.6053,27.31828 2.75,1.02532 7.475,2.8842 10.5,4.13084 4.9301,2.03175 7.2098,2.27217 22,2.32011 16.1422,0.0523 22.4418,-0.77064 35,-4.57237 5.1025,-1.54465 19.8326,-8.70897 24.6802,-12.00379 2.2991,-1.56263 4.5919,-2.84115 5.095,-2.84115 0.5032,0 1.7293,-0.9 2.7248,-2 0.9955,-1.1 2.1271,-2 2.5146,-2 0.8743,0 7.3264,-5.70862 14.8124,-13.10564 6.2093,-6.13557 12.7997,-14.78233 14.3255,-18.79544 0.535,-1.40702 1.3542,-2.79405 1.8206,-3.08228 0.4664,-0.28824 3.3465,-4.3474 6.4002,-9.02036 3.0537,-4.67295 5.9859,-9.00443 6.5161,-9.62551 2.0715,-2.42688 8.0485,-15.60296 11.1173,-24.50792 1.7747,-5.14957 3.8003,-10.71285 4.5015,-12.36285 1.2733,-2.99669 2.8252,-8.89389 4.0789,-15.5 0.3653,-1.925 0.9689,-3.725 1.3413,-4 0.6344,-0.46837 4.5899,-15.85629 5.7838,-22.5 0.2965,-1.65 0.9036,-3.46125 1.3492,-4.025 0.4455,-0.56375 1.1239,-3.48875 1.5074,-6.5 0.3835,-3.01125 1.0476,-5.925 1.4757,-6.475 0.7842,-1.00756 1.9681,-6.97301 4.0012,-20.16037 0.9778,-6.34232 1.3841,-7.23067 3.556,-7.7758 2.2049,-0.55338 12.1558,-6.138 13.3983,-7.51936 1.0332,-1.14861 7.891,-6.04447 8.4666,-6.04447 0.52,0 3.8591,-3.33312 9.1605,-9.1442 3.9113,-4.28733 9.519,-28.75995 7.492,-32.69603 -0.4701,-0.91287 -1.4149,-4.13477 -2.0995,-7.15977 -0.6846,-3.025 -3.7395,-10.5459 -6.7888,-16.71311 l -5.5442,-11.21311 1.2392,-8.78689 c 1.5736,-11.15856 2.0999,-37.07606 0.9906,-48.78689 -0.4689,-4.95 -1.0842,-12.64659 -1.3674,-17.10353 -0.2832,-4.45694 -1.1484,-11.20694 -1.9228,-15 -0.7743,-3.79306 -1.7147,-9.14647 -2.0896,-11.89647 -0.8393,-6.15618 -3.4472,-15.668 -4.6473,-16.95 -0.4891,-0.5225 -0.8893,-2.23174 -0.8893,-3.79831 0,-1.56656 -0.9192,-4.73906 -2.0428,-7.05 -1.1236,-2.31093 -2.3131,-6.13857 -2.6434,-8.50587 l -0.6005,-4.30418 5.8934,0.30418 5.8933,0.30418 5.7626,11.5 c 6.3999,12.77203 10.4597,24.84364 11.3236,33.67012 0.3138,3.20644 1.4212,11.22988 2.4608,17.82988 2.3364,14.8329 1.5601,34.57259 -2.4967,63.48049 l -1.463,10.4247 3.8279,7.0474 c 2.1053,3.87608 4.7433,8.67326 5.8623,10.6604 6.284,11.15959 8.2185,16.38455 9.2145,24.88701 0.8892,7.59154 -0.8112,16.73634 -4.4457,23.90861 -2.6949,5.31827 -11.8333,15.66744 -15.5355,17.59397 -1.3809,0.71862 -3.5921,2.24951 -4.9138,3.402 -1.3216,1.15248 -2.954,2.09542 -3.6275,2.09542 -0.6735,0 -1.7848,0.675 -2.4695,1.5 -0.6847,0.825 -1.9773,1.51497 -2.8724,1.53327 -0.8952,0.0183 -2.574,0.82443 -3.7308,1.7914 -3.9853,3.33156 -4.2685,4.26692 -8.3785,27.67533 -1.3555,7.7199 -4.7943,23.34431 -6.6029,30 -0.8967,3.3 -1.987,7.35 -2.4229,9 -0.436,1.65 -1.9228,6.46929 -3.3042,10.70952 -1.3814,4.24024 -2.8354,9.18364 -3.2311,10.98534 -0.3957,1.80169 -1.2966,4.18241 -2.0019,5.29047 -0.7054,1.10807 -1.8209,4.03967 -2.479,6.51467 -1.6835,6.33147 -1.773,6.53775 -11.3096,26.05661 -4.7178,9.65614 -9.9172,19.24198 -11.5542,21.30186 -3.6983,4.65367 -4.4863,8.055 -3.1796,13.72404 0.56,2.42962 1.0292,7.20803 1.0427,10.6187 0.013,3.41067 0.7465,8.81067 1.629,12 0.8824,3.18933 2.6927,9.84879 4.0227,14.79879 2.7676,10.30025 5.5573,16.74026 9.0503,20.89256 1.3383,1.5909 3.5061,4.9659 4.8174,7.5 2.3767,4.59281 7.8911,11.10744 9.4021,11.10744 0.9034,0 5.7094,-2.16546 11.6029,-5.228 2.2,-1.14321 8.05,-4.06147 13,-6.48502 4.95,-2.42355 10.125,-5.07364 11.5,-5.8891 1.375,-0.81546 5.875,-3.06742 10,-5.00437 4.125,-1.93695 8.175,-3.94614 9,-4.46488 0.825,-0.51873 2.625,-1.4383 4,-2.04349 1.375,-0.60519 3.3058,-1.51717 4.2907,-2.02662 0.9849,-0.50945 2.1913,-0.67869 2.6809,-0.37609 0.4896,0.30261 1.1736,0.0917 1.52,-0.46875 0.7462,-1.20744 7.1011,-4.15807 13.808,-6.41122 2.6398,-0.88681 6.4648,-2.43942 8.5,-3.45023 2.0352,-1.01081 5.8495,-2.42031 8.4762,-3.13221 2.6267,-0.7119 5.0157,-1.68264 5.309,-2.15719 0.2933,-0.47456 1.7667,-0.86283 3.2742,-0.86283 1.5076,0 3.1685,-0.40818 3.691,-0.90707 0.5225,-0.49889 2.7111,-1.38293 4.8635,-1.96453 3.481,-0.9406 4.1164,-0.82345 5.75,1.06008 1.0101,1.16465 1.8365,2.30327 1.8365,2.53027 0,1.01939 -2.2508,4.44885 -4.5435,6.92269 -1.3791,1.48809 -2.3469,3.19003 -2.1506,3.78209 0.4349,1.31182 7.6717,2.78231 13.3926,2.72135 5.5943,-0.0596 6.1755,1.68439 3.6705,11.01291 -0.2449,0.91179 -2.3406,2.60495 -4.6571,3.76259 -2.3165,1.15764 -6.2369,3.63282 -8.7119,5.50041 -6.4644,4.87795 -20.7799,13.48587 -23.6084,14.19579 -1.3258,0.33274 -2.6331,0.96525 -2.9053,1.40558 -0.7386,1.19508 6.7618,2.20953 10.7728,1.45706 2.3536,-0.44154 4.5029,-0.13654 6.5698,0.93228 1.6895,0.87367 3.946,1.5885 5.0145,1.5885 3.593,0 3.4491,4.8877 -0.2513,8.5352 -2.5137,2.4776 -13.385,7.2026 -18.8543,8.1944 -1.5192,0.2756 -3.0083,0.8991 -3.309,1.3857 -0.3008,0.4866 -2.2477,0.8847 -4.3265,0.8847 -3.592,0 -19.4797,4.4073 -21.6023,5.9925 -0.55,0.4108 -2.8,1.3141 -5,2.0075 -2.2,0.6934 -4.45,1.5934 -5,2 -0.55,0.4066 -2.8,1.3105 -5,2.0085 -2.2,0.698 -5.125,2.0104 -6.5,2.9163 -2.9348,1.9338 -5.4551,3.0932 -13.2149,6.0796 -3.1431,1.2097 -7.7713,3.5035 -10.2847,5.0975 -2.5134,1.594 -5.0487,2.8981 -5.634,2.8981 -0.5853,0 -3.8322,1.5204 -7.2153,3.3786 -3.3831,1.8582 -11.1011,5.96799 -17.1511,9.13279 -6.05,3.1648 -11.225,6.0535 -11.5,6.4194 -0.275,0.3659 -2.75,1.9624 -5.5,3.5478 -2.75,1.5854 -7.7867,4.8263 -11.1926,7.202 -3.406,2.3757 -6.6528,4.3194 -7.2152,4.3194 -0.5624,0 -2.5601,1.35 -4.4394,3 -1.8792,1.65 -3.6973,3 -4.0401,3 -0.3428,0 -4.5584,2.6395 -9.368,5.8656 -4.8096,3.2261 -10.0947,6.6131 -11.7447,7.5266 -1.65,0.9136 -5.925,3.875 -9.5,6.5808 -3.575,2.7059 -8.975,6.6006 -12,8.6549 -3.025,2.0542 -5.8386,4.2905 -6.2526,4.9694 -0.4139,0.6789 -2.8901,2.5496 -5.5026,4.1571 -2.6125,1.6075 -6.8553,4.6829 -9.4283,6.8342 -2.573,2.1513 -6.6218,5.3508 -8.9973,7.1102 -7.174,5.313 -10.1028,7.6911 -12.3788,10.0512 -1.1933,1.2375 -2.4352,2.25 -2.7596,2.25 -0.3244,0 -1.6684,1.0125 -2.9867,2.25 -8.8012,8.2621 -10.5106,9.75 -11.2014,9.75 -0.4257,0 -2.6233,1.5962 -4.8834,3.5471 -4.3691,3.7713 -12.4026,10.3263 -17.7129,14.4529 -1.7694,1.375 -4.0449,3.2875 -5.0567,4.25 -1.0118,0.9625 -2.1941,1.75 -2.6273,1.75 -0.4331,0 -2.7956,2.2403 -5.25,4.9785 -2.4543,2.7382 -4.8789,4.9882 -5.3881,5 -0.5091,0.012 -4.2142,3.3965 -8.2335,7.5215 -4.0193,4.125 -7.6806,7.5 -8.1363,7.5 -0.4556,0 -1.8463,1.3769 -3.0906,3.0598 -2.0607,2.7873 -7.6143,6.9273 -9.3049,6.9365 -0.38,0 -0.9466,-0.41 -1.2591,-0.9157 z m 108.5291,-79.6639 c 0.048,-1.165 0.2849,-1.4019 0.6041,-0.6042 0.2889,0.7219 0.2534,1.5844 -0.079,1.9167 -0.3323,0.3323 -0.5686,-0.2584 -0.5252,-1.3125 z m 309.865,-32.2153 c -1.4059,-0.8217 -3.4679,-3.1586 -4.5823,-5.1931 -2.7673,-5.0523 -2.1876,-7.0011 8.6287,-29.0083 1.4868,-3.025 3.2963,-7.075 4.0211,-9 0.7249,-1.925 1.8765,-4.175 2.5592,-5 1.7676,-2.1359 12.4293,-22.77609 12.4293,-24.06209 0,-0.5892 1.0689,-2.5038 2.3754,-4.2546 1.3064,-1.7508 3.4439,-5.0279 4.75,-7.2824 1.306,-2.2545 3.1767,-5.2353 4.157,-6.6239 1.7553,-2.4865 1.7275,-2.617 -1.8281,-8.5858 -2.0574,-3.4539 -3.4693,-7.0305 -3.2824,-8.3151 0.4508,-3.09658 12.8787,-9.73945 19.7422,-10.55233 2.7973,-0.33129 5.0859,-0.96019 5.0859,-1.39755 0,-0.89812 11.2385,-15.317 14.4233,-18.50495 3.9034,-3.90719 13.9672,-15.46772 15.5232,-17.83177 0.8544,-1.2982 3.4413,-4.13626 5.7486,-6.30682 4.1817,-3.93385 4.1935,-3.96537 3.6847,-9.86457 -0.2807,-3.25496 -0.9582,-7.98179 -1.5055,-10.50406 -0.5473,-2.52227 -1.1819,-6.57227 -1.4103,-9 -0.2284,-2.42773 -0.902,-9.58905 -1.4969,-15.91405 -0.5949,-6.325 -1.2605,-14.875 -1.4792,-19 -0.2186,-4.125 -0.7345,-10.425 -1.1465,-14 -1.2885,-11.18279 -1.3016,-11.13037 3.1586,-12.66577 2.2,-0.75734 5.9076,-2.26736 8.2391,-3.3556 2.3315,-1.08825 4.7052,-1.97863 5.2748,-1.97863 1.7784,0 2.8449,4.47553 2.8688,12.03869 0.013,4.00268 0.471,10.46894 1.0187,14.36946 0.5476,3.90052 1.5202,12.94185 2.1613,20.09185 1.5682,17.49132 3.1805,25.92314 5.0245,26.27827 0.8087,0.15574 2.8074,-1.02243 4.4416,-2.61814 4.3251,-4.22328 12.5871,-10.37755 13.1612,-9.80353 0.933,0.93301 -1.4404,3.93504 -9.5112,12.03037 l -8.0885,8.11303 1.0569,4 c 0.5814,2.2 1.8624,8.275 2.8469,13.5 2.9516,15.66633 7.8909,35.79131 10.5534,43 0.9141,2.475 2.0237,5.85 2.4656,7.5 0.7517,2.8061 2.1112,6.5844 9.7498,27.0966 3.1273,8.3977 16.1415,34.70559 19.7032,39.82949 1.1186,1.6094 4.3964,6.1072 7.2839,9.9951 2.8875,3.888 5.25,7.5803 5.25,8.2052 0,0.6249 -1.6875,2.4023 -3.75,3.9498 -2.0625,1.5474 -4.1098,3.4008 -4.5497,4.1187 -0.4398,0.7178 -1.3229,1.3051 -1.9624,1.3051 -0.6395,0 -2.1202,1.2008 -3.2904,2.6683 -2.7261,3.4188 -4.3428,2.7642 -8.2189,-3.3277 -1.694,-2.6623 -3.6923,-5.532 -4.4407,-6.3771 -2.3809,-2.6882 -5.4898,-8.1552 -11.355,-19.9673 -3.1395,-6.3229 -6.5163,-12.64859 -7.504,-14.05719 -0.9878,-1.4085 -2.1151,-3.8835 -2.5052,-5.5 -0.3902,-1.6164 -1.7701,-4.9604 -3.0665,-7.431 -1.2965,-2.4707 -2.3572,-4.9797 -2.3572,-5.5757 0,-2.614 -5.8144,-6.208 -24,-14.835 -4.125,-1.9568 -8.85,-4.4621 -10.5,-5.5673 -1.65,-1.1052 -6.15,-2.942 -10,-4.0818 -3.85,-1.1397 -8.0336,-2.4943 -9.297,-3.0102 -4.9192,-2.0087 -11.3917,-0.8264 -13.1207,2.3968 -1.506,2.8075 -2.9545,5.1515 -6.591,10.6652 -1.6323,2.475 -3.5271,5.625 -4.2107,7 -1.2483,2.5109 -2.2659,4.1931 -5.5595,9.1906 -0.9783,1.4846 -4.4544,8.0115 -7.7245,14.5043 -3.2701,6.49279 -6.8169,13.38009 -7.8819,15.30509 -3.4186,6.1796 -10.1147,20.2926 -10.1147,21.3182 0,0.5462 1.0508,2.3855 2.335,4.0874 3.5421,4.694 3.8909,7.4963 1.5381,12.3566 -1.1373,2.3494 -2.8751,4.7037 -3.8618,5.2318 -3.1027,1.6605 -8.4112,1.76 -11.0673,0.2074 z m 106.6212,-113.56632 c -2.8981,-9.36039 -5.3996,-19.55612 -8.6818,-35.38507 -0.7386,-3.56213 -1.823,-6.25 -2.5216,-6.25 -0.6741,0 -2.2461,1.4625 -3.4935,3.25 -1.2474,1.7875 -2.853,3.60986 -3.5681,4.04969 -0.7151,0.43983 -1.3002,1.17974 -1.3002,1.64424 0,0.46451 -1.3833,2.32543 -3.0741,4.13539 -1.6907,1.80995 -3.9143,4.89504 -4.9412,6.85575 -1.027,1.96071 -3.1311,4.92882 -4.6759,6.5958 -1.5448,1.66698 -3.8869,4.55003 -5.2046,6.40677 -3.1093,4.38119 -2.4611,4.85114 10.9995,7.97526 5.718,1.32709 10.6213,2.69719 10.8963,3.04465 1.1164,1.41065 8.7539,5.41995 12.5,6.56205 3.8907,1.1861 4.009,1.1515 4.3275,-1.265 0.1802,-1.3665 -0.3879,-4.79524 -1.2623,-7.61953 z m -445.5652,-115.6869 c -8.6124,-1.95904 -10.9601,-2.83502 -13.156,-4.90875 -1.2892,-1.21747 -4.0136,-3.07442 -6.0542,-4.12656 -4.0285,-2.07701 -13.7898,-11.18988 -13.7898,-12.8737 0,-0.67696 6.1867,-1.06595 17.75,-1.11603 40.2739,-0.17441 68.9678,-1.38861 73.4821,-3.10944 3.3626,-1.28183 5.9476,-0.4456 5.1387,1.66234 -0.6359,1.65723 -11.8074,10.52397 -13.2595,10.52397 -0.4765,0 -1.4645,0.72066 -2.1955,1.60147 -1.8653,2.2475 -11.6619,8.39853 -13.3762,8.39853 -0.7818,0 -1.6691,0.40054 -1.9717,0.8901 -1.7488,2.82966 -24.2737,4.94472 -32.5679,3.05807 z M 279.20317,573.295 c -1.2933,-1.29331 -0.588,-6.0396 1.1105,-7.47348 0.9625,-0.81251 3.775,-2.10517 6.25,-2.87257 2.475,-0.76741 5.625,-1.96959 7,-2.67153 3.5334,-1.80376 16.278,-1.59463 23.3254,0.38275 5.2531,1.47396 7.0321,1.52051 15.0656,0.39418 5.0099,-0.70242 9.7066,-1.60451 10.4369,-2.00463 2.862,-1.56805 17.749,3.96416 22.4894,8.35733 3.5452,3.28566 3.3852,4.58031 -0.5673,4.58871 -22.7266,0.0483 -83.1224,1.10526 -83.7042,1.46482 -0.4218,0.26064 -1.0546,0.18613 -1.4063,-0.16558 z m 279.6362,-1.51377 c -0.5718,-0.71081 -1.3597,-5.67925 -1.7509,-11.04098 -0.3912,-5.36172 -1.0801,-9.97658 -1.531,-10.25524 -0.4509,-0.27865 -1.1399,-2.4013 -1.5311,-4.717 -1.1225,-6.644 -6.7759,-19.02412 -12.8693,-28.18199 -3.0764,-4.62347 -5.5934,-8.70554 -5.5934,-9.07125 0,-0.96085 -12.5527,-16.89362 -16.5638,-21.02399 -1.8705,-1.92606 -3.8588,-3.50193 -4.4185,-3.50193 -2.5207,0 -0.896,-6.37153 2.7695,-10.86122 2.083,-2.55133 5.3455,-6.98968 7.25,-9.86299 1.9046,-2.87332 3.7681,-5.23582 4.1411,-5.25 0.3731,-0.0142 1.1851,2.56171 1.8045,5.72421 4.1946,21.41687 4.5958,22.88679 9.3476,34.25 1.4229,3.40253 10.2677,16.65378 13.2952,19.91889 1.306,1.40837 2.3744,2.9857 2.3744,3.50517 0,0.51947 0.9133,2.83113 2.0296,5.13703 5.3728,11.09879 7.7828,29.12936 5.3166,39.77609 -1.3053,5.63464 -2.5665,7.32493 -4.0705,5.4552 z m 138.3968,-7.12517 c -10.0671,-2.37334 -24.1445,-13.00452 -34.3836,-25.9664 -2.4587,-3.11243 -5.5821,-14.42508 -6.0559,-21.93325 -0.5812,-9.21109 1.9191,-23.72344 5.419,-31.45348 1.2914,-2.85226 2.348,-5.43872 2.348,-5.74769 0,-0.89782 6.9293,-10.46089 13.0907,-18.06639 5.3233,-6.57094 15.7453,-16.49902 18.2742,-17.40803 0.6243,-0.22442 1.7176,-1.22908 2.4296,-2.23258 1.5962,-2.24976 11.5561,-9.30711 16.2055,-11.48289 2.7167,-1.27129 7,-4.49829 7,-5.27366 0,-0.41853 -2.3421,-1.85039 -5.2047,-3.1819 -7.0769,-3.29172 -10.1591,-6.06556 -13.7884,-12.40894 -4.231,-7.39501 -4.3378,-15.20812 -0.3421,-25.01824 3.321,-8.1535 7.4534,-12.65289 17.8611,-19.44707 13.7872,-9.00041 22.3975,-11.91662 17.1151,-5.79669 -1.3055,1.5125 -2.6426,2.75 -2.9712,2.75 -0.3286,0 -2.4025,1.9125 -4.6086,4.25 -5.1578,5.46507 -7.4039,12.02698 -6.8883,20.12425 0.4375,6.87013 3.4662,12.06997 8.5599,14.69595 1.522,0.78464 2.9922,1.69746 3.2672,2.0285 1.9477,2.34453 6.7688,3.37917 18,3.86291 l 12.5,0.53839 0.2883,8.70453 c 0.2861,8.63926 0.2674,8.71512 -2.5,10.11635 -1.5336,0.7765 -4.3633,1.69747 -6.2883,2.0466 -1.925,0.34912 -8.63,2.65926 -14.9,5.13365 -6.27,2.47438 -11.837,4.49887 -12.3712,4.49887 -0.9821,0 -18.8049,9.9555 -19.7288,11.02016 -0.275,0.31691 -2.075,1.65784 -4,2.97984 -1.925,1.322 -3.725,2.69859 -4,3.05908 -0.275,0.36049 -3.2831,2.9616 -6.6846,5.78024 -10.7844,8.93631 -16.8126,20.36281 -17.8752,33.88234 -0.4586,5.83506 -0.2152,8.87154 0.9743,12.15407 0.872,2.40665 1.5855,5.44899 1.5855,6.76076 0,2.78735 7.7648,17.92253 11.164,21.76104 8.3662,9.44729 12.0269,11.62668 23.6148,14.05916 7.473,1.56868 15.75,1.06177 25.7212,-1.57524 5.1768,-1.36908 21.0414,-9.8542 30.6099,-16.37168 14.3986,-9.80734 21.5843,-15.92362 29.9188,-25.46602 2.1407,-2.45094 4.1652,-4.18318 4.499,-3.84944 1.1963,1.19634 -4.5819,10.7517 -10.2511,16.9521 -3.1771,3.47482 -6.2266,6.92065 -6.7766,7.6574 -2.7442,3.67605 -25.4004,23.19619 -26.9228,23.19619 -0.3942,0 -2.679,1.35 -5.0772,3 -2.3982,1.65 -4.8507,3 -5.45,3 -0.5994,0 -2.9933,1.22163 -5.3198,2.71474 -2.3266,1.49311 -4.539,2.62767 -4.9164,2.52125 -0.3775,-0.10642 -3.5275,0.74528 -7,1.89266 -4.9767,1.64436 -9.098,2.11634 -19.4613,2.22875 -7.2312,0.0784 -14.7372,-0.23215 -16.68,-0.69019 z m -573.1805,-41.33685 c 0.2608,-1.5567 1.3543,-8.90536 2.4301,-16.33036 2.4448,-16.87457 2.6281,-17.94434 4.5397,-26.5 1.4065,-6.295 2.516,-11.51038 4.2038,-19.76224 0.3108,-1.51923 0.9631,-3.00829 1.4497,-3.30902 0.4866,-0.30072 0.8847,-2.71021 0.8847,-5.3544 0,-2.6442 0.8351,-7.00514 1.8557,-9.69099 3.2488,-8.54939 4.2683,-11.70744 6.2574,-19.38335 2.0969,-8.09153 3.9405,-13.90532 4.9154,-15.5 0.3362,-0.55 1.2028,-3.025 1.9257,-5.5 0.723,-2.475 3.054,-8.67677 5.1802,-13.7817 2.1261,-5.10494 3.8656,-9.75332 3.8656,-10.32973 0,-0.57642 1.9537,-5.17465 4.3415,-10.2183 2.3878,-5.04365 4.9079,-10.97027 5.6003,-13.17027 0.6924,-2.2 3.2387,-8.10443 5.6586,-13.12095 2.4198,-5.01653 4.4096,-9.51653 4.4219,-10 0.012,-0.48348 0.9022,-2.00405 1.9777,-3.37905 1.0756,-1.375 1.9656,-3.4574 1.9778,-4.62756 0.012,-1.17015 0.6972,-2.68775 1.5222,-3.37244 0.825,-0.68469 1.5,-1.66981 1.5,-2.18917 0,-0.51935 1.09,-2.37675 2.4222,-4.12755 1.3321,-1.7508 2.7263,-4.40232 3.0981,-5.89226 0.3718,-1.48994 1.3068,-3.23254 2.0778,-3.87245 0.7711,-0.6399 1.4019,-1.54962 1.4019,-2.0216 0,-0.47197 1.6875,-3.39847 3.75,-6.50332 2.0625,-3.10486 4.2069,-6.3761 4.7654,-7.26942 3.6623,-5.85852 7.0268,-10.76722 7.9675,-11.62423 0.6037,-0.55 3.4918,-3.925 6.4181,-7.5 5.9339,-7.24959 14.1022,-15.41537 16.8186,-16.81343 4.1398,-2.13062 4.2484,0.0411 0.2848,5.69167 -2.2024,3.13976 -4.0044,6.06553 -4.0044,6.50173 0,0.43619 -1.2773,2.66664 -2.8386,4.95655 -5.8435,8.57101 -8.1614,12.29529 -8.1614,13.11373 0,0.4635 -1.5067,3.13932 -3.3482,5.94624 -1.8415,2.80693 -4.8072,8.02851 -6.5906,11.60351 -1.7833,3.575 -4.3884,8.525 -5.7889,11 -5.4847,9.69212 -21.2381,41.1278 -22.65,45.1977 -2.46,7.09097 -6.2835,16.02972 -9.5475,22.32073 -1.6911,3.25953 -3.0748,6.72633 -3.0748,7.704 0,0.97766 -0.3398,1.77757 -0.7551,1.77757 -0.4153,0 -1.7816,2.8125 -3.0363,6.25 -1.2546,3.4375 -3.1092,7.825 -4.1213,9.75 -1.9786,3.76314 -6.5459,15.22458 -7.3722,18.5 -0.2775,1.1 -1.9264,5.825 -3.6642,10.5 -1.7377,4.675 -3.9004,10.75 -4.8058,13.5 -0.9054,2.75 -1.9281,5.225 -2.2725,5.5 -0.8127,0.64876 -3.8571,9.98407 -5.544,17 -0.7274,3.025 -3.3908,13.6 -5.9188,23.5 -2.528,9.9 -5.4174,21.35516 -6.4208,25.45591 -1.0035,4.10076 -2.33,7.62442 -2.9478,7.83036 -0.7231,0.24105 -0.9544,-0.63389 -0.6492,-2.45591 z m 465.3104,-18.13624 c -3.027,-2.20535 -5.4991,-3.73665 -9.8423,-6.0968 -4.6482,-2.52585 -11.0108,-8.76726 -15.6146,-15.31711 -4.3564,-6.1979 -12.3455,-22.66463 -12.3455,-25.44591 0,-1.06387 -0.4242,-2.3618 -0.9426,-2.8843 -1.3873,-1.39811 -6.5485,-24.22276 -7.4507,-32.95 -0.1706,-1.65 -0.8165,-7.05 -1.4353,-12 -1.6266,-13.01117 -2.5411,-23.99934 -2.6634,-32 -0.2386,-15.60798 -1.9727,-33.81772 -5.5708,-58.5 -0.6013,-4.125 -1.2611,-8.92361 -1.4662,-10.66358 -0.2051,-1.73998 -1.733,-10.55349 -3.3952,-19.58558 -2.691,-14.62222 -3.7359,-19.43119 -7.1156,-32.75084 -0.4885,-1.925 -1.6098,-6.425 -2.4918,-10 -0.8821,-3.575 -2.1783,-7.85 -2.8805,-9.5 -1.9334,-4.543 -3.6043,-9.46132 -5.096,-15 -2.3449,-8.70651 -13.3255,-39.72772 -14.3353,-40.49875 -1.0567,-0.80677 -10.1566,-19.88851 -10.1566,-21.29756 0,-0.36567 -1.4903,-3.03609 -3.3117,-5.93427 -1.8215,-2.89818 -5.2678,-9.09442 -7.6586,-13.76942 -2.3907,-4.675 -4.6386,-8.725 -4.9953,-9 -0.6268,-0.48317 -9.5601,-13.76446 -11.5542,-17.17777 -2.929,-5.01359 -14.2788,-20.618417 -18.5278,-25.474037 -8.4427,-9.6479 -4.0328,-8.75511 8.6736,1.75603 3.5057,2.90002 6.374,5.63795 6.374,6.08428 0,0.44632 0.5658,0.8115 1.2574,0.8115 0.6915,0 4.0284,2.362497 7.4152,5.249997 3.3869,2.8875 9.1855,7.725 12.8859,10.75 3.7005,3.025 8.7293,7.3 11.1752,9.5 4.1518,3.73443 18.4207,21.31871 22.6779,27.94716 2.797,4.35479 14.5884,27.51686 14.5884,28.65612 0,0.53907 1.35,3.86759 3,7.39672 1.65,3.52913 3,6.84166 3,7.36118 0,0.51953 1.344,4.92579 2.9865,9.79171 1.6426,4.86591 3.4096,10.87211 3.9266,13.34711 0.517,2.475 1.8164,7.875 2.8875,12 4.4457,17.12169 9.1356,52.23159 9.8178,73.5 0.1235,3.85 0.5343,11.5 0.913,17 0.3787,5.5 1.0451,28.225 1.481,50.5 0.8269,42.26115 2.745,68.89814 5.4162,75.21788 0.8643,2.04484 1.5742,4.51984 1.5776,5.5 0,0.98017 0.7121,3.13212 1.575,4.78212 0.8629,1.65 2.363,5.2544 3.3337,8.00978 3.6762,10.43533 17.0194,29.42058 24.8351,35.33662 2.3375,1.76934 4.25,3.82958 4.25,4.5783 0,2.19941 -2.6886,2.59741 -5.1976,0.76942 z M 73.594873,485.23885 c 0.017,-0.4125 1.1399,-2.55 2.4949,-4.75 1.355,-2.2 2.466,-4.83199 2.4688,-5.84887 0,-1.01688 0.6241,-3.26688 1.3805,-5 2.3594,-5.40539 4.6246,-13.74341 4.6246,-17.02257 0,-1.72797 0.4926,-4.71379 1.0946,-6.63516 1.45,-4.62821 2.1228,-37.29156 0.8376,-40.67175 -0.5459,-1.43594 -1.2157,-5.0223 -1.4885,-7.96969 -0.2727,-2.94738 -0.9341,-6.51162 -1.4697,-7.92052 -1.3242,-3.48268 -1.2236,-5.44218 0.276,-5.37765 1.398,0.0602 5.665,8.81508 8.0156,16.44621 3.5857,11.64087 4.1648,15.48704 4.1404,27.5 -0.027,13.34803 -2.0352,23.77627 -6.4734,33.61857 -6.8312,15.1492 -8.9962,19.34707 -11.21,21.73576 -2.3372,2.52188 -4.7581,3.50012 -4.6914,1.89567 z m -56.6994,-42.82776 c -0.333,-0.86776 -0.029,-8.18026 0.6762,-16.25 0.7049,-8.06973 1.3804,-17.14724 1.501,-20.17224 0.1206,-3.025 0.7393,-9.775 1.3749,-15 0.6355,-5.225 1.3992,-13.325 1.697,-18 0.2979,-4.675 0.9861,-11.2 1.5294,-14.5 0.5434,-3.3 1.6157,-10.275 2.3831,-15.5 0.7673,-5.225 1.6273,-10.4 1.911,-11.5 0.2836,-1.1 1.2422,-6.05 2.1302,-11 0.888,-4.95 2.4534,-13.275 3.4788,-18.5 1.0254,-5.225 2.3762,-13.30612 3.0017,-17.95805 0.6255,-4.65193 1.6234,-9.36634 2.2175,-10.47648 1.0095,-1.88635 1.5436,-3.66219 3.7793,-12.56547 0.9283,-3.69701 2.7698,-10.60963 5.4458,-20.4427 0.8895,-3.26849 1.9918,-6.41849 2.4494,-7 0.4577,-0.58152 1.1566,-2.8573 1.5532,-5.0573 0.3966,-2.2 1.5197,-5.8 2.4957,-8 0.976,-2.2 2.577,-6.15219 3.5576,-8.78266 0.9807,-2.63046 2.1663,-5.01951 2.6348,-5.30901 0.4684,-0.2895 0.8516,-1.41564 0.8516,-2.50253 0,-1.08689 0.6396,-2.97283 1.4212,-4.19098 0.7816,-1.21815 2.2037,-4.68982 3.1601,-7.71482 0.9563,-3.025 2.5668,-6.69447 3.5788,-8.15437 1.0119,-1.4599 1.8399,-3.35242 1.8399,-4.20559 0,-0.85317 1.1053,-3.17998 2.4563,-5.17068 1.3509,-1.9907 3.3965,-6.13268 4.5458,-9.20439 1.1492,-3.07171 2.8712,-6.75044 3.8266,-8.17495 0.9554,-1.42451 2.5487,-4.3744 3.5407,-6.55532 0.992,-2.18091 3.1147,-5.62067 4.7171,-7.6439 1.6024,-2.02324 2.9135,-4.01424 2.9135,-4.42446 0,-0.41022 0.6285,-1.24546 1.3967,-1.8561 0.7681,-0.61063 3.0714,-4.26024 5.118297,-8.11024 2.0469,-3.85 4.9938,-8.21783 6.5485,-9.70629 1.5548,-1.48846 3.4307,-3.85878 4.1687,-5.26738 0.7381,-1.4086 3.5753,-5.10241 6.3049,-8.20848 4.2959,-4.88834 7.9026,-8.559567 21.4737,-21.857577 1.381,-1.35315 2.7805,-2.46027 3.1101,-2.46027 0.3297,0 2.2883,-1.59283 4.3525,-3.53962 2.0642,-1.94679 6.5146,-5.40799 9.8898,-7.69156 3.3753,-2.28357 8.3147,-5.86574 10.9766,-7.96038 2.6619,-2.09464 5.3323,-3.80844 5.9343,-3.80844 1.5983,0 9.9295,-4.05354 12.0186,-5.84763 0.9859,-0.84674 3.2359,-2.09154 5,-2.76622 1.764,-0.67468 6.3573,-2.43366 10.2073,-3.90884 3.85,-1.47518 10.15,-3.55219 14,-4.61558 3.85,-1.06338 7.7491,-2.34713 8.6647,-2.85276 0.9156,-0.50563 4.7406,-1.20486 8.5,-1.55384 3.7594,-0.34898 7.2628,-1.04414 7.7853,-1.54482 0.5225,-0.50067 3.695,-0.91031 7.05,-0.91031 3.355,0 6.5954,-0.49533 7.2008,-1.10073 1.6547,-1.65476 30.1141,-1.94561 40.7992,-0.41696 4.95,0.70817 9.9,1.30095 11,1.3173 1.1,0.0164 3.8,0.4938 6,1.061 2.2,0.56721 6.25,1.14786 9,1.29035 2.75,0.14248 5.675,0.78459 6.5,1.42692 0.825,0.64233 3.5747,1.38771 6.1103,1.65641 5.0232,0.53229 28.9573,7.77661 35.3897,10.71166 2.2,1.00384 5.575,2.37207 7.5,3.04052 8.6381,2.99956 19,8.02254 19,9.21034 0,1.28532 -5.5571,0.0363 -10.1262,-2.276 -1.9944,-1.00932 -3.8428,-1.61844 -4.1076,-1.35361 -0.4795,0.47942 -6.7472,-1.04445 -16.2662,-3.95477 -2.75,-0.84078 -8.375,-2.04442 -12.5,-2.67476 -4.125,-0.63033 -7.95,-1.48765 -8.5,-1.90515 -0.55,-0.4175 -4.6293,-1.02511 -9.065,-1.35024 -4.4358,-0.32514 -9.3026,-1.06166 -10.8151,-1.63672 -1.5126,-0.57506 -6.2308,-1.04556 -10.485,-1.04556 -4.6126,0 -8.2115,-0.47662 -8.9156,-1.18074 -0.8269,-0.82689 -5.6069,-1.0999 -15.95,-0.91098 -17.6695,0.32273 -19.0646,0.4304 -26.7693,2.06591 -3.3,0.70051 -7.125,1.26989 -8.5,1.26529 -1.375,-0.005 -3.625,0.54679 -5,1.22529 -1.375,0.67851 -5.425,1.79151 -9,2.47334 -3.575,0.68183 -7.4,1.64164 -8.5,2.13291 -1.1,0.49127 -3.8,1.32508 -6,1.8529 -8.8762,2.12958 -25.1504,8.74503 -35.5,14.43073 -3.575,1.96399 -8.0648,4.28243 -9.9773,5.15209 -4.378,1.99071 -14.523,9.51946 -21.3175,15.82 -2.8628,2.65471 -6.9746,6.25471 -9.1371,8 -4.5293,3.655307 -5.9892,5.125937 -13.7185,13.818577 -14.354,16.14328 -17.1148,19.53134 -20.5713,25.24572 -2.0324,3.35993 -6.123,9.48396 -9.0902,13.60896 -2.9672,4.125 -6.633697,9.975 -8.147697,13 -10.443,20.86501 -12.8816,25.86931 -14.01,28.75 -0.7001,1.7875 -1.5559,3.25516 -1.9017,3.26147 -0.5587,0.0102 -2.9357,4.82972 -5.173,10.48853 -0.4349,1.1 -1.9293,4.475 -3.3209,7.5 -1.3916,3.025 -3.4856,8.39287 -4.6533,11.92861 -1.1677,3.53574 -2.9363,8.03574 -3.9302,10 -0.994,1.96426 -2.1391,5.14639 -2.5447,7.07139 -0.4056,1.925 -1.0519,3.95 -1.4361,4.5 -0.9601,1.37442 -4.4778,12.98581 -7.5736,25 -1.4173,5.5 -3.2213,12.25 -4.009,15 -3.8815,13.55079 -11.4879,45.12124 -11.4879,47.68035 0,1.5958 -0.8899,5.69555 -1.9776,9.11055 -1.0878,3.41501 -2.6707,10.2591 -3.5177,15.2091 -0.847,4.95 -2.2067,12.6 -3.0214,17 -2.1871,11.81099 -8.3142,58.87621 -8.4294,64.75 -0.059,2.98638 -1.7469,3.71347 -2.7221,1.17224 z M 297.56367,409.26216 c 0,-1.04134 1.575,-5.09038 3.5,-8.99787 1.925,-3.90748 3.5,-7.48544 3.5,-7.95102 0,-1.06224 6.9367,-14.9644 9.1433,-18.32442 2.9306,-4.46257 8.9386,-15.40475 10.5695,-19.25 0.8749,-2.0625 1.9608,-3.75 2.4132,-3.75 1.1706,0 3.874,-5.51975 3.874,-7.90987 0,-1.10506 1.055,-3.0399 2.3444,-4.29966 1.2893,-1.25976 3.4031,-4.09047 4.6972,-6.29047 1.2941,-2.2 2.677,-4.22863 3.0732,-4.50806 0.3962,-0.27943 2.3734,-3.65443 4.3939,-7.5 5.5448,-10.55313 8.0335,-14.52283 11.4148,-18.2071 1.6921,-1.84369 3.0786,-3.67451 3.0812,-4.0685 0,-0.39399 1.3525,-2.15443 3,-3.91211 1.6474,-1.75767 2.9953,-3.56592 2.9953,-4.01833 0,-0.45241 1.8125,-3.06431 4.0278,-5.80423 2.2153,-2.73992 5.0278,-6.23535 6.25,-7.76761 1.2222,-1.53227 3.2347,-3.91523 4.4722,-5.29546 1.2375,-1.38023 2.25,-2.77201 2.25,-3.09285 0,-0.32084 1.4625,-2.22326 3.25,-4.2276 1.7875,-2.00434 4.375,-5.16667 5.75,-7.0274 1.375,-1.86073 3.8822,-4.87419 5.5716,-6.69659 1.6893,-1.8224 5.2893,-5.88368 8,-9.02507 2.7106,-3.1414 6.5034,-7.36328 8.4284,-9.38197 1.925,-2.01868 5.026,-5.53711 6.891,-7.81873 5.0428,-6.16899 7.5296,-5.01071 2.7358,1.27423 -1.3052,1.71128 -3.2229,4.67875 -4.2614,6.59439 -1.0385,1.91565 -3.5896,5.73299 -5.6689,8.48299 -9.8411,13.01515 -16.0005,21.30066 -18.213,24.5 -1.3312,1.925 -4.0266,5.75 -5.9898,8.5 -1.9632,2.75 -5.1711,7.3625 -7.1288,10.25 -1.9576,2.8875 -3.9656,5.25 -4.4621,5.25 -0.4965,0 -0.9028,0.57461 -0.9028,1.27691 0,0.7023 -1.6875,3.59887 -3.75,6.43681 -3.7239,5.12397 -9.125,13.31892 -14.6116,22.16991 -1.5739,2.539 -3.1818,4.84137 -3.573,5.11637 -0.3912,0.275 -1.0054,1.175 -1.3649,2 -0.9767,2.24137 -8.4141,13.65346 -15.2005,23.32393 -3.3,4.70244 -6.7746,9.81578 -7.7213,11.36298 -0.9468,1.5472 -2.2968,3.70567 -3,4.79659 -0.7033,1.09093 -2.4381,3.79093 -3.8551,6 -1.417,2.20908 -4.761,8.06018 -7.431,13.00246 -2.67,4.94227 -5.2498,9.44227 -5.7329,10 -0.8871,1.02427 -3.1688,4.49758 -7.781,11.84504 -2.836,4.51783 -4.9787,5.78412 -4.9787,2.94231 z m 63.4968,-5.27859 c -1.1601,-1.87702 0.4968,-4.60696 4.588,-7.55932 2.2373,-1.61447 5.3359,-3.9479 6.8859,-5.1854 1.5499,-1.2375 3.3054,-2.25 3.9011,-2.25 0.5957,0 3.4558,-1.27942 6.3557,-2.84316 2.8999,-1.56374 6.3975,-3.11427 7.7725,-3.44563 1.375,-0.33136 4.975,-1.33774 8,-2.23642 10.0943,-2.99883 18.9672,-3.55924 30.5,-1.92638 7.7206,1.09312 19.9936,4.76934 21.95,6.57488 0.5225,0.48219 1.8768,0.87671 3.0095,0.87671 2.1254,0 5.0017,3.44479 4.0976,4.9076 -0.2808,0.45443 -10.44,0.83565 -22.5759,0.84715 -12.1364,0.0115 -25.7587,0.57144 -30.2732,1.24437 -15.5098,2.31184 -28.109,5.65422 -35.708,9.47281 -3.8504,1.93488 -7.8103,2.64403 -8.5032,1.52279 z m -140.4968,-7.07813 c 0,-1.56897 5.9842,-16.27824 6.8736,-16.89553 0.413,-0.28658 3.5836,-6.14606 7.0458,-13.02106 3.4622,-6.875 7.0531,-13.4 7.9796,-14.5 0.9266,-1.1 2.4842,-3.575 3.4613,-5.5 3.3688,-6.63654 4.2614,-8.08253 17.3166,-28.05375 1.2777,-1.95456 2.3231,-4.09206 2.3231,-4.75 0,-0.65794 0.473,-1.19625 1.0511,-1.19625 0.578,0 1.6637,-1.4625 2.4126,-3.25 0.7489,-1.7875 2.526,-4.34094 3.949,-5.67431 1.423,-1.33338 2.5873,-2.76284 2.5873,-3.1766 0,-0.41375 2.3625,-4.226 5.25,-8.47167 2.8875,-4.24566 5.7,-8.39328 6.25,-9.21694 0.55,-0.82365 2.6819,-3.34546 4.7376,-5.60401 2.0556,-2.25856 3.7431,-4.44397 3.75,-4.85647 0.01,-0.4125 0.6948,-1.5375 1.5289,-2.5 3.8994,-4.49988 10.2673,-12.18669 12.9835,-15.67278 5.6928,-7.3062 18.1976,-22.08134 19.8465,-23.44981 0.9094,-0.75476 1.6535,-1.90797 1.6535,-2.56269 0,-0.65471 2.7,-3.94965 6,-7.32209 3.3,-3.37243 6,-6.60666 6,-7.18716 0,-0.58051 0.5625,-1.05854 1.25,-1.0623 0.6875,-0.004 2.375,-1.68815 3.75,-3.74309 1.375,-2.05493 4.075,-5.43301 6,-7.50683 1.925,-2.07383 4.4964,-4.88944 5.7143,-6.25692 4.4444,-4.99044 5.92,-2.00436 1.7868,3.61579 -1.3743,1.86883 -3.2868,4.67837 -4.25,6.24342 -0.9631,1.56505 -2.9956,4.49005 -4.5167,6.5 -1.5211,2.00995 -3.4375,4.55446 -4.2588,5.65446 -0.8213,1.1 -2.5377,3.35 -3.8142,5 -1.2765,1.65 -2.6085,3.7875 -2.9598,4.75 -0.3513,0.9625 -1.0303,1.75 -1.5089,1.75 -0.4786,0 -2.7094,2.8125 -4.9574,6.25 -2.248,3.4375 -5.8081,8.56789 -7.9113,11.40086 -2.1032,2.83298 -5.2652,7.10798 -7.0266,9.5 -6.271,8.51602 -8.8399,11.95197 -12.0545,16.12294 -4.5632,5.92093 -4.1289,5.34114 -11.0302,14.7262 -3.4377,4.675 -6.5883,8.95 -7.0013,9.5 -0.413,0.55 -2.7245,3.925 -5.1367,7.5 -2.4122,3.575 -4.7658,6.65 -5.2302,6.83333 -0.4645,0.18334 -0.8445,0.79358 -0.8445,1.3561 0,0.56252 -1.4274,2.82498 -3.1719,5.0277 -1.7446,2.20271 -4.9519,6.76747 -7.1274,10.1439 -2.1754,3.37643 -4.2355,6.36397 -4.578,6.63897 -0.3425,0.275 -2.4227,3.19427 -4.6227,6.48726 -2.2,3.293 -5.3816,7.568 -7.0703,9.5 -1.6887,1.93201 -3.6424,4.94271 -4.3414,6.69045 -0.6991,1.74773 -2.1778,3.99773 -3.2861,5 -1.1082,1.00226 -2.8574,3.47288 -3.8871,5.49028 -1.0296,2.01739 -3.2317,5.68265 -4.8936,8.14502 -1.6618,2.46237 -3.0215,4.7675 -3.0215,5.12251 0,0.355 -0.8496,1.86474 -1.8879,3.35497 -1.0384,1.49023 -3.5572,5.29701 -5.5973,8.45951 -3.494,5.41625 -5.5148,7.12626 -5.5148,4.66659 z m 479,-25.67938 c 0,-1.01369 7.6916,-10.72298 13.0348,-16.45407 8.7983,-9.43717 14.0532,-14.78314 14.5312,-14.78314 0.2866,0 2.3196,-1.66403 4.5178,-3.69785 2.1982,-2.03381 6.3411,-5.44608 9.2064,-7.58281 2.8654,-2.13673 6.5598,-5.14083 8.2098,-6.67577 1.65,-1.53494 5.25,-3.91139 8,-5.281 2.75,-1.36961 7.0445,-3.5914 9.5434,-4.93732 9.6905,-5.21944 23.17,-10.02217 33.219,-11.83588 3.7194,-0.67128 7.0084,-1.61851 7.3091,-2.10494 0.7116,-1.1514 8.1458,-1.15083 8.8575,6.8e-4 0.6879,1.11306 -5.9996,15.72575 -7.6832,16.78833 -0.6852,0.43244 -5.0854,0.84292 -9.7784,0.91217 -4.6929,0.0693 -9.4179,0.58896 -10.5,1.15491 -3.1875,1.66718 -15.0488,5.25948 -17.366,5.25948 -3.7439,0 -22.9065,11.46583 -41.1014,24.59273 -1.925,1.38882 -8.8078,7.5611 -15.2951,13.7162 -10.9657,10.40407 -14.7049,13.18294 -14.7049,10.92828 z M 98.239573,339.58662 c -0.2959,-0.77123 -0.3001,-1.64023 -0.01,-1.9311 0.9185,-0.91852 3.333297,0.48714 3.333297,1.94032 0,1.8149 -2.626897,1.80761 -3.324097,-0.009 z m 551.824097,-49.7929 c -1.1,-0.62388 -3.0623,-2.26217 -4.3608,-3.64066 -3.6747,-3.90129 -2.5738,-9.2583 5.274,-25.66421 13.5509,-28.32809 16.8208,-35.05425 18.2305,-37.5 0.7926,-1.375 3.0118,-5.71969 4.9316,-9.65486 1.9198,-3.93518 4.1507,-7.70278 4.9576,-8.37245 0.8069,-0.66967 1.4671,-1.6307 1.4671,-2.13563 0,-0.50492 0.9563,-2.21144 2.125,-3.79226 2.4665,-3.33614 2.766,-7.61813 0.6534,-9.34316 -2.8409,-2.31974 -5.7097,-8.24832 -5.1068,-10.55371 0.8444,-3.2291 17.0111,-11.09189 22.8913,-11.13338 2.4382,-0.0172 6.091,-3.77238 9.7416,-10.01455 1.4475,-2.475 4.1086,-6.12594 5.9136,-8.11321 1.8051,-1.98726 5.9819,-6.83833 9.2819,-10.78016 3.3,-3.94182 8.5745,-9.86846 11.721,-13.17032 l 5.721,-6.00336 -0.6081,-9.71648 c -0.3345,-5.34406 -0.9639,-10.413507 -1.3986,-11.265447 -0.4348,-0.85194 -1.0692,-4.45194 -1.4098,-8 -0.3407,-3.54806 -1.0353,-9.15102 -1.5436,-12.45102 -0.5084,-3.3 -1.14,-12.525 -1.4037,-20.5 -0.2637,-7.975 -0.7871,-17.48799 -1.1631,-21.13998 -0.7578,-7.35922 -1.0651,-6.98527 6.8349,-8.31801 2.0625,-0.34795 3.75,-1.01822 3.75,-1.4895 0,-0.47127 1.3677,-1.33364 3.0393,-1.91637 2.7788,-0.96868 3.1217,-0.84289 4,1.46727 0.5284,1.38974 0.9607,5.90208 0.9607,10.02743 0,4.12535 0.4369,8.31701 0.9709,9.3148 0.534,0.99778 1.2122,5.3557 1.5071,9.68425 0.8632,12.66832 2.5223,26.88442 3.56,30.50252 0.5291,1.84491 0.962,4.95885 0.962,6.91986 0,1.96101 0.6255,4.42082 1.3899,5.46626 1.3174,1.801667 1.712,1.602607 7.5663,-3.81747 3.397,-3.14504 7.5871,-6.44774 9.3112,-7.33933 1.7242,-0.89159 3.7515,-2.23773 4.5052,-2.9914 2.1175,-2.11752 3.4506,-1.65585 2.1634,0.74922 -0.6238,1.16576 -1.9897,2.34324 -3.0351,2.61663 -1.0455,0.2734 -1.9009,0.87414 -1.9009,1.335 0,0.90696 -2.6444,3.6814 -8.063,8.45949 -1.8903,1.66687 -4.7381,4.757727 -6.3283,6.868587 -2.7647,3.66977 -2.8391,4.04081 -1.6977,8.46933 0.6565,2.54727 1.8107,8.00641 2.5649,12.13141 2.1378,11.69258 8.0172,36.56026 9.6297,40.73038 0.589,1.52329 2.1032,6.14462 3.3649,10.26962 2.4667,8.06483 4.081,12.66524 6.1941,17.65113 0.7345,1.73312 1.3354,3.60865 1.3354,4.16784 0,0.55919 1.125,3.25653 2.5,5.9941 1.375,2.73756 2.5,5.61352 2.5,6.39103 0,0.7775 0.6607,2.28715 1.4682,3.35477 0.8075,1.06762 1.4825,2.59845 1.5,3.40184 0.038,1.7646 8.2204,18.40087 9.2818,18.87262 0.4125,0.18334 0.75,0.75618 0.75,1.27298 0,1.43659 9.2337,17.01781 11.5,19.40545 4.2479,4.47527 7.4644,9.05854 7.4818,10.66092 0.025,2.33523 -15.0438,14.82732 -17.8861,14.82732 -0.6026,0 -1.0957,-0.65264 -1.0957,-1.45031 0,-0.79767 -0.5625,-1.81017 -1.25,-2.25 -3.3438,-2.13921 -15.5681,-23.00762 -17.6025,-30.04969 -0.7218,-2.49848 -1.8294,-4.25 -2.6876,-4.25 -0.8029,0 -1.4599,-0.45467 -1.4599,-1.01037 0,-0.5557 -1.8,-4.65549 -4,-9.11063 -2.2,-4.45515 -4,-8.95048 -4,-9.98963 0,-1.03915 -0.3888,-1.88937 -0.8641,-1.88937 -0.4753,0 -1.6765,-2.12707 -2.6694,-4.72682 -1.9248,-5.04009 -4.1478,-7.48492 -8.9665,-9.86115 -1.65,-0.81366 -5.25,-2.72095 -8,-4.23842 -13.0416,-7.19643 -22.4352,-11.91402 -27,-13.5597 -2.75,-0.99142 -6.575,-2.51076 -8.5,-3.3763 -2.0065,-0.90221 -5.8441,-1.51292 -8.9936,-1.43122 -4.7492,0.12318 -5.7656,0.5137 -7.5,2.88151 -4.9592,6.77012 -10.9011,16.78829 -16.9362,28.55485 -3.5948,7.00852 -7.5663,14.43352 -8.8257,16.5 -1.2594,2.06649 -2.8119,4.88225 -3.4499,6.25725 -0.638,1.375 -3.8903,8.23238 -7.2273,15.23862 -3.337,7.00624 -6.0673,13.27723 -6.0673,13.93555 0,0.65831 0.9521,2.21041 2.1158,3.44911 2.5322,2.6954 3.6161,10.1406 1.934,13.28381 -2.6022,4.86221 -10.1391,7.39931 -14.5498,4.89778 z m 108.2032,-112.97865 c -3.3113,-9.53425 -6.7032,-23.01091 -6.7032,-26.63306 0,-1.5729 -0.3084,-3.16823 -0.6853,-3.54516 -1.0923,-1.09232 -3.2831,-7.94185 -3.2996,-10.31621 -0.042,-6.09591 -2.8952,-6.97364 -6.2505,-1.92307 -1.2455,1.87479 -6.8123,9.43333 -12.3706,16.79675 -12.6383,16.7426 -13.0062,17.39653 -10.5319,18.7207 1.0381,0.55558 3.7538,1.30858 6.0348,1.67334 2.2811,0.36476 4.389,1.05409 4.6843,1.53184 0.2953,0.47776 1.8031,0.86865 3.3507,0.86865 3.1939,0 11.646,3.43799 14.4101,5.86141 2.6948,2.36277 12.0137,5.99345 13.0318,5.07728 0.4868,-0.43802 -0.2532,-4.03111 -1.6706,-8.11247 z m -21.7032,-83.826217 c 0,-0.55 0.4766,-1 1.059,-1 0.5825,0 0.7809,0.45 0.441,1 -0.3399,0.55 -0.8165,1 -1.059,1 -0.2425,0 -0.441,-0.45 -0.441,-1 z"
       id="path293" /></g></svg>
