<?xml version="1.0" encoding="UTF-8" standalone="no"?>
<!-- Created with Inkscape (http://www.inkscape.org/) -->

<svg
   version="1.1"
   id="svg1"
   width="780.47998"
   height="209.28"
   viewBox="0 0 780.47998 209.28"
   sodipodi:docname="text-logo.svg"
   inkscape:version="1.2.2 (b0a8486541, 2022-12-01)"
   xml:space="preserve"
   xmlns:inkscape="http://www.inkscape.org/namespaces/inkscape"
   xmlns:sodipodi="http://sodipodi.sourceforge.net/DTD/sodipodi-0.dtd"
   xmlns="http://www.w3.org/2000/svg"
   xmlns:svg="http://www.w3.org/2000/svg"><defs
     id="defs1" /><sodipodi:namedview
     id="namedview1"
     pagecolor="#505050"
     bordercolor="#eeeeee"
     borderopacity="1"
     inkscape:showpageshadow="0"
     inkscape:pageopacity="0"
     inkscape:pagecheckerboard="0"
     inkscape:deskcolor="#505050"
     inkscape:zoom="1.6525251"
     inkscape:cx="419.96336"
     inkscape:cy="58.395482"
     inkscape:window-width="2512"
     inkscape:window-height="1011"
     inkscape:window-x="0"
     inkscape:window-y="0"
     inkscape:window-maximized="1"
     inkscape:current-layer="g1"
     showgrid="false" /><g
     inkscape:groupmode="layer"
     inkscape:label="Image"
     id="g1"><path
       style="fill:#ffff00;fill-opacity:0;stroke-width:1.21027"
       d="m -309.82888,474.42547 c 0,-14.32152 0.1291,-15.12836 2.42054,-15.12836 2.29144,0 2.42054,0.80684 2.42054,15.12836 0,14.32152 -0.1291,15.12836 -2.42054,15.12836 -2.29144,0 -2.42054,-0.80684 -2.42054,-15.12836 z"
       id="path928" /><path
       style="fill:#ffff00;fill-opacity:0;stroke-width:1.21027"
       d="m -309.82888,474.42547 c 0,-14.32152 0.1291,-15.12836 2.42054,-15.12836 2.29144,0 2.42054,0.80684 2.42054,15.12836 0,14.32152 -0.1291,15.12836 -2.42054,15.12836 -2.29144,0 -2.42054,-0.80684 -2.42054,-15.12836 z"
       id="path930" /><g
       id="g909"
       style="fill:#ffffff"
       transform="matrix(0.52313758,0,0,0.52313758,-248.76752,-54.271635)"><path
         style="fill:#ffffff;stroke:none;stroke-width:1.06828"
         d="M 483.18669,236.03501 V 148.9707 h 29.37751 29.37753 v 87.06431 87.06431 H 512.5642 483.18669 Z"
         id="path589" /><path
         style="fill:#ffffff;stroke:none;stroke-width:1.06828"
         d="M 550.48791,305.47281 V 287.8463 h 14.4217 14.42168 v -10.68277 -10.68277 h 26.1727 26.1727 v 28.30928 28.30928 H 591.0823 550.48791 Z"
         id="path591" /><path
         style="fill:#ffffff;stroke:none;stroke-width:1.06828"
         d="m 666.11637,305.72805 -17.34731,-17.3712 V 218.66374 148.9707 h 28.84338 28.84339 v 69.4378 69.4378 h 10.68273 10.68273 v 17.62651 17.62651 h -22.17881 -22.17881 z"
         id="path593" /><path
         style="fill:#ffffff;stroke:none;stroke-width:1.06828"
         d="M 737.43575,305.47281 V 287.8463 h 10.68274 10.68274 v -69.4378 -69.4378 h 28.84338 28.84338 v 69.71703 69.71695 l -17.37123,17.34728 -17.37124,17.34736 h -22.15488 -22.15489 z"
         id="path595" /><path
         style="fill:#ffffff;stroke:none;stroke-width:1.06828"
         d="m 846.39962,246.78078 c 0,-41.97517 0.39267,-76.56113 0.87248,-76.85775 0.47989,-0.29655 12.73831,19.35123 27.24096,43.66173 l 26.36856,44.20086 v 32.65681 32.65689 h -27.24104 -27.24096 z"
         id="path597" /><path
         style="fill:#ffffff;stroke:none;stroke-width:1.06828"
         d="M 932.08611,293.57196 C 892.48863,226.97472 847.46794,150.8258 847.46794,150.44701 c 0,-0.22442 13.5861,-0.408 30.19136,-0.408 h 30.19136 l 7.07105,11.48389 c 3.88903,6.31623 14.14786,23.16515 22.79747,37.44216 8.64961,14.277 16.27536,25.77523 16.94618,25.55165 0.67082,-0.22359 8.91405,-13.31961 18.31834,-29.1022 l 17.09871,-28.69566 0.72202,4.74641 c 0.39711,2.61054 0.75766,21.45145 0.8012,41.8687 l 0.0792,37.12231 -20.36299,34.98621 c -11.19968,19.24232 -20.77075,35.39941 -21.26904,35.90452 -0.49966,0.50657 -8.55794,-11.95098 -17.96667,-27.77504 z"
         id="path599" /><path
         style="fill:#ffffff;stroke:none;stroke-width:1.06828"
         d="m 1000.9299,314.28607 c -0.8948,-11.49478 -0.9058,-150.20306 -0.012,-158.74897 l 0.6863,-6.5664 h 28.1571 28.1571 v 87.06431 87.06431 h -28.1509 -28.1509 z"
         id="path601" /><path
         style="fill:#ffffff;stroke:none;stroke-width:1.06828"
         d="m 1086.7612,304.93865 v -18.16066 h 8.5461 8.5462 v -50.20882 -50.2089 h -8.5462 -8.5461 V 167.66552 148.9707 h 45.9357 45.9358 v 18.69482 18.69475 h -8.5462 -8.5462 v 50.2089 50.20882 h 8.5462 8.5462 v 18.16066 18.16067 h -45.9358 -45.9357 z"
         id="path603" /></g><path
       style="fill:#ffffff;stroke:none;stroke-width:0.0900184"
       d="m 17.933901,169.97152 c -1.203931,-0.11218 -1.695641,-0.30819 -2.988528,-1.19115 -2.001235,-1.36679 -2.788427,-2.81656 -3.191343,-5.87752 -0.289514,-2.19944 -0.241313,-18.29906 0.06548,-21.87452 0.181223,-2.11198 0.500067,-3.07059 1.429906,-4.29885 1.532369,-2.02423 4.239569,-2.97308 7.633618,-2.67551 2.603208,0.2282 4.152716,0.95391 5.457756,2.55614 1.144559,1.40522 1.736296,3.38022 1.985943,6.62844 0.07398,0.96284 0.15834,2.02404 0.1874,2.35822 l 0.05288,0.6076 h -2.931051 -2.931058 l -0.0023,-1.41779 c -0.007,-4.5976 -0.409309,-5.3584 -2.833544,-5.35336 -1.242298,0.003 -1.651158,0.192 -2.03651,0.94345 -0.413962,0.80726 -0.566357,4.08752 -0.569751,12.26404 -0.0031,7.91484 0.107704,9.69251 0.690002,11.05045 0.387029,0.90256 1.211445,1.25977 2.490286,1.07898 0.853637,-0.12067 1.306841,-0.42378 1.65684,-1.10818 0.397288,-0.77682 0.50837,-1.65122 0.573872,-4.51741 l 0.05914,-2.58804 h 2.917638 2.917645 l -0.05226,0.69767 c -0.02876,0.38369 -0.09366,1.48757 -0.144224,2.45299 -0.109776,2.09573 -0.217913,3.08505 -0.462465,4.23086 -0.791475,3.70836 -2.747014,5.50316 -6.464863,5.93346 -1.095461,0.12681 -2.72512,0.17321 -3.510728,0.10002 z"
       id="path635" /><path
       style="fill:#ffffff;stroke:none;stroke-width:0.0900184"
       d="m 45.92968,169.55932 c -0.07421,-0.0162 -0.358171,-0.0535 -0.630902,-0.0834 -0.272738,-0.0299 -0.547827,-0.0864 -0.611319,-0.12566 -0.09186,-0.0568 -0.04986,-0.50188 0.205644,-2.1792 0.344124,-2.25914 2.670665,-16.95269 4.26055,-26.90797 l 0.970395,-6.07623 3.596492,0.003 c 3.595774,0.003 4.518562,0.0682 4.782302,0.33459 0.06092,0.0615 0.196483,0.69928 0.30125,1.41718 0.276758,1.89641 1.405554,9.10165 3.060261,19.53406 1.96647,12.39787 2.148419,13.61788 2.049938,13.7443 -0.173253,0.22236 -0.999771,0.31472 -3.234666,0.36142 -2.198529,0.0459 -2.310949,0.0403 -2.358686,-0.11985 -0.0276,-0.0923 -0.215361,-1.13839 -0.417318,-2.32435 -0.41036,-2.40978 -0.554019,-2.98688 -0.831288,-3.33933 -0.364494,-0.4634 -0.557421,-0.49059 -3.481027,-0.49059 h -2.6963 l -0.05056,0.24754 c -0.02783,0.13617 -0.210963,1.22145 -0.406951,2.41175 -0.486515,2.95491 -0.638184,3.35378 -1.350442,3.55162 -0.288386,0.0802 -2.821878,0.1126 -3.157336,0.0404 z m 9.630663,-11.20984 c 0.519973,-0.11979 0.721473,-0.30745 0.721473,-0.67186 0,-1.01891 -1.667547,-12.13758 -2.162875,-14.42136 -0.198988,-0.91741 -0.0637,-1.63653 -1.621511,8.6193 -0.492584,3.24292 -0.919643,6.04814 -0.949019,6.23378 l -0.05342,0.33759 1.830781,-0.003 c 1.006937,0 2.012482,-0.0441 2.234546,-0.0952 z"
       id="path637" /><path
       style="fill:#ffffff;stroke:none;stroke-width:0.0900184"
       d="m 81.126951,151.83055 v -17.77867 l 0.742648,1.5e-4 c 0.990084,1.8e-4 5.114018,0.15783 7.133976,0.2727 4.188532,0.23822 5.488965,0.82945 7.268545,3.3047 0.96875,1.34746 1.05733,2.01446 1.05508,7.94484 -0.002,4.37091 -0.0615,5.4603 -0.3514,6.39779 -0.39572,1.27963 -1.71822,2.8001 -3.025638,3.47862 -1.451412,0.75322 -2.880592,1.01584 -5.528158,1.01584 h -1.533869 v 6.57133 6.57137 h -2.880592 -2.880592 z m 9.499628,-0.95049 c 0.768159,-0.39543 0.928841,-0.88096 1.130295,-3.4154 0.143953,-1.81096 0.06053,-5.4591 -0.139647,-6.10415 -0.372897,-1.20182 -1.60448,-1.85439 -3.71638,-1.96923 l -1.012712,-0.055 v 5.91817 5.91818 l 1.645508,-0.0311 c 1.557222,-0.0296 1.669518,-0.0435 2.092936,-0.26142 z"
       id="path639" /><path
       style="fill:#ffffff;stroke:none;stroke-width:0.0900184"
       d="m 114.15222,169.51763 c -0.52429,-0.0885 -0.77084,-0.21919 -0.84301,-0.44655 -0.0917,-0.28893 0.54103,-4.48826 3.19444,-21.20134 0.93538,-5.89173 1.79118,-11.31984 1.9018,-12.06249 0.13652,-0.91679 0.24656,-1.38968 0.34269,-1.47302 0.19726,-0.17099 8.08805,-0.0757 8.25032,0.0997 0.10045,0.10857 0.60663,3.19024 3.86262,23.51797 1.91447,11.95238 1.81839,11.29345 1.66092,11.39078 -0.0703,0.0435 -0.35107,0.11112 -0.6238,0.15031 -0.62975,0.0906 -3.9275,0.0934 -4.24721,0.003 -0.13235,-0.0372 -0.36516,-0.17231 -0.51739,-0.3004 -0.40119,-0.33756 -0.59045,-1.07004 -0.94823,-3.66981 -0.16934,-1.2305 -0.32225,-2.25165 -0.3398,-2.26922 -0.0377,-0.0377 -6.4904,0.24201 -6.53873,0.2834 -0.0311,0.0267 -0.81391,5.71555 -0.81955,5.956 -0.002,0.0867 -0.44984,0.11011 -1.96053,0.10188 -1.07684,-0.005 -2.14539,-0.0422 -2.37454,-0.0809 z m 10.27132,-11.18832 c 0.38731,-0.13306 0.55608,-0.44419 0.49779,-0.9176 -0.46577,-3.78285 -1.74887,-11.90397 -2.03027,-12.85015 -0.4145,-1.39375 -0.64752,-0.65038 -1.3897,4.43342 -0.22769,1.55955 -0.60085,4.03056 -0.82925,5.49113 -0.2284,1.46054 -0.41906,2.89688 -0.42367,3.19184 -0.008,0.4855 0.0129,0.54722 0.21663,0.65133 0.30075,0.15367 3.51121,0.15371 3.95847,3e-5 z"
       id="path641" /><path
       style="fill:#ffffff;stroke:none;stroke-width:0.127306"
       d="m 156.00373,170.00681 c -1.974,-0.27332 -3.37521,-0.93167 -4.62133,-2.17128 -1.44401,-1.43649 -2.05764,-3.0169 -2.27371,-5.8561 -0.34115,-4.48276 -0.26225,-17.76508 0.12564,-21.15351 0.30767,-2.68754 1.74068,-4.76802 4.09857,-5.95048 1.44989,-0.72711 2.58356,-0.94131 4.53997,-0.85791 2.53036,0.10792 4.22832,0.7246 5.50778,2.00044 1.44063,1.43652 2.10846,3.51258 2.33442,7.257 0.0401,0.66514 0.10606,1.59609 0.1464,2.06868 l 0.0734,0.85933 h -2.94097 -2.94095 l -0.002,-2.06872 c -0.005,-3.89312 -0.43142,-4.7006 -2.48938,-4.71385 -2.46948,-0.0158 -2.63247,0.57376 -2.86066,10.34957 -0.23106,9.89861 0.10528,13.69425 1.3027,14.70182 0.45145,0.37986 1.39512,0.43192 2.28354,0.12593 1.47233,-0.50704 1.49919,-0.58403 1.67744,-4.80487 l 0.13844,-3.27815 h 2.91015 2.91019 l -0.078,1.43218 c -0.35501,6.51753 -0.55854,7.62015 -1.67826,9.09175 -0.42532,0.559 -2.02458,1.85535 -2.73763,2.21914 -1.22406,0.62448 -3.77805,0.97708 -5.42508,0.74903 z"
       id="path643" /><path
       style="fill:#ffffff;stroke:none;stroke-width:0.127306"
       d="m 183.47719,151.86808 v -17.75913 h 2.86437 2.86435 v 17.75913 17.75911 h -2.86435 -2.86437 z"
       id="path645" /><path
       style="fill:#ffffff;stroke:none;stroke-width:0.127306"
       d="m 211.70767,154.50968 -0.0322,-15.11756 -2.9677,-0.034 c -2.7439,-0.0318 -2.96301,-0.0508 -2.9058,-0.25462 0.034,-0.12124 0.0976,-1.07972 0.14118,-2.12999 0.0437,-1.05027 0.10824,-2.05981 0.14348,-2.2434 l 0.0642,-0.33379 5.56309,-0.0811 c 3.05969,-0.0445 6.92366,-0.11647 8.5866,-0.15977 l 3.02348,-0.0787 v 2.62596 2.62594 h -2.92802 -2.92801 v 15.14937 15.14934 h -2.86386 -2.86385 z"
       id="path647" /><path
       style="fill:#ffffff;stroke:none;stroke-width:0.127306"
       d="m 239.96752,169.51035 c -1.14168,-0.16226 -1.12289,0.0358 -0.43364,-4.56161 0.33328,-2.22309 1.17946,-7.65109 1.88037,-12.06221 0.70091,-4.41114 1.64235,-10.36494 2.09207,-13.23065 0.50642,-3.2271 0.87924,-5.25387 0.97943,-5.32461 0.15351,-0.10836 8.09705,-0.0314 8.20802,0.0796 0.0501,0.0501 2.98695,18.15043 4.74318,29.233 0.54413,3.43353 0.83247,5.5839 0.75892,5.65921 -0.1788,0.18296 -3.11586,0.3761 -4.09857,0.26952 -1.018,-0.11045 -1.50021,-0.44096 -1.72033,-1.17905 -0.0795,-0.26673 -0.29139,-1.51264 -0.47081,-2.76872 -0.17948,-1.25605 -0.3536,-2.31107 -0.38697,-2.34443 -0.0802,-0.0801 -6.42672,0.19431 -6.51409,0.28166 -0.0372,0.0372 -0.24742,1.40271 -0.46723,3.03451 l -0.39963,2.96701 -1.78227,0.0165 c -0.98026,0.009 -2.05505,-0.0224 -2.38845,-0.0697 z m 10.25266,-11.20244 c 0.52995,-0.20149 0.52889,-0.22571 -0.23676,-5.42138 -0.65195,-4.42382 -1.1757,-7.54131 -1.39557,-8.3067 -0.45521,-1.58472 -0.67323,-0.75684 -1.7684,6.71535 -0.313,2.13559 -0.66956,4.502 -0.79235,5.25877 -0.26153,1.61181 -0.21167,1.76745 0.60653,1.89188 0.74227,0.11287 3.1727,0.0194 3.58655,-0.13792 z"
       id="path649" /><path
       style="fill:#ffffff;stroke:none;stroke-width:0.127306"
       d="m 280.67488,169.8041 c -1.37444,-0.24577 -2.21948,-0.68534 -3.31098,-1.72216 -1.10997,-1.05433 -1.64671,-2.00098 -1.87198,-3.30138 -0.23726,-1.36946 -0.23679,-24.07323 0,-25.45208 0.22573,-1.31183 0.56294,-1.94052 1.61092,-3.00292 1.5793,-1.60105 3.2676,-2.21661 6.07979,-2.21661 4.67552,0 7.05317,1.73186 7.86806,5.73089 0.20177,0.99035 0.49855,4.5139 0.50652,6.01305 v 0.35009 h -2.65843 -2.65851 l -0.0611,-2.06872 c -0.0441,-1.50111 -0.11944,-2.22588 -0.27452,-2.6416 -0.5522,-1.48038 -1.34011,-2.07431 -2.75166,-2.07431 -1.48637,0 -1.86371,0.41477 -2.1768,2.39258 -0.19443,1.22838 -0.30165,16.42625 -0.13575,19.23325 0.16087,2.72042 0.26021,2.99853 1.23034,3.44266 1.1579,0.53007 2.39411,0.41148 3.01087,-0.28892 0.80708,-0.91655 1.12844,-2.4734 1.12844,-5.46656 v -2.21665 h 2.60973 2.6098 v 2.7689 c 0,3.02546 -0.17595,4.55848 -0.69081,6.03897 -0.8445,2.42844 -2.51997,3.9309 -4.9989,4.48259 -1.13896,0.25353 -3.64664,0.25298 -5.06707,0 z"
       id="path651" /><path
       style="fill:#ffffff;stroke:none;stroke-width:0.127306"
       d="m 309.12774,151.86808 v -17.75913 h 2.86437 2.8643 v 17.75913 17.75911 h -2.8643 -2.86437 z"
       id="path653" /><path
       style="fill:#ffffff;stroke:none;stroke-width:0.127306"
       d="m 338.69599,169.82578 c -1.61239,-0.36942 -3.11562,-1.44191 -4.15664,-2.96543 -0.8472,-1.23993 -1.19702,-2.35074 -1.36044,-4.31954 -0.19343,-2.33093 -0.0836,-21.49576 0.12871,-22.44851 0.20881,-0.93734 0.99355,-2.57656 1.64385,-3.43389 0.93735,-1.23566 2.01926,-1.9282 3.71112,-2.37555 1.24363,-0.32883 4.18678,-0.29612 5.51406,0.0612 2.12417,0.5719 3.63745,1.76728 4.63424,3.66064 0.90604,1.72096 0.94925,2.03641 1.01806,7.43441 0.0696,5.46159 -0.15385,17.41847 -0.35221,18.84123 -0.18832,1.35019 -0.61173,2.13379 -1.82476,3.37725 -1.65885,1.70045 -2.95474,2.16949 -6.31597,2.28604 -1.34382,0.0466 -2.06192,0.0146 -2.64002,-0.1179 z m 3.98671,-5.27759 c 0.67164,-0.30503 1.0162,-0.75528 1.20738,-1.5779 0.34007,-1.46298 0.342,-18.68155 0.008,-21.46254 -0.15013,-1.22967 -0.3158,-1.54435 -0.97824,-1.85871 -0.61305,-0.2909 -2.21082,-0.30697 -2.87319,-0.0288 -0.64226,0.26963 -0.84798,0.643 -1.00205,1.81889 -0.22148,1.68999 -0.36442,10.98716 -0.24545,15.9668 0.13714,5.7432 0.29957,6.67338 1.25585,7.19315 0.49214,0.26748 1.99645,0.23843 2.63338,-0.0508 z"
       id="path655" /><path
       style="fill:#ffffff;stroke:none;stroke-width:0.127306"
       d="m 339.49124,132.98491 c -0.3461,-0.0581 -0.52182,-0.15842 -0.55158,-0.31472 -0.0503,-0.26603 0.93069,-2.04066 2.09061,-3.78077 1.18024,-1.77051 1.20142,-1.79192 1.90692,-1.92638 0.62178,-0.11855 4.29695,-0.0175 4.8633,0.13362 0.25913,0.0692 0.0139,0.35919 -2.29153,2.70865 -1.64633,1.67793 -2.77686,2.72713 -3.12041,2.89597 -0.58699,0.28846 -2.02869,0.42959 -2.89731,0.28363 z"
       id="path657" /><path
       style="fill:#ffffff;stroke:none;stroke-width:0.127306"
       d="m 367.60875,162.65722 c 0.0433,-3.83349 0.11472,-11.76868 0.15863,-17.63378 l 0.0799,-10.66378 3.56926,0.0336 3.56925,0.0335 2.43007,9.06033 c 1.33656,4.98318 2.4657,9.0957 2.50915,9.13895 0.0433,0.0433 0.11549,-2.77356 0.16002,-6.25961 0.0441,-3.48602 0.11619,-7.67015 0.15925,-9.29805 l 0.0784,-2.95988 h 2.59419 2.59426 v 17.77553 17.77554 l -1.24132,-0.0781 c -0.68261,-0.043 -2.02412,-0.11505 -2.98118,-0.16032 -1.63117,-0.0771 -1.74435,-0.0991 -1.81029,-0.35209 -1.0864,-4.16434 -6.2566,-23.21505 -6.32053,-23.28941 -0.0495,-0.0574 -0.12632,3.72349 -0.1707,8.40216 -0.0441,4.67874 -0.11611,10.06786 -0.15933,11.97586 l -0.0785,3.46907 h -2.60957 -2.60973 z"
       id="path659" /><path
       style="fill:#ffffff;stroke:none;stroke-width:0.127306"
       d="m 448.93633,151.77681 v -17.75913 h 1.55951 c 2.53798,0.003 7.0207,0.23603 8.34674,0.43435 1.53114,0.229 3.09011,0.71336 3.84269,1.19389 0.69855,0.44596 1.54962,1.35618 1.88768,2.01903 0.70782,1.38742 1.12644,3.72947 1.24773,6.98108 0.21847,5.85433 -1.10394,9.36804 -4.07198,10.81969 -1.32489,0.64801 -2.39953,0.82875 -4.92777,0.82875 h -2.15586 v 6.6199 6.61988 h -2.86437 -2.86437 z m 9.26058,-0.89324 c 0.80964,-0.24041 1.23521,-0.72189 1.42639,-1.61381 0.26068,-1.21526 0.39767,-4.4348 0.26547,-6.23761 -0.18986,-2.58968 -0.33458,-2.89798 -1.52209,-3.24321 -0.8343,-0.24252 -3.54027,-0.67063 -3.63574,-0.57519 -0.0363,0.0362 -0.0657,2.72023 -0.0657,5.9644 v 5.89848 h 1.44092 c 0.91709,0 1.67725,-0.0702 2.09092,-0.19306 z"
       id="path661" /><path
       style="fill:#ffffff;stroke:none;stroke-width:0.127306"
       d="m 482.67605,169.37499 c -0.2572,-0.027 -0.52762,-0.12156 -0.60091,-0.20979 -0.0946,-0.11404 0.0842,-1.46493 0.61823,-4.67134 0.41328,-2.48103 1.50014,-9.17988 2.41529,-14.88636 2.09154,-13.04164 2.36915,-14.67586 2.55043,-15.01464 0.246,-0.45958 0.73264,-0.54906 3.31392,-0.6092 2.85192,-0.0665 4.36822,0.0758 4.7369,0.4445 0.31123,0.31122 0.33706,0.45941 3.02641,17.3949 1.19083,7.4987 2.30583,14.43597 2.47783,15.41616 0.17735,1.01085 0.2647,1.83018 0.20185,1.89298 -0.22589,0.22599 -1.27448,0.324 -3.52248,0.32942 l -2.30916,0.005 -0.0696,-0.41374 c -0.0379,-0.22758 -0.19759,-1.65977 -0.35445,-3.18263 l -0.28503,-2.76891 h -3.39493 -3.39501 l -0.28255,2.70522 c -0.15539,1.48791 -0.3151,2.92009 -0.35484,3.18264 l -0.0727,0.47742 -2.11612,-0.0216 c -1.16378,-0.0116 -2.32647,-0.0437 -2.58375,-0.0707 z m 11.07877,-11.29174 c 0.17231,-0.17235 0.14286,-0.51575 -0.27607,-3.22042 -0.25797,-1.66509 -0.66994,-4.38058 -0.91546,-6.03439 -0.56079,-3.77631 -0.82464,-5.20429 -0.96162,-5.20429 -0.14805,0 -0.30598,0.60493 -0.81428,3.11899 -0.79904,3.95259 -1.72193,9.68915 -1.72324,10.71187 0,0.3829 0.0603,0.55257 0.2221,0.61925 0.84937,0.35013 4.12076,0.3567 4.46857,0.009 z"
       id="path663" /><path
       style="fill:#ffffff;stroke:none;stroke-width:0.127306"
       d="m 518.34373,151.65905 v -17.80811 l 0.79564,0.0488 c 0.43764,0.0266 2.37108,0.10867 4.29664,0.18191 6.48025,0.2464 8.12425,0.59051 9.51616,1.99178 1.96499,1.97824 2.73837,6.12715 1.98687,10.65954 -0.35987,2.17073 -0.98288,3.56532 -2.12316,4.75286 l -0.77191,0.80375 0.90975,0.91864 c 1.85142,1.86963 2.18075,3.50992 2.44552,12.17876 0.0673,2.20208 0.10298,4.02301 0.0796,4.04653 -0.0232,0.0233 -1.12443,-0.0162 -2.44637,-0.0884 -1.32203,-0.0721 -2.58499,-0.13153 -2.80655,-0.1319 h -0.40285 l -0.0719,-0.92298 c -0.0394,-0.50759 -0.1908,-3.27175 -0.33598,-6.14247 l -0.26385,-5.21952 -0.38645,-0.39967 c -0.21252,-0.21984 -0.682,-0.56255 -1.04341,-0.7616 -0.59596,-0.32824 -0.79603,-0.36631 -2.15284,-0.40938 l -1.49581,-0.0475 v 7.07889 7.07886 h -2.86438 -2.86437 z m 9.00864,-1.86017 c 0.86097,-0.25991 1.50888,-0.82955 1.71506,-1.50789 0.22998,-0.75677 0.21908,-5.96969 -0.0147,-7.1295 -0.14982,-0.74242 -0.23262,-0.90588 -0.55986,-1.10486 -0.51417,-0.31271 -1.67075,-0.60726 -3.17901,-0.80959 l -1.24116,-0.16657 v 5.53731 5.53732 l 1.30486,-0.077 c 0.71764,-0.0424 1.60644,-0.168 1.97504,-0.27928 z"
       id="path665" /><path
       style="fill:#ffffff;stroke:none;stroke-width:0.127306"
       d="m 553.53381,169.35043 c -0.89661,-0.12564 -1.04596,-0.30712 -0.94794,-1.15195 0.12593,-1.08457 1.3473,-8.98659 2.82425,-18.27271 0.73496,-4.62117 1.58889,-10.03 1.89758,-12.01957 0.34749,-2.23978 0.62378,-3.66152 0.72567,-3.73329 0.15593,-0.10985 8.09821,-0.0346 8.21061,0.0778 0.0619,0.0618 3.98625,24.32612 5.42833,33.56155 0.1148,0.73541 0.14302,1.257 0.0719,1.33085 -0.17595,0.18289 -3.11369,0.37613 -4.09672,0.26952 -1.01798,-0.11045 -1.50022,-0.44096 -1.72031,-1.17905 -0.0796,-0.26672 -0.29145,-1.51264 -0.47088,-2.76872 -0.17943,-1.25605 -0.35414,-2.31162 -0.38816,-2.34567 -0.0802,-0.0802 -6.432,0.20205 -6.51967,0.28973 -0.0371,0.0365 -0.24444,1.41465 -0.46191,3.06239 l -0.3955,2.99594 -1.78362,-0.0171 c -0.98095,-0.01 -2.04918,-0.0542 -2.37379,-0.0997 z m 9.5518,-11.08165 c 0.44776,-0.0647 0.87071,-0.17425 0.93982,-0.24341 0.21306,-0.21304 0.11936,-1.23437 -0.48139,-5.24945 -1.08006,-7.21845 -1.42554,-9.02447 -1.72611,-9.02447 -0.30173,0 -0.48734,0.94723 -1.45932,7.44739 -0.38738,2.59064 -0.7709,5.14949 -0.85223,5.68631 -0.17634,1.16361 -0.0874,1.34161 0.70643,1.4137 1.0564,0.096 2.07476,0.0853 2.8728,-0.0299 z"
       id="path667" /><path
       style="fill:#ffffff;stroke:none;stroke-width:0.127306"
       d="m 637.83716,151.8162 v -17.75913 h 4.00766 4.00774 l 0.0626,0.28645 c 0.034,0.15753 0.55468,3.37996 1.15605,7.16095 1.77852,11.17979 2.56728,15.72223 2.73055,15.72223 0.0526,0 0.13351,-0.21483 0.1792,-0.47742 0.60044,-3.44891 3.19053,-20.13003 3.33571,-21.48279 0.0495,-0.45988 0.16165,-0.82717 0.28217,-0.92297 0.22713,-0.18057 2.69175,-0.21272 5.84433,-0.0763 l 1.91411,0.0829 0.0799,12.29761 c 0.0441,6.76367 0.11511,14.68935 0.15833,17.61262 l 0.0785,5.31499 h -2.8636 -2.8636 l -0.0788,-3.91463 c -0.0433,-2.15308 -0.11589,-6.80768 -0.16111,-10.34358 -0.0456,-3.53591 -0.12864,-6.31435 -0.18546,-6.17434 -0.0564,0.14005 -0.56712,3.43408 -1.13402,7.32006 -1.57566,10.8006 -1.81385,12.05135 -2.41947,12.70135 -0.37115,0.3984 -0.57323,0.42438 -2.98551,0.38378 l -2.1581,-0.0362 -1.74049,-10.28509 c -0.95721,-5.65679 -1.77627,-10.32093 -1.82019,-10.36478 -0.0441,-0.0438 -0.0798,3.00901 -0.0799,6.78416 -1.5e-4,3.77514 -0.0379,8.45364 -0.0841,10.39664 l -0.0839,3.53273 h -2.58939 -2.58924 z"
       id="path669" /><path
       style="fill:#ffffff;stroke:none;stroke-width:0.127306"
       d="m 681.4652,151.66491 v -17.75913 h 2.86437 2.86438 v 17.75913 17.75912 h -2.86438 -2.86437 z"
       id="path671" /><path
       style="fill:#ffffff;stroke:none;stroke-width:0.127306"
       d="m 704.86243,154.81759 c 0.0441,-8.03456 0.11534,-15.96888 0.15809,-17.6318 l 0.0778,-3.02352 h 3.5347 c 3.25872,0 3.53942,0.0175 3.59454,0.22282 0.0332,0.1225 1.14244,4.26154 2.46555,9.1978 l 2.40563,8.97505 0.0829,-0.9548 c 0.0456,-0.52514 0.12408,-4.72142 0.17441,-9.32514 l 0.0915,-8.37034 h 2.59434 2.59449 v 17.76749 17.7675 l -1.68676,-0.0873 c -0.92776,-0.048 -2.25357,-0.12338 -2.94631,-0.16748 l -1.25949,-0.0802 -3.14136,-11.64843 c -1.72781,-6.40667 -3.17182,-11.73442 -3.20909,-11.83942 -0.0978,-0.27629 -0.21916,5.69676 -0.31208,15.37214 l -0.0811,8.43398 h -2.60918 -2.60903 z"
       id="path673" /><path
       style="fill:#ffffff;stroke:none;stroke-width:0.127306"
       d="m 740.28048,168.89781 c -0.75126,-0.10429 -0.99285,-0.37611 -0.90232,-1.0155 0.35128,-2.48084 1.76344,-11.60445 3.16409,-20.4427 0.94314,-5.95153 1.81153,-11.45111 1.92958,-12.22133 0.11805,-0.77018 0.27954,-1.44245 0.35886,-1.4939 0.16752,-0.10868 4.53721,-0.0988 6.75824,0.0154 l 1.52186,0.0782 2.00944,12.47595 c 1.90824,11.84787 3.29428,20.54988 3.48082,21.85499 l 0.085,0.59491 -0.61768,0.1008 c -0.33976,0.0554 -1.45847,0.10275 -2.48603,0.10527 -1.69681,0.003 -1.90136,-0.0197 -2.22783,-0.26054 -0.49654,-0.36601 -0.74214,-1.18223 -1.05423,-3.50334 -0.14495,-1.07823 -0.29462,-2.09755 -0.33258,-2.26518 l -0.0688,-0.30479 -2.31627,0.0838 c -1.27394,0.0461 -2.75405,0.11846 -3.28909,0.16087 l -0.97283,0.0771 -0.0688,0.46219 c -0.0379,0.25418 -0.2245,1.62221 -0.41506,3.04006 l -0.34649,2.57797 -1.79475,-0.0172 c -0.98713,-0.01 -2.07407,-0.0557 -2.41538,-0.10309 z m 9.64388,-11.07023 c 0.97105,-0.121 1.14344,-0.33524 1.03429,-1.28563 -0.12408,-1.08115 -1.17677,-8.10395 -1.54568,-10.31172 -0.3594,-2.15155 -0.5372,-2.81812 -0.77206,-2.89506 -0.27127,-0.0889 -0.52414,1.16675 -1.36501,6.77786 -0.45124,3.01077 -0.89026,5.89209 -0.97569,6.40294 -0.11572,0.69251 -0.11851,0.96555 -0.0108,1.07322 0.30018,0.30022 2.15995,0.42217 3.63497,0.23839 z"
       id="path675" /><path
       style="fill:#f9c501;fill-opacity:1;stroke-width:0.536608"
       d="M 414.09962,81.868985 V 48.310499 l 15.96409,-2.16e-4 15.96418,-2.01e-4 -0.16119,33.118208 c -0.0886,18.214929 -0.20934,33.15341 -0.26825,33.19659 -0.0588,0.0435 -7.17029,0.24148 -15.80299,0.44057 l -15.69592,0.36206 z M 481.17583,69.532861 V 23.626469 l 15.42759,-1.78e-4 15.42751,-1.24e-4 -0.15879,45.457688 c -0.0872,25.001774 -0.20795,45.494525 -0.26825,45.539425 -0.0603,0.0451 -6.93118,0.2469 -15.2688,0.44882 l -15.15926,0.36718 z m 54.88694,37.395319 c -2.23015,-4.64455 -5.09823,-10.738614 -6.37372,-13.542425 l -2.3189,-5.097791 12.0257,-0.268294 12.02578,-0.268332 2.1022,-2.05354 2.10229,-2.053556 1.07997,1.78527 c 0.59403,0.981867 2.89886,5.286613 5.12189,9.566073 2.22304,4.27946 5.49721,10.430825 7.27589,13.669735 1.7786,3.23894 3.18736,5.92195 3.13062,5.96236 -0.0564,0.0404 -7.30635,0.22456 -16.11021,0.4093 l -16.007,0.33579 z m 40.34034,7.51952 c 0.19914,-0.51649 7.48948,-20.015558 16.20081,-43.331271 8.71124,-23.315683 16.02277,-42.584524 16.24781,-42.819568 0.22496,-0.23509 0.82873,0.730821 1.3415,2.146433 0.51278,1.41562 1.6379,4.384891 2.50003,6.598379 0.8622,2.213535 1.56631,4.338739 1.56477,4.722621 0,0.383937 1.80712,5.613065 4.01934,11.620233 l 4.02235,10.922182 -8.26171,25.137533 -8.26155,25.137618 -8.77348,0.32819 c -4.82533,0.18052 -11.51586,0.36162 -14.86765,0.40246 -5.60073,0.0682 -6.06495,0 -5.73222,-0.86481 z m 70.50307,-0.53531 c -0.32631,-0.81231 -1.13695,-3.04654 -1.80141,-4.96496 l -1.20815,-3.48795 H 629.3903 c -7.97845,0 -14.64949,-0.14254 -14.82451,-0.31688 -0.17503,-0.17418 1.03537,-4.19353 2.68981,-8.931705 3.50865,-10.048213 2.44027,-9.264468 12.62838,-9.264468 3.50471,0 6.37218,-0.102648 6.37218,-0.228287 0,-0.125554 -1.47162,-4.049449 -3.27032,-8.719893 -1.79854,-4.670386 -4.08048,-10.785667 -5.07094,-13.589416 -0.99038,-2.803803 -3.47355,-9.323623 -5.51816,-14.488494 -2.04469,-5.164855 -5.19587,-13.120433 -7.00277,-17.678979 -1.80681,-4.558622 -3.28523,-8.365613 -3.28523,-8.459997 0,-0.09432 6.80455,-0.107581 15.12115,-0.02884 l 15.12121,0.142562 1.76902,5.097814 c 0.97298,2.80375 8.99504,23.208367 17.82665,45.343544 8.83169,22.135144 16.02146,40.272589 15.97724,40.305389 -0.0441,0.0328 -6.90799,0.21446 -15.25257,0.40373 l -15.17201,0.34421 z m 47.97462,-7.57693 -9.25649,-9.001273 V 69.731052 42.127938 l 9.26213,-9.250723 9.26214,-9.250746 h 6.03125 6.03124 v 45.537081 45.53712 l -2.81714,0.33838 c -1.54946,0.18605 -4.2661,0.32921 -6.03689,0.31805 l -3.21967,-0.0204 -9.25657,-9.00132 z m 26.15979,0.005 c 0,-8.956874 0.0155,-9.078578 1.20738,-9.397956 0.66398,-0.177945 5.12389,-0.326877 9.91073,-0.330889 l 8.70336,-0.0077 0.15067,-6.573455 0.15068,-6.573487 h 15.29338 15.29341 l -0.1809,6.707645 -0.18097,6.707629 -8.94134,8.928543 -8.94139,8.92862 -16.23251,0.34255 -16.23243,0.34259 v -9.0744 z M 516.94981,87.661654 c -0.19667,-0.19673 -0.3577,-4.152916 -0.3577,-8.791487 0,-8.292443 0.0201,-8.439148 1.20738,-8.757281 0.66406,-0.177945 5.73501,-0.326869 11.26879,-0.330927 l 10.06148,-0.0077 0.008,-11.939587 c 0.008,-6.566761 0.16188,-12.884601 0.35275,-14.03965 l 0.34688,-2.100103 -9.98743,0.347556 c -5.49303,0.191203 -10.72284,0.200488 -11.62161,0.02095 l -1.63411,-0.326831 v -9.055283 -9.055338 l 17.57401,0.01384 17.57385,0.01384 8.98832,9.329955 8.98816,9.329916 V 55.91755 69.521592 l -6.9134,6.898067 c -6.0311,6.01772 -6.98228,6.775031 -7.45308,5.933788 -0.5144,-0.919225 -1.15086,-0.882589 -13.61196,0.783626 -16.38008,2.190096 -15.55862,1.995066 -15.15631,3.597683 0.32198,1.28307 0.31726,1.284423 -4.47584,1.284423 -2.6391,0 -4.95931,-0.160938 -5.15598,-0.35773 z m 224.02821,-36.390287 0.20835,-9.554539 -8.34002,0.356593 c -4.58693,0.196136 -9.11981,0.200565 -10.07285,0.0099 l -1.73291,-0.346582 v -9.055261 -9.055276 h 16.24217 16.24217 l 8.97857,9.3484 8.97845,9.348424 v 8.896302 8.896341 h -6.03693 c -3.32025,0 -10.23048,0.160744 -15.356,0.355148 l -9.31934,0.353501 0.20834,-9.554539 z m -350.48938,-17.583729 7e-5,-10.06144 h 39.67558 39.67542 l -0.30783,9.793154 c -0.16923,5.386224 -0.33528,9.82959 -0.36876,9.87418 -0.0332,0.04453 -17.74903,0.165298 -39.36782,0.268332 l -39.30666,0.187245 z"
       id="path703" /></g></svg>
