<?xml version="1.0" encoding="UTF-8" standalone="no"?>
<!-- Created with Inkscape (http://www.inkscape.org/) -->

<svg
   version="1.1"
   id="svg2"
   width="1961"
   height="468"
   viewBox="0 0 1961 468"
   sodipodi:docname="logo-certificado.svg"
   xml:space="preserve"
   inkscape:version="1.2.2 (b0a8486541, 2022-12-01)"
   xmlns:inkscape="http://www.inkscape.org/namespaces/inkscape"
   xmlns:sodipodi="http://sodipodi.sourceforge.net/DTD/sodipodi-0.dtd"
   xmlns="http://www.w3.org/2000/svg"
   xmlns:svg="http://www.w3.org/2000/svg"><defs
     id="defs6" /><sodipodi:namedview
     id="namedview4"
     pagecolor="#505050"
     bordercolor="#ffffff"
     borderopacity="1"
     inkscape:showpageshadow="0"
     inkscape:pageopacity="0"
     inkscape:pagecheckerboard="1"
     inkscape:deskcolor="#505050"
     showgrid="false"
     inkscape:zoom="0.50734281"
     inkscape:cx="1563.0457"
     inkscape:cy="525.28586"
     inkscape:window-width="2512"
     inkscape:window-height="1011"
     inkscape:window-x="0"
     inkscape:window-y="0"
     inkscape:window-maximized="1"
     inkscape:current-layer="g8" /><g
     inkscape:groupmode="layer"
     inkscape:label="Image"
     id="g8"><g
       id="g909"
       style="fill:#000000"><path
         style="fill:#000000;stroke:none;stroke-width:1.06828"
         d="M 483.18669,236.03501 V 148.9707 h 29.37751 29.37753 v 87.06431 87.06431 H 512.5642 483.18669 Z"
         id="path589" /><path
         style="fill:#000000;stroke:none;stroke-width:1.06828"
         d="M 550.48791,305.47281 V 287.8463 h 14.4217 14.42168 v -10.68277 -10.68277 h 26.1727 26.1727 v 28.30928 28.30928 H 591.0823 550.48791 Z"
         id="path591" /><path
         style="fill:#000000;stroke:none;stroke-width:1.06828"
         d="m 666.11637,305.72805 -17.34731,-17.3712 V 218.66374 148.9707 h 28.84338 28.84339 v 69.4378 69.4378 h 10.68273 10.68273 v 17.62651 17.62651 h -22.17881 -22.17881 z"
         id="path593" /><path
         style="fill:#000000;stroke:none;stroke-width:1.06828"
         d="M 737.43575,305.47281 V 287.8463 h 10.68274 10.68274 v -69.4378 -69.4378 h 28.84338 28.84338 v 69.71703 69.71695 l -17.37123,17.34728 -17.37124,17.34736 h -22.15488 -22.15489 z"
         id="path595" /><path
         style="fill:#000000;stroke:none;stroke-width:1.06828"
         d="m 846.39962,246.78078 c 0,-41.97517 0.39267,-76.56113 0.87248,-76.85775 0.47989,-0.29655 12.73831,19.35123 27.24096,43.66173 l 26.36856,44.20086 v 32.65681 32.65689 h -27.24104 -27.24096 z"
         id="path597" /><path
         style="fill:#000000;stroke:none;stroke-width:1.06828"
         d="M 932.08611,293.57196 C 892.48863,226.97472 847.46794,150.8258 847.46794,150.44701 c 0,-0.22442 13.5861,-0.408 30.19136,-0.408 h 30.19136 l 7.07105,11.48389 c 3.88903,6.31623 14.14786,23.16515 22.79747,37.44216 8.64961,14.277 16.27536,25.77523 16.94618,25.55165 0.67082,-0.22359 8.91405,-13.31961 18.31834,-29.1022 l 17.09871,-28.69566 0.72202,4.74641 c 0.39711,2.61054 0.75766,21.45145 0.8012,41.8687 l 0.0792,37.12231 -20.36299,34.98621 c -11.19968,19.24232 -20.77075,35.39941 -21.26904,35.90452 -0.49966,0.50657 -8.55794,-11.95098 -17.96667,-27.77504 z"
         id="path599" /><path
         style="fill:#000000;stroke:none;stroke-width:1.06828"
         d="m 1000.9299,314.28607 c -0.8948,-11.49478 -0.9058,-150.20306 -0.012,-158.74897 l 0.6863,-6.5664 h 28.1571 28.1571 v 87.06431 87.06431 h -28.1509 -28.1509 z"
         id="path601" /><path
         style="fill:#000000;stroke:none;stroke-width:1.06828"
         d="m 1086.7612,304.93865 v -18.16066 h 8.5461 8.5462 v -50.20882 -50.2089 h -8.5462 -8.5461 V 167.66552 148.9707 h 45.9357 45.9358 v 18.69482 18.69475 h -8.5462 -8.5462 v 50.2089 50.20882 h 8.5462 8.5462 v 18.16066 18.16067 h -45.9358 -45.9357 z"
         id="path603" /></g><g
       id="g2043"
       style="fill:#f9c501;fill-opacity:1"><path
         style="fill:#f9c501;stroke:none;stroke-width:0.267068;fill-opacity:1"
         d="m 174.60839,83.68268 -8.39347,-5.859484 -3.35753,2.308857 c -7.21659,4.96263 -12.22092,8.243687 -13.3147,8.729709 -1.72006,0.764331 -1.82449,0.45705 -1.00386,-2.953617 0.87505,-3.636779 3.44874,-12.472645 4.15467,-14.263594 0.80652,-2.046186 0.70666,-2.748432 -0.59101,-4.156219 -0.6167,-0.669058 -3.89657,-3.252774 -7.28863,-5.7416 -3.39205,-2.488903 -6.80788,-5.085496 -7.59073,-5.770343 -1.39703,-1.22207 -1.41165,-1.24997 -0.79019,-1.508502 0.36181,-0.150536 5.10582,-0.312953 11.06946,-0.3791 l 10.43629,-0.115661 3.15831,-8.852652 c 3.69433,-10.355023 3.98716,-11.07896 4.57254,-11.303537 0.75367,-0.289269 1.33901,0.882751 3.0248,6.056391 0.88546,2.71739 2.37916,6.983829 3.31935,9.480933 l 1.70943,4.540148 10.38134,0.156668 c 5.70974,0.08615 10.64929,0.26819 10.97678,0.404469 0.55256,0.229943 0.42098,0.391133 -1.82632,2.237499 -2.79183,2.293681 -9.6046,7.426469 -12.31771,9.280269 l -1.85369,1.266603 0.1798,1.472784 c 0.19183,1.571431 1.56074,7.031734 3.34871,13.357389 1.19763,4.237082 1.52134,7.267501 0.79043,7.399718 -0.22033,0.03986 -4.17766,-2.564401 -8.79407,-5.787128 z"
         id="path605" /><path
         style="fill:#f9c501;stroke:none;stroke-width:0.267068;fill-opacity:1"
         d="m 230.77097,64.536707 c 0.0826,-0.271563 1.2418,-3.978934 2.57605,-8.238704 3.47514,-11.094826 4.61061,-15.047469 4.44595,-15.476543 -0.2322,-0.605133 -3.37004,-3.098788 -9.52302,-7.56796 -6.28418,-4.564522 -9.08033,-6.726216 -9.08033,-7.020006 0,-0.485487 1.55686,-0.60659 10.28214,-0.799359 12.557,-0.277541 14.55522,-0.479661 14.55522,-1.472402 0,-1.270665 5.85947,-17.7162637 7.40976,-20.7967333 0.61998,-1.2319579 0.69023,-1.2875275 1.03333,-0.8183671 0.20247,0.276928 0.67678,1.5327233 1.05403,2.7906647 0.88723,2.9585998 4.28483,13.1512057 5.71755,17.1523677 l 1.1151,3.114118 11.53141,0.119417 c 6.34227,0.06592 11.80978,0.212774 12.15002,0.326825 l 0.61861,0.207256 -0.84275,0.869491 c -0.46351,0.478281 -4.73455,3.677018 -9.49121,7.108304 -4.75664,3.431362 -8.65179,6.421924 -8.65588,6.645659 -0.004,0.223811 0.95694,3.288415 2.13561,6.810298 2.33575,6.979153 4.6668,14.621002 4.95412,16.240873 l 0.18167,1.02432 -1.16903,-0.589574 c -2.07423,-1.046011 -5.82405,-3.434275 -12.84109,-8.178459 l -6.86484,-4.641246 -8.11641,5.468657 c -8.17755,5.509818 -11.59471,7.665303 -12.71653,8.021332 -0.50959,0.161803 -0.58498,0.112518 -0.45948,-0.300229 z"
         id="path607" /><path
         style="fill:#f9c501;stroke:none;stroke-width:0.267068;fill-opacity:1"
         d="m 319.60767,89.217561 c 7.6e-4,-1.051683 1.59989,-6.588633 3.74429,-12.967175 1.34674,-4.005914 2.38655,-7.445248 2.31066,-7.642998 -0.21839,-0.569109 -6.42147,-5.642725 -10.47827,-8.570436 -2.03538,-1.468875 -4.41945,-3.264883 -5.29793,-3.99112 l -1.59722,-1.320409 0.78506,-0.21653 c 0.94344,-0.260219 8.09706,-0.700713 15.58752,-0.959859 l 5.45506,-0.188783 2.45277,-6.810221 c 2.65233,-7.364384 4.5023,-11.930516 5.07606,-12.528904 0.30791,-0.321077 0.4593,-0.162186 1.01749,1.068315 0.36066,0.79499 1.9572,5.368786 3.54786,10.163863 l 2.89211,8.718289 10.95442,0.128768 c 6.02492,0.07052 11.30537,0.239831 11.73431,0.375497 l 0.7799,0.246805 -1.04697,0.84826 c -0.57583,0.466554 -3.81113,2.804002 -7.18954,5.194336 -3.37842,2.390334 -6.8937,5.072235 -7.81175,5.959892 -2.08472,2.01568 -2.09838,2.22945 -0.48319,7.559069 2.57947,8.511493 4.11514,14.591876 3.772,14.935027 -0.26759,0.267577 -4.61587,-2.328939 -11.129,-6.645429 l -6.83868,-4.53233 -3.30991,2.047106 c -1.82046,1.125878 -4.0911,2.67761 -5.04587,3.448302 -3.13663,2.531826 -9.88193,6.409737 -9.88118,5.680665 z"
         id="path609" /></g><path
       style="fill:#000000;stroke:none;stroke-width:0.267068"
       d="m 138.53669,294.72328 c 0.009,-2.32449 -1.15701,-24.81123 -1.29278,-24.94237 -0.0978,-0.0945 -3.90341,-1.87557 -8.45692,-3.95794 -8.50411,-3.88894 -14.90204,-7.08669 -17.23639,-8.61489 -1.88316,-1.2328 -1.90621,-1.33068 -3.31848,-14.09573 -0.51191,-4.62699 -1.48489,-12.55895 -2.16219,-17.62651 -1.76477,-13.20425 -1.63945,-14.50074 1.50696,-15.59067 1.28014,-0.44341 2.57646,-0.51684 11.23924,-0.63648 l 9.7922,-0.13521 -0.11447,-0.8324 c -0.31064,-2.25888 -0.90868,-8.94225 -0.90868,-10.15489 0,-1.74749 0.41058,-2.3225 2.42499,-3.39618 2.45785,-1.31006 2.3813,-0.81576 1.33939,-8.64678 -0.29315,-2.20331 -1.02149,-8.33252 -1.61852,-13.62052 -3.13418,-27.75964 -4.69923,-37.30426 -6.90595,-42.11659 -1.52366,-3.32275 -3.21681,-4.65749 -11.16706,-8.80329 l -4.0426,-2.10811 -0.19472,-7.27011 c -0.23606,-8.81402 -0.0951,-18.770094 0.27071,-19.117691 0.69167,-0.65733 16.69634,4.802283 23.87995,8.146041 7.30672,3.40108 13.63767,9.37492 17.08364,16.12015 2.27524,4.45361 3.21765,7.90919 4.03709,14.80289 0.29555,2.48645 0.57206,4.55547 0.61445,4.59786 0.0424,0.0422 2.0913,-0.58613 4.55312,-1.39667 3.36149,-1.1068 4.7815,-1.4537 5.70284,-1.39308 l 1.22682,0.0808 0.44286,1.6024 c 1.21089,4.38133 7.51572,15.32416 12.3115,21.36814 4.90666,6.1837 13.78971,13.96612 17.39347,15.2384 1.24318,0.43888 2.35286,0.32084 2.35286,-0.25026 0,-0.58359 -1.35074,-2.24041 -4.81864,-5.91045 -7.8129,-8.26845 -13.60248,-16.13357 -16.71032,-22.70082 -1.28115,-2.70727 -2.24012,-5.88891 -2.24012,-7.43221 0,-1.19594 0.6664,-2.75901 1.32702,-3.11259 1.72515,-0.92322 20.31413,-3.05732 32.59066,-3.7414 22.77062,-1.26898 63.67023,-1.39422 84.12653,-0.25761 6.53362,0.363 10.48197,0.69051 19.09538,1.584 4.11285,0.42662 9.40081,0.91111 11.75102,1.07651 4.92558,0.34683 5.63998,0.51906 6.68705,1.61198 2.10185,2.19381 0.59935,7.51983 -4.36674,15.47915 -4.1084,6.58457 -9.38814,12.76337 -15.93324,18.64623 -5.28683,4.75185 -6.42812,5.8686 -6.21522,6.08153 0.37989,0.37987 3.27032,-0.50181 5.66257,-1.72733 4.3267,-2.21657 8.90952,-5.85719 14.35726,-11.40548 6.99813,-7.12739 11.17707,-13.64482 14.62682,-22.81188 0.91208,-2.4236 1.68552,-4.43552 1.71878,-4.47086 0.0333,-0.0352 2.50202,0.77913 5.48614,1.80996 2.98412,1.03076 5.48227,1.81755 5.55145,1.74841 0.0692,-0.069 0.34078,-2.02541 0.60357,-4.34707 0.26277,-2.32173 0.74025,-5.24285 1.06105,-6.49144 1.55492,-6.05157 5.11181,-13.00949 8.35786,-16.34941 4.61591,-4.7494 16.19614,-10.915164 26.18944,-13.944279 4.44046,-1.34601 9.50656,-2.597666 9.79422,-2.419844 0.73107,0.451762 0.87417,2.510211 0.98399,14.152303 l 0.11334,12.01812 -4.3393,2.27008 c -6.7482,3.53023 -8.2769,4.65603 -9.97324,7.34437 -1.20694,1.91275 -1.89595,3.74693 -2.79453,7.43935 -1.46003,5.9996 -2.55189,13.60626 -5.9253,41.28021 l -1.93457,15.8702 0.64241,0.42095 c 1.69257,1.10925 2.82868,2.11847 3.19339,2.83681 0.31137,0.61326 0.41948,2.10436 0.48537,6.69433 l 0.0848,5.90532 9.1291,0.14778 c 13.05187,0.21124 13.5864,0.42401 13.57126,5.40105 -0.008,2.61445 -3.62508,30.76997 -4.85487,37.79013 -0.90454,5.1636 -0.32182,4.49332 -6.49687,7.47223 -2.95658,1.42626 -8.86082,4.19569 -13.12056,6.15427 -4.25974,1.95866 -7.82264,3.62981 -7.91754,3.71381 -0.15108,0.13367 -0.65004,9.0373 -1.20214,21.45138 l -0.1752,3.93931 h -7.45134 -7.45133 l 0.14275,-2.20331 c 0.0785,-1.21188 0.20959,-4.48681 0.29128,-7.27762 0.55421,-18.9342 2.29023,-39.47608 5.08429,-60.16121 1.45658,-10.78349 1.97532,-12.48798 5.62888,-18.49616 l 1.70872,-2.80998 -2.3808,-6.93807 c -4.5909,-13.37862 -6.10068,-17.07748 -7.06917,-17.31884 -2.58343,-0.644 -43.36756,-1.19847 -102.99458,-1.40036 -51.30652,-0.17368 -77.45838,0.0697 -93.26905,0.86911 l -9.27606,0.46886 -2.66363,8.02585 c -4.93945,14.88306 -5.06547,16.52983 -1.65937,21.6837 2.86115,4.32929 2.8934,4.49945 4.97664,26.26884 1.64113,17.1493 2.42009,26.67622 3.5921,43.93275 0.43896,6.46301 0.86383,12.56217 0.94416,13.55369 l 0.14606,1.80275 h -7.61331 c -7.07338,0 -7.61319,-0.033 -7.61161,-0.4674 z m 233.14605,-37.0934 c 2.13147,-0.82864 3.89912,-1.5233 3.92812,-1.54384 0.16037,-0.11352 2.7515,-34.95632 2.7515,-36.99944 0,-0.72761 -0.0379,-0.74425 -2.73745,-1.20114 -1.50559,-0.25486 -3.21732,-0.42172 -3.80383,-0.37075 -1.05952,0.092 -1.06762,0.10118 -1.25604,1.42795 -0.27608,1.94394 -0.91179,9.84179 -1.68746,20.96482 -0.37388,5.36143 -0.85646,11.70295 -1.0724,14.09229 -0.45358,5.01865 -0.45806,5.13662 -0.19523,5.13662 0.10857,0 1.94133,-0.67795 4.07279,-1.50651 z m -236.42443,-0.0291 c 0.37064,-1.32532 0.17856,-16.26548 -0.29272,-22.76758 -0.51805,-7.14747 -1.18087,-14.45544 -1.46077,-16.10589 -0.18959,-1.11791 -0.19236,-1.12013 -1.47219,-1.20222 -1.55558,-0.0997 -5.11659,0.60191 -6.00321,1.1829 -0.5647,0.36998 -0.62352,0.55823 -0.47815,1.53012 0.35364,2.36427 0.95653,11.39421 1.3489,20.20356 0.22572,5.06763 0.48298,10.54901 0.5717,12.18084 l 0.16131,2.96696 1.77871,0.74701 c 2.6516,1.11361 4.94145,1.96915 5.31228,1.98486 0.18081,0.008 0.42118,-0.31663 0.53414,-0.72056 z m 6.32434,-79.65072 2.2937,-2.80178 -0.003,-5.3438 c -0.005,-8.9227 -0.50857,-30.99508 -0.80515,-35.25539 -0.66598,-9.56709 -1.86617,-13.19858 -6.00193,-18.16067 -2.0556,-2.46637 -3.42835,-3.66943 -6.41011,-5.61789 -4.19152,-2.73908 -11.05264,-5.73255 -13.1391,-5.73255 -1.21158,0 -1.41613,0.41474 -1.41613,2.87091 0,3.50081 0.3357,3.90037 6.87336,8.18145 2.38491,1.56177 4.97036,3.47367 5.74545,4.24873 3.85743,3.85745 5.31393,9.65025 7.13184,28.36462 0.49982,5.14543 2.95017,31.80656 2.95017,32.0995 0,0.39995 0.734,-0.35319 2.78059,-2.85313 z m 219.78612,-5.53588 c 0.0969,-1.43668 0.53348,-9.16192 0.97005,-17.16731 1.16753,-21.40861 1.58793,-26.16061 2.70527,-30.57935 0.77781,-3.07595 1.83753,-5.10727 4.53115,-8.68548 1.30761,-1.73707 2.37748,-3.23599 2.37748,-3.33104 0,-0.095 -0.91388,0.64699 -2.03084,1.64885 -4.06829,3.64889 -7.7914,9.57513 -9.04908,14.4037 -1.00655,3.86435 -2.07556,21.86574 -2.11552,35.62362 -0.0265,9.14046 0.0658,9.82898 1.4135,10.53514 0.3831,0.20074 0.76971,0.3197 0.85913,0.26443 0.0894,-0.0552 0.24192,-1.27587 0.33886,-2.71256 z m -126.82272,1.77907 c 4.13598,-0.35756 7.67893,-1.08249 11.08493,-2.268 9.0053,-3.13458 25.44776,-11.35267 39.52453,-19.75479 8.10546,-4.83792 17.25195,-10.74056 17.01319,-10.97939 -0.26123,-0.26122 -6.90117,-1.16374 -10.60355,-1.44128 -6.02411,-0.45161 -39.95834,-0.63871 -51.9448,-0.28644 -12.15896,0.35733 -15.93362,0.60307 -23.3398,1.51962 -13.35278,1.65237 -17.13004,2.93147 -18.857,6.38536 -0.78339,1.56683 -0.8012,1.69146 -0.8012,5.60847 0,4.17883 0.42794,6.38283 1.7378,8.95045 1.70907,3.35004 5.35535,6.69786 9.43809,8.66563 6.3134,3.04284 16.82676,4.45798 26.74781,3.60037 z"
       id="path611" /><path
       style="fill:#000000;stroke:none;stroke-width:0.534137"
       d="m 157.09623,206.45254 -7.74498,-0.3292 0.0844,-2.51236 c 0.13674,-4.07283 4.93068,-18.28921 5.85549,-17.36438 0.1413,0.14127 -0.11583,3.09902 -0.5714,6.57277 -0.45556,3.47367 -0.82829,6.74645 -0.82829,7.27279 0,0.88934 0.78992,0.95687 11.18479,0.95687 h 11.18478 l 6.30819,-5.94242 c 8.17478,-7.70086 10.19758,-9.01338 13.89068,-9.01338 1.77478,0 2.83318,0.22887 2.83318,0.61265 0,0.78793 -3.02329,4.4858 -7.71456,9.43586 l -3.70854,3.91317 12.36358,-0.17062 12.36357,-0.17062 2.0277,-1.94654 c 3.14859,-3.02275 11.93926,-9.57406 14.31284,-10.66682 2.23606,-1.02946 8.50464,-1.40442 9.03848,-0.54068 0.33081,0.53531 -3.24303,3.983 -9.97058,9.61875 -2.56907,2.15211 -4.53788,4.12847 -4.3751,4.39183 0.16278,0.26336 2.65799,0.47882 5.54492,0.47882 h 5.24898 l 3.13215,-2.15648 c 1.72269,-1.18605 5.17523,-3.85936 7.67232,-5.94073 2.49709,-2.08137 5.86215,-4.4159 7.47791,-5.1879 l 2.93776,-1.40365 18.42771,-0.14839 c 10.13524,-0.0816 20.18263,0.0383 22.32753,0.26704 l 3.8998,0.41551 -5.50221,4.52888 c -6.49203,5.34357 -11.11066,9.59912 -11.11066,10.23737 0,0.83561 3.75311,0.47123 5.76325,-0.55953 1.65775,-0.8501 6.53006,-4.87586 16.35969,-13.51735 l 1.64615,-1.44719 14.68875,0.0314 c 8.07882,0.0176 15.28337,0.19721 16.01011,0.39964 1.25398,0.34936 1.07776,0.59862 -3.45577,4.88752 -2.62742,2.48568 -5.56556,5.27657 -6.52919,6.20194 -2.0024,1.92294 -2.28703,3.39174 -0.65726,3.39174 1.79353,0 3.82542,-1.30884 11.17325,-7.19714 7.58024,-6.07456 8.84134,-6.9117 9.65455,-6.40913 1.51583,0.93687 7.18785,15.28332 6.81596,17.23983 -0.13607,0.71581 -1.01431,0.98316 -4.17331,1.27012 -5.19027,0.47162 -183.72258,0.93189 -193.88658,0.49982 z"
       id="path613" /><path
       style="fill:#000000;stroke:none;stroke-width:0.534137"
       d="m 167.5119,457.4048 c -28.761,-0.56458 -30.99408,-0.85124 -34.74013,-4.45959 -2.95079,-2.84225 -3.51769,-4.87088 -3.83876,-13.73671 l -0.26351,-7.27632 -4.38086,-2.43939 -4.38085,-2.43939 -1.17913,-18.32645 c -1.6254,-25.26269 -1.61541,-25.53732 0.92832,-25.53732 0.79114,0 1.72687,-0.28842 2.0794,-0.64093 0.89652,-0.89654 0.82712,-11.96109 -0.19648,-31.32329 -0.46059,-8.71254 -0.68776,-16.85222 -0.50483,-18.08824 0.39598,-2.67538 2.08271,-4.28514 7.06403,-6.74146 l 3.35857,-1.65621 v -9.72651 -9.72651 l 3.73896,-3.32298 c 2.99597,-2.66267 3.73896,-3.62896 3.73896,-4.86268 v -1.5397 l 7.34438,0.14862 7.34438,0.14854 0.40837,8.81326 c 0.22461,4.84735 0.58515,9.8949 0.8012,11.21692 0.37853,2.31606 0.46092,2.4036 2.26231,2.4036 1.82363,0 1.87356,-0.0567 2.03602,-2.31691 0.28435,-3.95617 -5.80983,-96.45442 -6.65305,-100.98077 l -0.33749,-1.81164 96.61886,0.34062 c 53.14036,0.1874 98.01918,0.49308 99.7307,0.67941 l 3.11184,0.3387 -0.30682,2.46767 c -1.391,11.18688 -5.77319,78.70696 -5.84548,90.06607 l -0.0714,11.21685 1.70219,0.16486 c 1.56222,0.15131 1.74999,0 2.28355,-1.86951 0.31974,-1.11882 0.71054,-5.75992 0.86843,-10.3134 0.41446,-11.95229 -0.53334,-10.68277 7.97529,-10.68277 h 7.20066 l 0.0169,2.27007 c 0.0163,2.19512 0.13319,2.34849 3.53784,4.64401 l 3.5209,2.37393 -0.34286,5.63813 c -0.18858,3.10101 -0.48818,7.4841 -0.66578,9.7403 l -0.32292,4.10211 6.02227,3.0203 6.02227,3.0203 -0.347,11.83938 c -0.19084,6.51168 -0.62525,17.99833 -0.96534,25.5259 -0.3401,7.52749 -0.46833,14.07734 -0.28496,14.55524 0.19601,0.51078 0.94551,0.87209 1.81902,0.87692 3.21562,0.0176 3.15243,-0.57715 1.85358,17.4503 -0.65223,9.05255 -1.33453,18.75676 -1.51623,21.56482 l -0.33035,5.10558 -3.3562,1.74013 c -4.43374,2.29874 -5.15638,3.79835 -5.47432,11.36018 -0.21911,5.21112 -0.15561,5.70941 0.76197,5.97898 1.14354,0.33602 14.92652,1.22023 26.37249,1.69192 11.63547,0.4795 42.58582,2.23604 70.77312,4.01664 13.80743,0.87217 26.06587,1.61121 27.24097,1.64225 l 2.13655,0.0567 -1.86948,0.44142 c -9.47415,2.23681 -258.80074,4.60514 -332.5001,3.15834 z m -2.40362,-8.55142 c 0,-0.31311 -0.25477,-1.04532 -0.56616,-1.62716 -0.31139,-0.58183 -0.78641,-2.4111 -1.05559,-4.06508 -0.92405,-5.67752 -2.6293,-5.02594 -2.64316,1.00999 -0.005,1.95896 0.13772,3.94191 0.31603,4.40662 0.36826,0.95963 3.94888,1.20958 3.94888,0.27563 z m 11.21687,0.25707 c 0,-0.17169 -1.06686,-1.67398 -2.3708,-3.33838 -2.86579,-3.65801 -3.5047,-5.23266 -3.5047,-8.63781 0,-1.43247 -0.24036,-2.75296 -0.53413,-2.93454 -0.341,-0.21078 -0.52953,1.37131 -0.5214,4.37513 0.0132,4.87081 0.58675,8.45608 1.49865,9.36803 0.8192,0.81913 5.43238,1.81065 5.43238,1.16757 z m 166.41818,-0.38661 c 0.14748,-0.38431 0.20003,-3.5691 0.11678,-7.07734 l -0.15137,-6.37854 -1.59444,6.40966 c -0.87693,3.52534 -1.67573,6.71012 -1.7751,7.07734 -0.24732,0.91395 3.05307,0.88375 3.40413,-0.0314 z m -9.0693,-1.09698 c 0.15354,-0.4001 0.20608,-2.11302 0.11677,-3.80647 l -0.16239,-3.07902 -3.37875,3.80648 -3.37876,3.80647 h 3.26199 c 2.25988,0 3.34774,-0.2235 3.54114,-0.72746 z m -30.94557,-5.76421 c -0.19087,-2.68911 -0.34704,-6.33163 -0.34704,-8.09461 v -3.20525 l -13.64487,0.37581 c -7.50467,0.20671 -14.15913,0.56604 -14.78767,0.79859 -0.72068,0.26658 -1.35533,1.19402 -1.7182,2.5109 -0.45385,1.64708 -1.02534,2.31384 -2.70531,3.15643 -1.97533,0.99074 -3.19597,1.06831 -16.81867,1.06831 -8.07881,0 -15.60352,-0.19369 -16.72156,-0.43038 -2.48208,-0.52557 -4.10977,-2.0527 -4.10977,-3.85599 0,-0.9387 -0.3967,-1.49938 -1.30543,-1.84483 -2.00156,-0.76103 -13.08523,-1.60216 -21.19217,-1.6083 l -7.2747,-0.008 -0.26348,7.34438 c -0.14491,4.03941 -0.15654,7.46456 -0.0258,7.61149 0.37616,0.42272 30.01182,0.84773 67.13058,0.96262 l 34.1312,0.10562 z m 68.41528,-19.57643 c 1.83181,-0.22519 3.55986,-0.64131 3.84011,-0.92467 0.28024,-0.28337 0.89792,-6.16378 1.37261,-13.06743 0.4747,-6.90373 1.06892,-13.75404 1.32049,-15.22292 0.25157,-1.46887 0.41675,-2.71256 0.36707,-2.76376 -0.1401,-0.14433 -31.66214,3.42745 -35.86942,4.0644 -2.05642,0.31134 -8.28425,1.33275 -13.8396,2.26984 l -10.10064,1.7038 -2.1845,-2.45556 c -1.20148,-1.35061 -4.3501,-4.82076 -6.99694,-7.71145 -2.64685,-2.89076 -5.43799,-6.06375 -6.20253,-7.05112 l -1.39009,-1.79524 -2.90638,0.84489 c -1.59852,0.46471 -8.15892,3.52004 -14.57869,6.78952 l -11.6723,5.94456 -21.68266,-0.22718 -21.68265,-0.22718 -4.27309,-2.50799 c -4.53394,-2.66105 -18.3894,-9.57575 -20.4612,-10.21131 -1.06337,-0.32621 -1.94189,0.37427 -6.40964,5.11079 -2.84755,3.01885 -6.90976,7.27816 -9.02712,9.46507 -4.44814,4.59433 -2.71186,4.37459 -16.18037,2.04787 -8.13834,-1.40587 -24.50758,-3.56366 -37.1225,-4.89342 -8.97367,-0.94591 -8.81422,-1.03719 -8.81137,5.04388 0.002,4.56598 0.88176,19.64962 1.40017,24.01003 l 0.34242,2.88019 119.70912,-0.35304 c 65.84002,-0.19415 121.20788,-0.5373 123.0397,-0.76257 z M 183.73003,388.85366 c 0.98804,-0.52074 5.0141,-3.95823 8.94679,-7.63886 l 7.15035,-6.6921 -0.006,-34.25791 c -0.003,-18.84183 -0.15986,-35.19001 -0.34805,-36.32923 -0.31679,-1.91772 -0.7225,-2.31728 -5.46903,-5.38626 -6.30218,-4.07474 -24.50761,-14.95081 -27.07743,-16.17626 -1.6389,-0.78157 -1.95017,-0.79644 -2.41296,-0.11566 -0.58659,0.8629 -0.16891,21.88023 0.60312,30.34933 0.65706,7.20787 1.70526,8.99292 11.53052,19.63545 11.5044,12.46138 18.82517,21.56996 17.33622,21.56996 -0.93593,0 -10.09857,-6.45573 -19.79508,-13.94712 -13.76814,-10.63701 -17.46506,-13.29385 -18.4982,-13.29385 -0.51071,0 -6.80911,2.89498 -13.99646,6.43335 l -13.06791,6.43334 0.36736,12.12789 c 0.38833,12.82062 1.36257,32.83685 1.6103,33.08458 0.12205,0.12202 7.86507,1.11997 39.84595,5.13524 4.22425,0.5304 11.47072,0.0222 13.28038,-0.93189 z m 158.71163,-0.32927 c 18.78152,-2.21267 30.03088,-3.6735 30.29095,-3.93356 0.85364,-0.85363 2.68475,-44.48661 1.89985,-45.27133 -0.22531,-0.22527 -5.68951,-2.94542 -12.14266,-6.04482 -13.63882,-6.55062 -14.35219,-6.69065 -19.20083,-3.77099 -1.70275,1.02532 -7.57746,5.43731 -13.05493,9.80446 -5.47747,4.36708 -11.40121,8.908 -13.16386,10.0909 -3.593,2.41118 -7.74499,4.60921 -7.74499,4.10011 0,-0.82687 7.71398,-10.05617 18.02103,-21.56106 l 11.22247,-12.52676 0.38947,-16.13318 c 0.40152,-16.63232 0.212,-20.21253 -1.09653,-20.71465 -1.10692,-0.42478 -1.5273,-0.2143 -14.11474,7.06539 -12.17988,7.04407 -14.92944,8.77577 -18.56125,11.69014 l -2.27009,1.82161 v 34.88435 34.88434 l 6.88483,6.67042 c 7.73553,7.4946 10.002,9.35806 12.17583,10.01056 2.6113,0.7838 6.47051,0.58276 20.46545,-1.06593 z m -58.14521,-9.47427 11.13566,-5.74198 0.002,-19.45709 c 0.002,-10.70147 0.26588,-28.92614 0.58746,-40.49932 0.32159,-11.57326 0.46878,-21.15813 0.32709,-21.29985 -0.40592,-0.40592 -24.88728,-6.95639 -31.75551,-8.49678 -9.29249,-2.08412 -13.52532,-2.43977 -18.56392,-1.55955 -7.43683,1.29911 -32.06774,7.77798 -36.31268,9.55168 -1.58661,0.66293 -1.8453,1.05697 -2.1862,3.33027 -0.42896,2.86049 0.14131,67.88246 0.6558,74.77485 l 0.32518,4.35635 11.01396,5.36664 11.01397,5.36664 21.31038,0.0253 21.31038,0.0253 11.13566,-5.7419 z M 199.9286,289.98508 c 0.20295,-1.41875 0.80396,-3.0072 1.33559,-3.52978 1.47447,-1.44949 42.79916,-11.63274 49.16618,-12.11547 1.74078,-0.13206 5.37351,0.3243 9.61446,1.20759 10.88225,2.26662 40.30182,9.83903 41.64504,10.71917 0.95528,0.62591 1.22748,1.30117 1.23386,3.06085 0.0107,2.94764 0.59288,3.82617 2.25846,3.40814 1.56763,-0.39343 3.94788,-4.63059 5.74709,-10.2307 1.89647,-5.90272 1.76413,-5.80744 18.61063,-13.40598 11.27731,-5.08665 13.42705,-6.38184 13.43225,-8.093 0.002,-0.73375 -0.32053,-1.20184 -0.82876,-1.20184 -0.45782,0 -4.60405,1.179 -9.21386,2.61997 -16.39137,5.12375 -18.47145,5.58463 -24.93969,5.52561 -6.36092,-0.0582 -13.82988,-0.91924 -28.84338,-3.32582 -15.59352,-2.49956 -19.94864,-2.85949 -30.44579,-2.51642 -6.76847,0.22121 -12.61856,0.79016 -19.76306,1.9221 -16.61366,2.63208 -23.57107,3.36261 -32.58234,3.42116 -9.74733,0.0628 -10.93216,-0.13865 -24.76381,-4.21899 -10.77021,-3.17728 -11.99586,-3.38208 -11.72501,-1.95873 0.38992,2.0491 7.68583,5.77034 22.86833,11.66409 l 7.21085,2.79917 1.91612,5.25381 c 1.05387,2.88962 2.30704,6.00619 2.78482,6.92573 1.26606,2.43671 3.61723,5.08082 4.31194,4.84927 0.3306,-0.11022 0.76714,-1.36118 0.97008,-2.77993 z m 108.40908,-28.5275 c 2.22718,-1.75186 11.69313,-21.51959 14.60369,-30.49688 0.52385,-1.61573 2.0026,-5.19954 3.2861,-7.96399 1.28351,-2.76453 2.23714,-5.12283 2.11917,-5.24079 -0.22602,-0.22603 -13.72932,0.70217 -18.12471,1.24591 -1.70913,0.21147 -2.67724,0.61433 -2.87873,1.19793 -2.2582,6.54149 -7.20097,17.96897 -11.5236,26.64211 -2.96234,5.9438 -5.20193,10.99097 -4.97688,11.21601 0.55143,0.55148 1.61679,-0.95227 4.06078,-5.73172 4.26394,-8.33842 4.98569,-7.61601 1.33044,1.33168 -1.31929,3.22947 -2.39871,6.15772 -2.39871,6.50716 0,0.84297 1.51624,1.28239 6.09001,1.76481 6.15474,0.64921 7.05079,0.59885 8.41244,-0.47223 z m -99.21973,-1.07421 c 1.20624,-0.55279 4.47659,-3.1129 7.26746,-5.68925 9.79524,-9.0422 29.68266,-27.9531 33.38354,-31.74432 l 3.73896,-3.83024 -4.58246,0.17859 c -4.42271,0.17238 -4.68342,0.25501 -7.47792,2.36979 -1.5925,1.20521 -8.427,7.33442 -15.18777,13.62052 -6.76078,6.28611 -15.9546,14.76043 -20.43073,18.8318 -4.47613,4.07137 -8.13841,7.53201 -8.13841,7.69021 0,0.67741 9.39539,-0.49591 11.42733,-1.4271 z m -19.54284,-2.04818 c 1.81225,-1.10166 6.12224,-4.54812 9.57775,-7.65887 7.53121,-6.77979 30.58597,-29.27657 30.58597,-29.84575 0,-0.22106 -4.98751,-0.5593 -11.08334,-0.75169 -6.09583,-0.19238 -13.38665,-0.49476 -16.20181,-0.67197 l -5.11849,-0.32215 -11.51298,12.21404 c -15.53488,16.48093 -18.57738,20.03945 -18.57738,21.72846 0,1.88676 1.41905,2.74897 8.01205,4.86835 9.54016,3.06668 9.97464,3.08001 14.31823,0.43958 z m 142.84007,-2.72989 c 0.50782,-0.48525 1.40857,-2.7797 2.00167,-5.09868 1.88906,-7.38615 3.19124,-18.44204 1.98234,-16.83075 -0.0918,0.12241 -1.44675,3.82802 -3.01092,8.23464 -1.56418,4.40663 -3.30515,9.30603 -3.86883,10.88765 -0.56367,1.58155 -0.89247,3.2205 -0.73066,3.64222 0.35291,0.9197 2.24642,0.48365 3.6264,-0.83508 z"
       id="path615" /><path
       style="fill:#f9c501;stroke:none;stroke-width:0.534137;fill-opacity:1"
       d="m 35.580135,453.87939 c -15.863861,-0.39933 -29.4442859,-0.87661 -30.1787238,-1.06057 -1.3351133,-0.33449 -1.3350651,-0.33464 0.2856375,-0.78257 3.1369106,-0.86704 68.5965783,-11.15308 80.9031403,-12.71278 2.497089,-0.31648 11.029923,-1.2978 18.961851,-2.18071 7.93193,-0.8829 15.08269,-1.74511 15.89057,-1.91596 l 1.46887,-0.31073 v 3.71458 c 0,2.04304 -0.14398,4.4346 -0.31996,5.31452 l -0.31998,1.59986 -6.75734,0.36193 c -11.53704,0.61802 -28.507283,1.9234 -31.798964,2.44606 -5.17251,0.82128 -4.943377,1.21487 1.600439,2.74935 2.610524,0.61211 6.068391,1.48658 7.684155,1.94325 l 2.937752,0.83025 -2.136547,0.41328 c -3.030862,0.58628 -24.712978,0.43368 -58.2209,-0.40976 z"
       id="path617" /><path
       style="fill:#000000;stroke:none;stroke-width:0.534137"
       d="m 236.14846,377.82705 c -1.32198,-0.23638 -6.60994,-2.36381 -11.751,-4.72778 l -9.34739,-4.29801 -0.34264,-7.62806 c -0.60134,-13.38797 -1.17262,-57.74236 -0.77745,-60.36264 0.45557,-3.02083 -1.23821,-2.38044 21.21528,-8.02148 l 15.28798,-3.84082 5.00922,0.94768 c 6.79191,1.28492 22.815,5.32908 29.13381,7.35319 l 5.15856,1.65245 -0.35226,24.11688 c -0.19373,13.26433 -0.50977,28.94315 -0.7023,34.84188 l -0.35007,10.72485 -10.3743,4.89862 -10.3743,4.89863 -14.51476,-0.0628 c -7.98312,-0.0345 -15.59639,-0.25615 -16.91838,-0.49254 z m 17.16051,-4.601 c 1.08959,-1.3129 1.08959,-73.30207 0,-74.61497 -1.08045,-1.30186 -2.15527,-1.07743 -2.80489,0.58559 -0.79755,2.04174 -0.79612,71.39638 0.002,73.44379 0.64788,1.66302 1.72284,1.88753 2.80338,0.58559 z m -18.64456,-2.05447 c 0.25424,-0.88129 0.31509,-5.328 0.13523,-9.88149 -0.17987,-4.55356 -0.52036,-19.05292 -0.75666,-32.22084 -0.28848,-16.07577 -0.62164,-24.13366 -1.01405,-24.52602 -0.42311,-0.42317 -0.6998,-0.30184 -1.00252,0.43965 -0.54699,1.33972 -0.5455,64.6638 0.002,66.62483 0.54594,1.95689 2.01625,1.71369 2.63642,-0.43613 z m 36.32129,0.40064 c 0.45477,-1.06701 0.62179,-9.79833 0.61048,-31.91471 -0.0149,-29.10166 -0.25374,-35.87677 -1.24336,-35.26513 -0.60374,0.37313 -0.95323,8.61574 -1.68874,39.82805 -0.47926,20.33853 -0.47754,26.73539 0.008,27.6416 0.84314,1.57541 1.55732,1.48596 2.31417,-0.28981 z"
       id="path619" /><path
       style="fill:#000000;stroke:none;stroke-width:0.094423"
       d="m 175.79722,385.71188 c -0.20773,-0.0199 -1.03629,-0.0822 -1.84125,-0.13866 -6.11263,-0.42831 -23.45477,-2.57207 -30.51334,-3.77198 -3.19648,-0.54336 -8.28536,-1.47057 -8.33106,-1.51801 -0.0778,-0.0806 -1.09558,-9.23398 -1.18572,-10.66322 -0.24234,-3.84258 -0.20354,-9.73663 0.0926,-14.06899 0.14862,-2.17396 0.64826,-7.74532 0.80736,-9.00273 0.28274,-2.23435 0.65763,-3.35034 1.22735,-3.65341 0.4585,-0.24397 1.88304,-0.16686 3.28117,0.17744 5.53604,1.36349 16.22343,5.0438 20.38589,7.02016 0.76519,0.36331 1.55303,0.68224 1.75074,0.70876 1.08249,0.14517 0.68529,-1.06348 -1.61975,-4.9286 -1.77355,-2.97393 -3.06635,-5.78812 -3.23201,-7.03556 -0.0448,-0.33718 -0.0187,-0.47284 0.12504,-0.65036 0.16511,-0.20388 0.21104,-0.21446 0.50548,-0.1162 1.41474,0.472 6.2991,5.56501 10.38763,10.83139 3.03184,3.9052 4.62171,6.47098 7.19196,11.6063 2.57046,5.13577 5.20435,11.25609 6.58075,15.29159 0.83729,2.45487 1.07345,3.42968 1.06488,4.39559 -0.016,1.80467 -1.01949,4.31879 -1.97509,4.9483 -0.5836,0.38446 -1.35008,0.535 -2.90862,0.57133 -0.77898,0.0184 -1.5863,0.0169 -1.79403,0 z m -0.48794,-11.21225 c 0.21556,-0.24742 0.16788,-0.52726 -0.24348,-1.42895 -0.5237,-1.14787 -1.86581,-3.6541 -2.38272,-4.44947 -2.03408,-3.12975 -5.64991,-6.04827 -10.4994,-8.4747 -1.36852,-0.6847 -2.07949,-1.00432 -4.64443,-2.08804 -2.32496,-0.98224 -4.18893,-1.84974 -8.13324,-3.78524 -5.06452,-2.48515 -6.29761,-2.9734 -7.5008,-2.96987 -0.60927,0 -0.90804,0.15353 -1.11515,0.56643 -0.31293,0.62399 -0.23627,0.88765 0.47198,1.62339 2.51787,2.61538 14.88608,11.33765 23.62933,16.66374 5.23154,3.18686 7.35774,4.21608 9.4895,4.5935 0.34423,0.0605 0.75303,-0.0498 0.92841,-0.25079 z"
       id="path621" /><path
       style="fill:#000000;stroke:none;stroke-width:0.188846"
       d="m 323.91172,385.36842 c -0.66649,-0.32024 -1.14904,-0.72724 -1.51076,-1.27435 -0.48618,-0.73528 -0.53098,-0.94981 -0.52557,-2.51649 0.007,-1.99246 0.33302,-3.3551 1.96918,-8.22782 4.04501,-12.04672 10.76271,-23.29652 18.873,-31.60574 2.27836,-2.33431 4.0077,-3.70845 4.66687,-3.70845 1.11763,0 0.31282,2.24524 -2.50661,6.99295 -2.98945,5.03399 -3.27233,5.65967 -2.55872,5.65967 0.58883,0 5.53824,-1.74381 14.20358,-5.00433 6.93646,-2.61001 8.62536,-3.17888 9.67362,-3.25852 1.23465,-0.0937 1.28547,-0.0798 1.82724,0.50012 0.84348,0.90299 1.14825,2.6038 1.37411,7.66837 0.37866,8.49126 -0.13862,28.5055 -0.76274,29.51135 -0.35557,0.57301 -35.67366,5.35828 -41.57219,5.63268 -2.03667,0.0947 -2.23261,0.072 -3.15101,-0.36944 z m 8.24985,-11.51325 c 0.88286,-0.35856 2.50135,-1.16175 3.59666,-1.78497 8.1007,-4.60867 24.56997,-16.20975 27.23243,-19.18261 0.59128,-0.66024 0.69538,-1.6293 0.21761,-2.0258 -0.49234,-0.40861 -3.00326,0.5685 -8.29077,3.22649 -2.59663,1.30523 -6.46325,3.12385 -8.59249,4.04124 -8.74178,3.76655 -12.15728,6.00543 -14.52511,9.52133 -1.19213,1.77018 -3.03562,5.67568 -3.03667,6.43335 l -7.7e-4,0.64008 0.89702,-0.10861 c 0.49336,-0.0598 1.61936,-0.40194 2.50221,-0.7605 z"
       id="path623" /><path
       style="fill:#000000;stroke:none;stroke-width:0.188846"
       d="m 361.05499,416.47242 c -0.36353,-0.0345 -1.11065,-0.15521 -1.66027,-0.26834 -1.19714,-0.24658 -1.19883,-0.22067 0.17725,-2.7246 1.6529,-3.00773 2.78418,-5.45217 3.12548,-6.7535 0.32611,-1.24338 0.32528,-1.2771 -0.041,-1.64294 -0.60284,-0.60214 -2.51152,-0.7546 -9.53299,-0.76157 -9.74342,-0.01 -16.05189,-0.45835 -16.05189,-1.14159 0,-0.47598 2.61473,-0.8941 11.80287,-1.8873 9.79762,-1.05911 17.24466,-2.06726 20.33144,-2.75241 0.40735,-0.0904 0.56847,-0.0107 0.84981,0.41918 0.31601,0.48311 0.3458,0.98056 0.33189,5.54255 -0.0177,5.79648 -0.31021,8.30753 -1.16586,10.00781 -0.67331,1.33788 -1.2053,1.69958 -2.80202,1.9053 -1.24824,0.16081 -3.96544,0.18986 -5.36471,0.0575 z"
       id="path625" /><path
       style="fill:#000000;stroke:none;stroke-width:0.188846"
       d="m 225.27483,418.28269 c -19.63712,-0.16487 -22.38482,-0.35465 -25.80202,-1.78175 -3.67519,-1.53495 -4.16083,-1.66035 -6.0185,-1.55465 -1.02645,0.0583 -2.97117,0.40141 -4.91,0.86604 -3.95718,0.94821 -6.53575,1.40457 -6.74627,1.1941 -0.37956,-0.37956 1.91558,-3.91348 5.55148,-8.54783 6.58112,-8.38824 13.62909,-15.88676 16.61646,-17.6787 1.3934,-0.83577 1.64267,-0.91096 1.78564,-0.53838 0.21211,0.55279 -1.21975,3.07603 -4.58809,8.08526 -1.79925,2.67577 -3.27135,4.91396 -3.27135,4.97374 0,0.17484 105.96321,-0.0598 106.75948,-0.23615 l 0.72254,-0.16027 -1.21365,-1.98287 c -0.6675,-1.09062 -2.10968,-3.36729 -3.20484,-5.05929 -1.99679,-3.08507 -3.69879,-6.17742 -3.50605,-6.37011 0.63123,-0.63127 16.88931,15.89772 21.51447,21.87295 1.34732,1.74059 3.04561,4.43736 3.28262,5.21265 l 0.13883,0.45406 -1.19719,-0.12509 c -0.65844,-0.069 -2.99749,-0.54941 -5.19786,-1.06785 -5.73517,-1.35145 -6.35588,-1.32386 -10.25928,0.45666 -2.08887,0.95281 -3.63229,1.33643 -6.52465,1.62171 -5.16942,0.50979 -37.6449,0.67044 -73.93177,0.36577 z"
       id="path627" /><path
       style="fill:#000000;stroke:none;stroke-width:0.094423"
       d="m 137.74478,416.54409 c -2.10438,-0.10064 -2.63957,-0.35703 -3.20116,-1.53357 -1.34088,-2.80921 -2.2683,-9.3957 -1.97181,-14.0036 0.17593,-2.73418 0.24874,-2.79189 2.81239,-2.22784 4.28469,0.94269 13.82041,2.19618 23.51131,3.09074 4.72733,0.43635 6.82963,0.7411 7.74219,1.12243 0.62237,0.26006 0.37655,0.47452 -0.81928,0.71489 -2.2853,0.45935 -5.0846,0.57141 -15.77505,0.6315 -7.9667,0.0444 -9.41869,0.0736 -9.41869,0.18457 0,0.072 0.19256,0.9062 0.4279,1.85288 0.67083,2.69838 1.18741,4.10402 2.71465,7.38661 0.69808,1.50045 0.989,2.27352 0.89206,2.37048 -0.15903,0.15897 -1.48392,0.32529 -3.27923,0.41152 -1.06461,0.0514 -1.9994,0.0872 -2.0773,0.08 -0.0779,-0.008 -0.77899,-0.0437 -1.55798,-0.0806 z"
       id="path629" /><path
       style="fill:#000000;stroke:none;stroke-width:0.188846"
       d="m 192.06343,335.62776 c -0.80067,-1.49777 -1.20233,-5.40136 -2.10016,-20.41035 -0.20708,-3.46171 -0.41955,-6.36367 -0.47215,-6.44875 -0.0526,-0.0852 -2.11422,-1.70648 -4.5814,-3.60298 -8.91436,-6.85237 -12.6621,-10.03563 -12.46721,-10.58941 0.24376,-0.69259 3.21786,0.34906 8.92566,3.126 6.12558,2.98029 9.82081,5.15839 11.65167,6.86801 1.57609,1.47179 1.56917,1.4199 1.55689,11.65359 -0.008,6.94535 -0.081,9.57398 -0.33433,12.08611 -0.58536,5.8056 -1.44466,8.69146 -2.17897,7.31778 z"
       id="path631" /><path
       style="fill:#000000;stroke:none;stroke-width:0.188846"
       d="m 310.75546,334.27639 c -1.01281,-1.86085 -1.43176,-8.30179 -1.43993,-22.13784 l -0.005,-7.29571 2.50221,-1.60009 c 4.98867,-3.19008 12.55255,-7.43023 15.62672,-8.75991 1.48973,-0.64438 3.21066,-1.04471 3.21066,-0.74686 0,1.14964 -4.47211,5.13156 -13.06086,11.62922 l -3.12024,2.36059 -0.32534,4.53233 c -0.8467,11.79562 -1.82658,21.02193 -2.39002,22.50383 -0.24447,0.643 -0.43506,0.55041 -0.99889,-0.48556 z"
       id="path633" /><g
       id="g1969"
       style="fill:#000000"><path
         style="fill:#000000;stroke:none;stroke-width:0.188846"
         d="m 510.99858,432.65198 c -2.52566,-0.23531 -3.55721,-0.64653 -6.26949,-2.49887 -4.19831,-2.86731 -5.84971,-5.90869 -6.69498,-12.33016 -0.60735,-4.61411 -0.50623,-38.38875 0.13739,-45.88956 0.38018,-4.43062 1.04907,-6.44163 2.99975,-9.01837 3.21468,-4.24651 8.89399,-6.23705 16.0142,-5.61283 5.46116,0.47874 8.7118,2.00119 11.44957,5.36242 2.40113,2.94795 3.64251,7.09122 4.16624,13.9055 0.15525,2.0199 0.33216,4.24613 0.39313,4.94722 l 0.11088,1.27465 h -6.14893 -6.14892 l -0.005,-2.97431 c -0.0139,-9.64511 -0.85868,-11.24115 -5.94436,-11.23057 -2.60617,0.008 -3.4639,0.40279 -4.27231,1.9792 -0.86843,1.69353 -1.18813,8.57503 -1.19526,25.72817 -0.007,16.60418 0.22595,20.33347 1.44753,23.18223 0.81193,1.89343 2.54144,2.64282 5.22426,2.26356 1.7908,-0.25316 2.74156,-0.88903 3.47581,-2.3248 0.83345,-1.62968 1.06648,-3.46401 1.20389,-9.47687 l 0.12409,-5.42933 h 6.12078 6.12079 l -0.1097,1.46358 c -0.0603,0.80496 -0.19649,3.12071 -0.30257,5.14605 -0.23028,4.39651 -0.45714,6.47198 -0.97018,8.87572 -1.6604,7.77959 -5.76284,11.54483 -13.56233,12.44751 -2.29813,0.26604 -5.71691,0.36338 -7.36499,0.20986 z"
         id="path635" /><path
         style="fill:#000000;stroke:none;stroke-width:0.188846"
         d="m 569.72964,431.78724 c -0.15579,-0.0337 -0.75139,-0.11221 -1.32354,-0.17483 -0.57216,-0.0629 -1.14926,-0.18128 -1.28245,-0.2636 -0.1927,-0.11911 -0.10458,-1.0529 0.4314,-4.57165 0.72192,-4.73935 5.60267,-35.56428 8.93802,-56.44901 l 2.03574,-12.74704 7.54492,0.008 c 7.5434,0.008 9.47928,0.14302 10.03256,0.70193 0.12781,0.12916 0.4122,1.46696 0.63199,2.97301 0.58059,3.9784 2.94864,19.09393 6.41997,40.9796 4.12536,26.00893 4.50709,28.56835 4.30047,28.83355 -0.36344,0.46648 -2.09736,0.66024 -6.78584,0.7582 -4.61221,0.0963 -4.84805,0.0844 -4.94818,-0.25141 -0.0579,-0.19384 -0.4518,-2.38819 -0.87548,-4.87617 -0.86088,-5.05537 -1.16224,-6.26602 -1.74391,-7.00544 -0.76466,-0.97212 -1.16939,-1.02915 -7.3027,-1.02915 h -5.65644 l -0.10615,0.51929 c -0.0584,0.28566 -0.44256,2.56241 -0.85371,5.05951 -1.02064,6.19896 -1.33881,7.03572 -2.83304,7.45077 -0.60499,0.16809 -5.91989,0.23622 -6.62363,0.0849 z m 20.20372,-23.51658 c 1.09084,-0.25132 1.51355,-0.64499 1.51355,-1.40947 0,-2.13755 -3.49827,-25.46289 -4.5374,-30.25391 -0.41744,-1.92462 -0.13363,-3.4332 -3.40169,18.08203 -1.03337,6.80317 -1.92927,12.6881 -1.9909,13.07755 l -0.11203,0.70822 3.84072,-0.008 c 2.1124,0 4.22189,-0.0924 4.68775,-0.19975 z"
         id="path637" /><path
         style="fill:#000000;stroke:none;stroke-width:0.188846"
         d="m 643.56837,394.59488 v -37.29706 l 1.55797,3.1e-4 c 2.07705,3.8e-4 10.72846,0.33112 14.96604,0.5721 8.78693,0.49974 11.51503,1.74005 15.24834,6.93278 2.03229,2.82676 2.21812,4.22604 2.21341,16.66711 -0.004,9.16951 -0.129,11.45491 -0.7372,13.42162 -0.83014,2.6845 -3.60454,5.8742 -6.34735,7.29762 -3.04485,1.58017 -6.04306,2.13111 -11.59726,2.13111 h -3.21782 v 13.7857 13.78577 h -6.04306 -6.04307 z m 19.92882,-1.99399 c 1.61151,-0.82956 1.94857,-1.84813 2.37121,-7.16502 0.30198,-3.79912 0.1269,-11.45239 -0.29296,-12.8056 -0.78229,-2.52125 -3.36597,-3.89026 -7.79642,-4.13116 l -2.12452,-0.11551 v 12.41547 12.41546 l 3.45203,-0.0652 c 3.26683,-0.0621 3.5024,-0.0911 4.39066,-0.54841 z"
         id="path639" /><path
         style="fill:#000000;stroke:none;stroke-width:0.188846"
         d="m 712.85056,431.69978 c -1.09988,-0.18579 -1.61711,-0.45981 -1.7685,-0.93678 -0.19236,-0.60613 1.13499,-9.41571 6.70146,-44.47734 1.96229,-12.35997 3.75765,-23.74736 3.98968,-25.3053 0.28644,-1.92332 0.51725,-2.91537 0.71894,-3.09021 0.41382,-0.35871 16.96753,-0.15881 17.30796,0.20902 0.21079,0.22772 1.27261,6.69265 8.1032,49.33726 4.01629,25.07436 3.81473,23.69202 3.48438,23.89621 -0.1476,0.0912 -0.73648,0.23309 -1.30863,0.31533 -1.32112,0.18993 -8.23934,0.19606 -8.91004,0.008 -0.27763,-0.0779 -0.76606,-0.36148 -1.08541,-0.6302 -0.84164,-0.70815 -1.23868,-2.24478 -1.98924,-7.69872 -0.35525,-2.58142 -0.67604,-4.72365 -0.71286,-4.76051 -0.079,-0.079 -13.6159,0.50771 -13.71729,0.59455 -0.0653,0.056 -1.70746,11.99038 -1.71929,12.4948 -0.005,0.18211 -0.94372,0.23101 -4.11292,0.21385 -2.25907,-0.0123 -4.50072,-0.0887 -4.98144,-0.16993 z m 21.54773,-23.47143 c 0.81252,-0.27915 1.16659,-0.93188 1.0443,-1.925 -0.97712,-7.93587 -3.66888,-24.97281 -4.25922,-26.95775 -0.86956,-2.92388 -1.3584,-1.36441 -2.9154,9.30066 -0.47765,3.2717 -1.26048,8.45554 -1.73963,11.5196 -0.47914,3.06399 -0.87911,6.07724 -0.88881,6.69602 -0.016,1.01849 0.0271,1.14795 0.45447,1.3664 0.63093,0.32238 7.36601,0.32245 8.30429,7e-5 z"
         id="path641" /><path
         style="fill:#000000;stroke:none;stroke-width:0.267068"
         d="m 800.64893,432.72602 c -4.14118,-0.5734 -7.0807,-1.95452 -9.69489,-4.55502 -3.02934,-3.01355 -4.31663,-6.32903 -4.7699,-12.28524 -0.71568,-9.40421 -0.55017,-37.26854 0.26358,-44.377 0.64543,-5.63805 3.65167,-10.0026 8.59819,-12.48322 3.04165,-1.52537 5.41993,-1.97475 9.52418,-1.79977 5.30833,0.22634 8.87041,1.52008 11.55452,4.19661 3.02224,3.01364 4.42324,7.36891 4.89728,15.22415 0.0842,1.39537 0.22243,3.34835 0.30712,4.33979 l 0.15399,1.80275 h -6.16971 -6.16968 l -0.005,-4.33987 c -0.0105,-8.16719 -0.90507,-9.86118 -5.22236,-9.889 -5.18062,-0.033 -5.52255,1.20367 -6.00125,21.71191 -0.48472,20.76584 0.22083,28.72854 2.73288,30.84225 0.94706,0.7969 2.92674,0.90613 4.79053,0.2642 3.08872,-1.06371 3.14508,-1.22521 3.51903,-10.07993 l 0.29041,-6.87706 h 6.10508 6.10513 l -0.16364,3.00451 c -0.74476,13.6728 -1.17173,15.98595 -3.52073,19.07316 -0.89227,1.17271 -4.24729,3.89225 -5.74317,4.65543 -2.56792,1.31006 -7.92579,2.04978 -11.38102,1.57135 z"
         id="path643" /><path
         style="fill:#000000;stroke:none;stroke-width:0.267068"
         d="m 858.28422,394.6736 v -37.25606 h 6.00903 6.00902 v 37.25606 37.25605 h -6.00902 -6.00903 z"
         id="path645" /><path
         style="fill:#000000;stroke:none;stroke-width:0.267068"
         d="m 917.50765,400.2153 -0.0675,-31.71443 -6.22578,-0.0713 c -5.75632,-0.0667 -6.21598,-0.10662 -6.09595,-0.53416 0.0713,-0.25431 0.20465,-2.26509 0.29617,-4.4684 0.0915,-2.20332 0.22696,-4.32117 0.301,-4.70632 l 0.13451,-0.70025 11.67053,-0.17001 c 6.41878,-0.0935 14.52481,-0.24435 18.01343,-0.33518 l 6.34282,-0.16525 v 5.5089 5.50882 h -6.14254 -6.14255 v 31.78118 31.78111 h -6.00795 -6.00795 z"
         id="path647" /><path
         style="fill:#000000;stroke:none;stroke-width:0.267068"
         d="m 976.7927,431.68453 c -2.39509,-0.34039 -2.35569,0.0751 -0.90973,-9.56961 0.69918,-4.66371 2.47434,-16.05087 3.94475,-25.30477 1.47041,-9.2539 3.44539,-21.7441 4.38884,-27.75596 1.06242,-6.76998 1.84453,-11.02185 2.0547,-11.17024 0.32207,-0.22742 16.98644,-0.0659 17.21924,0.16693 0.1051,0.10509 6.2662,38.07695 9.9505,61.32657 1.1415,7.20304 1.7464,11.71421 1.5921,11.87218 -0.3751,0.38385 -6.5366,0.78901 -8.5982,0.56543 -2.1356,-0.2317 -3.1472,-0.92506 -3.609,-2.47349 -0.1668,-0.55953 -0.6113,-3.17329 -0.9877,-5.80836 -0.3765,-2.635 -0.7418,-4.84828 -0.8118,-4.91826 -0.1681,-0.16808 -13.48233,0.40762 -13.6656,0.59088 -0.0779,0.0779 -0.51905,2.94266 -0.98017,6.36597 l -0.83837,6.22433 -3.73895,0.0345 c -2.05645,0.0192 -4.3112,-0.0468 -5.01061,-0.14617 z m 21.50856,-23.50109 c 1.11178,-0.42271 1.10955,-0.47353 -0.49668,-11.37329 -1.3677,-9.2805 -2.46644,-15.82054 -2.92771,-17.42623 -0.95495,-3.32451 -1.41231,-1.58775 -3.70982,14.08784 -0.65664,4.48013 -1.40464,9.44453 -1.66226,11.03213 -0.54864,3.38131 -0.44402,3.70783 1.27243,3.96889 1.55717,0.23677 6.65585,0.0406 7.52404,-0.28934 z"
         id="path649" /><path
         style="fill:#000000;stroke:none;stroke-width:0.267068"
         d="m 1062.1908,432.30078 c -2.8834,-0.51561 -4.6561,-1.43776 -6.946,-3.61287 -2.3285,-2.21182 -3.4546,-4.19776 -3.9271,-6.9258 -0.4977,-2.87291 -0.4968,-50.50215 0,-53.39476 0.4735,-2.75203 1.181,-4.07091 3.3795,-6.29967 3.3131,-3.35878 6.8549,-4.65014 12.7545,-4.65014 9.8085,0 14.7965,3.63318 16.506,12.02257 0.4233,2.07762 1.046,9.46952 1.0627,12.61452 v 0.73444 h -5.5771 -5.5771 l -0.1275,-4.33987 c -0.093,-3.14914 -0.2506,-4.6696 -0.5759,-5.5417 -1.1585,-3.10561 -2.8114,-4.35159 -5.7726,-4.35159 -3.1183,0 -3.9099,0.8701 -4.5666,5.01927 -0.4079,2.57697 -0.6329,34.45987 -0.2848,40.34855 0.3374,5.70704 0.5459,6.29048 2.581,7.22221 2.4291,1.112 5.0225,0.8632 6.3164,-0.60613 1.6931,-1.92279 2.3673,-5.18882 2.3673,-11.46803 v -4.65021 h 5.4749 5.4749 v 5.80874 c 0,6.34697 -0.369,9.56303 -1.4492,12.66887 -1.7717,5.09454 -5.2865,8.24644 -10.487,9.40382 -2.3893,0.53186 -7.6501,0.53071 -10.63,0 z"
         id="path651" /><path
         style="fill:#000000;stroke:none;stroke-width:0.267068"
         d="m 1121.8807,394.6736 v -37.25606 h 6.009 6.009 v 37.25606 37.25605 h -6.009 -6.009 z"
         id="path653" /><path
         style="fill:#000000;stroke:none;stroke-width:0.267068"
         d="m 1183.9106,432.34623 c -3.3825,-0.77498 -6.5362,-3.0249 -8.72,-6.22103 -1.7773,-2.60119 -2.5112,-4.93151 -2.854,-9.06175 -0.4058,-4.88996 -0.1753,-45.09496 0.27,-47.0937 0.4381,-1.9664 2.0843,-5.40527 3.4486,-7.20381 1.9663,-2.59222 4.236,-4.04508 7.7853,-4.98355 2.609,-0.68983 8.7833,-0.62123 11.5678,0.12846 4.4561,1.19976 7.6307,3.70752 9.7219,7.67948 1.9007,3.61034 1.9913,4.27211 2.1357,15.59634 0.1462,11.4576 -0.3227,36.54139 -0.7389,39.52613 -0.395,2.83252 -1.2832,4.47638 -3.828,7.085 -3.4801,3.56726 -6.1987,4.55127 -13.25,4.79577 -2.8192,0.0978 -4.3257,0.0307 -5.5384,-0.24734 z m 8.3635,-11.0716 c 1.409,-0.63993 2.1318,-1.58446 2.5329,-3.31018 0.7135,-3.06913 0.7175,-39.19118 0.01,-45.02529 -0.315,-2.57966 -0.6625,-3.23982 -2.0523,-3.8993 -1.2861,-0.61027 -4.6379,-0.64399 -6.0275,-0.0605 -1.3474,0.56566 -1.779,1.34892 -2.1022,3.81575 -0.4646,3.54534 -0.7644,23.04948 -0.5149,33.49602 0.2877,12.0484 0.6284,13.99978 2.6346,15.09017 1.0324,0.56113 4.1883,0.5002 5.5244,-0.10662 z"
         id="path655" /><path
         style="fill:#000000;stroke:none;stroke-width:0.267068"
         d="m 1185.579,355.05948 c -0.7261,-0.12202 -1.0948,-0.33235 -1.1572,-0.66024 -0.1063,-0.55808 1.9524,-4.28101 4.3858,-7.9315 2.476,-3.71427 2.5204,-3.75919 4.0004,-4.04125 1.3045,-0.24872 9.0144,-0.0368 10.2025,0.2803 0.5436,0.14509 0.029,0.75352 -4.8072,5.68235 -3.4538,3.52004 -5.8255,5.72113 -6.5463,6.07532 -1.2313,0.60514 -4.2558,0.90123 -6.078,0.59502 z"
         id="path657" /><path
         style="fill:#000000;stroke:none;stroke-width:0.267068"
         d="m 1244.5654,417.30765 c 0.091,-8.0421 0.2406,-24.68898 0.3328,-36.99307 l 0.1674,-22.37108 7.4878,0.0705 7.4878,0.0705 5.0979,19.00724 c 2.8039,10.45398 5.1726,19.08144 5.2638,19.17219 0.091,0.0908 0.2423,-5.81855 0.3357,-13.13174 0.093,-7.31318 0.2437,-16.09087 0.3341,-19.50598 l 0.1645,-6.20939 h 5.4422 5.4423 v 37.29047 37.29047 l -2.604,-0.1638 c -1.4321,-0.0901 -4.2464,-0.24136 -6.2541,-0.33633 -3.422,-0.1618 -3.6594,-0.20794 -3.7978,-0.73865 -2.2791,-8.73615 -13.1254,-48.70177 -13.2596,-48.85775 -0.1037,-0.12064 -0.2649,7.81132 -0.3581,17.62651 -0.093,9.81527 -0.2435,21.12088 -0.3341,25.12357 l -0.1648,7.27762 h -5.4745 -5.4747 z"
         id="path659" /><path
         style="fill:#000000;stroke:none;stroke-width:0.267068"
         d="m 1367.0494,394.6736 v -37.25606 h 3.2716 c 5.3244,0.008 14.7285,0.49515 17.5103,0.91119 3.2121,0.48043 6.4826,1.49655 8.0615,2.50462 1.4654,0.93556 3.2507,2.84508 3.96,4.23562 1.4849,2.91062 2.3631,7.82389 2.6176,14.6453 0.4582,12.28156 -2.3159,19.65277 -8.5424,22.69814 -2.7795,1.35942 -5.0339,1.73859 -10.3378,1.73859 h -4.5227 v 13.88756 13.88756 h -6.0091 -6.009 z m 19.4274,-1.87388 c 1.6984,-0.50435 2.5912,-1.51441 2.9924,-3.38553 0.5468,-2.54946 0.8342,-9.30357 0.5569,-13.0856 -0.3984,-5.43278 -0.7019,-6.07954 -3.1932,-6.80378 -1.7502,-0.50879 -7.427,-1.40687 -7.6272,-1.20666 -0.076,0.0759 -0.1382,5.70664 -0.1382,12.51242 v 12.37415 h 3.0228 c 1.9239,0 3.5186,-0.14724 4.3865,-0.405 z"
         id="path661" /><path
         style="fill:#000000;stroke:none;stroke-width:0.267068"
         d="m 1436.4407,431.73627 c -0.5396,-0.0567 -1.1069,-0.25501 -1.2605,-0.44011 -0.1985,-0.23922 0.1765,-3.07319 1.2969,-9.79979 0.8669,-5.20484 3.147,-19.25803 5.0669,-31.2294 4.3878,-27.35946 4.9702,-30.78783 5.3505,-31.49851 0.516,-0.96415 1.5369,-1.15186 6.9521,-1.27802 5.9828,-0.13943 9.1638,0.15904 9.9373,0.93249 0.6529,0.65289 0.707,0.96377 6.349,36.49195 2.4981,15.73117 4.8372,30.28457 5.198,32.34087 0.3721,2.12061 0.5554,3.83944 0.4236,3.97119 -0.474,0.47407 -2.6737,0.67972 -7.3897,0.69106 l -4.8443,0.0115 -0.1454,-0.86796 c -0.08,-0.47744 -0.4147,-3.48195 -0.7436,-6.6767 l -0.598,-5.80875 h -7.1221 -7.1222 l -0.5928,5.67515 c -0.326,3.1214 -0.6611,6.12591 -0.7444,6.6767 l -0.1516,1.00156 -4.4393,-0.0452 c -2.4415,-0.0245 -4.8807,-0.0915 -5.4204,-0.14847 z m 23.2416,-23.68842 c 0.3615,-0.36155 0.2997,-1.08196 -0.5791,-6.75596 -0.5411,-3.49314 -1.4054,-9.18982 -1.9205,-12.65928 -1.1765,-7.92215 -1.7299,-10.91784 -2.0173,-10.91784 -0.3106,0 -0.6419,1.26905 -1.7082,6.54318 -1.6763,8.29197 -3.6124,20.32642 -3.6152,22.47194 0,0.80327 0.1267,1.15922 0.4659,1.2991 1.7819,0.73452 8.6448,0.74831 9.3744,0.0184 z"
         id="path663" /><path
         style="fill:#000000;stroke:none;stroke-width:0.267068"
         d="m 1511.2663,394.57081 v -37.35883 l 1.6692,0.1024 c 0.918,0.0559 4.9741,0.22802 9.0136,0.38163 13.5947,0.51691 17.0436,1.23878 19.9636,4.17844 4.1223,4.15009 5.7446,12.85389 4.1682,22.36219 -0.755,4.55387 -2.062,7.47951 -4.4542,9.97079 l -1.6192,1.68617 1.9084,1.92715 c 3.884,3.92221 4.575,7.36331 5.1304,25.54927 0.1411,4.61963 0.2161,8.43968 0.1667,8.48904 -0.049,0.0491 -2.3588,-0.0337 -5.1321,-0.18549 -2.7734,-0.15146 -5.4229,-0.27593 -5.8877,-0.2767 h -0.8451 l -0.1513,-1.93627 c -0.083,-1.06487 -0.4004,-6.86365 -0.7049,-12.88601 l -0.5535,-10.9498 -0.8107,-0.83845 c -0.4458,-0.46119 -1.4308,-1.18015 -2.189,-1.59772 -1.2502,-0.68861 -1.6699,-0.76847 -4.5163,-0.85884 l -3.138,-0.0996 v 14.85048 14.85041 h -6.0091 -6.009 z m 18.8988,-3.90236 c 1.8062,-0.54527 3.1655,-1.74028 3.598,-3.16333 0.4825,-1.5876 0.4596,-12.52353 -0.031,-14.95664 -0.3142,-1.55748 -0.488,-1.9004 -1.1744,-2.31782 -1.0787,-0.65603 -3.505,-1.27396 -6.6691,-1.69844 l -2.6038,-0.34943 v 11.61649 11.61649 l 2.7373,-0.16142 c 1.5056,-0.0888 3.3702,-0.35243 4.1434,-0.5859 z"
         id="path665" /><path
         style="fill:#000000;stroke:none;stroke-width:0.267068"
         d="m 1583.8725,431.68476 c -1.881,-0.26359 -2.1943,-0.6443 -1.9886,-2.41662 0.2642,-2.27529 2.8264,-18.85257 5.9248,-38.33349 1.5419,-9.69455 3.3333,-21.04147 3.9809,-25.21532 0.7289,-4.69873 1.3086,-7.68132 1.5223,-7.83186 0.3271,-0.23048 16.9888,-0.0728 17.2246,0.16303 0.1295,0.12954 8.3627,51.03263 11.3879,70.40724 0.2409,1.54277 0.3001,2.63699 0.1512,2.79189 -0.3691,0.3837 -6.532,0.78909 -8.5944,0.56543 -2.1355,-0.2317 -3.1472,-0.92506 -3.6089,-2.47349 -0.1669,-0.55953 -0.6114,-3.17329 -0.9878,-5.80836 -0.3764,-2.635 -0.7429,-4.84943 -0.8143,-4.92086 -0.1683,-0.16824 -13.4935,0.42386 -13.6774,0.60781 -0.077,0.0767 -0.5128,2.96773 -0.969,6.42446 l -0.8296,6.28503 -3.7418,-0.036 c -2.0579,-0.0199 -4.2989,-0.11375 -4.9799,-0.20918 z m 20.0383,-23.24769 c 0.9393,-0.13575 1.8265,-0.36554 1.9716,-0.51063 0.4469,-0.44693 0.2504,-2.58954 -1.0099,-11.01258 -2.2659,-15.14328 -2.9906,-18.93205 -3.6211,-18.93205 -0.633,0 -1.0224,1.98716 -3.0615,15.62355 -0.8127,5.43478 -1.6173,10.80287 -1.7879,11.92906 -0.3698,2.44107 -0.1833,2.8145 1.482,2.96573 2.2162,0.20135 4.3526,0.17897 6.0268,-0.0629 z"
         id="path667" /><path
         style="fill:#000000;stroke:none;stroke-width:0.267068"
         d="m 1704.3567,394.6736 v -37.25606 h 8.4076 8.4076 l 0.1313,0.60092 c 0.072,0.33051 1.1636,7.09068 2.4253,15.02264 3.7309,23.45357 5.3858,32.98294 5.7282,32.98294 0.1109,0 0.2801,-0.45068 0.376,-1.00155 1.2596,-7.23531 6.6933,-42.22987 6.9978,-45.06775 0.1035,-0.96477 0.3391,-1.73531 0.5919,-1.93628 0.4765,-0.37879 5.647,-0.44624 12.2606,-0.16004 l 4.0155,0.17384 0.1675,25.79861 c 0.092,14.18916 0.2415,30.81611 0.3322,36.94869 l 0.1647,11.15009 h -6.0074 -6.0074 l -0.1653,-8.21234 c -0.091,-4.51684 -0.2431,-14.28153 -0.338,-21.69933 -0.095,-7.41781 -0.2699,-13.24656 -0.3891,-12.95285 -0.1191,0.2938 -1.1897,7.2042 -2.3789,15.35644 -3.3055,22.65805 -3.8053,25.28193 -5.0757,26.64556 -0.7786,0.83577 -1.2026,0.89027 -6.2632,0.80511 l -4.5274,-0.0759 -3.6513,-21.57662 c -2.0081,-11.86713 -3.7264,-21.65182 -3.8184,-21.7438 -0.092,-0.092 -0.1674,6.31248 -0.1677,14.23217 -3e-4,7.9197 -0.08,17.73451 -0.1765,21.81063 l -0.1759,7.41114 h -5.4321 -5.4319 z"
         id="path669" /><path
         style="fill:#000000;stroke:none;stroke-width:0.267068"
         d="m 1792.2222,394.6736 v -37.25606 h 6.009 6.009 v 37.25606 37.25605 h -6.009 -6.009 z"
         id="path671" /><path
         style="fill:#000000;stroke:none;stroke-width:0.267068"
         d="m 1842.5333,401.28354 c 0.093,-16.85536 0.2419,-33.5004 0.3316,-36.98894 l 0.1631,-6.3429 h 7.4153 c 6.8364,0 7.4252,0.0368 7.5409,0.4674 0.069,0.257 2.3966,8.94011 5.1723,19.29567 l 5.0467,18.82834 0.174,-2.00303 c 0.096,-1.10166 0.2604,-9.90487 0.366,-19.56279 l 0.1919,-17.55975 h 5.4427 5.4428 v 37.27361 37.27361 l -3.5386,-0.18319 c -1.9463,-0.10072 -4.7277,-0.25884 -6.1809,-0.35136 l -2.6422,-0.16824 -6.5902,-24.43673 c -3.6246,-13.44024 -6.654,-24.61708 -6.7321,-24.83737 -0.2053,-0.57961 -0.4598,11.95098 -0.6548,32.24851 l -0.17,17.69327 h -5.4737 -5.4735 z"
         id="path673" /><path
         style="fill:#000000;stroke:none;stroke-width:0.267068"
         d="m 1917.9114,431.67771 c -1.5761,-0.21868 -2.0829,-0.78901 -1.893,-2.13035 0.737,-5.20445 3.6995,-24.34444 6.6379,-42.88582 1.9786,-12.48544 3.8003,-24.02276 4.0479,-25.63857 0.2477,-1.61573 0.5865,-3.02605 0.7528,-3.13397 0.3515,-0.2281 9.5185,-0.20733 14.1779,0.0322 l 3.1927,0.1641 4.2155,26.17272 c 4.0032,24.85508 6.9108,43.11063 7.3022,45.84857 l 0.1784,1.24805 -1.2958,0.21139 c -0.7127,0.11628 -3.0596,0.21561 -5.2153,0.22075 -3.5596,0.008 -3.9887,-0.0414 -4.6737,-0.54658 -1.0416,-0.76785 -1.5568,-2.48016 -2.2116,-7.34951 -0.3041,-2.26195 -0.618,-4.40034 -0.6976,-4.752 l -0.1446,-0.6394 -4.8592,0.17576 c -2.6726,0.0966 -5.7776,0.24849 -6.9,0.33748 l -2.0408,0.1618 -0.1439,0.96959 c -0.079,0.53324 -0.4709,3.40316 -0.8707,6.37762 l -0.7269,5.40819 -3.7652,-0.036 c -2.0708,-0.0199 -4.351,-0.11689 -5.067,-0.21622 z m 20.2315,-23.22371 c 2.037,-0.25385 2.3987,-0.70331 2.1698,-2.69707 -0.2604,-2.26808 -2.4687,-17.00092 -3.2426,-21.6325 -0.7541,-4.51363 -1.1271,-5.91199 -1.6198,-6.07341 -0.569,-0.18648 -1.0995,2.44767 -2.8635,14.21898 -0.9466,6.31615 -1.8676,12.36074 -2.0468,13.43243 -0.2429,1.45278 -0.2487,2.02557 -0.023,2.25145 0.6298,0.62981 4.5313,0.88566 7.6257,0.50012 z"
         id="path675" /></g><path
       style="fill:#f9c501;stroke-width:1.02575;fill-opacity:1"
       d="m 1267.099,260.23866 v -64.1485 l 30.5161,-3.9e-4 30.5162,-3.8e-4 -0.308,63.30683 c -0.1694,34.81866 -0.4002,63.3742 -0.5129,63.45675 -0.1126,0.0831 -13.7063,0.46158 -30.2081,0.84213 l -30.0033,0.69213 z m 128.2191,-23.58104 v -87.75207 l 29.4905,-3.1e-4 29.4904,-2.3e-4 -0.3035,86.89431 c -0.1668,47.79196 -0.3976,86.96474 -0.5128,87.05059 -0.1152,0.0861 -13.2493,0.47192 -29.187,0.85792 l -28.9776,0.70186 z m 104.9187,71.48276 c -4.2629,-8.87825 -9.7454,-20.52732 -12.1836,-25.88691 l -4.4327,-9.74467 22.9877,-0.51285 22.9878,-0.51293 4.0185,-3.92543 4.0185,-3.92544 2.0644,3.41259 c 1.1356,1.87687 5.5414,10.10561 9.7908,18.28598 4.2495,8.18038 10.5081,19.93897 13.9081,26.13027 3.3999,6.19136 6.0929,11.32009 5.9844,11.39735 -0.1085,0.077 -13.9664,0.42923 -30.7954,0.78234 l -30.598,0.64193 z m 77.1124,14.37389 c 0.3806,-0.9873 14.3164,-38.2606 30.9685,-82.82961 16.6519,-44.56893 30.6282,-81.40211 31.0584,-81.85142 0.4301,-0.44939 1.5841,1.39698 2.5643,4.10302 0.9803,2.70597 3.1309,8.38189 4.7789,12.61307 1.6482,4.23126 2.9942,8.29366 2.9912,9.02748 0,0.7339 3.4544,10.7296 7.6832,22.21257 l 7.6888,20.87821 -15.7926,48.0515 -15.7923,48.05164 -16.7709,0.62736 c -9.2238,0.34507 -22.013,0.69121 -28.4202,0.76932 -10.706,0.13045 -11.5934,0 -10.9573,-1.65314 z m 134.7696,-1.02325 c -0.6237,-1.5528 -2.1733,-5.82361 -3.4435,-9.49074 l -2.3094,-6.66735 h -27.7294 c -15.2512,0 -28.0032,-0.27256 -28.3378,-0.60575 -0.3346,-0.33311 1.9792,-8.01612 5.1418,-17.07334 6.7069,-19.2076 4.6647,-17.70944 24.1396,-17.70944 6.6995,0 12.1808,-0.1963 12.1808,-0.43636 0,-0.23991 -2.8131,-7.74072 -6.2513,-16.66849 -3.4381,-8.92761 -7.8001,-20.61723 -9.6934,-25.97674 -1.8931,-5.35958 -6.6399,-17.82249 -10.5483,-27.6954 -3.9084,-9.87284 -9.9321,-25.08027 -13.386,-33.79411 -3.4539,-8.714 -6.2799,-15.99123 -6.2799,-16.17166 0,-0.18043 13.0072,-0.20557 28.9048,-0.0552 l 28.9048,0.27241 3.3816,9.74468 c 1.8599,5.35951 17.1943,44.36382 34.0764,86.67616 16.8822,42.31227 30.6257,76.98277 30.5411,77.04547 -0.084,0.0628 -13.2048,0.40998 -29.1559,0.77176 l -29.0019,0.65795 z m 91.7056,-14.48365 -17.6942,-17.20632 v -52.76456 -52.76456 l 17.7049,-17.68315 17.7051,-17.68323 h 11.5289 11.5291 v 87.04614 87.04615 l -5.3852,0.64683 c -2.9619,0.35572 -8.1548,0.62928 -11.5398,0.60797 l -6.1545,-0.0391 -17.6943,-17.20641 z m 50.0055,0.0115 c 0,-17.12148 0.03,-17.3541 2.3079,-17.9646 1.2694,-0.34016 9.7946,-0.62483 18.9449,-0.6325 l 16.6369,-0.0146 0.288,-12.56547 0.2881,-12.56546 h 29.2339 29.234 l -0.346,12.82193 -0.346,12.82192 -17.0918,17.06729 -17.0918,17.06744 -31.0291,0.65481 -31.029,0.65487 v -17.34613 z m -390.1282,-35.707 c -0.3761,-0.37611 -0.6838,-7.93848 -0.6838,-16.80531 0,-15.85135 0.039,-16.1318 2.3079,-16.73993 1.2694,-0.34024 10.9628,-0.62483 21.5408,-0.63257 l 19.2329,-0.0146 0.012,-22.82299 c 0.01,-12.55267 0.3097,-24.6295 0.6744,-26.83742 l 0.663,-4.01442 -19.0914,0.66438 c -10.5002,0.36538 -20.4971,0.38324 -22.2152,0.0399 l -3.1237,-0.62475 v -17.30958 -17.30964 l 33.5935,0.0268 33.5933,0.0268 17.1814,17.83461 17.1814,17.83453 v 26.00471 26.00471 l -13.2153,13.18593 c -11.5287,11.50313 -13.347,12.95077 -14.2469,11.34271 -0.9833,-1.75715 -2.2,-1.6871 -26.0198,1.49792 -31.3113,4.1865 -29.741,3.81368 -28.972,6.87714 0.6155,2.45264 0.6065,2.45525 -8.5558,2.45525 -5.0447,0 -9.4799,-0.30774 -9.8559,-0.68385 z m 428.2395,-69.56159 0.3983,-18.26391 -15.9423,0.68163 c -8.7682,0.3748 -17.4329,0.38339 -19.2547,0.0192 l -3.3126,-0.66254 v -17.30958 -17.30957 h 31.0476 31.0477 l 17.1628,17.86987 17.1627,17.86994 v 17.00566 17.00574 h -11.5397 c -6.3468,0 -19.5561,0.30721 -29.3538,0.67887 l -17.8143,0.67573 0.3983,-18.26391 z m -669.9755,-33.61207 10e-5,-19.23289 h 75.8415 75.8414 l -0.5885,18.72004 c -0.3236,10.296 -0.6409,18.78972 -0.7049,18.87495 -0.064,0.0851 -33.928,0.31594 -75.2532,0.51292 l -75.1364,0.35787 z"
       id="path703" /></g></svg>
