<?xml version="1.0" encoding="UTF-8" standalone="no"?>
<!-- Created with Inkscape (http://www.inkscape.org/) -->

<svg
   version="1.1"
   id="svg1"
   width="780.47998"
   height="209.28"
   viewBox="0 0 780.47998 209.28"
   sodipodi:docname="LumitracH-N.svg"
   inkscape:version="1.2.2 (b0a8486541, 2022-12-01)"
   xml:space="preserve"
   xmlns:inkscape="http://www.inkscape.org/namespaces/inkscape"
   xmlns:sodipodi="http://sodipodi.sourceforge.net/DTD/sodipodi-0.dtd"
   xmlns="http://www.w3.org/2000/svg"
   xmlns:svg="http://www.w3.org/2000/svg"><defs
     id="defs1" /><sodipodi:namedview
     id="namedview1"
     pagecolor="#505050"
     bordercolor="#eeeeee"
     borderopacity="1"
     inkscape:showpageshadow="0"
     inkscape:pageopacity="0"
     inkscape:pagecheckerboard="0"
     inkscape:deskcolor="#505050"
     inkscape:zoom="1.1685117"
     inkscape:cx="288.40105"
     inkscape:cy="62.900526"
     inkscape:window-width="2512"
     inkscape:window-height="1011"
     inkscape:window-x="0"
     inkscape:window-y="0"
     inkscape:window-maximized="1"
     inkscape:current-layer="svg1"
     showgrid="false" /><g
     id="g1349"
     transform="matrix(0.83091941,0,0,0.83091941,-2.8569882,46.544566)"
     style="fill:#ffffff"><g
       id="g2043"
       style="fill:#ffffff;fill-opacity:1"
       transform="matrix(0.54729275,0,0,0.54729275,2.8210512,-55.875686)"><path
         style="fill:#ffffff;fill-opacity:1;stroke:none;stroke-width:0.267068"
         d="m 174.60839,83.68268 -8.39347,-5.859484 -3.35753,2.308857 c -7.21659,4.96263 -12.22092,8.243687 -13.3147,8.729709 -1.72006,0.764331 -1.82449,0.45705 -1.00386,-2.953617 0.87505,-3.636779 3.44874,-12.472645 4.15467,-14.263594 0.80652,-2.046186 0.70666,-2.748432 -0.59101,-4.156219 -0.6167,-0.669058 -3.89657,-3.252774 -7.28863,-5.7416 -3.39205,-2.488903 -6.80788,-5.085496 -7.59073,-5.770343 -1.39703,-1.22207 -1.41165,-1.24997 -0.79019,-1.508502 0.36181,-0.150536 5.10582,-0.312953 11.06946,-0.3791 l 10.43629,-0.115661 3.15831,-8.852652 c 3.69433,-10.355023 3.98716,-11.07896 4.57254,-11.303537 0.75367,-0.289269 1.33901,0.882751 3.0248,6.056391 0.88546,2.71739 2.37916,6.983829 3.31935,9.480933 l 1.70943,4.540148 10.38134,0.156668 c 5.70974,0.08615 10.64929,0.26819 10.97678,0.404469 0.55256,0.229943 0.42098,0.391133 -1.82632,2.237499 -2.79183,2.293681 -9.6046,7.426469 -12.31771,9.280269 l -1.85369,1.266603 0.1798,1.472784 c 0.19183,1.571431 1.56074,7.031734 3.34871,13.357389 1.19763,4.237082 1.52134,7.267501 0.79043,7.399718 -0.22033,0.03986 -4.17766,-2.564401 -8.79407,-5.787128 z"
         id="path605" /><path
         style="fill:#ffffff;fill-opacity:1;stroke:none;stroke-width:0.267068"
         d="m 230.77097,64.536707 c 0.0826,-0.271563 1.2418,-3.978934 2.57605,-8.238704 3.47514,-11.094826 4.61061,-15.047469 4.44595,-15.476543 -0.2322,-0.605133 -3.37004,-3.098788 -9.52302,-7.56796 -6.28418,-4.564522 -9.08033,-6.726216 -9.08033,-7.020006 0,-0.485487 1.55686,-0.60659 10.28214,-0.799359 12.557,-0.277541 14.55522,-0.479661 14.55522,-1.472402 0,-1.270665 5.85947,-17.7162637 7.40976,-20.7967333 0.61998,-1.2319579 0.69023,-1.2875275 1.03333,-0.8183671 0.20247,0.276928 0.67678,1.5327233 1.05403,2.7906647 0.88723,2.9585998 4.28483,13.1512057 5.71755,17.1523677 l 1.1151,3.114118 11.53141,0.119417 c 6.34227,0.06592 11.80978,0.212774 12.15002,0.326825 l 0.61861,0.207256 -0.84275,0.869491 c -0.46351,0.478281 -4.73455,3.677018 -9.49121,7.108304 -4.75664,3.431362 -8.65179,6.421924 -8.65588,6.645659 -0.004,0.223811 0.95694,3.288415 2.13561,6.810298 2.33575,6.979153 4.6668,14.621002 4.95412,16.240873 l 0.18167,1.02432 -1.16903,-0.589574 c -2.07423,-1.046011 -5.82405,-3.434275 -12.84109,-8.178459 l -6.86484,-4.641246 -8.11641,5.468657 c -8.17755,5.509818 -11.59471,7.665303 -12.71653,8.021332 -0.50959,0.161803 -0.58498,0.112518 -0.45948,-0.300229 z"
         id="path607" /><path
         style="fill:#ffffff;fill-opacity:1;stroke:none;stroke-width:0.267068"
         d="m 319.60767,89.217561 c 7.6e-4,-1.051683 1.59989,-6.588633 3.74429,-12.967175 1.34674,-4.005914 2.38655,-7.445248 2.31066,-7.642998 -0.21839,-0.569109 -6.42147,-5.642725 -10.47827,-8.570436 -2.03538,-1.468875 -4.41945,-3.264883 -5.29793,-3.99112 l -1.59722,-1.320409 0.78506,-0.21653 c 0.94344,-0.260219 8.09706,-0.700713 15.58752,-0.959859 l 5.45506,-0.188783 2.45277,-6.810221 c 2.65233,-7.364384 4.5023,-11.930516 5.07606,-12.528904 0.30791,-0.321077 0.4593,-0.162186 1.01749,1.068315 0.36066,0.79499 1.9572,5.368786 3.54786,10.163863 l 2.89211,8.718289 10.95442,0.128768 c 6.02492,0.07052 11.30537,0.239831 11.73431,0.375497 l 0.7799,0.246805 -1.04697,0.84826 c -0.57583,0.466554 -3.81113,2.804002 -7.18954,5.194336 -3.37842,2.390334 -6.8937,5.072235 -7.81175,5.959892 -2.08472,2.01568 -2.09838,2.22945 -0.48319,7.559069 2.57947,8.511493 4.11514,14.591876 3.772,14.935027 -0.26759,0.267577 -4.61587,-2.328939 -11.129,-6.645429 l -6.83868,-4.53233 -3.30991,2.047106 c -1.82046,1.125878 -4.0911,2.67761 -5.04587,3.448302 -3.13663,2.531826 -9.88193,6.409737 -9.88118,5.680665 z"
         id="path609" /></g><path
       style="fill:#ffffff;stroke:none;stroke-width:0.146165"
       d="m 78.64118,105.42422 c 0.0052,-1.27217 -0.633227,-13.578996 -0.707535,-13.650766 -0.05354,-0.0517 -2.136306,-1.02649 -4.628406,-2.16616 -4.654238,-2.12838 -8.155777,-3.87849 -9.433354,-4.71486 -1.030641,-0.6747 -1.043256,-0.72827 -1.816183,-7.71449 -0.280158,-2.53232 -0.812668,-6.87343 -1.183344,-9.64687 -0.965852,-7.22658 -0.897261,-7.93614 0.824748,-8.53266 0.700611,-0.24267 1.410078,-0.28286 6.151152,-0.34833 l 5.359204,-0.074 -0.06269,-0.45556 c -0.170016,-1.23627 -0.497313,-4.89403 -0.497313,-5.5577 0,-0.95639 0.224708,-1.27109 1.327174,-1.8587 1.345168,-0.717 1.303272,-0.44647 0.73304,-4.73233 -0.160437,-1.20585 -0.559049,-4.56033 -0.885803,-7.45441 -1.715318,-15.19265 -2.571857,-20.41635 -3.779576,-23.05011 -0.833887,-1.81851 -1.760534,-2.549 -6.111653,-4.81797 l -2.212484,-1.1537602 -0.106573,-3.97887 c -0.129189,-4.82384999 -0.05208,-10.27273 0.148158,-10.46298 0.378549,-0.35975 9.137788,2.62826 13.069325,4.45827001 3.99892,1.86138999 7.463797,5.13082999 9.349752,8.82243999 1.245226,2.4374402 1.761,4.3286402 2.209475,8.1015202 0.161748,1.36082 0.313079,2.49318 0.336282,2.51637 0.02319,0.0231 1.144551,-0.32078 2.491892,-0.76438 1.839714,-0.60575 2.616875,-0.79561 3.12112,-0.76243 l 0.671433,0.0442 0.242366,0.87698 c 0.662716,2.39786 4.113305,8.38679 6.738,11.69462 2.685383,3.38429 7.547013,7.64356 9.519323,8.33987 0.68038,0.2402 1.2877,0.17559 1.2877,-0.13697 0,-0.31939 -0.73925,-1.22615 -2.63721,-3.23474 -4.27594,-4.52527 -7.44453,-8.82979 -9.145435,-12.424 -0.701163,-1.48166 -1.225999,-3.22295 -1.225999,-4.06759 0,-0.65453 0.36471,-1.50999 0.726263,-1.7035 0.944168,-0.50527 11.117781,-1.67325 17.836641,-2.04764 12.4622,-0.6945 34.84624,-0.76305 46.04183,-0.14099 3.5758,0.19867 5.73671,0.37791 10.45076,0.86691 2.25094,0.23349 5.14501,0.49864 6.43125,0.58917 2.69574,0.18981 3.08673,0.28407 3.65979,0.88223 1.15033,1.20065 0.32802,4.11554 -2.38988,8.47162 -2.24851,3.60369 -5.13807,6.98531 -8.72016,10.20494 -2.89344,2.60066 -3.51806,3.21185 -3.40155,3.32839 0.20791,0.20789 1.78982,-0.27464 3.09909,-0.94536 2.36798,-1.21312 4.87611,-3.2056 7.85762,-6.24213 3.83002,-3.90078 6.11713,-7.46772 8.00515,-12.48478 0.49918,-1.32642 0.92248,-2.42753 0.94068,-2.44687 0.0182,-0.0192 1.36933,0.42641 3.00252,0.99057 1.63319,0.56413 3.00041,0.99474 3.03827,0.9569 0.0378,-0.0378 0.1865,-1.1085 0.33033,-2.37912 0.14381,-1.27067 0.40513,-2.86938 0.5807,-3.55272 0.851,-3.3119802 2.79766,-7.1200002 4.5742,-8.9479102 2.52625,-2.59932 8.86403,-5.97379 14.33329,-7.63161 2.43023,-0.73666 5.20287,-1.42168 5.36031,-1.32436 0.40011,0.24725 0.47842,1.37382 0.53852,7.74546 l 0.0621,6.57742 -2.37487,1.2424002 c -3.69324,1.93207 -4.52988,2.54821 -5.45828,4.01952 -0.66055,1.04683 -1.03764,2.05067 -1.52943,4.0715 -0.79906,3.28354 -1.39662,7.44661 -3.24287,22.59236 l -1.05877,8.68565 0.35158,0.23038 c 0.92633,0.60709 1.54812,1.15943 1.74772,1.55256 0.17041,0.33564 0.22958,1.15171 0.26564,3.66376 l 0.0464,3.23195 4.99629,0.0809 c 7.1432,0.11561 7.43574,0.23206 7.42745,2.95596 -0.004,1.43087 -1.98397,16.84018 -2.65703,20.68226 -0.49505,2.82601 -0.17613,2.45917 -3.55569,4.0895 -1.61811,0.78058 -4.84946,2.29627 -7.18078,3.36819 -2.33133,1.07196 -4.28128,1.98657 -4.33321,2.03254 -0.0827,0.0731 -0.35577,4.94605 -0.65794,11.740186 l -0.0959,2.15595 h -4.07806 -4.07806 l 0.0781,-1.20585 c 0.0429,-0.66326 0.1147,-2.4556 0.15941,-3.983 0.30332,-10.362536 1.25343,-21.604966 2.7826,-32.925786 0.79717,-5.90173 1.08108,-6.83458 3.08064,-10.12281 l 0.93517,-1.53789 -1.30299,-3.79715 c -2.51257,-7.32202 -3.33886,-9.34638 -3.86891,-9.47847 -1.41389,-0.35246 -23.73475,-0.65592 -56.36819,-0.76641 -28.07968,-0.0951 -42.392401,0.0381 -51.045465,0.47565 l -5.076726,0.25661 -1.457785,4.39249 c -2.703322,8.14539 -2.772293,9.04665 -0.908161,11.86733 1.565893,2.36939 1.583543,2.46252 2.72368,14.37675 0.898184,9.38569 1.3245,14.5997 1.965936,24.04407 0.240237,3.537156 0.472765,6.875176 0.51673,7.417836 l 0.07993,0.98663 h -4.166712 c -3.871206,0 -4.166643,-0.018 -4.165781,-0.2558 z M 206.24032,85.123284 c 1.16654,-0.45352 2.13396,-0.83369 2.14984,-0.84494 0.0878,-0.0621 1.50587,-19.13134 1.50587,-20.24952 0,-0.39822 -0.0208,-0.40732 -1.49819,-0.65738 -0.824,-0.13948 -1.76081,-0.2308 -2.0818,-0.20291 -0.57988,0.0504 -0.58431,0.0554 -0.68742,0.78151 -0.1511,1.0639 -0.49902,5.38634 -0.92355,11.4739 -0.20461,2.93427 -0.46872,6.40493 -0.58691,7.7126 -0.24824,2.74668 -0.25069,2.81124 -0.10684,2.81124 0.0594,0 1.06247,-0.37104 2.229,-0.8245 z m -129.393379,-0.016 c 0.20285,-0.72534 0.09773,-8.90198 -0.160204,-12.46053 -0.283521,-3.91176 -0.646281,-7.91136 -0.799467,-8.81464 -0.103761,-0.61182 -0.105279,-0.61303 -0.805718,-0.65796 -0.851356,-0.0546 -2.800272,0.32942 -3.285513,0.64739 -0.309061,0.20249 -0.341248,0.30552 -0.261689,0.83742 0.193546,1.29396 0.523499,6.23597 0.738248,11.05727 0.123532,2.77347 0.264327,5.7734 0.31288,6.66649 l 0.08828,1.62379 0.973475,0.40883 c 1.451207,0.60947 2.704426,1.0777 2.90738,1.0863 0.09895,0.004 0.230502,-0.17329 0.292324,-0.39436 z m 3.461263,-43.59226 1.255332,-1.53339 -0.0017,-2.92463 c -0.0026,-4.88332 -0.27833,-16.96338 -0.440647,-19.29501 -0.364493,-5.236 -1.021346,-7.2235 -3.284815,-9.9392102 -1.125013,-1.34982 -1.876315,-2.00825 -3.508204,-3.07462 -2.293992,-1.49908 -6.049037,-3.13739 -7.190941,-3.13739 -0.663087,0 -0.775031,0.22699 -0.775031,1.57123 0,1.91596 0.183726,2.13465 3.761736,4.47765 1.305247,0.85474 2.720239,1.90111 3.144443,2.3253 2.111146,2.1111502 2.908276,5.2815002 3.903203,15.5237502 0.273554,2.81605 1.614609,17.40749 1.614609,17.56782 0,0.21889 0.401717,-0.1933 1.521798,-1.5615 z m 120.287356,-3.02975 c 0.053,-0.78628 0.29197,-5.01424 0.5309,-9.39554 0.63899,-11.71678 0.86907,-14.31751 1.48058,-16.73585 0.42569,-1.68345 1.00567,-2.7951802 2.47986,-4.7535002 0.71565,-0.95069 1.30118,-1.77104 1.30118,-1.82306 0,-0.052 -0.50016,0.3541 -1.11146,0.9024 -2.22655,1.99701 -4.26418,5.2404102 -4.9525,7.8830502 -0.55088,2.11493 -1.13593,11.96696 -1.15781,19.49654 -0.0145,5.00251 0.036,5.37933 0.7736,5.76581 0.20967,0.10986 0.42125,0.17497 0.4702,0.14472 0.0489,-0.0302 0.1324,-0.69827 0.18545,-1.48457 z m -69.40916,0.97368 c 2.2636,-0.1957 4.20263,-0.59244 6.06671,-1.24126 4.92853,-1.71554 13.92737,-6.21324 21.63149,-10.81165 4.43606,-2.64776 9.44187,-5.87824 9.31119,-6.00895 -0.14296,-0.14296 -3.77696,-0.63691 -5.80324,-0.7888 -3.29695,-0.24716 -21.86891,-0.34956 -28.42902,-0.15677 -6.65451,0.19557 -8.72035,0.33006 -12.77371,0.83168 -7.30787,0.90433 -9.37514,1.60438 -10.32029,3.49467 -0.42875,0.85751 -0.43849,0.92571 -0.43849,3.06947 0,2.28704 0.23421,3.49328 0.95108,4.89852 0.93537,1.83345 2.93095,3.66569 5.1654,4.74263 3.45528,1.66533 9.20916,2.43982 14.63888,1.97046 z"
       id="path611" /><path
       style="fill:#ffffff;stroke:none;stroke-width:0.29233"
       d="m 88.798676,57.114294 -4.238769,-0.18017 0.04622,-1.375 c 0.07484,-2.22903 2.698528,-10.00954 3.20467,-9.50339 0.07734,0.0773 -0.06337,1.69607 -0.312725,3.59723 -0.249324,1.90111 -0.453313,3.69228 -0.453313,3.98034 0,0.48673 0.432318,0.52368 6.121353,0.52368 h 6.121345 l 3.452423,-3.25224 c 4.47401,-4.21462 5.58107,-4.93295 7.60227,-4.93295 0.97133,0 1.55058,0.12525 1.55058,0.3353 0,0.43123 -1.65462,2.45504 -4.22212,5.16417 l -2.02966,2.14165 6.76651,-0.0934 6.76648,-0.0934 1.10974,-1.06532 c 1.7232,-1.65433 6.53427,-5.23982 7.83332,-5.83787 1.22378,-0.56343 4.65452,-0.76864 4.94669,-0.29592 0.18105,0.29298 -1.77488,2.17987 -5.45683,5.26428 -1.40603,1.17783 -2.48354,2.25948 -2.39446,2.40361 0.0891,0.14413 1.4547,0.26205 3.0347,0.26205 h 2.87273 l 1.7142,-1.18022 c 0.94282,-0.64912 2.83237,-2.1122 4.19901,-3.25132 1.36664,-1.13912 3.20831,-2.41679 4.0926,-2.8393 l 1.60782,-0.7682 10.08535,-0.0812 c 5.54695,-0.0447 11.04581,0.021 12.2197,0.14615 l 2.13433,0.22741 -3.01132,2.47862 c -3.55304,2.9245 -6.08078,5.25353 -6.08078,5.60284 0,0.45732 2.05404,0.2579 3.15418,-0.30622 0.90727,-0.46526 3.57386,-2.66853 8.95354,-7.39795 l 0.90093,-0.79204 8.03904,0.0171 c 4.42149,0.01 8.36448,0.10794 8.76223,0.21873 0.68628,0.1912 0.58984,0.32762 -1.89132,2.6749 -1.43797,1.3604 -3.046,2.88783 -3.57338,3.39428 -1.09591,1.05241 -1.25168,1.85627 -0.35972,1.85627 0.98159,0 2.09363,-0.71632 6.11504,-3.93894 4.14861,-3.32456 4.8388,-3.78272 5.28386,-3.50767 0.8296,0.51274 3.93387,8.36445 3.73033,9.43524 -0.0745,0.39175 -0.55512,0.53807 -2.28402,0.69512 -2.8406,0.25811 -100.550035,0.51002 -106.112718,0.27355 z"
       id="path613" /><path
       style="fill:#ffffff;stroke:none;stroke-width:0.29233"
       d="m 94.499102,194.45864 c -15.740692,-0.30899 -16.962836,-0.46588 -19.013022,-2.4407 -1.614945,-1.55554 -1.925204,-2.6658 -2.100928,-7.518 l -0.144218,-3.98228 -2.397607,-1.33506 -2.397616,-1.33506 -0.645325,-10.02994 c -0.88957,-13.82608 -0.884104,-13.97639 0.508065,-13.97639 0.432982,0 0.945099,-0.15785 1.138042,-0.35077 0.490656,-0.49067 0.452675,-6.54621 -0.107538,-17.14301 -0.252076,-4.76831 -0.376402,-9.2231 -0.276287,-9.89956 0.216715,-1.46422 1.139852,-2.34523 3.866093,-3.68956 l 1.838118,-0.90643 v -5.32324 -5.32325 l 2.046305,-1.81864 c 1.639675,-1.45726 2.046306,-1.98611 2.046306,-2.66132 v -0.84266 l 4.019528,0.0813 4.019528,0.0813 0.223492,4.82343 c 0.122929,2.65292 0.320252,5.41541 0.438491,6.13894 0.20717,1.26756 0.252265,1.31547 1.238147,1.31547 0.998066,0 1.02539,-0.031 1.114304,-1.26803 C 90.068597,114.89 86.733298,64.266374 86.271811,61.789144 l -0.184708,-0.9915 52.878807,0.18642 c 29.08334,0.10256 53.64519,0.26986 54.58189,0.37184 l 1.70309,0.18536 -0.16792,1.35054 c -0.76129,6.1225 -3.15963,43.075746 -3.19919,49.292506 l -0.0391,6.1389 0.9316,0.0902 c 0.85498,0.0828 0.95775,0 1.24977,-1.02316 0.17499,-0.61233 0.38887,-3.15237 0.47528,-5.64445 0.22683,-6.5414 -0.29189,-5.8466 4.36482,-5.8466 h 3.94087 l 0.009,1.24239 c 0.009,1.20137 0.0729,1.28531 1.93624,2.54163 l 1.92696,1.29924 -0.18765,3.08571 c -0.1032,1.69716 -0.26717,4.09599 -0.36437,5.33079 l -0.17674,2.24505 3.29595,1.65299 3.29595,1.65299 -0.18992,6.47961 c -0.10444,3.56379 -0.34219,9.85036 -0.52832,13.97014 -0.18614,4.11973 -0.25632,7.70443 -0.15596,7.96598 0.10728,0.27954 0.51747,0.47728 0.99554,0.47993 1.75989,0.01 1.7253,-0.31587 1.01445,9.55042 -0.35696,4.95439 -0.73038,10.26544 -0.82982,11.80227 l -0.1808,2.79425 -1.83683,0.95236 c -2.42655,1.25808 -2.82204,2.07881 -2.99605,6.21734 -0.11992,2.85201 -0.0852,3.12472 0.41702,3.27226 0.62585,0.18389 8.16918,0.66782 14.43347,0.92597 6.36802,0.26242 23.30692,1.22377 38.73362,2.19828 7.55671,0.47733 14.26566,0.8818 14.90878,0.89879 l 1.16932,0.031 -1.02315,0.24158 c -5.18513,1.22419 -141.63977,2.52037 -181.974894,1.72854 z m -1.31549,-4.68013 c 0,-0.17136 -0.139433,-0.57209 -0.309854,-0.89053 -0.170421,-0.31844 -0.430395,-1.31958 -0.577716,-2.22479 -0.505729,-3.10727 -1.438998,-2.75066 -1.446577,0.55276 -0.0026,1.07212 0.07536,2.15738 0.172957,2.41171 0.201548,0.5252 2.16119,0.662 2.16119,0.15085 z m 6.138917,0.14069 c 0,-0.094 -0.583891,-0.91616 -1.297522,-1.82707 -1.568427,-2.002 -1.918099,-2.86379 -1.918099,-4.72741 0,-0.78398 -0.131543,-1.50667 -0.292325,-1.60605 -0.186631,-0.11536 -0.289806,0.75051 -0.285357,2.39447 0.0069,2.66577 0.321123,4.62795 0.820195,5.12706 0.448346,0.4483 2.973108,0.99095 2.973108,0.639 z m 91.079461,-0.21159 c 0.0807,-0.21032 0.10948,-1.95334 0.0639,-3.87337 l -0.0829,-3.49093 -0.87263,3.50796 c -0.47993,1.92939 -0.91711,3.6724 -0.9715,3.87338 -0.13535,0.50019 1.67093,0.48366 1.86306,-0.0172 z m -4.96356,-0.60037 c 0.084,-0.21897 0.11278,-1.15644 0.0639,-2.08325 l -0.0889,-1.68512 -1.84917,2.08326 -1.84917,2.08325 h 1.78526 c 1.23682,0 1.8322,-0.12232 1.93805,-0.39814 z m -16.93628,-3.15471 c -0.10446,-1.47173 -0.18994,-3.46525 -0.18994,-4.43012 v -1.75421 l -7.46773,0.20568 c -4.10726,0.11313 -7.74919,0.30979 -8.09319,0.43707 -0.39442,0.14589 -0.74176,0.65347 -0.94036,1.37419 -0.24839,0.90143 -0.56116,1.26635 -1.4806,1.72749 -1.08108,0.54223 -1.74912,0.58468 -9.20473,0.58468 -4.42148,0 -8.5397,-0.10601 -9.1516,-0.23554 -1.35842,-0.28764 -2.24924,-1.12343 -2.24924,-2.11036 0,-0.51374 -0.21711,-0.82059 -0.71446,-1.00966 -1.09544,-0.41651 -7.16144,-0.87685 -11.59832,-0.88021 l -3.98138,-0.004 -0.1442,4.01952 c -0.0793,2.21075 -0.0857,4.0853 -0.0141,4.16572 0.20587,0.23135 16.42525,0.46396 36.74008,0.52683 l 18.67976,0.0578 z m 37.44318,-10.71403 c 1.00254,-0.12324 1.94829,-0.35099 2.10167,-0.50607 0.15337,-0.15508 0.49142,-3.37339 0.75121,-7.15171 0.2598,-3.77836 0.58502,-7.52748 0.7227,-8.33139 0.13769,-0.80391 0.22808,-1.48456 0.2009,-1.51259 -0.0767,-0.079 -17.32846,1.87582 -19.63108,2.22442 -1.12546,0.1704 -4.53391,0.7294 -7.57431,1.24227 l -5.52801,0.93248 -1.19556,-1.34391 c -0.65756,-0.73918 -2.38078,-2.63837 -3.82937,-4.22042 -1.4486,-1.5821 -2.97618,-3.31865 -3.39461,-3.85904 l -0.76078,-0.98252 -1.59064,0.46241 c -0.87486,0.25433 -4.46531,1.92648 -7.97881,3.71585 l -6.38817,3.25341 -11.86676,-0.12433 -11.86676,-0.12434 -2.33863,-1.3726 c -2.48139,-1.45637 -10.06439,-5.24073 -11.19827,-5.58858 -0.58197,-0.17852 -1.06278,0.20485 -3.50795,2.7971 -1.55844,1.6522 -3.78166,3.98329 -4.94047,5.18017 -2.43443,2.51444 -1.48419,2.39418 -8.855407,1.12078 -4.454053,-0.76942 -13.412814,-1.95036 -20.316872,-2.67813 -4.91122,-0.51769 -4.823961,-0.56764 -4.822401,2.76048 8.63e-4,2.49892 0.482586,10.75409 0.766306,13.14051 l 0.187407,1.57631 65.515937,-0.19322 c 36.03376,-0.10625 66.33619,-0.29405 67.33873,-0.41734 z M 103.37517,156.9411 c 0.54074,-0.285 2.74417,-2.16631 4.89651,-4.18069 l 3.91333,-3.66254 -0.003,-18.74911 c -0.002,-10.312 -0.0875,-19.25923 -0.19048,-19.88272 -0.17337,-1.04955 -0.39542,-1.26823 -2.99316,-2.94786 -3.44914,-2.23008 -13.412839,-8.182466 -14.819287,-8.853146 -0.896951,-0.42775 -1.067312,-0.43589 -1.320595,-0.0633 -0.321036,0.47226 -0.09244,11.974886 0.330082,16.609966 0.359605,3.94481 0.933278,4.92175 6.310571,10.74633 6.296279,6.82003 10.302879,11.80509 9.487999,11.80509 -0.51223,0 -5.52688,-3.53318 -10.83371,-7.63316 -7.535207,-5.82156 -9.5585,-7.27563 -10.12393,-7.27563 -0.279511,0 -3.726582,1.5844 -7.660162,3.52093 l -7.151977,3.52092 0.201056,6.63751 c 0.212533,7.01663 0.745724,17.97137 0.881302,18.10695 0.06682,0.0667 4.304498,0.61294 21.807405,2.81048 2.311901,0.29028 6.277846,0.0122 7.268246,-0.51003 z m 86.86172,-0.18021 c 10.27899,-1.21098 16.43568,-2.01048 16.57802,-2.15281 0.46719,-0.46718 1.46934,-24.3472 1.03977,-24.77667 -0.12331,-0.12329 -3.11382,-1.612 -6.64559,-3.30828 -7.46443,-3.58511 -7.85485,-3.66175 -10.50847,-2.06384 -0.93191,0.56115 -4.14709,2.9758 -7.14487,5.36591 -2.99778,2.39007 -6.2398,4.87529 -7.20448,5.52268 -1.96643,1.31962 -4.23878,2.52259 -4.23878,2.24396 0,-0.45254 4.2218,-5.50367 9.86278,-11.80021 l 6.14197,-6.85581 0.21316,-8.82957 c 0.21975,-9.10275 0.11602,-11.062166 -0.60013,-11.336976 -0.60581,-0.23248 -0.83588,-0.11729 -7.72489,3.866836 -6.66596,3.85517 -8.17077,4.80291 -10.15844,6.39792 l -1.2424,0.99696 v 19.09196 19.09194 l 3.76802,3.65067 c 4.23359,4.10174 5.47402,5.1216 6.66374,5.47871 1.42914,0.42896 3.54126,0.31894 11.20059,-0.58338 z m -31.82245,-5.1852 6.09447,-3.14254 8.6e-4,-10.64873 c 8.6e-4,-5.85683 0.14551,-15.83106 0.32151,-22.16498 0.176,-6.33396 0.25656,-11.57969 0.17901,-11.65725 -0.22216,-0.22216 -13.62062,-3.80719 -17.37956,-4.650226 -5.08571,-1.14062 -7.40231,-1.33526 -10.1599,-0.85353 -4.07012,0.71099 -17.55044,4.256826 -19.87367,5.227556 -0.86834,0.36283 -1.00992,0.57848 -1.19649,1.82264 -0.23476,1.56553 0.0773,37.15158 0.35892,40.92373 l 0.17796,2.3842 6.02786,2.93712 6.02787,2.93712 11.66302,0.0139 11.66302,0.0139 6.09446,-3.1425 z m -46.17392,-48.74465 c 0.11108,-0.77647 0.44,-1.64582 0.73096,-1.93182 0.80697,-0.7933 23.42368,-6.366516 26.9083,-6.630706 0.95272,-0.0722 2.94088,0.17749 5.26192,0.66091 5.95578,1.2405 22.0569,5.384826 22.79203,5.866516 0.52282,0.34256 0.67179,0.71212 0.67528,1.67518 0.006,1.61322 0.32449,2.09404 1.23605,1.86525 0.85795,-0.21532 2.16064,-2.53429 3.14534,-5.599186 1.03792,-3.23051 0.96549,-3.17837 10.18545,-7.337 6.172,-2.78388 7.34854,-3.49273 7.35138,-4.42923 8.6e-4,-0.40158 -0.17542,-0.65776 -0.45357,-0.65776 -0.25057,0 -2.51977,0.64526 -5.04268,1.43389 -8.97088,2.80419 -10.10929,3.05643 -13.64931,3.02413 -3.48129,-0.0318 -7.56899,-0.5031 -15.78577,-1.8202 -8.53423,-1.36799 -10.91775,-1.56498 -16.66276,-1.37722 -3.70434,0.12107 -6.90606,0.43245 -10.81619,1.05196 -9.09253,1.44051 -12.90028,1.84032 -17.83208,1.87237 -5.33464,0.0344 -5.98309,-0.0759 -13.553055,-2.30903 -5.894455,-1.7389 -6.565242,-1.85098 -6.417006,-1.07199 0.213395,1.12146 4.206392,3.15806 12.515661,6.38367 l 3.94645,1.53196 1.04868,2.87537 c 0.57677,1.58147 1.26262,3.287146 1.52412,3.790406 0.6929,1.33359 1.97968,2.78069 2.35989,2.65397 0.18093,-0.0604 0.41985,-0.74497 0.53091,-1.52144 z m 59.33151,-15.612886 c 1.21892,-0.95878 6.39956,-11.77752 7.9925,-16.69072 0.28669,-0.88428 1.096,-2.84567 1.79845,-4.35864 0.70246,-1.513 1.22437,-2.80369 1.15981,-2.86824 -0.1237,-0.12371 -7.51396,0.38429 -9.91952,0.68187 -0.9354,0.11574 -1.46524,0.33622 -1.57551,0.65562 -1.2359,3.58011 -3.94104,9.83429 -6.30678,14.58104 -1.62127,3.253 -2.84698,6.01528 -2.72381,6.13844 0.30179,0.30182 0.88485,-0.52117 2.22243,-3.13693 2.33362,-4.56356 2.72863,-4.16819 0.72814,0.72882 -0.72203,1.76746 -1.3128,3.37007 -1.3128,3.56132 0,0.46135 0.82983,0.70184 3.33303,0.96587 3.36844,0.3553 3.85884,0.32774 4.60406,-0.25845 z m -54.30224,-0.58791 c 0.66016,-0.30254 2.45001,-1.70367 3.97743,-3.11368 5.36086,-4.94873 16.24511,-15.29853 18.27057,-17.37344 l 2.04631,-2.09626 -2.50795,0.0977 c -2.42052,0.0943 -2.56321,0.13956 -4.09261,1.29697 -0.87157,0.6596 -4.61204,4.01407 -8.31216,7.45441 -3.70013,3.44034 -8.73184,8.07828 -11.1816,10.30651 -2.44974,2.22823 -4.45408,4.12221 -4.45408,4.20879 0,0.37074 5.14202,-0.2714 6.25409,-0.78104 z m -10.69565,-1.12095 c 0.99183,-0.60294 3.35065,-2.48916 5.24183,-4.19165 4.12178,-3.71052 16.73948,-16.02285 16.73948,-16.33436 0,-0.12099 -2.72963,-0.3061 -6.06584,-0.4114 -3.3362,-0.10528 -7.32641,-0.27077 -8.86713,-0.36776 l -2.80131,-0.17631 -6.30097,6.68465 c -8.502128,9.0199 -10.167265,10.96745 -10.167265,11.89183 0,1.03262 0.776635,1.50449 4.384936,2.66442 5.221259,1.67837 5.459049,1.68567 7.836269,0.24058 z m 78.17533,-1.49405 c 0.27793,-0.26558 0.7709,-1.52131 1.0955,-2.79047 1.03387,-4.04239 1.74654,-10.0932 1.08492,-9.21135 -0.0503,0.067 -0.79179,2.09505 -1.64786,4.50676 -0.85606,2.41171 -1.80888,5.09312 -2.11738,5.95873 -0.30849,0.86557 -0.48844,1.76256 -0.39988,1.99336 0.19314,0.50335 1.22945,0.2647 1.9847,-0.45703 z"
       id="path615" /><path
       style="fill:#ffffff;fill-opacity:1;stroke:none;stroke-width:0.29233"
       d="m 22.293804,192.52921 c -8.682181,-0.21855 -16.1146466,-0.47976 -16.5166002,-0.58045 -0.7306956,-0.18306 -0.7306689,-0.18314 0.1563288,-0.42829 1.7168084,-0.47452 37.5424124,-6.104 44.2777044,-6.95761 1.366639,-0.1732 6.036595,-0.71027 10.377678,-1.19349 4.341091,-0.4832 8.25465,-0.95508 8.696796,-1.04858 l 0.803899,-0.17007 v 2.03296 c 0,1.11815 -0.07881,2.42703 -0.175112,2.9086 l -0.17512,0.87559 -3.698241,0.19809 c -6.314141,0.33823 -15.601829,1.05266 -17.403345,1.33871 -2.830873,0.44948 -2.705469,0.66488 0.875912,1.5047 1.42872,0.335 3.321185,0.81359 4.205479,1.06352 l 1.607806,0.45439 -1.169316,0.22619 c -1.658764,0.32087 -13.525223,0.23735 -31.863869,-0.22426 z"
       id="path617" /><path
       style="fill:#ffffff;stroke:none;stroke-width:0.29233"
       d="m 132.06339,150.90631 c -0.72351,-0.12936 -3.61757,-1.29369 -6.43124,-2.58747 l -5.11576,-2.35227 -0.18752,-4.17478 c -0.32911,-7.32714 -0.64176,-31.60198 -0.4255,-33.03605 0.24934,-1.65327 -0.67765,-1.30278 11.61097,-4.39009 l 8.36701,-2.10205 2.74151,0.51866 c 3.71717,0.70322 12.48648,2.91656 15.94472,4.02434 l 2.82324,0.90438 -0.19278,13.19899 c -0.10603,7.25947 -0.279,15.84037 -0.38436,19.06871 l -0.1916,5.86963 -5.67778,2.68098 -5.67778,2.68099 -7.94382,-0.0344 c -4.36911,-0.0189 -8.5358,-0.14019 -9.25931,-0.26956 z m 9.39183,-2.51809 c 0.59632,-0.71854 0.59632,-40.11769 0,-40.83623 -0.59133,-0.7125 -1.17956,-0.58967 -1.5351,0.32049 -0.43649,1.11743 -0.43571,39.07472 8.6e-4,40.19525 0.35458,0.91016 0.9429,1.03303 1.53427,0.32049 z m -10.20404,-1.1244 c 0.13914,-0.48232 0.17245,-2.91597 0.074,-5.40806 -0.0984,-2.49213 -0.28479,-10.42753 -0.41411,-17.63424 -0.15788,-8.79815 -0.34022,-13.20817 -0.55498,-13.42291 -0.23157,-0.2316 -0.383,-0.1652 -0.54867,0.24062 -0.29937,0.73322 -0.29855,35.39002 8.6e-4,36.46329 0.29878,1.07099 1.10348,0.93789 1.4429,-0.2387 z m 19.87839,0.21927 c 0.24889,-0.58397 0.3403,-5.36255 0.3341,-17.46669 -0.008,-15.92713 -0.13887,-19.6351 -0.68047,-19.30035 -0.33043,0.20421 -0.5217,4.71534 -0.92424,21.7976 -0.2623,11.13114 -0.26136,14.63209 0.004,15.12806 0.46144,0.8622 0.85231,0.81325 1.26653,-0.15862 z"
       id="path619" /><path
       style="fill:#ffffff;stroke:none;stroke-width:0.051677"
       d="m 99.033593,155.22162 c -0.113686,-0.0109 -0.567154,-0.045 -1.007698,-0.0759 -3.345404,-0.2344 -12.836632,-1.40767 -16.699733,-2.06437 -1.749411,-0.29738 -4.534516,-0.80483 -4.55953,-0.8308 -0.04259,-0.0441 -0.5996,-5.05369 -0.648937,-5.8359 -0.13263,-2.10302 -0.111393,-5.32879 0.0507,-7.69986 0.08131,-1.18979 0.354785,-4.23895 0.441863,-4.92712 0.154737,-1.22285 0.359915,-1.83362 0.671717,-1.99949 0.250937,-0.13353 1.030573,-0.0913 1.795766,0.0971 3.029834,0.74623 8.878961,2.76044 11.157045,3.84208 0.418789,0.19884 0.849968,0.37339 0.95817,0.38791 0.592435,0.0794 0.375056,-0.58204 -0.886475,-2.69739 -0.970656,-1.62761 -1.678191,-3.1678 -1.768864,-3.85052 -0.02449,-0.18453 -0.01026,-0.25878 0.06846,-0.35593 0.09036,-0.11158 0.115506,-0.11737 0.276649,-0.0636 0.774272,0.25832 3.447451,3.04569 5.685069,5.92794 1.659308,2.13728 2.529435,3.54152 3.936115,6.35204 1.406793,2.81077 2.8483,6.16038 3.60159,8.36898 0.45825,1.34353 0.5875,1.87704 0.58281,2.40567 -0.009,0.98769 -0.55797,2.36365 -1.08096,2.70817 -0.31939,0.21041 -0.73889,0.29281 -1.59187,0.31269 -0.426323,0.0101 -0.868168,0.009 -0.981854,0 z m -0.267044,-6.13638 c 0.117971,-0.13541 0.09188,-0.28857 -0.133259,-0.78205 -0.286616,-0.62823 -1.021139,-1.99987 -1.304039,-2.43517 -1.113236,-1.71288 -3.092157,-3.31017 -5.746246,-4.63814 -0.748982,-0.37472 -1.138093,-0.54966 -2.541868,-1.14276 -1.27243,-0.53757 -2.292569,-1.01236 -4.451258,-2.07164 -2.771776,-1.3601 -3.44664,-1.62732 -4.105131,-1.62539 -0.333454,0 -0.496968,0.0841 -0.610318,0.31 -0.171266,0.34151 -0.12931,0.48581 0.258309,0.88848 1.378011,1.43137 8.147043,6.205 12.93216,9.11994 2.863189,1.74414 4.02684,2.30743 5.193533,2.51399 0.188399,0.0331 0.412133,-0.0272 0.508117,-0.13726 z"
       id="path621" /><path
       style="fill:#ffffff;stroke:none;stroke-width:0.103354"
       d="m 180.09559,155.03365 c -0.36476,-0.17526 -0.62886,-0.39801 -0.82683,-0.69744 -0.26609,-0.40241 -0.2906,-0.51982 -0.28764,-1.37726 0.003,-1.09046 0.18226,-1.83622 1.07772,-4.50302 2.2138,-6.59309 5.89035,-12.75002 10.32905,-17.29759 1.24694,-1.27756 2.19339,-2.02962 2.55415,-2.02962 0.61167,0 0.17121,1.22881 -1.37185,3.8272 -1.6361,2.75506 -1.79092,3.09749 -1.40037,3.09749 0.32227,0 3.03104,-0.95437 7.77352,-2.73883 3.79628,-1.42844 4.72059,-1.73978 5.2943,-1.78336 0.67571,-0.0513 0.70353,-0.0437 1.00003,0.27371 0.46164,0.4942 0.62844,1.42503 0.75205,4.19684 0.20724,4.64721 -0.0759,15.60086 -0.41745,16.15135 -0.1946,0.3136 -19.52393,2.93254 -22.75216,3.08273 -1.11465,0.0518 -1.22189,0.0394 -1.72452,-0.2022 z m 4.51508,-6.30112 c 0.48319,-0.19623 1.36897,-0.63581 1.96843,-0.9769 4.43345,-2.52229 13.44696,-8.87147 14.90411,-10.4985 0.3236,-0.36134 0.38058,-0.89171 0.11909,-1.10871 -0.26945,-0.22363 -1.64365,0.31114 -4.53747,1.76584 -1.42111,0.71434 -3.5373,1.70966 -4.70261,2.21174 -4.78432,2.06141 -6.65359,3.28672 -7.94949,5.21095 -0.65244,0.96881 -1.66137,3.10627 -1.66194,3.52093 l -4.2e-4,0.35031 0.49093,-0.0594 c 0.27001,-0.0328 0.88626,-0.21999 1.36944,-0.41622 z"
       id="path623" /><path
       style="fill:#ffffff;stroke:none;stroke-width:0.103354"
       d="m 200.42383,172.05665 c -0.19896,-0.0189 -0.60785,-0.0849 -0.90865,-0.14687 -0.65519,-0.13495 -0.65611,-0.12076 0.097,-1.49115 0.90463,-1.64611 1.52377,-2.98393 1.71056,-3.69614 0.17848,-0.68049 0.17802,-0.69894 -0.0224,-0.89916 -0.32992,-0.32955 -1.37453,-0.413 -5.21733,-0.41681 -5.33251,-0.005 -8.78508,-0.25085 -8.78508,-0.62479 0,-0.2605 1.43102,-0.48933 6.45962,-1.0329 5.36217,-0.57964 9.43788,-1.1314 11.12725,-1.50638 0.22294,-0.0495 0.31112,-0.006 0.46509,0.22942 0.17296,0.2644 0.18926,0.53665 0.18165,3.03339 -0.01,3.17238 -0.16978,4.54666 -0.63807,5.47721 -0.3685,0.73221 -0.65965,0.93017 -1.53353,1.04276 -0.68315,0.088 -2.17025,0.10391 -2.93606,0.0315 z"
       id="path625" /><path
       style="fill:#ffffff;stroke:none;stroke-width:0.103354"
       d="m 126.11233,173.04739 c -10.74725,-0.0902 -12.25105,-0.19409 -14.12125,-0.97514 -2.01141,-0.84006 -2.2772,-0.90869 -3.29389,-0.85084 -0.56176,0.0319 -1.62609,0.21969 -2.68721,0.47397 -2.16573,0.51895 -3.57696,0.76872 -3.69218,0.65352 -0.20773,-0.20773 1.04838,-2.14181 3.03829,-4.67816 3.6018,-4.59082 7.4591,-8.69471 9.09406,-9.67542 0.7626,-0.45742 0.89902,-0.49856 0.97727,-0.29465 0.11608,0.30253 -0.66756,1.68348 -2.51102,4.425 -0.98472,1.46443 -1.7904,2.68937 -1.7904,2.72209 0,0.0957 57.9929,-0.0328 58.4287,-0.12925 l 0.39544,-0.0877 -0.66422,-1.08521 c -0.36532,-0.59689 -1.15461,-1.84289 -1.75399,-2.76891 -1.09283,-1.68844 -2.02432,-3.38086 -1.91883,-3.48632 0.34546,-0.34549 9.24339,8.70071 11.77471,11.97091 0.73737,0.95261 1.66684,2.42854 1.79656,2.85285 l 0.076,0.2485 -0.65522,-0.0685 c -0.36036,-0.0378 -1.6405,-0.30069 -2.84475,-0.58442 -3.13881,-0.73965 -3.47853,-0.72454 -5.61482,0.24992 -1.14323,0.52147 -1.98794,0.73142 -3.5709,0.88755 -2.82918,0.279 -20.60278,0.36692 -40.46233,0.20018 z"
       id="path627" /><path
       style="fill:#ffffff;stroke:none;stroke-width:0.051677"
       d="m 78.207768,172.09587 c -1.151708,-0.0551 -1.444619,-0.1954 -1.751972,-0.83931 -0.733851,-1.53746 -1.241424,-5.1422 -1.079151,-7.66407 0.09629,-1.49639 0.13613,-1.52798 1.539197,-1.21928 2.344977,0.51593 7.563808,1.20195 12.86757,1.69154 2.58723,0.23881 3.737809,0.40559 4.237243,0.6143 0.340618,0.14233 0.206083,0.2597 -0.448381,0.39125 -1.250736,0.2514 -2.782769,0.31273 -8.633577,0.34562 -4.360112,0.0243 -5.154776,0.0403 -5.154776,0.10101 0,0.0394 0.105383,0.49596 0.234184,1.01407 0.36714,1.4768 0.64986,2.2461 1.485713,4.04263 0.382049,0.82119 0.541269,1.24429 0.488216,1.29735 -0.08703,0.087 -0.812142,0.17803 -1.794705,0.22523 -0.582648,0.0281 -1.094257,0.0477 -1.136886,0.0438 -0.04268,-0.004 -0.426333,-0.0239 -0.852675,-0.0442 z"
       id="path629" /><path
       style="fill:#ffffff;stroke:none;stroke-width:0.103354"
       d="m 107.93597,127.81095 c -0.43819,-0.81971 -0.65802,-2.95612 -1.14939,-11.17044 -0.11335,-1.89457 -0.22963,-3.48278 -0.25842,-3.52935 -0.0288,-0.0466 -1.15709,-0.93394 -2.50736,-1.97189 -4.878764,-3.75025 -6.929872,-5.49243 -6.823213,-5.7955 0.133405,-0.37905 1.761112,0.19103 4.884943,1.71083 3.35249,1.6311 5.37487,2.82316 6.37688,3.75881 0.86258,0.80551 0.8588,0.7771 0.85207,6.37793 -0.004,3.80114 -0.0443,5.23977 -0.18297,6.61464 -0.32037,3.17737 -0.79066,4.75678 -1.19254,4.00497 z"
       id="path631" /><path
       style="fill:#ffffff;stroke:none;stroke-width:0.103354"
       d="m 172.89526,127.07135 c -0.5543,-1.01843 -0.78359,-4.54351 -0.78806,-12.11587 l -0.003,-3.99289 1.36944,-0.87572 c 2.73027,-1.7459 6.86992,-4.06651 8.55239,-4.79423 0.81532,-0.35267 1.75717,-0.57177 1.75717,-0.40876 0,0.6292 -2.44755,2.80847 -7.14812,6.36459 l -1.70767,1.29194 -0.17806,2.48051 c -0.4634,6.45565 -0.99967,11.50515 -1.30805,12.31618 -0.13379,0.35191 -0.2381,0.30124 -0.54668,-0.26575 z"
       id="path633" /></g><g
     id="g1331"
     transform="matrix(0.61188716,0,0,0.82876436,50.17876,-250.71823)"
     style="fill:#ffffff"><g
       id="g909"
       style="fill:#ffffff"
       transform="matrix(0.63473536,0,0,0.63473536,-54.904494,243.0617)"><path
         style="fill:#ffffff;stroke:none;stroke-width:1.06828"
         d="M 483.18669,236.03501 V 148.9707 h 29.37751 29.37753 v 87.06431 87.06431 H 512.5642 483.18669 Z"
         id="path589" /><path
         style="fill:#ffffff;stroke:none;stroke-width:1.06828"
         d="M 550.48791,305.47281 V 287.8463 h 14.4217 14.42168 v -10.68277 -10.68277 h 26.1727 26.1727 v 28.30928 28.30928 H 591.0823 550.48791 Z"
         id="path591" /><path
         style="fill:#ffffff;stroke:none;stroke-width:1.06828"
         d="m 666.11637,305.72805 -17.34731,-17.3712 V 218.66374 148.9707 h 28.84338 28.84339 v 69.4378 69.4378 h 10.68273 10.68273 v 17.62651 17.62651 h -22.17881 -22.17881 z"
         id="path593" /><path
         style="fill:#ffffff;stroke:none;stroke-width:1.06828"
         d="M 737.43575,305.47281 V 287.8463 h 10.68274 10.68274 v -69.4378 -69.4378 h 28.84338 28.84338 v 69.71703 69.71695 l -17.37123,17.34728 -17.37124,17.34736 h -22.15488 -22.15489 z"
         id="path595" /><path
         style="fill:#ffffff;stroke:none;stroke-width:1.06828"
         d="m 846.39962,246.78078 c 0,-41.97517 0.39267,-76.56113 0.87248,-76.85775 0.47989,-0.29655 12.73831,19.35123 27.24096,43.66173 l 26.36856,44.20086 v 32.65681 32.65689 h -27.24104 -27.24096 z"
         id="path597" /><path
         style="fill:#ffffff;stroke:none;stroke-width:1.06828"
         d="M 932.08611,293.57196 C 892.48863,226.97472 847.46794,150.8258 847.46794,150.44701 c 0,-0.22442 13.5861,-0.408 30.19136,-0.408 h 30.19136 l 7.07105,11.48389 c 3.88903,6.31623 14.14786,23.16515 22.79747,37.44216 8.64961,14.277 16.27536,25.77523 16.94618,25.55165 0.67082,-0.22359 8.91405,-13.31961 18.31834,-29.1022 l 17.09871,-28.69566 0.72202,4.74641 c 0.39711,2.61054 0.75766,21.45145 0.8012,41.8687 l 0.0792,37.12231 -20.36299,34.98621 c -11.19968,19.24232 -20.77075,35.39941 -21.26904,35.90452 -0.49966,0.50657 -8.55794,-11.95098 -17.96667,-27.77504 z"
         id="path599" /><path
         style="fill:#ffffff;stroke:none;stroke-width:1.06828"
         d="m 1000.9299,314.28607 c -0.8948,-11.49478 -0.9058,-150.20306 -0.012,-158.74897 l 0.6863,-6.5664 h 28.1571 28.1571 v 87.06431 87.06431 h -28.1509 -28.1509 z"
         id="path601" /><path
         style="fill:#ffffff;stroke:none;stroke-width:1.06828"
         d="m 1086.7612,304.93865 v -18.16066 h 8.5461 8.5462 v -50.20882 -50.2089 h -8.5462 -8.5461 V 167.66552 148.9707 h 45.9357 45.9358 v 18.69482 18.69475 h -8.5462 -8.5462 v 50.2089 50.20882 h 8.5462 8.5462 v 18.16066 18.16067 h -45.9358 -45.9357 z"
         id="path603" /></g><g
       id="g1969"
       style="fill:#ffffff"
       transform="matrix(0.63473536,0,0,0.63473536,-54.904494,243.0617)"><path
         style="fill:#ffffff;stroke:none;stroke-width:0.188846"
         d="m 510.99858,432.65198 c -2.52566,-0.23531 -3.55721,-0.64653 -6.26949,-2.49887 -4.19831,-2.86731 -5.84971,-5.90869 -6.69498,-12.33016 -0.60735,-4.61411 -0.50623,-38.38875 0.13739,-45.88956 0.38018,-4.43062 1.04907,-6.44163 2.99975,-9.01837 3.21468,-4.24651 8.89399,-6.23705 16.0142,-5.61283 5.46116,0.47874 8.7118,2.00119 11.44957,5.36242 2.40113,2.94795 3.64251,7.09122 4.16624,13.9055 0.15525,2.0199 0.33216,4.24613 0.39313,4.94722 l 0.11088,1.27465 h -6.14893 -6.14892 l -0.005,-2.97431 c -0.0139,-9.64511 -0.85868,-11.24115 -5.94436,-11.23057 -2.60617,0.008 -3.4639,0.40279 -4.27231,1.9792 -0.86843,1.69353 -1.18813,8.57503 -1.19526,25.72817 -0.007,16.60418 0.22595,20.33347 1.44753,23.18223 0.81193,1.89343 2.54144,2.64282 5.22426,2.26356 1.7908,-0.25316 2.74156,-0.88903 3.47581,-2.3248 0.83345,-1.62968 1.06648,-3.46401 1.20389,-9.47687 l 0.12409,-5.42933 h 6.12078 6.12079 l -0.1097,1.46358 c -0.0603,0.80496 -0.19649,3.12071 -0.30257,5.14605 -0.23028,4.39651 -0.45714,6.47198 -0.97018,8.87572 -1.6604,7.77959 -5.76284,11.54483 -13.56233,12.44751 -2.29813,0.26604 -5.71691,0.36338 -7.36499,0.20986 z"
         id="path635" /><path
         style="fill:#ffffff;stroke:none;stroke-width:0.188846"
         d="m 569.72964,431.78724 c -0.15579,-0.0337 -0.75139,-0.11221 -1.32354,-0.17483 -0.57216,-0.0629 -1.14926,-0.18128 -1.28245,-0.2636 -0.1927,-0.11911 -0.10458,-1.0529 0.4314,-4.57165 0.72192,-4.73935 5.60267,-35.56428 8.93802,-56.44901 l 2.03574,-12.74704 7.54492,0.008 c 7.5434,0.008 9.47928,0.14302 10.03256,0.70193 0.12781,0.12916 0.4122,1.46696 0.63199,2.97301 0.58059,3.9784 2.94864,19.09393 6.41997,40.9796 4.12536,26.00893 4.50709,28.56835 4.30047,28.83355 -0.36344,0.46648 -2.09736,0.66024 -6.78584,0.7582 -4.61221,0.0963 -4.84805,0.0844 -4.94818,-0.25141 -0.0579,-0.19384 -0.4518,-2.38819 -0.87548,-4.87617 -0.86088,-5.05537 -1.16224,-6.26602 -1.74391,-7.00544 -0.76466,-0.97212 -1.16939,-1.02915 -7.3027,-1.02915 h -5.65644 l -0.10615,0.51929 c -0.0584,0.28566 -0.44256,2.56241 -0.85371,5.05951 -1.02064,6.19896 -1.33881,7.03572 -2.83304,7.45077 -0.60499,0.16809 -5.91989,0.23622 -6.62363,0.0849 z m 20.20372,-23.51658 c 1.09084,-0.25132 1.51355,-0.64499 1.51355,-1.40947 0,-2.13755 -3.49827,-25.46289 -4.5374,-30.25391 -0.41744,-1.92462 -0.13363,-3.4332 -3.40169,18.08203 -1.03337,6.80317 -1.92927,12.6881 -1.9909,13.07755 l -0.11203,0.70822 3.84072,-0.008 c 2.1124,0 4.22189,-0.0924 4.68775,-0.19975 z"
         id="path637" /><path
         style="fill:#ffffff;stroke:none;stroke-width:0.188846"
         d="m 643.56837,394.59488 v -37.29706 l 1.55797,3.1e-4 c 2.07705,3.8e-4 10.72846,0.33112 14.96604,0.5721 8.78693,0.49974 11.51503,1.74005 15.24834,6.93278 2.03229,2.82676 2.21812,4.22604 2.21341,16.66711 -0.004,9.16951 -0.129,11.45491 -0.7372,13.42162 -0.83014,2.6845 -3.60454,5.8742 -6.34735,7.29762 -3.04485,1.58017 -6.04306,2.13111 -11.59726,2.13111 h -3.21782 v 13.7857 13.78577 h -6.04306 -6.04307 z m 19.92882,-1.99399 c 1.61151,-0.82956 1.94857,-1.84813 2.37121,-7.16502 0.30198,-3.79912 0.1269,-11.45239 -0.29296,-12.8056 -0.78229,-2.52125 -3.36597,-3.89026 -7.79642,-4.13116 l -2.12452,-0.11551 v 12.41547 12.41546 l 3.45203,-0.0652 c 3.26683,-0.0621 3.5024,-0.0911 4.39066,-0.54841 z"
         id="path639" /><path
         style="fill:#ffffff;stroke:none;stroke-width:0.188846"
         d="m 712.85056,431.69978 c -1.09988,-0.18579 -1.61711,-0.45981 -1.7685,-0.93678 -0.19236,-0.60613 1.13499,-9.41571 6.70146,-44.47734 1.96229,-12.35997 3.75765,-23.74736 3.98968,-25.3053 0.28644,-1.92332 0.51725,-2.91537 0.71894,-3.09021 0.41382,-0.35871 16.96753,-0.15881 17.30796,0.20902 0.21079,0.22772 1.27261,6.69265 8.1032,49.33726 4.01629,25.07436 3.81473,23.69202 3.48438,23.89621 -0.1476,0.0912 -0.73648,0.23309 -1.30863,0.31533 -1.32112,0.18993 -8.23934,0.19606 -8.91004,0.008 -0.27763,-0.0779 -0.76606,-0.36148 -1.08541,-0.6302 -0.84164,-0.70815 -1.23868,-2.24478 -1.98924,-7.69872 -0.35525,-2.58142 -0.67604,-4.72365 -0.71286,-4.76051 -0.079,-0.079 -13.6159,0.50771 -13.71729,0.59455 -0.0653,0.056 -1.70746,11.99038 -1.71929,12.4948 -0.005,0.18211 -0.94372,0.23101 -4.11292,0.21385 -2.25907,-0.0123 -4.50072,-0.0887 -4.98144,-0.16993 z m 21.54773,-23.47143 c 0.81252,-0.27915 1.16659,-0.93188 1.0443,-1.925 -0.97712,-7.93587 -3.66888,-24.97281 -4.25922,-26.95775 -0.86956,-2.92388 -1.3584,-1.36441 -2.9154,9.30066 -0.47765,3.2717 -1.26048,8.45554 -1.73963,11.5196 -0.47914,3.06399 -0.87911,6.07724 -0.88881,6.69602 -0.016,1.01849 0.0271,1.14795 0.45447,1.3664 0.63093,0.32238 7.36601,0.32245 8.30429,7e-5 z"
         id="path641" /><path
         style="fill:#ffffff;stroke:none;stroke-width:0.267068"
         d="m 800.64893,432.72602 c -4.14118,-0.5734 -7.0807,-1.95452 -9.69489,-4.55502 -3.02934,-3.01355 -4.31663,-6.32903 -4.7699,-12.28524 -0.71568,-9.40421 -0.55017,-37.26854 0.26358,-44.377 0.64543,-5.63805 3.65167,-10.0026 8.59819,-12.48322 3.04165,-1.52537 5.41993,-1.97475 9.52418,-1.79977 5.30833,0.22634 8.87041,1.52008 11.55452,4.19661 3.02224,3.01364 4.42324,7.36891 4.89728,15.22415 0.0842,1.39537 0.22243,3.34835 0.30712,4.33979 l 0.15399,1.80275 h -6.16971 -6.16968 l -0.005,-4.33987 c -0.0105,-8.16719 -0.90507,-9.86118 -5.22236,-9.889 -5.18062,-0.033 -5.52255,1.20367 -6.00125,21.71191 -0.48472,20.76584 0.22083,28.72854 2.73288,30.84225 0.94706,0.7969 2.92674,0.90613 4.79053,0.2642 3.08872,-1.06371 3.14508,-1.22521 3.51903,-10.07993 l 0.29041,-6.87706 h 6.10508 6.10513 l -0.16364,3.00451 c -0.74476,13.6728 -1.17173,15.98595 -3.52073,19.07316 -0.89227,1.17271 -4.24729,3.89225 -5.74317,4.65543 -2.56792,1.31006 -7.92579,2.04978 -11.38102,1.57135 z"
         id="path643" /><path
         style="fill:#ffffff;stroke:none;stroke-width:0.267068"
         d="m 858.28422,394.6736 v -37.25606 h 6.00903 6.00902 v 37.25606 37.25605 h -6.00902 -6.00903 z"
         id="path645" /><path
         style="fill:#ffffff;stroke:none;stroke-width:0.267068"
         d="m 917.50765,400.2153 -0.0675,-31.71443 -6.22578,-0.0713 c -5.75632,-0.0667 -6.21598,-0.10662 -6.09595,-0.53416 0.0713,-0.25431 0.20465,-2.26509 0.29617,-4.4684 0.0915,-2.20332 0.22696,-4.32117 0.301,-4.70632 l 0.13451,-0.70025 11.67053,-0.17001 c 6.41878,-0.0935 14.52481,-0.24435 18.01343,-0.33518 l 6.34282,-0.16525 v 5.5089 5.50882 h -6.14254 -6.14255 v 31.78118 31.78111 h -6.00795 -6.00795 z"
         id="path647" /><path
         style="fill:#ffffff;stroke:none;stroke-width:0.267068"
         d="m 976.7927,431.68453 c -2.39509,-0.34039 -2.35569,0.0751 -0.90973,-9.56961 0.69918,-4.66371 2.47434,-16.05087 3.94475,-25.30477 1.47041,-9.2539 3.44539,-21.7441 4.38884,-27.75596 1.06242,-6.76998 1.84453,-11.02185 2.0547,-11.17024 0.32207,-0.22742 16.98644,-0.0659 17.21924,0.16693 0.1051,0.10509 6.2662,38.07695 9.9505,61.32657 1.1415,7.20304 1.7464,11.71421 1.5921,11.87218 -0.3751,0.38385 -6.5366,0.78901 -8.5982,0.56543 -2.1356,-0.2317 -3.1472,-0.92506 -3.609,-2.47349 -0.1668,-0.55953 -0.6113,-3.17329 -0.9877,-5.80836 -0.3765,-2.635 -0.7418,-4.84828 -0.8118,-4.91826 -0.1681,-0.16808 -13.48233,0.40762 -13.6656,0.59088 -0.0779,0.0779 -0.51905,2.94266 -0.98017,6.36597 l -0.83837,6.22433 -3.73895,0.0345 c -2.05645,0.0192 -4.3112,-0.0468 -5.01061,-0.14617 z m 21.50856,-23.50109 c 1.11178,-0.42271 1.10955,-0.47353 -0.49668,-11.37329 -1.3677,-9.2805 -2.46644,-15.82054 -2.92771,-17.42623 -0.95495,-3.32451 -1.41231,-1.58775 -3.70982,14.08784 -0.65664,4.48013 -1.40464,9.44453 -1.66226,11.03213 -0.54864,3.38131 -0.44402,3.70783 1.27243,3.96889 1.55717,0.23677 6.65585,0.0406 7.52404,-0.28934 z"
         id="path649" /><path
         style="fill:#ffffff;stroke:none;stroke-width:0.267068"
         d="m 1062.1908,432.30078 c -2.8834,-0.51561 -4.6561,-1.43776 -6.946,-3.61287 -2.3285,-2.21182 -3.4546,-4.19776 -3.9271,-6.9258 -0.4977,-2.87291 -0.4968,-50.50215 0,-53.39476 0.4735,-2.75203 1.181,-4.07091 3.3795,-6.29967 3.3131,-3.35878 6.8549,-4.65014 12.7545,-4.65014 9.8085,0 14.7965,3.63318 16.506,12.02257 0.4233,2.07762 1.046,9.46952 1.0627,12.61452 v 0.73444 h -5.5771 -5.5771 l -0.1275,-4.33987 c -0.093,-3.14914 -0.2506,-4.6696 -0.5759,-5.5417 -1.1585,-3.10561 -2.8114,-4.35159 -5.7726,-4.35159 -3.1183,0 -3.9099,0.8701 -4.5666,5.01927 -0.4079,2.57697 -0.6329,34.45987 -0.2848,40.34855 0.3374,5.70704 0.5459,6.29048 2.581,7.22221 2.4291,1.112 5.0225,0.8632 6.3164,-0.60613 1.6931,-1.92279 2.3673,-5.18882 2.3673,-11.46803 v -4.65021 h 5.4749 5.4749 v 5.80874 c 0,6.34697 -0.369,9.56303 -1.4492,12.66887 -1.7717,5.09454 -5.2865,8.24644 -10.487,9.40382 -2.3893,0.53186 -7.6501,0.53071 -10.63,0 z"
         id="path651" /><path
         style="fill:#ffffff;stroke:none;stroke-width:0.267068"
         d="m 1121.8807,394.6736 v -37.25606 h 6.009 6.009 v 37.25606 37.25605 h -6.009 -6.009 z"
         id="path653" /><path
         style="fill:#ffffff;stroke:none;stroke-width:0.267068"
         d="m 1183.9106,432.34623 c -3.3825,-0.77498 -6.5362,-3.0249 -8.72,-6.22103 -1.7773,-2.60119 -2.5112,-4.93151 -2.854,-9.06175 -0.4058,-4.88996 -0.1753,-45.09496 0.27,-47.0937 0.4381,-1.9664 2.0843,-5.40527 3.4486,-7.20381 1.9663,-2.59222 4.236,-4.04508 7.7853,-4.98355 2.609,-0.68983 8.7833,-0.62123 11.5678,0.12846 4.4561,1.19976 7.6307,3.70752 9.7219,7.67948 1.9007,3.61034 1.9913,4.27211 2.1357,15.59634 0.1462,11.4576 -0.3227,36.54139 -0.7389,39.52613 -0.395,2.83252 -1.2832,4.47638 -3.828,7.085 -3.4801,3.56726 -6.1987,4.55127 -13.25,4.79577 -2.8192,0.0978 -4.3257,0.0307 -5.5384,-0.24734 z m 8.3635,-11.0716 c 1.409,-0.63993 2.1318,-1.58446 2.5329,-3.31018 0.7135,-3.06913 0.7175,-39.19118 0.01,-45.02529 -0.315,-2.57966 -0.6625,-3.23982 -2.0523,-3.8993 -1.2861,-0.61027 -4.6379,-0.64399 -6.0275,-0.0605 -1.3474,0.56566 -1.779,1.34892 -2.1022,3.81575 -0.4646,3.54534 -0.7644,23.04948 -0.5149,33.49602 0.2877,12.0484 0.6284,13.99978 2.6346,15.09017 1.0324,0.56113 4.1883,0.5002 5.5244,-0.10662 z"
         id="path655" /><path
         style="fill:#ffffff;stroke:none;stroke-width:0.267068"
         d="m 1185.579,355.05948 c -0.7261,-0.12202 -1.0948,-0.33235 -1.1572,-0.66024 -0.1063,-0.55808 1.9524,-4.28101 4.3858,-7.9315 2.476,-3.71427 2.5204,-3.75919 4.0004,-4.04125 1.3045,-0.24872 9.0144,-0.0368 10.2025,0.2803 0.5436,0.14509 0.029,0.75352 -4.8072,5.68235 -3.4538,3.52004 -5.8255,5.72113 -6.5463,6.07532 -1.2313,0.60514 -4.2558,0.90123 -6.078,0.59502 z"
         id="path657" /><path
         style="fill:#ffffff;stroke:none;stroke-width:0.267068"
         d="m 1244.5654,417.30765 c 0.091,-8.0421 0.2406,-24.68898 0.3328,-36.99307 l 0.1674,-22.37108 7.4878,0.0705 7.4878,0.0705 5.0979,19.00724 c 2.8039,10.45398 5.1726,19.08144 5.2638,19.17219 0.091,0.0908 0.2423,-5.81855 0.3357,-13.13174 0.093,-7.31318 0.2437,-16.09087 0.3341,-19.50598 l 0.1645,-6.20939 h 5.4422 5.4423 v 37.29047 37.29047 l -2.604,-0.1638 c -1.4321,-0.0901 -4.2464,-0.24136 -6.2541,-0.33633 -3.422,-0.1618 -3.6594,-0.20794 -3.7978,-0.73865 -2.2791,-8.73615 -13.1254,-48.70177 -13.2596,-48.85775 -0.1037,-0.12064 -0.2649,7.81132 -0.3581,17.62651 -0.093,9.81527 -0.2435,21.12088 -0.3341,25.12357 l -0.1648,7.27762 h -5.4745 -5.4747 z"
         id="path659" /><path
         style="fill:#ffffff;stroke:none;stroke-width:0.267068"
         d="m 1367.0494,394.6736 v -37.25606 h 3.2716 c 5.3244,0.008 14.7285,0.49515 17.5103,0.91119 3.2121,0.48043 6.4826,1.49655 8.0615,2.50462 1.4654,0.93556 3.2507,2.84508 3.96,4.23562 1.4849,2.91062 2.3631,7.82389 2.6176,14.6453 0.4582,12.28156 -2.3159,19.65277 -8.5424,22.69814 -2.7795,1.35942 -5.0339,1.73859 -10.3378,1.73859 h -4.5227 v 13.88756 13.88756 h -6.0091 -6.009 z m 19.4274,-1.87388 c 1.6984,-0.50435 2.5912,-1.51441 2.9924,-3.38553 0.5468,-2.54946 0.8342,-9.30357 0.5569,-13.0856 -0.3984,-5.43278 -0.7019,-6.07954 -3.1932,-6.80378 -1.7502,-0.50879 -7.427,-1.40687 -7.6272,-1.20666 -0.076,0.0759 -0.1382,5.70664 -0.1382,12.51242 v 12.37415 h 3.0228 c 1.9239,0 3.5186,-0.14724 4.3865,-0.405 z"
         id="path661" /><path
         style="fill:#ffffff;stroke:none;stroke-width:0.267068"
         d="m 1436.4407,431.73627 c -0.5396,-0.0567 -1.1069,-0.25501 -1.2605,-0.44011 -0.1985,-0.23922 0.1765,-3.07319 1.2969,-9.79979 0.8669,-5.20484 3.147,-19.25803 5.0669,-31.2294 4.3878,-27.35946 4.9702,-30.78783 5.3505,-31.49851 0.516,-0.96415 1.5369,-1.15186 6.9521,-1.27802 5.9828,-0.13943 9.1638,0.15904 9.9373,0.93249 0.6529,0.65289 0.707,0.96377 6.349,36.49195 2.4981,15.73117 4.8372,30.28457 5.198,32.34087 0.3721,2.12061 0.5554,3.83944 0.4236,3.97119 -0.474,0.47407 -2.6737,0.67972 -7.3897,0.69106 l -4.8443,0.0115 -0.1454,-0.86796 c -0.08,-0.47744 -0.4147,-3.48195 -0.7436,-6.6767 l -0.598,-5.80875 h -7.1221 -7.1222 l -0.5928,5.67515 c -0.326,3.1214 -0.6611,6.12591 -0.7444,6.6767 l -0.1516,1.00156 -4.4393,-0.0452 c -2.4415,-0.0245 -4.8807,-0.0915 -5.4204,-0.14847 z m 23.2416,-23.68842 c 0.3615,-0.36155 0.2997,-1.08196 -0.5791,-6.75596 -0.5411,-3.49314 -1.4054,-9.18982 -1.9205,-12.65928 -1.1765,-7.92215 -1.7299,-10.91784 -2.0173,-10.91784 -0.3106,0 -0.6419,1.26905 -1.7082,6.54318 -1.6763,8.29197 -3.6124,20.32642 -3.6152,22.47194 0,0.80327 0.1267,1.15922 0.4659,1.2991 1.7819,0.73452 8.6448,0.74831 9.3744,0.0184 z"
         id="path663" /><path
         style="fill:#ffffff;stroke:none;stroke-width:0.267068"
         d="m 1511.2663,394.57081 v -37.35883 l 1.6692,0.1024 c 0.918,0.0559 4.9741,0.22802 9.0136,0.38163 13.5947,0.51691 17.0436,1.23878 19.9636,4.17844 4.1223,4.15009 5.7446,12.85389 4.1682,22.36219 -0.755,4.55387 -2.062,7.47951 -4.4542,9.97079 l -1.6192,1.68617 1.9084,1.92715 c 3.884,3.92221 4.575,7.36331 5.1304,25.54927 0.1411,4.61963 0.2161,8.43968 0.1667,8.48904 -0.049,0.0491 -2.3588,-0.0337 -5.1321,-0.18549 -2.7734,-0.15146 -5.4229,-0.27593 -5.8877,-0.2767 h -0.8451 l -0.1513,-1.93627 c -0.083,-1.06487 -0.4004,-6.86365 -0.7049,-12.88601 l -0.5535,-10.9498 -0.8107,-0.83845 c -0.4458,-0.46119 -1.4308,-1.18015 -2.189,-1.59772 -1.2502,-0.68861 -1.6699,-0.76847 -4.5163,-0.85884 l -3.138,-0.0996 v 14.85048 14.85041 h -6.0091 -6.009 z m 18.8988,-3.90236 c 1.8062,-0.54527 3.1655,-1.74028 3.598,-3.16333 0.4825,-1.5876 0.4596,-12.52353 -0.031,-14.95664 -0.3142,-1.55748 -0.488,-1.9004 -1.1744,-2.31782 -1.0787,-0.65603 -3.505,-1.27396 -6.6691,-1.69844 l -2.6038,-0.34943 v 11.61649 11.61649 l 2.7373,-0.16142 c 1.5056,-0.0888 3.3702,-0.35243 4.1434,-0.5859 z"
         id="path665" /><path
         style="fill:#ffffff;stroke:none;stroke-width:0.267068"
         d="m 1583.8725,431.68476 c -1.881,-0.26359 -2.1943,-0.6443 -1.9886,-2.41662 0.2642,-2.27529 2.8264,-18.85257 5.9248,-38.33349 1.5419,-9.69455 3.3333,-21.04147 3.9809,-25.21532 0.7289,-4.69873 1.3086,-7.68132 1.5223,-7.83186 0.3271,-0.23048 16.9888,-0.0728 17.2246,0.16303 0.1295,0.12954 8.3627,51.03263 11.3879,70.40724 0.2409,1.54277 0.3001,2.63699 0.1512,2.79189 -0.3691,0.3837 -6.532,0.78909 -8.5944,0.56543 -2.1355,-0.2317 -3.1472,-0.92506 -3.6089,-2.47349 -0.1669,-0.55953 -0.6114,-3.17329 -0.9878,-5.80836 -0.3764,-2.635 -0.7429,-4.84943 -0.8143,-4.92086 -0.1683,-0.16824 -13.4935,0.42386 -13.6774,0.60781 -0.077,0.0767 -0.5128,2.96773 -0.969,6.42446 l -0.8296,6.28503 -3.7418,-0.036 c -2.0579,-0.0199 -4.2989,-0.11375 -4.9799,-0.20918 z m 20.0383,-23.24769 c 0.9393,-0.13575 1.8265,-0.36554 1.9716,-0.51063 0.4469,-0.44693 0.2504,-2.58954 -1.0099,-11.01258 -2.2659,-15.14328 -2.9906,-18.93205 -3.6211,-18.93205 -0.633,0 -1.0224,1.98716 -3.0615,15.62355 -0.8127,5.43478 -1.6173,10.80287 -1.7879,11.92906 -0.3698,2.44107 -0.1833,2.8145 1.482,2.96573 2.2162,0.20135 4.3526,0.17897 6.0268,-0.0629 z"
         id="path667" /><path
         style="fill:#ffffff;stroke:none;stroke-width:0.267068"
         d="m 1704.3567,394.6736 v -37.25606 h 8.4076 8.4076 l 0.1313,0.60092 c 0.072,0.33051 1.1636,7.09068 2.4253,15.02264 3.7309,23.45357 5.3858,32.98294 5.7282,32.98294 0.1109,0 0.2801,-0.45068 0.376,-1.00155 1.2596,-7.23531 6.6933,-42.22987 6.9978,-45.06775 0.1035,-0.96477 0.3391,-1.73531 0.5919,-1.93628 0.4765,-0.37879 5.647,-0.44624 12.2606,-0.16004 l 4.0155,0.17384 0.1675,25.79861 c 0.092,14.18916 0.2415,30.81611 0.3322,36.94869 l 0.1647,11.15009 h -6.0074 -6.0074 l -0.1653,-8.21234 c -0.091,-4.51684 -0.2431,-14.28153 -0.338,-21.69933 -0.095,-7.41781 -0.2699,-13.24656 -0.3891,-12.95285 -0.1191,0.2938 -1.1897,7.2042 -2.3789,15.35644 -3.3055,22.65805 -3.8053,25.28193 -5.0757,26.64556 -0.7786,0.83577 -1.2026,0.89027 -6.2632,0.80511 l -4.5274,-0.0759 -3.6513,-21.57662 c -2.0081,-11.86713 -3.7264,-21.65182 -3.8184,-21.7438 -0.092,-0.092 -0.1674,6.31248 -0.1677,14.23217 -3e-4,7.9197 -0.08,17.73451 -0.1765,21.81063 l -0.1759,7.41114 h -5.4321 -5.4319 z"
         id="path669" /><path
         style="fill:#ffffff;stroke:none;stroke-width:0.267068"
         d="m 1792.2222,394.6736 v -37.25606 h 6.009 6.009 v 37.25606 37.25605 h -6.009 -6.009 z"
         id="path671" /><path
         style="fill:#ffffff;stroke:none;stroke-width:0.267068"
         d="m 1842.5333,401.28354 c 0.093,-16.85536 0.2419,-33.5004 0.3316,-36.98894 l 0.1631,-6.3429 h 7.4153 c 6.8364,0 7.4252,0.0368 7.5409,0.4674 0.069,0.257 2.3966,8.94011 5.1723,19.29567 l 5.0467,18.82834 0.174,-2.00303 c 0.096,-1.10166 0.2604,-9.90487 0.366,-19.56279 l 0.1919,-17.55975 h 5.4427 5.4428 v 37.27361 37.27361 l -3.5386,-0.18319 c -1.9463,-0.10072 -4.7277,-0.25884 -6.1809,-0.35136 l -2.6422,-0.16824 -6.5902,-24.43673 c -3.6246,-13.44024 -6.654,-24.61708 -6.7321,-24.83737 -0.2053,-0.57961 -0.4598,11.95098 -0.6548,32.24851 l -0.17,17.69327 h -5.4737 -5.4735 z"
         id="path673" /><path
         style="fill:#ffffff;stroke:none;stroke-width:0.267068"
         d="m 1917.9114,431.67771 c -1.5761,-0.21868 -2.0829,-0.78901 -1.893,-2.13035 0.737,-5.20445 3.6995,-24.34444 6.6379,-42.88582 1.9786,-12.48544 3.8003,-24.02276 4.0479,-25.63857 0.2477,-1.61573 0.5865,-3.02605 0.7528,-3.13397 0.3515,-0.2281 9.5185,-0.20733 14.1779,0.0322 l 3.1927,0.1641 4.2155,26.17272 c 4.0032,24.85508 6.9108,43.11063 7.3022,45.84857 l 0.1784,1.24805 -1.2958,0.21139 c -0.7127,0.11628 -3.0596,0.21561 -5.2153,0.22075 -3.5596,0.008 -3.9887,-0.0414 -4.6737,-0.54658 -1.0416,-0.76785 -1.5568,-2.48016 -2.2116,-7.34951 -0.3041,-2.26195 -0.618,-4.40034 -0.6976,-4.752 l -0.1446,-0.6394 -4.8592,0.17576 c -2.6726,0.0966 -5.7776,0.24849 -6.9,0.33748 l -2.0408,0.1618 -0.1439,0.96959 c -0.079,0.53324 -0.4709,3.40316 -0.8707,6.37762 l -0.7269,5.40819 -3.7652,-0.036 c -2.0708,-0.0199 -4.351,-0.11689 -5.067,-0.21622 z m 20.2315,-23.22371 c 2.037,-0.25385 2.3987,-0.70331 2.1698,-2.69707 -0.2604,-2.26808 -2.4687,-17.00092 -3.2426,-21.6325 -0.7541,-4.51363 -1.1271,-5.91199 -1.6198,-6.07341 -0.569,-0.18648 -1.0995,2.44767 -2.8635,14.21898 -0.9466,6.31615 -1.8676,12.36074 -2.0468,13.43243 -0.2429,1.45278 -0.2487,2.02557 -0.023,2.25145 0.6298,0.62981 4.5313,0.88566 7.6257,0.50012 z"
         id="path675" /></g><path
       style="fill:#ffffff;fill-opacity:1;stroke-width:0.65108"
       d="m 749.36805,408.24438 v -40.71732 l 19.36965,-2.4e-4 19.36971,-2.5e-4 -0.1955,40.18309 c -0.10752,22.10063 -0.25402,40.22584 -0.32555,40.27824 -0.0715,0.0527 -8.69988,0.29298 -19.17415,0.53453 l -19.04416,0.43932 z m 81.3852,-14.96771 v -55.69935 l 18.71866,-1.9e-4 18.7186,-1.5e-4 -0.19264,55.15489 c -0.10587,30.33525 -0.25237,55.1996 -0.32549,55.25409 -0.0731,0.0547 -8.4098,0.29954 -18.52602,0.54455 l -18.39311,0.4455 z m 66.5956,45.37263 c -2.7058,-5.63534 -6.1857,-13.02942 -7.7334,-16.43134 l -2.8135,-6.18528 14.5911,-0.32553 14.5911,-0.32557 2.5507,-2.49161 2.5507,-2.49162 1.3103,2.16609 c 0.7209,1.19132 3.5174,6.41439 6.2146,11.60676 2.6973,5.19238 6.6699,12.65597 8.828,16.58581 2.158,3.92987 3.8674,7.18526 3.7985,7.2343 -0.069,0.0489 -8.865,0.27245 -19.5469,0.49658 l -19.4217,0.40745 z m 48.946,9.12362 c 0.2416,-0.62668 9.0871,-24.28536 19.6568,-52.57489 10.5695,-28.28947 19.4408,-51.66879 19.7138,-51.95399 0.273,-0.28524 1.0055,0.88672 1.6277,2.60434 0.6222,1.71757 1.9873,5.32028 3.0333,8.00596 1.0462,2.68573 1.9005,5.26428 1.8986,5.73006 0,0.46583 2.1927,6.81045 4.8768,14.0991 l 4.88035,13.25214 -10.02405,30.49999 -10.0239,30.50007 -10.6451,0.39821 c -5.8547,0.21903 -13.9725,0.43873 -18.0393,0.48831 -6.7955,0.0828 -7.3588,0 -6.955,-1.0493 z m 85.54295,-0.6495 c -0.3959,-0.98561 -1.3795,-3.69645 -2.1857,-6.0241 l -1.4659,-4.23201 h -17.6008 c -9.6805,0 -17.77455,-0.173 -17.98695,-0.38449 -0.2124,-0.21143 1.2562,-5.08811 3.2637,-10.83705 4.25705,-12.19174 2.9608,-11.24081 15.32215,-11.24081 4.2524,0 7.7316,-0.1246 7.7316,-0.27697 0,-0.15228 -1.7856,-4.91331 -3.9679,-10.58008 -2.1823,-5.66667 -4.951,-13.08649 -6.1528,-16.48836 -1.2016,-3.40191 -4.2145,-11.31256 -6.6953,-17.57925 -2.48075,-6.26664 -6.30425,-15.91933 -8.49655,-21.45031 -2.1923,-5.53109 -3.9861,-10.1502 -3.9861,-10.26473 0,-0.11452 8.2561,-0.13048 18.34685,-0.035 l 18.3469,0.17291 2.1464,6.1853 c 1.1806,3.40187 10.9139,28.15928 21.6295,55.01642 10.7158,26.85709 19.4392,48.86369 19.3855,48.90348 -0.053,0.0399 -8.3815,0.26023 -18.5062,0.48987 l -18.4086,0.41762 z m 58.2088,-9.19328 -11.2312,-10.92146 v -33.49153 -33.49153 l 11.238,-11.22413 11.238,-11.22417 h 7.3178 7.3179 v 55.25127 55.25127 l -3.4181,0.41056 c -1.8801,0.22579 -5.1762,0.39943 -7.3248,0.3859 l -3.9064,-0.0248 -11.2312,-10.92151 z m 31.7402,0.007 c 0,-10.86761 0.019,-11.01526 1.4649,-11.40277 0.8058,-0.21591 6.217,-0.3966 12.025,-0.40147 l 10.5601,-0.009 0.1828,-7.97574 0.1828,-7.97575 h 18.5558 18.5559 l -0.2196,8.13854 -0.2197,8.13852 -10.8487,10.83322 -10.8488,10.8333 -19.6953,0.41563 -19.6952,0.41567 v -11.0102 z m -247.62806,-22.6645 c -0.23872,-0.23873 -0.43403,-5.03883 -0.43403,-10.66692 0,-10.06141 0.0248,-10.23943 1.4649,-10.62543 0.80574,-0.21596 6.95844,-0.3966 13.67274,-0.40151 l 12.2078,-0.009 0.01,-14.48656 c 0.01,-7.96762 0.1966,-15.63321 0.4281,-17.03466 l 0.4208,-2.54809 -12.118,0.4217 c -6.6649,0.23192 -13.01024,0.24326 -14.10078,0.0253 l -1.98272,-0.39655 v -10.987 -10.98704 l 21.323,0.017 21.3228,0.017 10.9057,11.32026 10.9056,11.3202 v 16.50611 16.50611 l -8.3882,8.36958 c -7.3177,7.30144 -8.4718,8.22031 -9.043,7.19962 -0.6241,-1.11533 -1.3964,-1.07087 -16.5157,0.95078 -19.8744,2.65732 -18.8777,2.42068 -18.3895,4.36516 0.3906,1.55678 0.3849,1.55844 -5.4307,1.55844 -3.2021,0 -6.01724,-0.19534 -6.2559,-0.43407 z m 271.81866,-44.1532 0.2528,-11.59275 -10.1191,0.43266 c -5.5655,0.2379 -11.0653,0.24335 -12.2216,0.0122 l -2.1027,-0.42053 V 348.56429 337.5773 h 19.707 19.7071 l 10.8938,11.34264 10.8938,11.34268 v 10.79409 10.79415 h -7.3246 c -4.0286,0 -12.413,0.19499 -18.6319,0.4309 l -11.3074,0.42891 0.2528,-11.59275 z m -425.25705,-21.33477 7e-5,-12.20779 h 48.13928 48.13922 l -0.37355,11.88227 c -0.2054,6.53523 -0.4068,11.9265 -0.44742,11.9806 -0.0406,0.054 -21.5353,0.20053 -47.76587,0.32557 l -47.69173,0.22715 z"
       id="path703" /></g></svg>
