<?xml version="1.0" encoding="UTF-8" standalone="no"?>
<!-- Created with Inkscape (http://www.inkscape.org/) -->

<svg
   width="800mm"
   height="800mm"
   viewBox="0 0 800 800"
   version="1.1"
   id="svg284"
   xml:space="preserve"
   inkscape:version="1.2.2 (b0a8486541, 2022-12-01)"
   sodipodi:docname="lumitrac800x800.svg"
   xmlns:inkscape="http://www.inkscape.org/namespaces/inkscape"
   xmlns:sodipodi="http://sodipodi.sourceforge.net/DTD/sodipodi-0.dtd"
   xmlns="http://www.w3.org/2000/svg"
   xmlns:svg="http://www.w3.org/2000/svg"><sodipodi:namedview
     id="namedview286"
     pagecolor="#505050"
     bordercolor="#ffffff"
     borderopacity="1"
     inkscape:showpageshadow="0"
     inkscape:pageopacity="0"
     inkscape:pagecheckerboard="1"
     inkscape:deskcolor="#505050"
     inkscape:document-units="mm"
     showgrid="false"
     inkscape:zoom="0.24724681"
     inkscape:cx="2171.9188"
     inkscape:cy="1907.0013"
     inkscape:window-width="2512"
     inkscape:window-height="1011"
     inkscape:window-x="0"
     inkscape:window-y="0"
     inkscape:window-maximized="1"
     inkscape:current-layer="layer1" /><defs
     id="defs281" /><g
     inkscape:label="Capa 1"
     inkscape:groupmode="layer"
     id="layer1"><g
       id="g818"
       transform="matrix(4.1001688,0,0,4.1001688,4378.9411,-376.1991)"><g
         id="g2043"
         style="fill:#f9c501;fill-opacity:1"
         transform="matrix(0.26458333,0,0,0.26458333,-1037.2934,104.11401)"><path
           style="fill:#f9c501;fill-opacity:1;stroke:none;stroke-width:0.267068"
           d="m 174.60839,83.68268 -8.39347,-5.859484 -3.35753,2.308857 c -7.21659,4.96263 -12.22092,8.243687 -13.3147,8.729709 -1.72006,0.764331 -1.82449,0.45705 -1.00386,-2.953617 0.87505,-3.636779 3.44874,-12.472645 4.15467,-14.263594 0.80652,-2.046186 0.70666,-2.748432 -0.59101,-4.156219 -0.6167,-0.669058 -3.89657,-3.252774 -7.28863,-5.7416 -3.39205,-2.488903 -6.80788,-5.085496 -7.59073,-5.770343 -1.39703,-1.22207 -1.41165,-1.24997 -0.79019,-1.508502 0.36181,-0.150536 5.10582,-0.312953 11.06946,-0.3791 l 10.43629,-0.115661 3.15831,-8.852652 c 3.69433,-10.355023 3.98716,-11.07896 4.57254,-11.303537 0.75367,-0.289269 1.33901,0.882751 3.0248,6.056391 0.88546,2.71739 2.37916,6.983829 3.31935,9.480933 l 1.70943,4.540148 10.38134,0.156668 c 5.70974,0.08615 10.64929,0.26819 10.97678,0.404469 0.55256,0.229943 0.42098,0.391133 -1.82632,2.237499 -2.79183,2.293681 -9.6046,7.426469 -12.31771,9.280269 l -1.85369,1.266603 0.1798,1.472784 c 0.19183,1.571431 1.56074,7.031734 3.34871,13.357389 1.19763,4.237082 1.52134,7.267501 0.79043,7.399718 -0.22033,0.03986 -4.17766,-2.564401 -8.79407,-5.787128 z"
           id="path605" /><path
           style="fill:#f9c501;fill-opacity:1;stroke:none;stroke-width:0.267068"
           d="m 230.77097,64.536707 c 0.0826,-0.271563 1.2418,-3.978934 2.57605,-8.238704 3.47514,-11.094826 4.61061,-15.047469 4.44595,-15.476543 -0.2322,-0.605133 -3.37004,-3.098788 -9.52302,-7.56796 -6.28418,-4.564522 -9.08033,-6.726216 -9.08033,-7.020006 0,-0.485487 1.55686,-0.60659 10.28214,-0.799359 12.557,-0.277541 14.55522,-0.479661 14.55522,-1.472402 0,-1.270665 5.85947,-17.7162637 7.40976,-20.7967333 0.61998,-1.2319579 0.69023,-1.2875275 1.03333,-0.8183671 0.20247,0.276928 0.67678,1.5327233 1.05403,2.7906647 0.88723,2.9585998 4.28483,13.1512057 5.71755,17.1523677 l 1.1151,3.114118 11.53141,0.119417 c 6.34227,0.06592 11.80978,0.212774 12.15002,0.326825 l 0.61861,0.207256 -0.84275,0.869491 c -0.46351,0.478281 -4.73455,3.677018 -9.49121,7.108304 -4.75664,3.431362 -8.65179,6.421924 -8.65588,6.645659 -0.004,0.223811 0.95694,3.288415 2.13561,6.810298 2.33575,6.979153 4.6668,14.621002 4.95412,16.240873 l 0.18167,1.02432 -1.16903,-0.589574 c -2.07423,-1.046011 -5.82405,-3.434275 -12.84109,-8.178459 l -6.86484,-4.641246 -8.11641,5.468657 c -8.17755,5.509818 -11.59471,7.665303 -12.71653,8.021332 -0.50959,0.161803 -0.58498,0.112518 -0.45948,-0.300229 z"
           id="path607" /><path
           style="fill:#f9c501;fill-opacity:1;stroke:none;stroke-width:0.267068"
           d="m 319.60767,89.217561 c 7.6e-4,-1.051683 1.59989,-6.588633 3.74429,-12.967175 1.34674,-4.005914 2.38655,-7.445248 2.31066,-7.642998 -0.21839,-0.569109 -6.42147,-5.642725 -10.47827,-8.570436 -2.03538,-1.468875 -4.41945,-3.264883 -5.29793,-3.99112 l -1.59722,-1.320409 0.78506,-0.21653 c 0.94344,-0.260219 8.09706,-0.700713 15.58752,-0.959859 l 5.45506,-0.188783 2.45277,-6.810221 c 2.65233,-7.364384 4.5023,-11.930516 5.07606,-12.528904 0.30791,-0.321077 0.4593,-0.162186 1.01749,1.068315 0.36066,0.79499 1.9572,5.368786 3.54786,10.163863 l 2.89211,8.718289 10.95442,0.128768 c 6.02492,0.07052 11.30537,0.239831 11.73431,0.375497 l 0.7799,0.246805 -1.04697,0.84826 c -0.57583,0.466554 -3.81113,2.804002 -7.18954,5.194336 -3.37842,2.390334 -6.8937,5.072235 -7.81175,5.959892 -2.08472,2.01568 -2.09838,2.22945 -0.48319,7.559069 2.57947,8.511493 4.11514,14.591876 3.772,14.935027 -0.26759,0.267577 -4.61587,-2.328939 -11.129,-6.645429 l -6.83868,-4.53233 -3.30991,2.047106 c -1.82046,1.125878 -4.0911,2.67761 -5.04587,3.448302 -3.13663,2.531826 -9.88193,6.409737 -9.88118,5.680665 z"
           id="path609" /></g><path
         style="fill:#000000;stroke:none;stroke-width:0.0706617"
         d="m -1000.6389,182.09288 c 0,-0.61502 -0.3061,-6.56464 -0.342,-6.59934 -0.026,-0.025 -1.0328,-0.49624 -2.2376,-1.0472 -2.2501,-1.02895 -3.9428,-1.87502 -4.5605,-2.27936 -0.4982,-0.32618 -0.5043,-0.35208 -0.878,-3.72949 -0.1354,-1.22423 -0.3929,-3.32289 -0.5721,-4.66369 -0.4669,-3.49362 -0.4337,-3.83665 0.3988,-4.12503 0.3387,-0.11732 0.6816,-0.13674 2.9737,-0.1684 l 2.5908,-0.0358 -0.03,-0.22024 c -0.082,-0.59766 -0.2404,-2.36597 -0.2404,-2.68682 0,-0.46235 0.1086,-0.61449 0.6416,-0.89857 0.6503,-0.34662 0.6301,-0.21584 0.3544,-2.28779 -0.078,-0.58296 -0.2703,-2.20465 -0.4282,-3.60377 -0.8293,-7.34473 -1.2434,-9.87008 -1.8272,-11.14334 -0.4032,-0.87915 -0.8511,-1.2323 -2.9546,-2.32921 l -1.0697,-0.55777 -0.052,-1.92355 c -0.062,-2.33204 -0.025,-4.96625 0.072,-5.05822 0.183,-0.17392 4.4175,1.2706 6.3182,2.15531 1.9332,0.89987 3.60829,2.48044 4.52004,4.26512 0.60199,1.17835 0.85133,2.09264 1.06814,3.9166 0.0782,0.65787 0.15136,1.2053 0.16258,1.21651 0.0112,0.0112 0.55332,-0.15508 1.20468,-0.36953 0.88939,-0.29284 1.2651,-0.38463 1.50887,-0.36859 l 0.3246,0.0214 0.11717,0.42397 c 0.32038,1.15923 1.98854,4.05452 3.25742,5.65365 1.29822,1.63611 3.64853,3.69521 4.60202,4.03183 0.32893,0.11612 0.62253,0.0849 0.62253,-0.0662 0,-0.15441 -0.35738,-0.59278 -1.27493,-1.56381 -2.06716,-2.1877 -3.59899,-4.26868 -4.42127,-6.00626 -0.33897,-0.7163 -0.5927,-1.55811 -0.5927,-1.96644 0,-0.31642 0.17632,-0.72999 0.35111,-0.82354 0.45644,-0.24427 5.37478,-0.80891 8.62294,-0.98991 6.02473,-0.33575 16.84608,-0.36889 22.25848,-0.0682 1.72869,0.096 2.77335,0.1827 5.05232,0.4191 1.08819,0.11288 2.4873,0.24106 3.10912,0.28483 1.30323,0.0918 1.49225,0.13733 1.76928,0.4265 0.55612,0.58045 0.15858,1.98962 -1.15536,4.09553 -1.08702,1.74216 -2.48395,3.37697 -4.21567,4.93348 -1.39881,1.25726 -1.70078,1.55273 -1.64445,1.60907 0.10052,0.10051 0.86528,-0.13277 1.49823,-0.45702 1.14477,-0.58647 2.35731,-1.54972 3.79869,-3.0177 1.85159,-1.88579 2.95726,-3.6102 3.87001,-6.03565 0.24132,-0.64124 0.44596,-1.17356 0.45476,-1.18291 0.009,-0.009 0.66199,0.20614 1.45154,0.47888 0.78955,0.27272 1.45052,0.4809 1.46882,0.4626 0.0183,-0.0183 0.0902,-0.53589 0.1597,-1.15016 0.0695,-0.61429 0.19585,-1.38717 0.28073,-1.71753 0.41141,-1.60114 1.3525,-3.44209 2.21135,-4.32578 1.2213,-1.25661 4.28523,-2.88797 6.92929,-3.68942 1.17487,-0.35613 2.51528,-0.6873 2.59139,-0.64025 0.19343,0.11953 0.23129,0.66416 0.26035,3.74446 l 0.03,3.1798 -1.14811,0.60062 c -1.78546,0.93404 -2.18993,1.23191 -2.63875,1.9432 -0.31934,0.50608 -0.50164,0.99137 -0.73939,1.96833 -0.3863,1.58739 -0.67519,3.59999 -1.56774,10.92205 l -0.51185,4.19899 0.16997,0.11138 c 0.44783,0.29349 0.74842,0.56051 0.84492,0.75057 0.0824,0.16226 0.11099,0.55678 0.12842,1.77121 l 0.0224,1.56245 2.4154,0.0391 c 3.45331,0.0559 3.59474,0.11219 3.59073,1.42903 -0.002,0.69174 -0.95913,8.14122 -1.28452,9.99864 -0.23932,1.3662 -0.0851,1.18885 -1.71896,1.97702 -0.78226,0.37737 -2.34442,1.11011 -3.47148,1.62832 -1.12706,0.51823 -2.06974,0.96039 -2.09485,0.98261 -0.04,0.0354 -0.17199,2.39112 -0.31807,5.67568 l -0.0463,1.04228 h -1.9715 -1.9715 l 0.0378,-0.58296 c 0.0208,-0.32065 0.0555,-1.18714 0.0771,-1.92554 0.14663,-5.00967 0.60596,-10.44471 1.34522,-15.91765 0.38538,-2.85314 0.52263,-3.30411 1.4893,-4.89378 l 0.4521,-0.74347 -0.62992,-1.8357 c -1.21467,-3.53976 -1.61413,-4.51842 -1.87038,-4.58228 -0.68353,-0.17039 -11.47433,-0.31709 -27.25065,-0.37051 -13.57485,-0.0459 -20.4942,0.0184 -24.67744,0.22995 l -2.45429,0.12406 -0.70475,2.1235 c -1.30689,3.93781 -1.34019,4.37352 -0.43904,5.73715 0.75701,1.14546 0.76554,1.19048 1.31674,6.95029 0.43421,4.53742 0.64031,7.05809 0.95041,11.62388 0.11614,1.71 0.22855,3.32374 0.2498,3.58608 l 0.0386,0.47698 h -2.01436 c -1.87154,0 -2.01434,-0.009 -2.01394,-0.12367 z m 61.68656,-9.8143 c 0.56395,-0.21924 1.03164,-0.40304 1.03931,-0.40847 0.0424,-0.03 0.728,-9.24886 0.728,-9.78944 0,-0.19251 -0.01,-0.19691 -0.72428,-0.3178 -0.39835,-0.0674 -0.85125,-0.11158 -1.00643,-0.0981 -0.28033,0.0243 -0.28247,0.0268 -0.33233,0.37781 -0.073,0.51433 -0.24124,2.60397 -0.44647,5.54694 -0.0989,1.41854 -0.22661,3.09641 -0.28374,3.72858 -0.12001,1.32786 -0.1212,1.35907 -0.0517,1.35907 0.0287,0 0.51365,-0.17938 1.0776,-0.3986 z m -62.55396,-0.008 c 0.098,-0.35066 0.047,-4.30357 -0.077,-6.02392 -0.137,-1.8911 -0.3124,-3.82467 -0.3865,-4.26135 -0.05,-0.29578 -0.051,-0.29637 -0.3895,-0.31809 -0.4115,-0.0264 -1.3537,0.15926 -1.5883,0.31298 -0.1494,0.0979 -0.165,0.1477 -0.1265,0.40484 0.094,0.62555 0.2531,3.01472 0.3569,5.34553 0.06,1.34081 0.1278,2.79109 0.1512,3.22284 l 0.043,0.78501 0.4706,0.19765 c 0.7016,0.29464 1.3075,0.521 1.4056,0.52516 0.048,0.002 0.1114,-0.0838 0.1413,-0.19065 z m 1.67331,-21.07425 0.60687,-0.7413 -7.9e-4,-1.41389 c -10e-4,-2.36079 -0.13456,-8.20078 -0.21303,-9.32798 -0.17621,-2.5313 -0.49376,-3.49213 -1.58796,-4.80501 -0.5439,-0.65256 -0.9071,-0.97087 -1.6961,-1.4864 -1.109,-0.72472 -2.9243,-1.51674 -3.4763,-1.51674 -0.3206,0 -0.3747,0.10973 -0.3747,0.75959 0,0.92626 0.089,1.03198 1.8185,2.16468 0.6311,0.41322 1.3151,0.91907 1.5202,1.12414 1.0206,1.02062 1.406,2.5533 1.887,7.50481 0.1322,1.36139 0.7805,8.41548 0.7805,8.49299 0,0.10582 0.1942,-0.0934 0.73573,-0.75489 z m 58.15174,-1.4647 c 0.0256,-0.38012 0.14115,-2.42409 0.25666,-4.54219 0.30891,-5.66436 0.42014,-6.92166 0.71577,-8.09078 0.2058,-0.81385 0.48618,-1.3513 1.19887,-2.29804 0.34597,-0.4596 0.62904,-0.85618 0.62904,-0.88133 0,-0.0251 -0.2418,0.17118 -0.53733,0.43625 -1.0764,0.96544 -2.06147,2.53342 -2.39423,3.81098 -0.26632,1.02245 -0.54916,5.78531 -0.55973,9.42542 -0.007,2.41841 0.0174,2.60058 0.37398,2.78742 0.10137,0.0531 0.20366,0.0846 0.22732,0.07 0.0236,-0.0146 0.064,-0.33758 0.0897,-0.7177 z m -33.55518,0.47071 c 1.09432,-0.0946 2.03172,-0.28641 2.93289,-0.60007 2.38265,-0.82936 6.73306,-3.00373 10.45753,-5.22679 2.14457,-1.28004 4.56458,-2.84178 4.50141,-2.90497 -0.0691,-0.0691 -1.82593,-0.3079 -2.80552,-0.38134 -1.59388,-0.11948 -10.57231,-0.16899 -13.74373,-0.0758 -3.21706,0.0945 -4.21577,0.15956 -6.17532,0.40206 -3.53292,0.43719 -4.53232,0.77562 -4.98925,1.68946 -0.20727,0.41456 -0.21198,0.44754 -0.21198,1.48391 0,1.10565 0.11322,1.68879 0.45979,2.36814 0.45219,0.88637 1.41694,1.77214 2.49716,2.29278 1.67042,0.80509 4.45208,1.17951 7.07702,0.9526 z"
         id="path611" /><path
         style="fill:#000000;stroke:none;stroke-width:0.141324"
         d="m -995.72836,158.73791 -2.04919,-0.0871 0.0223,-0.66473 c 0.0362,-1.0776 1.30458,-4.83902 1.54927,-4.59432 0.0374,0.0374 -0.0306,0.81994 -0.15119,1.73904 -0.12053,0.91908 -0.21915,1.785 -0.21915,1.92426 0,0.2353 0.209,0.25317 2.95931,0.25317 h 2.95931 l 1.66904,-1.57226 c 2.16291,-2.03752 2.69811,-2.38479 3.67524,-2.38479 0.46958,0 0.74961,0.0606 0.74961,0.16209 0,0.20848 -0.79991,1.18687 -2.04114,2.49657 l -0.98122,1.03536 3.2712,-0.0451 3.27119,-0.0451 0.5365,-0.51502 c 0.83306,-0.79977 3.15893,-2.53314 3.78694,-2.82227 0.59162,-0.27237 2.25018,-0.37158 2.39143,-0.14305 0.0875,0.14163 -0.85805,1.05383 -2.63805,2.54496 -0.67973,0.56941 -1.20065,1.09232 -1.15758,1.162 0.0431,0.0697 0.70326,0.12669 1.4671,0.12669 h 1.38879 l 0.82871,-0.57057 c 0.4558,-0.31381 1.36928,-1.02112 2.02997,-1.57181 0.66069,-0.5507 1.55103,-1.16838 1.97853,-1.37264 l 0.77728,-0.37138 4.87567,-0.0393 c 2.68161,-0.0216 5.33999,0.0101 5.90749,0.0707 l 1.03182,0.10994 -1.45579,1.19827 c -1.71768,1.41382 -2.9397,2.53976 -2.9397,2.70863 0,0.22109 0.99301,0.12468 1.52486,-0.14804 0.43862,-0.22492 1.72775,-1.29007 4.3285,-3.57646 l 0.43555,-0.38291 3.8864,0.008 c 2.13752,0.005 4.04372,0.0522 4.23601,0.10574 0.33178,0.0924 0.28515,0.15838 -0.91434,1.29316 -0.69518,0.65767 -1.47256,1.39609 -1.72752,1.64093 -0.5298,0.50877 -0.60511,0.89739 -0.1739,0.89739 0.47454,0 1.01214,-0.34629 2.95626,-1.90424 2.0056,-1.60723 2.33927,-1.82872 2.55443,-1.69575 0.40106,0.24788 1.90179,4.04371 1.80339,4.56137 -0.036,0.1894 -0.26837,0.26013 -1.10419,0.33606 -1.37326,0.12478 -48.60993,0.24656 -51.29916,0.13224 z"
         id="path613" /><path
         style="fill:#000000;stroke:none;stroke-width:0.141324"
         d="m -992.97254,225.1357 c -7.60966,-0.14938 -8.20056,-0.22523 -9.19166,-1.17994 -0.7807,-0.75201 -0.9307,-1.28875 -1.0157,-3.6345 l -0.07,-1.9252 -1.1591,-0.64542 -1.1591,-0.64542 -0.312,-4.84887 c -0.43,-6.68409 -0.4274,-6.75675 0.2456,-6.75675 0.2094,0 0.4569,-0.0763 0.5502,-0.16958 0.2372,-0.23721 0.2189,-3.16471 -0.052,-8.28762 -0.1218,-2.30519 -0.1819,-4.45882 -0.1335,-4.78585 0.1047,-0.70786 0.551,-1.13377 1.869,-1.78368 l 0.8886,-0.4382 v -2.57347 -2.57348 l 0.9893,-0.8792 c 0.7927,-0.7045 0.9892,-0.96016 0.9892,-1.28659 v -0.40737 l 1.94324,0.0393 1.9432,0.0393 0.10805,2.33184 c 0.0594,1.28253 0.15482,2.61803 0.21198,2.96781 0.10016,0.61279 0.12196,0.63595 0.59857,0.63595 0.48251,0 0.49572,-0.015 0.5387,-0.61301 0.0752,-1.04674 -1.53718,-25.52023 -1.76029,-26.71783 l -0.0893,-0.47933 25.56374,0.0901 c 14.06005,0.0496 25.93424,0.13046 26.38708,0.17976 l 0.82334,0.0896 -0.0812,0.6529 c -0.36803,2.95986 -1.52749,20.82455 -1.54661,23.82998 l -0.0189,2.96779 0.45038,0.0436 c 0.41333,0.04 0.46301,0 0.60418,-0.49464 0.0846,-0.29602 0.188,-1.52398 0.22978,-2.72875 0.10966,-3.16238 -0.14112,-2.82649 2.11013,-2.82649 h 1.90517 l 0.004,0.60063 c 0.004,0.58079 0.0352,0.62137 0.93606,1.22872 l 0.93157,0.62811 -0.0907,1.49175 c -0.0499,0.82048 -0.12916,1.98017 -0.17615,2.57712 l -0.0854,1.08535 1.59339,0.79912 1.59339,0.79913 -0.0918,3.1325 c -0.0505,1.72288 -0.16543,4.76206 -0.25541,6.75373 -0.09,1.99164 -0.12391,3.72463 -0.0754,3.85107 0.0519,0.13514 0.25017,0.23074 0.48129,0.23202 0.8508,0.005 0.83408,-0.15271 0.49042,4.61706 -0.17257,2.39515 -0.35309,4.96272 -0.40117,5.70569 l -0.0874,1.35085 -0.888,0.46041 c -1.17309,0.60821 -1.36429,1.00498 -1.44841,3.00571 -0.058,1.37878 -0.0412,1.51062 0.2016,1.58194 0.30257,0.0889 3.94931,0.32285 6.97773,0.44766 3.07855,0.12686 11.26749,0.59161 18.72538,1.06273 3.65322,0.23076 6.8966,0.4263 7.20751,0.43451 l 0.5653,0.015 -0.49464,0.11679 c -2.5067,0.59182 -68.47436,1.21844 -87.97398,0.83564 z m -0.63596,-2.26257 c 0,-0.0828 -0.0674,-0.27657 -0.1498,-0.43052 -0.0824,-0.15394 -0.20807,-0.63793 -0.27929,-1.07555 -0.24449,-1.50218 -0.69567,-1.32978 -0.69934,0.26723 -10e-4,0.5183 0.0364,1.04296 0.0836,1.16591 0.0974,0.25391 1.04481,0.32004 1.04481,0.0729 z m 2.9678,0.068 c 0,-0.0454 -0.28228,-0.44291 -0.62728,-0.88328 -0.75824,-0.96785 -0.92728,-1.38448 -0.92728,-2.28542 0,-0.37901 -0.0636,-0.72839 -0.14133,-0.77643 -0.0902,-0.0558 -0.1401,0.36282 -0.13795,1.15758 0.003,1.28874 0.15524,2.23734 0.39652,2.47863 0.21674,0.21673 1.43732,0.47907 1.43732,0.30892 z m 44.03147,-0.10229 c 0.039,-0.10168 0.0529,-0.94433 0.0309,-1.87255 l -0.04,-1.68765 -0.42186,1.69589 c -0.23202,0.93274 -0.44337,1.77538 -0.46966,1.87254 -0.0654,0.24182 0.80779,0.23383 0.90067,-0.008 z m -2.39958,-0.29024 c 0.0406,-0.10586 0.0545,-0.55907 0.0309,-1.00713 l -0.043,-0.81466 -0.89397,1.00713 -0.89396,1.00713 h 0.86307 c 0.59793,0 0.88576,-0.0591 0.93693,-0.19247 z m -8.18769,-1.52512 c -0.0505,-0.71149 -0.0918,-1.67524 -0.0918,-2.1417 v -0.84805 l -3.6102,0.0994 c -1.98561,0.0547 -3.74627,0.14976 -3.91257,0.21129 -0.19068,0.0705 -0.3586,0.31592 -0.45461,0.66435 -0.12008,0.43579 -0.27129,0.6122 -0.71578,0.83513 -0.52264,0.26214 -0.8456,0.28266 -4.44994,0.28266 -2.13752,0 -4.12843,-0.0513 -4.42425,-0.11387 -0.65671,-0.13906 -1.08737,-0.54311 -1.08737,-1.02023 0,-0.24836 -0.10496,-0.39671 -0.3454,-0.48811 -0.52958,-0.20136 -3.46213,-0.42391 -5.60709,-0.42553 l -1.92477,-0.002 -0.0697,1.9432 c -0.0383,1.06876 -0.0414,1.975 -0.007,2.01388 0.0995,0.11184 7.94063,0.22429 17.76164,0.25469 l 9.03054,0.0279 z m 18.10155,-5.1796 c 0.48466,-0.0596 0.94188,-0.16968 1.01603,-0.24465 0.0741,-0.075 0.23757,-1.63083 0.36317,-3.45742 0.12559,-1.82661 0.28281,-3.63909 0.34938,-4.02773 0.0666,-0.38864 0.11026,-0.7177 0.0971,-0.73125 -0.0371,-0.0382 -8.37728,0.90685 -9.49045,1.07537 -0.5441,0.0824 -2.19188,0.35263 -3.66173,0.60057 l -2.67246,0.45079 -0.57799,-0.6497 c -0.31789,-0.35735 -1.15096,-1.27549 -1.85127,-2.04032 -0.70031,-0.76484 -1.4388,-1.60436 -1.64109,-1.86561 l -0.36779,-0.47499 -0.76898,0.22355 c -0.42294,0.12295 -2.15871,0.93134 -3.85728,1.79639 l -3.08829,1.57283 -5.73687,-0.0601 -5.73687,-0.0601 -1.13059,-0.66358 c -1.19961,-0.70407 -4.86553,-2.53358 -5.41369,-2.70174 -0.28135,-0.0863 -0.51379,0.099 -1.69589,1.35223 -0.75341,0.79874 -1.8282,1.92568 -2.38842,2.5043 -1.17691,1.21558 -0.71752,1.15744 -4.28106,0.54183 -2.15327,-0.37197 -6.4843,-0.94288 -9.82201,-1.29471 -2.3742,-0.25028 -2.3321,-0.27443 -2.3313,1.33452 5e-4,1.20808 0.2333,5.19896 0.3705,6.35266 l 0.091,0.76205 31.67297,-0.0934 c 17.42017,-0.0514 32.06959,-0.14216 32.55426,-0.20177 z m -49.58655,-8.84569 c 0.26142,-0.13778 1.32665,-1.04729 2.36717,-2.02112 l 1.89187,-1.77062 -0.002,-9.06407 c -7.9e-4,-4.98523 -0.0423,-9.31069 -0.0921,-9.61211 -0.0838,-0.50739 -0.19116,-0.61311 -1.44701,-1.42511 -1.66745,-1.07811 -6.48431,-3.95574 -7.16424,-4.27997 -0.43362,-0.20679 -0.51598,-0.21073 -0.63843,-0.0306 -0.1552,0.22831 -0.0447,5.78914 0.15958,8.02992 0.17385,1.90709 0.45118,2.37938 3.05078,5.19522 3.04387,3.29707 4.98083,5.70705 4.58688,5.70705 -0.24764,0 -2.67192,-1.70808 -5.23745,-3.69018 -3.64282,-2.81437 -4.62097,-3.51733 -4.89432,-3.51733 -0.13512,0 -1.80157,0.76597 -3.70323,1.70216 l -3.4575,1.70215 0.097,3.20884 c 0.1027,3.39212 0.3605,8.68808 0.426,8.75363 0.032,0.0323 2.081,0.29633 10.54258,1.3587 1.11767,0.14033 3.03496,0.006 3.51377,-0.24656 z m 41.99245,-0.0871 c 4.96928,-0.58544 7.94567,-0.97195 8.01449,-1.04076 0.22585,-0.22585 0.71034,-11.77041 0.50266,-11.97804 -0.0596,-0.0596 -1.50535,-0.77931 -3.21274,-1.59936 -3.60861,-1.73318 -3.79735,-1.77023 -5.08022,-0.99774 -0.45052,0.27129 -2.00487,1.43863 -3.45412,2.5941 -1.44925,1.15546 -3.01657,2.35691 -3.48294,2.66988 -0.95064,0.63796 -2.04919,1.21952 -2.04919,1.08482 0,-0.21877 2.04099,-2.66069 4.76806,-5.70469 l 2.96928,-3.31437 0.10305,-4.26857 c 0.10623,-4.40064 0.0561,-5.3479 -0.29012,-5.48076 -0.29288,-0.11239 -0.4041,-0.0567 -3.73453,1.86939 -3.22259,1.86374 -3.95008,2.32192 -4.911,3.09301 l -0.60063,0.48197 v 9.22982 9.22981 l 1.82162,1.76489 c 2.04669,1.98294 2.64636,2.47598 3.22152,2.64862 0.6909,0.20738 1.71199,0.15419 5.41481,-0.28202 z m -15.38425,-2.50674 2.94631,-1.51923 5.3e-4,-5.14802 c 5.3e-4,-2.83143 0.0703,-7.65338 0.15543,-10.71545 0.0851,-3.06209 0.12403,-5.59808 0.0865,-5.63558 -0.1074,-0.1074 -6.58476,-1.84055 -8.40198,-2.24811 -2.45864,-0.55142 -3.57858,-0.64552 -4.91171,-0.41263 -1.96766,0.34372 -8.48459,2.05793 -9.60773,2.52722 -0.41979,0.1754 -0.48823,0.27965 -0.57843,0.88113 -0.11349,0.75684 0.0374,17.96057 0.17351,19.78418 l 0.086,1.15262 2.91411,1.41992 2.91412,1.41992 5.63837,0.007 5.63837,0.007 2.94631,-1.51921 z m -22.32233,-23.56512 c 0.0537,-0.37538 0.21272,-0.79566 0.35338,-0.93392 0.39012,-0.38351 11.32394,-3.07783 13.00855,-3.20555 0.46058,-0.035 1.42174,0.0858 2.54383,0.3195 2.87926,0.59971 10.66319,2.60325 11.01858,2.83612 0.25275,0.1656 0.32477,0.34427 0.32646,0.80985 0.003,0.77989 0.15687,1.01234 0.59755,0.90173 0.41477,-0.10409 1.04454,-1.22517 1.52058,-2.70687 0.50178,-1.56176 0.46676,-1.53655 4.92407,-3.547 2.98378,-1.34584 3.55257,-1.68853 3.55395,-2.14127 5.3e-4,-0.19414 -0.0848,-0.31799 -0.21928,-0.31799 -0.12113,0 -1.21815,0.31195 -2.43783,0.6932 -4.33689,1.35566 -4.88724,1.4776 -6.59863,1.46199 -1.68299,-0.0154 -3.65916,-0.24322 -7.63148,-0.87996 -4.12578,-0.66134 -5.27808,-0.75657 -8.05545,-0.6658 -1.79082,0.0585 -3.33866,0.20906 -5.22897,0.50855 -4.3957,0.69641 -6.23651,0.88969 -8.62075,0.90519 -2.57898,0.0166 -2.89246,-0.0367 -6.55209,-1.11628 -2.84962,-0.84065 -3.1739,-0.89484 -3.10224,-0.51825 0.10317,0.54216 2.03354,1.52674 6.05058,3.08613 l 1.90787,0.74061 0.50697,1.39007 c 0.27884,0.76455 0.61041,1.58914 0.73682,1.83244 0.33498,0.64471 0.95706,1.3443 1.14087,1.28303 0.0875,-0.0292 0.20297,-0.36014 0.25666,-0.73552 z m 28.68324,-7.5479 c 0.58927,-0.46352 3.09381,-5.69373 3.86389,-8.06897 0.13861,-0.42749 0.52986,-1.37571 0.86945,-2.10714 0.3396,-0.73145 0.59191,-1.35541 0.5607,-1.38662 -0.0598,-0.0598 -3.63255,0.18578 -4.7955,0.32964 -0.45221,0.0559 -0.70835,0.16254 -0.76166,0.31696 -0.59748,1.73076 -1.90526,4.75429 -3.04896,7.04905 -0.78378,1.57263 -1.37634,2.90803 -1.31679,2.96757 0.14589,0.14592 0.42777,-0.25195 1.07441,-1.51651 1.12817,-2.20621 1.31913,-2.01507 0.35201,0.35234 -0.34906,0.85446 -0.63466,1.62923 -0.63466,1.72168 0,0.22304 0.40118,0.3393 1.61132,0.46694 1.62844,0.17177 1.86552,0.15845 2.22579,-0.12494 z m -26.25189,-0.28422 c 0.31915,-0.14626 1.18443,-0.82362 1.92285,-1.50528 2.59166,-2.39242 7.85354,-7.39593 8.83273,-8.39902 l 0.98927,-1.01342 -1.21245,0.0472 c -1.17017,0.0456 -1.23915,0.0675 -1.97853,0.62701 -0.42135,0.31888 -2.22964,1.94057 -4.01843,3.60376 -1.78879,1.6632 -4.22132,3.90537 -5.40563,4.98258 -1.18431,1.07722 -2.15329,1.99285 -2.15329,2.03471 0,0.17923 2.48587,-0.13121 3.02348,-0.37759 z m -5.17071,-0.54192 c 0.4795,-0.29148 1.61985,-1.20335 2.53412,-2.0264 1.99263,-1.79382 8.09253,-7.7461 8.09253,-7.89669 0,-0.0585 -1.31961,-0.14798 -2.93246,-0.19889 -1.61286,-0.0509 -3.54189,-0.1309 -4.28673,-0.17779 l -1.35427,-0.0852 -3.04614,3.23163 c -4.11027,4.36058 -4.91527,5.3021 -4.91527,5.74899 0,0.4992 0.37546,0.72733 2.11986,1.28808 2.52417,0.81139 2.63912,0.81492 3.78836,0.1163 z m 37.79311,-0.72228 c 0.13436,-0.12839 0.37268,-0.73546 0.5296,-1.34902 0.49982,-1.95426 0.84435,-4.87946 0.5245,-4.45314 -0.0243,0.0324 -0.38279,1.01283 -0.79664,2.17875 -0.41386,1.16592 -0.87449,2.46222 -1.02363,2.88069 -0.14914,0.41845 -0.23613,0.85209 -0.19332,0.96367 0.0934,0.24334 0.59437,0.12797 0.95949,-0.22095 z"
         id="path615" /><path
         style="fill:#f9c501;fill-opacity:1;stroke:none;stroke-width:0.141324"
         d="m -1027.8795,224.20293 c -4.1973,-0.10566 -7.7905,-0.23194 -7.9848,-0.28061 -0.3532,-0.0885 -0.3532,-0.0885 0.076,-0.20705 0.83,-0.22941 18.1495,-2.95092 21.4056,-3.36359 0.6607,-0.0837 2.9184,-0.34338 5.017,-0.57698 2.0987,-0.2336 3.9906,-0.46173 4.2044,-0.50693 l 0.3886,-0.0822 v 0.98282 c 0,0.54055 -0.038,1.17332 -0.085,1.40613 l -0.085,0.4233 -1.7879,0.0958 c -3.0525,0.16352 -7.5425,0.5089 -8.4134,0.64719 -1.3686,0.21729 -1.308,0.32143 0.4234,0.72743 0.6907,0.16195 1.6056,0.39332 2.0331,0.51415 l 0.7773,0.21967 -0.5653,0.10935 c -0.8019,0.15512 -6.5387,0.11474 -15.4043,-0.10842 z"
         id="path617" /><path
         style="fill:#000000;stroke:none;stroke-width:0.141324"
         d="m -974.81245,204.08075 c -0.34978,-0.0625 -1.74888,-0.62543 -3.10912,-1.25089 l -2.47317,-1.13718 -0.0907,-2.01826 c -0.15911,-3.54224 -0.31026,-15.27767 -0.2057,-15.97095 0.12053,-0.79926 -0.32761,-0.62983 5.61321,-2.12235 l 4.04494,-1.01622 1.32536,0.25074 c 1.79702,0.33997 6.03647,1.40999 7.70832,1.94553 l 1.36487,0.43722 -0.0932,6.38092 c -0.0512,3.50952 -0.13487,7.65787 -0.18581,9.21858 l -0.0926,2.83762 -2.74486,1.29609 -2.74487,1.2961 -3.84036,-0.0166 c -2.1122,-0.009 -4.12655,-0.0678 -4.47632,-0.13032 z m 4.54038,-1.21735 c 0.28829,-0.34737 0.28829,-19.3945 0,-19.74188 -0.28587,-0.34445 -0.57025,-0.28507 -0.74213,0.15494 -0.21101,0.54021 -0.21064,18.89029 5.3e-4,19.432 0.17142,0.44001 0.45584,0.49941 0.74173,0.15494 z m -4.93304,-0.54358 c 0.0673,-0.23317 0.0834,-1.4097 0.0358,-2.61447 -0.0476,-1.2048 -0.13768,-5.04109 -0.2002,-8.5251 -0.0763,-4.25338 -0.16447,-6.38537 -0.2683,-6.48918 -0.11195,-0.11196 -0.18516,-0.0799 -0.26525,0.11633 -0.14472,0.35446 -0.14433,17.10896 5.3e-4,17.62782 0.14445,0.51776 0.53347,0.45341 0.69755,-0.1154 z m 9.61001,0.10601 c 0.12032,-0.28232 0.16451,-2.59248 0.16152,-8.4441 -0.004,-7.69982 -0.0671,-9.4924 -0.32897,-9.33057 -0.15974,0.0987 -0.25221,2.27958 -0.44681,10.53784 -0.12681,5.38123 -0.12635,7.07374 0.002,7.3135 0.22308,0.41683 0.41204,0.39316 0.61229,-0.0767 z"
         id="path619" /><path
         style="fill:#000000;stroke:none;stroke-width:0.0249828"
         d="m -990.78039,206.16694 c -0.055,-0.005 -0.27418,-0.0217 -0.48716,-0.0367 -1.6173,-0.11333 -6.20574,-0.68053 -8.07332,-0.99801 -0.84573,-0.14376 -2.19213,-0.38908 -2.20423,-0.40164 -0.021,-0.0213 -0.2899,-2.44315 -0.3138,-2.82131 -0.064,-1.01668 -0.054,-2.57615 0.024,-3.72242 0.039,-0.57519 0.1716,-2.04928 0.2137,-2.38197 0.075,-0.59117 0.174,-0.88644 0.3247,-0.96663 0.1213,-0.0645 0.4982,-0.0442 0.8681,0.047 1.46478,0.36075 4.29249,1.3345 5.39381,1.85741 0.20245,0.0961 0.4109,0.18051 0.46321,0.18753 0.28641,0.0384 0.18132,-0.28138 -0.42855,-1.30403 -0.46926,-0.78685 -0.81131,-1.53144 -0.85514,-1.86149 -0.0118,-0.0892 -0.005,-0.1251 0.0331,-0.17207 0.0437,-0.0539 0.0558,-0.0567 0.13374,-0.0308 0.37432,0.12489 1.66664,1.47241 2.7484,2.86581 0.80217,1.03325 1.22283,1.71211 1.90287,3.07083 0.6801,1.35884 1.37699,2.97818 1.74116,4.0459 0.22153,0.64952 0.28401,0.90744 0.28175,1.163 -0.004,0.47749 -0.26974,1.14268 -0.52258,1.30924 -0.15441,0.10172 -0.35721,0.14155 -0.76957,0.15116 -0.20611,0.005 -0.41971,0.004 -0.47467,0 z m -0.1291,-2.96657 c 0.057,-0.0655 0.0444,-0.13951 -0.0644,-0.37808 -0.13856,-0.3037 -0.49366,-0.96681 -0.63043,-1.17725 -0.53818,-0.82808 -1.49487,-1.60027 -2.77796,-2.24227 -0.36209,-0.18116 -0.5502,-0.26572 -1.22884,-0.55246 -0.61515,-0.25988 -1.10832,-0.48941 -2.15192,-1.00151 -1.33999,-0.65753 -1.66624,-0.78671 -1.98459,-0.78578 -0.1612,0 -0.24025,0.0406 -0.29507,0.14987 -0.083,0.1651 -0.062,0.23486 0.1249,0.42952 0.66619,0.69199 3.93861,2.99976 6.25193,4.40895 1.38418,0.84319 1.94673,1.11551 2.51076,1.21536 0.0911,0.016 0.19924,-0.0132 0.24564,-0.0663 z"
         id="path621" /><path
         style="fill:#000000;stroke:none;stroke-width:0.0499655"
         d="m -951.59176,206.07607 c -0.17634,-0.0847 -0.30402,-0.19242 -0.39972,-0.33717 -0.12864,-0.19454 -0.14049,-0.25131 -0.13906,-0.66582 0.002,-0.52717 0.0881,-0.88771 0.52101,-2.17695 1.07025,-3.18736 2.84764,-6.16387 4.99349,-8.36235 0.60281,-0.61762 1.06037,-0.98119 1.23477,-0.98119 0.29571,0 0.0828,0.59405 -0.66321,1.85021 -0.79095,1.33191 -0.8658,1.49746 -0.67699,1.49746 0.15579,0 1.46533,-0.46138 3.75803,-1.32406 1.83527,-0.69057 2.28213,-0.84108 2.55948,-0.86215 0.32667,-0.0248 0.34011,-0.0211 0.48346,0.13232 0.22317,0.23892 0.3038,0.68892 0.36356,2.02892 0.10019,2.24665 -0.0367,7.54208 -0.20181,7.80821 -0.0941,0.15161 -9.43865,1.41772 -10.9993,1.49032 -0.53887,0.025 -0.59072,0.019 -0.83371,-0.0978 z m 2.18277,-3.04621 c 0.23359,-0.0949 0.66182,-0.30738 0.95162,-0.47228 2.14331,-1.21937 6.50081,-4.28883 7.20525,-5.0754 0.15644,-0.17468 0.18398,-0.43108 0.0576,-0.53599 -0.13026,-0.10811 -0.79461,0.15042 -2.1936,0.85368 -0.68702,0.34534 -1.71006,0.82651 -2.27343,1.06924 -2.31292,0.99657 -3.21661,1.58894 -3.8431,2.51919 -0.31542,0.46836 -0.80317,1.50169 -0.80345,1.70215 l -2e-4,0.16936 0.23733,-0.0287 c 0.13054,-0.0158 0.42846,-0.10635 0.66205,-0.20121 z"
         id="path623" /><path
         style="fill:#000000;stroke:none;stroke-width:0.0499655"
         d="m -941.76427,214.30567 c -0.0962,-0.009 -0.29386,-0.0411 -0.43928,-0.071 -0.31674,-0.0652 -0.31719,-0.0584 0.0469,-0.72088 0.43733,-0.7958 0.73665,-1.44256 0.82695,-1.78687 0.0863,-0.32897 0.0861,-0.3379 -0.0109,-0.43469 -0.1595,-0.15932 -0.66451,-0.19965 -2.52227,-0.2015 -2.57795,-0.003 -4.24706,-0.12127 -4.24706,-0.30204 0,-0.12594 0.69181,-0.23657 3.12284,-0.49935 2.59229,-0.28023 4.56265,-0.54697 5.37936,-0.72824 0.10778,-0.0239 0.15041,-0.003 0.22485,0.1109 0.0836,0.12783 0.0915,0.25944 0.0878,1.46647 -0.005,1.53365 -0.0821,2.19803 -0.30847,2.6479 -0.17814,0.35398 -0.3189,0.44968 -0.74137,0.50411 -0.33026,0.0426 -1.04918,0.0502 -1.41941,0.0152 z"
         id="path625" /><path
         style="fill:#000000;stroke:none;stroke-width:0.0499655"
         d="m -977.68944,214.78464 c -5.19565,-0.0436 -5.92265,-0.0938 -6.82678,-0.47142 -0.97239,-0.40613 -1.10089,-0.43931 -1.59239,-0.41134 -0.27159,0.0154 -0.78613,0.10621 -1.29911,0.22914 -1.047,0.25088 -1.72925,0.37163 -1.78495,0.31594 -0.10042,-0.10043 0.50683,-1.03544 1.46883,-2.26161 1.74125,-2.21939 3.60603,-4.20338 4.39644,-4.67749 0.36867,-0.22113 0.43462,-0.24103 0.47245,-0.14245 0.0561,0.14626 -0.32273,0.81387 -1.21393,2.13923 -0.47605,0.70796 -0.86555,1.30015 -0.86555,1.31596 0,0.0463 28.0361,-0.0158 28.24678,-0.0625 l 0.19117,-0.0424 -0.32111,-0.52464 c -0.17661,-0.28856 -0.55818,-0.89092 -0.84795,-1.3386 -0.52831,-0.81626 -0.97863,-1.63444 -0.92764,-1.68542 0.16701,-0.16703 4.46863,4.20627 5.69237,5.78721 0.35648,0.46053 0.80582,1.17405 0.86853,1.37918 l 0.0367,0.12014 -0.31676,-0.0331 c -0.17421,-0.0182 -0.79308,-0.14536 -1.37526,-0.28253 -1.51743,-0.35757 -1.68166,-0.35027 -2.71444,0.12082 -0.55268,0.2521 -0.96104,0.3536 -1.72631,0.42908 -1.36774,0.13488 -9.96021,0.17739 -19.56112,0.0968 z"
         id="path627" /><path
         style="fill:#000000;stroke:none;stroke-width:0.0249828"
         d="m -1000.8484,214.32463 c -0.5568,-0.0266 -0.6984,-0.0945 -0.847,-0.40575 -0.3548,-0.74327 -0.6002,-2.48595 -0.5217,-3.70512 0.046,-0.72342 0.066,-0.73869 0.7441,-0.58945 1.1337,0.24942 3.65665,0.58107 6.2207,0.81776 1.25078,0.11545 1.80701,0.19608 2.04846,0.29697 0.16467,0.0688 0.0996,0.12555 -0.21677,0.18915 -0.60465,0.12154 -1.3453,0.15119 -4.17382,0.16708 -2.10785,0.0118 -2.49207,0.0195 -2.49207,0.0488 0,0.019 0.051,0.23976 0.11326,0.49024 0.17749,0.71395 0.31417,1.08585 0.71825,1.95437 0.1847,0.397 0.26168,0.60154 0.23603,0.62719 -0.0421,0.0421 -0.39262,0.0861 -0.86763,0.10888 -0.28171,0.0136 -0.52901,0.0231 -0.54961,0.0212 -0.021,-0.002 -0.2061,-0.0116 -0.4122,-0.0213 z"
         id="path629" /><path
         style="fill:#000000;stroke:none;stroke-width:0.0499655"
         d="m -986.47662,192.91552 c -0.21184,-0.39628 -0.31811,-1.42911 -0.55567,-5.40024 -0.0548,-0.91591 -0.111,-1.68372 -0.12492,-1.70623 -0.0139,-0.0225 -0.55939,-0.45151 -1.21216,-0.95329 -2.35859,-1.81302 -3.35018,-2.65526 -3.29862,-2.80178 0.0645,-0.18325 0.8514,0.0924 2.36158,0.82709 1.62073,0.78853 2.59843,1.36482 3.08284,1.81716 0.41701,0.38941 0.41518,0.37568 0.41193,3.08334 -0.002,1.83763 -0.0214,2.53312 -0.0885,3.19779 -0.15488,1.53606 -0.38223,2.29961 -0.57652,1.93616 z"
         id="path631" /><path
         style="fill:#000000;stroke:none;stroke-width:0.0499655"
         d="m -955.07269,192.55797 c -0.26797,-0.49235 -0.37882,-2.19651 -0.38098,-5.8573 l -10e-4,-1.93033 0.66204,-0.42335 c 1.31992,-0.84405 3.3212,-1.96592 4.13457,-2.31773 0.39416,-0.17049 0.84949,-0.27641 0.84949,-0.19761 0,0.30418 -1.18325,1.35773 -3.45569,3.0769 l -0.82556,0.62457 -0.0861,1.19918 c -0.22402,3.12093 -0.48328,5.56206 -0.63236,5.95414 -0.0647,0.17013 -0.11511,0.14563 -0.26429,-0.12847 z"
         id="path633" /></g><g
       id="g909"
       style="fill:#000000"
       transform="matrix(0.47700861,0,0,0.47700861,-181.61815,517.22117)"><path
         style="fill:#000000;stroke:none;stroke-width:1.06828"
         d="M 483.18669,236.03501 V 148.9707 h 29.37751 29.37753 v 87.06431 87.06431 H 512.5642 483.18669 Z"
         id="path589" /><path
         style="fill:#000000;stroke:none;stroke-width:1.06828"
         d="M 550.48791,305.47281 V 287.8463 h 14.4217 14.42168 v -10.68277 -10.68277 h 26.1727 26.1727 v 28.30928 28.30928 H 591.0823 550.48791 Z"
         id="path591" /><path
         style="fill:#000000;stroke:none;stroke-width:1.06828"
         d="m 666.11637,305.72805 -17.34731,-17.3712 V 218.66374 148.9707 h 28.84338 28.84339 v 69.4378 69.4378 h 10.68273 10.68273 v 17.62651 17.62651 h -22.17881 -22.17881 z"
         id="path593" /><path
         style="fill:#000000;stroke:none;stroke-width:1.06828"
         d="M 737.43575,305.47281 V 287.8463 h 10.68274 10.68274 v -69.4378 -69.4378 h 28.84338 28.84338 v 69.71703 69.71695 l -17.37123,17.34728 -17.37124,17.34736 h -22.15488 -22.15489 z"
         id="path595" /><path
         style="fill:#000000;stroke:none;stroke-width:1.06828"
         d="m 846.39962,246.78078 c 0,-41.97517 0.39267,-76.56113 0.87248,-76.85775 0.47989,-0.29655 12.73831,19.35123 27.24096,43.66173 l 26.36856,44.20086 v 32.65681 32.65689 h -27.24104 -27.24096 z"
         id="path597" /><path
         style="fill:#000000;stroke:none;stroke-width:1.06828"
         d="M 932.08611,293.57196 C 892.48863,226.97472 847.46794,150.8258 847.46794,150.44701 c 0,-0.22442 13.5861,-0.408 30.19136,-0.408 h 30.19136 l 7.07105,11.48389 c 3.88903,6.31623 14.14786,23.16515 22.79747,37.44216 8.64961,14.277 16.27536,25.77523 16.94618,25.55165 0.67082,-0.22359 8.91405,-13.31961 18.31834,-29.1022 l 17.09871,-28.69566 0.72202,4.74641 c 0.39711,2.61054 0.75766,21.45145 0.8012,41.8687 l 0.0792,37.12231 -20.36299,34.98621 c -11.19968,19.24232 -20.77075,35.39941 -21.26904,35.90452 -0.49966,0.50657 -8.55794,-11.95098 -17.96667,-27.77504 z"
         id="path599" /><path
         style="fill:#000000;stroke:none;stroke-width:1.06828"
         d="m 1000.9299,314.28607 c -0.8948,-11.49478 -0.9058,-150.20306 -0.012,-158.74897 l 0.6863,-6.5664 h 28.1571 28.1571 v 87.06431 87.06431 h -28.1509 -28.1509 z"
         id="path601" /><path
         style="fill:#000000;stroke:none;stroke-width:1.06828"
         d="m 1086.7612,304.93865 v -18.16066 h 8.5461 8.5462 v -50.20882 -50.2089 h -8.5462 -8.5461 V 167.66552 148.9707 h 45.9357 45.9358 v 18.69482 18.69475 h -8.5462 -8.5462 v 50.2089 50.20882 h 8.5462 8.5462 v 18.16066 18.16067 h -45.9358 -45.9357 z"
         id="path603" /></g><path
       style="fill:#000000;stroke:none;stroke-width:0.082081"
       d="m 61.566207,721.69112 c -1.097767,-0.10228 -1.546125,-0.28101 -2.725005,-1.08612 -1.824776,-1.24626 -2.542549,-2.56819 -2.909942,-5.35925 -0.263982,-2.0055 -0.22003,-16.68549 0.05972,-19.94568 0.165243,-1.92575 0.455973,-2.79983 1.303827,-3.91979 1.397246,-1.84573 3.865732,-2.71091 6.960498,-2.43959 2.373668,0.20808 3.786543,0.8698 4.976502,2.33075 1.04364,1.28131 1.5832,3.08216 1.810837,6.04396 0.06748,0.87794 0.144372,1.84556 0.170872,2.15028 l 0.04819,0.55402 h -2.672604 -2.6726 l -0.0022,-1.29277 c -0.006,-4.1922 -0.373221,-4.88591 -2.583688,-4.88131 -1.13276,0.003 -1.505568,0.17507 -1.85694,0.86025 -0.377459,0.73608 -0.516415,3.7271 -0.519514,11.18263 -0.003,7.21693 0.09821,8.83785 0.629162,10.07605 0.352902,0.82297 1.104625,1.14869 2.2707,0.98384 0.778363,-0.11003 1.191607,-0.38641 1.510745,-1.01046 0.362255,-0.70833 0.463541,-1.50562 0.523265,-4.11908 l 0.05393,-2.35983 h 2.660369 2.660373 l -0.04768,0.63614 c -0.02621,0.34987 -0.0854,1.3564 -0.13151,2.2367 -0.100091,1.91093 -0.198694,2.81302 -0.421685,3.85779 -0.721685,3.38137 -2.504791,5.01791 -5.894803,5.41026 -0.998872,0.11563 -2.484829,0.15794 -3.201159,0.0912 z"
       id="path635" /><path
       style="fill:#000000;stroke:none;stroke-width:0.082081"
       d="m 87.093389,721.31527 c -0.06771,-0.0147 -0.326588,-0.0488 -0.575271,-0.076 -0.248686,-0.0273 -0.49952,-0.0788 -0.557411,-0.11458 -0.08376,-0.0518 -0.04546,-0.45763 0.187506,-1.98704 0.31378,-2.05994 2.435175,-15.45785 3.884869,-24.5353 l 0.884825,-5.54044 3.279365,0.003 c 3.278703,0.003 4.120124,0.0622 4.360605,0.30509 0.05555,0.0561 0.179161,0.63761 0.274692,1.29221 0.25235,1.72919 1.281611,8.29909 2.790411,17.81159 1.79307,11.30466 1.95898,12.4171 1.86918,12.53237 -0.15797,0.20275 -0.91161,0.28697 -2.94944,0.32955 -2.004671,0.0419 -2.107178,0.0367 -2.150699,-0.10928 -0.02517,-0.0842 -0.196373,-1.03801 -0.380524,-2.1194 -0.374177,-2.19729 -0.505162,-2.7235 -0.757982,-3.04488 -0.332356,-0.42253 -0.50827,-0.44732 -3.174085,-0.44732 h -2.458545 l -0.04614,0.22571 c -0.02538,0.12416 -0.192357,1.11374 -0.371062,2.19909 -0.443616,2.69435 -0.581907,3.05805 -1.231367,3.23844 -0.262956,0.0731 -2.573053,0.10268 -2.87893,0.0369 z m 8.781453,-10.22138 c 0.474128,-0.10923 0.657857,-0.28034 0.657857,-0.61262 0,-0.92907 -1.520507,-11.06732 -1.97216,-13.14972 -0.181438,-0.83652 -0.05808,-1.49222 -1.478528,7.85927 -0.44915,2.95697 -0.838549,5.51483 -0.865336,5.6841 l -0.04869,0.30782 1.669351,-0.003 c 0.918145,0 1.835025,-0.0402 2.037509,-0.0868 z"
       id="path637" /><path
       style="fill:#000000;stroke:none;stroke-width:0.082081"
       d="m 119.18705,705.14978 v -16.21099 l 0.67716,1.3e-4 c 0.90278,1.7e-4 4.66308,0.14392 6.50492,0.24866 3.8192,0.21721 5.00496,0.75631 6.62762,3.0133 0.88333,1.22864 0.9641,1.83683 0.96205,7.24428 -0.002,3.98549 -0.0561,4.97883 -0.32042,5.83365 -0.36082,1.1668 -1.5667,2.55319 -2.75884,3.17188 -1.32343,0.68681 -2.62659,0.92627 -5.0407,0.92627 h -1.39861 v 5.99189 5.99192 h -2.62659 -2.62659 z m 8.66197,-0.86668 c 0.70043,-0.36056 0.84694,-0.80328 1.03063,-3.11424 0.13126,-1.65127 0.0552,-4.97773 -0.12733,-5.5659 -0.34002,-1.09585 -1.463,-1.69088 -3.38868,-1.79559 l -0.92341,-0.0502 v 5.39633 5.39632 l 1.50041,-0.0283 c 1.41991,-0.027 1.5223,-0.0396 1.90838,-0.23837 z"
       id="path639" /><path
       style="fill:#000000;stroke:none;stroke-width:0.082081"
       d="m 149.30023,721.27725 c -0.47806,-0.0807 -0.70287,-0.19985 -0.76867,-0.40717 -0.0836,-0.26345 0.49332,-4.09249 2.91276,-19.33186 0.8529,-5.37221 1.63324,-10.32168 1.7341,-10.99884 0.12449,-0.83596 0.22482,-1.26715 0.31248,-1.34314 0.17986,-0.15591 7.37486,-0.069 7.52282,0.0909 0.0916,0.099 0.55314,2.90893 3.52202,21.44421 1.74566,10.89845 1.65806,10.29763 1.51447,10.38638 -0.0641,0.0396 -0.32011,0.10131 -0.56879,0.13705 -0.57422,0.0826 -3.58119,0.0852 -3.87271,0.003 -0.12067,-0.0339 -0.33296,-0.15712 -0.47176,-0.27391 -0.36582,-0.3078 -0.53839,-0.97569 -0.86462,-3.34622 -0.15441,-1.122 -0.29384,-2.05311 -0.30984,-2.06913 -0.0343,-0.0343 -5.91809,0.22067 -5.96216,0.25842 -0.0284,0.0243 -0.74214,5.21156 -0.74728,5.43081 -0.002,0.0791 -0.41018,0.1004 -1.78766,0.0929 -0.98189,-0.005 -1.95622,-0.0385 -2.16516,-0.0738 z m 9.36562,-10.20175 c 0.35316,-0.12133 0.50705,-0.40503 0.4539,-0.83669 -0.4247,-3.44929 -1.59466,-10.85431 -1.85125,-11.71706 -0.37795,-1.27085 -0.59042,-0.59303 -1.26716,4.04249 -0.20761,1.42203 -0.54787,3.67516 -0.75613,5.00694 -0.20825,1.33175 -0.3821,2.64144 -0.38631,2.91039 -0.007,0.44269 0.0118,0.49896 0.19753,0.5939 0.27423,0.14012 3.2016,0.14016 3.60942,3e-5 z"
       id="path641" /><path
       style="fill:#000000;stroke:none;stroke-width:0.11608"
       d="m 187.46138,721.7233 c -1.79994,-0.24922 -3.07759,-0.84952 -4.21383,-1.97982 -1.31669,-1.30982 -1.87621,-2.75088 -2.07322,-5.33972 -0.31107,-4.08749 -0.23913,-16.1986 0.11456,-19.28825 0.28054,-2.45056 1.58719,-4.34759 3.73717,-5.42578 1.32204,-0.66299 2.35575,-0.85831 4.13964,-0.78226 2.30724,0.0984 3.85548,0.6607 5.02212,1.82404 1.3136,1.30986 1.92254,3.20286 2.12858,6.6171 0.0366,0.60649 0.0967,1.45535 0.13349,1.88627 l 0.0669,0.78356 h -2.68164 -2.68162 l -0.002,-1.88631 c -0.005,-3.54983 -0.39338,-4.28611 -2.26987,-4.2982 -2.25173,-0.0144 -2.40035,0.52317 -2.60842,9.43698 -0.21068,9.02577 0.096,12.48672 1.18784,13.40544 0.41163,0.34637 1.27209,0.39384 2.08218,0.11483 1.3425,-0.46233 1.36699,-0.53253 1.52953,-4.38119 l 0.12622,-2.98909 h 2.65355 2.65357 l -0.0711,1.3059 c -0.32371,5.94282 -0.50929,6.94822 -1.53027,8.29006 -0.38782,0.50971 -1.84606,1.69175 -2.49624,2.02346 -1.11613,0.56941 -3.44491,0.89093 -4.94671,0.68298 z"
       id="path643" /><path
       style="fill:#000000;stroke:none;stroke-width:0.11608"
       d="m 212.5123,705.184 v -16.19318 h 2.61179 2.61179 v 16.19318 16.19316 h -2.61179 -2.61179 z"
       id="path645" /><path
       style="fill:#000000;stroke:none;stroke-width:0.11608"
       d="m 238.25348,707.59267 -0.0293,-13.78453 -2.70601,-0.031 c -2.50196,-0.029 -2.70175,-0.0463 -2.64958,-0.23217 0.031,-0.11054 0.089,-0.98451 0.12873,-1.94217 0.0398,-0.95766 0.0987,-1.87818 0.13083,-2.04558 l 0.0585,-0.30436 5.07255,-0.0739 c 2.78989,-0.0406 6.31314,-0.10621 7.82945,-0.14569 l 2.75688,-0.0718 v 2.39441 2.39439 h -2.66983 -2.66983 v 13.81354 13.81351 h -2.61133 -2.61133 z"
       id="path647" /><path
       style="fill:#000000;stroke:none;stroke-width:0.11608"
       d="m 264.02145,721.27062 c -1.04101,-0.14795 -1.02388,0.0326 -0.3954,-4.15938 0.30389,-2.02706 1.07546,-6.97644 1.71456,-10.9986 0.63911,-4.02217 1.49753,-9.45098 1.90759,-12.064 0.46178,-2.94254 0.80172,-4.7906 0.89307,-4.8551 0.13998,-0.0988 7.38307,-0.0286 7.48426,0.0726 0.0457,0.0457 2.72357,16.54997 4.32494,26.65531 0.49615,3.13077 0.75906,5.09153 0.692,5.16019 -0.16304,0.16683 -2.84111,0.34294 -3.73717,0.24576 -0.92823,-0.10071 -1.36792,-0.40208 -1.56864,-1.07509 -0.0725,-0.2432 -0.26569,-1.37926 -0.42929,-2.52458 -0.16365,-1.14529 -0.32242,-2.10728 -0.35285,-2.1377 -0.0731,-0.073 -5.86003,0.17717 -5.93969,0.25682 -0.0339,0.0339 -0.2256,1.27902 -0.42603,2.76694 l -0.36439,2.70538 -1.62512,0.015 c -0.89382,0.008 -1.87384,-0.0204 -2.17784,-0.0635 z m 9.3486,-10.21464 c 0.48323,-0.18372 0.48226,-0.20581 -0.21588,-4.94334 -0.59446,-4.03373 -1.07203,-6.87633 -1.27251,-7.57423 -0.41507,-1.44499 -0.61386,-0.69011 -1.61246,6.12321 -0.28541,1.94727 -0.61052,4.10502 -0.72249,4.79506 -0.23847,1.46968 -0.193,1.6116 0.55305,1.72506 0.67682,0.10292 2.89294,0.0177 3.27029,-0.12576 z"
       id="path649" /><path
       style="fill:#000000;stroke:none;stroke-width:0.11608"
       d="m 301.13934,721.53847 c -1.25325,-0.2241 -2.02375,-0.62491 -3.01904,-1.57031 -1.01208,-0.96136 -1.50153,-1.82454 -1.7069,-3.01027 -0.21632,-1.2487 -0.21593,-21.95052 0,-23.20778 0.2058,-1.19616 0.51332,-1.76941 1.46888,-2.73813 1.44003,-1.45987 2.97945,-2.02116 5.54369,-2.02116 4.26322,0 6.43123,1.57915 7.17425,5.22556 0.18399,0.90302 0.45464,4.11588 0.4619,5.48284 v 0.31922 h -2.42406 -2.42406 l -0.0554,-1.88631 c -0.0404,-1.36875 -0.10892,-2.02961 -0.25031,-2.40867 -0.50354,-1.34984 -1.22196,-1.8914 -2.50903,-1.8914 -1.35536,0 -1.69942,0.37819 -1.98485,2.1816 -0.1773,1.12007 -0.27509,14.97783 -0.12379,17.53731 0.14665,2.48054 0.23727,2.73413 1.12182,3.1391 1.0558,0.48333 2.183,0.37519 2.74539,-0.26345 0.7359,-0.83573 1.02894,-2.25529 1.02894,-4.98452 v -2.0212 h 2.37964 2.37964 v 2.52475 c 0,2.75868 -0.16039,4.15652 -0.62989,5.50646 -0.77006,2.21432 -2.29775,3.58428 -4.55813,4.08733 -1.03849,0.23117 -3.32508,0.23067 -4.62028,0 z"
       id="path651" /><path
       style="fill:#000000;stroke:none;stroke-width:0.11608"
       d="m 327.08328,705.184 v -16.19318 h 2.61178 2.61179 v 16.19318 16.19316 h -2.61179 -2.61178 z"
       id="path653" /><path
       style="fill:#000000;stroke:none;stroke-width:0.11608"
       d="m 354.04429,721.55823 c -1.47019,-0.33684 -2.84093,-1.31476 -3.79011,-2.70394 -0.7725,-1.1306 -1.09148,-2.14346 -1.24048,-3.93865 -0.17638,-2.1254 -0.0762,-19.60032 0.11736,-20.46906 0.19041,-0.85469 0.90593,-2.34937 1.49891,-3.1311 0.85465,-1.1267 1.84116,-1.75818 3.38385,-2.16608 1.13399,-0.29983 3.81762,-0.27001 5.02789,0.0558 1.93682,0.52147 3.31665,1.61145 4.22558,3.33785 0.82613,1.56921 0.86551,1.85685 0.92827,6.77887 0.0635,4.98 -0.14026,15.88255 -0.32116,17.17985 -0.17168,1.23114 -0.55774,1.94564 -1.66382,3.07946 -1.51261,1.5505 -2.69424,1.97819 -5.75905,2.08446 -1.22536,0.0425 -1.88015,0.0133 -2.40724,-0.1075 z m 3.63515,-4.81222 c 0.61242,-0.27814 0.92658,-0.68868 1.10092,-1.43876 0.31012,-1.33398 0.31185,-17.03426 0.004,-19.57003 -0.13691,-1.12124 -0.28795,-1.40817 -0.89202,-1.69481 -0.559,-0.26525 -2.01584,-0.27991 -2.61982,-0.0263 -0.58565,0.24586 -0.77324,0.5863 -0.91372,1.6585 -0.20193,1.54097 -0.33224,10.01835 -0.22379,14.55889 0.12504,5.23678 0.27313,6.08494 1.14511,6.55887 0.44873,0.2439 1.82043,0.21741 2.40116,-0.0463 z"
       id="path655" /><path
       style="fill:#000000;stroke:none;stroke-width:0.11608"
       d="m 354.76945,687.9659 c -0.3156,-0.053 -0.47585,-0.14445 -0.50297,-0.28697 -0.0462,-0.24257 0.8486,-1.86072 1.90627,-3.44739 1.07618,-1.61439 1.09548,-1.63391 1.73875,-1.75651 0.567,-0.1081 3.91807,-0.016 4.43447,0.12183 0.23627,0.0631 0.0126,0.32752 -2.08943,2.46981 -1.50118,1.52997 -2.53202,2.48666 -2.84532,2.64061 -0.53517,0.26302 -1.84976,0.39171 -2.64177,0.25862 z"
       id="path657" /><path
       style="fill:#000000;stroke:none;stroke-width:0.11608"
       d="m 380.40761,715.02178 c 0.0396,-3.49546 0.10458,-10.73095 0.14465,-16.07887 l 0.0728,-9.72348 3.25454,0.0306 3.25454,0.0306 2.21578,8.26141 c 1.2187,4.54378 2.24824,8.29366 2.28788,8.3331 0.0396,0.0395 0.10532,-2.529 0.14591,-5.70765 0.0404,-3.17863 0.10593,-6.99382 0.14522,-8.47818 l 0.0715,-2.69888 h 2.36542 2.36548 v 16.20813 16.20813 l -1.13182,-0.0712 c -0.62246,-0.0392 -1.84568,-0.1049 -2.71832,-0.14618 -1.48735,-0.0703 -1.59054,-0.0904 -1.65069,-0.32105 -0.9906,-3.79713 -5.7049,-21.168 -5.76323,-21.2358 -0.0451,-0.0524 -0.11513,3.39516 -0.15564,7.66128 -0.0404,4.26617 -0.10584,9.1801 -0.14522,10.91985 l -0.0716,3.16318 h -2.37946 -2.37956 z"
       id="path659" /><path
       style="fill:#000000;stroke:none;stroke-width:0.11608"
       d="M 454.56389,705.10078 V 688.9076 h 1.42199 c 2.31423,0.003 6.40167,0.21522 7.61077,0.39605 1.39613,0.20881 2.81763,0.65046 3.50389,1.08862 0.63693,0.40663 1.41291,1.2366 1.7212,1.84099 0.64541,1.26509 1.02711,3.40062 1.13773,6.36551 0.19915,5.33812 -1.0066,8.54199 -3.71292,9.86564 -1.20809,0.59087 -2.18796,0.75567 -4.49327,0.75567 h -1.96577 v 6.03617 6.03616 h -2.61183 -2.61179 z m 8.44403,-0.81448 c 0.73821,-0.21921 1.12626,-0.65823 1.30064,-1.4715 0.23766,-1.10811 0.36258,-4.04376 0.24205,-5.6876 -0.17316,-2.36133 -0.30508,-2.64244 -1.38791,-2.95723 -0.76072,-0.22114 -3.22811,-0.61149 -3.31513,-0.52447 -0.033,0.033 -0.0601,2.48037 -0.0601,5.43847 v 5.37836 h 1.31384 c 0.83622,0 1.52935,-0.064 1.90657,-0.17603 z"
       id="path661" /><path
       style="fill:#000000;stroke:none;stroke-width:0.11608"
       d="m 485.32853,721.14719 c -0.23453,-0.0246 -0.48111,-0.11084 -0.54787,-0.19129 -0.0863,-0.10398 0.0767,-1.33575 0.56369,-4.25943 0.3768,-2.26226 1.36783,-8.37042 2.20231,-13.57372 1.90713,-11.89166 2.16027,-13.38178 2.32557,-13.69068 0.22427,-0.41906 0.668,-0.50065 3.02169,-0.55548 2.6004,-0.0606 3.98301,0.0691 4.31921,0.4053 0.28378,0.28378 0.30729,0.4189 2.75956,15.86106 1.08579,6.83748 2.10247,13.16304 2.25929,14.0568 0.16173,0.92172 0.2414,1.6688 0.18411,1.72606 -0.20602,0.20606 -1.16211,0.29544 -3.2119,0.30037 l -2.10555,0.005 -0.0632,-0.37726 c -0.0348,-0.20751 -0.18024,-1.51341 -0.3232,-2.90199 l -0.25992,-2.52475 h -3.09559 -3.09563 l -0.25765,2.46668 c -0.1417,1.3567 -0.28735,2.6626 -0.32355,2.902 l -0.0659,0.43532 -1.92952,-0.0197 c -1.06118,-0.0106 -2.12137,-0.0398 -2.35595,-0.0645 z m 10.10185,-10.29606 c 0.15713,-0.15715 0.13027,-0.47027 -0.2517,-2.93645 -0.23519,-1.51827 -0.61085,-3.99431 -0.83474,-5.50229 -0.51136,-3.44333 -0.75189,-4.74539 -0.87681,-4.74539 -0.135,0 -0.27899,0.55159 -0.74246,2.84396 -0.72859,3.60407 -1.57011,8.83479 -1.57133,9.76733 0,0.34913 0.0551,0.50384 0.2025,0.56464 0.7745,0.31926 3.75743,0.32525 4.07454,0.008 z"
       id="path663" /><path
       style="fill:#000000;stroke:none;stroke-width:0.11608"
       d="m 517.85113,704.9934 v -16.23784 l 0.72551,0.0445 c 0.399,0.0243 2.16197,0.0991 3.91772,0.16588 5.90887,0.22467 7.40792,0.53843 8.67709,1.81614 1.79173,1.80381 2.49686,5.58688 1.81168,9.71962 -0.32815,1.97932 -0.89623,3.25093 -1.93599,4.33376 l -0.70378,0.73288 0.82948,0.83763 c 1.68816,1.70477 1.9885,3.20043 2.2299,11.10487 0.0613,2.0079 0.0939,3.66827 0.0725,3.68972 -0.0213,0.0213 -1.02525,-0.0147 -2.23065,-0.0806 -1.20544,-0.0658 -2.35704,-0.11993 -2.55906,-0.12027 h -0.36732 l -0.0658,-0.84159 c -0.0361,-0.46284 -0.17403,-2.98325 -0.30638,-5.60084 l -0.24058,-4.75928 -0.35236,-0.36443 c -0.19377,-0.20045 -0.62189,-0.51295 -0.95144,-0.69444 -0.5434,-0.2993 -0.72582,-0.33401 -1.96299,-0.37329 l -1.36392,-0.0433 v 6.45469 6.45466 h -2.61183 -2.61178 z m 8.21428,-1.69614 c 0.78505,-0.237 1.37587,-0.75641 1.56385,-1.37493 0.20972,-0.69004 0.19976,-5.4433 -0.0135,-6.50084 -0.13657,-0.67695 -0.21211,-0.826 -0.51045,-1.00743 -0.46885,-0.28514 -1.52343,-0.55372 -2.8987,-0.73821 l -1.13172,-0.15188 v 5.04905 5.04905 l 1.18975,-0.0702 c 0.6544,-0.0386 1.46484,-0.15318 1.80091,-0.25465 z"
       id="path665" /><path
       style="fill:#000000;stroke:none;stroke-width:0.11608"
       d="m 549.93826,721.1248 c -0.81757,-0.11456 -0.95375,-0.28004 -0.86434,-1.05037 0.11483,-0.98894 1.22848,-8.19418 2.57519,-16.66147 0.67018,-4.21369 1.4488,-9.14558 1.73028,-10.95972 0.31681,-2.04228 0.56877,-3.33865 0.66166,-3.40409 0.14217,-0.10017 7.3841,-0.0316 7.48659,0.0709 0.0563,0.0563 3.63481,22.1811 4.9497,30.60218 0.1047,0.67056 0.13044,1.14616 0.0657,1.21349 -0.16043,0.16677 -2.83911,0.34297 -3.73552,0.24576 -0.92818,-0.10071 -1.36791,-0.40208 -1.56859,-1.07509 -0.0725,-0.2432 -0.26574,-1.37926 -0.42934,-2.52458 -0.1636,-1.14529 -0.3229,-2.10778 -0.35394,-2.13883 -0.0731,-0.0731 -5.86488,0.18423 -5.94481,0.26418 -0.0335,0.0333 -0.22289,1.28991 -0.42117,2.79236 l -0.36059,2.73176 -1.62635,-0.0156 c -0.89446,-0.009 -1.8685,-0.0494 -2.16449,-0.0909 z m 8.70955,-10.1045 c 0.40826,-0.059 0.79388,-0.15888 0.85695,-0.22194 0.19424,-0.19426 0.10883,-1.12553 -0.43895,-4.78657 -0.98486,-6.58195 -1.29985,-8.22872 -1.57389,-8.22872 -0.27514,0 -0.44439,0.86371 -1.33067,6.7907 -0.35324,2.3622 -0.70295,4.69542 -0.7771,5.18491 -0.16074,1.061 -0.0797,1.22331 0.64414,1.28904 0.96326,0.0875 1.89184,0.0778 2.61952,-0.0273 z"
       id="path667" /><path
       style="fill:#000000;stroke:none;stroke-width:0.11608"
       d="m 626.8079,705.1367 v -16.19318 h 3.65433 3.65432 l 0.0571,0.26119 c 0.0313,0.14365 0.50576,3.08193 1.05415,6.52952 1.62162,10.19398 2.34091,14.33588 2.48973,14.33588 0.0482,0 0.12175,-0.19588 0.16343,-0.43532 0.54748,-3.14479 2.90921,-18.35501 3.04156,-19.58849 0.045,-0.41933 0.14739,-0.75424 0.25727,-0.84159 0.20711,-0.16464 2.45444,-0.19396 5.32901,-0.0696 l 1.74532,0.0756 0.0728,11.21324 c 0.04,6.16726 0.10497,13.39408 0.14439,16.05958 l 0.0716,4.84633 h -2.61109 -2.61109 l -0.0719,-3.56945 c -0.0395,-1.96322 -0.10566,-6.2074 -0.14691,-9.43151 -0.0413,-3.22412 -0.11731,-5.75756 -0.16912,-5.6299 -0.0518,0.1277 -0.5171,3.13127 -1.03398,6.6746 -1.43672,9.84822 -1.65395,10.98868 -2.20612,11.58137 -0.33842,0.36327 -0.52271,0.38696 -2.72228,0.34994 l -1.96781,-0.033 -1.58702,-9.37818 c -0.87281,-5.15799 -1.61966,-9.41086 -1.65965,-9.45084 -0.04,-0.04 -0.0728,2.74369 -0.0729,6.18595 -1.3e-4,3.44226 -0.0348,7.70822 -0.0767,9.47989 l -0.0765,3.22122 h -2.36104 -2.36095 z"
       id="path669" /><path
       style="fill:#000000;stroke:none;stroke-width:0.11608"
       d="m 666.58897,704.99875 v -16.19318 h 2.61178 2.61178 v 16.19318 16.19316 h -2.61178 -2.61178 z"
       id="path671" /><path
       style="fill:#000000;stroke:none;stroke-width:0.11608"
       d="m 687.9231,707.87343 c 0.0404,-7.3261 0.10514,-14.56079 0.14413,-16.07707 l 0.0709,-2.75691 h 3.22303 c 2.97141,0 3.22732,0.016 3.27761,0.20316 0.03,0.1117 1.04167,3.88577 2.24812,8.38677 l 2.19352,8.18365 0.0756,-0.87061 c 0.0417,-0.47883 0.11318,-4.3051 0.15908,-8.50287 l 0.0834,-7.63227 h 2.36564 2.36569 v 16.2008 16.2008 l -1.53803,-0.0796 c -0.84595,-0.0438 -2.05488,-0.1125 -2.6865,-0.15272 l -1.14842,-0.0731 -2.8644,-10.62131 c -1.57542,-5.84174 -2.89213,-10.6997 -2.92608,-10.79545 -0.0892,-0.25192 -0.19985,5.19444 -0.2846,14.01667 l -0.0739,7.69029 h -2.37912 -2.37903 z"
       id="path673" /><path
       style="fill:#000000;stroke:none;stroke-width:0.11608"
       d="m 720.21805,720.71209 c -0.68504,-0.0951 -0.90532,-0.34294 -0.82278,-0.92595 0.32033,-2.26209 1.60797,-10.5812 2.88513,-18.64012 0.85999,-5.42674 1.65178,-10.44138 1.7594,-11.14368 0.10766,-0.70227 0.25492,-1.31526 0.3272,-1.36217 0.15278,-0.0991 4.13717,-0.0901 6.16236,0.014 l 1.38769,0.0713 1.83225,11.37585 c 1.73997,10.80315 3.00375,18.73784 3.17387,19.92787 l 0.0775,0.54246 -0.56322,0.0919 c -0.30977,0.0505 -1.32984,0.0937 -2.2668,0.096 -1.54716,0.003 -1.73367,-0.018 -2.0314,-0.23757 -0.45273,-0.33374 -0.67666,-1.07799 -0.96126,-3.19443 -0.13218,-0.98315 -0.26862,-1.91259 -0.30321,-2.06544 l -0.0629,-0.27791 -2.11203,0.0764 c -1.16163,0.042 -2.51121,0.10801 -2.99905,0.14669 l -0.88703,0.0703 -0.0625,0.42143 c -0.0343,0.23177 -0.20468,1.47917 -0.37845,2.772 l -0.31594,2.35065 -1.63653,-0.0157 c -0.90006,-0.009 -1.89114,-0.0508 -2.20235,-0.094 z m 8.79353,-10.09408 c 0.88537,-0.11033 1.04258,-0.30569 0.94309,-1.17227 -0.11318,-0.98581 -1.07301,-7.38937 -1.40938,-9.40246 -0.32776,-1.96183 -0.48989,-2.56962 -0.70404,-2.63978 -0.24731,-0.0811 -0.47789,1.06387 -1.2446,6.18021 -0.41144,2.74529 -0.81175,5.37254 -0.88964,5.83834 -0.10557,0.63145 -0.10809,0.88041 -0.01,0.97859 0.27374,0.27374 1.96951,0.38494 3.31447,0.21737 z"
       id="path675" /><path
       style="fill:#f9c501;fill-opacity:1;stroke-width:0.489291"
       d="m 422.79898,641.35725 v -30.59938 l 14.55644,-2e-4 14.55649,-1.8e-4 -0.14693,30.19792 c -0.0808,16.60879 -0.19091,30.23003 -0.24465,30.2694 -0.0537,0.0397 -6.53803,0.22019 -14.40953,0.40172 l -14.31184,0.33014 z m 61.16162,-11.24836 v -41.85848 l 14.06721,-1.6e-4 14.06718,-1.1e-4 -0.14477,41.44934 c -0.0795,22.79718 -0.18966,41.48293 -0.24461,41.52387 -0.055,0.0411 -6.32003,0.22513 -13.92245,0.40925 l -13.82256,0.3348 z m 50.04712,34.0979 c -2.03343,-4.23501 -4.64864,-9.79171 -5.81168,-12.34829 l -2.11444,-4.64828 10.96532,-0.24464 10.96538,-0.24467 1.91687,-1.87246 1.91686,-1.87248 0.98474,1.62785 c 0.54169,0.89529 2.6433,4.82045 4.67029,8.72256 2.02704,3.90211 5.01246,9.51106 6.63429,12.46437 1.62178,2.95334 2.90636,5.39977 2.8546,5.43662 -0.0517,0.0368 -6.66208,0.20475 -14.68967,0.3732 l -14.59551,0.30619 z m 36.78327,6.85647 c 0.18155,-0.47095 6.82905,-18.25064 14.77224,-39.51043 7.94311,-21.25977 14.60992,-38.82953 14.81514,-39.04385 0.20515,-0.21436 0.75561,0.66638 1.22319,1.95717 0.46761,1.29079 1.49346,3.99824 2.27958,6.01655 0.78619,2.01835 1.42825,3.95616 1.42682,4.30619 0,0.35008 1.64777,5.11812 3.66495,10.59559 l 3.66762,9.95909 -7.53321,22.92097 -7.53306,22.92104 -7.99986,0.29926 c -4.39983,0.1646 -10.50039,0.32973 -13.55668,0.36697 -5.10686,0.0622 -5.53015,0 -5.22673,-0.78855 z m 64.28626,-0.48811 c -0.29751,-0.74069 -1.03668,-2.77791 -1.64257,-4.52716 l -1.10161,-3.18039 h -13.22715 c -7.27497,0 -13.35777,-0.12998 -13.51738,-0.28894 -0.15955,-0.15883 0.94409,-3.82376 2.45268,-8.14413 3.19924,-9.16219 2.2251,-8.44755 11.5148,-8.44755 3.19571,0 5.81034,-0.0936 5.81034,-0.20816 0,-0.11448 -1.34188,-3.69238 -2.98193,-7.951 -1.63999,-4.25856 -3.7207,-9.83461 -4.62383,-12.39113 -0.90302,-2.55657 -3.16729,-8.50149 -5.03162,-13.21094 -1.86434,-4.70943 -4.7377,-11.9635 -6.38525,-16.12009 -1.64753,-4.15665 -2.99555,-7.62795 -2.99555,-7.71401 0,-0.086 6.20455,-0.0981 13.78784,-0.0263 l 13.78782,0.12999 1.61306,4.6483 c 0.88719,2.55652 8.20182,21.16191 16.25474,41.34526 8.05294,20.18333 14.60873,36.72145 14.56836,36.75136 -0.04,0.0299 -6.2988,0.19555 -13.90761,0.36814 l -13.83415,0.31385 z m 43.74437,-6.90882 -8.44028,-8.20756 v -25.16916 -25.16914 l 8.44539,-8.43502 8.44547,-8.43504 h 5.4994 5.49946 v 41.52174 41.52177 l -2.56878,0.30854 c -1.41285,0.16965 -3.8899,0.30018 -5.50458,0.29001 l -2.93576,-0.0186 -8.44032,-8.20761 z m 23.85305,0.005 c 0,-8.16708 0.0144,-8.27805 1.10089,-8.56927 0.60551,-0.16225 4.67211,-0.29805 9.03687,-0.30171 l 7.93595,-0.007 0.13738,-5.99383 0.13738,-5.99385 h 13.94482 13.94487 l -0.16496,6.11618 -0.16497,6.11617 -8.15294,8.14124 -8.15293,8.14132 -14.80116,0.31235 -14.80109,0.31238 v -8.27426 z M 516.58016,646.6392 c -0.17938,-0.17938 -0.32617,-3.78672 -0.32617,-8.01628 0,-7.56123 0.0186,-7.695 1.10088,-7.98508 0.60551,-0.16226 5.22934,-0.29805 10.27516,-0.30175 l 9.17425,-0.007 0.005,-10.88678 c 0.005,-5.98772 0.14766,-11.74847 0.32169,-12.80167 l 0.31626,-1.91492 -9.10677,0.31691 c -5.00867,0.17434 -9.77729,0.18281 -10.59684,0.0191 l -1.49003,-0.29801 v -8.25681 -8.25686 l 16.02439,0.0126 16.02429,0.0126 8.19568,8.50726 8.19567,8.50723 v 12.40446 12.40447 l -6.3038,6.28981 c -5.4993,5.48709 -6.36664,6.17763 -6.79591,5.41056 -0.46903,-0.83817 -1.04941,-0.80476 -12.41166,0.71453 -14.93576,1.99698 -14.1867,1.81915 -13.81989,3.28045 0.29359,1.16993 0.2893,1.17117 -4.08119,1.17117 -2.40638,0 -4.522,-0.14675 -4.70135,-0.32619 z m 204.27392,-33.18148 0.19001,-8.71205 -7.60462,0.32515 c -4.18251,0.17884 -8.31565,0.18288 -9.18465,0.009 l -1.58015,-0.31602 v -8.25683 -8.2568 h 14.80998 14.81001 l 8.18681,8.52408 8.18674,8.5241 v 8.11185 8.11188 h -5.50453 c -3.02748,0 -9.32843,0.14657 -14.002,0.32383 l -8.49758,0.32233 0.18998,-8.71204 z M 401.27,597.42448 l 6e-5,-9.17425 h 36.17705 36.177 l -0.28072,8.92962 c -0.15433,4.91128 -0.30572,8.96284 -0.33624,9.0035 -0.0305,0.0406 -16.18396,0.15072 -35.89644,0.24467 L 401.27,606.59875 Z"
       id="path703" /></g></svg>
