<?xml version="1.0" encoding="UTF-8" standalone="no"?>
<!-- Created with Inkscape (http://www.inkscape.org/) -->

<svg
   width="2000mm"
   height="478mm"
   viewBox="0 0 2000 478"
   version="1.1"
   id="svg841"
   inkscape:version="1.2.2 (b0a8486541, 2022-12-01)"
   sodipodi:docname="Piedepagina-002.svg"
   xmlns:inkscape="http://www.inkscape.org/namespaces/inkscape"
   xmlns:sodipodi="http://sodipodi.sourceforge.net/DTD/sodipodi-0.dtd"
   xmlns="http://www.w3.org/2000/svg"
   xmlns:svg="http://www.w3.org/2000/svg">
  <sodipodi:namedview
     id="namedview843"
     pagecolor="#505050"
     bordercolor="#ffffff"
     borderopacity="1"
     inkscape:showpageshadow="0"
     inkscape:pageopacity="0"
     inkscape:pagecheckerboard="1"
     inkscape:deskcolor="#505050"
     inkscape:document-units="mm"
     showgrid="false"
     inkscape:zoom="0.087414948"
     inkscape:cx="2539.6114"
     inkscape:cy="-337.47089"
     inkscape:window-width="1920"
     inkscape:window-height="1043"
     inkscape:window-x="0"
     inkscape:window-y="0"
     inkscape:window-maximized="1"
     inkscape:current-layer="layer1" />
  <defs
     id="defs838">
    <linearGradient
       id="g11"
       x2="1"
       gradientUnits="userSpaceOnUse"
       gradientTransform="matrix(-168.81369,732.86716,-1847.4905,-328.99653,1197.645,-49.045812)">
      <stop
         offset="0"
         stop-color="#ffffff"
         id="stop58" />
      <stop
         offset="1"
         stop-color="#d5d5d5"
         id="stop60" />
    </linearGradient>
    <clipPath
       clipPathUnits="userSpaceOnUse"
       id="cp3">
      <path
         d="M 541.5,523.86 H 34.5 V 385.12 h 507 z"
         id="path63" />
    </clipPath>
    <linearGradient
       id="g12"
       x2="1"
       gradientUnits="userSpaceOnUse"
       gradientTransform="matrix(319.414,10.18,-2.963,92.987,-65.289,483.375)">
      <stop
         offset="0"
         stop-color="#ffffff"
         id="stop66" />
      <stop
         offset="1"
         stop-color="#325267"
         id="stop68" />
    </linearGradient>
    <linearGradient
       id="g13"
       x2="1"
       gradientUnits="userSpaceOnUse"
       gradientTransform="matrix(297.207,91.037,-48.741,159.124,-43.887,402.428)">
      <stop
         offset="0"
         stop-color="#000000"
         id="stop71" />
      <stop
         offset="1"
         stop-color="#696a6b"
         id="stop73" />
    </linearGradient>
  </defs>
  <g
     inkscape:label="Capa 1"
     inkscape:groupmode="layer"
     id="layer1">
    <g
       id="g246"
       clip-path="url(#cp3)"
       transform="matrix(3.9565399,0,0,3.4787943,-139.1195,-1341.0561)">
      <path
         id="path236"
         class="s6"
         d="m 586.57,448.34 c -147,50 -376.65,78.44 -585.32,-4.33 v 117.34 h 560 c 0,0 34.3,-116.06 25.32,-113.01 z"
         style="fill:#2c303d" />
      <path
         id="path238"
         class="s17"
         d="m 551.85,427.66 c 0,0 -139.81,79.79 -405.78,56.68 0,0 221.27,47.23 407.38,-18.38 z"
         style="fill:#0092c7" />
      <g
         id="g244"
         style="opacity:0.5">
        <path
           id="path240"
           class="s18"
           d="m -62.11,471.02 c 4.41,1.93 8.68,3.51 13.05,4.99 q 3.26,1.09 6.52,2.17 3.27,0.97 6.55,1.93 c 4.35,1.36 8.74,2.41 13.11,3.54 4.38,1.19 8.77,2.11 13.17,3.07 8.77,2.08 17.59,3.44 26.39,5.11 8.82,1.21 17.63,2.76 26.46,3.67 q -0.2,6.67 -0.4,13.35 c -8.94,-0.92 -17.88,-2.49 -26.83,-3.72 -8.95,-1.7 -17.89,-3.08 -26.84,-5.2 -4.48,-0.98 -8.95,-1.91 -13.43,-3.13 -4.48,-1.16 -8.95,-2.23 -13.44,-3.63 q -3.36,-0.99 -6.73,-1.98 -3.37,-1.12 -6.75,-2.24 c -2.24,-0.71 -4.53,-1.62 -6.8,-2.45 q -1.69,-0.61 -3.46,-1.35 c -1.18,-0.49 -2.29,-0.92 -3.75,-1.6 q 1.59,-6.27 3.18,-12.53 z m -3.18,12.53 c 1.46,0.68 2.57,1.11 3.75,1.6 q 1.77,0.74 3.46,1.35 c 2.27,0.83 4.56,1.74 6.8,2.45 q 3.38,1.12 6.75,2.24 3.37,0.99 6.73,1.98 c 4.49,1.4 8.96,2.47 13.44,3.63 4.48,1.22 8.95,2.15 13.43,3.13 8.95,2.12 17.89,3.5 26.84,5.2 8.95,1.23 17.89,2.8 26.83,3.72 q -0.19,6.68 -0.39,13.35 c -9.05,-0.94 -18.14,-2.53 -27.2,-3.78 -9.1,-1.72 -18.17,-3.12 -27.3,-5.27 -4.56,-1.01 -9.11,-1.96 -13.7,-3.2 -4.58,-1.19 -9.14,-2.29 -13.76,-3.72 q -3.45,-1.02 -6.9,-2.04 -3.49,-1.16 -6.98,-2.31 c -2.31,-0.74 -4.73,-1.69 -7.1,-2.56 q -1.75,-0.63 -3.67,-1.43 c -1.26,-0.52 -2.41,-0.97 -4.2,-1.8 q 1.59,-6.27 3.17,-12.54 z m -3.17,12.54 c 1.79,0.83 2.94,1.28 4.2,1.8 q 1.92,0.8 3.67,1.43 c 2.37,0.87 4.79,1.82 7.1,2.56 q 3.49,1.15 6.98,2.31 3.45,1.02 6.9,2.04 c 4.62,1.43 9.18,2.53 13.76,3.72 4.59,1.24 9.14,2.19 13.7,3.2 9.13,2.15 18.2,3.55 27.3,5.27 9.06,1.25 18.15,2.84 27.2,3.78 q -0.2,6.68 -0.4,13.35 c -9.16,-0.95 -18.38,-2.56 -27.57,-3.83 -9.25,-1.75 -18.44,-3.17 -27.75,-5.37 -4.64,-1.01 -9.27,-1.98 -13.96,-3.26 -4.68,-1.21 -9.33,-2.33 -14.08,-3.8 q -3.54,-1.04 -7.08,-2.09 -3.61,-1.2 -7.22,-2.4 c -2.36,-0.75 -4.91,-1.75 -7.38,-2.65 q -0.93,-0.35 -1.87,-0.7 -1.01,-0.41 -2.02,-0.82 -1.01,-0.42 -2.02,-0.83 -1.32,-0.59 -2.64,-1.17 1.59,-6.27 3.18,-12.54 z m -3.18,12.54 q 1.32,0.58 2.64,1.17 1.01,0.41 2.02,0.83 1.01,0.41 2.02,0.82 0.94,0.35 1.87,0.7 c 2.47,0.9 5.02,1.9 7.38,2.65 q 3.61,1.2 7.22,2.4 3.54,1.05 7.08,2.09 c 4.75,1.47 9.4,2.59 14.08,3.8 4.69,1.28 9.32,2.25 13.96,3.26 9.31,2.2 18.5,3.62 27.75,5.37 9.19,1.27 18.41,2.88 27.57,3.83 q -0.2,6.68 -0.4,13.35 c -9.26,-0.97 -18.62,-2.6 -27.93,-3.88 -9.4,-1.77 -18.72,-3.22 -28.21,-5.46 -4.73,-1.03 -9.44,-2.02 -14.23,-3.32 -4.78,-1.24 -9.52,-2.38 -14.4,-3.89 q -3.63,-1.07 -7.26,-2.15 -3.72,-1.23 -7.45,-2.47 c -2.42,-0.77 -5.1,-1.81 -7.67,-2.76 q -0.97,-0.37 -1.95,-0.73 -1.07,-0.44 -2.15,-0.87 -1.08,-0.45 -2.15,-0.89 -1.48,-0.65 -2.96,-1.31 1.58,-6.26 3.17,-12.54 z m -3.17,12.54 q 1.48,0.66 2.96,1.31 1.07,0.44 2.15,0.89 1.08,0.43 2.15,0.87 0.98,0.36 1.95,0.73 c 2.57,0.95 5.25,1.99 7.67,2.76 q 3.73,1.24 7.45,2.47 3.63,1.08 7.26,2.15 c 4.88,1.51 9.62,2.65 14.4,3.89 4.79,1.3 9.5,2.29 14.23,3.32 9.49,2.24 18.81,3.69 28.21,5.46 9.31,1.28 18.67,2.91 27.93,3.88 q -0.2,6.67 -0.39,13.35 c -9.38,-0.98 -18.88,-2.62 -28.32,-3.94 -9.54,-1.79 -18.99,-3.26 -28.65,-5.54 -4.81,-1.05 -9.6,-2.06 -14.5,-3.38 -4.88,-1.27 -9.7,-2.43 -14.71,-3.98 q -3.72,-1.1 -7.45,-2.2 -3.84,-1.27 -7.67,-2.55 c -2.49,-0.79 -5.3,-1.88 -7.97,-2.86 q -1.01,-0.39 -2.02,-0.76 -1.15,-0.47 -2.29,-0.93 -1.14,-0.48 -2.28,-0.95 -0.74,-0.31 -1.48,-0.63 -0.9,-0.4 -1.81,-0.82 1.59,-6.27 3.18,-12.54 z M 43.14,495.5 c 35.29,4.16 70.61,5.54 105.82,5.18 q 0.37,6.7 0.73,13.41 c -35.52,0.36 -71.19,-1.02 -106.95,-5.24 q 0.2,-6.68 0.4,-13.35 z m -0.4,13.35 c 35.76,4.22 71.43,5.6 106.95,5.24 q 0.36,6.7 0.72,13.41 c -35.83,0.36 -71.86,-1.03 -108.06,-5.3 q 0.2,-6.67 0.39,-13.35 z m -0.39,13.35 c 36.2,4.27 72.23,5.66 108.06,5.3 q 0.36,6.7 0.73,13.4 c -36.15,0.37 -72.52,-1.02 -109.19,-5.35 q 0.2,-6.67 0.4,-13.35 z m -0.4,13.35 c 36.67,4.33 73.04,5.72 109.19,5.35 q 0.36,6.71 0.72,13.41 c -36.45,0.37 -73.18,-1.03 -110.31,-5.41 q 0.2,-6.67 0.4,-13.35 z m -0.4,13.35 c 37.13,4.38 73.86,5.78 110.31,5.41 q 0.36,6.71 0.72,13.41 c -36.77,0.37 -73.83,-1.04 -111.42,-5.47 q 0.19,-6.68 0.39,-13.35 z m 107.41,-48.22 c 17.57,-0.61 35.18,-0.88 52.69,-2.31 17.55,-0.92 35.01,-2.89 52.48,-4.64 q 0.76,6.68 1.52,13.36 c -17.59,1.76 -35.16,3.74 -52.85,4.67 -17.64,1.44 -35.39,1.72 -53.11,2.33 q -0.36,-6.71 -0.73,-13.41 z m 0.73,13.41 c 17.72,-0.61 35.47,-0.89 53.11,-2.33 17.69,-0.93 35.26,-2.91 52.85,-4.67 q 0.76,6.68 1.52,13.36 c -17.71,1.77 -35.39,3.76 -53.22,4.7 -17.77,1.45 -35.68,1.74 -53.54,2.35 q -0.36,-6.71 -0.72,-13.41 z m 0.72,13.41 c 17.86,-0.61 35.77,-0.9 53.54,-2.35 17.83,-0.94 35.51,-2.93 53.22,-4.7 q 0.76,6.68 1.53,13.35 c -17.84,1.8 -35.63,3.8 -53.6,4.74 -17.89,1.46 -35.96,1.75 -53.96,2.36 q -0.37,-6.7 -0.73,-13.4 z m 0.73,13.4 c 18,-0.61 36.07,-0.9 53.96,-2.36 17.97,-0.94 35.76,-2.94 53.6,-4.74 q 0.76,6.68 1.52,13.37 c -17.95,1.79 -35.87,3.81 -53.97,4.76 -18.02,1.47 -36.24,1.77 -54.39,2.38 q -0.36,-6.7 -0.72,-13.41 z m 0.72,13.41 c 18.15,-0.61 36.37,-0.91 54.39,-2.38 18.1,-0.95 36.02,-2.97 53.97,-4.76 q 0.76,6.68 1.53,13.36 c -18.08,1.81 -36.11,3.83 -54.36,4.79 -18.14,1.48 -36.51,1.78 -54.81,2.4 q -0.36,-6.7 -0.72,-13.41 z m 102.27,-60.58 q 3.27,-0.33 6.55,-0.66 3.26,-0.44 6.52,-0.89 6.53,-0.89 13.05,-1.79 6.53,-0.9 13.05,-1.8 c 4.36,-0.56 8.7,-1.19 13.02,-2.03 q 12.98,-2.32 25.95,-4.64 c 8.66,-1.53 17.21,-3.72 25.82,-5.55 q 1.22,6.59 2.45,13.2 c -8.69,1.85 -17.34,4.06 -26.07,5.6 q -13.1,2.35 -26.2,4.69 c -4.36,0.85 -8.74,1.48 -13.13,2.05 q -6.58,0.9 -13.16,1.81 -6.58,0.9 -13.15,1.81 -3.3,0.45 -6.59,0.9 -3.29,0.33 -6.59,0.66 -0.76,-6.68 -1.52,-13.36 z m 1.52,13.36 q 3.3,-0.33 6.59,-0.66 3.29,-0.45 6.59,-0.9 6.57,-0.91 13.15,-1.81 6.58,-0.91 13.16,-1.81 c 4.39,-0.57 8.77,-1.2 13.13,-2.05 q 13.1,-2.34 26.2,-4.69 c 8.73,-1.54 17.38,-3.75 26.07,-5.6 q 1.23,6.6 2.46,13.2 c -8.79,1.86 -17.53,4.1 -26.34,5.66 q -13.22,2.37 -26.44,4.73 c -4.4,0.86 -8.82,1.49 -13.24,2.07 q -6.63,0.91 -13.27,1.82 -6.63,0.91 -13.26,1.83 -3.32,0.44 -6.64,0.9 -3.31,0.33 -6.64,0.67 -0.76,-6.68 -1.52,-13.36 z m 1.52,13.36 q 3.33,-0.34 6.64,-0.67 3.32,-0.46 6.64,-0.9 6.63,-0.92 13.26,-1.83 6.64,-0.91 13.27,-1.82 c 4.42,-0.58 8.84,-1.21 13.24,-2.07 q 13.22,-2.36 26.44,-4.73 c 8.81,-1.56 17.55,-3.8 26.34,-5.66 q 1.22,6.6 2.45,13.2 c -8.87,1.89 -17.71,4.14 -26.6,5.71 q -13.34,2.39 -26.68,4.78 c -4.44,0.86 -8.9,1.5 -13.36,2.08 q -6.68,0.92 -13.37,1.85 -6.68,0.91 -13.37,1.83 -3.35,0.45 -6.69,0.91 -3.34,0.34 -6.68,0.67 -0.77,-6.67 -1.53,-13.35 z m 1.53,13.35 q 3.34,-0.33 6.68,-0.67 3.34,-0.46 6.69,-0.91 6.69,-0.92 13.37,-1.83 6.69,-0.93 13.37,-1.85 c 4.46,-0.58 8.92,-1.22 13.36,-2.08 q 13.34,-2.39 26.68,-4.78 c 8.89,-1.57 17.73,-3.82 26.6,-5.71 q 1.22,6.6 2.46,13.2 c -8.96,1.91 -17.9,4.18 -26.87,5.77 q -13.46,2.41 -26.92,4.82 c -4.48,0.87 -8.98,1.51 -13.47,2.1 q -6.74,0.93 -13.48,1.86 -6.74,0.93 -13.48,1.85 -3.37,0.45 -6.74,0.91 -3.36,0.35 -6.73,0.69 -0.76,-6.69 -1.52,-13.37 z m 1.52,13.37 q 3.37,-0.34 6.73,-0.69 3.37,-0.46 6.74,-0.91 6.74,-0.92 13.48,-1.85 6.74,-0.93 13.48,-1.86 c 4.49,-0.59 8.99,-1.23 13.47,-2.1 q 13.46,-2.41 26.92,-4.82 c 8.97,-1.59 17.91,-3.86 26.87,-5.77 q 1.22,6.6 2.45,13.2 c -9.05,1.93 -18.08,4.22 -27.13,5.83 q -13.58,2.42 -27.16,4.86 c -4.52,0.87 -9.05,1.53 -13.58,2.12 q -6.8,0.93 -13.59,1.87 -6.79,0.93 -13.58,1.86 -3.4,0.46 -6.8,0.93 -3.39,0.34 -6.77,0.69 -0.77,-6.68 -1.53,-13.36 z m 97.87,-70.8 c 34.31,-7.9 68.3,-17.94 101.29,-31.66 q 1.91,6.38 3.81,12.76 c -33.56,13.96 -67.97,24.11 -102.65,32.1 q -1.23,-6.61 -2.45,-13.2 z m 2.45,13.2 c 34.68,-7.99 69.09,-18.14 102.65,-32.1 q 1.91,6.39 3.82,12.77 C 432.88,484.43 398.05,494.7 363,502.77 q -1.23,-6.6 -2.46,-13.2 z m 2.46,13.2 c 35.05,-8.07 69.88,-18.34 104.01,-32.53 q 1.9,6.38 3.81,12.76 c -34.71,14.43 -69.95,24.81 -105.37,32.97 q -1.23,-6.6 -2.45,-13.2 z m 2.45,13.2 c 35.42,-8.16 70.66,-18.54 105.37,-32.97 q 1.91,6.38 3.82,12.77 c -35.29,14.66 -70.95,25.15 -106.73,33.4 q -1.24,-6.6 -2.46,-13.2 z m 2.46,13.2 c 35.78,-8.25 71.44,-18.74 106.73,-33.4 q 1.9,6.38 3.81,12.76 c -35.85,14.9 -71.94,25.51 -108.09,33.84 q -1.23,-6.6 -2.45,-13.2 z m 91.47,-84.46 q 6.18,-2.61 12.35,-5.21 6.09,-2.9 12.18,-5.8 3.04,-1.45 6.08,-2.91 2.99,-1.61 5.98,-3.21 c 3.97,-2.19 8.03,-4.13 11.92,-6.53 3.91,-2.37 7.86,-4.63 11.73,-7.08 3.83,-2.58 7.71,-5.01 11.48,-7.72 7.56,-5.46 14.87,-11.07 21.88,-18.18 q 3.62,5.14 7.23,10.28 c -1.31,1.44 -2.18,2.23 -3.19,3.21 -1,1 -1.95,1.82 -2.91,2.68 -1.92,1.74 -3.84,3.4 -5.78,4.91 -3.84,3.22 -7.76,6.01 -11.66,8.88 -3.92,2.83 -7.92,5.32 -11.87,7.99 -4,2.53 -8.05,4.85 -12.06,7.28 -4.02,2.47 -8.15,4.46 -12.22,6.7 q -3.07,1.64 -6.13,3.28 -3.1,1.49 -6.2,2.98 -6.22,2.95 -12.43,5.91 -6.28,2.65 -12.57,5.3 -1.9,-6.38 -3.81,-12.76 z m 3.81,12.76 q 6.29,-2.65 12.57,-5.3 6.21,-2.96 12.43,-5.91 3.1,-1.49 6.2,-2.98 3.06,-1.64 6.13,-3.28 c 4.07,-2.24 8.2,-4.23 12.22,-6.7 4.01,-2.43 8.06,-4.75 12.06,-7.28 3.95,-2.67 7.95,-5.16 11.87,-7.99 3.9,-2.87 7.82,-5.66 11.66,-8.88 1.94,-1.51 3.86,-3.17 5.78,-4.91 0.96,-0.86 1.91,-1.68 2.91,-2.68 1.01,-0.98 1.88,-1.77 3.19,-3.21 q 3.62,5.15 7.23,10.29 c -1.72,1.88 -2.59,2.66 -3.73,3.77 -1.12,1.12 -2.12,1.99 -3.16,2.91 q -1.54,1.36 -3.08,2.73 -1.52,1.25 -3.05,2.49 c -4.06,3.4 -8.12,6.29 -12.18,9.27 -4.07,2.93 -8.18,5.51 -12.27,8.26 -4.12,2.61 -8.27,4.99 -12.4,7.49 -4.12,2.53 -8.34,4.56 -12.51,6.86 q -3.13,1.67 -6.27,3.35 -3.16,1.52 -6.33,3.04 -6.33,3.01 -12.66,6.03 -6.4,2.7 -12.79,5.4 -1.91,-6.38 -3.82,-12.77 z m 3.82,12.77 q 6.39,-2.7 12.79,-5.4 6.33,-3.02 12.66,-6.03 3.17,-1.52 6.33,-3.04 3.14,-1.68 6.27,-3.35 c 4.17,-2.3 8.39,-4.33 12.51,-6.86 4.13,-2.5 8.28,-4.88 12.4,-7.49 4.09,-2.75 8.2,-5.33 12.27,-8.26 4.06,-2.98 8.12,-5.87 12.18,-9.27 q 1.53,-1.24 3.05,-2.49 1.54,-1.37 3.08,-2.73 c 1.04,-0.92 2.04,-1.79 3.16,-2.91 1.14,-1.11 2.01,-1.89 3.73,-3.77 q 3.62,5.15 7.24,10.29 c -2.13,2.32 -3.01,3.09 -4.27,4.33 -1.26,1.24 -2.31,2.15 -3.41,3.14 q -1.65,1.45 -3.3,2.91 -1.59,1.31 -3.19,2.62 c -4.27,3.57 -8.48,6.57 -12.7,9.66 -4.22,3.05 -8.44,5.69 -12.67,8.54 -4.23,2.67 -8.48,5.12 -12.73,7.68 -4.24,2.6 -8.53,4.67 -12.8,7.03 q -3.21,1.71 -6.41,3.42 -3.23,1.56 -6.46,3.1 -6.46,3.08 -12.92,6.15 -6.49,2.75 -13,5.49 -1.91,-6.38 -3.81,-12.76 z m 3.81,12.76 q 6.51,-2.74 13,-5.49 6.46,-3.07 12.92,-6.15 3.23,-1.54 6.46,-3.1 3.2,-1.71 6.41,-3.42 c 4.27,-2.36 8.56,-4.43 12.8,-7.03 4.25,-2.56 8.5,-5.01 12.73,-7.68 4.23,-2.85 8.45,-5.49 12.67,-8.54 4.22,-3.09 8.43,-6.09 12.7,-9.66 q 1.6,-1.31 3.19,-2.62 1.65,-1.46 3.3,-2.91 c 1.1,-0.99 2.15,-1.9 3.41,-3.14 1.26,-1.24 2.14,-2.01 4.27,-4.33 q 3.61,5.15 7.23,10.3 c -2.53,2.75 -3.42,3.5 -4.81,4.88 -1.38,1.37 -2.49,2.33 -3.66,3.36 q -1.74,1.56 -3.49,3.1 -1.68,1.38 -3.35,2.74 c -4.49,3.76 -8.83,6.86 -13.22,10.07 -4.38,3.15 -8.7,5.87 -13.07,8.8 -4.35,2.75 -8.7,5.26 -13.06,7.89 -4.36,2.66 -8.73,4.78 -13.1,7.18 q -3.27,1.75 -6.55,3.5 -3.29,1.59 -6.58,3.17 -6.58,3.13 -13.16,6.26 -6.62,2.79 -13.22,5.59 -1.91,-6.39 -3.82,-12.77 z m 3.82,12.77 q 6.6,-2.8 13.22,-5.59 6.58,-3.13 13.16,-6.26 3.29,-1.58 6.58,-3.17 3.28,-1.75 6.55,-3.5 c 4.37,-2.4 8.74,-4.52 13.1,-7.18 4.36,-2.63 8.71,-5.14 13.06,-7.89 4.37,-2.93 8.69,-5.65 13.07,-8.8 4.39,-3.21 8.73,-6.31 13.22,-10.07 q 1.67,-1.36 3.35,-2.74 1.75,-1.54 3.49,-3.1 c 1.17,-1.03 2.28,-1.99 3.66,-3.36 1.39,-1.38 2.28,-2.13 4.81,-4.88 q 3.62,5.14 7.23,10.28 c -2.93,3.2 -3.83,3.95 -5.34,5.45 -1.52,1.49 -2.67,2.49 -3.91,3.6 q -1.85,1.64 -3.7,3.27 -1.75,1.44 -3.5,2.87 c -4.71,3.93 -9.19,7.13 -13.74,10.46 -4.52,3.26 -8.97,6.05 -13.47,9.07 -4.47,2.83 -8.92,5.4 -13.39,8.09 -4.47,2.74 -8.93,4.89 -13.39,7.35 q -3.35,1.79 -6.7,3.58 -3.35,1.61 -6.7,3.22 -6.71,3.19 -13.41,6.37 -6.72,2.84 -13.44,5.69 -1.91,-6.38 -3.81,-12.76 z"
           style="mix-blend-mode:multiply;fill:url(#g12)" />
        <path
           id="path242"
           class="s19"
           d="m -44.69,402.2 q -0.11,-0.06 -0.22,-0.11 -0.06,-0.03 -0.12,-0.05 0.11,0.05 0.22,0.09 0.46,0.18 0.91,0.36 0.45,0.19 0.9,0.38 0.6,0.22 1.19,0.43 c 1.61,0.58 3.08,1.19 4.91,1.76 q 2.63,0.88 5.26,1.75 2.78,0.82 5.55,1.63 c 3.65,1.15 7.55,2.07 11.38,3.07 3.79,1.04 7.75,1.86 11.69,2.72 7.8,1.87 15.93,3.09 23.91,4.63 8.14,1.1 16.2,2.54 24.42,3.39 q -0.21,7.32 -0.43,14.64 c -8.35,-0.85 -16.55,-2.32 -24.83,-3.43 -8.15,-1.57 -16.41,-2.82 -24.41,-4.73 -4.02,-0.88 -8.07,-1.72 -11.99,-2.79 -3.93,-1.03 -7.93,-1.97 -11.72,-3.17 q -2.88,-0.84 -5.75,-1.68 -2.76,-0.92 -5.52,-1.84 c -1.89,-0.59 -3.5,-1.25 -5.22,-1.87 q -0.64,-0.23 -1.28,-0.47 -0.52,-0.22 -1.04,-0.44 -0.53,-0.21 -1.05,-0.42 -0.13,-0.06 -0.26,-0.1 0,0 0,0 0.01,0 0.01,0.01 1.75,-6.88 3.49,-13.76 z m -3.49,13.76 q 0,-0.01 -0.01,-0.01 0,0 0,0 0.13,0.04 0.26,0.1 0.52,0.21 1.05,0.42 0.52,0.22 1.04,0.44 0.64,0.24 1.28,0.47 c 1.72,0.62 3.33,1.28 5.22,1.87 q 2.76,0.92 5.52,1.84 2.87,0.84 5.75,1.68 c 3.79,1.2 7.79,2.14 11.72,3.17 3.92,1.07 7.97,1.91 11.99,2.79 8,1.91 16.26,3.16 24.41,4.73 8.28,1.11 16.48,2.58 24.83,3.43 q -0.22,7.33 -0.43,14.66 c -8.47,-0.87 -16.83,-2.36 -25.24,-3.5 -8.31,-1.59 -16.72,-2.87 -24.91,-4.82 -4.11,-0.91 -8.25,-1.76 -12.28,-2.87 -4.04,-1.05 -8.14,-2.02 -12.07,-3.25 q -2.98,-0.88 -5.95,-1.75 -2.88,-0.96 -5.77,-1.92 c -1.96,-0.62 -3.71,-1.33 -5.54,-1.99 q -0.69,-0.25 -1.36,-0.5 -0.6,-0.25 -1.2,-0.49 -0.9,-0.37 -1.79,-0.73 1.74,-6.89 3.48,-13.77 z m -3.48,13.77 q 0.89,0.36 1.79,0.73 0.6,0.24 1.2,0.49 0.67,0.25 1.36,0.5 c 1.83,0.66 3.58,1.37 5.54,1.99 q 2.89,0.96 5.77,1.92 2.97,0.87 5.95,1.75 c 3.93,1.23 8.03,2.2 12.07,3.25 4.03,1.11 8.17,1.96 12.28,2.87 8.19,1.95 16.6,3.23 24.91,4.82 8.41,1.14 16.77,2.63 25.24,3.5 q -0.22,7.32 -0.44,14.65 c -8.59,-0.88 -17.1,-2.4 -25.65,-3.56 -8.47,-1.62 -17.01,-2.92 -25.4,-4.91 -4.21,-0.93 -8.43,-1.8 -12.57,-2.94 -4.16,-1.08 -8.35,-2.08 -12.42,-3.35 q -3.08,-0.9 -6.15,-1.8 -3.01,-1.01 -6.02,-2.01 c -2.04,-0.64 -3.92,-1.4 -5.86,-2.11 q -1.49,-0.53 -2.8,-1.08 -1.14,-0.48 -2.28,-0.95 1.74,-6.88 3.48,-13.76 z m -3.48,13.76 q 1.14,0.47 2.28,0.95 1.31,0.55 2.8,1.08 c 1.94,0.71 3.82,1.47 5.86,2.11 q 3.01,1 6.02,2.01 3.07,0.9 6.15,1.8 c 4.07,1.27 8.26,2.27 12.42,3.35 4.14,1.14 8.36,2.01 12.57,2.94 8.39,1.99 16.93,3.29 25.4,4.91 8.55,1.16 17.06,2.68 25.65,3.56 q -0.22,7.33 -0.44,14.65 c -8.7,-0.9 -17.36,-2.43 -26.05,-3.62 -8.63,-1.64 -17.31,-2.97 -25.89,-5 -4.3,-0.95 -8.61,-1.85 -12.87,-3.01 -4.27,-1.1 -8.56,-2.13 -12.77,-3.44 q -3.18,-0.94 -6.35,-1.87 -3.13,-1.04 -6.27,-2.09 c -4.1,-1.38 -8.44,-3.02 -12,-4.57 q 1.74,-6.88 3.49,-13.76 z m -3.49,13.76 c 3.56,1.55 7.9,3.19 12,4.57 q 3.14,1.05 6.27,2.09 3.17,0.93 6.35,1.87 c 4.21,1.31 8.5,2.34 12.77,3.44 4.26,1.16 8.57,2.06 12.87,3.01 8.58,2.03 17.26,3.36 25.89,5 8.69,1.19 17.35,2.72 26.05,3.62 q -0.21,7.33 -0.43,14.65 c -8.83,-0.91 -17.64,-2.46 -26.46,-3.67 -8.8,-1.67 -17.62,-3.03 -26.39,-5.11 -4.4,-0.96 -8.79,-1.88 -13.17,-3.07 -4.37,-1.13 -8.76,-2.18 -13.11,-3.54 q -3.28,-0.96 -6.55,-1.93 -3.26,-1.08 -6.52,-2.17 c -4.37,-1.48 -8.64,-3.06 -13.05,-4.99 q 1.74,-6.89 3.48,-13.77 z m 103.94,-35 c 32.79,3.86 66.19,5.18 99.68,4.85 q 0.39,7.35 0.79,14.71 c -33.83,0.34 -67.62,-0.99 -100.9,-4.92 q 0.22,-7.32 0.43,-14.64 z m -0.43,14.64 c 33.28,3.93 67.07,5.26 100.9,4.92 q 0.4,7.35 0.8,14.72 c -34.18,0.35 -68.35,-1 -102.13,-4.98 q 0.21,-7.33 0.43,-14.66 z m -0.43,14.66 c 33.78,3.98 67.95,5.33 102.13,4.98 q 0.4,7.35 0.79,14.71 c -34.51,0.35 -69.07,-1 -103.36,-5.04 q 0.22,-7.33 0.44,-14.65 z m -0.44,14.65 c 34.29,4.04 68.85,5.39 103.36,5.04 q 0.4,7.36 0.8,14.72 c -34.86,0.35 -69.8,-1.01 -104.6,-5.11 q 0.22,-7.32 0.44,-14.65 z m -0.44,14.65 c 34.8,4.1 69.74,5.46 104.6,5.11 q 0.39,7.36 0.79,14.72 c -35.21,0.36 -70.53,-1.02 -105.82,-5.18 q 0.22,-7.32 0.43,-14.65 z M 144.99,427.1 c 16.78,-0.6 33.54,-0.84 50.35,-2.22 16.8,-0.87 33.61,-2.78 50.42,-4.45 q 0.83,7.33 1.67,14.66 c -16.94,1.68 -33.88,3.61 -50.82,4.49 -16.96,1.39 -33.89,1.64 -50.83,2.23 q -0.4,-7.36 -0.79,-14.71 z m 0.79,14.71 c 16.94,-0.59 33.87,-0.84 50.83,-2.23 16.94,-0.88 33.88,-2.81 50.82,-4.49 q 0.84,7.33 1.68,14.65 c -17.08,1.71 -34.14,3.64 -51.25,4.53 -17.08,1.41 -34.19,1.66 -51.28,2.26 q -0.4,-7.37 -0.8,-14.72 z m 0.8,14.72 c 17.09,-0.6 34.2,-0.85 51.28,-2.26 17.11,-0.89 34.17,-2.82 51.25,-4.53 q 0.83,7.34 1.67,14.67 c -17.21,1.72 -34.4,3.66 -51.65,4.56 -17.24,1.41 -34.51,1.67 -51.76,2.27 q -0.39,-7.36 -0.79,-14.71 z m 0.79,14.71 c 17.25,-0.6 34.52,-0.86 51.76,-2.27 17.25,-0.9 34.44,-2.84 51.65,-4.56 q 0.84,7.33 1.67,14.66 c -17.34,1.73 -34.66,3.69 -52.06,4.6 -17.37,1.42 -34.81,1.69 -52.22,2.29 q -0.4,-7.36 -0.8,-14.72 z m 0.8,14.72 c 17.41,-0.6 34.85,-0.87 52.22,-2.29 17.4,-0.91 34.72,-2.87 52.06,-4.6 q 0.84,7.33 1.67,14.66 c -17.46,1.75 -34.92,3.72 -52.47,4.64 -17.51,1.43 -35.12,1.7 -52.69,2.31 q -0.4,-7.36 -0.79,-14.72 z m 97.59,-65.53 q 3.15,-0.32 6.3,-0.64 3.12,-0.42 6.23,-0.85 6.24,-0.86 12.47,-1.72 6.23,-0.85 12.46,-1.71 c 4.16,-0.53 8.31,-1.13 12.4,-1.93 q 12.32,-2.2 24.64,-4.41 c 8.22,-1.44 16.23,-3.52 24.36,-5.24 q 1.35,7.24 2.69,14.49 c -8.22,1.74 -16.34,3.83 -24.65,5.3 q -12.45,2.23 -24.9,4.46 c -4.14,0.8 -8.32,1.41 -12.52,1.95 q -6.3,0.86 -12.58,1.73 -6.3,0.86 -12.58,1.73 -3.15,0.43 -6.3,0.86 -3.17,0.32 -6.35,0.64 -0.84,-7.33 -1.67,-14.66 z m 1.67,14.66 q 3.18,-0.32 6.35,-0.64 3.15,-0.43 6.3,-0.86 6.28,-0.87 12.58,-1.73 6.28,-0.87 12.58,-1.73 c 4.2,-0.54 8.38,-1.15 12.52,-1.95 q 12.45,-2.23 24.9,-4.46 c 8.31,-1.47 16.43,-3.56 24.65,-5.3 q 1.35,7.24 2.7,14.48 c -8.32,1.77 -16.55,3.89 -24.95,5.37 q -12.58,2.25 -25.16,4.5 c -4.18,0.82 -8.41,1.42 -12.65,1.97 q -6.35,0.88 -12.7,1.75 -6.35,0.87 -12.69,1.75 -3.18,0.43 -6.35,0.86 -3.21,0.32 -6.4,0.64 -0.84,-7.32 -1.68,-14.65 z m 1.68,14.65 q 3.19,-0.32 6.4,-0.64 3.17,-0.43 6.35,-0.86 6.34,-0.88 12.69,-1.75 6.35,-0.87 12.7,-1.75 c 4.24,-0.55 8.47,-1.15 12.65,-1.97 q 12.58,-2.25 25.16,-4.5 c 8.4,-1.48 16.63,-3.6 24.95,-5.37 q 1.34,7.25 2.69,14.49 c -8.42,1.79 -16.75,3.93 -25.23,5.43 q -12.72,2.27 -25.43,4.55 c -4.22,0.82 -8.49,1.43 -12.77,1.99 q -6.41,0.88 -12.82,1.76 -6.4,0.88 -12.81,1.76 -3.21,0.44 -6.41,0.88 -3.23,0.32 -6.45,0.65 -0.84,-7.33 -1.67,-14.67 z m 1.67,14.67 q 3.22,-0.33 6.45,-0.65 3.2,-0.44 6.41,-0.88 6.41,-0.88 12.81,-1.76 6.41,-0.88 12.82,-1.76 c 4.28,-0.56 8.55,-1.17 12.77,-1.99 q 12.71,-2.28 25.43,-4.55 c 8.48,-1.5 16.81,-3.64 25.23,-5.43 q 1.35,7.24 2.69,14.49 c -8.51,1.81 -16.95,3.97 -25.52,5.48 q -12.85,2.31 -25.69,4.6 c -4.28,0.84 -8.58,1.45 -12.9,2.02 q -6.46,0.88 -12.93,1.78 -6.47,0.88 -12.93,1.77 -3.23,0.45 -6.47,0.88 -3.25,0.33 -6.5,0.66 -0.83,-7.33 -1.67,-14.66 z m 1.67,14.66 q 3.25,-0.33 6.5,-0.66 3.24,-0.43 6.47,-0.88 6.46,-0.89 12.93,-1.77 6.47,-0.9 12.93,-1.78 c 4.32,-0.57 8.62,-1.18 12.9,-2.02 q 12.84,-2.29 25.69,-4.6 c 8.57,-1.51 17.01,-3.67 25.52,-5.48 q 1.35,7.24 2.7,14.49 c -8.61,1.83 -17.16,4.02 -25.82,5.55 q -12.97,2.32 -25.95,4.64 c -4.32,0.84 -8.66,1.47 -13.02,2.03 q -6.52,0.9 -13.05,1.8 -6.52,0.9 -13.05,1.79 -3.26,0.45 -6.52,0.89 -3.28,0.33 -6.56,0.66 -0.83,-7.33 -1.67,-14.66 z m 92.17,-75.14 c 32.29,-7.43 63.98,-16.83 93.83,-29.26 q 2.1,7.01 4.19,14.01 c -30.48,12.68 -62.63,22.22 -95.33,29.74 q -1.34,-7.25 -2.69,-14.49 z m 2.69,14.49 c 32.7,-7.52 64.85,-17.06 95.33,-29.74 q 2.09,7 4.18,14.01 c -31.1,12.94 -63.71,22.6 -96.81,30.21 q -1.35,-7.24 -2.7,-14.48 z m 2.7,14.48 c 33.1,-7.61 65.71,-17.27 96.81,-30.21 q 2.09,7 4.19,14 c -31.74,13.21 -64.81,22.99 -98.31,30.7 q -1.35,-7.24 -2.69,-14.49 z m 2.69,14.49 c 33.5,-7.71 66.57,-17.49 98.31,-30.7 q 2.09,7.01 4.19,14.01 c -32.38,13.47 -65.9,23.38 -99.81,31.18 q -1.34,-7.25 -2.69,-14.49 z m 2.69,14.49 c 33.91,-7.8 67.43,-17.71 99.81,-31.18 q 2.08,7.01 4.18,14.01 c -32.99,13.72 -66.98,23.76 -101.29,31.66 q -1.35,-7.25 -2.7,-14.49 z m 83.06,-87.21 q 5.58,-2.34 11.16,-4.7 5.41,-2.57 10.82,-5.15 2.7,-1.29 5.39,-2.58 2.61,-1.4 5.21,-2.8 c 3.42,-1.9 7.05,-3.61 10.31,-5.65 3.29,-2 6.68,-3.93 9.9,-5.96 3.07,-2.1 6.35,-4.12 9.27,-6.24 2.88,-2.13 5.89,-4.24 8.32,-6.32 q 0.95,-0.76 1.9,-1.53 0.78,-0.7 1.56,-1.39 c 0.52,-0.46 1.14,-0.97 1.3,-1.17 0.18,-0.16 1,-1.02 -0.31,0.41 q 3.97,5.65 7.94,11.3 c 0.87,-0.95 0.03,-0.1 -0.29,0.2 -0.3,0.32 -0.97,0.9 -1.56,1.42 q -0.89,0.79 -1.79,1.58 -1.03,0.84 -2.07,1.68 c -2.66,2.27 -5.83,4.5 -8.88,6.75 -3.09,2.24 -6.49,4.34 -9.71,6.55 -3.35,2.1 -6.86,4.1 -10.27,6.18 -3.38,2.11 -7.1,3.86 -10.63,5.82 q -2.68,1.44 -5.36,2.88 -2.77,1.32 -5.54,2.64 -5.54,2.65 -11.09,5.29 -5.7,2.4 -11.39,4.8 -2.09,-7 -4.19,-14.01 z m 4.19,14.01 q 5.69,-2.4 11.39,-4.8 5.55,-2.64 11.09,-5.29 2.77,-1.32 5.54,-2.64 2.68,-1.44 5.36,-2.88 c 3.53,-1.96 7.25,-3.71 10.63,-5.82 3.41,-2.08 6.92,-4.08 10.27,-6.18 3.22,-2.21 6.62,-4.31 9.71,-6.55 3.05,-2.25 6.22,-4.48 8.88,-6.75 q 1.04,-0.84 2.07,-1.68 0.9,-0.79 1.79,-1.58 c 0.59,-0.52 1.26,-1.1 1.56,-1.42 0.32,-0.3 1.16,-1.15 0.29,-0.2 q 3.97,5.64 7.94,11.29 c 0.42,-0.46 -0.42,0.37 -0.88,0.81 -0.44,0.47 -1.17,1.09 -1.84,1.68 q -1,0.89 -2.01,1.79 -1.12,0.9 -2.23,1.81 c -2.92,2.46 -6.23,4.8 -9.45,7.18 -3.27,2.36 -6.79,4.54 -10.16,6.84 -3.48,2.19 -7.09,4.26 -10.63,6.41 -3.51,2.18 -7.32,3.98 -10.96,6 q -2.75,1.48 -5.51,2.96 -2.83,1.36 -5.67,2.72 -5.68,2.69 -11.36,5.41 -5.82,2.44 -11.64,4.9 -2.09,-7.01 -4.18,-14.01 z m 4.18,14.01 q 5.82,-2.46 11.64,-4.9 5.68,-2.72 11.36,-5.41 2.84,-1.36 5.67,-2.72 2.76,-1.48 5.51,-2.96 c 3.64,-2.02 7.45,-3.82 10.96,-6 3.54,-2.15 7.15,-4.22 10.63,-6.41 3.37,-2.3 6.89,-4.48 10.16,-6.84 3.22,-2.38 6.53,-4.72 9.45,-7.18 q 1.11,-0.91 2.23,-1.81 1.01,-0.9 2.01,-1.79 c 0.67,-0.59 1.4,-1.21 1.84,-1.68 0.46,-0.44 1.3,-1.27 0.88,-0.81 q 3.97,5.65 7.94,11.29 -0.74,0.72 -1.47,1.43 c -0.59,0.6 -1.37,1.27 -2.11,1.93 -1.47,1.33 -2.98,2.64 -4.64,3.94 -3.15,2.65 -6.62,5.11 -10.02,7.61 -3.43,2.48 -7.07,4.75 -10.59,7.13 -3.61,2.29 -7.34,4.41 -10.99,6.64 -3.65,2.25 -7.53,4.1 -11.29,6.17 q -2.83,1.53 -5.67,3.05 -2.9,1.39 -5.81,2.78 -5.82,2.77 -11.63,5.54 -5.94,2.5 -11.87,5 -2.1,-7 -4.19,-14 z m 4.19,14 q 5.93,-2.5 11.87,-5 5.81,-2.77 11.63,-5.54 2.91,-1.39 5.81,-2.78 2.84,-1.52 5.67,-3.05 c 3.76,-2.07 7.64,-3.92 11.29,-6.17 3.65,-2.23 7.38,-4.35 10.99,-6.64 3.52,-2.38 7.16,-4.65 10.59,-7.13 3.4,-2.5 6.87,-4.96 10.02,-7.61 1.66,-1.3 3.17,-2.61 4.64,-3.94 0.74,-0.66 1.52,-1.33 2.11,-1.93 q 0.73,-0.71 1.47,-1.43 3.97,5.65 7.94,11.3 c -0.46,0.51 -1.33,1.32 -2.07,2.03 -0.72,0.75 -1.56,1.47 -2.38,2.19 -1.62,1.47 -3.27,2.91 -5.03,4.27 -3.38,2.86 -7.01,5.42 -10.58,8.05 -3.6,2.6 -7.36,4.95 -11.03,7.43 -3.75,2.37 -7.59,4.56 -11.37,6.86 -3.76,2.33 -7.74,4.22 -11.6,6.36 q -2.91,1.56 -5.83,3.12 -2.97,1.42 -5.94,2.85 -5.95,2.83 -11.91,5.66 -6.05,2.56 -12.1,5.11 -2.1,-7 -4.19,-14.01 z m 4.19,14.01 q 6.05,-2.55 12.1,-5.11 5.96,-2.83 11.91,-5.66 2.97,-1.43 5.94,-2.85 2.92,-1.56 5.83,-3.12 c 3.86,-2.14 7.84,-4.03 11.6,-6.36 3.78,-2.3 7.62,-4.49 11.37,-6.86 3.67,-2.48 7.43,-4.83 11.03,-7.43 3.57,-2.63 7.2,-5.19 10.58,-8.05 1.76,-1.36 3.41,-2.8 5.03,-4.27 0.82,-0.72 1.66,-1.44 2.38,-2.19 0.74,-0.71 1.61,-1.52 2.07,-2.03 q 3.97,5.65 7.94,11.3 c -7.01,7.11 -14.32,12.72 -21.88,18.18 -3.77,2.71 -7.65,5.14 -11.48,7.72 -3.87,2.45 -7.82,4.71 -11.73,7.08 -3.89,2.4 -7.95,4.34 -11.92,6.53 q -2.99,1.6 -5.98,3.21 -3.04,1.46 -6.08,2.91 -6.09,2.9 -12.18,5.8 -6.17,2.6 -12.35,5.21 -2.1,-7 -4.18,-14.01 z"
           style="mix-blend-mode:color-dodge;fill:url(#g13)" />
      </g>
    </g>
  </g>
</svg>
