<?xml version="1.0" encoding="UTF-8" standalone="no"?>
<!-- Created with Inkscape (http://www.inkscape.org/) -->

<svg
   width="2000mm"
   height="478mm"
   viewBox="0 0 2000 478"
   version="1.1"
   id="svg841"
   inkscape:version="1.2.2 (b0a8486541, 2022-12-01)"
   sodipodi:docname="Piedepagina-006.svg"
   xmlns:inkscape="http://www.inkscape.org/namespaces/inkscape"
   xmlns:sodipodi="http://sodipodi.sourceforge.net/DTD/sodipodi-0.dtd"
   xmlns="http://www.w3.org/2000/svg"
   xmlns:svg="http://www.w3.org/2000/svg">
  <sodipodi:namedview
     id="namedview843"
     pagecolor="#505050"
     bordercolor="#ffffff"
     borderopacity="1"
     inkscape:showpageshadow="0"
     inkscape:pageopacity="0"
     inkscape:pagecheckerboard="1"
     inkscape:deskcolor="#505050"
     inkscape:document-units="mm"
     showgrid="false"
     inkscape:zoom="0.1236234"
     inkscape:cx="2475.2594"
     inkscape:cy="-732.06202"
     inkscape:window-width="1920"
     inkscape:window-height="1043"
     inkscape:window-x="0"
     inkscape:window-y="0"
     inkscape:window-maximized="1"
     inkscape:current-layer="layer1" />
  <defs
     id="defs838">
    <linearGradient
       id="g11"
       x2="1"
       gradientUnits="userSpaceOnUse"
       gradientTransform="matrix(-168.81369,732.86716,-1847.4905,-328.99653,1197.645,-49.045812)">
      <stop
         offset="0"
         stop-color="#ffffff"
         id="stop58" />
      <stop
         offset="1"
         stop-color="#d5d5d5"
         id="stop60" />
    </linearGradient>
    <clipPath
       clipPathUnits="userSpaceOnUse"
       id="cp3">
      <path
         d="M 541.5,523.86 H 34.5 V 385.12 h 507 z"
         id="path63" />
    </clipPath>
    <linearGradient
       id="g12"
       x2="1"
       gradientUnits="userSpaceOnUse"
       gradientTransform="matrix(319.414,10.18,-2.963,92.987,-65.289,483.375)">
      <stop
         offset="0"
         stop-color="#ffffff"
         id="stop66" />
      <stop
         offset="1"
         stop-color="#325267"
         id="stop68" />
    </linearGradient>
    <linearGradient
       id="g13"
       x2="1"
       gradientUnits="userSpaceOnUse"
       gradientTransform="matrix(297.207,91.037,-48.741,159.124,-43.887,402.428)">
      <stop
         offset="0"
         stop-color="#000000"
         id="stop71" />
      <stop
         offset="1"
         stop-color="#696a6b"
         id="stop73" />
    </linearGradient>
  </defs>
  <g
     inkscape:label="Capa 1"
     inkscape:groupmode="layer"
     id="layer1">
    <g
       id="g4448"
       transform="matrix(16.753987,0,0,22.604496,-676.55767,-3356.0655)">
      <path
         id="path4432"
         class="s16"
         d="m 160.2,169.87 v -5.69 c -34.58,2.61 -66.36,0.35 -88.06,-4.07 C 56.2,156.92 45.5,152.61 40,148.2 v 21.67 z"
         style="fill:#cd257c" />
      <g
         id="g4438"
         style="opacity:0.5">
        <path
           id="path4434"
           class="s17"
           d="m 160.2,169.87 v -0.98 q -4.17,0.56 -9.39,0.98 z"
           style="fill:#71bb9f" />
        <path
           id="path4436"
           class="s17"
           d="M 108.63,169.87 C 97.48,169.09 85.6,167.65 73.87,165.27 60.51,162.55 47.38,158.52 40,153.42 v 16.45 z"
           style="fill:#71bb9f" />
      </g>
      <g
         id="g4442"
         style="mix-blend-mode:multiply">
        <path
           id="path4440"
           class="s18"
           d="m 104.34,168.65 c 26.66,-0.8 42.23,-1.97 55.86,-2.26 v -2.21 c -34.58,2.61 -66.36,0.35 -88.06,-4.07 C 56.2,156.92 45.5,152.61 40,148.2 v 18.03 c 24.74,2.78 47.05,2.68 64.34,2.42 z"
           style="fill:#3c5a8b" />
      </g>
      <g
         id="g4446"
         style="opacity:0.4;mix-blend-mode:overlay">
        <path
           id="path4444"
           class="s19"
           d="m 71.83,169.87 h 48.18 c 16.25,-0.68 28.7,-1.51 40.19,-1.42 v -4.31 c -6.11,0.54 -14.02,1.11 -24.41,1.25 -15.98,0.21 -38.09,-0.64 -60.16,-4.7 C 61.27,158.03 46.95,153.91 40,148.45 v 18.32 q 4.41,0.65 8.75,1.16 c 7.97,0.93 15.7,1.54 23.08,1.94 z"
           style="fill:#5da997" />
      </g>
    </g>
  </g>
</svg>
