<?xml version="1.0" encoding="UTF-8" standalone="no"?>
<!-- Created with Inkscape (http://www.inkscape.org/) -->

<svg
   width="2000mm"
   height="478mm"
   viewBox="0 0 2000 478"
   version="1.1"
   id="svg841"
   inkscape:version="1.2.2 (b0a8486541, 2022-12-01)"
   sodipodi:docname="Piedepagina-005.svg"
   xmlns:inkscape="http://www.inkscape.org/namespaces/inkscape"
   xmlns:sodipodi="http://sodipodi.sourceforge.net/DTD/sodipodi-0.dtd"
   xmlns="http://www.w3.org/2000/svg"
   xmlns:svg="http://www.w3.org/2000/svg">
  <sodipodi:namedview
     id="namedview843"
     pagecolor="#505050"
     bordercolor="#ffffff"
     borderopacity="1"
     inkscape:showpageshadow="0"
     inkscape:pageopacity="0"
     inkscape:pagecheckerboard="1"
     inkscape:deskcolor="#505050"
     inkscape:document-units="mm"
     showgrid="false"
     inkscape:zoom="0.043707474"
     inkscape:cx="3752.2187"
     inkscape:cy="1269.8057"
     inkscape:window-width="1920"
     inkscape:window-height="1043"
     inkscape:window-x="0"
     inkscape:window-y="0"
     inkscape:window-maximized="1"
     inkscape:current-layer="layer1" />
  <defs
     id="defs838">
    <linearGradient
       id="g11"
       x2="1"
       gradientUnits="userSpaceOnUse"
       gradientTransform="matrix(-168.81369,732.86716,-1847.4905,-328.99653,1197.645,-49.045812)">
      <stop
         offset="0"
         stop-color="#ffffff"
         id="stop58" />
      <stop
         offset="1"
         stop-color="#d5d5d5"
         id="stop60" />
    </linearGradient>
    <clipPath
       clipPathUnits="userSpaceOnUse"
       id="cp3">
      <path
         d="M 541.5,523.86 H 34.5 V 385.12 h 507 z"
         id="path63" />
    </clipPath>
    <linearGradient
       id="g12"
       x2="1"
       gradientUnits="userSpaceOnUse"
       gradientTransform="matrix(319.414,10.18,-2.963,92.987,-65.289,483.375)">
      <stop
         offset="0"
         stop-color="#ffffff"
         id="stop66" />
      <stop
         offset="1"
         stop-color="#325267"
         id="stop68" />
    </linearGradient>
    <linearGradient
       id="g13"
       x2="1"
       gradientUnits="userSpaceOnUse"
       gradientTransform="matrix(297.207,91.037,-48.741,159.124,-43.887,402.428)">
      <stop
         offset="0"
         stop-color="#000000"
         id="stop71" />
      <stop
         offset="1"
         stop-color="#696a6b"
         id="stop73" />
    </linearGradient>
    <linearGradient
       id="g5"
       x2="1"
       gradientUnits="userSpaceOnUse"
       gradientTransform="matrix(-168.55157,730.48414,-1844.6219,-327.92675,1196.43,-48.165392)">
      <stop
         offset="0"
         stop-color="#ffffff"
         id="stop22" />
      <stop
         offset="1"
         stop-color="#d5d5d5"
         id="stop24" />
    </linearGradient>
    <clipPath
       clipPathUnits="userSpaceOnUse"
       id="cp1">
      <path
         d="M 541.5,190.88 H 34.5 V 52.15 h 507 z"
         id="path27" />
    </clipPath>
    <linearGradient
       id="g6"
       x2="1"
       gradientUnits="userSpaceOnUse"
       gradientTransform="matrix(319.414,10.18,-2.964,92.988,-65.289,150.398)">
      <stop
         offset="0"
         stop-color="#ffffff"
         id="stop30" />
      <stop
         offset="1"
         stop-color="#325267"
         id="stop32" />
    </linearGradient>
    <linearGradient
       id="g7"
       x2="1"
       gradientUnits="userSpaceOnUse"
       gradientTransform="matrix(297.207,91.038,-48.742,159.124,-43.887,69.451)">
      <stop
         offset="0"
         stop-color="#000000"
         id="stop35" />
      <stop
         offset="1"
         stop-color="#696a6b"
         id="stop37" />
    </linearGradient>
  </defs>
  <g
     inkscape:label="Capa 1"
     inkscape:groupmode="layer"
     id="layer1">
    <g
       id="&lt;Clip Group&gt;"
       clip-path="url(#cp1)"
       transform="matrix(3.9503966,0,0,3.4674825,-138.25888,-181.38607)">
      <path
         id="path106"
         class="s6"
         d="m 586.57,115.37 c -147,50 -376.65,78.43 -585.32,-4.33 v 117.33 h 560 c 0,0 34.3,-116.06 25.32,-113 z"
         style="fill:#2c303d" />
      <path
         id="path108"
         class="s7"
         d="m 551.85,94.69 c 0,0 -139.81,79.79 -405.78,56.68 0,0 221.27,47.22 407.38,-18.39 z"
         style="fill:#00bd55" />
      <g
         id="g114"
         style="opacity:0.5">
        <path
           id="path110"
           class="s8"
           d="m -62.11,138.04 c 4.41,1.93 8.68,3.51 13.05,5 q 3.26,1.08 6.52,2.17 3.27,0.96 6.55,1.93 c 4.35,1.36 8.74,2.4 13.11,3.54 4.38,1.19 8.77,2.11 13.17,3.07 8.77,2.08 17.59,3.43 26.39,5.1 8.82,1.21 17.63,2.76 26.46,3.68 q -0.2,6.67 -0.4,13.34 c -8.94,-0.92 -17.88,-2.49 -26.83,-3.72 -8.95,-1.7 -17.89,-3.08 -26.84,-5.19 -4.48,-0.98 -8.95,-1.92 -13.43,-3.14 -4.48,-1.16 -8.95,-2.23 -13.44,-3.62 q -3.36,-1 -6.73,-1.99 -3.37,-1.12 -6.75,-2.24 c -2.24,-0.71 -4.53,-1.62 -6.8,-2.44 q -1.69,-0.61 -3.46,-1.36 c -1.18,-0.48 -2.29,-0.92 -3.75,-1.6 q 1.59,-6.26 3.18,-12.53 z m -3.18,12.53 c 1.46,0.68 2.57,1.12 3.75,1.6 q 1.77,0.75 3.46,1.36 c 2.27,0.82 4.56,1.73 6.8,2.44 q 3.38,1.12 6.75,2.24 3.37,0.99 6.73,1.99 c 4.49,1.39 8.96,2.46 13.44,3.62 4.48,1.22 8.95,2.16 13.43,3.14 8.95,2.11 17.89,3.49 26.84,5.19 8.95,1.23 17.89,2.8 26.83,3.72 q -0.19,6.68 -0.39,13.35 c -9.05,-0.93 -18.14,-2.52 -27.2,-3.77 -9.1,-1.72 -18.17,-3.12 -27.3,-5.28 -4.56,-1.01 -9.11,-1.96 -13.7,-3.2 -4.58,-1.19 -9.14,-2.28 -13.76,-3.71 q -3.45,-1.02 -6.9,-2.05 -3.49,-1.15 -6.98,-2.31 c -2.31,-0.73 -4.73,-1.69 -7.1,-2.55 q -1.75,-0.63 -3.67,-1.44 c -1.26,-0.52 -2.41,-0.96 -4.2,-1.79 q 1.59,-6.28 3.17,-12.55 z m -3.17,12.55 c 1.79,0.83 2.94,1.27 4.2,1.79 q 1.92,0.81 3.67,1.44 c 2.37,0.86 4.79,1.82 7.1,2.55 q 3.49,1.16 6.98,2.31 3.45,1.03 6.9,2.05 c 4.62,1.43 9.18,2.52 13.76,3.71 4.59,1.24 9.14,2.19 13.7,3.2 9.13,2.16 18.2,3.56 27.3,5.28 9.06,1.25 18.15,2.84 27.2,3.77 q -0.2,6.68 -0.4,13.35 c -9.16,-0.95 -18.38,-2.56 -27.57,-3.83 -9.25,-1.74 -18.44,-3.17 -27.75,-5.36 -4.64,-1.02 -9.27,-1.99 -13.96,-3.27 -4.68,-1.21 -9.33,-2.33 -14.08,-3.79 q -3.54,-1.05 -7.08,-2.09 -3.61,-1.21 -7.22,-2.41 c -2.36,-0.75 -4.91,-1.74 -7.38,-2.65 q -0.93,-0.35 -1.87,-0.7 -1.01,-0.41 -2.02,-0.82 -1.01,-0.41 -2.02,-0.83 -1.32,-0.58 -2.64,-1.16 1.59,-6.27 3.18,-12.54 z m -3.18,12.54 q 1.32,0.58 2.64,1.16 1.01,0.42 2.02,0.83 1.01,0.41 2.02,0.82 0.94,0.35 1.87,0.7 c 2.47,0.91 5.02,1.9 7.38,2.65 q 3.61,1.2 7.22,2.41 3.54,1.04 7.08,2.09 c 4.75,1.46 9.4,2.58 14.08,3.79 4.69,1.28 9.32,2.25 13.96,3.27 9.31,2.19 18.5,3.62 27.75,5.36 9.19,1.27 18.41,2.88 27.57,3.83 q -0.2,6.68 -0.4,13.35 c -9.26,-0.96 -18.62,-2.59 -27.93,-3.88 -9.4,-1.77 -18.72,-3.22 -28.21,-5.45 -4.73,-1.04 -9.44,-2.03 -14.23,-3.33 -4.78,-1.24 -9.52,-2.38 -14.4,-3.88 q -3.63,-1.08 -7.26,-2.15 -3.72,-1.23 -7.45,-2.48 c -2.42,-0.77 -5.1,-1.81 -7.67,-2.76 q -0.97,-0.36 -1.95,-0.72 -1.07,-0.44 -2.15,-0.88 -1.08,-0.44 -2.15,-0.89 -1.48,-0.65 -2.96,-1.3 1.58,-6.27 3.17,-12.54 z m -3.17,12.54 q 1.48,0.65 2.96,1.3 1.07,0.45 2.15,0.89 1.08,0.44 2.15,0.88 0.98,0.36 1.95,0.72 c 2.57,0.95 5.25,1.99 7.67,2.76 q 3.73,1.25 7.45,2.48 3.63,1.07 7.26,2.15 c 4.88,1.5 9.62,2.64 14.4,3.88 4.79,1.3 9.5,2.29 14.23,3.33 9.49,2.23 18.81,3.68 28.21,5.45 9.31,1.29 18.67,2.92 27.93,3.88 q -0.2,6.68 -0.39,13.35 c -9.38,-0.97 -18.88,-2.62 -28.32,-3.93 -9.54,-1.8 -18.99,-3.27 -28.65,-5.54 -4.81,-1.06 -9.6,-2.07 -14.5,-3.39 -4.88,-1.27 -9.7,-2.43 -14.71,-3.98 q -3.72,-1.09 -7.45,-2.2 -3.84,-1.27 -7.67,-2.55 c -2.49,-0.79 -5.3,-1.88 -7.97,-2.86 q -1.01,-0.38 -2.02,-0.76 -1.15,-0.46 -2.29,-0.93 -1.14,-0.47 -2.28,-0.94 -0.74,-0.32 -1.48,-0.64 -0.9,-0.4 -1.81,-0.82 1.59,-6.27 3.18,-12.53 z M 43.14,162.53 c 35.29,4.16 70.61,5.53 105.82,5.17 q 0.37,6.71 0.73,13.41 c -35.52,0.36 -71.19,-1.02 -106.95,-5.24 q 0.2,-6.67 0.4,-13.34 z m -0.4,13.34 c 35.76,4.22 71.43,5.6 106.95,5.24 q 0.36,6.71 0.72,13.41 c -35.83,0.36 -71.86,-1.02 -108.06,-5.3 q 0.2,-6.67 0.39,-13.35 z m -0.39,13.35 c 36.2,4.28 72.23,5.66 108.06,5.3 q 0.36,6.7 0.73,13.41 C 114.99,208.3 78.62,206.9 41.95,202.57 q 0.2,-6.67 0.4,-13.35 z m -0.4,13.35 c 36.67,4.33 73.04,5.73 109.19,5.36 q 0.36,6.7 0.72,13.4 c -36.45,0.38 -73.18,-1.03 -110.31,-5.41 q 0.2,-6.67 0.4,-13.35 z m -0.4,13.35 c 37.13,4.38 73.86,5.79 110.31,5.41 q 0.36,6.71 0.72,13.42 c -36.77,0.37 -73.83,-1.04 -111.42,-5.48 q 0.19,-6.67 0.39,-13.35 z M 148.96,167.7 c 17.57,-0.6 35.18,-0.88 52.69,-2.31 17.55,-0.92 35.01,-2.89 52.48,-4.64 q 0.76,6.69 1.52,13.36 c -17.59,1.77 -35.16,3.74 -52.85,4.68 -17.64,1.43 -35.39,1.71 -53.11,2.32 q -0.36,-6.7 -0.73,-13.41 z m 0.73,13.41 c 17.72,-0.61 35.47,-0.89 53.11,-2.32 17.69,-0.94 35.26,-2.91 52.85,-4.68 q 0.76,6.68 1.52,13.36 c -17.71,1.78 -35.39,3.77 -53.22,4.71 -17.77,1.44 -35.68,1.73 -53.54,2.34 q -0.36,-6.7 -0.72,-13.41 z m 0.72,13.41 c 17.86,-0.61 35.77,-0.9 53.54,-2.34 17.83,-0.94 35.51,-2.93 53.22,-4.71 q 0.76,6.68 1.53,13.36 c -17.84,1.79 -35.63,3.79 -53.6,4.73 -17.89,1.46 -35.96,1.76 -53.96,2.37 q -0.37,-6.71 -0.73,-13.41 z m 0.73,13.41 c 18,-0.61 36.07,-0.91 53.96,-2.37 17.97,-0.94 35.76,-2.94 53.6,-4.73 q 0.76,6.68 1.52,13.36 c -17.95,1.8 -35.87,3.81 -53.97,4.77 -18.02,1.46 -36.24,1.76 -54.39,2.37 q -0.36,-6.7 -0.72,-13.4 z m 0.72,13.4 c 18.15,-0.61 36.37,-0.91 54.39,-2.37 18.1,-0.96 36.02,-2.97 53.97,-4.77 q 0.76,6.68 1.53,13.36 c -18.08,1.81 -36.11,3.84 -54.36,4.8 -18.14,1.47 -36.51,1.78 -54.81,2.4 q -0.36,-6.71 -0.72,-13.42 z m 102.27,-60.58 q 3.27,-0.32 6.55,-0.65 3.26,-0.45 6.52,-0.9 6.53,-0.89 13.05,-1.79 6.53,-0.9 13.05,-1.79 c 4.36,-0.57 8.7,-1.19 13.02,-2.03 q 12.98,-2.33 25.95,-4.65 c 8.66,-1.53 17.21,-3.72 25.82,-5.55 q 1.22,6.6 2.45,13.2 c -8.69,1.85 -17.34,4.06 -26.07,5.61 q -13.1,2.34 -26.2,4.69 c -4.36,0.84 -8.74,1.47 -13.13,2.04 q -6.58,0.91 -13.16,1.82 -6.58,0.9 -13.15,1.8 -3.3,0.45 -6.59,0.9 -3.29,0.33 -6.59,0.66 -0.76,-6.67 -1.52,-13.36 z m 1.52,13.36 q 3.3,-0.33 6.59,-0.66 3.29,-0.45 6.59,-0.9 6.57,-0.9 13.15,-1.8 6.58,-0.91 13.16,-1.82 c 4.39,-0.57 8.77,-1.2 13.13,-2.04 q 13.1,-2.35 26.2,-4.69 c 8.73,-1.55 17.38,-3.76 26.07,-5.61 q 1.23,6.6 2.46,13.2 c -8.79,1.87 -17.53,4.1 -26.34,5.66 q -13.22,2.37 -26.44,4.73 c -4.4,0.86 -8.82,1.49 -13.24,2.07 q -6.63,0.92 -13.27,1.83 -6.63,0.91 -13.26,1.82 -3.32,0.45 -6.64,0.9 -3.31,0.34 -6.64,0.67 -0.76,-6.68 -1.52,-13.36 z m 1.52,13.36 q 3.33,-0.33 6.64,-0.67 3.32,-0.45 6.64,-0.9 6.63,-0.91 13.26,-1.82 6.64,-0.91 13.27,-1.83 c 4.42,-0.58 8.84,-1.21 13.24,-2.07 q 13.22,-2.36 26.44,-4.73 c 8.81,-1.56 17.55,-3.79 26.34,-5.66 q 1.22,6.6 2.45,13.2 c -8.87,1.89 -17.71,4.14 -26.6,5.72 q -13.34,2.39 -26.68,4.78 c -4.44,0.86 -8.9,1.49 -13.36,2.08 q -6.68,0.92 -13.37,1.84 -6.68,0.92 -13.37,1.84 -3.35,0.45 -6.69,0.91 -3.34,0.33 -6.68,0.67 -0.77,-6.68 -1.53,-13.36 z m 1.53,13.36 q 3.34,-0.34 6.68,-0.67 3.34,-0.46 6.69,-0.91 6.69,-0.92 13.37,-1.84 6.69,-0.92 13.37,-1.84 c 4.46,-0.59 8.92,-1.22 13.36,-2.08 q 13.34,-2.39 26.68,-4.78 c 8.89,-1.58 17.73,-3.83 26.6,-5.72 q 1.22,6.6 2.46,13.2 c -8.96,1.91 -17.9,4.18 -26.87,5.77 q -13.46,2.41 -26.92,4.83 c -4.48,0.86 -8.98,1.5 -13.47,2.09 q -6.74,0.93 -13.48,1.86 -6.74,0.93 -13.48,1.85 -3.37,0.46 -6.74,0.92 -3.36,0.34 -6.73,0.68 -0.76,-6.68 -1.52,-13.36 z m 1.52,13.36 q 3.37,-0.34 6.73,-0.68 3.37,-0.46 6.74,-0.92 6.74,-0.92 13.48,-1.85 6.74,-0.93 13.48,-1.86 c 4.49,-0.59 8.99,-1.23 13.47,-2.09 q 13.46,-2.42 26.92,-4.83 c 8.97,-1.59 17.91,-3.86 26.87,-5.77 q 1.22,6.6 2.45,13.2 c -9.05,1.93 -18.08,4.22 -27.13,5.83 q -13.58,2.43 -27.16,4.86 c -4.52,0.88 -9.05,1.53 -13.58,2.12 q -6.8,0.94 -13.59,1.87 -6.79,0.94 -13.58,1.87 -3.4,0.46 -6.8,0.92 -3.39,0.34 -6.77,0.69 -0.77,-6.68 -1.53,-13.36 z m 97.87,-70.8 c 34.31,-7.9 68.3,-17.93 101.29,-31.65 q 1.91,6.38 3.81,12.76 c -33.56,13.95 -67.97,24.11 -102.65,32.09 q -1.23,-6.6 -2.45,-13.2 z m 2.45,13.2 c 34.68,-7.98 69.09,-18.14 102.65,-32.09 q 1.91,6.38 3.82,12.76 C 432.88,151.45 398.05,161.72 363,169.79 q -1.23,-6.6 -2.46,-13.2 z m 2.46,13.2 c 35.05,-8.07 69.88,-18.34 104.01,-32.53 q 1.9,6.38 3.81,12.77 c -34.71,14.42 -69.95,24.8 -105.37,32.96 q -1.23,-6.6 -2.45,-13.2 z m 2.45,13.2 c 35.42,-8.16 70.66,-18.54 105.37,-32.96 q 1.91,6.37 3.82,12.76 c -35.29,14.67 -70.95,25.16 -106.73,33.4 q -1.24,-6.6 -2.46,-13.2 z m 2.46,13.2 c 35.78,-8.24 71.44,-18.73 106.73,-33.4 q 1.9,6.38 3.81,12.76 c -35.85,14.9 -71.94,25.51 -108.09,33.84 q -1.23,-6.6 -2.45,-13.2 z m 91.47,-84.45 q 6.18,-2.61 12.35,-5.22 6.09,-2.9 12.18,-5.79 3.04,-1.46 6.08,-2.92 2.99,-1.6 5.98,-3.2 c 3.97,-2.2 8.03,-4.14 11.92,-6.54 3.91,-2.36 7.86,-4.62 11.73,-7.07 3.83,-2.59 7.71,-5.01 11.48,-7.73 7.56,-5.45 14.87,-11.06 21.88,-18.18 q 3.62,5.14 7.23,10.29 c -1.31,1.43 -2.18,2.22 -3.19,3.21 -1,0.99 -1.95,1.81 -2.91,2.67 -1.92,1.74 -3.84,3.4 -5.78,4.91 -3.84,3.23 -7.76,6.01 -11.66,8.88 -3.92,2.83 -7.92,5.33 -11.87,8 -4,2.52 -8.05,4.85 -12.06,7.27 -4.02,2.47 -8.15,4.46 -12.22,6.71 q -3.07,1.63 -6.13,3.27 -3.1,1.49 -6.2,2.98 -6.22,2.96 -12.43,5.91 -6.28,2.66 -12.57,5.31 -1.9,-6.38 -3.81,-12.76 z m 3.81,12.76 q 6.29,-2.65 12.57,-5.31 6.21,-2.95 12.43,-5.91 3.1,-1.49 6.2,-2.98 3.06,-1.64 6.13,-3.27 c 4.07,-2.25 8.2,-4.24 12.22,-6.71 4.01,-2.42 8.06,-4.75 12.06,-7.27 3.95,-2.67 7.95,-5.17 11.87,-8 3.9,-2.87 7.82,-5.65 11.66,-8.88 1.94,-1.51 3.86,-3.17 5.78,-4.91 0.96,-0.86 1.91,-1.68 2.91,-2.67 1.01,-0.99 1.88,-1.78 3.19,-3.21 q 3.62,5.14 7.23,10.29 c -1.72,1.87 -2.59,2.65 -3.73,3.76 -1.12,1.12 -2.12,1.99 -3.16,2.91 q -1.54,1.36 -3.08,2.74 -1.52,1.24 -3.05,2.48 c -4.06,3.4 -8.12,6.29 -12.18,9.28 -4.07,2.93 -8.18,5.5 -12.27,8.26 -4.12,2.6 -8.27,4.99 -12.4,7.48 -4.12,2.53 -8.34,4.56 -12.51,6.87 q -3.13,1.67 -6.27,3.35 -3.16,1.51 -6.33,3.04 -6.33,3.01 -12.66,6.02 -6.4,2.7 -12.79,5.4 -1.91,-6.38 -3.82,-12.76 z m 3.82,12.76 q 6.39,-2.7 12.79,-5.4 6.33,-3.01 12.66,-6.02 3.17,-1.53 6.33,-3.04 3.14,-1.68 6.27,-3.35 c 4.17,-2.31 8.39,-4.34 12.51,-6.87 4.13,-2.49 8.28,-4.88 12.4,-7.48 4.09,-2.76 8.2,-5.33 12.27,-8.26 4.06,-2.99 8.12,-5.88 12.18,-9.28 q 1.53,-1.24 3.05,-2.48 1.54,-1.38 3.08,-2.74 c 1.04,-0.92 2.04,-1.79 3.16,-2.91 1.14,-1.11 2.01,-1.89 3.73,-3.76 q 3.62,5.14 7.24,10.29 c -2.13,2.31 -3.01,3.08 -4.27,4.33 -1.26,1.24 -2.31,2.15 -3.41,3.13 q -1.65,1.46 -3.3,2.92 -1.59,1.31 -3.19,2.61 c -4.27,3.58 -8.48,6.57 -12.7,9.67 -4.22,3.04 -8.44,5.68 -12.67,8.53 -4.23,2.68 -8.48,5.12 -12.73,7.68 -4.24,2.61 -8.53,4.68 -12.8,7.03 q -3.21,1.71 -6.41,3.43 -3.23,1.55 -6.46,3.1 -6.46,3.07 -12.92,6.14 -6.49,2.75 -13,5.5 -1.91,-6.39 -3.81,-12.77 z m 3.81,12.77 q 6.51,-2.75 13,-5.5 6.46,-3.07 12.92,-6.14 3.23,-1.55 6.46,-3.1 3.2,-1.72 6.41,-3.43 c 4.27,-2.35 8.56,-4.42 12.8,-7.03 4.25,-2.56 8.5,-5 12.73,-7.68 4.23,-2.85 8.45,-5.49 12.67,-8.53 4.22,-3.1 8.43,-6.09 12.7,-9.67 q 1.6,-1.3 3.19,-2.61 1.65,-1.46 3.3,-2.92 c 1.1,-0.98 2.15,-1.89 3.41,-3.13 1.26,-1.25 2.14,-2.02 4.27,-4.33 q 3.61,5.15 7.23,10.29 c -2.53,2.75 -3.42,3.51 -4.81,4.88 -1.38,1.37 -2.49,2.33 -3.66,3.37 q -1.74,1.55 -3.49,3.1 -1.68,1.37 -3.35,2.73 c -4.49,3.76 -8.83,6.86 -13.22,10.07 -4.38,3.15 -8.7,5.87 -13.07,8.8 -4.35,2.75 -8.7,5.26 -13.06,7.89 -4.36,2.67 -8.73,4.78 -13.1,7.19 q -3.27,1.75 -6.55,3.5 -3.29,1.58 -6.58,3.16 -6.58,3.13 -13.16,6.26 -6.62,2.79 -13.22,5.59 -1.91,-6.39 -3.82,-12.76 z m 3.82,12.76 q 6.6,-2.8 13.22,-5.59 6.58,-3.13 13.16,-6.26 3.29,-1.58 6.58,-3.16 3.28,-1.75 6.55,-3.5 c 4.37,-2.41 8.74,-4.52 13.1,-7.19 4.36,-2.63 8.71,-5.14 13.06,-7.89 4.37,-2.93 8.69,-5.65 13.07,-8.8 4.39,-3.21 8.73,-6.31 13.22,-10.07 q 1.67,-1.36 3.35,-2.73 1.75,-1.55 3.49,-3.1 c 1.17,-1.04 2.28,-2 3.66,-3.37 1.39,-1.37 2.28,-2.13 4.81,-4.88 q 3.62,5.14 7.23,10.29 c -2.93,3.19 -3.83,3.94 -5.34,5.44 -1.52,1.49 -2.67,2.5 -3.91,3.6 q -1.85,1.64 -3.7,3.28 -1.75,1.43 -3.5,2.86 c -4.71,3.93 -9.19,7.14 -13.74,10.46 -4.52,3.26 -8.97,6.06 -13.47,9.07 -4.47,2.84 -8.92,5.4 -13.39,8.09 -4.47,2.74 -8.93,4.89 -13.39,7.36 q -3.35,1.78 -6.7,3.57 -3.35,1.61 -6.7,3.22 -6.71,3.19 -13.41,6.38 -6.72,2.84 -13.44,5.68 -1.91,-6.38 -3.81,-12.76 z"
           style="mix-blend-mode:multiply;fill:url(#g6)" />
      </g>
    </g>
  </g>
</svg>
