<?xml version="1.0" encoding="UTF-8" standalone="no"?>
<!-- Created with Inkscape (http://www.inkscape.org/) -->

<svg
   version="1.1"
   id="svg2"
   width="350"
   height="350"
   viewBox="0 0 350 350"
   sodipodi:docname="sello_estemin_redondo.svg"
   inkscape:version="1.2.2 (b0a8486541, 2022-12-01)"
   xmlns:inkscape="http://www.inkscape.org/namespaces/inkscape"
   xmlns:sodipodi="http://sodipodi.sourceforge.net/DTD/sodipodi-0.dtd"
   xmlns="http://www.w3.org/2000/svg"
   xmlns:svg="http://www.w3.org/2000/svg">
  <defs
     id="defs6" />
  <sodipodi:namedview
     id="namedview4"
     pagecolor="#505050"
     bordercolor="#ffffff"
     borderopacity="1"
     inkscape:showpageshadow="0"
     inkscape:pageopacity="0"
     inkscape:pagecheckerboard="1"
     inkscape:deskcolor="#505050"
     showgrid="false"
     inkscape:zoom="1.2949767"
     inkscape:cx="40.155163"
     inkscape:cy="137.84032"
     inkscape:window-width="1920"
     inkscape:window-height="1043"
     inkscape:window-x="0"
     inkscape:window-y="0"
     inkscape:window-maximized="1"
     inkscape:current-layer="g8" />
  <g
     inkscape:groupmode="layer"
     inkscape:label="Image"
     id="g8">
    <path
       style="fill:#000000;stroke-width:0.83379"
       d="m 168.77237,344.86554 c -22.31415,-1.4937 -35.80003,-4.01961 -48.53515,-9.09062 -13.20829,-5.25945 -21.03458,-9.28189 -31.976154,-16.4346 -10.810583,-7.06708 -15.488326,-10.66356 -23.819923,-18.31394 -8.638876,-7.93255 -10.65586,-10.00624 -12.829964,-13.19073 -1.080884,-1.58322 -3.111266,-4.35901 -4.511939,-6.16841 -1.400672,-1.80941 -2.895571,-4.04525 -3.322003,-4.96853 -0.42642,-0.9233 -1.385512,-2.17145 -2.131297,-2.77369 -0.745785,-0.60224 -1.355973,-1.45885 -1.355973,-1.90363 0,-0.72523 -2.30116,-3.8311 -5.34526,-7.21449 -1.573844,-1.74927 -6.928708,-12.66228 -9.080246,-18.50525 -3.604974,-9.79001 -4.311098,-11.50261 -4.913374,-11.91639 -1.032814,-0.70958 -3.288728,-7.48246 -4.797076,-14.40219 -2.609097,-11.96945 -3.564009,-15.88916 -4.061857,-16.67295 -0.270768,-0.42627 -0.727316,-6.46787 -1.014538,-13.42576 -0.287213,-6.95786 -0.672112,-12.88666 -0.855322,-13.1751 -0.3852035,-0.60643 1.779561,-21.30823 3.022069,-28.90033 0.965316,-5.89835 2.13485,-11.7479 3.411371,-17.06229 0.488943,-2.03557 1.209366,-5.13401 1.600946,-6.8854 0.391578,-1.75138 1.059339,-3.41686 1.483918,-3.70104 0.42459,-0.28418 0.761127,-2.02777 0.747859,-3.87463 -0.02804,-3.89402 2.627648,-10.21259 4.292216,-10.21259 0.626754,0 1.13955,-0.69784 1.13955,-1.55072 0,-1.61834 9.15083,-18.063261 14.010985,-25.179089 C 50.894236,63.292046 68.506987,46.15065 83.081275,37.3479 c 1.452304,-0.877184 4.305119,-2.686651 6.33959,-4.021052 8.059047,-5.285874 26.086675,-13.530769 37.510205,-17.155198 13.03613,-4.136079 13.26227,-4.188412 25.35836,-5.868302 19.57052,-2.7179282 46.83443,-2.2704056 50.35141,0.826486 1.03819,0.914176 2.28105,1.203333 3.6916,0.858864 2.87042,-0.700978 12.90246,0.884897 18.40269,2.909124 2.46107,0.905738 5.6158,2.024517 7.01051,2.486186 1.39472,0.46166 7.15401,3.025549 12.79843,5.697536 5.64443,2.671985 10.54995,4.858155 10.90114,4.858155 0.3512,0 2.64426,1.295366 5.09568,2.878594 2.45143,1.583226 4.80918,2.878595 5.23947,2.878595 0.43029,0 1.47081,0.740209 2.31228,1.64491 0.84147,0.904701 1.94683,1.64491 2.45638,1.64491 1.05816,0 17.20744,12.854652 24.16991,19.238981 7.85406,7.201882 14.11794,14.52375 19.77706,23.117482 2.97881,4.523506 6.24737,9.033432 7.26347,10.022048 1.29536,1.26033 1.67632,2.322162 1.27478,3.553155 -0.44008,1.349157 -0.16371,1.859713 1.19366,2.205087 1.17089,0.297926 1.76634,1.11298 1.76634,2.417706 0,1.082542 0.76076,2.602043 1.69056,3.376683 0.92981,0.77463 1.69057,2.39116 1.69057,3.59229 0,1.20113 0.57055,2.64462 1.26791,3.20775 0.69735,0.56312 1.27043,1.62623 1.27348,2.36245 0.003,0.73622 0.76131,2.44892 1.685,3.80597 0.92368,1.35705 1.68193,3.12006 1.68499,3.91781 0.003,0.79776 0.35235,2.09312 0.77621,2.87861 0.42387,0.78548 1.24845,3.64876 1.83243,6.36285 0.58398,2.71411 1.34328,5.30485 1.68735,5.7572 0.34408,0.45236 1.22329,4.20167 1.95383,8.33182 0.73052,4.13014 1.69784,8.45523 2.14956,9.61128 0.45172,1.15605 1.26968,6.10419 1.81767,10.99588 1.37339,12.25973 0.47183,29.45651 -2.28533,43.59106 -5.0846,26.06613 -5.44267,27.43284 -9.29547,35.47829 -1.66275,3.47214 -3.77906,7.97846 -4.70293,10.01404 -3.31918,7.31326 -5.86738,12.02671 -9.797,18.12158 -4.93884,7.66019 -11.12394,15.5991 -12.15304,15.5991 -2.88264,0 0.13699,-7.93698 3.94271,-10.36325 1.15628,-0.73716 2.10232,-1.89208 2.10232,-2.56646 0,-0.6744 1.63419,-4.0553 3.63154,-7.51313 11.40943,-19.75219 18.1182,-37.8456 20.93331,-56.45675 2.94885,-19.49541 3.23524,-22.81676 2.86873,-33.26947 -0.36321,-10.35828 -2.90508,-29.43568 -4.66264,-34.99434 -0.42908,-1.35706 -1.521,-4.87306 -2.42651,-7.81334 -1.82565,-5.9281 -5.61586,-16.77738 -6.75215,-19.3277 -1.33385,-2.99378 -10.60646,-21.148595 -12.1339,-23.756922 -4.11331,-7.024091 -10.80968,-16.102018 -12.54387,-17.005066 -0.87654,-0.456438 -1.59368,-1.329459 -1.59368,-1.940041 0,-0.610591 -0.88548,-1.674684 -1.96773,-2.36465 -1.08225,-0.689976 -5.61165,-4.731521 -10.06531,-8.981224 -4.45367,-4.249702 -10.70023,-9.465131 -13.88125,-11.589837 -3.18102,-2.124716 -7.30517,-4.914418 -9.1648,-6.199342 -4.07724,-2.817214 -13.59354,-7.89536 -16.38483,-8.74337 -1.1083,-0.336703 -4.17038,-1.841272 -6.80465,-3.343487 -2.63426,-1.502207 -5.91161,-2.992989 -7.28298,-3.312841 -1.37138,-0.319853 -2.87379,-0.83689 -3.3387,-1.148972 -1.98072,-1.329639 -8.64997,-3.284796 -10.98862,-3.221434 -1.39471,0.03775 -6.33959,-0.888869 -10.98863,-2.059232 -4.64903,-1.170371 -9.53868,-2.334663 -10.86586,-2.58732 -1.88539,-0.358921 -2.31861,-0.810934 -1.98101,-2.066997 0.31527,-1.17306 0.003,-1.607614 -1.15283,-1.607614 -1.05848,0 -1.42399,0.408005 -1.10043,1.228389 0.30564,0.775007 -0.18786,1.470369 -1.33708,1.884023 -2.37262,0.853988 -12.04546,-0.711474 -13.95761,-2.258907 -1.31415,-1.063519 -1.6083,-1.039987 -2.54267,0.203336 -0.84089,1.118925 -2.50486,1.423959 -8.15,1.494023 -3.90138,0.04845 -8.6149,0.390815 -10.47452,0.76087 -1.85962,0.370047 -6.23393,1.122603 -9.7207,1.67234 -17.71845,2.793546 -35.48819,9.614621 -55.02842,21.12315 C 78.945827,46.967002 72.219426,52.136661 61.421937,63.041337 51.354508,73.208713 44.1202,82.347083 39.401502,90.857548 c -1.504857,2.714104 -3.01702,5.30484 -3.360356,5.757189 -0.343338,0.45235 -2.54514,5.078673 -4.892902,10.280693 -4.464466,9.89209 -6.114584,15.62664 -4.496537,15.62664 0.924117,0 4.340195,-6.11903 4.340195,-7.77436 0,-0.89973 1.756204,-4.29243 4.916197,-9.49718 4.726632,-7.785185 8.660402,-14.932348 11.070705,-20.114064 2.234449,-4.803668 4.45302,-7.493557 13.835162,-16.774303 6.145672,-6.07927 11.744526,-11.579985 12.441877,-12.22382 2.234905,-2.063358 16.184705,-12.119466 18.486391,-13.326428 1.222623,-0.64112 2.603319,-1.618 3.068226,-2.170847 0.464897,-0.552845 2.366777,-1.654608 4.226397,-2.448359 5.218913,-2.22763 17.580933,-7.794666 19.202753,-8.647652 1.657,-0.87149 22.61521,-7.056982 28.97814,-8.552451 2.32451,-0.546333 4.79697,-1.229967 5.49432,-1.519191 1.44089,-0.597605 15.87652,-1.50405 25.35836,-1.592298 12.54172,-0.116732 29.21219,1.40453 30.06258,2.743357 0.25699,0.404566 1.37328,0.735578 2.48067,0.735578 1.10738,0 2.2485,0.370107 2.53584,0.822457 0.28732,0.452351 1.36117,0.822456 2.38632,0.822456 2.03697,0 5.94673,1.365572 18.60621,6.498632 4.57232,1.853964 8.80025,3.370834 9.39538,3.370834 0.59513,0 1.98919,0.683362 3.09792,1.518575 1.7137,1.290942 9.79567,5.699262 19.79216,10.795641 1.40869,0.718176 3.37157,2.034855 4.36195,2.925953 0.99038,0.891096 3.95551,3.470696 6.58916,5.732447 9.63103,8.271017 11.42335,9.983805 11.42335,10.916412 0,0.523222 0.78608,1.360655 1.74684,1.860955 3.67835,1.915433 16.03185,16.603929 19.45442,23.131595 0.87841,1.675341 1.98293,3.278079 2.45448,3.561643 0.47154,0.283558 0.85735,1.245552 0.85735,2.137752 0,0.892199 0.53318,1.821262 1.18482,2.06457 0.65166,0.243314 1.42249,1.67493 1.71294,3.181366 0.29045,1.50644 1.08859,3.1916 1.77364,3.74478 0.68507,0.5532 1.24555,1.50575 1.24555,2.11679 0,0.99222 2.27096,6.41631 4.38371,10.4703 0.43053,0.82608 1.53706,3.97198 2.45895,6.99088 0.9219,3.01888 2.76854,9.00488 4.10366,13.3022 3.97417,12.79166 3.97448,12.79371 4.86922,32.03548 0.36707,7.89394 0.39754,17.88678 0.0677,22.20628 -1.0166,13.31314 -6.38547,37.44452 -9.55236,42.93489 -0.69256,1.20067 -1.2592,2.74363 -1.2592,3.42878 0,0.68517 -0.54729,2.29354 -1.2162,3.57415 -1.95728,3.74717 -3.85549,8.26646 -3.85549,9.17921 0,0.46477 -0.48832,1.33412 -1.08514,1.93185 -0.59682,0.59776 -2.07498,2.75229 -3.2848,4.78785 -4.17224,7.02004 -6.05367,10.28858 -7.33806,12.74808 -1.25252,2.39847 -5.22763,7.50762 -9.4571,12.1551 -4.9331,5.42064 -14.31039,14.57471 -14.93009,14.57471 -0.37135,0 -2.28922,1.43553 -4.26194,3.19009 -7.87209,7.0015 -28.04956,18.92021 -39.15791,23.13032 -2.52461,0.95683 -6.1117,2.43137 -7.97133,3.27673 -13.52505,6.14835 -48.28207,11.15569 -63.31386,9.12143 -3.49399,-0.47287 -6.90906,-0.652 -7.58905,-0.39811 -0.67997,0.25388 -1.93171,0.10295 -2.78162,-0.33543 -0.8499,-0.43834 -5.72942,-1.22251 -10.84336,-1.74256 -5.11393,-0.52003 -9.96372,-1.14007 -10.77729,-1.37786 -1.06159,-0.31026 -1.47925,0.0291 -1.47925,1.20191 0,1.23395 0.98346,1.92633 4.01508,2.82672 9.56002,2.83932 13.81683,3.34741 29.37345,3.50591 8.83315,0.09 16.44066,0.28438 16.90557,0.43192 3.26914,1.03754 26.16394,-2.56257 34.65643,-5.44958 1.85962,-0.63218 6.70001,-2.0803 10.75642,-3.21807 4.05642,-1.13777 10.33261,-3.58971 13.94711,-5.44876 8.95465,-4.60566 17.29725,-8.75296 18.82834,-9.36 2.12892,-0.84408 5.27036,-2.71616 5.81983,-3.46823 1.13501,-1.55351 9.68432,-7.66188 10.72363,-7.66188 2.3811,0 2.10869,1.89482 -0.60052,4.177 -4.57188,3.85128 -24.87899,17.0052 -30.57467,19.80473 -22.98247,11.29629 -54.41476,17.49191 -80.03951,15.77659 z m -36.08578,-12.60606 c 3.16866,-0.0233 0.28695,-1.64868 -6.83489,-3.8552 -4.05539,-1.25644 -8.0914,-2.33787 -8.96892,-2.40319 -0.87751,-0.0653 -1.92831,-0.6974 -2.33508,-1.40463 -0.40678,-0.70725 -3.17515,-2.40557 -6.15196,-3.77407 -2.97679,-1.36848 -5.66067,-2.87912 -5.96418,-3.35695 -0.3035,-0.47782 -1.76204,-1.42821 -3.241186,-2.11199 -3.731614,-1.72504 -6.223766,-3.18293 -7.966531,-4.66035 -0.816786,-0.69243 -1.924893,-1.39979 -2.462471,-1.5719 -1.153818,-0.36941 -16.392546,-13.90576 -23.247248,-20.6502 -5.311491,-5.22608 -10.519596,-11.67725 -15.45237,-19.14059 -1.793839,-2.71411 -4.726338,-7.07447 -6.516667,-9.68969 -1.790318,-2.61521 -3.25512,-4.94867 -3.25512,-5.18546 0,-0.41696 -2.257563,-5.56881 -4.654173,-10.62097 -0.643746,-1.35706 -2.213157,-5.24316 -3.487585,-8.63579 -1.274417,-3.39262 -2.593503,-6.53852 -2.931304,-6.99087 -0.932932,-1.24931 -3.968765,-14.00993 -5.091393,-21.40093 -0.548244,-3.6094 -1.493158,-7.30555 -2.099794,-8.21365 -0.606636,-0.90809 -1.089112,-2.38851 -1.072171,-3.28982 0.0169,-0.90131 -0.0051,-7.74547 -0.04847,-15.20926 -0.04918,-8.41877 0.453745,-17.47335 1.324864,-23.85121 0.772288,-5.65438 1.443085,-11.26765 1.490638,-12.47391 0.04756,-1.20627 0.371754,-2.47079 0.720435,-2.81006 0.765123,-0.74446 0.665503,-7.20035 -0.163943,-10.62338 l -0.597862,-2.46735 -0.952635,3.28981 c -3.476604,12.00606 -6.081219,32.34997 -6.095346,47.60888 -0.01144,12.32174 4.281438,40.0305 7.019635,45.30925 0.463764,0.89407 1.14212,2.74458 1.507447,4.11228 1.521788,5.69712 6.424495,17.62794 9.978071,24.28179 1.265784,2.37012 6.270502,11.11684 7.294198,12.74805 4.275346,6.81259 10.810107,16.24292 13.393156,19.32771 4.827071,5.76469 19.216004,19.76463 22.502142,21.89381 1.628076,1.05488 6.193326,4.33733 10.145008,7.29435 3.951682,2.95701 10.346313,6.92407 14.210285,8.81567 3.86397,1.89162 7.21469,3.73732 7.44606,4.10158 0.23138,0.36425 1.0064,0.66228 1.72229,0.66228 0.71588,0 2.50021,0.55207 3.96518,1.22681 5.00966,2.30738 11.96033,4.36916 13.65222,4.04964 0.9298,-0.17559 2.37866,-0.32432 3.21968,-0.33049 z m 65.33687,-3.35993 c 3.76816,-0.43624 10.23453,-1.71566 14.36973,-2.84316 4.13521,-1.12753 9.04005,-2.44942 10.89967,-2.93756 6.60588,-1.73401 19.52221,-6.74872 24.93572,-9.68119 3.02188,-1.63694 6.4454,-3.38401 7.60784,-3.8824 1.16245,-0.49838 2.63542,-1.51803 3.2733,-2.26586 0.63787,-0.74784 1.61691,-1.3597 2.17564,-1.3597 0.55873,0 3.81219,-2.03558 7.22992,-4.5235 3.41773,-2.48794 6.52758,-4.52351 6.91079,-4.52351 0.38318,0 0.69672,-0.53022 0.69672,-1.17825 0,-0.64806 0.67929,-1.38806 1.50957,-1.64445 2.9802,-0.92035 20.01811,-18.95824 21.77774,-23.05596 0.63976,-1.48979 2.07661,-3.77119 3.19299,-5.06975 1.971,-2.29266 10.3643,-17.06594 14.42498,-25.38979 3.1893,-6.53768 7.72047,-20.3107 10.58545,-32.17566 1.56371,-6.47592 3.21987,-28.67275 2.81969,-37.79129 -0.90996,-20.73492 -2.52444,-28.08941 -11.567,-52.69154 -2.10512,-5.72746 -8.14763,-16.82201 -9.42078,-17.29737 -0.66112,-0.24684 -1.20204,-1.092795 -1.20204,-1.879884 0,-0.787091 -0.76075,-2.284543 -1.69055,-3.327672 -0.92982,-1.043128 -1.69056,-2.510003 -1.69056,-3.259712 0,-2.265199 -11.06154,-15.720877 -16.56263,-20.147422 -2.83326,-2.279823 -7.58795,-6.752172 -10.566,-9.938561 -7.34583,-7.859773 -16.75258,-14.397407 -28.36484,-19.71343 -2.7192,-1.244828 -8.36736,-3.839782 -12.55149,-5.766565 -16.06332,-7.397107 -39.37537,-12.729622 -55.63825,-12.726949 -6.43849,8.23e-4 -25.7697,1.939359 -33.53867,3.362848 -6.78444,1.2431 -28.98414,8.688454 -36.41075,12.211468 -16.573578,7.862115 -26.326917,14.830708 -42.357284,30.263518 -8.757927,8.431478 -9.990741,9.967718 -10.874105,13.55058 -0.802639,3.255476 -1.618017,4.441301 -4.19459,6.100359 -4.600234,2.96209 -15.915364,25.318452 -20.968504,41.429452 -1.499392,4.78049 -4.207118,19.63373 -5.172685,28.37471 -1.009783,9.14124 -0.578058,24.90174 0.716638,26.16149 0.481393,0.46838 0.628658,2.96429 0.347679,5.89203 -0.543539,5.66348 0.916952,18.21701 2.633941,22.63978 0.614642,1.58323 2.527775,7.13481 4.251424,12.33684 4.281235,12.9209 16.323367,36.59927 18.613324,36.59927 1.027138,0 1.781858,-0.63862 1.943958,-1.64491 0.68967,-4.28124 4.769784,-10.32077 9.748704,-14.43038 8.754638,-7.22608 12.883893,-7.96803 18.175104,-3.26575 2.15685,1.9168 2.68705,3.03298 2.68705,5.65689 0,4.17825 0.683346,5.87083 2.370248,5.87083 0.739257,0 3.83666,2.50498 6.883119,5.56664 8.310089,8.35153 16.785069,15.12979 22.319649,17.85116 2.7207,1.3378 5.76371,3.27154 6.76223,4.29725 0.99854,1.02571 2.79379,1.87131 3.98944,1.87913 3.73306,0.0244 10.01057,2.54424 11.77474,4.72647 0.92895,1.14906 1.68064,3.24215 1.67043,4.65127 -0.0202,2.77467 -2.6089,9.00267 -4.11981,9.91124 -0.51332,0.30869 -0.95009,1.74224 -0.9706,3.18569 -0.10151,7.14043 -3.86893,14.33693 -5.89483,11.26021 -0.4468,-0.67852 -0.63986,-1.69179 -0.42907,-2.25172 0.85189,-2.26274 1.31309,-8.91329 0.68059,-9.81429 -0.37175,-0.52956 -1.68712,-1.2098 -2.92303,-1.51162 -2.10501,-0.51405 -2.41012,-0.2061 -4.8246,4.86952 -1.86364,3.91772 -3.02592,5.41829 -4.19673,5.41829 -2.20275,0 -2.68264,-2.41186 -1.24519,-6.25812 1.72567,-4.61745 4.50042,-12.80371 4.50042,-13.27743 0,-0.22263 -0.62902,0.10315 -1.39784,0.72399 -0.88164,0.71194 -3.51365,1.12878 -7.12745,1.12878 -5.48112,0 -5.79239,0.10701 -7.17689,2.46737 -1.73616,2.95988 -4.62165,6.16841 -5.54739,6.16841 -0.36752,0 -1.09214,-0.77074 -1.61028,-1.71275 -0.898986,-1.63443 0.64578,-5.31957 7.5564,-18.02619 2.1861,-4.0196 2.62426,-5.01805 2.62426,-5.97991 0,-1.36821 -5.08956,-4.32732 -5.8044,-3.37474 -0.53769,0.71647 -5.58967,7.9158 -8.295858,11.82201 -1.872309,2.70255 -7.215424,8.22457 -7.958112,8.22457 -0.320811,0 -0.810684,-0.57656 -1.088606,-1.28126 -0.611918,-1.55157 1.566213,-5.829 7.610272,-14.94506 2.501442,-3.77286 4.548077,-7.20955 4.548077,-7.63711 0,-0.42755 -2.198412,-3.01828 -4.885362,-5.75715 l -4.885352,-4.97977 -2.361667,2.39848 -2.361666,2.39848 2.597985,2.87905 c 2.870869,3.18145 3.224751,4.83296 1.358513,6.33998 -1.011846,0.81709 -1.929638,0.45064 -4.997409,-1.99531 l -3.757927,-2.99619 -2.273421,2.90013 -2.27341,2.90011 2.621787,3.22091 c 2.859363,3.51275 3.382256,6.45292 1.286773,7.23532 -0.889466,0.33211 -2.864179,-0.97094 -5.916952,-3.90438 -6.414557,-6.16383 -6.271301,-7.06042 2.602934,-16.2901 3.951682,-4.10997 7.184872,-7.84814 7.184872,-8.30711 0,-0.45893 -0.772683,-0.83443 -1.71708,-0.83443 -2.098478,0 -3.059007,-2.0656 -1.700929,-3.65781 0.548628,-0.64322 0.876472,-2.39649 0.72852,-3.89618 -0.365956,-3.70966 -2.942659,-3.98052 -7.64298,-0.80347 -7.850882,5.3066 -11.554809,10.97582 -8.685003,13.29324 1.101894,0.8898 1.929072,0.91877 4.129428,0.14459 4.024424,-1.41596 5.589979,-1.22302 5.589979,0.68891 0,4.02358 -9.513325,6.34942 -14.424635,3.52658 -1.335916,-0.76785 -2.649334,-1.18162 -2.918715,-0.9195 -0.966257,0.94014 0.707855,5.00564 2.219653,5.39031 0.848786,0.21597 1.797909,1.18544 2.109186,2.15439 1.577184,4.90961 15.59424,18.66663 28.229529,27.70583 14.605686,10.44879 15.905006,11.22229 26.743576,15.92083 9.15015,3.96661 12.48511,5.12201 23.97317,8.30565 13.99023,3.87703 38.54171,5.07048 57.99057,2.81892 z m -24.10342,-3.11026 c -2.60305,-1.7291 -3.17902,-29.16679 -0.64519,-30.73496 1.48089,-0.91652 10.0908,-0.76436 13.02282,0.23016 2.12532,0.72088 3.04827,0.58108 5.40913,-0.81938 1.8703,-1.10945 4.30237,-1.68963 7.09126,-1.69165 5.87703,-0.004 15.542,-2.78396 26.30621,-7.56583 2.85588,-1.26869 5.72989,-2.3067 6.38668,-2.3067 0.65679,0 2.4831,-0.92527 4.05845,-2.05616 1.57536,-1.13087 3.50024,-2.05613 4.27754,-2.05613 0.7773,0 2.75756,1.67888 4.40061,3.73085 3.4276,4.2807 10.61957,10.66487 11.28496,10.01746 0.24653,-0.23989 -0.1,-1.48833 -0.7701,-2.77435 -0.6701,-1.28599 -2.44562,-5.78655 -3.94563,-10.00125 -2.60935,-7.33177 -2.66333,-7.73177 -1.2488,-9.25261 0.81316,-0.87425 1.96965,-1.58957 2.57002,-1.58957 1.65004,0 17.24256,21.9582 17.24256,24.28189 0,2.27394 -3.40106,1.31974 -4.89967,-1.37462 -0.79196,-1.42389 -2.40756,-3.73705 -3.59026,-5.14036 -1.18269,-1.40331 -2.82968,-3.60137 -3.65999,-4.88458 -2.3344,-3.60779 -2.37165,-2.20706 -0.0876,3.29494 1.14032,2.74691 2.68157,7.30466 3.42504,10.1283 1.89011,7.17864 0.7871,7.85846 -4.80834,2.96348 -7.79932,-6.8229 -9.77651,-6.68805 -4.97531,0.33936 2.85323,4.1762 3.0998,5.37064 1.25118,6.06086 -0.93361,0.34858 -3.07027,-2.19979 -7.81883,-9.32545 -3.5938,-5.39281 -7.04756,-10.01288 -7.67504,-10.26679 -1.22379,-0.49524 -9.42512,4.27861 -9.42512,5.48618 0,0.39863 0.57144,1.79999 1.26989,3.11414 l 1.26987,2.38938 3.55285,-1.21967 c 6.31084,-2.16647 8.20875,0.85818 2.36018,3.76135 -1.85961,0.92308 -3.38111,1.81068 -3.38111,1.9724 0,0.93915 2.64035,6.21794 3.31215,6.62191 0.44107,0.26525 2.31947,-0.0264 4.17421,-0.64822 3.9825,-1.33504 6.11903,-0.56291 4.68842,1.69435 -1.06372,1.67839 -10.22355,6.20784 -11.63092,5.75137 -0.51563,-0.16722 -2.84809,-4.90165 -5.18324,-10.52092 -4.47015,-10.75688 -5.71774,-12.05028 -9.22002,-9.5585 -1.55387,1.10554 -1.55041,1.25338 0.14978,6.40507 2.8382,8.59996 4.54261,15.68037 4.0657,16.88963 -0.63359,1.60655 -2.82707,1.40222 -3.79268,-0.35332 -0.44929,-0.81684 -2.20052,-5.64958 -3.89161,-10.73944 -1.6911,-5.08986 -3.6066,-9.45285 -4.25664,-9.69558 -0.65005,-0.24271 -2.2405,-0.09 -3.53431,0.33941 -1.88566,0.62578 -2.30414,1.21234 -2.1091,2.95618 0.19093,1.70695 -0.12127,2.17549 -1.4495,2.17549 -0.93104,0 -2.09994,-0.74023 -2.59756,-1.64493 -1.11532,-2.02772 -5.71933,-2.28054 -6.47845,-0.35574 -0.80551,2.04246 1.43272,5.29048 3.64569,5.29048 3.01401,0 8.63854,2.4634 9.0954,3.98354 1.31649,4.38049 1.38268,7.49563 0.21694,10.21028 -1.40465,3.27105 -2.84958,4.23966 -7.55868,5.067 -2.79623,0.49128 -3.49876,0.26267 -5.66234,-1.84248 -3.90325,-3.79787 -4.53409,-9.19379 -1.07486,-9.19379 0.84417,0 2.22166,1.13129 3.06109,2.51396 1.26627,2.08576 1.9812,2.471 4.19733,2.26176 3.19565,-0.30174 3.99814,-2.89893 1.8715,-6.05694 -1.09503,-1.6261 -2.06087,-2.00861 -5.07201,-2.00861 -5.29478,0 -8.92079,-3.03841 -8.92079,-7.47519 0,-3.04369 -0.1399,-3.21673 -2.60087,-3.21673 -2.53053,0 -7.54249,3.72154 -7.54249,5.60055 0,0.43578 1.6806,1.03755 3.73464,1.33727 7.24524,1.05715 7.45759,4.94764 0.31743,5.81565 l -4.50546,0.54771 0.31608,3.22505 c 0.25703,2.62242 0.69425,3.30072 2.33991,3.63011 1.11309,0.22279 2.94939,0.59097 4.08066,0.8182 2.18673,0.43922 3.70486,3.35671 2.40489,4.62157 -1.12948,1.099 -11.43457,1.77578 -12.83854,0.84316 z m 71.92768,-36.48693 c -0.60655,-0.59017 -1.00025,-0.63872 -1.00025,-0.12337 0,1.09781 0.99963,2.07046 1.56377,1.52154 0.2402,-0.2337 -0.0134,-0.86288 -0.56352,-1.39817 z m -98.13111,34.00295 c -3.9356,-1.07122 -5.56548,-4.4699 -5.4985,-11.46565 0.0725,-7.57399 2.08735,-14.01423 5.6034,-17.91064 2.8283,-3.13428 5.86746,-3.63016 9.87869,-1.6119 4.93717,2.48418 6.2535,7.46148 4.19514,15.86249 -3.17418,12.95501 -7.03232,17.07083 -14.17873,15.1257 z m 5.30511,-6.56224 c 1.49787,-1.61043 3.87732,-11.06323 3.90207,-15.50165 0.009,-1.56628 -0.53138,-2.92944 -1.33383,-3.36639 -1.70885,-0.9305 -5.41204,-0.27852 -5.41893,0.95404 -0.003,0.51271 -0.60401,2.0425 -1.33587,3.39955 -1.95057,3.6169 -1.84442,13.54162 0.16013,14.96779 1.96727,1.39967 2.34222,1.35745 4.02643,-0.45334 z m 113.29211,-36.8149 c -3.67069,-4.39009 -7.51615,-8.94062 -8.54545,-10.11233 -2.05452,-2.33871 -2.45831,-4.59556 -0.98115,-5.48382 1.04597,-0.62899 2.5317,0.93129 12.59107,13.22294 3.70199,4.52351 6.60736,8.59466 6.45633,9.04701 -0.82277,2.46449 -3.3771,0.67399 -9.5208,-6.6738 z m 10.94318,-1.34062 c -6.33074,-5.55152 -17.19452,-16.46364 -17.19452,-17.27105 0,-0.34204 0.38038,-0.62188 0.84528,-0.62188 0.46491,0 0.84528,-0.71837 0.84528,-1.59638 0,-2.39474 1.49511,-2.83151 4.05225,-1.18381 1.25804,0.81064 4.18922,2.35202 6.51373,3.42529 2.32453,1.07327 5.27244,2.49843 6.55092,3.16702 1.27848,0.66858 2.32452,1.01833 2.32452,0.77723 0,-0.24112 -2.12327,-2.5752 -4.71837,-5.18685 -2.5951,-2.61165 -5.29955,-5.57835 -6.00989,-6.59263 -1.41259,-2.01705 -0.9737,-4.32424 0.8226,-4.32424 1.53426,0 13.36756,10.69261 18.58785,16.79606 4.1658,4.87054 4.19478,4.94364 2.41612,6.09273 -0.99013,0.63966 -1.80025,1.67306 -1.80025,2.29642 0,1.56546 -0.5484,1.43652 -3.64883,-0.85789 -2.92085,-2.16152 -10.76008,-5.41084 -13.05405,-5.41084 -0.91789,0 0.5978,1.98364 4.25769,5.57222 5.34133,5.23723 6.71483,7.69193 4.91088,8.77672 -0.42464,0.25537 -2.99018,-1.4808 -5.70121,-3.85812 z M 110.73515,262.13392 c -1.01285,-1.5825 -1.13832,-20.45299 -0.14795,-22.25355 1.36638,-2.48416 9.32804,-1.6017 12.38367,1.37259 2.08088,2.02549 2.26604,2.73773 2.22649,8.56369 -0.0571,8.39925 -0.73201,10.5878 -3.73088,12.09669 -3.00418,1.51157 -9.81541,1.65158 -10.73133,0.22058 z m 8.9813,-5.4975 c 1.38914,-2.52555 1.08894,-10.42035 -0.45328,-11.92093 -1.59422,-1.55118 -2.23755,-1.60616 -3.57432,-0.30549 -1.06993,1.04104 -1.45227,12.29453 -0.45081,13.26895 1.1239,1.09356 3.62356,0.51167 4.47841,-1.04253 z m 31.62633,5.33143 c -0.20585,-0.52195 -0.26724,-5.74078 -0.13645,-11.59741 l 0.23782,-10.64844 h 6.6918 c 3.71899,0 6.81085,0.36538 6.9598,0.82247 0.54717,1.67905 -1.25155,3.01637 -4.65435,3.46048 -2.95951,0.38623 -3.50293,0.75162 -3.50293,2.35533 0,1.5998 0.4983,1.93835 3.16979,2.15347 2.54617,0.20504 3.22295,0.61934 3.4399,2.10579 0.23722,1.62518 -0.10058,1.85053 -2.77439,1.85053 -2.3802,0 -3.20175,0.40377 -3.7652,1.85053 -0.97742,2.50974 0.25528,3.76217 4.00227,4.06634 2.24058,0.18191 3.18192,0.67968 3.39995,1.79789 0.16584,0.8505 -0.20864,1.85316 -0.83218,2.22811 -1.71595,1.03189 -11.79798,0.66513 -12.23583,-0.44509 z m 18.46841,0.64368 c -3.57909,-1.40118 -5.11948,-14.71855 -2.31322,-19.99876 3.40166,-6.40045 13.1083,-4.44687 13.1083,2.6382 0,1.87147 -0.37164,2.28435 -2.05624,2.28435 -1.33327,0 -2.25037,-0.5952 -2.60844,-1.69285 -0.37459,-1.1484 -1.13877,-1.61131 -2.37603,-1.43929 -2.18401,0.30363 -2.89248,3.20774 -2.26259,9.27469 0.50098,4.82519 2.69253,6.10844 4.35801,2.55179 0.99966,-2.13476 4.31014,-2.95757 5.34494,-1.32843 0.78622,1.23779 -1.76709,6.3897 -3.65363,7.3721 -1.75146,0.91204 -5.63086,1.08602 -7.5411,0.3382 z m 15.58954,-1.13008 c -2.71151,-2.0753 -3.48295,-5.71195 -2.70705,-12.7615 0.75601,-6.86895 3.00505,-9.73815 7.63329,-9.73815 2.43694,0 3.65523,0.54032 5.22689,2.31813 2.48381,2.80968 2.3094,5.71721 -0.36516,6.08682 -1.39469,0.19273 -2.12029,-0.29979 -2.72623,-1.85052 -1.8505,-4.73577 -5.105,-1.1831 -5.08242,5.54808 0.0236,7.05669 1.97273,9.15935 4.71522,5.08681 1.38944,-2.06332 4.03732,-2.73975 4.97095,-1.26989 0.78623,1.23779 -1.76708,6.3897 -3.65364,7.3721 -2.6099,1.35907 -5.58577,1.06494 -8.01185,-0.79188 z m 14.68431,0.49066 c -0.72618,-0.85139 -0.89125,-4.18574 -0.58021,-11.72 0.23912,-5.79156 0.45908,-10.64838 0.4888,-10.79292 0.0297,-0.14455 0.90991,-0.14455 1.95594,0 1.84369,0.25476 1.90977,0.58562 2.16022,10.81533 0.17695,7.22808 -0.0554,10.92032 -0.73745,11.71998 -1.25991,1.4771 -2.01266,1.47196 -3.2873,-0.0223 z m 8.29776,-0.38185 c -1.78179,-1.40339 -2.02253,-2.35034 -2.24772,-8.84138 -0.32053,-9.23942 1.22824,-12.88189 5.65215,-13.29309 7.41888,-0.68956 9.80978,2.64469 9.22497,12.86473 -0.32197,5.62655 -0.71085,7.06861 -2.3694,8.78639 -2.47133,2.55958 -7.33314,2.78863 -10.26,0.48335 z m 6.86071,-4.15057 c 1.19833,-2.17864 1.39053,-11.3664 0.26076,-12.46566 -0.49899,-0.48552 -1.61333,-0.75154 -2.4763,-0.59112 -1.34447,0.24992 -1.6047,1.22175 -1.81837,6.79097 -0.17818,4.64392 0.0632,6.69219 0.84528,7.17498 1.64878,1.01771 2.21806,0.85539 3.18863,-0.90917 z m 8.21945,5.20242 c -0.326,-0.3172 -0.59274,-5.11492 -0.59274,-10.6616 0,-8.06605 0.26557,-10.34327 1.32662,-11.37568 1.89262,-1.84152 4.21325,-0.38979 5.48094,3.42876 0.56431,1.69978 1.64079,4.20082 2.39221,5.55788 l 1.36621,2.46736 0.42265,-6.10372 c 0.43981,-6.35173 1.35007,-7.68058 3.697,-5.39703 1.04283,1.01468 1.27634,2.50025 1.00767,6.41075 -0.19234,2.7995 -0.37863,7.61166 -0.41399,10.6937 l -0.0644,5.60368 -2.62645,-0.25772 c -2.23962,-0.21977 -2.84583,-0.80285 -4.11573,-3.95879 -3.75235,-9.3252 -3.7329,-9.31382 -4.2254,-2.4751 -0.33684,4.67709 -0.75893,6.21888 -1.75281,6.40246 -0.72003,0.13299 -1.57587,-0.0177 -1.90188,-0.33495 z m -95.74049,-1.37627 c -0.23289,-0.59054 -0.31605,-5.67947 -0.18479,-11.30876 l 0.23866,-10.23508 h 2.1132 2.1132 l 0.0635,9.86947 c 0.0348,5.42821 -0.2638,10.51715 -0.6637,11.30876 -0.85277,1.6881 -3.07144,1.90853 -3.67995,0.36561 z m 6.99263,0.56009 c -0.32954,-0.32067 -0.59916,-5.28736 -0.59916,-11.03715 0,-7.80682 0.29087,-10.68903 1.14865,-11.3817 1.75459,-1.41687 11.4969,0.0888 12.93218,1.99871 1.35899,1.80835 1.50086,7.08869 0.22383,8.33124 -0.6503,0.63276 -0.62886,1.80001 0.0751,4.08604 1.3437,4.36377 0.8315,8.01381 -1.17662,8.38474 -1.98774,0.36718 -3.03008,-1.17119 -3.04682,-4.49669 -0.0143,-2.83695 -1.84632,-4.85687 -3.75777,-4.14317 -0.78384,0.29266 -1.32473,1.89351 -1.49,4.4099 -0.21343,3.24929 -0.56571,3.99311 -1.98482,4.19076 -0.94894,0.13216 -1.99497,-0.0221 -2.32453,-0.34268 z m 9.12154,-16.02973 c 0,-1.54153 -0.45032,-1.96191 -2.10161,-1.96191 -2.15744,0 -3.14159,1.83062 -2.22866,4.14546 0.77053,1.95376 4.33027,0.15875 4.33027,-2.18355 z m 153.45732,-10.96296 c -0.5962,-0.69899 -0.86946,-1.92054 -0.60722,-2.71457 2.58039,-7.81333 5.19316,-14.51702 7.05387,-18.09841 1.88138,-3.62111 2.61569,-4.31789 4.55056,-4.31789 1.30963,0 2.52577,0.55427 2.81273,1.28189 1.00384,2.54529 -2.78546,14.33777 -7.12009,22.15809 -1.56004,2.81454 -4.9916,3.68189 -6.68985,1.69089 z M 52.271207,230.8276 c -1.010844,-1.04695 -1.837892,-2.5538 -1.837892,-3.34857 0,-0.79478 -0.536707,-1.96724 -1.192678,-2.60551 -0.655971,-0.63826 -1.016703,-1.81516 -0.801646,-2.61537 0.222466,-0.82772 -0.903088,-3.22594 -2.611081,-5.5634 -2.571957,-3.51984 -3.002103,-4.76292 -3.002103,-8.67578 0,-2.51199 0.456447,-5.01138 1.014326,-5.55421 2.034187,-1.97925 4.610435,-1.08625 6.999354,2.42618 2.427193,3.5687 8.891894,20.20542 8.891894,22.88301 0,1.40181 -3.613576,4.95718 -5.038324,4.95718 -0.321165,0 -1.410995,-0.85659 -2.42185,-1.90353 z m 121.572833,-0.16685 c 0,-0.34477 0.66565,-1.11853 1.47925,-1.71945 1.40879,-1.04055 1.40879,-1.09383 0,-1.11875 -2.42368,-0.0428 -1.7642,-2.49352 0.67102,-2.49352 1.41954,0 2.06584,0.4009 1.90186,1.17974 -0.1366,0.64887 0.13201,1.11151 0.5969,1.02807 0.46491,-0.0834 0.79246,-0.61429 0.72788,-1.17974 -0.16716,-1.4639 3.64147,-1.27862 4.22683,0.20562 0.3339,0.84662 -0.0511,1.23368 -1.22736,1.23368 -0.94266,0 -1.47883,0.3701 -1.19151,0.82245 0.4962,0.78118 -1.22316,1.19035 -3.65515,0.86983 -0.61561,-0.0811 -1.66164,0.29045 -2.32451,0.82572 -0.66286,0.53528 -1.20521,0.69113 -1.20521,0.34635 z m 1.74886,-10.81004 1.50762,-3.42217 -4.37539,1.94412 c -5.00492,2.22383 -13.40969,4.489 -16.65613,4.489 -4.98437,0 -11.09726,-2.55331 -14.84642,-6.20124 -2.04905,-1.99371 -3.72553,-3.98801 -3.72553,-4.43177 0,-0.44375 1.4264,-1.03524 3.16979,-1.3144 6.86424,-1.09917 12.07939,-2.32964 11.81317,-2.78724 -3.27883,-5.63558 -3.6102,-8.75763 -1.81875,-17.1355 0.46702,-2.18403 0.30919,-2.67299 -0.86281,-2.67299 -2.21264,0 -8.83937,-4.07237 -10.77768,-6.62331 -0.95543,-1.25738 -2.44987,-2.46749 -3.32099,-2.68915 -1.48694,-0.37834 -1.58384,-1.49578 -1.58384,-18.26351 0,-14.15892 0.21897,-17.69774 1.05659,-17.07516 8.42282,6.26037 8.41549,6.25166 7.90122,9.38087 -0.45883,2.79188 -0.32789,3.02336 1.9624,3.46905 1.88216,0.36628 2.58644,1.06406 3.02217,2.9944 0.35776,1.58487 1.43613,2.95358 2.91224,3.69629 4.00335,2.01432 5.30597,10.5909 2.90817,19.14773 l -0.51855,1.85053 h 25.08609 25.08612 l -0.60877,-3.90668 c -1.25875,-8.07757 0.0561,-16.65472 2.55292,-16.65472 1.63089,0 3.86921,-2.78514 3.86921,-4.81443 0,-1.35754 0.64362,-1.93159 2.59045,-2.31044 2.43326,-0.47351 2.5623,-0.68433 2.12667,-3.47487 -0.43752,-2.80257 -0.20791,-3.16867 4.05542,-6.46621 2.48557,-1.92249 4.78327,-3.49543 5.10598,-3.49543 0.32273,0 0.31542,7.84244 -0.0162,17.42764 l -0.60301,17.42764 -3.69933,3.49825 c -2.03462,1.92405 -4.41304,3.71865 -5.28537,3.98805 -0.87233,0.26941 -2.04736,1.03063 -2.61118,1.69165 -0.56381,0.66099 -1.97383,1.20181 -3.1334,1.20181 -1.79129,0 -2.0228,0.27824 -1.53977,1.85054 0.31267,1.01778 0.78766,4.14156 1.05553,6.94173 0.39843,4.16493 0.16966,5.68364 -1.25742,8.34765 l -1.74445,3.25644 5.64786,0.95326 c 11.1503,1.88199 10.9046,1.65664 6.78449,6.22249 -6.51087,7.21524 -16.62307,8.5512 -28.98613,3.82948 -3.69463,-1.41106 -6.86078,-2.42617 -7.03588,-2.2558 -0.1751,0.17038 0.28025,1.4361 1.01189,2.81271 0.73163,1.37663 1.33025,2.61387 1.33025,2.74941 0,0.13555 -2.0378,0.24646 -4.52842,0.24646 h -4.52842 l 1.50763,-3.42218 z m 6.70394,-7.68096 c 1.09267,-0.68709 1.07036,-0.79901 -0.16144,-0.80988 -0.78615,-0.007 -1.64251,-0.34817 -1.90305,-0.75834 -0.26053,-0.41017 0.28758,-0.55205 1.21804,-0.3153 1.82594,0.46459 2.37819,-0.99972 0.63512,-1.68408 -0.6312,-0.24781 -0.46104,-0.44097 0.42264,-0.47974 0.81358,-0.0358 1.47924,-0.57696 1.47924,-1.20275 0,-1.35421 -4.30215,-2.35343 -5.45205,-1.26629 -1.33003,1.25743 -2.02423,0.85979 -1.55392,-0.89011 0.24379,-0.90711 0.0704,-2.10995 -0.38523,-2.67299 -0.94717,-1.17031 -2.15003,-5.54718 -1.5245,-5.54718 0.22801,0 0.73064,1.1868 1.11694,2.63734 0.60388,2.26752 1.11103,2.66402 3.61661,2.82762 1.60282,0.10465 4.43573,0.37089 6.29535,0.59167 5.52504,0.65592 13.9471,-2.31356 13.9471,-4.91754 0,-0.62649 0.38037,-1.13909 0.84528,-1.13909 1.13052,0 1.08462,-3.04882 -0.0562,-3.73487 -0.49585,-0.29818 -1.35168,0.0432 -1.90188,0.75856 -2.31616,3.01148 -8.23199,1.72008 -12.41163,-2.70942 -1.16226,-1.23173 -4.08431,-2.8613 -6.49346,-3.62128 -5.80529,-1.83128 -11.99099,-0.61992 -16.46754,3.22491 -1.7033,1.46295 -2.87613,2.87474 -2.60626,3.13731 0.26985,0.26258 -0.28692,0.47741 -1.23728,0.47741 -2.24032,0 -3.27154,1.33523 -3.97829,5.15109 -0.44285,2.39101 -0.27676,3.20564 0.7302,3.58161 0.71688,0.26768 1.10923,0.79243 0.87186,1.16613 -0.23736,0.37369 -0.0449,0.91191 0.42751,1.19603 0.47248,0.28413 0.86488,-0.15291 0.872,-0.97123 0.007,-0.81831 0.37138,-2.03947 0.80947,-2.71368 0.55131,-0.84846 0.74249,0.0123 0.62101,2.79574 -0.18805,4.30903 -0.075,4.3917 6.35744,4.64569 0.8037,0.0317 1.37427,0.48993 1.26792,1.01824 -0.11794,0.58595 1.08333,1.00125 3.08038,1.06493 2.44881,0.0781 2.91625,-0.0904 1.85502,-0.66815 -1.11649,-0.60793 -1.20663,-1.0212 -0.42309,-1.93981 0.79025,-0.92651 0.71273,-1.16729 -0.37579,-1.16729 -0.75429,0 -1.37143,0.33546 -1.37143,0.74545 0,0.82755 -3.28325,0.2322 -4.7268,-0.85712 -0.50768,-0.38308 -1.17334,-0.453 -1.47924,-0.15535 -0.30589,0.29764 -0.55619,0.10938 -0.55619,-0.41836 0,-1.1795 2.23714,-1.27272 2.967,-0.12366 0.29201,0.45972 0.91317,0.60602 1.38033,0.3251 1.65759,-0.99679 5.79602,-0.86089 5.79602,0.19033 0,0.56887 0.47547,1.3303 1.05661,1.69204 0.58112,0.36173 1.05659,1.21286 1.05659,1.89139 0,0.69601 0.61691,1.13456 1.41549,1.00625 0.77853,-0.12508 1.65683,0.15249 1.95177,0.61685 0.66246,1.04293 1.34049,1.04792 2.97234,0.0218 z m 7.67424,-15.28397 c 0.0406,-0.95812 0.24085,-1.153 0.51068,-0.4969 0.24417,0.5937 0.21415,1.30307 -0.0667,1.57637 -0.28088,0.2733 -0.48066,-0.21247 -0.44396,-1.07947 z m -4.29313,12.76805 c 0,-0.42565 -0.38038,-0.77391 -0.84528,-0.77391 -0.4649,0 -0.84528,0.577 -0.84528,1.28222 0,0.70522 0.38038,1.05348 0.84528,0.77392 0.4649,-0.27956 0.84528,-0.85658 0.84528,-1.28223 z m 2.53584,-2.00759 c 0,-0.67854 -0.54812,-1.23369 -1.21804,-1.23369 -1.41216,0 -2.36543,1.17388 -1.57659,1.94143 1.01025,0.98295 2.79463,0.53106 2.79463,-0.70774 z m 4.64902,-1.3279 c 0,-1.98075 -3.35288,-1.33281 -3.65047,0.70543 -0.23577,1.61492 -0.025,1.75697 1.69055,1.13947 1.07795,-0.38798 1.95992,-1.21821 1.95992,-1.8449 z m 2.95848,-14.29876 c 0,-0.67853 -0.36843,-1.23369 -0.81875,-1.23369 -0.45031,0 -0.5998,0.55516 -0.3322,1.23369 0.26759,0.67852 0.63603,1.23369 0.81875,1.23369 0.18271,0 0.3322,-0.55517 0.3322,-1.23369 z m 3.23453,-1.81677 c -1.20168,-1.40884 -2.38924,-1.34881 -2.38924,0.12074 0,0.66527 0.72068,1.12975 1.64747,1.06183 1.24543,-0.0913 1.42645,-0.37986 0.74177,-1.18257 z m -9.28784,-12.11525 c 0.37561,-4.59528 -1.18415,-6.75261 -3.45608,-4.78013 -0.99869,0.86708 -1.47923,0.95993 -1.47923,0.28583 0,-0.54914 -0.38037,-0.76972 -0.84528,-0.49016 -0.4649,0.27956 -0.84527,0.13819 -0.84527,-0.31415 0,-0.45235 0.38037,-1.0512 0.84527,-1.33076 0.46491,-0.27957 0.84528,-0.0547 0.84528,0.49977 0,1.3269 1.12363,0.21081 1.35906,-1.34995 0.10069,-0.66758 -0.16391,-1.00514 -0.58799,-0.75012 -0.42409,0.25504 -0.77107,-0.062 -0.77107,-0.70448 0,-0.80255 -0.66139,-1.04516 -2.1132,-0.77511 -2.31305,0.43021 -2.66134,-0.11965 -1.10352,-1.74226 0.81386,-0.8477 1.71547,-0.66783 4.64902,0.92748 l 3.63937,1.97917 v -2.6384 c 0,-2.14375 -0.21762,-2.46265 -1.16078,-1.70103 -0.63843,0.51553 -1.77955,0.70631 -2.53583,0.42395 -1.45222,-0.54223 -1.90279,-1.98235 -0.62022,-1.98235 0.41517,0 0.97204,-0.55071 1.23749,-1.22381 0.27573,-0.69911 0.0513,-1.13989 -0.52345,-1.02806 -0.55336,0.10764 -1.14376,-0.68953 -1.31201,-1.77151 l -0.30589,-1.96725 2.29742,1.75836 c 2.57953,1.97426 5.58325,1.83239 8.09863,-0.38253 1.5009,-1.32163 1.58688,-1.31021 1.58688,0.21055 0,0.88435 -0.47548,2.09829 -1.05661,2.69766 -0.84528,0.8718 -0.84528,1.16514 0,1.46672 0.58113,0.20732 1.05661,0.67663 1.05661,1.04288 0,1.19189 -2.7198,1.71721 -3.91091,0.75539 -0.95045,-0.76752 -1.15843,-0.36032 -1.14783,2.24757 0.007,1.75169 0.29241,2.79827 0.63396,2.32573 0.34156,-0.47256 2.04742,-1.66291 3.79082,-2.64526 2.46433,-1.38855 3.16979,-1.5234 3.16979,-0.60591 0,0.7628 0.4974,0.99441 1.40658,0.65494 0.99401,-0.37114 1.21287,-0.22024 0.7462,0.51449 -0.36321,0.57183 -1.56674,0.87111 -2.6745,0.66505 -1.35732,-0.25246 -2.01411,0.007 -2.01411,0.79354 0,0.6425 -0.347,0.95952 -0.77109,0.70448 -0.87506,-0.52621 -0.71722,1.66001 0.1831,2.53602 0.86577,0.8424 0.71598,2.11692 -0.1851,1.57507 -0.42519,-0.25569 -0.94369,4e-5 -1.1522,0.5683 -0.2085,0.56825 -0.70546,0.7355 -1.10431,0.37162 -0.39886,-0.36386 -0.17666,-0.99141 0.49376,-1.39456 0.67042,-0.40316 0.96281,-0.98226 0.64973,-1.28688 -0.31307,-0.30464 -1.19539,0.0553 -1.96069,0.80002 -0.99058,0.96382 -1.30483,2.41378 -1.09076,5.03266 0.23427,2.86606 0.0179,3.67874 -0.97939,3.67874 -0.99589,0 -1.21384,-0.81073 -0.98165,-3.65132 z m -31.78525,-5.62355 c -0.0165,-1.70854 -0.47474,-3.62793 -1.01839,-4.26531 -0.70485,-0.82635 -0.73583,-1.61817 -0.10801,-2.75959 1.24021,-2.2548 2.35626,-2.49271 8.11228,-1.72925 3.06452,0.40645 5.38992,0.36353 5.87581,-0.10849 0.44227,-0.42962 0.82265,-2.25989 0.84528,-4.06726 0.0451,-3.60484 1.79275,-4.46357 3.94609,-1.93902 1.02536,1.20213 0.94299,1.28732 -0.74177,0.76704 -1.15546,-0.35683 -1.89526,-0.24263 -1.89526,0.29257 0,0.48284 0.3145,0.87789 0.69888,0.87789 0.88727,0 0.19899,5.02199 -0.86687,6.32513 -0.4405,0.53856 -1.2827,0.79929 -1.87159,0.57941 -1.53811,-0.57428 -2.74165,1.19137 -3.7028,5.43229 l -0.8388,3.70105 -0.0905,-3.17221 c -0.0736,-2.58464 -0.34742,-3.07628 -1.47754,-2.65432 -0.76285,0.28483 -2.27291,-0.0469 -3.35568,-0.73719 -1.55106,-0.98886 -1.87425,-1.01576 -1.52365,-0.12682 0.24472,0.62054 -0.0957,2.37978 -0.75628,3.90941 l -1.20123,2.78113 -0.0299,-3.10646 z m 28.5405,1.87278 c 0,-0.45236 0.38038,-0.82245 0.84527,-0.82245 0.46491,0 0.84529,0.37009 0.84529,0.82245 0,0.45235 -0.38038,0.82245 -0.84529,0.82245 -0.46489,0 -0.84527,-0.3701 -0.84527,-0.82245 z m 10.6361,-1.53454 c -0.36412,-0.57323 -0.43376,-1.26437 -0.15476,-1.53586 0.75649,-0.73607 1.58132,0.34651 1.17273,1.53918 -0.28632,0.83576 -0.48542,0.83512 -1.01797,-0.003 z m -15.70779,-1.60604 c 0,-0.99398 1.60368,-2.15285 2.18988,-1.58249 0.21275,0.20701 -0.19293,0.84454 -0.90153,1.41675 -0.80334,0.64871 -1.28835,0.71111 -1.28835,0.16574 z m 16.90559,-0.56048 c -0.58699,-0.68817 -0.67852,-1.23369 -0.207,-1.23369 0.4649,0 1.3188,0.55518 1.89756,1.23369 0.58698,0.68819 0.67851,1.23369 0.207,1.23369 -0.4649,0 -1.3188,-0.55515 -1.89756,-1.23369 z m 67.72591,-1.52347 c -0.5218,-0.61173 -1.18893,-3.34846 -1.48253,-6.08162 -0.64624,-6.01605 -0.43134,-6.18543 10.11812,-7.97544 3.9806,-0.67542 8.2015,-1.46345 9.37977,-1.7512 1.79767,-0.43901 2.28712,-0.15266 3.04225,1.77988 0.49495,1.26669 0.97614,4.16022 1.06931,6.43008 0.14175,3.454 -0.0898,4.17866 -1.4199,4.44358 -1.78249,0.35502 -3.02095,-1.08037 -3.05976,-3.54635 -0.0407,-2.58588 -1.29661,-3.93356 -3.13629,-3.36543 -1.31894,0.4073 -1.64208,1.22184 -1.58475,3.99466 0.0601,2.90497 -0.19606,3.48304 -1.54314,3.48304 -1.09262,0 -1.93739,-0.93127 -2.61125,-2.8786 -0.77019,-2.22576 -1.45824,-2.8786 -3.03389,-2.8786 -1.81502,0 -2.05114,0.38248 -2.15992,3.49863 -0.19771,5.66287 -1.44321,7.35023 -3.57802,4.84737 z m 29.26985,0.64481 c -1.14099,-1.13238 -0.66542,-3.57107 0.84527,-4.33462 1.54396,-0.78036 20.98096,-1.77383 22.82254,-1.1665 1.56391,0.51575 1.28138,3.32743 -0.42265,4.20599 -1.90544,0.9824 -22.40919,2.1248 -23.24516,1.29513 z M 49.588032,165.18548 c -1.162257,-0.45238 -4.585641,-1.32993 -7.607509,-1.95015 -3.021877,-0.62022 -6.159971,-1.37654 -6.973548,-1.68073 -1.851362,-0.69222 -1.905948,-3.53062 -0.115732,-6.01749 1.096408,-1.52308 2.048508,-1.85952 4.860356,-1.71747 5.602478,0.28303 10.394626,-0.1004 8.984532,-0.71889 -3.19854,-1.40292 -11.827276,-7.71879 -11.827276,-8.65704 0,-0.57521 0.519402,-1.73699 1.154232,-2.58173 1.120615,-1.49116 1.397597,-1.49354 9.509389,-0.0813 4.595327,0.80003 9.876649,1.69802 11.736269,1.99555 2.894751,0.46312 3.381113,0.83672 3.381113,2.59708 0,2.00244 -0.137975,2.04916 -5.282993,1.78853 -2.90565,-0.1472 -5.282993,-0.10709 -5.282993,0.0892 0,0.19622 2.092063,1.70832 4.649033,3.36022 4.705006,3.03961 5.989836,5.59985 3.311984,6.59969 -0.735381,0.27458 -3.420459,0.49923 -5.966834,0.49923 -5.382673,0 -5.386012,1.20991 -0.0061,1.99497 4.548452,0.66367 6.929164,2.2192 6.205339,4.0545 -0.614722,1.5587 -7.1526,1.8182 -10.729846,0.42587 z m 30.0074,-1.17607 c -1.859609,-0.63756 -5.568272,-1.73096 -8.241469,-2.42977 -3.865106,-1.01038 -4.860356,-1.60795 -4.860356,-2.91831 0,-2.54138 1.5567,-2.61878 9.959916,-0.49512 8.34454,2.10882 10.835205,1.72658 10.207377,-1.56659 -0.351828,-1.84546 -7.028763,-5.25448 -9.206289,-4.70041 -0.798569,0.20319 -3.044767,-0.42121 -4.991549,-1.38757 -2.757071,-1.36858 -3.481168,-2.15663 -3.27529,-3.56452 0.293942,-2.01014 1.518195,-2.11205 7.026547,-0.58495 1.859609,0.51556 4.988312,1.31215 6.952671,1.7702 4.95854,1.15626 8.684994,4.69922 8.684994,8.25736 0,3.532 -1.986431,6.29326 -5.577634,7.75324 -1.551478,0.63074 -2.928176,1.11955 -3.05933,1.08625 -0.131164,-0.0333 -1.759969,-0.58223 -3.619588,-1.21981 z M 183.14212,163.7941 c 0,-0.99398 1.60365,-2.15285 2.18986,-1.58248 0.21274,0.20702 -0.19293,0.84455 -0.90152,1.41675 -0.80335,0.64871 -1.28834,0.71111 -1.28834,0.16573 z m 13.54141,-0.54058 c -0.66671,-0.78167 -0.73085,-1.25357 -0.17034,-1.25357 1.02156,0 2.21259,1.56037 1.6264,2.13074 -0.21276,0.20701 -0.86798,-0.18772 -1.45606,-0.87717 z m -15.23199,-2.07602 c 0,-0.45235 0.59302,-0.82247 1.31782,-0.82247 0.7248,0 1.08272,0.37012 0.79539,0.82247 -0.28733,0.45235 -0.88034,0.82245 -1.31781,0.82245 -0.43747,0 -0.7954,-0.3701 -0.7954,-0.82245 z m 16.48295,0 c -0.28732,-0.45235 0.0705,-0.82247 0.79539,-0.82247 0.7248,0 1.31781,0.37012 1.31781,0.82247 0,0.45235 -0.35793,0.82245 -0.79539,0.82245 -0.43746,0 -1.03048,-0.3701 -1.31781,-0.82245 z m 96.99575,-1.37537 c -1.35801,-0.52262 -1.37015,-3.27372 -0.0181,-4.08682 1.10787,-0.66621 16.19873,-2.65748 20.63693,-2.72309 2.84841,-0.0421 4.36512,1.87092 2.87158,3.62193 -0.46226,0.54196 -5.12843,1.44402 -10.36926,2.00457 -5.24083,0.56056 -10.09935,1.14764 -10.7967,1.3046 -0.69736,0.15697 -1.7434,0.10245 -2.32452,-0.12119 z m -112.21077,-1.092 c -0.28733,-0.45234 -0.11959,-0.82245 0.37276,-0.82245 0.49234,0 0.89516,0.37011 0.89516,0.82245 0,0.45236 -0.16774,0.82246 -0.37275,0.82246 -0.20501,0 -0.60784,-0.3701 -0.89517,-0.82246 z m 5.14291,0.11215 c -0.24815,-0.39066 1.05111,-0.7103 2.88725,-0.7103 1.83611,0 3.13538,0.31964 2.88722,0.7103 -0.24813,0.39067 -1.5474,0.71031 -2.88722,0.71031 -1.33985,0 -2.63911,-0.31964 -2.88725,-0.71031 z m 9.64947,-0.0152 c 0,-0.45234 0.38038,-1.05119 0.84528,-1.33075 0.4649,-0.27958 0.84528,-0.1382 0.84528,0.31415 0,0.45235 -0.38038,1.05117 -0.84528,1.33075 -0.4649,0.27957 -0.84528,0.1382 -0.84528,-0.31415 z m -7.87166,-1.45069 c -1.03159,-1.00376 -0.62162,-1.58373 1.11949,-1.58373 0.93534,0 1.57723,0.3602 1.42641,0.80044 -0.36009,1.05107 -1.81167,1.49769 -2.5459,0.78329 z m 10.46917,-4.45195 c -1.63352,-1.97781 -2.23315,-3.24145 -1.53815,-3.24145 0.97879,0 3.84499,-2.22141 13.00989,-10.08313 1.43779,-1.23334 1.94659,-1.32952 2.46004,-0.46503 0.35602,0.59946 0.33606,0.81555 -0.0443,0.48023 -1.52019,-1.33999 -2.8322,1.05563 -2.04353,3.73134 1.11235,3.77377 0.95634,5.51414 -0.49427,5.51414 -0.69736,0 -1.28275,0.46262 -1.30089,1.02807 -0.0181,0.56543 -1.68414,2.20914 -3.70225,3.65267 l -3.66928,2.62458 z m -50.67745,-0.77407 c -1.9162,-1.80942 -3.88118,-3.28983 -4.36663,-3.28983 -0.56638,0 -0.66091,-1.10501 -0.26383,-3.08421 0.34033,-1.69632 0.62927,-3.70471 0.64208,-4.46312 0.0129,-0.7584 0.41724,-1.14646 0.89876,-0.86234 1.51317,0.89284 11.85266,9.48726 12.0982,10.0563 0.38668,0.89611 -3.23034,4.93301 -4.41993,4.93301 -0.60755,0 -2.67244,-1.48042 -4.58865,-3.28981 z m 17.27702,-0.41106 c -0.90244,-0.67862 -1.28281,-1.2451 -0.84528,-1.25887 0.43754,-0.0138 0.12685,-0.40389 -0.69041,-0.86696 -0.81726,-0.46308 -1.82344,-0.63901 -2.23595,-0.39096 -0.41251,0.24808 -0.97622,-0.12256 -1.2527,-0.82361 -0.35314,-0.89541 0.26202,-1.53402 2.06777,-2.1465 1.41376,-0.47954 2.41362,-1.02449 2.22191,-1.21102 -0.1917,-0.18653 -1.41419,0.0551 -2.71663,0.53688 -1.34168,0.49634 -2.68661,0.56609 -3.103,0.16094 -1.4022,-1.36433 -1.47038,-11.10771 -0.0976,-13.93738 0.71132,-1.46614 1.63193,-2.4621 2.04581,-2.21321 0.41388,0.24889 0.75251,0.0273 0.75251,-0.49224 0,-1.16587 3.41988,-4.02239 4.86035,-4.0597 0.58112,-0.0152 1.0566,-0.39746 1.0566,-0.8498 0,-0.45235 0.58724,-0.82245 1.30497,-0.82245 0.71774,0 1.24323,0.46262 1.16776,1.02805 -0.31913,2.39126 0.1212,3.96882 0.966,3.4608 0.4966,-0.29864 0.68249,-1.10191 0.41306,-1.78505 -0.33733,-0.8553 -0.1005,-1.09666 0.76058,-0.77516 0.68774,0.25678 1.51158,0.0557 1.83075,-0.44673 0.35141,-0.55325 0.19537,-0.68213 -0.39556,-0.32678 -0.53674,0.32277 -0.97589,0.16996 -0.97589,-0.33957 0,-0.58899 0.6927,-0.70937 1.90188,-0.33049 2.31751,0.72614 2.92336,0.71706 6.04302,-0.0906 1.77506,-0.45955 2.28325,-0.37095 1.84347,0.32138 -0.3339,0.52571 -1.01998,0.70756 -1.52459,0.40411 -0.53473,-0.32155 -0.67538,-0.17058 -0.33716,0.3619 0.31917,0.50248 1.20473,0.68046 1.9679,0.39552 1.03565,-0.3867 1.25255,-0.17565 0.85513,0.83203 -0.29286,0.74258 -0.20856,1.54492 0.18732,1.78297 0.85397,0.51353 1.94173,-1.86804 1.30853,-2.86492 -0.24154,-0.38027 -0.0634,-0.91741 0.39602,-1.19365 1.03348,-0.62147 4.89292,1.70473 7.43282,4.48 1.04548,1.14235 1.922,1.70689 1.94785,1.25454 0.0259,-0.45234 0.72369,0.84302 1.55074,2.8786 0.9951,2.44912 1.23046,4.04881 0.69582,4.72912 -0.53685,0.68312 -0.47961,1.02806 0.17057,1.02806 0.65761,0 0.72955,0.47203 0.21936,1.43931 -0.41753,0.79161 -0.68424,2.27769 -0.59268,3.30242 0.0916,1.02471 -0.41397,2.32007 -1.12339,2.8786 -1.05474,0.83035 -1.15944,0.80489 -0.57438,-0.13969 0.49157,-0.7936 0.40304,-0.96725 -0.28278,-0.55481 -0.54909,0.33016 -0.89314,1.18485 -0.76457,1.89929 0.14402,0.80042 -0.80354,1.71774 -2.46881,2.39 -2.3073,0.93146 -2.88695,0.91164 -3.96318,-0.13555 -1.11733,-1.08716 -1.2455,-1.03109 -1.12747,0.49336 0.1105,1.42744 0.53577,1.64161 2.50064,1.25924 1.91163,-0.372 2.17066,-0.25568 1.34524,0.60406 -1.34685,1.40288 -6.43958,1.57328 -9.38949,0.31414 -2.27192,-0.96974 -2.30272,-1.06514 -0.94838,-2.9366 0.86911,-1.20094 1.61406,-1.59698 1.96492,-1.04461 0.35785,0.56337 1.73321,-0.0472 3.75012,-1.66483 2.84342,-2.28049 3.14087,-2.87333 2.77326,-5.52749 -0.22977,-1.65903 0.0263,-3.5005 0.57936,-4.16649 0.54512,-0.6564 0.61075,-0.97621 0.14584,-0.71069 -0.46489,0.26554 -1.33574,-0.0335 -1.9352,-0.66458 -0.59945,-0.63104 -0.83343,-1.14735 -0.51996,-1.14735 0.31348,0 -0.43439,-0.76869 -1.6619,-1.70818 -1.64283,-1.25736 -3.40185,-1.69506 -6.66491,-1.65847 -6.42676,0.072 -7.27095,0.22974 -7.75125,1.44758 -0.23787,0.60314 -1.30027,1.10227 -2.3609,1.10921 -1.41084,0.009 -1.61916,0.20323 -0.77616,0.72289 0.87316,0.53826 0.89961,0.79225 0.10918,1.0486 -0.65741,0.21323 -1.08786,2.20564 -1.16419,5.38861 -0.0666,2.77766 0.0263,4.90686 0.20648,4.73155 0.62452,-0.60765 6.03588,3.92314 6.03588,5.05371 0,0.62483 0.39375,1.13605 0.87502,1.13605 0.60317,0 0.60317,-0.49422 0,-1.59082 -1.42265,-2.58649 -0.94845,-3.08424 0.89051,-0.93473 1.47479,1.72382 1.53453,2.0931 0.43537,2.69161 -2.53319,1.37936 -7.64923,1.51381 -9.33601,0.24537 z m 2.51521,-1.4318 c -1.59784,-0.87003 -2.59058,-0.35068 -1.77727,0.92975 0.2939,0.46269 1.13439,0.61723 1.86773,0.34342 1.19092,-0.44467 1.18126,-0.58069 -0.0905,-1.27317 z m 13.91798,0.19793 c 0,-0.45234 -0.16774,-0.82245 -0.37276,-0.82245 -0.20502,0 -0.60784,0.37011 -0.89517,0.82245 -0.28733,0.45236 -0.11959,0.82245 0.37275,0.82245 0.49235,0 0.89518,-0.37009 0.89518,-0.82245 z m -12.6792,-1.6449 c 0,-0.45234 -0.16773,-0.82246 -0.37275,-0.82246 -0.20501,0 -0.60783,0.37012 -0.89516,0.82246 -0.28733,0.45235 -0.11959,0.82245 0.37275,0.82245 0.49234,0 0.89516,-0.3701 0.89516,-0.82245 z m -2.80369,-1.79912 c -0.26984,-0.65609 -0.47013,-0.46123 -0.51069,0.4969 -0.0366,0.867 0.16309,1.35276 0.44396,1.07947 0.28088,-0.2733 0.3109,-0.98266 0.0667,-1.57637 z m 21.97725,0 c -0.26983,-0.65609 -0.47012,-0.46123 -0.51068,0.4969 -0.0367,0.867 0.16308,1.35276 0.44396,1.07947 0.28088,-0.2733 0.3109,-0.98266 0.0667,-1.57637 z m 2.8037,-2.64739 c 0,-0.72872 0.59021,-1.0065 1.59515,-0.7508 0.87735,0.22322 1.89068,-0.0594 2.25187,-0.62799 0.45562,-0.7173 0.24741,-0.88106 -0.67993,-0.53482 -0.78099,0.29161 -1.53738,-0.01 -1.81953,-0.72539 -0.2656,-0.67346 -0.16294,-1.03206 0.22815,-0.79687 0.39109,0.23517 1.43276,-0.13487 2.31484,-0.82233 1.54836,-1.20675 1.54049,-1.2331 -0.22806,-0.76234 -1.52609,0.40624 -1.75652,0.20743 -1.38065,-1.19108 0.34624,-1.2883 0.0467,-1.67871 -1.28808,-1.67871 -0.95661,0 -1.97167,0.36586 -2.2557,0.81304 -0.28839,0.45402 0.0251,0.61085 0.70989,0.35515 0.67448,-0.25182 1.51376,-0.006 1.86507,0.54772 0.43536,0.68542 0.28642,0.79376 -0.46775,0.34025 -0.73215,-0.44029 -0.90243,-0.34417 -0.50335,0.28414 1.03521,1.62979 -0.32992,2.7963 -1.89642,1.62048 -1.28184,-0.96215 -1.2805,-0.91194 0.0155,0.57742 1.0329,1.18699 1.19411,2.02309 0.59197,3.07003 -0.55654,0.96768 -0.53697,1.43879 0.0597,1.43879 0.48801,0 0.88728,-0.52052 0.88728,-1.15669 z m -27.55819,-1.79885 c 0.22483,-0.57006 -0.14788,-1.48598 -0.82825,-2.03539 -1.01443,-0.81919 -1.14122,-0.756 -0.70459,0.3511 0.36235,0.91879 0.0826,1.35002 -0.87583,1.35002 -0.77452,0 -1.21234,0.30841 -0.97289,0.68535 0.66628,1.04897 2.92176,0.8148 3.38156,-0.35108 z m -1.96792,-3.82973 c 1.37952,-1.59795 1.72405,-1.68214 2.52437,-0.61684 0.82381,1.09662 0.88843,1.09662 0.58152,0 -0.18992,-0.67851 -1.32613,-1.27058 -2.52492,-1.31567 -1.50307,-0.0565 -2.04373,0.26257 -1.74183,1.02807 0.2408,0.61053 0.0167,1.11007 -0.49792,1.11007 -0.51464,0 -0.93571,0.37011 -0.93571,0.82244 0,1.31086 0.87442,0.96438 2.59449,-1.02807 z m 0.6475,-4.40193 c 0.30896,0.18559 0.60873,-0.64484 0.66614,-1.84541 0.0574,-1.20055 -0.0701,-1.71788 -0.2835,-1.14963 -0.21335,0.56826 -0.73144,0.82663 -1.15131,0.57413 -0.41987,-0.25249 -0.53687,0.1153 -0.26,0.81733 0.27757,0.70382 0.0614,1.2764 -0.48222,1.2764 -0.55167,0 -0.70942,0.43478 -0.35831,0.98757 0.48738,0.7673 0.70313,0.76615 0.96736,-0.005 0.18703,-0.54599 0.59287,-0.84086 0.90184,-0.65527 z m 32.58226,0.0413 c 0.28864,-0.7319 0.14694,-1.06205 -0.33221,-0.77389 -0.45958,0.27634 -0.8356,0.85074 -0.8356,1.27639 0,1.18304 0.60586,0.92235 1.16781,-0.5025 z m -2.19108,-2.34168 c -0.59946,-0.63291 -1.22311,-1.02764 -1.3859,-0.87718 -0.50136,0.46342 0.76932,2.02792 1.64709,2.02792 0.4558,0 0.33826,-0.51784 -0.26119,-1.15074 z m -2.5211,-2.57209 c -0.26025,-0.25323 -0.7329,0.20325 -1.05033,1.01435 -0.45871,1.17218 -0.36162,1.26665 0.47319,0.46041 0.57768,-0.55789 0.83739,-1.22152 0.57714,-1.47476 z m -20.96873,-2.33296 c 0,-0.39893 -0.51046,-0.31311 -1.13436,0.1907 -0.62391,0.50383 -1.38466,0.67251 -1.69057,0.37487 -0.30589,-0.29766 -0.55618,0.0788 -0.55618,0.83655 0,1.17184 0.25263,1.22421 1.69056,0.35047 0.9298,-0.56499 1.69055,-1.35367 1.69055,-1.75259 z m 6.36196,1.27984 c -0.26025,-0.25322 -0.9423,-5.3e-4 -1.51569,0.56156 -0.82859,0.81227 -0.7315,0.90674 0.47319,0.46041 0.83363,-0.30885 1.30276,-0.76873 1.0425,-1.02197 z m 11.38891,-0.20737 c 0,-0.9314 -0.36378,-1.47473 -0.80838,-1.20735 -0.44459,0.26735 -0.59408,1.02943 -0.33219,1.69344 0.6705,1.70012 1.14057,1.49977 1.14057,-0.48609 z m 1.42269,-0.10568 c -0.26983,-0.65609 -0.47012,-0.46122 -0.51068,0.49689 -0.0367,0.86702 0.16308,1.35279 0.44396,1.07949 0.28088,-0.27331 0.3109,-0.98267 0.0667,-1.57638 z m 92.61458,23.46072 c -0.58113,-0.22815 -1.06242,-1.03167 -1.06954,-1.78559 -0.0312,-3.3083 -1.11386,-3.42813 -8.46874,-0.93746 -8.92327,3.02176 -10.95973,3.1199 -10.95973,0.52813 0,-2.25769 1.62732,-3.13646 9.31486,-5.03006 6.84738,-1.68668 7.96346,-2.3472 7.99126,-4.72947 0.0352,-3.01931 2.37858,-2.23248 4.1576,1.396 0.88716,1.80941 1.79438,5.04783 2.01607,7.1965 0.4076,3.95026 -0.0807,4.50093 -2.98178,3.36195 z m 9.86701,-2.68185 c -3.94157,-3.83515 -3.08137,-9.9004 1.80221,-12.70732 3.54272,-2.03622 9.99447,-3.78591 13.9978,-3.79617 7.94458,-0.0202 11.77225,7.86293 6.46805,13.32122 -2.60368,2.6793 -10.97804,5.58635 -16.0926,5.58635 -2.96758,0 -4.19623,-0.47829 -6.17546,-2.40408 z m 15.914,-5.07999 c 3.80665,-1.66505 4.67001,-3.78116 2.31769,-5.68071 -2.84426,-2.2968 -14.88254,1.17594 -15.51142,4.47464 -0.73874,3.87483 5.7387,4.46695 13.19373,1.20607 z m -224.588989,2.7253 c -2.067927,-0.77529 -5.015837,-2.62479 -6.550912,-4.11002 -2.335446,-2.2596 -2.791043,-3.30619 -2.791043,-6.41142 0,-5.77028 4.520044,-9.16528 9.651563,-7.24931 2.369327,0.88466 1.540782,3.31825 -1.410093,4.14171 -2.273796,0.63451 -2.747164,1.17115 -2.747164,3.11442 0,3.05796 3.270806,5.45484 8.178149,5.99304 4.917776,0.53932 6.59964,-1.09606 4.091123,-3.97812 l -1.703287,-1.95695 -1.688573,1.93926 c -2.037446,2.33992 -4.228379,1.80508 -4.228379,-1.03224 0,-2.23538 1.667878,-4.22918 4.189155,-5.0078 1.986259,-0.61337 5.647783,1.12899 8.40283,3.99859 1.912182,1.99168 1.959634,2.27986 0.844706,5.13015 -2.245206,5.73977 -7.779789,7.85 -14.238075,5.42869 z m 175.347469,-5.12301 c -0.37471,-1.14874 0.25623,-2.63615 2.05623,-4.84747 2.53249,-3.1112 3.38161,-5.83213 1.82004,-5.83213 -0.42722,0 -1.88465,0.61869 -3.23875,1.37484 -2.82192,1.57583 -5.54351,0.96239 -5.12442,-1.15503 0.31541,-1.59357 14.65661,-10.80546 16.92316,-10.87038 1.7871,-0.0512 5.74126,6.29229 5.74126,9.21043 0,2.57037 -4.29885,6.37488 -7.20319,6.37488 -1.28082,0 -3.28586,1.33301 -5.56697,3.70105 -4.00969,4.16253 -4.6387,4.40027 -5.40736,2.04381 z m 12.93679,-11.66653 c 1.61925,-1.57552 1.17706,-3.12639 -0.88755,-3.11273 -2.69987,0.0178 -4.34898,1.24429 -3.74212,2.78301 0.61158,1.55073 3.18631,1.73411 4.62967,0.32972 z m -140.47429,11.52842 c 0.24413,-0.38435 0.79796,-0.48587 1.23073,-0.22562 1.10596,0.66505 0.98142,0.92441 -0.44387,0.92441 -0.67689,0 -1.03099,-0.31446 -0.78686,-0.69879 z m -78.706541,-2.65193 c -11.503703,-3.73928 -11.411269,-3.69132 -11.411269,-5.92136 0,-2.80609 2.3459,-2.58953 14.092744,1.30101 10.971286,3.63366 12.055419,4.27214 10.450072,6.15422 -1.541946,1.80778 -3.585443,1.56907 -13.131547,-1.53387 z m 90.585731,0.6092 c -0.30993,-0.30156 -0.56353,-0.93074 -0.56353,-1.39818 0,-0.51535 0.39371,-0.46678 1.00026,0.12337 0.55014,0.53528 0.80372,1.16446 0.56352,1.39817 -0.2402,0.23373 -0.69032,0.17821 -1.00025,-0.12336 z m -87.594962,-8.81382 c -10.363335,-5.60317 -12.831817,-7.84238 -11.005684,-9.98334 0.82981,-0.97286 2.629326,-1.20137 8.093243,-1.02779 3.864397,0.12277 6.758977,0.0101 6.432398,-0.25058 -0.326568,-0.2606 -2.780933,-1.85333 -5.454129,-3.53939 -5.117675,-3.22792 -6.605824,-6.26751 -3.0685,-6.26751 1.754625,0 21.302966,10.76938 22.247475,12.25635 0.263582,0.41497 0.247127,1.34305 -0.03664,2.0624 -0.415644,1.05388 -1.913812,1.30791 -7.713758,1.30791 -8.343862,0 -8.447803,0.84806 -0.563961,4.60113 2.508911,1.19435 4.561658,2.60924 4.561658,3.14422 0,1.20778 -1.726239,2.94854 -2.916216,2.94077 -0.488152,-0.003 -5.247329,-2.36304 -10.575963,-5.24411 z m 33.567542,-1.85036 c -4.532805,-3.36309 -8.241468,-6.71156 -8.241468,-7.44104 0,-1.90929 5.893727,-10.27698 6.988446,-9.92192 2.279756,0.73941 2.57985,2.86743 0.755864,5.35983 -2.247636,3.07127 -2.285343,4.00284 -0.205859,5.0857 1.330693,0.69293 2.003078,0.40312 3.749183,-1.61598 3.761711,-4.34986 6.957388,-2.7071 3.948585,2.02978 -1.524985,2.40087 -1.628218,3.06446 -0.701359,4.50851 1.541784,2.40211 3.450384,2.09915 5.228688,-0.83001 0.84255,-1.3878 2.296,-2.79831 3.2299,-3.13447 1.49144,-0.53681 0.80505,-1.42405 -5.641992,-7.29308 -5.639395,-5.1338 -7.275748,-7.10805 -7.062726,-8.52112 0.152497,-1.01154 0.723188,-1.98195 1.268204,-2.15645 0.545017,-0.17451 4.1727,2.43713 8.061504,5.80364 l 7.07058,6.12093 2.70435,-2.3511 c 2.67353,-2.32428 5.26308,-2.48365 5.26308,-0.32388 0,1.36344 -6.52605,9.4441 -7.62716,9.4441 -0.45411,0 -0.82564,0.57103 -0.82564,1.26897 0,1.97228 -6.79908,10.25524 -8.34303,10.16385 -0.757726,-0.0448 -5.086344,-2.83316 -9.61915,-6.19626 z m 196.59656,4.1579 c -0.80319,-2.03657 1.16017,-3.23259 11.08876,-6.75502 9.61702,-3.41188 11.71877,-3.5589 11.28662,-0.78943 -0.19703,1.26264 -2.46681,2.47027 -9.85129,5.24129 -10.60114,3.97805 -11.77816,4.19451 -12.52409,2.30316 z m -69.47972,-3.48044 c -5.18143,-5.284 -17.06503,-12.38127 -23.59186,-14.08975 -4.70079,-1.23051 -18.28005,-1.21268 -24.78501,0.0326 -5.7374,1.09828 -16.61554,7.06364 -22.51002,12.34404 -4.08471,3.65916 -6.17009,3.9822 -8.71917,1.35072 -3.97803,-4.10664 -3.90438,-4.42889 2.30265,-10.07301 6.68816,-6.08166 12.30625,-9.58733 19.34548,-12.07156 4.44232,-1.56775 6.74994,-1.76788 20.22934,-1.75439 13.02187,0.0132 15.88516,0.25042 19.86406,1.64685 3.93762,1.38193 4.69105,1.97748 4.92362,3.89187 0.26185,2.15546 0.34813,2.1955 1.8607,0.86362 1.49751,-1.31866 1.71282,-1.2997 3.85448,0.33946 1.24761,0.95486 2.6201,1.73612 3.04998,1.73612 1.20716,0 8.28848,5.99003 8.28848,7.01116 0,0.4981 1.14111,1.96938 2.53583,3.26953 1.39471,1.30014 2.53584,2.86755 2.53584,3.48315 0,1.16746 -4.10789,5.08143 -5.38064,5.12665 -0.40239,0.0144 -2.11408,-1.38384 -3.80376,-3.10699 z m 31.90645,-3.45217 c -2.24525,-1.27647 -3.48765,-5.11485 -2.48559,-7.67928 1.21456,-3.10826 8.02358,-10.00044 11.43662,-11.5763 4.40592,-2.0343 8.88391,0.37739 10.19555,5.49096 0.70665,2.755 -0.89067,5.48282 -5.82449,9.94671 -4.96998,4.49663 -9.72917,5.86054 -13.32209,3.81791 z m 8.05788,-5.79 c 5.30737,-3.48519 7.45923,-6.28292 6.36399,-8.27413 -1.21963,-2.21736 -3.31738,-1.93456 -7.41864,1.0001 -4.28141,3.06357 -6.26906,6.3265 -5.09613,8.36584 1.10419,1.91977 1.73518,1.80776 6.15078,-1.09181 z m 24.66097,1.62011 c -4.75904,-5.5031 -1.45538,-11.91282 8.46639,-16.42637 7.31679,-3.3285 10.43192,-3.21986 13.7708,0.48023 1.44287,1.59894 2.6234,3.40429 2.6234,4.01182 0,1.82245 -2.43789,6.92418 -3.64808,7.63427 -0.62065,0.36417 -1.37309,1.3098 -1.67213,2.10142 -0.29903,0.79162 -1.12618,1.4393 -1.83814,1.4393 -1.73074,0 -1.75165,-5.18657 -0.0265,-6.57964 1.59718,-1.28976 1.64181,-4.43142 0.0807,-5.6919 -2.16539,-1.74861 -9.01247,0.75886 -12.73298,4.66293 -2.47409,2.59614 -2.646,3.70919 -0.84375,5.46279 0.98081,0.95434 1.81749,1.06878 3.43615,0.46997 2.77703,-1.02732 2.67338,-1.04968 3.68872,0.79626 1.31889,2.39783 -0.99603,4.16941 -5.44812,4.16941 -3.05848,0 -4.03202,-0.42066 -5.85659,-2.53049 z M 65.225697,112.18654 c -4.649043,-2.96528 -9.308641,-6.17357 -10.354672,-7.12954 -2.16357,-1.97728 -2.4548,-3.76393 -0.719169,-4.41198 1.385927,-0.51747 22.4851,12.64848 22.4851,14.03076 0,0.96741 -1.670863,2.9152 -2.49357,2.90686 -0.255698,-0.003 -4.268656,-2.43083 -8.917689,-5.3961 z m 174.611193,2.16514 c -1.02808,-0.63305 -0.93419,-1.65606 0.63397,-6.90729 1.01242,-3.39028 1.82867,-6.47369 1.81387,-6.85199 -0.0148,-0.37831 -1.82158,1.27922 -4.01507,3.68338 -2.94866,3.23187 -4.37374,4.2272 -5.46741,3.81868 -0.81359,-0.3039 -1.47924,-1.02567 -1.47924,-1.60392 0,-1.46135 14.24746,-16.866674 15.59897,-16.866674 0.60478,0 1.56335,0.543691 2.13015,1.208195 0.82177,0.963449 0.6715,2.289527 -0.74178,6.546005 -0.97478,2.935794 -1.77233,5.585134 -1.77233,5.887414 0,0.3023 1.69655,-0.97196 3.7701,-2.8317 2.35801,-2.11484 4.25762,-3.199298 5.07168,-2.89535 1.90537,0.711415 1.59593,2.225989 -0.91623,4.48452 -1.21979,1.09664 -4.27899,4.49209 -6.79823,7.54546 -4.58884,5.56177 -5.58033,6.16758 -7.82845,4.78327 z M 73.8381,108.86602 c -1.682146,-0.88728 -2.299388,-1.77855 -2.113203,-3.05128 0.23386,-1.59852 0.702806,-1.7711 4.228491,-1.55619 3.323075,0.20258 4.121362,-0.0416 4.927734,-1.5077 0.776064,-1.41095 0.678538,-2.05448 -0.50404,-3.325937 -1.580382,-1.699144 -4.161639,-2.086571 -5.009423,-0.751873 -1.043339,1.64259 -8.092433,4.20127 -9.977007,3.62145 -5.618416,-1.72859 -8.002347,-5.376184 -6.468729,-9.897641 1.189743,-3.50761 4.529466,-6.066318 7.896997,-6.050213 3.56825,0.0171 4.949503,1.027082 4.608999,3.370241 -0.236451,1.627121 -0.77414,1.963128 -3.141494,1.963128 -3.717822,0 -5.38405,2.204172 -3.241864,4.28852 1.205673,1.173111 1.752642,1.255077 2.944147,0.441182 2.824226,-1.929176 8.573786,-4.318475 10.391872,-4.318475 2.766159,0 8.400423,5.867825 8.396567,8.744638 -0.0041,3.14903 -2.863168,7.55474 -5.546575,8.54743 -2.927429,1.08294 -4.577576,0.96748 -7.392472,-0.51728 z m 200.06605,0.11474 c -0.26127,-0.66246 0.36904,-2.35788 1.40068,-3.76757 1.66361,-2.27324 1.74806,-2.79521 0.74678,-4.61558 -0.90745,-1.649804 -1.55017,-1.947863 -3.27605,-1.519208 -4.29221,1.066078 -6.31702,0.874786 -6.6261,-0.625979 -0.23676,-1.149619 2.29958,-2.654672 12.17449,-7.224359 11.21301,-5.188879 12.60466,-5.644652 13.77082,-4.509976 1.61914,1.575423 0.82594,3.01194 -8.30304,15.036992 -6.21263,8.18353 -8.77215,10.05398 -9.88758,7.22568 z m 8.98087,-13.700407 c 0,-0.991544 -2.31474,-0.912745 -2.95847,0.100701 -0.91363,1.43836 0.44118,2.653792 1.76581,1.58414 0.65595,-0.529703 1.19266,-1.287883 1.19266,-1.684841 z M 118.57039,108.68535 c -0.81888,-1.28918 -7.27699,-20.753531 -7.27699,-21.932373 0,-1.573283 3.09412,-3.125166 4.59412,-2.304225 0.65483,0.358385 3.9398,3.057291 7.2999,5.997569 6.54463,5.726882 9.23795,7.77593 9.23795,7.028138 0,-0.256986 -1.70794,-4.601581 -3.79544,-9.654667 -3.51631,-8.511782 -3.6955,-9.294882 -2.43643,-10.648578 2.10907,-2.26756 9.15845,-4.291031 11.21617,-3.219511 2.59264,1.350078 4.31377,4.237538 4.31377,7.237017 0,2.575898 3.67819,9.257601 5.09619,9.257601 0.35481,0 -0.27759,-3.423471 -1.40536,-7.607714 -1.12777,-4.184241 -1.94408,-8.71803 -1.81405,-10.075081 0.20731,-2.163684 0.7566,-2.636398 4.46281,-3.840728 5.4692,-1.777203 7.72426,-1.82224 8.37694,-0.167304 0.75003,1.901756 -0.78009,3.338537 -4.22508,3.967379 -3.34195,0.610022 -4.55886,2.464488 -2.7635,4.211367 0.89214,0.868052 1.87887,0.974263 3.8753,0.417158 1.9882,-0.554812 2.92632,-0.456753 3.64049,0.380542 1.28144,1.50233 0.35547,2.772661 -3.0219,4.14571 -2.50357,1.017813 -2.71959,1.364536 -2.12549,3.41152 0.36372,1.25321 1.06773,2.194436 1.56447,2.091621 6.16353,-1.275695 7.54426,-1.192486 7.99422,0.481753 0.25143,0.93546 0.0209,2.039878 -0.51219,2.454248 -1.59974,1.243372 -10.4469,3.458516 -11.79814,2.953997 -0.69122,-0.258078 -1.50787,-0.07394 -1.81479,0.409287 -1.11984,1.763024 -3.61937,0.802307 -6.27356,-2.411301 -4.38059,-5.303859 -7.12669,-4.11184 -4.71026,2.044617 1.70658,4.347985 1.20133,6.17994 -1.70444,6.17994 -1.17685,0 -2.13973,0.330507 -2.13973,0.734458 0,1.49887 -2.82086,1.73687 -4.37423,0.36904 -1.25014,-1.100816 -2.08972,-1.230517 -3.89284,-0.601383 -2.30916,0.805723 -2.78324,2.476563 -1.51929,5.354643 0.91866,2.09181 -2.88034,5.20604 -4.06862,3.33526 z m 1.33077,-14.304953 c -0.60654,-0.590162 -1.00025,-0.638719 -1.00025,-0.123368 0,1.097797 0.99964,2.07044 1.56376,1.521542 0.2402,-0.233709 -0.0134,-0.862887 -0.56351,-1.398174 z m 15.41356,-11.012944 c 0.73538,-0.274567 1.33704,-1.384884 1.33704,-2.467366 0,-1.557558 -0.44637,-1.968143 -2.13971,-1.968143 -2.26522,0 -3.43549,1.649203 -2.62627,3.701048 0.5268,1.335767 1.34761,1.511584 3.42894,0.734461 z m 89.37842,18.689467 c -0.72343,-0.44562 -1.03021,-1.84403 -0.84528,-3.853074 0.27086,-2.942722 0.1061,-3.205611 -2.4642,-3.931668 -2.17553,-0.61453 -3.07786,-0.493333 -4.29296,0.576624 -0.84616,0.745088 -2.17417,1.354708 -2.95114,1.354708 -2.5828,0 -1.49505,-3.183307 2.60239,-7.615907 2.20829,-2.388919 5.32183,-5.895583 6.91897,-7.792569 3.58733,-4.260779 4.5437,-4.641889 6.93015,-2.761623 l 1.88653,1.486357 -1.45632,6.491346 c -0.80097,3.570239 -1.94065,8.688939 -2.53262,11.374881 -1.10466,5.012005 -1.81756,5.889325 -3.79552,4.670925 z m 1.00345,-13.425207 c 0.26823,-0.998034 0.35787,-1.940922 0.1992,-2.095305 -0.58857,-0.572684 -3.02326,2.425726 -2.56081,3.153764 0.82278,1.295343 1.85309,0.833559 2.36161,-1.058459 z m 35.43313,5.0009 c -2.90619,-0.807751 -5.29361,-4.149355 -5.29361,-7.409288 0,-5.553715 9.08681,-15.76242 14.98922,-16.839819 3.98006,-0.726501 8.26891,1.464512 9.47918,4.842536 1.20412,3.360882 1.1443,3.878684 -0.80803,6.994367 -1.47395,2.352231 -1.91688,2.58242 -3.4415,1.788504 -1.46601,-0.763404 -1.66287,-1.411828 -1.21381,-3.998047 1.09475,-6.304813 -3.39633,-6.090423 -9.84842,0.470131 -3.54002,3.599527 -4.48063,7.39617 -2.1831,8.811789 1.10222,0.679134 1.85626,0.649148 2.95848,-0.117659 2.75856,-1.919126 3.72076,-2.068691 5.04148,-0.783645 3.36549,3.274623 -3.7792,7.881181 -9.67989,6.241131 z m -176.287433,-7.399642 -7.1475,-7.503172 -2.581096,1.85676 c -2.623802,1.887486 -5.238961,1.771906 -5.238961,-0.231538 0,-1.718316 10.159632,-12.115 11.838763,-12.115 2.111077,0 2.768445,2.270643 1.26288,4.362106 -0.69725,0.968598 -1.267738,2.074292 -1.267738,2.457094 0,0.382813 2.943418,3.649894 6.540934,7.260187 3.597517,3.61029 6.860763,7.12021 7.251644,7.79983 0.801272,1.393133 -0.684094,3.616904 -2.41591,3.616904 -0.602537,0 -4.311888,-3.376426 -8.243016,-7.503171 z m 117.549183,5.708902 c -0.56347,-1.644786 6.19306,-20.495041 7.52424,-20.992067 0.64851,-0.242139 2.89611,0.02747 4.99466,0.599191 4.99849,1.361699 6.91373,4.514196 5.51071,9.070617 -1.22992,3.99424 -4.25891,5.953148 -8.11638,5.249026 -2.63769,-0.481475 -3.00405,-0.309514 -3.87173,1.817331 -0.52709,1.292021 -1.24186,2.90428 -1.58836,3.582804 -0.8093,1.584817 -3.97677,2.063582 -4.45314,0.673098 z m 13.55649,-14.093648 c -0.38186,-2.60988 -3.84359,-2.905644 -4.83927,-0.413447 -0.56309,1.409425 -0.42069,2.168856 0.54464,2.904592 1.88015,1.43298 4.63497,-0.164993 4.29463,-2.491145 z m -49.28879,11.460237 c -3.17723,-1.350505 -4.58103,-3.865912 -5.35165,-9.589363 -0.86189,-6.401378 0.0291,-11.426779 2.3503,-13.255591 4.16033,-3.277872 10.82932,-0.926512 12.65621,4.462356 0.496,1.463066 1.08228,6.268642 1.30283,10.679059 l 0.40101,8.018943 h -3.28569 c -1.80714,0 -3.79228,0.171555 -4.41144,0.381241 -0.61916,0.209675 -2.26686,-0.103811 -3.66157,-0.696645 z m 3.35633,-6.188263 c 0.28148,-0.862911 1.02436,-1.760318 1.65086,-1.994232 0.82643,-0.30857 1.01899,-1.514562 0.70155,-4.393872 -0.55415,-5.026387 -1.52375,-6.847163 -3.64621,-6.847163 -2.26369,0 -3.57283,3.538475 -3.10878,8.40288 0.51558,5.404774 3.24031,8.395512 4.40258,4.832387 z m 26.22375,6.496305 c -0.28989,-0.456397 -0.32727,-1.474186 -0.0831,-2.261753 0.2442,-0.787566 0.60898,-2.357199 0.81062,-3.488074 2.40105,-13.466188 3.18169,-15.626656 5.64645,-15.626656 1.92752,0 2.09657,1.738614 0.71977,7.402099 -1.13045,4.650131 -1.39975,6.04921 -2.09761,10.897537 -0.4859,3.375736 -0.82778,3.906664 -2.51569,3.906664 -1.07436,0 -2.19057,-0.373419 -2.48047,-0.829817 z M 181.7323,87.50443 c -2.08327,-2.027008 -2.15354,-2.394637 -1.61165,-8.430169 0.65552,-7.301128 1.71576,-12.360151 2.81441,-13.429129 0.42329,-0.411869 1.42869,-0.502783 2.23421,-0.202021 1.28319,0.479106 1.38177,1.221002 0.79592,5.989764 -0.36776,2.993615 -0.67794,7.108401 -0.68928,9.143978 -0.0173,3.119155 0.23675,3.701051 1.61622,3.701051 1.12955,0 1.81204,-0.764686 2.20219,-2.467366 0.31093,-1.357052 0.97357,-4.317891 1.4725,-6.579645 0.49893,-2.261754 1.1318,-5.130067 1.40636,-6.374031 0.55515,-2.515234 3.5331,-3.195017 4.3973,-1.003782 0.62615,1.587684 -2.10395,15.698801 -3.59604,18.586912 -2.00984,3.890239 -7.58553,4.427722 -11.04214,1.064438 z M 93.174541,75.866856 C 89.082729,70.562257 85.567588,65.797961 85.363127,65.279534 84.90756,64.124396 94.26852,56.740249 96.199262,56.731753 c 2.578677,-0.01136 2.303376,2.243807 -0.609247,4.990595 -3.21194,3.029088 -3.399946,3.739977 -1.601016,6.053955 1.221935,1.571787 1.279072,1.570463 4.410831,-0.102485 5.33277,-2.848691 7.27716,-0.312264 3.05089,3.979885 -2.154106,2.187701 -2.184041,2.345901 -0.82578,4.362898 1.76611,2.622655 2.61681,2.617737 6.19231,-0.03577 3.12333,-2.317977 5.32144,-2.147472 5.32144,0.412749 0,1.679948 -8.55627,9.118012 -10.48876,9.118012 -0.56965,0 -4.383567,-4.340129 -8.475389,-9.64473 z m 149.772009,3.903071 c -2.37517,-1.817859 -3.37432,-5.918441 -2.18865,-8.982357 0.42054,-1.086778 3.26438,-5.641216 6.31961,-10.120967 4.48976,-6.583148 5.90265,-8.096787 7.36809,-7.893509 3.17256,0.440063 2.62182,3.416119 -1.74584,9.433886 -6.36099,8.764184 -7.12991,10.116606 -6.84793,12.044483 0.16252,1.111105 0.95971,1.898435 2.07946,2.053739 1.83741,0.254836 5.83941,-4.129649 11.71423,-12.833762 2.59282,-3.841533 5.69166,-4.536451 6.1563,-1.38055 0.2409,1.636235 -10.13136,16.097199 -13.11175,18.280351 -2.14385,1.570397 -7.32371,1.250723 -9.74352,-0.601314 z M 107.64584,65.062275 c -3.10778,-5.818915 -5.65051,-11.364256 -5.65051,-12.322976 0,-2.126122 7.02525,-5.883123 11.00089,-5.883123 3.55292,0 6.74997,3.409366 6.74997,7.198213 0,1.994011 0.58482,3.293343 1.95394,4.341217 2.99412,2.291583 6.75751,8.002288 6.20191,9.411029 -0.89064,2.258309 -3.3521,1.325767 -6.92317,-2.6229 l -3.50783,-3.878734 -2.22936,1.421285 -2.22936,1.421295 2.24815,4.460093 c 1.8809,3.731563 2.0688,4.670355 1.15023,5.747271 -0.60384,0.707944 -1.5516,1.287175 -2.10613,1.287175 -0.55452,0 -3.55096,-4.760933 -6.65873,-10.579845 z m 5.70038,-7.984152 c 1.66867,-1.623611 1.69075,-3.148212 0.0645,-4.461345 -1.01836,-0.822331 -1.67477,-0.758369 -3.38112,0.329483 -2.40258,1.531726 -2.44184,1.652833 -1.24242,3.833449 1.05964,1.926487 2.77057,2.03848 4.55893,0.298413 z m 113.32775,12.450159 c -6.41405,-2.819534 -6.40857,-2.288352 -0.15212,-14.769459 3.09872,-6.181708 6.19153,-11.44762 6.8729,-11.70203 1.49021,-0.556399 8.34635,2.64509 10.4045,4.858385 2.29161,2.464381 1.73981,7.652973 -1.49352,14.043454 -1.54556,3.054682 -3.74929,6.272793 -4.89721,7.151365 -2.43184,1.861241 -7.04325,2.040932 -10.73455,0.418285 z m 8.70217,-6.170883 c 1.95274,-2.569903 4.36693,-8.579142 4.38736,-10.920713 0.0182,-2.076718 -3.24979,-3.586252 -4.68763,-2.165363 -1.95022,1.927195 -7.26571,13.158566 -6.79383,14.355033 0.83323,2.112774 5.10514,1.348638 7.0941,-1.268957 z m -105.22031,2.244916 c -1.5981,-2.008264 -8.71908,-20.09189 -8.71908,-22.141967 0,-1.530516 1.80958,-2.491918 3.14035,-1.668425 0.48062,0.297407 1.72392,2.576325 2.7629,5.064253 1.03898,2.487928 2.38298,5.633821 2.98669,6.990871 3.12143,7.016542 3.92589,9.394113 3.65007,10.787699 -0.36712,1.85485 -2.65404,2.433958 -3.82093,0.967569 z m 85.95216,-0.804633 c -6.34359,-1.628734 -10.14335,-3.382554 -10.14335,-4.681771 0,-2.003913 6.86797,-21.74834 7.97527,-22.927765 0.77268,-0.823008 2.07583,-0.674637 6.42896,0.731977 6.07514,1.963036 7.57303,2.85262 7.57303,4.497582 0,1.621519 -3.76496,2.28854 -6.90527,1.223369 -2.89251,-0.981098 -3.5854,-0.659075 -4.42547,2.056747 -0.44302,1.432241 0.0363,1.937509 2.86348,3.018042 2.36625,0.904398 3.39558,1.789828 3.39558,2.920892 0,2.163536 -1.7498,2.700098 -5.51052,1.689752 -1.70544,-0.458173 -3.2437,-0.694012 -3.41834,-0.524067 -0.17465,0.169935 -0.42427,1.54087 -0.55471,3.046522 -0.21977,2.537046 0.0239,2.831739 3.32809,4.023561 3.93556,1.419598 4.86002,2.655486 3.35027,4.478821 -0.77256,0.933017 -1.66809,1.034032 -3.95702,0.446338 z m -78.01652,-4.60775 c -2.70553,-2.747716 -6.2838,-10.97344 -6.51588,-14.978666 -0.29107,-5.023642 -0.05,-5.830652 2.47533,-8.287819 4.55824,-4.435167 11.2225,-2.523978 14.10797,4.045914 2.83042,6.444546 3.87491,11.882311 2.89953,15.095316 -1.90326,6.269586 -8.72014,8.438278 -12.96695,4.125255 z m 6.52131,-3.141055 c 1.83812,-0.686307 1.6954,-4.264293 -0.41581,-10.424263 -2.19603,-6.407529 -3.32663,-7.664505 -5.75603,-6.399436 -0.98405,0.512431 -1.78918,1.640658 -1.78918,2.507173 0,3.379428 1.98319,10.402846 3.54485,12.553994 1.72256,2.372794 2.23451,2.577116 4.41617,1.762532 z m 18.4561,-0.940076 c -0.31832,-0.791613 -0.59165,-6.80582 -0.60742,-13.364904 l -0.0286,-11.925604 4.39699,-0.247223 c 8.8469,-0.497412 12.46878,3.58251 12.3631,13.926625 -0.10079,9.86523 -2.99083,13.050403 -11.84111,13.050403 -2.74375,0 -3.8542,-0.373172 -4.2829,-1.439297 z m 10.76642,-5.529212 c 1.08792,-2.784185 0.048,-12.614782 -1.49314,-14.11426 -0.68457,-0.66609 -2.0531,-1.09885 -3.0412,-0.961688 -1.67323,0.23227 -1.79473,0.729098 -1.77055,7.240256 0.0313,8.453067 0.51208,9.869469 3.34956,9.869469 1.52057,0 2.39605,-0.602475 2.95533,-2.033777 z m 10.36341,6.120425 c -2.22897,-0.871743 -2.40416,-3.651817 -1.03493,-16.423483 0.88881,-8.290385 1.95576,-10.165254 5.398,-9.485436 0.97086,0.191738 3.59493,0.579904 5.83128,0.862582 3.56724,0.450919 4.03389,0.733893 3.80376,2.306659 -0.21793,1.48932 -0.90367,1.837078 -4.0522,2.054979 -3.82824,0.264946 -5.04899,1.11386 -5.07262,3.52752 -0.009,0.895564 1.14669,1.560463 3.5795,2.059816 3.06424,0.628964 3.59243,1.039147 3.59243,2.789834 0,1.85819 -0.37156,2.075853 -3.92539,2.299579 -3.62959,0.228485 -3.95303,0.430275 -4.29202,2.67766 -0.46006,3.049887 -0.24209,3.243642 3.64888,3.243642 3.46957,0 6.04183,1.812074 5.28746,3.724851 -0.54647,1.385623 -9.49758,1.639343 -12.76415,0.361797 z M 135.63743,298.36308 c 0.55789,-0.54281 1.01433,-1.59577 1.01433,-2.3399 0,-1.85925 -3.03763,-4.37949 -4.58307,-3.80245 -1.26591,0.47266 -3.08428,5.3503 -2.42781,6.51246 0.55444,0.98154 4.8819,0.71444 5.99655,-0.37011 z m -15.94564,-8.20946 c 1.15553,-2.0127 1.1279,-2.35431 -0.31595,-3.90668 -0.87024,-0.93561 -2.08406,-1.70111 -2.69743,-1.70111 -1.34996,0 -3.69445,4.18259 -3.69445,6.59091 0,2.69414 5.01896,1.95853 6.70783,-0.98312 z M 24.807086,125.65769 c -0.269836,-0.6561 -0.47013,-0.46121 -0.51069,0.49691 -0.03664,0.867 0.163082,1.35277 0.44396,1.07947 0.280877,-0.27328 0.310902,-0.98267 0.06669,-1.57638 z M 284.9463,303.38056 c -0.74991,-1.18061 2.55719,-4.40015 3.7704,-3.67058 1.37208,0.82508 1.1115,1.53056 -1.15855,3.13671 -1.39588,0.98762 -2.21703,1.15547 -2.61185,0.53387 z m 7.74106,-7.19186 c -0.29252,-0.4605 -0.11995,-1.08497 0.38346,-1.38771 1.2996,-0.78149 2.1381,0.28898 1.05321,1.34458 -0.60707,0.59069 -1.07987,0.60487 -1.43667,0.0432 z m 5.04924,-3.32513 c -0.25478,-0.40108 0.0693,-1.15927 0.72014,-1.68485 1.31755,-1.06395 2.66675,0.15864 1.75649,1.59168 -0.64679,1.0183 -1.86002,1.06394 -2.47663,0.0931 z m 4.58984,-5.85037 c 0,-1.06005 0.42805,-1.64316 1.0566,-1.4393 0.58113,0.18847 1.05659,0.83617 1.05659,1.4393 0,0.60313 -0.47546,1.25081 -1.05659,1.4393 -0.62855,0.20385 -1.0566,-0.37925 -1.0566,-1.4393 z"
       id="path415" />
  </g>
</svg>
