<?xml version="1.0" encoding="UTF-8" standalone="no"?>
<!-- Created with Inkscape (http://www.inkscape.org/) -->

<svg
   version="1.1"
   id="svg4898"
   width="155"
   height="50"
   viewBox="0 0 155 50"
   sodipodi:docname="sello_estemin.svg"
   inkscape:version="1.2.2 (b0a8486541, 2022-12-01)"
   xmlns:inkscape="http://www.inkscape.org/namespaces/inkscape"
   xmlns:sodipodi="http://sodipodi.sourceforge.net/DTD/sodipodi-0.dtd"
   xmlns="http://www.w3.org/2000/svg"
   xmlns:svg="http://www.w3.org/2000/svg">
  <defs
     id="defs4902" />
  <sodipodi:namedview
     id="namedview4900"
     pagecolor="#505050"
     bordercolor="#ffffff"
     borderopacity="1"
     inkscape:showpageshadow="0"
     inkscape:pageopacity="0"
     inkscape:pagecheckerboard="1"
     inkscape:deskcolor="#505050"
     showgrid="false"
     inkscape:zoom="3.925"
     inkscape:cx="180.63694"
     inkscape:cy="45.477707"
     inkscape:window-width="2512"
     inkscape:window-height="1011"
     inkscape:window-x="0"
     inkscape:window-y="0"
     inkscape:window-maximized="1"
     inkscape:current-layer="g4904" />
  <g
     inkscape:groupmode="layer"
     inkscape:label="Image"
     id="g4904">
    <path
       style="fill:#000000;stroke-width:0.176762"
       d="m 26.464575,47.107291 c -1.92914,-0.68785 -2.69916,-2.76825 -2.41034,-6.5123 0.11286,-1.46313 0.21263,-1.86021 0.64184,-2.55445 0.77447,-1.25265 1.41618,-1.54742 3.35356,-1.54049 1.46278,0.005 1.68155,0.0514 2.35598,0.4978 1.57398,1.0416 1.98197,3.77163 0.47739,3.19426 -0.15848,-0.0608 -0.36982,-0.40068 -0.46968,-0.75525 -0.35228,-1.25094 -0.91009,-1.61687 -2.46469,-1.61687 -0.96762,0 -1.13771,0.0577 -1.70584,0.57832 -0.57895,0.53057 -0.64367,0.69098 -0.78411,1.94318 -0.0842,0.75068 -0.10886,1.94208 -0.0548,2.64759 0.14924,1.94921 0.65126,2.67714 2.01896,2.92754 1.56048,0.2857 2.58201,-0.26909 3.02861,-1.64483 0.19982,-0.61551 0.29779,-0.70705 0.75663,-0.70705 0.64515,0 0.74493,0.33775 0.43099,1.459 -0.31167,1.11321 -1.15382,1.90544 -2.28288,2.14757 -1.18202,0.25351 -2.05525,0.23417 -2.89158,-0.064 z m 30.68209,-0.0664 c -0.17376,-0.11029 -0.21326,-1.26478 -0.17676,-5.16756 l 0.047,-5.02554 2.47466,-0.0464 c 2.81977,-0.053 3.39294,0.11331 4.12148,1.19541 0.35732,0.53071 0.4073,0.78744 0.3516,1.80588 -0.0561,1.02652 -0.13528,1.26065 -0.5848,1.72985 -0.37247,0.38877 -0.47117,0.60896 -0.34809,0.77656 0.74111,1.00905 0.78829,1.15478 0.87892,2.71516 0.0858,1.47704 0.0639,1.63449 -0.25073,1.80289 -0.44532,0.23831 -0.46839,0.23562 -0.79728,-0.0933 -0.19535,-0.19534 -0.27776,-0.61755 -0.27776,-1.42287 0,-1.28468 -0.32436,-2.09894 -0.91017,-2.28486 -0.61251,-0.1944 -2.64805,-0.2393 -3.09774,-0.0684 -0.39233,0.14918 -0.41114,0.23679 -0.41114,1.91569 0,1.36373 -0.0625,1.82182 -0.27776,2.03713 -0.31344,0.31344 -0.42269,0.33264 -0.74142,0.13032 z m 4.70554,-5.58404 c 1.03024,-0.53275 1.23554,-2.10063 0.38627,-2.94991 -0.5172,-0.51721 -0.54291,-0.5226 -2.25371,-0.47249 l -1.73053,0.0507 -0.0511,1.66445 c -0.0372,1.21244 0.0107,1.70374 0.17677,1.8091 0.38996,0.24742 2.94177,0.17257 3.47242,-0.10183 z m 6.91934,5.56748 c -1.07753,-0.12417 -1.49135,-0.30962 -2.0685,-0.92693 -0.77692,-0.83095 -0.93482,-1.55835 -0.96147,-4.42922 -0.0223,-2.40051 0.0153,-2.7825 0.33469,-3.40841 0.65923,-1.29171 1.65732,-1.83298 3.40234,-1.84513 1.84315,-0.0127 3.03159,0.60194 3.70133,1.91474 0.49609,0.97243 0.68448,4.91629 0.29827,6.24477 -0.3724,1.281 -1.28977,2.14303 -2.57362,2.41837 -0.50221,0.10771 -0.96885,0.18414 -1.03697,0.16984 -0.0682,-0.0143 -0.56136,-0.0764 -1.09607,-0.13803 z m 2.63467,-1.705 c 0.76955,-0.64754 0.95,-1.45168 0.87324,-3.89149 -0.0749,-2.37686 -0.32541,-3.04593 -1.31734,-3.51663 -0.86117,-0.40865 -2.19887,-0.34618 -2.91567,0.13619 -0.89978,0.60549 -1.08929,1.37705 -0.99891,4.06699 0.0643,1.91298 0.13072,2.33539 0.43095,2.73981 0.51564,0.69461 1.06594,0.9145 2.29588,0.91744 0.91659,0.002 1.17771,-0.0702 1.63185,-0.45231 z m 18.399968,1.71561 c -0.34026,-0.0744 -0.80216,-0.24917 -1.02642,-0.38857 -0.89466,-0.5561 -1.55732,-2.35924 -1.02834,-2.79824 0.29247,-0.24274 0.99418,-0.1101 0.99418,0.1879 0,0.4718 0.60358,1.37048 1.02878,1.53179 1.36419,0.5175 3.05144,0.35668 3.61968,-0.34501 0.22438,-0.27707 0.30232,-0.62515 0.26514,-1.18423 -0.0701,-1.05379 -0.51742,-1.35928 -2.48123,-1.69436 -2.12566,-0.3627 -2.75128,-0.68904 -3.18035,-1.65906 -0.61804,-1.3972 -0.0384,-3.11723 1.28179,-3.80369 0.79956,-0.41575 3.32016,-0.34411 4.20238,0.11944 0.80799,0.42453 1.29317,1.26819 1.23346,2.14477 -0.0423,0.62242 -0.10075,0.70706 -0.48765,0.70706 -0.34515,0 -0.51793,-0.16546 -0.80458,-0.77046 -0.45129,-0.95248 -0.96118,-1.24797 -2.16734,-1.25603 -1.00138,-0.007 -1.8678,0.33071 -2.04675,0.79707 -0.23741,0.61868 -0.10836,1.48214 0.27489,1.83918 0.46787,0.43589 0.56561,0.46792 2.40404,0.78787 1.72577,0.30033 2.44273,0.67622 2.89184,1.51618 0.67652,1.26526 0.14716,3.24839 -1.05448,3.95018 -0.62652,0.36592 -2.86753,0.54788 -3.91904,0.31821 z m -56.291898,-0.1893 c -0.16161,-0.26151 -0.19997,-9.61879 -0.0404,-9.86528 0.21989,-0.33975 5.59139,-0.30974 6.05406,0.0338 0.27453,0.20386 0.30402,0.3187 0.14745,0.57446 -0.16899,0.27615 -0.49417,0.32619 -2.38627,0.36735 -1.80401,0.0392 -2.22962,0.0998 -2.41157,0.34311 -0.24681,0.33004 -0.2966,2.13285 -0.0689,2.49196 0.10185,0.16061 0.78999,0.25808 2.251,0.31885 1.15737,0.0481 2.20374,0.12054 2.32526,0.16086 0.26525,0.0881 0.29478,0.72498 0.0408,0.8819 -0.0991,0.0611 -1.03367,0.10979 -2.07695,0.10798 -2.52379,-0.005 -2.69231,0.103 -2.69231,1.71625 0,1.76771 0.021,1.7819 2.72089,1.8382 1.87036,0.039 2.31119,0.0987 2.4586,0.33283 0.0988,0.15691 0.12969,0.41543 0.0686,0.57447 -0.0969,0.25244 -0.50312,0.28917 -3.19939,0.28917 -1.73407,0 -3.13343,-0.0727 -3.19102,-0.16595 z m 9.98657,-0.17596 c -0.11049,-0.20645 -0.18298,-1.90815 -0.18298,-4.29531 0,-2.83919 -0.0598,-4.01318 -0.21212,-4.16551 -0.11666,-0.11667 -0.66695,-0.21212 -1.22286,-0.21212 -0.55593,0 -1.1366,-0.0482 -1.29037,-0.1073 -0.37459,-0.14374 -0.35585,-0.72496 0.0296,-0.9227 0.17014,-0.0873 1.73228,-0.1497 3.47144,-0.13878 2.74489,0.0172 3.18669,0.0586 3.34824,0.31435 0.32916,0.52093 -0.15513,0.85443 -1.24077,0.85443 -1.73412,0 -1.64597,-0.24545 -1.64597,4.58311 0,3.68242 -0.0355,4.23075 -0.2796,4.32444 -0.44469,0.17065 -0.57974,0.12975 -0.77474,-0.23461 z m 5.16199,0.13657 c -0.16311,-0.16311 -0.21889,-1.42458 -0.21889,-4.9499 0,-4.47601 0.0182,-4.74072 0.33767,-4.91169 0.49288,-0.26379 4.60822,-0.11541 5.22878,0.18851 1.07932,0.52862 1.58849,1.96784 1.29225,3.6527 -0.28596,1.6264 -1.102,2.15882 -3.51239,2.29164 -0.99754,0.0549 -1.82816,0.18509 -1.92479,0.30152 -0.0935,0.11266 -0.19308,0.95619 -0.22128,1.87451 -0.0466,1.51805 -0.0836,1.6743 -0.40688,1.72062 -0.19556,0.028 -0.45409,-0.0474 -0.57447,-0.16791 z m 4.54993,-5.18396 c 0.27994,-0.14477 0.56356,-0.43519 0.63029,-0.64539 0.16111,-0.50762 0.15513,-2.00936 -0.009,-2.27503 -0.41609,-0.67324 -3.30992,-0.99239 -3.87496,-0.42737 -0.34681,0.34683 -0.39932,3.06522 -0.0657,3.39889 0.30961,0.3096 2.6928,0.27292 3.31937,-0.0511 z m 26.764588,5.25873 c -0.12891,-0.0889 -0.23673,-1.73494 -0.31712,-4.84252 -0.10346,-3.99808 -0.0831,-4.74672 0.13522,-4.965 0.20747,-0.20748 0.81405,-0.24921 3.14531,-0.21639 1.58856,0.0224 2.9532,0.0493 3.03258,0.0598 0.0794,0.0105 0.11914,0.23794 0.0884,0.50529 l -0.0559,0.4861 -2.28645,0.0497 c -1.31608,0.0286 -2.38508,0.13158 -2.51884,0.2426 -0.15062,0.12499 -0.23241,0.61862 -0.23241,1.40236 0,1.54867 0.0987,1.60633 2.66405,1.55618 2.01291,-0.0394 2.37011,0.0657 2.2555,0.66332 -0.0566,0.29536 -0.28212,0.3331 -2.25905,0.378 -1.24885,0.0284 -2.29628,0.13302 -2.42832,0.2426 -0.31329,0.26001 -0.32285,2.89805 -0.0112,3.09974 0.12152,0.0787 1.2939,0.18277 2.60529,0.23139 2.14331,0.0795 2.39066,0.12154 2.44705,0.41648 0.0344,0.18046 -0.005,0.39135 -0.0864,0.46866 -0.19925,0.18775 -5.92847,0.39329 -6.17758,0.22162 z m 24.011367,-0.17189 c -0.0852,-0.17392 -0.17712,-2.35083 -0.20428,-4.83757 -0.042,-3.85587 -0.01,-4.56093 0.21942,-4.79015 0.22344,-0.22343 0.74073,-0.25841 3.06676,-0.2073 1.5389,0.0337 2.89742,0.0989 3.01893,0.14459 0.12155,0.0457 0.22097,0.24722 0.22097,0.44775 0,0.47586 -0.0623,0.4901 -2.63754,0.60173 -1.20758,0.0523 -2.26436,0.16395 -2.34842,0.248 -0.17948,0.17949 -0.22569,2.48178 -0.0532,2.65529 0.0648,0.0652 1.11735,0.15837 2.33899,0.20698 1.89444,0.0755 2.24991,0.13541 2.41653,0.40806 0.37354,0.61137 -0.25865,0.81589 -2.44869,0.79216 -1.08857,-0.0118 -2.07247,0.0362 -2.18647,0.10665 -0.13019,0.0805 -0.20724,0.64751 -0.20724,1.52553 0,1.2007 0.0481,1.42319 0.34191,1.58043 0.18805,0.10063 1.33166,0.18297 2.54139,0.18297 2.27722,0 2.73552,0.13859 2.49876,0.7556 -0.15345,0.39987 -0.51942,0.44783 -3.6072,0.47275 -2.54257,0.0205 -2.83065,-0.008 -2.97056,-0.29347 z m -5.14371,-0.18363 c -0.0909,-0.17014 -0.1753,-2.05928 -0.18763,-4.1981 -0.0258,-4.44645 -0.0182,-4.42438 -1.426149,-4.273 -0.43688,0.047 -0.934028,0.0106 -1.104778,-0.0808 -0.40617,-0.2174 -0.40692,-0.98692 0,-1.09941 0.17015,-0.0471 1.669858,-0.072 3.332737,-0.0549 3.25326,0.0331 3.78189,0.16342 3.41847,0.84244 -0.14912,0.27867 -0.3825,0.33496 -1.38872,0.33496 -0.86562,0 -1.27274,0.0763 -1.43206,0.26823 -0.17004,0.20484 -0.20289,1.19679 -0.13901,4.19808 0.046,2.16143 0.0502,4.0293 0.01,4.15082 -0.11086,0.33029 -0.89177,0.26646 -1.08129,-0.0884 z m 13.35222,0.0884 c -0.27382,-0.20032 -0.2976,-0.65792 -0.25475,-4.90097 l 0.0472,-4.68 0.4981,-0.1751 c 1.01763,-0.35771 1.30044,0.0216 2.76385,3.70743 0.7336,1.84771 1.40059,3.46133 1.48216,3.58579 0.19293,0.29439 0.5737,-0.005 0.69721,-0.5475 0.12044,-0.52951 1.97168,-5.74684 2.25748,-6.36226 0.26199,-0.56418 0.89563,-0.78609 1.48193,-0.51897 0.50825,0.23159 0.54115,0.58801 0.54115,5.86709 0,3.68438 -0.0231,3.9785 -0.31783,4.03592 -0.75431,0.14703 -0.83113,-0.18583 -0.83113,-3.60207 0,-4.74689 -0.0851,-4.68788 -2.31063,1.60207 -0.65252,1.84416 -0.77435,2.03276 -1.31296,2.03276 -0.55451,0 -0.69749,-0.22265 -1.48643,-2.31428 -1.08739,-2.88273 -1.87779,-4.64025 -2.12373,-4.72223 -0.17993,-0.0599 -0.20717,0.58893 -0.13406,3.19677 0.0758,2.70551 0.0466,3.33648 -0.169,3.64427 -0.3025,0.43186 -0.41665,0.45271 -0.82864,0.15128 z m 21.31547,-0.17676 c -0.2029,-0.21875 -0.7791,-1.07383 -1.2806,-1.90019 -1.76721,-2.91174 -3.27576,-5.11988 -3.49995,-5.12297 -0.17762,-0.002 -0.22171,0.74147 -0.20343,3.43221 0.0129,1.88942 -0.0288,3.52004 -0.093,3.6236 -0.16003,0.25886 -0.71909,0.23674 -0.94666,-0.0374 -0.15012,-0.18086 -0.29976,-6.3468 -0.22093,-9.10221 0.0144,-0.49935 0.65548,-0.82475 1.21636,-0.61727 0.25102,0.0929 0.89752,0.94851 1.71,2.26328 2.43281,3.93674 3.17181,5.03055 3.39891,5.03055 0.2742,0 0.289,-0.23277 0.2359,-3.712 -0.025,-1.62459 0.035,-2.93767 0.1467,-3.2259 0.2032,-0.52376 0.7259,-0.64892 1.0549,-0.25254 0.2827,0.34071 0.2967,9.42749 0.015,9.76694 -0.3156,0.38026 -1.116,0.30404 -1.5333,-0.14604 z m -9.45985,0 c -0.25277,-0.19299 -0.29457,-0.79531 -0.33054,-4.76054 -0.042,-4.63243 0.0159,-5.09392 0.64077,-5.09392 0.5479,0 0.61433,0.50985 0.65048,4.99376 0.0284,3.52038 -0.0152,4.58323 -0.19607,4.80142 -0.28055,0.33804 -0.38855,0.34642 -0.76464,0.0592 z m -70.306055,-14.45026 -1.67923,-0.0884 -0.0471,-4.55161 -0.0471,-4.55161 h 2.31836 c 2.7025,0 3.2901,0.18935 4.0226,1.29625 0.45764,0.6915 0.47034,0.78346 0.47034,3.40626 0,2.4468 -0.0336,2.7406 -0.36445,3.18369 -0.90778,1.21586 -1.77449,1.45797 -4.67327,1.30541 z m 2.80935,-1.28414 c 0.78599,-0.40564 1.07941,-1.27062 1.07941,-3.18201 0,-2.83579 -0.46299,-3.49152 -2.56024,-3.62612 -0.9132,-0.0586 -1.40788,-0.0162 -1.59186,0.1365 -0.21965,0.1823 -0.26694,0.77504 -0.26694,3.34626 0,2.19465 0.0631,3.18785 0.21211,3.33682 0.28047,0.28047 2.5782,0.27206 3.12752,-0.0114 z m 38.537588,1.30095 c -0.82383,-0.26587 -1.37551,-0.74087 -1.74365,-1.50135 -0.31093,-0.64228 -0.36222,-1.0902 -0.36222,-3.16349 0,-2.95518 0.20865,-3.63313 1.31825,-4.2834 1.03056,-0.60394 3.013078,-0.62263 4.164047,-0.0392 1.29131,0.65451 1.48997,1.19038 1.5564,4.19809 0.0532,2.41221 0.0318,2.60904 -0.36055,3.34477 -0.54942,1.02965 -1.44034,1.4954 -2.966149,1.55059 -0.631898,0.0229 -1.354688,-0.0248 -1.606128,-0.10599 z m 2.822798,-1.36562 c 0.669029,-0.46861 0.904579,-1.3021 0.903479,-3.19713 0,-2.18178 -0.20914,-2.97158 -0.872479,-3.31461 -1.28243,-0.66317 -2.842918,-0.43735 -3.457318,0.50033 -0.2442,0.37269 -0.28313,0.84139 -0.2347,2.82496 0.0507,2.08061 0.1023,2.42723 0.4116,2.77052 0.19446,0.21581 0.51262,0.45748 0.70704,0.53706 0.62644,0.25639 2.103888,0.186 2.542378,-0.12113 z m 4.041979,1.33465 c -0.28056,-0.16342 -0.30933,-0.56242 -0.30933,-4.2915 0,-3.115 0.0563,-4.18824 0.23206,-4.42869 0.20428,-0.27936 0.50447,-0.31428 2.50737,-0.2917 2.57986,0.0291 3.27932,0.24149 3.75343,1.13981 0.43721,0.82845 0.38475,2.19335 -0.11547,3.00269 l -0.41532,0.672 0.37746,0.67155 c 0.29806,0.53034 0.37742,0.96919 0.37742,2.08686 0,1.50102 -0.11711,1.70486 -0.86675,1.50881 -0.32192,-0.0842 -0.37057,-0.23002 -0.37057,-1.11048 0,-1.22829 -0.26949,-2.06948 -0.74436,-2.32365 -0.1945,-0.10409 -0.96168,-0.18311 -1.70484,-0.17559 -1.6834,0.017 -1.79307,0.13701 -1.79307,1.96162 0,1.60414 -0.22543,1.98749 -0.92803,1.57827 z m 4.76148,-5.14301 c 0.31604,-0.29692 0.40882,-0.57473 0.40882,-1.22423 0,-1.22476 -0.49688,-1.57287 -2.24499,-1.57287 -1.86595,0 -1.99788,0.10271 -1.99459,1.55288 0.004,1.73088 0.0877,1.79824 2.10734,1.6953 1.04732,-0.0534 1.39769,-0.14508 1.72342,-0.45108 z m -46.073095,4.7321 c -0.18135,-0.47699 -0.25207,-8.02774 -0.0794,-8.47773 0.13189,-0.34369 0.66084,-0.38028 0.92344,-0.0639 0.11692,0.14089 0.20147,1.79805 0.22629,4.43557 0.0325,3.45934 -0.005,4.23874 -0.20921,4.36817 -0.41941,0.2655 -0.69207,0.18251 -0.86112,-0.26213 z m 3.017,0.18215 c -0.14177,-0.17083 -0.18754,-1.52142 -0.15421,-4.55161 l 0.0473,-4.3087 2.49099,0.006 c 2.769,0.006 3.17378,0.13415 3.71081,1.17266 0.42943,0.8304 0.28036,2.64401 -0.26503,3.22455 l -0.41062,0.43708 0.35614,0.585 c 0.26387,0.43345 0.37231,0.97425 0.41862,2.08747 l 0.0625,1.50248 -0.47421,0.0548 c -0.6121,0.0707 -0.79388,-0.28849 -0.82053,-1.62135 -0.0114,-0.56995 -0.12243,-1.15883 -0.24672,-1.3086 -0.37741,-0.45475 -1.19862,-0.70404 -2.06034,-0.62544 -1.6983,0.15487 -1.61266,0.0681 -1.61266,1.63351 0,0.76796 -0.0482,1.5221 -0.10731,1.67588 -0.13202,0.34406 -0.66244,0.36489 -0.93482,0.0367 z m 4.698,-4.95693 c 0.48277,-0.56125 0.54818,-1.59418 0.13802,-2.17974 -0.36594,-0.52246 -1.52497,-0.81065 -2.67996,-0.66635 -1.15597,0.14444 -1.30387,0.37698 -1.19513,1.87895 0.10731,1.48178 0.29816,1.6261 2.01365,1.52263 1.15695,-0.0698 1.36269,-0.13611 1.72342,-0.55549 z m 3.51256,4.98339 c -0.0391,-0.12399 -0.117,-2.08652 -0.17302,-4.36114 -0.0723,-2.93605 -0.0442,-4.20505 0.0966,-4.37485 0.15044,-0.18126 0.82986,-0.23916 2.80663,-0.23916 2.719198,0 3.152978,0.11561 2.900698,0.77303 -0.0928,0.24194 -0.42534,0.28754 -2.096788,0.28754 -1.69996,0 -2.02864,0.0466 -2.279,0.32326 -0.35583,0.39319 -0.4032,2.01627 -0.0669,2.29531 0.12406,0.10296 1.08473,0.2174 2.13482,0.25429 1.409178,0.0495 1.951228,0.13349 2.069468,0.32055 0.32014,0.50643 0.0263,0.60754 -1.908428,0.65678 -1.53319,0.039 -2.00793,0.11097 -2.19142,0.33205 -0.26917,0.32434 -0.23595,2.33797 0.0433,2.62309 0.0953,0.0972 1.10411,0.21653 2.242,0.26513 2.065428,0.0883 2.068908,0.0892 2.068908,0.53029 v 0.4419 l -2.787818,0.0486 c -2.13909,0.0373 -2.80436,-0.004 -2.85896,-0.17676 z m 8.207148,-0.18126 c -1.10366,-0.75002 -1.32303,-1.47541 -1.32303,-4.37484 0,-2.38315 0.0292,-2.60996 0.41552,-3.2314 0.56771,-0.91315 1.51138,-1.36441 2.8532,-1.36441 0.59031,0 1.33297,0.10849 1.65034,0.24111 1.20111,0.50186 2.10503,2.26728 1.48061,2.89171 -0.39893,0.39893 -0.79656,0.16013 -1.16512,-0.69966 -0.37819,-0.88229 -0.94942,-1.24403 -1.96447,-1.24403 -1.70889,0 -2.12114,0.67925 -2.12114,3.49505 0,2.29754 0.19237,2.90951 1.05479,3.35548 1.23999,0.64123 2.83677,0.0484 3.10021,-1.1509 0.11644,-0.53018 0.73645,-0.86799 1.13781,-0.61993 0.572,0.35351 -0.27284,2.25882 -1.22893,2.77159 -0.93187,0.49976 -3.10918,0.46071 -3.88979,-0.0698 z m 8.46655,0.0884 c -0.0114,-0.0729 -0.0367,-1.78205 -0.0566,-3.79807 -0.0197,-2.01602 -0.0965,-3.72619 -0.17062,-3.80039 -0.0741,-0.0742 -0.62528,-0.17463 -1.22491,-0.22325 -1.02149,-0.0828 -1.09022,-0.11624 -1.09022,-0.53028 v -0.4419 l 3.11708,-0.0481 c 2.65821,-0.041 3.13227,-0.009 3.22034,0.22095 0.22659,0.59047 -0.0662,0.79943 -1.12022,0.79943 -0.65977,0 -1.09271,0.0876 -1.22586,0.24802 -0.14112,0.17004 -0.20622,1.33975 -0.20702,3.72001 -5.3e-4,1.90959 -0.0456,3.5877 -0.0999,3.72912 -0.1,0.26057 -1.1038,0.37005 -1.14209,0.12455 z m 8.540578,-11.74582 c -0.12261,-0.12261 -0.21209,-0.7101 -0.21209,-1.39245 0,-1.27618 -0.20235,-1.63001 -0.795438,-1.39096 -0.60216,0.24271 -1.86173,0.18121 -2.50095,-0.12213 -0.8965,-0.42542 -1.32957,-1.40453 -1.43419,-3.24262 -0.0959,-1.68365 0.16707,-3.25638 0.63956,-3.82579 0.41137,-0.49577 1.3094,-0.94992 1.87837,-0.94992 0.25102,0 0.73942,0.11828 1.08534,0.26281 0.46275,0.19334 0.720522,0.21382 0.975258,0.0775 0.19047,-0.10193 0.56111,-0.16054 0.82362,-0.13023 0.472069,0.0544 0.478609,0.0736 0.590179,1.73432 0.0619,0.92357 0.12165,3.27406 0.13254,5.22331 0.0201,3.63691 -0.0371,3.9683 -0.687239,3.9683 -0.15558,0 -0.3783,-0.0955 -0.49496,-0.21213 z m -0.750768,-4.47601 c 0.309888,-0.30956 0.521118,-2.62155 0.340158,-3.72288 -0.13809,-0.84029 -0.697338,-1.31087 -1.557868,-1.31087 -1.07971,0 -1.49842,0.60473 -1.5742,2.27356 -0.0838,1.84498 0.17031,2.73314 0.88031,3.07701 0.61427,0.29748 1.43239,0.16189 1.9116,-0.31682 z m 40.354237,4.3943 c -0.1691,-0.0683 -0.2169,-1.11324 -0.2035,-4.44928 0.01,-2.39805 0.069,-4.79759 0.1326,-5.3323 l 0.1151,-0.97219 0.707,0.0409 c 0.3889,0.0225 0.8264,0.0461 0.9722,0.0525 0.1458,0.006 0.6695,-0.0408 1.1638,-0.1048 0.9932,-0.12849 1.6513,0.11001 2.3018,0.83429 0.8789,0.97838 1.0181,4.57159 0.2315,5.97132 -0.6467,1.15059 -1.6612,1.43125 -3.7855,1.04727 -0.324,-0.0585 -0.3579,0.0462 -0.4062,1.2539 -0.065,1.63861 -0.3446,2.01527 -1.2288,1.65846 z m 3.7482,-4.23502 c 0.5364,-0.20583 0.8034,-1.05046 0.8034,-2.54161 0,-1.49116 -0.267,-2.3358 -0.8034,-2.54163 -0.6671,-0.25602 -1.6216,-0.10802 -2.0874,0.32367 -0.4462,0.41359 -0.4677,0.51528 -0.4677,2.21796 0,1.70266 0.021,1.80437 0.4677,2.21796 0.4658,0.43169 1.4203,0.57968 2.0874,0.32365 z M 8.514355,17.350241 c -1.1251297,-0.43405 -1.8245797,-1.37402 -1.9251897,-2.58719 -0.0766,-0.92301 -0.0596,-0.97036 0.38532,-1.08204 0.5435,-0.13643 0.99107,0.16169 0.99107,0.66014 0,0.69654 0.5119297,1.36196 1.1934297,1.55122 1.51009,0.41937 3.15021,0.10363 3.57388,-0.68805 0.3048,-0.56949 0.20755,-1.37447 -0.22704,-1.87972 -0.35034,-0.4073 -0.64802,-0.51093 -2.07393,-0.72201 -2.8733897,-0.42537 -3.6156097,-1.05125 -3.6148297,-3.04821 3.6e-4,-1.04291 0.0649,-1.27839 0.50977,-1.8616404 0.9196197,-1.20568 2.4442897,-1.58978 4.5326997,-1.14189 1.12082,0.24037 1.98344,0.9643 2.26371,1.8997604 0.23565,0.78656 0.14343,1.19639 -0.29259,1.30024 -0.56214,0.13388 -0.91172,-0.0623 -1.2024,-0.67488 -0.35824,-0.75495 -1.04182,-1.1286604 -2.0645,-1.1286604 -1.52025,0 -2.24468,0.4848904 -2.24468,1.5024804 0,1.05261 0.39576,1.30003 2.82819,1.76811 2.44932,0.47132 3.20402,1.12601 3.30785,2.86949 0.13124,2.20403 -1.38441,3.59138 -3.90251,3.5722 -0.74019,-0.006 -1.58235,-0.13345 -2.03825,-0.30935 z m 8.07054,-0.13451 c -1.02266,-0.55489 -1.43362,-2.60706 -0.71825,-3.58677 0.66377,-0.90903 1.99558,-1.29544 3.45584,-1.00264 l 0.66286,0.13289 v -0.69931 c 0,-0.9258 -0.40665,-1.2844 -1.4565,-1.2844 -0.68693,0 -0.87928,0.0825 -1.26618,0.54216 -0.34312,0.40776 -0.57705,0.52825 -0.94371,0.48609 -0.43226,-0.0497 -0.48424,-0.12405 -0.45868,-0.65596 0.0197,-0.41055 0.20213,-0.77323 0.57787,-1.14896 0.52715,-0.52716 0.60832,-0.54904 2.03516,-0.54904 1.2304,0 1.57199,0.0635 1.98517,0.36941 0.91526,0.6775 1.01839,1.12092 1.0241,4.40315 l 0.005,3.00494 -0.47736,0.055 c -0.26254,0.0302 -0.62161,-0.0221 -0.79791,-0.11646 -0.22123,-0.11841 -0.50409,-0.0944 -0.91285,0.0775 -0.76352,0.32103 -2.0972,0.30744 -2.71481,-0.0276 z m 3.26028,-1.66896 c 0.30827,-0.38071 0.28643,-1.11316 -0.044,-1.47698 -0.25862,-0.28471 -1.75944,-0.34948 -2.23245,-0.0963 -0.51961,0.2781 -0.82347,0.93531 -0.6643,1.43681 0.26923,0.84829 2.28853,0.94201 2.94079,0.13651 z m 3.40534,1.55467 c -0.05,-0.13024 -0.0693,-1.90515 -0.043,-3.94422 l 0.0478,-3.70743 0.49677,-0.0569 c 0.27323,-0.0313 0.61077,0.0376 0.75009,0.15327 0.19841,0.16467 0.39131,0.14473 0.89031,-0.0921 0.74782,-0.35486 1.58457,-0.25601 2.24762,0.26555 0.57047,0.44872 0.67953,0.4407 1.48468,-0.10922 0.55417,-0.37852 0.81759,-0.44435 1.51609,-0.37892 0.8805,0.0825 1.62331,0.58461 1.89195,1.27891 0.0752,0.19445 0.19415,1.63629 0.26428,3.20411 0.14013,3.13334 0.0472,3.60122 -0.71431,3.60122 -0.65515,0 -0.78484,-0.57149 -0.78484,-3.45835 0,-2.31586 -0.0327,-2.5842 -0.35352,-2.90507 -0.70206,-0.70206 -1.76128,-0.29494 -2.12864,0.81817 -0.14117,0.42775 -0.18026,1.36238 -0.11776,2.81553 0.10256,2.38472 -0.0164,2.80976 -0.75656,2.70231 -0.56853,-0.0825 -0.67218,-0.56649 -0.69748,-3.25694 -0.0266,-2.83667 -0.28668,-3.4326 -1.49767,-3.4326 -0.21815,0 -0.56754,0.18192 -0.77641,0.40426 -0.35204,0.37474 -0.38333,0.61669 -0.42852,3.31428 l -0.0487,2.91003 -0.57569,0.0554 c -0.36071,0.0347 -0.60963,-0.033 -0.66656,-0.18133 z m 12.47192,-0.0119 c -0.24014,-0.12152 -0.60525,-0.47118 -0.81137,-0.77704 -0.33086,-0.49098 -0.38778,-0.90217 -0.48582,-3.51051 -0.12303,-3.27243 -0.0417,-3.67298 0.72721,-3.58376 0.60321,0.0699 0.71729,0.64587 0.73124,3.69178 0.01,2.08832 0.0349,2.24617 0.41929,2.60723 0.56163,0.52761 1.31506,0.49211 1.92332,-0.0907 l 0.49576,-0.47498 v -2.67139 c 0,-2.65903 0.0905,-3.09561 0.6414,-3.09561 0.11944,0 0.34216,0.125 0.49494,0.27778 0.23427,0.23428 0.27776,0.83975 0.27776,3.8671 0,4.09632 -0.0182,4.15379 -1.19838,3.80018 -0.51361,-0.15388 -0.78946,-0.15673 -1.06183,-0.011 -0.48812,0.26123 -1.60961,0.24602 -2.15352,-0.0292 z m 7.49358,-0.13082 c -1.1857,-0.58692 -1.48899,-1.33939 -1.48899,-3.69413 0,-2.82251 0.54637,-3.82755 2.21878,-4.08137 1.63869,-0.2487 2.91282,0.27636 3.46263,1.42691 0.34391,0.71965 0.55848,2.45095 0.34593,2.79114 -0.10937,0.17505 -0.71478,0.25213 -2.24888,0.28631 -1.15459,0.0257 -2.15888,0.0571 -2.2318,0.0698 -0.0729,0.0127 -0.13258,0.29436 -0.13258,0.62598 0,0.45629 0.13229,0.71426 0.54386,1.06058 0.83076,0.69904 2.03597,0.52463 2.43559,-0.35243 0.40294,-0.88434 1.76019,-0.67087 1.53136,0.24085 -0.18508,0.73744 -0.62374,1.24551 -1.39955,1.62107 -0.94983,0.45981 -2.114,0.46183 -3.03635,0.005 z m 2.89469,-4.62774 c 0.32637,-0.32636 0.25386,-0.78021 -0.21103,-1.32068 -0.33825,-0.39324 -0.57252,-0.49193 -1.1677,-0.49193 -0.5952,0 -0.82946,0.0987 -1.16771,0.49193 -0.46488,0.54047 -0.53741,0.99432 -0.21105,1.32068 0.27939,0.27937 2.47812,0.27937 2.75749,0 z m 34.223738,4.73342 c -0.86505,-0.37663 -1.31072,-1.07782 -1.31072,-2.06216 0,-1.81265 0.77538,-2.45398 3.03554,-2.5107 1.27993,-0.0321 1.47566,-0.0793 1.53131,-0.36939 0.10565,-0.55063 -0.34385,-1.15861 -0.98812,-1.33651 -0.72966,-0.20146 -1.35149,3.9e-4 -1.93281,0.62774 -0.9036,0.975 -1.68014,0.0667 -0.95171,-1.11315 0.82548,-1.33709 4.06023,-1.24601 4.87291,0.13721 0.30663,0.5219 0.36231,0.9857 0.41321,3.44176 0.0511,2.46774 0.0207,2.87019 -0.23258,3.08045 -0.23461,0.1947 -0.40463,0.2009 -0.8722,0.0318 -0.47231,-0.17079 -0.70015,-0.16013 -1.22001,0.0571 -0.78039,0.32608 -1.61929,0.33174 -2.34482,0.0158 z m 2.7106,-1.44402 c 0.4908,-0.31746 0.57531,-1.55722 0.11811,-1.73266 -0.58553,-0.22469 -2.07614,-0.10975 -2.4021,0.18524 -0.47114,0.42639 -0.42773,1.36445 0.0745,1.60905 0.9073,0.44189 1.45465,0.42663 2.20952,-0.0616 z m 33.479537,1.48051 c -0.73434,-0.24781 -1.58211,-1.07823 -1.94077,-1.90103 -0.43933,-1.00801 -0.50973,-5.19147 -0.10878,-6.4662 0.55738,-1.7720404 1.67587,-2.5506904 3.66733,-2.5530004 2.10027,-0.002 3.42263,0.82303 3.81508,2.3815804 0.28926,1.14885 0.14487,1.50619 -0.60868,1.50619 -0.56733,0 -0.61628,-0.0478 -0.80174,-0.78454 -0.25409,-1.00901 -0.67457,-1.3751404 -1.73561,-1.5112604 -1.22042,-0.15657 -2.13278,0.1458 -2.61957,0.8682104 -0.36805,0.54614 -0.4017,0.7942 -0.4017,2.96189 0,3.42705 0.44225,4.19783 2.40854,4.19783 1.17746,0 1.81118,-0.43226 2.2109,-1.50807 0.26286,-0.7073 0.34229,-0.77721 0.88383,-0.77721 0.53895,0 0.6001,0.0528 0.64934,0.56033 0.0791,0.81577 -0.69532,2.23194 -1.48859,2.72221 -0.7593,0.46928 -2.93893,0.63738 -3.92958,0.30307 z m 7.62418,-0.0733 c -0.77132,-0.38029 -1.36489,-1.60797 -1.23735,-2.55902 0.22684,-1.69123 1.61276,-2.43378 3.79375,-2.03261 l 0.75124,0.13818 v -0.55744 c 0,-0.76207 -0.25264,-1.1715 -0.85173,-1.38034 -0.716,-0.2496 -1.3361,-0.0836 -1.90483,0.51009 -0.82236,0.85835 -1.56947,0.57108 -1.28078,-0.49245 0.22666,-0.83501 0.87082,-1.2472 2.16579,-1.38588 0.91641,-0.0982 1.26534,-0.0554 1.92239,0.23518 0.44149,0.1953 0.90625,0.54154 1.03281,0.76943 0.27249,0.49064 0.51967,6.07945 0.29004,6.5568 -0.16213,0.33699 -0.85522,0.41006 -1.35456,0.14283 -0.20801,-0.11132 -0.54104,-0.0847 -1.00473,0.0807 -0.913,0.32529 -1.62667,0.3175 -2.32204,-0.0254 z m 2.73315,-1.47764 c 0.43971,-0.2681 0.57449,-0.47292 0.57449,-0.87313 0,-0.68885 -0.56391,-1.07318 -1.57462,-1.07318 -0.95054,0 -1.60707,0.514 -1.60707,1.25812 0,0.98644 1.47812,1.3766 2.6072,0.68819 z m 3.80036,1.64861 c -0.26193,-0.10571 -0.31904,-7.40866 -0.0611,-7.81595 0.10847,-0.17128 0.3313,-0.20861 0.74852,-0.12537 0.67282,0.13425 0.74392,0.1341 2.13812,-0.005 0.9429,-0.0936 1.049,-0.0655 1.5172,0.40272 0.5279,0.5279 0.8968,1.91666 0.5906,2.22293 -0.089,0.0891 -0.3838,0.13579 -0.6549,0.10389 -0.3813,-0.0448 -0.5387,-0.19442 -0.6946,-0.66021 -0.2202,-0.65742 -0.7997,-0.98301 -1.4563,-0.81819 -0.7633,0.19155 -0.9089,0.71214 -1.0401,3.7183 -0.13303,3.05019 -0.23216,3.3214 -1.0875,2.97626 z m 17.72034,-0.13246 c -0.2916,-0.12963 -0.7291,-0.45085 -0.9721,-0.71383 -0.4156,-0.44958 -0.4454,-0.61291 -0.4997,-2.73551 -0.051,-2.01319 -0.017,-2.34481 0.3222,-3.06558 0.4479,-0.95284 1.2541,-1.36659 2.6627,-1.36659 2.1724,0 3.0579,1.18801 3.0491,4.09102 -0.01,2.18636 -0.4269,3.19782 -1.5385,3.70266 -0.8466,0.38446 -2.2637,0.42562 -3.0237,0.0879 z m 2.784,-1.87395 c 0.4401,-0.483 0.4861,-0.65963 0.4861,-1.86523 0,-2.00418 -0.4931,-2.72823 -1.8579,-2.72823 -0.476,0 -0.7787,0.13474 -1.1606,0.51668 -0.4914,0.49137 -0.5167,0.59157 -0.5167,2.04438 0,1.73773 0.1511,2.13728 0.9419,2.491 0.7672,0.34316 1.5275,0.17771 2.1072,-0.4586 z m -95.274475,1.82965 c -0.12152,-0.049 -0.22095,-0.19778 -0.22095,-0.33053 0,-0.46721 3.21267,-9.8961304 3.45802,-10.1490204 0.31158,-0.32114 1.45059,-0.30231 1.78235,0.0294 0.22128,0.22128 0.74816,1.6604304 2.99442,8.1791704 0.33468,0.97124 0.5682,1.87094 0.51894,1.99932 -0.0579,0.15091 -0.32435,0.21399 -0.75384,0.17848 -0.63654,-0.0527 -0.67949,-0.098 -1.02865,-1.08449 -0.20041,-0.56624 -0.47881,-1.10193 -0.61866,-1.19043 -0.30413,-0.19243 -3.70072,-0.2174 -3.99631,-0.0294 -0.11371,0.0722 -0.37657,0.56827 -0.58412,1.10205 -0.48038,1.2355 -0.87757,1.56717 -1.5512,1.29536 z m 5.58123,-4.35753 c 0.0713,-0.37323 -0.76636,-3.02601 -1.14241,-3.61788 -0.14094,-0.22185 -0.32923,-0.35825 -0.41841,-0.30314 -0.23733,0.14669 -1.44079,3.96567 -1.3142,4.17047 0.0602,0.0972 0.70433,0.15131 1.46064,0.12261 1.14295,-0.0434 1.36264,-0.10118 1.41438,-0.37206 z m 14.1781,4.13269 c -0.11125,-0.20786 -0.18298,-1.97081 -0.18298,-4.49699 0,-2.93315 -0.0595,-4.19191 -0.20264,-4.28032 -0.11146,-0.0688 -0.62984,-0.1112704 -1.15198,-0.0942 -0.52213,0.0171 -1.10707,-0.0534 -1.29982,-0.15655 -0.45303,-0.24246 -0.45825,-0.98885 -0.009,-1.22949 0.36479,-0.19523 6.670678,-0.26193 7.156008,-0.0757 0.33524,0.12865 0.37817,1.04539 0.0586,1.25219 -0.12152,0.0786 -0.81752,0.18277 -1.54665,0.23138 l -1.32571,0.0884 -0.0195,4.27127 c -0.0107,2.34919 -0.0678,4.39741 -0.12702,4.55161 -0.15724,0.40974 -1.121088,0.36578 -1.349798,-0.0616 z m 11.129758,0.16904 c -0.21738,-0.13729 -0.27604,-0.7907 -0.32569,-3.62726 -0.0436,-2.49251 -0.002,-3.53064 0.14967,-3.71313 0.13435,-0.16188 0.57086,-0.25788 1.2095,-0.26598 0.54961,-0.007 1.38575,-0.0269 1.85809,-0.0444 0.76103,-0.0281 0.91594,0.0322 1.36043,0.52968 0.62804,0.7029 0.85614,1.73132 0.4697,2.11776 -0.41125,0.41124 -1.15353,0.1601 -1.29652,-0.43865 -0.0635,-0.26587 -0.19377,-0.58283 -0.28947,-0.70436 -0.27826,-0.35327 -1.14099,-0.2602 -1.53797,0.16591 -0.32973,0.35393 -0.3604,0.61417 -0.3604,3.05798 0,2.71902 -0.0858,3.09868 -0.69821,3.09264 -0.15069,-0.002 -0.3933,-0.0781 -0.53913,-0.17017 z m 14.582837,0.004 c -0.19442,-0.0805 -0.55238,-0.35998 -0.79544,-0.62121 -0.43121,-0.46353 -0.44324,-0.54966 -0.49764,-3.56674 -0.0582,-3.23289 0.0129,-3.59768 0.70045,-3.59768 0.53224,0 0.68102,0.71936 0.68102,3.29321 0,1.31251 0.0779,2.53188 0.17302,2.70971 0.23608,0.44113 1.03978,0.68656 1.68295,0.51392 0.91308,-0.2451 1.03007,-0.65639 0.99806,-3.50905 -0.0159,-1.41124 0.0315,-2.65123 0.10523,-2.75554 0.2262,-0.32002 0.70465,-0.4157 0.97973,-0.19593 0.3448,0.27548 0.60446,7.26988 0.28421,7.65576 -0.2476,0.29834 -0.75856,0.3115 -1.20757,0.031 -0.26202,-0.16363 -0.44222,-0.16363 -0.80134,0 -0.52436,0.23891 -1.77211,0.26193 -2.30268,0.0425 z m 6.3841,-0.0644 c -0.23759,-0.17789 -0.2814,-0.75672 -0.29536,-3.90242 -0.0163,-3.72654 0.025,-3.99016 0.62821,-3.99016 0.66501,0 0.70706,0.24229 0.70706,4.07697 0,3.66888 -0.008,3.74492 -0.38048,3.88332 -0.23296,0.0864 -0.48859,0.0602 -0.65943,-0.0677 z m 36.38865,-0.061 c -0.2605,-0.26055 -0.284,-0.69412 -0.207,-3.81812 0.048,-1.9496 0.1647,-3.60193 0.2609,-3.69818 0.096,-0.0957 0.3622,-0.14736 0.5921,-0.11483 l 0.4181,0.0592 0.048,3.78771 c 0.048,3.84969 0.016,4.06734 -0.6096,4.07547 -0.1146,0.002 -0.3406,-0.12956 -0.5023,-0.29121 z m -94.925885,-0.1063 c -0.0472,-0.1229 -0.0645,-2.40976 -0.0386,-5.0819 l 0.0471,-4.8584304 h 0.61867 0.61867 l 0.0469,5.0819004 0.0469,5.08189 h -0.62692 c -0.34481,0 -0.66552,-0.10056 -0.71267,-0.22345 z m 16.21033,-0.14741 c -0.35415,-0.95736 0.41397,-1.8223 1.23034,-1.3854 0.28082,0.15028 0.34072,0.33701 0.29775,0.92802 -0.052,0.71655 -0.0748,0.7416 -0.71836,0.79483 -0.55182,0.0456 -0.68919,-0.0117 -0.80973,-0.33745 z M 107.6149,7.9327706 c -0.34757,-0.20244 -0.4149,-1.04912 -0.12636,-1.58832 0.23122,-0.43203 1.02218,-0.4547 1.18363,-0.0339 0.20644,0.53792 0.12757,1.47752 -0.13809,1.64559 -0.32651,0.2065404 -0.53348,0.2012904 -0.91918,-0.0233 z m 36.75731,-0.10945 c -0.2598,-0.0674 -0.3086,-0.23444 -0.2651,-0.90748 0.046,-0.7166 0.1086,-0.83275 0.4752,-0.88456 0.5013,-0.071 0.7206,0.21737 0.7243,0.9523 0,0.48976 -0.2751,0.99423 -0.5188,0.94284 -0.053,-0.0113 -0.2405,-0.0576 -0.4156,-0.1031 z M 54.305975,3.3093305 c -0.31194,-0.31194 -0.25973,-1.99999 0.0721,-2.33184 0.31858,-0.31859 1.00261,-0.36176 1.50147,-0.0948 0.27813,0.14885 0.3419,0.37558 0.3419,1.21568 0,0.61564 -0.0893,1.1029 -0.22096,1.2065 -0.31325,0.24639 -1.44961,0.24936 -1.69454,0.005 z m 3.57798,-0.21249 c -0.36282,-0.518 -0.31906,-1.74807 0.0749,-2.10458 0.39478,-0.35726 1.25714,-0.38002 1.71495,-0.0452 0.25991,0.19006 0.32991,0.43656 0.30253,1.06545 -0.0535,1.2288 -0.26226,1.5021 -1.12133,1.46783 -0.50048,-0.0199 -0.79897,-0.13783 -0.97101,-0.38342 z m 4.22858,0.28966 c -0.44532,-0.0441 -0.59994,-0.16817 -0.75124,-0.60219 -0.25273,-0.72501 -0.24094,-1.41785 0.0304,-1.78849 0.1783,-0.24349 0.38355,-0.27943 1.06332,-0.18614 0.97107,0.13327 1.13182,0.43008 0.93691,1.7298 -0.12493,0.83319 -0.29375,0.94494 -1.27945,0.84702 z m 3.49103,-0.0177 c -0.66197,-0.0898 -0.80745,-0.18369 -0.94971,-0.61305 -0.2567,-0.77472 0.11129,-1.81141 0.69499,-1.9579 0.6527,-0.16383 1.44931,0.0476 1.65959,0.44059 0.29982,0.56022 -0.10753,2.35979 -0.51224,2.26293 -0.061,-0.0146 -0.46269,-0.0743 -0.89263,-0.13257 z m 13.863018,0.002 c -0.69177,-0.10531 -0.70895,-0.12562 -0.84782,-1.00239 -0.0862,-0.54431 -0.0711,-1.08097 0.0388,-1.36989 0.16276,-0.42813 0.26787,-0.47502 1.0647,-0.47502 0.73795,0 0.93003,0.0701 1.16182,0.42384 0.37048,0.56543 0.18407,2.16156 -0.28156,2.41077 -0.17506,0.0937 -0.3434,0.15905 -0.37409,0.14526 -0.0306,-0.0137 -0.37355,-0.0735 -0.7619,-0.13257 z m 2.99287,-0.0721 c -0.36627,-0.20383 -0.34801,-2.1257 0.0237,-2.49746 0.36851,-0.36849 1.18131,-0.35275 1.6566,0.0321 0.33353,0.27008 0.37577,0.45731 0.32891,1.45828 l -0.0538,1.14846 h -0.85073 c -0.46791,0 -0.96505,-0.0637 -1.10476,-0.14135 z m 3.49333,0.0177 c -0.11863,-0.11861 -0.21212,-0.6874 -0.21212,-1.29035 0,-1.26187 0.17736,-1.50248 1.10754,-1.50248 1.17955,0 1.36711,0.20616 1.36711,1.50248 0,0.94273 -0.0582,1.16771 -0.34189,1.31949 -0.4658,0.24928 -1.66034,0.23117 -1.92064,-0.0291 z M 8.243315,3.0739905 c -0.17683,-0.17683 -0.2777597,-0.59208 -0.2777597,-1.14272 0,-0.69447 0.0723,-0.90366 0.3667597,-1.06126 0.48548,-0.25982 1.71871,-0.0442 1.90106,0.33235 0.17014,0.35136 0.145,1.64369 -0.0377,1.93937 -0.1925,0.31146 -1.62274,0.26185 -1.95231,-0.0678 z m 4.00129,0.046 c -0.0909,-0.11556 -0.21593,-0.54245 -0.27785,-0.94866 -0.13364,-0.87681 0.17154,-1.2942 0.94629,-1.2942 0.95277,0 1.0624,0.12963 1.0624,1.25623 0,0.57292 -0.0596,1.04974 -0.13257,1.05959 -0.92352,0.12494 -1.46194,0.10035 -1.59827,-0.073 z m 3.3179,-0.0195 c -0.0952,-0.0952 -0.17297,-0.58602 -0.17297,-1.09088 0,-0.67397 0.0744,-0.94643 0.2796,-1.02521 0.46903,-0.17999 1.40482,-0.1198 1.62943,0.10482 0.23153,0.23154 0.28536,1.52304 0.0769,1.84333 -0.16938,0.26016 -1.58916,0.39168 -1.81289,0.16794 z m 3.50031,0.0563 c -0.34079,-0.19071 -0.40988,-1.66978 -0.0961,-2.05879 0.22717,-0.28171 1.41132,-0.2879 1.69039,-0.009 0.2859,0.2859 0.27872,1.89976 -0.009,1.98766 -0.64001,0.19562 -1.31766,0.22981 -1.58539,0.08 z m 31.60328,-0.0828 c -0.35646,-0.35649 -0.35793,-1.47349 -0.003,-1.98081 0.33448,-0.47752 1.49009,-0.54673 1.92173,-0.11509 0.27959,0.2796 0.38236,1.54193 0.17048,2.09407 -0.14757,0.38458 -1.70549,0.38594 -2.08961,0.002 z m 17.68919,0.1425 c -0.0518,-0.084 -0.11333,-0.51954 -0.13654,-0.96797 -0.0562,-1.08621 0.23706,-1.43669 1.07175,-1.28074 0.94703,0.17694 1.09539,0.37686 1.03596,1.39608 l -0.0524,0.8995 -0.91219,0.0528 c -0.50171,0.0291 -0.95465,-0.0158 -1.00654,-0.0998 z m 3.62397,-0.0986 c -0.22961,-0.27666 -0.317,-1.91299 -0.11927,-2.23296 0.15799,-0.25561 1.429,-0.11622 1.80793,0.19826 0.2746,0.2279 0.30413,1.44566 0.0467,1.92661 -0.21735,0.40613 -1.42559,0.48139 -1.73539,0.10809 z m 3.37557,0.0294 c -0.12092,-0.12091 -0.21986,-0.58932 -0.21986,-1.0409 0,-1.08141 0.38532,-1.44874 1.440208,-1.37299 l 0.76931,0.0552 v 1.23733 1.23732 l -0.88491,0.0519 c -0.53553,0.0314 -0.971698,-0.0348 -1.104748,-0.16793 z m 14.038918,0.0865 c -0.0648,-0.0649 -0.11785,-0.61882 -0.11785,-1.23111 0,-1.23348 0.20154,-1.47923 1.21308,-1.47923 0.79299,0 1.10467,0.40937 0.98536,1.29421 -0.21322,1.58157 -0.17873,1.53397 -1.11178,1.53397 -0.46803,0 -0.90401,-0.053 -0.96881,-0.11784 z m 3.4236,-0.22406 c -0.10064,-0.18804 -0.18298,-0.67054 -0.18298,-1.07219 0,-1.03905 0.24906,-1.41409 0.93908,-1.41409 0.96044,0 1.35881,0.41383 1.35881,1.41149 0,1.06203 -0.31134,1.41669 -1.24373,1.41669 -0.49949,0 -0.73837,-0.0937 -0.87118,-0.3419 z m 3.54589,0.0198 c -0.18999,-0.35499 -0.21738,-1.65726 -0.0405,-1.92765 0.0616,-0.0942 0.447868,-0.22375 0.858348,-0.28785 0.64957,-0.10139 0.78007,-0.0648 1.006619,0.2825 0.28558,0.43781 0.32412,1.45945 0.0734,1.94568 -0.22924,0.44457 -1.658199,0.43502 -1.897797,-0.0127 z m 3.553707,0.10991 c -0.11665,-0.11666 -0.21211,-0.61778 -0.21211,-1.1136 0,-1.09411 0.20312,-1.32572 1.16266,-1.32572 0.9877,0 1.17009,0.26012 1.02828,1.46657 -0.0935,0.7958 -0.18512,0.99751 -0.49011,1.07937 -0.61666,0.16548 -1.26289,0.11919 -1.48872,-0.10662 z m 3.80268,-0.0176 c -0.14909,-0.11669 -0.32344,-0.61547 -0.38752,-1.10838 -0.13919,-1.07103 0.12152,-1.39235 1.10701,-1.36442 0.85313,0.0241 1.11382,0.40842 0.98083,1.44556 -0.0575,0.44829 -0.15391,0.8642 -0.21423,0.92427 -0.23843,0.2374 -1.22684,0.3059 -1.48609,0.10297 z m 14.10327,0.10039 c -0.47379,-0.11837 -0.61273,-0.36943 -0.61597,-1.11286 -0.005,-1.1659 0.82227,-1.73696 1.77654,-1.22625 0.25572,0.13686 0.3413,0.37073 0.33949,0.92799 -0.005,1.50416 -0.24048,1.72581 -1.50006,1.41112 z m 3.09954,-0.21257 c -0.30034,-0.56118 -0.22188,-1.68924 0.14029,-2.01698 0.37678,-0.34099 1.27942,-0.38677 1.58575,-0.0805 0.26021,0.2602 0.27925,1.63012 0.0292,2.09741 -0.13323,0.24899 -0.37176,0.34191 -0.87756,0.34191 -0.50584,0 -0.74435,-0.0929 -0.87762,-0.34191 z m 3.39552,0.1377 c -0.12102,-0.12101 -0.22003,-0.6 -0.22003,-1.06441 0,-0.7019 0.0734,-0.89244 0.43472,-1.12922 0.51692,-0.3387 1.43396,-0.20254 1.66279,0.24687 0.0826,0.16223 0.10181,0.69269 0.0427,1.17878 l -0.10747,0.8838 -0.79631,0.0521 c -0.46649,0.0305 -0.8875,-0.039 -1.01641,-0.16793 z m 3.5273,-0.008 c -0.33653,-0.33654 -0.2635,-1.63095 0.11116,-1.97001 0.42904,-0.38828 1.31762,-0.37206 1.6821,0.0307 0.34176,0.37766 0.39355,1.62618 0.0805,1.93931 -0.11665,0.11665 -0.53824,0.2121 -0.93684,0.2121 -0.39858,0 -0.82016,-0.0955 -0.93685,-0.2121 z m 3.61774,0.0943 c -0.20359,-0.20358 -0.12803,-1.92241 0.0943,-2.14471 0.53382,-0.53386 2.07352,-0.012 1.83082,0.62058 -0.054,0.14123 -0.099,0.56845 -0.099,0.94939 v 0.69258 h -0.8543 c -0.4699,0 -0.90743,-0.053 -0.97222,-0.11784 z m 3.42162,-0.31305 c -0.4839,-1.27264 0.075,-2.34161 1.112,-2.12713 0.7203,0.14895 1.0056,0.52195 1.0022,1.31029 0,0.89078 -0.1961,1.09696 -1.1202,1.20112 -0.7569,0.0854 -0.8256,0.0587 -0.994,-0.38428 z m 3.7512,0.22681 c -0.1211,-0.12107 -0.2202,-0.63198 -0.2202,-1.13534 0,-1.15605 0.2789,-1.4365 1.202,-1.20843 l 0.654,0.16157 v 1.14895 1.14894 l -0.7079,0.0522 c -0.3975,0.0293 -0.8043,-0.0442 -0.9279,-0.16793 z m 3.5034,-0.0471 c -0.2777,-0.33452 -0.092,-1.93684 0.2582,-2.22738 0.1315,-0.10913 0.4621,-0.17279 0.7345,-0.14147 0.6893,0.0792 1.0327,0.82708 0.8279,1.8028 -0.1463,0.69722 -0.1843,0.73113 -0.8753,0.78177 -0.4831,0.0354 -0.7962,-0.036 -0.9453,-0.21572 z m 3.7397,-0.024 c -0.3021,-0.21161 -0.3928,-0.45025 -0.3928,-1.03317 0,-0.86781 0.3882,-1.34309 1.097,-1.34309 0.6387,0 0.9088,0.42065 0.8733,1.36028 -0.044,1.17459 -0.7251,1.61299 -1.5775,1.01598 z m 4.2576,0.0465 c -0.073,-0.11729 -0.147,-0.63659 -0.1636,-1.154 -0.031,-0.96898 0.2569,-1.36826 0.681,-0.94419 0.2043,0.20434 0.3249,1.32352 0.1966,1.82443 -0.097,0.37834 -0.5418,0.54891 -0.714,0.27376 z M 5.1389058,3.0436205 c -0.33941,-0.0409 -0.67625,-0.16743 -0.74852,-0.28103 -0.23051,-0.36235 -0.14652,-1.32058 0.14094,-1.60803 0.35436,-0.35437 1.552079,-0.36361 1.842049,-0.0142 0.2928805,0.3529 0.0794,1.7898 -0.28676,1.93032 -0.14912,0.0572 -0.284489,0.0913 -0.300859,0.0757 -0.0163,-0.0156 -0.30742,-0.0617 -0.64685,-0.10277 z m 17.2548792,-0.14007 c -0.20328,-0.52973 -0.11355,-1.46822 0.16722,-1.74899 0.34639,-0.3464 1.37602,-0.36279 1.65521,-0.0263 0.11677,0.14069 0.18468,0.62724 0.15422,1.10476 l -0.0543,0.85336 -0.90584,0.0526 c -0.70688,0.041 -0.93011,-0.0106 -1.01637,-0.23541 z m 3.49637,0.0262 c -0.0516,-0.13471 -0.0691,-0.58997 -0.0386,-1.01169 0.0544,-0.75419 0.0683,-0.76931 0.84063,-0.92116 0.663,-0.13036 0.82124,-0.1052 1.01637,0.16166 0.27722,0.37912 0.30089,1.20195 0.0481,1.67421 -0.22554,0.42142 -1.71234,0.49867 -1.86648,0.097 z m 3.46977,-0.097 c -0.2111,-0.39445 -0.23763,-1.24693 -0.0476,-1.53279 0.16419,-0.24711 1.31575,-0.46578 1.69219,-0.32132 0.37246,0.14293 0.56781,1.22303 0.31967,1.76763 -0.16432,0.36067 -0.32051,0.42839 -0.98818,0.42839 -0.60309,0 -0.8368,-0.082 -0.97597,-0.34191 z m 3.57322,0.22483 c -0.28615,-0.11545 -0.29319,-1.68438 -0.009,-1.96871 0.11666,-0.11667 0.50986,-0.21212 0.87378,-0.21212 1.00769,0 1.53719,1.00649 1.02903,1.956 -0.13872,0.25918 -0.36323,0.33852 -0.92801,0.32794 -0.40977,-0.008 -0.84444,-0.054 -0.96596,-0.10311 z m 3.46848,-0.17524 c -0.33228,-0.40037 -0.31672,-1.79207 0.0226,-2.01929 0.38611,-0.25858 1.6293,-0.0611 1.89398,0.30089 0.31327,0.42844 0.28498,1.39735 -0.0506,1.73294 -0.37172,0.37173 -1.55299,0.36252 -1.86591,-0.0145 z m 3.48831,0.0126 c -0.18473,-0.48141 -0.11709,-1.76103 0.10482,-1.98295 0.33013,-0.33012 1.45713,-0.26027 1.79326,0.11114 0.34175,0.37765 0.39354,1.62618 0.0805,1.9393 -0.32574,0.32575 -1.84751,0.27384 -1.97849,-0.0675 z m 3.53524,0 c -0.059,-0.15378 -0.1073,-0.58943 -0.1073,-0.96812 0,-0.88536 0.57246,-1.3247 1.49954,-1.15078 0.88939,0.16685 1.27194,1.16007 0.79214,2.0566 -0.24288,0.45383 -2.01475,0.50437 -2.18438,0.0622 z m 3.68053,0.0455 c -0.0533,-0.139 -0.0724,-0.63774 -0.0422,-1.10833 0.051,-0.79756 0.094,-0.86679 0.633,-1.02057 0.39243,-0.11195 0.72188,-0.0995 1.02519,0.0386 0.41313,0.18823 0.44295,0.28053 0.39395,1.2198 l -0.053,1.01615 -0.92997,0.0535 c -0.68055,0.0392 -0.95599,-0.0143 -1.02695,-0.19922 z m 59.944745,-0.15875 c -0.31634,-0.45164 -0.35827,-1.24275 -0.0922,-1.7399 0.21138,-0.39496 1.37351,-0.48235 1.72605,-0.12979 0.26031,0.26029 0.27841,1.45485 0.0292,1.92064 -0.26618,0.4974 -1.30111,0.46568 -1.66298,-0.0508 z m 3.48011,0.18866 c -0.12104,-0.12102 -0.22003,-0.59903 -0.22003,-1.06226 0,-0.98539 0.32409,-1.2617 1.37739,-1.17425 l 0.65537,0.0543 v 1.14896 1.14895 l -0.79634,0.052 c -0.4665,0.0305 -0.88751,-0.039 -1.01639,-0.16791 z m 3.43304,0.0864 c -0.0648,-0.0648 -0.11783,-0.54377 -0.11783,-1.06436 0,-0.84209 0.0495,-0.96909 0.44902,-1.1511 0.3039,-0.13848 0.60382,-0.15045 0.92798,-0.037 0.4187,0.14644 0.48584,0.27452 0.53342,1.01752 0.0303,0.475 -0.0375,0.96092 -0.15421,1.10141 -0.2104,0.25353 -1.41983,0.35212 -1.63838,0.13357 z M 0.7618558,2.7938705 c -0.23337,-0.23339 -0.29221,-0.99386 -0.113,-1.46086 0.0795,-0.20713 0.35436,-0.27959 1.06056,-0.27959 h 0.95328 v 0.78499 c 0,0.89008 -0.009,0.89945 -0.97284,1.0588 -0.47016,0.0778 -0.78164,0.043 -0.928,-0.10334 z"
       id="path5025-3" />
  </g>
</svg>
