<?xml version="1.0" encoding="UTF-8" standalone="no"?>
<!-- Created with Inkscape (http://www.inkscape.org/) -->

<svg
   width="32.200001mm"
   height="32.200001mm"
   viewBox="0 0 32.2 32.200001"
   version="1.1"
   id="svg34763"
   inkscape:version="1.2.2 (b0a8486541, 2022-12-01)"
   sodipodi:docname="sello_asercap_01.svg"
   xmlns:inkscape="http://www.inkscape.org/namespaces/inkscape"
   xmlns:sodipodi="http://sodipodi.sourceforge.net/DTD/sodipodi-0.dtd"
   xmlns="http://www.w3.org/2000/svg"
   xmlns:svg="http://www.w3.org/2000/svg">
  <sodipodi:namedview
     id="namedview34765"
     pagecolor="#505050"
     bordercolor="#ffffff"
     borderopacity="1"
     inkscape:showpageshadow="0"
     inkscape:pageopacity="0"
     inkscape:pagecheckerboard="1"
     inkscape:deskcolor="#505050"
     inkscape:document-units="mm"
     showgrid="false"
     inkscape:zoom="5.5945567"
     inkscape:cx="137.45504"
     inkscape:cy="71.587442"
     inkscape:window-width="2512"
     inkscape:window-height="1011"
     inkscape:window-x="0"
     inkscape:window-y="0"
     inkscape:window-maximized="1"
     inkscape:current-layer="layer1" />
  <defs
     id="defs34760" />
  <g
     inkscape:label="Capa 1"
     inkscape:groupmode="layer"
     id="layer1">
    <g
       id="g34395"
       transform="translate(-41.106129,-92.837994)">
      <path
         d="m 57.249481,93.213066 c 8.698512,0 15.750011,7.051494 15.750011,15.749974 0,8.69851 -7.051499,15.75001 -15.750011,15.75001 -8.698512,0 -15.75001,-7.0515 -15.75001,-15.75001 0,-8.69848 7.051498,-15.749974 15.75001,-15.749974 z"
         style="fill:none;stroke:#2e3092;stroke-width:0.19999;stroke-linecap:round;stroke-linejoin:round;stroke-miterlimit:22.9256;stroke-dasharray:none;stroke-opacity:1"
         id="path150" />
      <path
         d="m 57.249481,93.963036 c 8.282905,0 15.000005,6.717104 15.000005,15.000004 0,8.28291 -6.7171,15.00001 -15.000005,15.00001 -8.282904,0 -15.000005,-6.7171 -15.000005,-15.00001 0,-8.2829 6.717101,-15.000004 15.000005,-15.000004 z m 0,0.596124 c 7.953693,0 14.403917,6.45019 14.403917,14.40388 0,7.95369 -6.450224,14.40392 -14.403917,14.40392 -7.953692,0 -14.403881,-6.45023 -14.403881,-14.40392 0,-7.95369 6.450189,-14.40388 14.403881,-14.40388 z"
         style="fill:none;stroke:#2e3092;stroke-width:0.0762;stroke-linecap:round;stroke-linejoin:round;stroke-miterlimit:22.9256;stroke-dasharray:none;stroke-opacity:1"
         id="path152" />
      <path
         d="m 57.249481,93.963036 c 8.282905,0 15.000005,6.717104 15.000005,15.000004 0,8.28291 -6.7171,15.00001 -15.000005,15.00001 -8.282904,0 -15.000005,-6.7171 -15.000005,-15.00001 0,-8.2829 6.717101,-15.000004 15.000005,-15.000004 z m 0,0.596124 c 7.953693,0 14.403917,6.45019 14.403917,14.40388 0,7.95369 -6.450224,14.40392 -14.403917,14.40392 -7.953692,0 -14.403881,-6.45023 -14.403881,-14.40392 0,-7.95369 6.450189,-14.40388 14.403881,-14.40388"
         style="fill:#2e3092;fill-opacity:1;fill-rule:evenodd;stroke:none;stroke-width:0.352778"
         id="path154" />
      <path
         d="m 57.258301,98.144758 c 6.24459,0 11.308679,5.064092 11.308679,11.308682 0,6.24462 -5.064089,11.30871 -11.308679,11.30871 -6.244625,0 -11.308715,-5.06409 -11.308715,-11.30871 0,-6.24459 5.06409,-11.308682 11.308715,-11.308682 z m 0,0.449403 c 5.996375,0 10.859276,4.862899 10.859276,10.859279 0,5.99641 -4.862901,10.85931 -10.859276,10.85931 -5.996411,0 -10.859311,-4.8629 -10.859311,-10.85931 0,-5.99638 4.8629,-10.859279 10.859311,-10.859279"
         style="fill:#2e3092;fill-opacity:1;fill-rule:evenodd;stroke:none;stroke-width:0.352778"
         id="path156" />
      <path
         d="m 50.37409,116.25926 h 0.670277 c 0.146015,0 0.255306,0.0346 0.328225,0.10411 0.0725,0.0695 0.109008,0.16848 0.109008,0.29689 0,0.1317 -0.03983,0.23488 -0.119027,0.309 -0.0793,0.0744 -0.200378,0.11137 -0.363079,0.11137 h -0.221015 v 0.48271 H 50.37409 Z m 0.404389,0.55728 h 0.09931 c 0.07828,0 0.133209,-0.0136 0.164782,-0.0407 0.03161,-0.027 0.04741,-0.0616 0.04741,-0.10378 0,-0.041 -0.01369,-0.0756 -0.04131,-0.10411 -0.02737,-0.0285 -0.07899,-0.0428 -0.154869,-0.0428 h -0.115323 z m 0.918315,0.7468 v -1.30408 h 0.671478 c 0.124495,0 0.219816,0.0106 0.285397,0.0322 0.06583,0.0212 0.119027,0.061 0.159314,0.11871 0.04039,0.0579 0.0605,0.1287 0.0605,0.21181 0,0.0723 -0.01549,0.1348 -0.0465,0.18729 -0.03069,0.0529 -0.0732,0.0954 -0.127494,0.1281 -0.03433,0.0207 -0.0817,0.038 -0.141499,0.0517 0.04798,0.016 0.0829,0.0318 0.104775,0.0479 0.0145,0.0106 0.03612,0.0337 0.06431,0.0686 0.02801,0.0349 0.04681,0.0619 0.0562,0.0811 l 0.195792,0.3767 H 52.52367 l -0.215194,-0.39769 c -0.0273,-0.0516 -0.05158,-0.085 -0.07278,-0.1005 -0.02921,-0.02 -0.0623,-0.03 -0.09902,-0.03 h -0.03549 v 0.52818 z m 0.40439,-0.7741 h 0.170285 c 0.0182,0 0.05401,-0.006 0.106822,-0.0179 0.0267,-0.005 0.04858,-0.0188 0.0653,-0.041 0.017,-0.0221 0.02551,-0.0473 0.02551,-0.0759 0,-0.0422 -0.01341,-0.0747 -0.04011,-0.0971 -0.02671,-0.0228 -0.0768,-0.034 -0.150495,-0.034 H 52.10119 Z m 0.924595,0.12291 c 0,-0.2128 0.0592,-0.3785 0.177906,-0.49689 0.118604,-0.11871 0.283809,-0.17791 0.495688,-0.17791 0.217029,0 0.384316,0.0583 0.501826,0.17459 0.117475,0.11653 0.176001,0.2799 0.176001,0.48962 0,0.1524 -0.02551,0.27718 -0.0768,0.37458 -0.05133,0.0975 -0.125624,0.17339 -0.222532,0.22772 -0.09708,0.0543 -0.217876,0.0814 -0.362691,0.0814 -0.147002,0 -0.268675,-0.0234 -0.365195,-0.0702 -0.09631,-0.047 -0.17459,-0.1211 -0.234386,-0.22249 -0.0598,-0.10111 -0.08982,-0.228 -0.08982,-0.3804 z m 0.402519,9.8e-4 c 0,0.13141 0.02459,0.22614 0.07348,0.28353 0.04911,0.0574 0.115887,0.0862 0.200307,0.0862 0.0865,0 0.153882,-0.0282 0.201295,-0.0844 0.04759,-0.0565 0.0713,-0.1572 0.0713,-0.30332 0,-0.12259 -0.02491,-0.21209 -0.0744,-0.2686 -0.04971,-0.0568 -0.116805,-0.085 -0.201789,-0.085 -0.08142,0 -0.147003,0.0288 -0.196109,0.0862 -0.0495,0.0574 -0.07408,0.15272 -0.07408,0.28539 z m 1.16198,-0.65387 h 0.531601 l 0.202388,0.7935 0.20313,-0.7935 h 0.529096 v 1.30408 h -0.329601 v -0.9942 l -0.254423,0.9942 h -0.298697 l -0.253788,-0.9942 v 0.9942 h -0.329706 z m 1.671814,0.65289 c 0,-0.2128 0.0592,-0.3785 0.177905,-0.49689 0.118604,-0.11871 0.283775,-0.17791 0.495688,-0.17791 0.216994,0 0.384317,0.0583 0.501792,0.17459 0.11751,0.11653 0.176,0.2799 0.176,0.48962 0,0.1524 -0.02551,0.27718 -0.0768,0.37458 -0.05129,0.0975 -0.125589,0.17339 -0.222497,0.22772 -0.09708,0.0543 -0.217911,0.0814 -0.362691,0.0814 -0.147003,0 -0.268711,-0.0234 -0.365196,-0.0702 -0.09631,-0.047 -0.174625,-0.1211 -0.23442,-0.22249 -0.0598,-0.10111 -0.08978,-0.228 -0.08978,-0.3804 z m 0.402484,9.8e-4 c 0,0.13141 0.02462,0.22614 0.07352,0.28353 0.04911,0.0574 0.115887,0.0862 0.200272,0.0862 0.0865,0 0.153917,-0.0282 0.20133,-0.0844 0.04759,-0.0565 0.0713,-0.1572 0.0713,-0.30332 0,-0.12259 -0.02491,-0.21209 -0.0744,-0.2686 -0.04971,-0.0568 -0.116804,-0.085 -0.201824,-0.085 -0.08139,0 -0.146967,0.0288 -0.196074,0.0862 -0.04949,0.0574 -0.07412,0.15272 -0.07412,0.28539 z m 1.0275,-0.65387 h 1.225797 v 0.3224 h -0.411586 v 0.98168 h -0.40259 v -0.98168 h -0.411621 z m 1.293319,0.65289 c 0,-0.2128 0.0592,-0.3785 0.177906,-0.49689 0.118568,-0.11871 0.283774,-0.17791 0.495688,-0.17791 0.216993,0 0.384281,0.0583 0.501791,0.17459 0.11751,0.11653 0.176001,0.2799 0.176001,0.48962 0,0.1524 -0.02551,0.27718 -0.0768,0.37458 -0.05129,0.0975 -0.125589,0.17339 -0.222497,0.22772 -0.09708,0.0543 -0.217911,0.0814 -0.362691,0.0814 -0.147002,0 -0.268711,-0.0234 -0.365195,-0.0702 -0.09631,-0.047 -0.174625,-0.1211 -0.234421,-0.22249 -0.0598,-0.10111 -0.08978,-0.228 -0.08978,-0.3804 z m 0.402484,9.8e-4 c 0,0.13141 0.02459,0.22614 0.07352,0.28353 0.04907,0.0574 0.115887,0.0862 0.200272,0.0862 0.0865,0 0.153917,-0.0282 0.20133,-0.0844 0.04759,-0.0565 0.0713,-0.1572 0.0713,-0.30332 0,-0.12259 -0.02491,-0.21209 -0.0744,-0.2686 -0.04971,-0.0568 -0.116805,-0.085 -0.201824,-0.085 -0.08139,0 -0.147003,0.0288 -0.196074,0.0862 -0.04953,0.0574 -0.07412,0.15272 -0.07412,0.28539 z m 1.171116,0.65021 v -1.30408 h 0.671478 c 0.124495,0 0.219815,0.0106 0.285397,0.0322 0.06583,0.0212 0.119027,0.061 0.159314,0.11871 0.04039,0.0579 0.0605,0.1287 0.0605,0.21181 0,0.0723 -0.01549,0.1348 -0.0465,0.18729 -0.03069,0.0529 -0.0732,0.0954 -0.127494,0.1281 -0.03433,0.0207 -0.0817,0.038 -0.1415,0.0517 0.04798,0.016 0.0829,0.0318 0.104775,0.0479 0.0145,0.0106 0.03612,0.0337 0.06431,0.0686 0.02801,0.0349 0.04681,0.0619 0.0562,0.0811 l 0.195792,0.3767 h -0.455401 l -0.215194,-0.39769 c -0.0273,-0.0516 -0.05158,-0.085 -0.07278,-0.1005 -0.02921,-0.02 -0.0623,-0.03 -0.09902,-0.03 h -0.03549 v 0.52818 z m 0.40439,-0.7741 h 0.170285 c 0.0182,0 0.05401,-0.006 0.106822,-0.0179 0.0267,-0.005 0.04858,-0.0188 0.0653,-0.041 0.017,-0.0221 0.02551,-0.0473 0.02551,-0.0759 0,-0.0422 -0.0134,-0.0747 -0.04011,-0.0971 -0.02671,-0.0228 -0.0768,-0.034 -0.150495,-0.034 h -0.177306 z m 1.023302,-0.52998 h 0.404283 v 1.30408 h -0.404283 z m 1.494684,1.0892 h -0.4566 l -0.06548,0.21488 h -0.411409 l 0.49089,-1.30408 h 0.441114 l 0.488703,1.30408 H 63.54667 Z m -0.0853,-0.28233 -0.142382,-0.4687 -0.143016,0.4687 z"
         style="fill:none;stroke:#2e3092;stroke-width:0.0760942;stroke-linecap:round;stroke-linejoin:round;stroke-miterlimit:22.9256;stroke-dasharray:none;stroke-opacity:1"
         id="path158" />
      <path
         d="m 50.37409,116.25926 h 0.670277 c 0.146015,0 0.255306,0.0346 0.328225,0.10411 0.0725,0.0695 0.109008,0.16848 0.109008,0.29689 0,0.1317 -0.03983,0.23488 -0.119027,0.309 -0.0793,0.0744 -0.200378,0.11137 -0.363079,0.11137 h -0.221015 v 0.48271 H 50.37409 Z m 0.404389,0.55728 h 0.09931 c 0.07828,0 0.133209,-0.0136 0.164782,-0.0407 0.03161,-0.027 0.04741,-0.0616 0.04741,-0.10378 0,-0.041 -0.01369,-0.0756 -0.04131,-0.10411 -0.02737,-0.0285 -0.07899,-0.0428 -0.154869,-0.0428 h -0.115323 z m 0.918315,0.7468 v -1.30408 h 0.671478 c 0.124495,0 0.219816,0.0106 0.285397,0.0322 0.06583,0.0212 0.119027,0.061 0.159314,0.11871 0.04039,0.0579 0.0605,0.1287 0.0605,0.21181 0,0.0723 -0.01549,0.1348 -0.0465,0.18729 -0.03069,0.0529 -0.0732,0.0954 -0.127494,0.1281 -0.03433,0.0207 -0.0817,0.038 -0.141499,0.0517 0.04798,0.016 0.0829,0.0318 0.104775,0.0479 0.0145,0.0106 0.03612,0.0337 0.06431,0.0686 0.02801,0.0349 0.04681,0.0619 0.0562,0.0811 l 0.195792,0.3767 H 52.52367 l -0.215194,-0.39769 c -0.0273,-0.0516 -0.05158,-0.085 -0.07278,-0.1005 -0.02921,-0.02 -0.0623,-0.03 -0.09902,-0.03 h -0.03549 v 0.52818 z m 0.40439,-0.7741 h 0.170285 c 0.0182,0 0.05401,-0.006 0.106822,-0.0179 0.0267,-0.005 0.04858,-0.0188 0.0653,-0.041 0.017,-0.0221 0.02551,-0.0473 0.02551,-0.0759 0,-0.0422 -0.01341,-0.0747 -0.04011,-0.0971 -0.02671,-0.0228 -0.0768,-0.034 -0.150495,-0.034 H 52.10119 Z m 0.924595,0.12291 c 0,-0.2128 0.0592,-0.3785 0.177906,-0.49689 0.118604,-0.11871 0.283809,-0.17791 0.495688,-0.17791 0.217029,0 0.384316,0.0583 0.501826,0.17459 0.117475,0.11653 0.176001,0.2799 0.176001,0.48962 0,0.1524 -0.02551,0.27718 -0.0768,0.37458 -0.05133,0.0975 -0.125624,0.17339 -0.222532,0.22772 -0.09708,0.0543 -0.217876,0.0814 -0.362691,0.0814 -0.147002,0 -0.268675,-0.0234 -0.365195,-0.0702 -0.09631,-0.047 -0.17459,-0.1211 -0.234386,-0.22249 -0.0598,-0.10111 -0.08982,-0.228 -0.08982,-0.3804 z m 0.402519,9.8e-4 c 0,0.13141 0.02459,0.22614 0.07348,0.28353 0.04911,0.0574 0.115887,0.0862 0.200307,0.0862 0.0865,0 0.153882,-0.0282 0.201295,-0.0844 0.04759,-0.0565 0.0713,-0.1572 0.0713,-0.30332 0,-0.12259 -0.02491,-0.21209 -0.0744,-0.2686 -0.04971,-0.0568 -0.116805,-0.085 -0.201789,-0.085 -0.08142,0 -0.147003,0.0288 -0.196109,0.0862 -0.0495,0.0574 -0.07408,0.15272 -0.07408,0.28539 z m 1.16198,-0.65387 h 0.531601 l 0.202388,0.7935 0.20313,-0.7935 h 0.529096 v 1.30408 h -0.329601 v -0.9942 l -0.254423,0.9942 h -0.298697 l -0.253788,-0.9942 v 0.9942 h -0.329706 z m 1.671814,0.65289 c 0,-0.2128 0.0592,-0.3785 0.177905,-0.49689 0.118604,-0.11871 0.283775,-0.17791 0.495688,-0.17791 0.216994,0 0.384317,0.0583 0.501792,0.17459 0.11751,0.11653 0.176,0.2799 0.176,0.48962 0,0.1524 -0.02551,0.27718 -0.0768,0.37458 -0.05129,0.0975 -0.125589,0.17339 -0.222497,0.22772 -0.09708,0.0543 -0.217911,0.0814 -0.362691,0.0814 -0.147003,0 -0.268711,-0.0234 -0.365196,-0.0702 -0.09631,-0.047 -0.174625,-0.1211 -0.23442,-0.22249 -0.0598,-0.10111 -0.08978,-0.228 -0.08978,-0.3804 z m 0.402484,9.8e-4 c 0,0.13141 0.02462,0.22614 0.07352,0.28353 0.04911,0.0574 0.115887,0.0862 0.200272,0.0862 0.0865,0 0.153917,-0.0282 0.20133,-0.0844 0.04759,-0.0565 0.0713,-0.1572 0.0713,-0.30332 0,-0.12259 -0.02491,-0.21209 -0.0744,-0.2686 -0.04971,-0.0568 -0.116804,-0.085 -0.201824,-0.085 -0.08139,0 -0.146967,0.0288 -0.196074,0.0862 -0.04949,0.0574 -0.07412,0.15272 -0.07412,0.28539 z m 1.0275,-0.65387 h 1.225797 v 0.3224 h -0.411586 v 0.98168 h -0.40259 v -0.98168 h -0.411621 z m 1.293319,0.65289 c 0,-0.2128 0.0592,-0.3785 0.177906,-0.49689 0.118568,-0.11871 0.283774,-0.17791 0.495688,-0.17791 0.216993,0 0.384281,0.0583 0.501791,0.17459 0.11751,0.11653 0.176001,0.2799 0.176001,0.48962 0,0.1524 -0.02551,0.27718 -0.0768,0.37458 -0.05129,0.0975 -0.125589,0.17339 -0.222497,0.22772 -0.09708,0.0543 -0.217911,0.0814 -0.362691,0.0814 -0.147002,0 -0.268711,-0.0234 -0.365195,-0.0702 -0.09631,-0.047 -0.174625,-0.1211 -0.234421,-0.22249 -0.0598,-0.10111 -0.08978,-0.228 -0.08978,-0.3804 z m 0.402484,9.8e-4 c 0,0.13141 0.02459,0.22614 0.07352,0.28353 0.04907,0.0574 0.115887,0.0862 0.200272,0.0862 0.0865,0 0.153917,-0.0282 0.20133,-0.0844 0.04759,-0.0565 0.0713,-0.1572 0.0713,-0.30332 0,-0.12259 -0.02491,-0.21209 -0.0744,-0.2686 -0.04971,-0.0568 -0.116805,-0.085 -0.201824,-0.085 -0.08139,0 -0.147003,0.0288 -0.196074,0.0862 -0.04953,0.0574 -0.07412,0.15272 -0.07412,0.28539 z m 1.171116,0.65021 v -1.30408 h 0.671478 c 0.124495,0 0.219815,0.0106 0.285397,0.0322 0.06583,0.0212 0.119027,0.061 0.159314,0.11871 0.04039,0.0579 0.0605,0.1287 0.0605,0.21181 0,0.0723 -0.01549,0.1348 -0.0465,0.18729 -0.03069,0.0529 -0.0732,0.0954 -0.127494,0.1281 -0.03433,0.0207 -0.0817,0.038 -0.1415,0.0517 0.04798,0.016 0.0829,0.0318 0.104775,0.0479 0.0145,0.0106 0.03612,0.0337 0.06431,0.0686 0.02801,0.0349 0.04681,0.0619 0.0562,0.0811 l 0.195792,0.3767 h -0.455401 l -0.215194,-0.39769 c -0.0273,-0.0516 -0.05158,-0.085 -0.07278,-0.1005 -0.02921,-0.02 -0.0623,-0.03 -0.09902,-0.03 h -0.03549 v 0.52818 z m 0.40439,-0.7741 h 0.170285 c 0.0182,0 0.05401,-0.006 0.106822,-0.0179 0.0267,-0.005 0.04858,-0.0188 0.0653,-0.041 0.017,-0.0221 0.02551,-0.0473 0.02551,-0.0759 0,-0.0422 -0.0134,-0.0747 -0.04011,-0.0971 -0.02671,-0.0228 -0.0768,-0.034 -0.150495,-0.034 h -0.177306 z m 1.023302,-0.52998 h 0.404283 v 1.30408 h -0.404283 z m 1.494684,1.0892 h -0.4566 l -0.06548,0.21488 h -0.411409 l 0.49089,-1.30408 h 0.441114 l 0.488703,1.30408 H 63.54667 Z m -0.0853,-0.28233 -0.142382,-0.4687 -0.143016,0.4687 z"
         style="fill:#2e3092;fill-opacity:1;fill-rule:nonzero;stroke:none;stroke-width:0.352778"
         id="path160" />
      <path
         d="m 52.4595,121.17356 -0.408622,-0.32441 c 0.08269,-0.11769 0.175013,-0.20708 0.277001,-0.2673 0.101705,-0.0607 0.21082,-0.0936 0.328118,-0.0982 0.116876,-0.005 0.252272,0.023 0.405801,0.084 0.18669,0.0742 0.327871,0.16167 0.424991,0.2625 0.09649,0.10117 0.160408,0.23699 0.192087,0.407 0.03171,0.17007 0.0054,0.36188 -0.07878,0.57407 -0.112501,0.28321 -0.274532,0.4711 -0.48581,0.56349 -0.211596,0.092 -0.455189,0.0834 -0.731203,-0.0263 -0.215794,-0.0857 -0.368405,-0.19649 -0.457517,-0.33298 -0.08848,-0.13632 -0.127388,-0.30692 -0.115288,-0.51181 l 0.507718,0.0819 c -0.0042,0.0584 -0.0021,0.10311 0.0063,0.1343 0.01401,0.0521 0.03789,0.0976 0.072,0.13621 0.0344,0.039 0.07789,0.0688 0.130987,0.0898 0.120403,0.0479 0.23181,0.0362 0.333904,-0.0346 0.07652,-0.0522 0.145626,-0.15512 0.206304,-0.3078 0.07542,-0.1899 0.09811,-0.33091 0.0683,-0.4245 -0.02999,-0.0931 -0.09698,-0.16041 -0.201507,-0.2019 -0.101282,-0.0403 -0.189089,-0.0424 -0.263595,-0.006 -0.0744,0.0361 -0.144604,0.10378 -0.211173,0.20249 z m -1.361228,0.60329 -1.321082,-0.7608 0.196708,-0.34149 0.825571,0.47558 0.146509,-0.25439 -0.765387,-0.4408 0.187607,-0.32579 0.765387,0.4408 0.181292,-0.31461 -0.850194,-0.48969 0.208209,-0.36153 1.345601,0.77502 z m -1.820192,-1.10681 -0.418007,-0.32868 0.0859,-1.2277 -0.629391,0.8002 -0.423016,-0.33281 1.139931,-1.44921 0.42298,0.33271 -0.08548,1.22099 0.625969,-0.7959 0.421005,0.33123 z m -1.808304,-1.5186 -1.136297,-1.30859 0.344099,-0.29891 0.3816,0.43952 1.048103,-0.91009 0.373097,0.42979 -1.047996,0.90999 0.381599,0.43942 z m 0.105198,-2.736 -1.553704,0.99271 -0.511175,-0.8001 c -0.09472,-0.14831 -0.154622,-0.26991 -0.178893,-0.36449 -0.0248,-0.0946 -0.01792,-0.1882 0.02007,-0.28021 0.03831,-0.0922 0.107315,-0.1699 0.206516,-0.23329 0.08608,-0.055 0.172403,-0.0841 0.25848,-0.0872 0.08622,-0.004 0.169228,0.0146 0.249696,0.0544 0.05073,0.0251 0.107315,0.0684 0.169228,0.12919 -0.01743,-0.0694 -0.02522,-0.12287 -0.02261,-0.16119 0.0016,-0.0255 0.01259,-0.0687 0.03281,-0.1289 0.02029,-0.0599 0.0381,-0.1028 0.0538,-0.12859 l 0.299684,-0.5201 0.34671,0.5425 -0.310091,0.55919 c -0.0406,0.0718 -0.06191,0.12619 -0.0641,0.1633 -0.0017,0.05 0.0115,0.097 0.03948,0.1408 l 0.02702,0.0423 0.629285,-0.40209 z m -1.230101,0.10752 -0.129575,-0.20292 c -0.0139,-0.0217 -0.04833,-0.0598 -0.102729,-0.1137 -0.02649,-0.0279 -0.05937,-0.0435 -0.09839,-0.0466 -0.03951,-0.003 -0.07588,0.006 -0.109891,0.0274 -0.05031,0.0321 -0.07881,0.0728 -0.0853,0.12171 -0.0068,0.0491 0.01799,0.1173 0.07419,0.20518 l 0.134902,0.21131 z m -0.630801,-1.36729 c -0.280282,0.10957 -0.528991,0.11698 -0.745984,0.0218 -0.217488,-0.0951 -0.380401,-0.28212 -0.489621,-0.56113 -0.111795,-0.28579 -0.121179,-0.53598 -0.02868,-0.7505 0.09299,-0.21481 0.277883,-0.3761 0.554002,-0.48419 0.200695,-0.0785 0.378107,-0.10911 0.5328,-0.0918 0.154693,0.0173 0.292911,0.0762 0.414408,0.17568 0.121603,0.0999 0.219393,0.24511 0.29397,0.43572 0.07571,0.19339 0.107703,0.36569 0.09581,0.51689 -0.01238,0.15099 -0.0696,0.29231 -0.172191,0.4233 -0.102411,0.13081 -0.254,0.23569 -0.454518,0.31422 z m -0.206199,-0.53051 c 0.173002,-0.0677 0.285115,-0.14891 0.335421,-0.24282 0.0502,-0.0942 0.0538,-0.19699 0.0103,-0.30808 -0.04463,-0.11402 -0.116416,-0.1881 -0.214806,-0.22161 -0.09881,-0.0337 -0.243699,-0.0129 -0.435998,0.0623 -0.161502,0.0632 -0.266594,0.1421 -0.315419,0.23639 -0.04907,0.0948 -0.05179,0.19759 -0.008,0.3095 0.04187,0.1071 0.113701,0.17861 0.214595,0.21392 0.101,0.0355 0.239183,0.0188 0.413879,-0.0496 z m -1.773802,-2.49361 -0.104493,-0.84028 c -0.0206,-0.16531 -0.01471,-0.30233 0.01739,-0.40961 0.03242,-0.10742 0.08632,-0.19971 0.161819,-0.27711 0.0761,-0.0768 0.167605,-0.13709 0.275485,-0.1809 0.107808,-0.0441 0.224013,-0.0737 0.34872,-0.0892 0.195475,-0.0243 0.349885,-0.0211 0.463198,0.0103 0.113277,0.0308 0.211278,0.0814 0.294005,0.15158 0.08269,0.0701 0.141781,0.14891 0.177376,0.23661 0.04861,0.11981 0.0792,0.23019 0.09172,0.3307 l 0.104493,0.84028 z m 0.343711,-0.6162 0.999208,-0.12432 -0.01732,-0.13888 c -0.01468,-0.1184 -0.03838,-0.20109 -0.07059,-0.24811 -0.0327,-0.0466 -0.08308,-0.0801 -0.151694,-0.10058 -0.06921,-0.0203 -0.176601,-0.0212 -0.32311,-0.003 -0.19378,0.0241 -0.322297,0.0721 -0.385974,0.1445 -0.06361,0.0724 -0.08643,0.18199 -0.06812,0.329 z m -0.586493,-1.64669 0.0423,-1.5239 0.393912,0.0109 -0.02653,0.9525 0.293405,0.008 0.02452,-0.883 0.375884,0.0105 -0.02448,0.8829 0.362903,0.0101 0.02727,-0.98069 0.417018,0.0116 -0.04311,1.55218 z m 0.266912,-3.07132 0.34417,-1.48509 0.383822,0.0889 -0.215124,0.92819 0.286033,0.0663 0.19939,-0.86054 0.366289,0.0849 -0.19939,0.86049 0.353695,0.0819 0.221509,-0.95571 0.4064,0.0941 -0.350626,1.51282 z m 0.583283,-2.15138 0.347698,-0.77213 c 0.0684,-0.15187 0.144603,-0.26589 0.227788,-0.34078 0.08361,-0.0749 0.177624,-0.1258 0.282328,-0.15261 0.104987,-0.0261 0.214595,-0.0299 0.329389,-0.0112 0.115111,0.0184 0.229693,0.0535 0.344311,0.10509 0.179599,0.0809 0.309774,0.164 0.390278,0.24969 0.08072,0.0852 0.138112,0.17943 0.172297,0.2823 0.03422,0.1029 0.0436,0.2009 0.0284,0.29432 -0.02067,0.1277 -0.052,0.23788 -0.09359,0.3302 l -0.347592,0.77219 z m 0.61401,-0.34759 0.918104,0.41338 0.0575,-0.1277 c 0.049,-0.1088 0.07179,-0.1917 0.06869,-0.24861 -0.0037,-0.0567 -0.02932,-0.11158 -0.07729,-0.16478 -0.04851,-0.0533 -0.139806,-0.11 -0.274426,-0.1706 -0.178082,-0.0801 -0.312773,-0.10601 -0.404777,-0.0773 -0.09201,0.0288 -0.168522,0.1106 -0.229306,0.24561 z m 1.009191,-2.70803 0.307093,-0.47929 0.924701,0.5926 c 0.09141,0.0586 0.16891,0.12859 0.23181,0.2092 0.06339,0.0809 0.105904,0.17141 0.127812,0.2716 0.02198,0.10019 0.0236,0.19149 0.0057,0.27429 -0.0254,0.11521 -0.0798,0.2384 -0.163406,0.36883 -0.0484,0.0756 -0.106574,0.15448 -0.174272,0.23699 -0.06773,0.0826 -0.136525,0.1439 -0.206517,0.1838 -0.06981,0.0398 -0.149507,0.0663 -0.239112,0.0787 -0.08968,0.0129 -0.171203,0.009 -0.244299,-0.0123 -0.117687,-0.0336 -0.214595,-0.0749 -0.290795,-0.12368 l -0.924807,-0.59263 0.307129,-0.47908 0.946785,0.60668 c 0.08449,0.0541 0.165594,0.073 0.242887,0.0568 0.07772,-0.0164 0.143299,-0.0662 0.196497,-0.14933 0.0526,-0.082 0.07063,-0.16179 0.05373,-0.2389 -0.01672,-0.0764 -0.06823,-0.14249 -0.154128,-0.19759 z m 2.420585,-1.1756 0.454025,-0.2571 c 0.078,0.12082 0.126294,0.23992 0.143792,0.35711 0.0182,0.11709 0.0077,0.23051 -0.032,0.34089 -0.0393,0.11032 -0.115994,0.22532 -0.230117,0.3447 -0.138783,0.14521 -0.272874,0.24331 -0.402802,0.29552 -0.129998,0.0514 -0.279788,0.0597 -0.449298,0.0253 -0.16958,-0.0344 -0.337573,-0.13071 -0.502673,-0.2884 -0.220203,-0.2105 -0.333622,-0.4312 -0.340113,-0.6617 -0.0058,-0.23061 0.09359,-0.45322 0.298697,-0.668023 0.160514,-0.167781 0.320499,-0.267687 0.480413,-0.298979 0.159597,-0.03101 0.332281,-0.0028 0.517701,0.08509 l -0.266523,0.439812 c -0.05249,-0.0258 -0.09479,-0.0406 -0.126683,-0.0445 -0.05362,-0.007 -0.10481,-0.001 -0.153317,0.0157 -0.04911,0.0172 -0.09299,0.0464 -0.132503,0.0877 -0.0895,0.0937 -0.120403,0.20134 -0.0931,0.32241 0.01961,0.0906 0.08911,0.19321 0.207927,0.30681 0.147779,0.14111 0.269875,0.21509 0.367877,0.2225 0.09751,0.007 0.184996,-0.0296 0.262819,-0.11099 0.07528,-0.0788 0.110102,-0.15942 0.104387,-0.24211 -0.0056,-0.0825 -0.04191,-0.173 -0.108514,-0.27171 z m 1.818816,-0.94509 -0.5074,0.399097 0.114899,0.296083 -0.457094,0.35952 -0.594219,-1.878295 0.49022,-0.385516 1.682891,1.022209 -0.468912,0.368794 z m -0.341489,-0.239183 -0.567796,-0.396523 0.250684,0.645901 z m 1.963879,-1.218812 0.513715,-0.09162 c 0.03341,0.139912 0.0393,0.268323 0.0169,0.384599 -0.0218,0.116522 -0.06932,0.219921 -0.14351,0.310903 -0.0737,0.09091 -0.184291,0.173919 -0.331611,0.248602 -0.179176,0.09081 -0.338173,0.138712 -0.478085,0.144815 -0.1397,0.0053 -0.28381,-0.03669 -0.432188,-0.125518 -0.148519,-0.08879 -0.27492,-0.235479 -0.378213,-0.439102 -0.137795,-0.271675 -0.171415,-0.51749 -0.100789,-0.737094 0.07108,-0.219499 0.238796,-0.396275 0.503697,-0.530684 0.20708,-0.105022 0.391301,-0.146015 0.552485,-0.122414 0.160796,0.02392 0.314395,0.107703 0.460022,0.252413 l -0.397616,0.326284 c -0.04089,-0.0418 -0.07581,-0.06988 -0.104704,-0.08421 -0.0483,-0.02399 -0.09828,-0.0362 -0.14979,-0.03609 -0.05189,-1.06e-4 -0.103117,0.01281 -0.153987,0.03859 -0.115605,0.0586 -0.180622,0.149895 -0.195122,0.273226 -0.01161,0.0919 0.01979,0.211772 0.09419,0.358387 0.09243,0.18221 0.183021,0.292594 0.272909,0.332211 0.08961,0.03919 0.184397,0.03348 0.284797,-0.01743 0.09719,-0.04918 0.156916,-0.113701 0.178894,-0.19357 0.02222,-0.07973 0.01803,-0.177129 -0.01199,-0.292311 z m 0.477908,-1.398306 0.541408,-0.183797 0.592702,1.746003 -0.541408,0.183692 z m 1.238602,0.534 c -0.06759,-0.293193 -0.0388,-0.540314 0.0871,-0.741115 0.125695,-0.201366 0.334398,-0.33528 0.626392,-0.402696 0.299015,-0.069 0.5479,-0.04188 0.74669,0.08082 0.198931,0.123402 0.331611,0.329706 0.398321,0.618596 0.0484,0.210009 0.05288,0.389996 0.0133,0.540597 -0.03972,0.150389 -0.11811,0.278694 -0.234209,0.384386 -0.116593,0.105728 -0.274391,0.181328 -0.473887,0.227401 -0.202423,0.04671 -0.377507,0.0532 -0.525321,0.01951 -0.147602,-0.03429 -0.278977,-0.111408 -0.3937,-0.231987 -0.114476,-0.120403 -0.19618,-0.285609 -0.244686,-0.495512 z M 54.0978,97.020667 c 0.04177,0.180975 0.105798,0.303671 0.191382,0.367171 0.08601,0.06343 0.187113,0.08191 0.303389,0.0551 0.119203,-0.02759 0.203023,-0.08781 0.250401,-0.180305 0.0478,-0.09289 0.0484,-0.239289 0.0018,-0.440478 -0.03898,-0.16891 -0.101705,-0.28441 -0.187889,-0.346393 -0.08661,-0.06241 -0.187995,-0.08001 -0.305118,-0.05292 -0.112077,0.02579 -0.193181,0.0864 -0.242781,0.181117 -0.04992,0.09468 -0.05352,0.233891 -0.01129,0.416701 z m 0.0465,-1.459124 0.429084,-0.09899 -0.311891,0.4578 -0.238407,0.055 z m 1.731575,0.177411 0.53153,-0.01489 0.719772,0.998185 -0.0285,-1.017588 0.538021,-0.01503 0.05161,1.843017 -0.538022,0.0151 -0.71568,-0.992787 0.0284,1.012084 -0.535517,0.01499 z m 3.248024,0.0792 1.705293,0.30921 -0.08132,0.448486 -0.5727,-0.103893 -0.247579,1.365779 -0.56,-0.1016 0.247686,-1.365673 -0.5727,-0.103928 z m 2.304274,0.496394 1.416721,0.562998 -0.145521,0.366218 -0.885402,-0.351895 -0.108373,0.272767 0.820878,0.326214 -0.138888,0.349391 -0.820808,-0.326178 -0.134091,0.337396 0.911683,0.362303 -0.153987,0.387703 -1.443108,-0.573405 z m 0.857003,-0.183198 0.409223,0.162595 -0.516996,0.199108 -0.22733,-0.09031 z m 1.632515,2.547197 0.357611,0.3798 c -0.09881,0.104599 -0.203024,0.179811 -0.312703,0.224614 -0.109396,0.04551 -0.222003,0.0623 -0.338702,0.04988 -0.116522,-0.01199 -0.246415,-0.0592 -0.389502,-0.141605 -0.174095,-0.100401 -0.301201,-0.207292 -0.382693,-0.321099 -0.08093,-0.113982 -0.124601,-0.257598 -0.13141,-0.430388 -0.0069,-0.172897 0.04678,-0.358987 0.160797,-0.55679 0.152082,-0.264018 0.339513,-0.426508 0.561904,-0.487609 0.222603,-0.0605 0.462386,-0.01679 0.719808,0.131516 0.201189,0.115887 0.336197,0.247685 0.404601,0.395569 0.06798,0.147602 0.08177,0.322016 0.04029,0.523099 L 64.11719,98.291159 c 0.01259,-0.05711 0.0169,-0.101706 0.01309,-0.133703 -0.0063,-0.05362 -0.02339,-0.102094 -0.05158,-0.145204 -0.0284,-0.0435 -0.0672,-0.0793 -0.116698,-0.107808 -0.112325,-0.0647 -0.224226,-0.06918 -0.335316,-0.0139 -0.08329,0.0406 -0.166511,0.132503 -0.248602,0.27492 -0.101988,0.176988 -0.14478,0.313196 -0.128799,0.410175 0.01619,0.09652 0.07281,0.17272 0.170321,0.228917 0.09437,0.0544 0.180975,0.06911 0.259997,0.04389 0.07878,-0.02498 0.15808,-0.08181 0.23809,-0.169898 z m 1.508301,-0.339584 0.401708,0.348474 -0.144921,1.222128 0.667209,-0.768915 0.406505,0.352708 -1.208299,1.392592 -0.406611,-0.35271 0.144215,-1.215283 -0.663504,0.764683 -0.404601,-0.351087 z m 1.726883,1.570672 0.394899,0.413315 -1.332971,1.27381 -0.395005,-0.41332 z m 0.666996,2.551715 0.166723,0.49441 c -0.13342,0.0538 -0.259503,0.0787 -0.377895,0.0737 -0.118428,-0.004 -0.227824,-0.036 -0.328719,-0.0959 -0.100788,-0.0595 -0.199178,-0.15649 -0.294887,-0.29108 -0.116416,-0.16379 -0.187395,-0.314 -0.213995,-0.45152 -0.026,-0.1373 -0.0058,-0.28599 0.05997,-0.44587 0.06593,-0.16002 0.192334,-0.30681 0.378319,-0.43904 0.24839,-0.1766 0.486515,-0.24616 0.714092,-0.20888 0.227613,0.0378 0.42732,0.17749 0.599405,0.4196 0.134514,0.1893 0.202389,0.3653 0.202812,0.52828 1.76e-4,0.16253 -0.0599,0.32682 -0.181398,0.49223 l -0.3816,-0.3448 c 0.03528,-0.0467 0.05789,-0.0854 0.0677,-0.1161 0.01669,-0.0513 0.02127,-0.10262 0.01358,-0.15342 -0.0076,-0.0514 -0.02791,-0.10009 -0.061,-0.14669 -0.07511,-0.10558 -0.175013,-0.15631 -0.299015,-0.1524 -0.09267,0.002 -0.206586,0.0509 -0.340571,0.14619 -0.166512,0.11832 -0.26222,0.2243 -0.288114,0.31913 -0.02551,0.0944 -0.0059,0.18729 0.0593,0.27897 0.06318,0.0889 0.135784,0.1384 0.218087,0.14831 0.08202,0.0102 0.17773,-0.008 0.287196,-0.0551 z m 0.639128,0.63341 c 0.274073,-0.124 0.522076,-0.14432 0.743797,-0.0604 0.222108,0.0837 0.394476,0.26198 0.517983,0.53499 0.1264,0.27961 0.148696,0.52899 0.06752,0.748 -0.08181,0.21932 -0.258022,0.38999 -0.528214,0.51219 -0.196286,0.0888 -0.372004,0.12863 -0.527403,0.11931 -0.155293,-0.009 -0.296404,-0.061 -0.42291,-0.15398 -0.126577,-0.0936 -0.231775,-0.23351 -0.316195,-0.42002 -0.08548,-0.1892 -0.1264,-0.35959 -0.122378,-0.51121 0.0046,-0.15148 0.0544,-0.29549 0.150071,-0.43159 0.09553,-0.13589 0.241406,-0.2486 0.437727,-0.33729 z m 0.233292,0.51901 c -0.169298,0.0766 -0.277001,0.16347 -0.322404,0.25989 -0.04519,0.0967 -0.0435,0.19949 0.0056,0.30818 0.05048,0.11152 0.126083,0.18183 0.22599,0.21022 0.100506,0.0285 0.244087,2.9e-4 0.432294,-0.0848 0.158009,-0.0714 0.258798,-0.15572 0.302718,-0.25231 0.0442,-0.0973 0.04149,-0.2001 -0.0081,-0.3096 -0.04741,-0.10481 -0.122696,-0.1724 -0.225283,-0.20239 -0.102729,-0.0303 -0.239925,-0.007 -0.41081,0.0708 z m 1.859209,2.29788 0.213078,0.92351 c 0.04643,0.20108 0.03351,0.36258 -0.03909,0.48521 -0.07271,0.12199 -0.197485,0.20358 -0.374297,0.24437 -0.18161,0.0419 -0.336409,0.02 -0.463691,-0.0656 -0.1276,-0.0855 -0.217099,-0.24059 -0.268923,-0.46471 l -0.0702,-0.30448 -0.664881,0.15339 -0.128622,-0.55701 z m -0.639304,0.73431 0.03161,0.13681 c 0.02487,0.10788 0.06117,0.17917 0.108374,0.21406 0.04731,0.0349 0.100012,0.0457 0.158115,0.0323 0.05648,-0.0131 0.0998,-0.0429 0.13028,-0.09 0.03073,-0.0467 0.03401,-0.12241 0.0098,-0.22701 l -0.03658,-0.15889 z m -0.781402,1.5155 1.843087,-0.0516 0.0266,0.94901 c 0.0049,0.17589 -0.0063,0.311 -0.03419,0.4046 -0.02741,0.0939 -0.08149,0.17049 -0.161395,0.2299 -0.08033,0.0594 -0.179529,0.0905 -0.29711,0.0938 -0.102094,0.003 -0.1911,-0.0166 -0.266594,-0.0583 -0.07571,-0.0412 -0.137513,-0.0996 -0.18602,-0.17501 -0.03059,-0.0477 -0.0569,-0.11398 -0.0786,-0.19788 -0.02078,0.0684 -0.0417,0.11829 -0.0636,0.14979 -0.0145,0.021 -0.04618,0.0524 -0.09447,0.0937 -0.04812,0.0409 -0.08562,0.0685 -0.112325,0.0826 l -0.52458,0.29171 -0.0181,-0.6435 0.553579,-0.32001 c 0.07183,-0.0407 0.118004,-0.0763 0.1391,-0.10699 0.02713,-0.042 0.04,-0.0891 0.03852,-0.14101 l -0.0014,-0.0502 -0.746514,0.0209 z m 1.110085,0.54081 0.0067,0.2407 c 7.06e-4,0.0257 0.01069,0.0762 0.02949,0.15039 0.0084,0.0374 0.02861,0.0678 0.0605,0.0905 0.0321,0.0232 0.06802,0.0342 0.108303,0.0331 0.05973,-0.002 0.105022,-0.0219 0.135713,-0.0605 0.03119,-0.0386 0.04498,-0.10978 0.04209,-0.21406 l -0.0071,-0.25062 z m -0.145203,1.45447 c 0.298627,0.0372 0.520806,0.14922 0.666115,0.33651 0.145909,0.18718 0.19999,0.42929 0.162983,0.72662 -0.03799,0.30448 -0.148978,0.52888 -0.332598,0.67338 -0.18408,0.1445 -0.423475,0.19819 -0.717692,0.1615 -0.213889,-0.0266 -0.384492,-0.0842 -0.512198,-0.17321 -0.127705,-0.089 -0.221191,-0.20659 -0.280599,-0.35201 -0.0592,-0.14576 -0.07599,-0.32007 -0.05069,-0.52317 0.02568,-0.20612 0.07969,-0.37281 0.162207,-0.50009 0.0829,-0.12683 0.200484,-0.22373 0.353095,-0.28992 0.1524,-0.0662 0.335704,-0.0862 0.549381,-0.0596 z m -0.07158,0.56462 c -0.184397,-0.023 -0.321593,-0.005 -0.410599,0.0535 -0.08911,0.059 -0.141216,0.1476 -0.155998,0.26603 -0.0151,0.12149 0.0127,0.22087 0.08319,0.29718 0.07091,0.0767 0.208104,0.1276 0.413103,0.1531 0.172014,0.0214 0.302013,0.002 0.389784,-0.0574 0.08841,-0.06 0.1397,-0.14912 0.154623,-0.2684 0.01418,-0.11412 -0.01482,-0.2111 -0.08671,-0.29019 -0.07179,-0.0794 -0.201295,-0.13064 -0.387385,-0.15381 z m 0.603285,2.1192 -0.270193,0.80261 c -0.05309,0.15787 -0.117792,0.2788 -0.193216,0.36149 -0.07588,0.0827 -0.164395,0.14259 -0.265995,0.17949 -0.101882,0.0363 -0.210502,0.0509 -0.326601,0.0436 -0.116382,-0.007 -0.233892,-0.0307 -0.35299,-0.0708 -0.18669,-0.0629 -0.324414,-0.13278 -0.412891,-0.21011 -0.08872,-0.077 -0.155116,-0.165 -0.199213,-0.26409 -0.0441,-0.099 -0.06318,-0.19569 -0.05719,-0.29009 0.0081,-0.12912 0.0284,-0.24179 0.06068,-0.33782 L 68.88,112.25234 Z m -0.576898,0.4063 -0.954193,-0.32121 -0.0447,0.13261 c -0.0381,0.1131 -0.0526,0.19787 -0.04399,0.25418 0.0093,0.0561 0.04018,0.10819 0.09317,0.15642 0.05352,0.0483 0.149931,0.0957 0.289807,0.1428 0.185103,0.0623 0.321698,0.0748 0.410422,0.0372 0.08879,-0.0376 0.156774,-0.12662 0.204082,-0.26691 z m -0.719208,2.80158 -0.258374,0.50723 -0.978606,-0.49862 c -0.0967,-0.0493 -0.180692,-0.1113 -0.251319,-0.18532 -0.07108,-0.0743 -0.122202,-0.16019 -0.153881,-0.25766 -0.03182,-0.0975 -0.0424,-0.18821 -0.0327,-0.27242 0.0139,-0.11719 0.05588,-0.24511 0.126189,-0.38312 0.04082,-0.08 0.09091,-0.16428 0.150213,-0.25308 0.05909,-0.0888 0.121602,-0.1566 0.187289,-0.2032 0.06562,-0.0465 0.142311,-0.0807 0.230188,-0.10192 0.08802,-0.0216 0.16951,-0.0254 0.244298,-0.0118 0.120404,0.0219 0.221016,0.0534 0.301625,0.0944 l 0.978677,0.49859 -0.258375,0.50711 -1.001924,-0.5105 c -0.0895,-0.0455 -0.172085,-0.0563 -0.247403,-0.0326 -0.07567,0.024 -0.135996,0.0801 -0.180799,0.16799 -0.04427,0.0868 -0.05429,0.168 -0.02988,0.243 0.0242,0.0744 0.08188,0.13511 0.172896,0.1815 z m -2.271007,1.4217 -0.426296,0.30092 c -0.08957,-0.11251 -0.149472,-0.22631 -0.178471,-0.34111 -0.0297,-0.11468 -0.03052,-0.2286 -0.0021,-0.3424 0.02829,-0.1136 0.0931,-0.23559 0.194909,-0.3658 0.123684,-0.15829 0.247404,-0.2692 0.371475,-0.33401 0.124214,-0.0641 0.272521,-0.0872 0.4445,-0.0697 0.172227,0.0174 0.348898,0.0966 0.528814,0.23711 0.240101,0.18771 0.374791,0.39602 0.404001,0.62469 0.02879,0.22892 -0.04812,0.46031 -0.230893,0.69431 -0.143016,0.18302 -0.292417,0.2982 -0.448415,0.34523 -0.155681,0.0466 -0.330412,0.0359 -0.523593,-0.0333 l 0.22158,-0.46411 c 0.05482,0.0205 0.09832,0.031 0.130527,0.0317 0.05397,0.001 0.104387,-0.009 0.150989,-0.0308 0.0471,-0.0219 0.08791,-0.0554 0.123084,-0.1004 0.07983,-0.10213 0.09991,-0.21231 0.06071,-0.33013 -0.0285,-0.0882 -0.107808,-0.18338 -0.237313,-0.28459 -0.160973,-0.1258 -0.289878,-0.18729 -0.388091,-0.185 -0.09779,0.003 -0.181187,0.0479 -0.250508,0.13649 -0.0671,0.0859 -0.09377,0.16962 -0.07987,0.25132 0.01369,0.0816 0.05888,0.16799 0.134867,0.25958 z m 0.269734,1.37802 -1.256629,1.19348 -0.313902,-0.33048 0.422028,-0.40079 -0.955922,-1.00641 0.412715,-0.3919 0.955781,1.0064 0.422028,-0.40082 z m -1.690617,1.51849 -0.465984,0.33119 -1.068105,-1.5029 0.465984,-0.33109 z m -0.782884,0.57831 -0.515408,0.29799 -1.023797,-0.94089 0.309704,1.35368 -0.500627,0.28942 -0.330094,-1.9389 0.534423,-0.3089 z m -3.653825,0.0788 0.600921,-0.23608 -0.0248,-0.3168 0.541196,-0.21262 0.02829,1.96981 -0.58039,0.22811 -1.317413,-1.4634 0.555307,-0.21823 z m 0.258198,0.3273 0.429718,0.54321 -0.05412,-0.69081 z"
         style="fill:#2e3092;fill-opacity:1;fill-rule:nonzero;stroke:none;stroke-width:0.352778"
         id="path162" />
      <path
         d="m 51.694995,112.14266 h 0.738999 l 0.414585,0.50938 0.750922,0.0111 0.03948,-0.009 0.240595,0.0135 h -3.779697 z m 4.751282,0 h 6.20402 l 1.595085,0.52458 h -10.36581 l -0.240595,-0.0135 z"
         style="fill:#2e3092;fill-opacity:1;fill-rule:evenodd;stroke:none;stroke-width:0.352778"
         id="path166" />
      <g
         id="g168"
         transform="matrix(0.35277777,0,0,-0.35277777,15.904985,148.41305)">
        <path
           d="m 114.3289,121.1533 2.2845,-4.2704 2.194,-4.094 -1.6898,-4.3731 -1.8601,-4.8206 -9.3412,-1.9828 -0.9993,-0.0261 -3.2374,5.0312 -3.4135,5.3133 3.2987,5.4105 2.9302,4.7976 0.9992,0.0258 4.2871,-0.5556 z m -0.8603,-1.7855 1.8391,-3.3809 1.7802,-3.2681 -1.4057,-3.4784 -1.5194,-3.7573 -3.7451,-0.5961 -4.2401,-0.6761 -2.412,3.8424 -2.5109,4.0045 2.3692,4.1026 2.1668,3.742 4.0663,-0.2818 z"
           style="fill:#2e3092;fill-opacity:1;fill-rule:evenodd;stroke:none"
           id="path170" />
        <path
           d="m 115.3281,121.1791 c 0.7702,-1.4451 1.5341,-2.8681 2.2842,-4.2704 0.7401,-1.3838 1.4706,-2.7487 2.194,-4.0938 -0.5474,-1.4128 -1.1117,-2.8703 -1.6897,-4.3733 -0.5979,-1.5542 -1.2198,-3.1603 -1.8598,-4.8203 -1.5084,-0.2931 -3.0904,-0.6009 -4.7549,-0.9241 -1.7631,-0.3424 -3.6218,-0.703 -5.5856,-1.0848 -1.0611,1.6452 -2.1408,3.3233 -3.2378,5.0312 -1.1165,1.7382 -2.2603,3.5062 -3.4135,5.313 1.1413,1.8774 2.2439,3.6794 3.299,5.4108 1.0111,1.6591 1.9879,3.2578 2.9302,4.7973 1.8533,-0.1856 3.6127,-0.362 5.2863,-0.5298 1.5871,-0.159 3.1005,-0.3109 4.5476,-0.4558 z m -0.8606,-1.7855 c 0.6225,-1.1396 1.2325,-2.2666 1.8394,-3.3809 0.5996,-1.101 1.1943,-2.1918 1.7802,-3.2678 -0.4572,-1.1307 -0.9252,-2.2915 -1.406,-3.4784 -0.4932,-1.2183 -1.0018,-2.4721 -1.5191,-3.7573 -1.2016,-0.1916 -2.4494,-0.3901 -3.7451,-0.5964 -1.3527,-0.2152 -2.7661,-0.4422 -4.2401,-0.6761 -0.7942,1.2614 -1.599,2.5455 -2.4123,3.8427 -0.8243,1.315 -1.6636,2.6504 -2.5106,4.0045 0.8147,1.4102 1.6038,2.7779 2.3692,4.1026 0.7421,1.2843 1.4646,2.5307 2.1665,3.7417 1.4114,-0.0975 2.7661,-0.1916 4.0666,-0.2818 1.2498,-0.0867 2.4517,-0.172 3.6113,-0.2528"
           style="fill:#2e3092;fill-opacity:1;fill-rule:evenodd;stroke:none"
           id="path172" />
      </g>
      <path
         d="m 59.145097,99.758152 0.736883,1.377598 0.707707,1.32069 -0.545112,1.41073 -0.599899,1.55497 -3.013498,0.63973 -0.322192,0.008 -1.044399,-1.62299 -1.101195,-1.7139 1.064189,-1.74541 0.945198,-1.547596 0.322297,-0.0084 1.382995,0.179282 z m -0.2776,0.576018 0.593301,1.09068 0.574287,1.05421 -0.453496,1.12201 -0.490114,1.21207 -1.208087,0.1923 -1.36779,0.21812 -0.778122,-1.23952 -0.809978,-1.2918 0.764293,-1.32348 0.698994,-1.207 1.311698,0.0909 z"
         style="fill:#2e3092;fill-opacity:1;fill-rule:evenodd;stroke:none;stroke-width:0.352778"
         id="path174" />
      <path
         d="m 59.467395,99.749861 c 0.248497,0.466199 0.494877,0.925199 0.736882,1.377489 0.23869,0.44651 0.47431,0.88682 0.707708,1.3207 -0.176495,0.45572 -0.358599,0.9259 -0.545112,1.41068 -0.192793,0.50141 -0.393383,1.01953 -0.599899,1.55501 -0.486586,0.0945 -0.996879,0.19393 -1.533807,0.2981 -0.56889,0.11053 -1.1684,0.2268 -1.801989,0.35003 -0.342194,-0.53072 -0.690492,-1.07213 -1.044399,-1.62303 -0.36008,-0.56077 -0.729085,-1.13107 -1.10109,-1.714 0.368089,-0.60548 0.723795,-1.18689 1.064084,-1.7453 0.326214,-0.53531 0.641315,-1.051103 0.945303,-1.547673 0.597923,0.05997 1.165508,0.11677 1.705293,0.170886 0.512021,0.05129 1.000231,0.100295 1.467026,0.147108 z m -0.277601,0.575879 c 0.200801,0.36763 0.397581,0.7313 0.593302,1.09071 0.193499,0.35522 0.385304,0.70701 0.574287,1.05421 -0.147496,0.3647 -0.298485,0.73918 -0.453496,1.12197 -0.159209,0.3931 -0.323215,0.79753 -0.490114,1.21211 -0.387597,0.0618 -0.790081,0.1258 -1.208088,0.19241 -0.436386,0.0694 -0.892316,0.14259 -1.36779,0.21802 -0.256222,-0.40693 -0.515796,-0.82102 -0.778121,-1.23952 -0.265995,-0.42418 -0.536681,-0.855 -0.809978,-1.29181 0.26289,-0.45497 0.517384,-0.89619 0.764293,-1.32337 0.239395,-0.41441 0.47251,-0.81644 0.698888,-1.2071 0.455295,0.0315 0.892316,0.0618 1.311804,0.0909 0.40319,0.028 0.790892,0.0555 1.165013,0.0815"
         style="fill:#2e3092;fill-opacity:1;fill-rule:evenodd;stroke:none;stroke-width:0.352778"
         id="path176" />
      <path
         d="m 62.190381,105.58167 0.660612,1.23497 0.6344,1.18392 -0.488597,1.2646 -0.53781,1.394 -2.701396,0.57341 -0.288995,0.007 -0.936202,-1.45489 -0.987108,-1.53648 0.953912,-1.56461 0.847372,-1.3874 0.288925,-0.008 1.239802,0.16073 z m -0.248814,0.51639 0.531812,0.97769 0.514809,0.94499 -0.406506,1.00591 -0.439314,1.08652 -1.083098,0.17247 -1.22608,0.19551 -0.697618,-1.11122 -0.726087,-1.15799 0.6852,-1.18639 0.626604,-1.08211 1.175879,0.0815 z"
         style="fill:#2e3092;fill-opacity:1;fill-rule:evenodd;stroke:none;stroke-width:0.352778"
         id="path178" />
      <path
         d="m 62.479271,105.57415 c 0.222814,0.41801 0.443724,0.82942 0.660611,1.23501 0.213995,0.40019 0.425203,0.79488 0.634401,1.18388 -0.158186,0.40852 -0.321487,0.83002 -0.488598,1.26461 -0.172896,0.44951 -0.352707,0.9139 -0.537809,1.394 -0.436175,0.0847 -0.893692,0.17381 -1.374987,0.26719 -0.509905,0.099 -1.047397,0.20331 -1.615299,0.31373 -0.306811,-0.47572 -0.61909,-0.96101 -0.936307,-1.45493 -0.322898,-0.50267 -0.653592,-1.01399 -0.987108,-1.53649 0.330024,-0.54278 0.6489,-1.06401 0.953911,-1.5646 0.292382,-0.47989 0.574887,-0.9422 0.847408,-1.38741 0.535975,0.0538 1.044786,0.10471 1.528692,0.15321 0.458999,0.046 0.896584,0.0899 1.315085,0.1318 z m -0.248779,0.5164 c 0.179987,0.32949 0.356376,0.65549 0.531777,0.97769 0.173531,0.31841 0.345405,0.6338 0.514914,0.94502 -0.132291,0.32699 -0.267582,0.66258 -0.406611,1.00591 -0.142699,0.35228 -0.289701,0.71487 -0.439279,1.08648 -0.347522,0.0554 -0.708307,0.11279 -1.083098,0.17251 -0.391125,0.0622 -0.799818,0.12788 -1.226115,0.19548 -0.229693,-0.36478 -0.462386,-0.73608 -0.697512,-1.11118 -0.238372,-0.3803 -0.481189,-0.76652 -0.726087,-1.158 0.23562,-0.40791 0.463797,-0.80341 0.685094,-1.18642 0.214595,-0.37148 0.423616,-0.73188 0.626604,-1.08208 0.408093,0.0282 0.799818,0.0554 1.175914,0.0815 0.361492,0.025 0.708978,0.0497 1.044399,0.0731"
         style="fill:#2e3092;fill-opacity:1;fill-rule:evenodd;stroke:none;stroke-width:0.352778"
         id="path180" />
      <path
         d="m 55.556889,109.79655 c -0.419806,0.0478 -0.855804,0.0975 -1.309511,0.1494 -0.06389,0.2317 -0.127106,0.46479 -0.1911,0.6973 -0.431306,0.0621 -0.877394,0.12619 -1.339497,0.19269 0.277318,-0.75421 0.548217,-1.4926 0.814211,-2.214 0.260103,-0.70559 0.515302,-1.39531 0.763305,-2.07021 0.432188,0.0155 0.848184,0.0305 1.25028,0.0449 0.217205,0.64029 0.430001,1.2675 0.638598,1.88232 0.204294,0.60258 0.405906,1.19338 0.603109,1.7719 -0.341207,0.0491 -0.693208,0.0997 -1.058404,0.15218 -0.05768,-0.19988 -0.114794,-0.40259 -0.170991,-0.60649 z m -0.229517,-0.81171 c -0.132504,-0.4567 -0.2673,-0.91909 -0.402096,-1.38818 -0.137901,0.47787 -0.276578,0.96079 -0.416807,1.44988 0.279611,-0.0211 0.552308,-0.0416 0.818903,-0.0617"
         style="fill:#2e3092;fill-opacity:1;fill-rule:nonzero;stroke:none;stroke-width:0.352778"
         id="path182" />
      <path
         d="m 55.998284,103.20984 c 0.423404,-0.0313 0.835801,-0.0617 1.235216,-0.0919 0.02498,0.1809 0.07638,0.31732 0.153494,0.4095 0.124883,0.1494 0.303883,0.21699 0.53079,0.20772 0.165311,-0.007 0.291994,-0.0496 0.380611,-0.1282 0.0876,-0.0779 0.131481,-0.1669 0.131481,-0.266 0,-0.0935 -0.0412,-0.1767 -0.125483,-0.2498 -0.08491,-0.0737 -0.281411,-0.14171 -0.597712,-0.20771 -0.533188,-0.1112 -0.929005,-0.26829 -1.170411,-0.4656 -0.247473,-0.2025 -0.374579,-0.45879 -0.374579,-0.76849 0,-0.20341 0.06541,-0.393 0.192193,-0.56462 0.127,-0.17181 0.316795,-0.2981 0.564903,-0.38107 0.242782,-0.0812 0.56889,-0.10453 0.972185,-0.0713 0.476109,0.0391 0.829522,0.15533 1.065813,0.34202 0.232692,0.18401 0.368582,0.45689 0.411409,0.82011 -0.331717,0.008 -0.674299,0.0149 -1.026019,0.0222 -0.02889,-0.16468 -0.0883,-0.28741 -0.180305,-0.36668 -0.09208,-0.0796 -0.222179,-0.12362 -0.387385,-0.13261 -0.140405,-0.008 -0.244898,0.0148 -0.316794,0.0687 -0.0714,0.0535 -0.108621,0.1221 -0.108621,0.20511 0,0.0594 0.03002,0.11419 0.08862,0.16521 0.05888,0.0513 0.193711,0.10121 0.404495,0.15148 0.505213,0.12061 0.854887,0.23752 1.061897,0.34823 0.2032,0.10869 0.350096,0.2407 0.440196,0.39556 0.08911,0.15332 0.134514,0.32453 0.134514,0.51411 0,0.22249 -0.06082,0.43042 -0.179317,0.62332 -0.120403,0.196 -0.2921,0.35059 -0.515973,0.46369 -0.228106,0.11511 -0.521123,0.18592 -0.88452,0.2111 -0.663504,0.0462 -1.145504,-0.0476 -1.420495,-0.28599 -0.280705,-0.24331 -0.4433,-0.5666 -0.480201,-0.96802"
         style="fill:#2e3092;fill-opacity:1;fill-rule:nonzero;stroke:none;stroke-width:0.352778"
         id="path184" />
      <path
         d="m 47.824494,113.40236 h 18.696305 l -2.107318,-0.64721 H 49.931883 Z"
         style="fill:#2e3092;fill-opacity:1;fill-rule:evenodd;stroke:none;stroke-width:0.352778"
         id="path186" />
      <path
         d="m 50.767895,115.68056 h -0.800311 v -1.4521 h -0.2667 v 0.84709 l -0.329107,0.60501 h -1.004781 l 0.933591,-1.6941 h 1.467308 z m 2.552983,-0.48401 c 0,0.14701 -0.04851,0.26441 -0.14531,0.35222 -0.09677,0.0879 -0.226271,0.13179 -0.388267,0.13179 h -0.933732 c -0.162101,0 -0.2915,-0.0439 -0.388267,-0.13179 -0.09691,-0.0878 -0.145309,-0.20521 -0.145309,-0.35222 v -0.0242 h 0.853792 v 0.26621 h 0.2667 v -0.48412 h -0.586916 c -0.169898,0 -0.301272,-0.0425 -0.394194,-0.1277 -0.09289,-0.0851 -0.139382,-0.20387 -0.139382,-0.35627 0,-0.14701 0.0484,-0.26441 0.145309,-0.35232 0.09677,-0.0878 0.226166,-0.13169 0.388267,-0.13169 h 0.933732 c 0.161996,0 0.2915,0.0439 0.388267,0.13169 0.0968,0.0879 0.14531,0.20531 0.14531,0.35232 v 0.0242 h -0.880393 v -0.26621 h -0.2667 v 0.48398 h 0.613516 c 0.169968,0 0.301378,0.0426 0.3943,0.12781 0.09278,0.0851 0.139277,0.2039 0.139277,0.3563 z m 2.389893,0.48401 h -1.867394 v -1.6941 h 1.867394 v 0.48401 h -0.800277 v -0.24201 h -0.2667 v 0.48398 h 0.800277 v 0.242 h -0.800277 v 0.48412 h 0.2667 v -0.24201 h 0.800277 z m 2.90583,0 h -1.004923 l -0.329,-0.60501 v -0.84709 h -0.266806 v 1.4521 h -0.800276 v -1.6941 h 1.467202 c 0.213396,0 0.392289,0.0394 0.536469,0.11828 0.172015,0.095 0.257916,0.23389 0.257916,0.41681 0,0.0878 -0.01968,0.17392 -0.0593,0.2582 -0.0454,0.0968 -0.105692,0.164 -0.180692,0.20161 z m 2.389999,-0.48401 c 0,0.14701 -0.04851,0.26441 -0.145309,0.35222 -0.09691,0.0879 -0.226307,0.13179 -0.388409,0.13179 h -0.933697 c -0.161995,0 -0.2915,-0.0439 -0.388196,-0.13179 -0.09691,-0.0878 -0.145309,-0.20521 -0.145309,-0.35222 v -0.72608 c 0,-0.14701 0.0484,-0.26441 0.145309,-0.35232 0.0967,-0.0878 0.226201,-0.13169 0.388196,-0.13169 h 0.933697 c 0.162102,0 0.291501,0.0439 0.388409,0.13169 0.0968,0.0879 0.145309,0.20531 0.145309,0.35232 v 0.24197 h -0.853828 v -0.48398 h -0.2667 v 1.2101 h 0.2667 v -0.48412 H 61.0066 Z m 2.665483,0.48401 h -0.800206 v -1.4521 h -0.266806 v 0.84709 l -0.329,0.60501 h -1.004888 l 0.933697,-1.6941 h 1.467203 z m 2.618211,-1.21009 c 0,0.1488 -0.05782,0.2667 -0.173426,0.35359 -0.11557,0.087 -0.257387,0.13038 -0.425379,0.13038 h -0.400121 v -0.72598 h -0.26677 v 1.4521 h -0.800312 v -1.6941 h 1.467203 c 0.170003,0 0.310303,0.0412 0.421005,0.12368 0.118498,0.0896 0.1778,0.20973 0.1778,0.36033"
         style="fill:#2e3092;fill-opacity:1;fill-rule:nonzero;stroke:none;stroke-width:0.352778"
         id="path188" />
      <path
         d="m 56.509283,111.19535 -0.0021,0.006 -1.321223,0.21029 -1.374775,0.21921 0.0063,0.0102 c 0.520101,-0.0825 1.018717,-0.1626 1.495814,-0.23851 0.457094,-0.0728 0.897396,-0.14281 1.321188,-0.2104 0.182597,-0.45339 0.361914,-0.8957 0.53601,-1.32549 0.16958,-0.41871 0.33461,-0.82822 0.4959,-1.2271 -0.206693,-0.37959 -0.416419,-0.7644 -0.628015,-1.15281 -0.214101,-0.3931 -0.429295,-0.79068 -0.648794,-1.19271 -0.409081,-0.0285 -0.833084,-0.0586 -1.273986,-0.0892 -0.458823,-0.0318 -0.936802,-0.065 -1.434606,-0.0994 l -0.004,0.007 -0.09892,-0.007 -0.01,0.0173 1.317202,0.0912 1.273986,0.0892 0.648899,1.19271 0.628015,1.15291 -0.495899,1.227 -0.536011,1.3256 -1.321223,0.21029 -1.374775,0.21921 0.0064,0.0102 c 0.519994,-0.0825 1.018611,-0.1626 1.495813,-0.23851 0.449086,-0.0715 0.881909,-0.1403 1.298893,-0.2068"
         style="fill:#ffffff;fill-opacity:1;fill-rule:evenodd;stroke:none;stroke-width:0.352778"
         id="path190" />
      <path
         d="m 55.956868,112.04046 -1.107898,0.2352 0.532412,-0.1034 0.678286,-0.1318 -2.423689,0.51449 -0.352496,0.009 -0.0018,-0.003 -0.101106,0.003 -1.142189,-1.77489 -1.204206,-1.87442 1.163778,-1.9087 1.03371,-1.69249 0.123719,-0.003 -0.0018,0.003 0.07271,-0.002 -0.02099,-0.002 0.178717,-0.005 0.01718,0.002 0.08569,-0.002 0.767504,0.0994 -0.453496,-0.0454 0.35059,0.0454 -0.895667,-0.0897 c -0.330518,0.54011 -0.673206,1.10081 -1.027712,1.68268 -0.372216,0.6107 -0.761189,1.24651 -1.163814,1.90871 0.406894,0.6375 0.810295,1.26111 1.204207,1.87441 0.383116,0.59641 0.760095,1.18241 1.130688,1.75708 0.6592,-0.12809 1.284499,-0.24938 1.879212,-0.36488 l 0.678285,-0.1318 z"
         style="fill:#ffffff;fill-opacity:1;fill-rule:evenodd;stroke:none;stroke-width:0.352778"
         id="path192" />
      <path
         d="m 58.891274,105.54826 -0.999279,0.21209 0.480272,-0.0933 0.611717,-0.11878 -2.185988,0.46401 -0.317923,0.008 -0.0014,-0.002 -0.0913,0.002 -1.030111,-1.60091 -1.086097,-1.69051 1.049584,-1.72159 0.932321,-1.526399 0.111584,-0.0028 -0.0014,0.0025 0.06558,-0.0018 -0.01898,-0.0018 0.161184,-0.0042 0.01552,0.0021 0.07729,-0.0021 0.692185,0.08968 -0.40901,-0.04099 0.31623,0.04099 -0.807826,-0.08089 c -0.298097,0.487116 -0.607201,0.992899 -0.926994,1.517729 -0.335598,0.55079 -0.686506,1.12419 -1.049585,1.72148 0.366995,0.57488 0.730885,1.13738 1.086097,1.69061 0.345511,0.53777 0.685588,1.06638 1.01981,1.58478 0.594466,-0.1156 1.158593,-0.225 1.694886,-0.32921 l 0.611787,-0.11878 z m 0.532694,-0.77273 -0.0021,0.005 -1.191613,0.18969 -1.239979,0.19769 0.0058,0.009 c 0.469018,-0.0743 0.918704,-0.14658 1.349093,-0.21509 0.41222,-0.0656 0.809307,-0.1288 1.191612,-0.18969 0.164712,-0.40891 0.32639,-0.80779 0.483412,-1.19549 0.152894,-0.37772 0.301801,-0.74701 0.447287,-1.1067 -0.186408,-0.34252 -0.375603,-0.68951 -0.566385,-1.03992 -0.193111,-0.35451 -0.387209,-0.71311 -0.585223,-1.07569 -0.369006,-0.0257 -0.751382,-0.0528 -1.149103,-0.0804 -0.413773,-0.0287 -0.844903,-0.0586 -1.293883,-0.0897 l -0.0036,0.006 -0.08911,-0.006 -0.0091,0.0156 1.188015,0.0823 1.149103,0.0805 0.585187,1.07569 0.566491,1.03981 -0.447287,1.1067 -0.483411,1.1956 -1.191684,0.18969 -1.239908,0.19769 0.0057,0.009 c 0.468983,-0.0743 0.918669,-0.14658 1.349093,-0.21509 0.405095,-0.0645 0.795408,-0.12651 1.171575,-0.18652"
         style="fill:#ffffff;fill-opacity:1;fill-rule:evenodd;stroke:none;stroke-width:0.352778"
         id="path194" />
      <path
         d="m 61.925092,110.74626 -0.875806,0.18588 0.420899,-0.0817 0.536293,-0.10418 -1.916183,0.40679 -0.278624,0.007 -0.0014,-0.002 -0.08001,0.002 -0.9029,-1.40321 -0.952111,-1.48177 0.920114,-1.50891 0.817175,-1.33801 0.09783,-0.002 -0.0014,0.002 0.0575,-0.001 -0.01662,-0.002 0.141323,-0.004 0.01358,0.002 0.0677,-0.002 0.606813,0.0787 -0.358493,-0.036 0.277107,0.036 -0.708131,-0.071 c -0.261302,0.427 -0.532095,0.8703 -0.812482,1.33032 -0.294217,0.48278 -0.601698,0.98549 -0.920009,1.50897 0.321698,0.50391 0.640609,0.99702 0.952006,1.48181 0.302789,0.47152 0.600992,0.93483 0.893903,1.3891 0.521088,-0.10128 1.015506,-0.1972 1.485583,-0.2885 l 0.536222,-0.10418 z m 0.467007,-0.67723 -0.0018,0.004 -1.044504,0.1663 -1.086908,0.17332 0.0051,0.008 c 0.411127,-0.0652 0.805215,-0.12849 1.182511,-0.18849 0.361421,-0.0576 0.709401,-0.11289 1.044504,-0.1663 0.144286,-0.3585 0.286103,-0.7081 0.423686,-1.04789 0.134126,-0.33112 0.264513,-0.65479 0.392007,-0.97011 -0.163301,-0.30021 -0.329177,-0.60441 -0.496394,-0.9114 -0.169298,-0.3108 -0.339407,-0.62509 -0.513009,-0.9429 -0.323392,-0.0225 -0.658601,-0.0464 -1.007181,-0.0705 -0.36269,-0.0252 -0.740515,-0.0514 -1.13411,-0.0786 l -0.0032,0.005 -0.07821,-0.005 -0.0079,0.0136 1.041294,0.0722 1.00718,0.0705 0.51301,0.94291 0.496499,0.9114 -0.392112,0.9701 -0.423686,1.04789 -1.044505,0.1663 -1.086908,0.17332 0.005,0.008 c 0.411198,-0.0652 0.805286,-0.12849 1.182617,-0.18849 0.355,-0.0566 0.697195,-0.11099 1.026901,-0.16352"
         style="fill:#ffffff;fill-opacity:1;fill-rule:evenodd;stroke:none;stroke-width:0.352778"
         id="path196" />
      <path
         d="m 61.76359,108.53424 c 0.140582,0.0204 0.277883,0.0399 0.41141,0.0589 0.130281,0.0185 0.257175,0.0369 0.3816,0.0543 -0.0423,0.20041 -0.111408,0.37712 -0.207716,0.53019 -0.09828,0.15582 -0.225707,0.2825 -0.384916,0.38131 -0.163301,0.1009 -0.378883,0.1662 -0.651792,0.19449 -0.276401,0.0286 -0.517878,0.0232 -0.716986,-0.0177 -0.206798,-0.0435 -0.390595,-0.12972 -0.548498,-0.26201 -0.163125,-0.136 -0.293512,-0.3017 -0.388691,-0.49992 -0.09772,-0.19999 -0.14672,-0.47068 -0.14672,-0.8097 0,-0.35408 0.05891,-0.64498 0.178294,-0.86829 0.08622,-0.16129 0.201118,-0.29909 0.345193,-0.41332 0.140723,-0.11186 0.281128,-0.18859 0.423404,-0.22828 0.217628,-0.0628 0.486621,-0.0656 0.797313,-0.012 0.207715,0.0358 0.384386,0.0879 0.5328,0.1548 0.14411,0.0651 0.262713,0.14629 0.357293,0.24168 0.183903,0.18532 0.308398,0.43071 0.37712,0.73752 -0.124002,0.0115 -0.251707,0.0232 -0.381918,0.035 -0.133385,0.012 -0.271109,0.0247 -0.411585,0.0374 -0.02621,-0.12428 -0.07521,-0.22059 -0.14732,-0.28938 -0.07299,-0.0709 -0.172403,-0.11201 -0.300885,-0.12513 -0.165523,-0.0169 -0.303388,0.0387 -0.411903,0.1682 -0.109608,0.13321 -0.165805,0.3446 -0.166687,0.63271 -7.06e-4,0.25689 0.05408,0.45099 0.162101,0.58141 0.105869,0.12799 0.237984,0.18779 0.395887,0.18211 0.127212,-0.005 0.232692,-0.0458 0.317288,-0.12274 0.08252,-0.0757 0.144322,-0.18947 0.185914,-0.34159"
         style="fill:#2e3092;fill-opacity:1;fill-rule:nonzero;stroke:none;stroke-width:0.352778"
         id="path198" />
    </g>
  </g>
</svg>
