<?xml version="1.0" encoding="UTF-8" standalone="no"?>
<!-- Created with Inkscape (http://www.inkscape.org/) -->

<svg
   version="1.1"
   id="svg2"
   width="850"
   height="950"
   viewBox="0 0 850 950"
   sodipodi:docname="logo_versace.svg"
   xml:space="preserve"
   inkscape:version="1.2.2 (b0a8486541, 2022-12-01)"
   xmlns:inkscape="http://www.inkscape.org/namespaces/inkscape"
   xmlns:sodipodi="http://sodipodi.sourceforge.net/DTD/sodipodi-0.dtd"
   xmlns="http://www.w3.org/2000/svg"
   xmlns:svg="http://www.w3.org/2000/svg"><defs
     id="defs6" /><sodipodi:namedview
     id="namedview4"
     pagecolor="#505050"
     bordercolor="#ffffff"
     borderopacity="1"
     inkscape:showpageshadow="0"
     inkscape:pageopacity="0"
     inkscape:pagecheckerboard="1"
     inkscape:deskcolor="#505050"
     showgrid="false"
     inkscape:zoom="0.69384853"
     inkscape:cx="965.62862"
     inkscape:cy="435.97412"
     inkscape:window-width="2512"
     inkscape:window-height="1011"
     inkscape:window-x="0"
     inkscape:window-y="0"
     inkscape:window-maximized="1"
     inkscape:current-layer="g8" /><g
     inkscape:groupmode="layer"
     inkscape:label="Image"
     id="g8"><g
       id="g475"
       style="fill:#b32037;fill-opacity:1"><path
         style="fill:#b32037;stroke-width:0.254777;fill-opacity:1"
         d="m 278.9576,572.46762 c -0.53462,-1.27952 -0.26906,-3.52396 0.6223,-5.25949 0.86284,-1.67998 1.95474,-2.30051 7.55543,-4.29377 2.31723,-0.82469 4.98458,-1.8366 5.92744,-2.24867 2.10684,-0.92078 3.79496,-1.2416 7.64941,-1.4537 5.19689,-0.28598 11.54727,0.39712 17.2496,1.85552 3.12025,0.79801 6.55705,1.00536 10.08377,0.60836 3.90668,-0.43976 11.60732,-1.7336 13.36033,-2.24476 3.03047,-0.88365 6.72524,-0.22508 13.0342,2.32324 5.84668,2.36161 10.08381,5.01495 11.98147,7.50295 1.02836,1.34826 1.0639,1.93294 0.13896,2.2856 -0.43685,0.16656 -5.78452,0.32502 -14.20382,0.42089 -31.94156,0.3637 -65.88368,0.9904 -70.63992,1.30428 l -2.35966,0.15573 z"
         id="path426" /><path
         style="fill:#b32037;stroke-width:0.254777;fill-opacity:1"
         d="m 315.86281,605.22362 c -1.95618,-0.27562 -7.51047,-1.60607 -9.74816,-2.33503 -2.31865,-0.75533 -4.26368,-1.77433 -5.6051,-2.9365 -1.60758,-1.39277 -3.37937,-2.62638 -5.60509,-3.90254 -4.97511,-2.85259 -14.9784,-12.12848 -14.0648,-13.04207 0.53366,-0.53367 5.04175,-0.72138 22.982,-0.95696 43.19128,-0.56717 63.69709,-1.53672 68.3398,-3.23125 1.59159,-0.58091 3.60158,-0.57218 4.25425,0.0185 0.90471,0.81875 0.65581,1.45947 -1.32017,3.39835 -3.39456,3.33084 -9.93417,8.24635 -11.44685,8.60406 -0.37539,0.0888 -1.29259,0.73444 -2.03822,1.43481 -3.66045,3.43829 -11.93159,8.61478 -13.76721,8.61621 -0.40763,3.1e-4 -1.05614,0.32046 -1.57885,0.77941 -1.55287,1.36343 -5.34515,2.36485 -12.11409,3.19893 -3.69524,0.45534 -15.89273,0.69151 -18.28751,0.3541 z"
         id="path428" /><path
         style="fill:#b32037;stroke-width:2.03822;fill-opacity:1"
         d="m 244.01978,930.95541 c 19.71135,-32.4673 49.94576,-71.80706 81.83651,-106.4823 22.15831,-24.09302 70.63602,-65.20777 100.70709,-85.41132 l 12.80544,-8.60346 -8.18184,-9.29508 c -10.08812,-11.46069 -16.84362,-25.89566 -21.63946,-46.23857 -2.01778,-8.5589 -4.23996,-15.56162 -4.93822,-15.56162 -0.69827,0 -4.42865,2.36647 -8.28975,5.25882 -19.19759,14.38094 -46.0571,24.54816 -69.97819,26.48911 -18.69015,1.51651 -30.57244,-0.50733 -50.48604,-8.59895 -6.5039,-2.64277 -12.3021,-4.80503 -12.88488,-4.80503 -2.3435,0 -0.84758,10.89604 6.48663,47.24783 4.22513,20.94174 7.23658,38.46928 6.69211,38.9501 -2.71207,2.39502 -22.21029,3.0295 -24.99937,0.81347 -2.42338,-1.92546 -3.54334,-12.29872 -5.43324,-50.32351 l -2.38063,-47.89809 -11.88988,-11.21019 c -15.51172,-14.62498 -23.92427,-25.55921 -36.6823,-47.67794 -5.74958,-9.9681 -14.53994,-23.49676 -19.53413,-30.06369 l -9.08036,-11.9399 h 7.81162 c 7.21594,0 8.21607,0.73829 13.11535,9.68153 12.14991,22.17869 36.36936,54.81176 53.48384,72.0636 14.71289,14.83098 21.51404,20.00538 34.74801,26.43672 15.85766,7.7064 17.20942,7.9965 37.26175,7.9965 31.47647,0 55.07859,-9.27733 78.83209,-30.9867 14.40884,-13.16888 36.32947,-46.05118 44.2424,-66.36639 7.13266,-18.31193 17.97693,-56.83887 23.31355,-82.82713 l 3.71728,-18.10238 12.68027,-8.01078 c 15.36481,-9.70674 22.10465,-17.35935 25.28009,-28.70376 4.04157,-14.43878 3.10173,-25.77346 -3.24562,-39.14299 -5.73893,-12.08795 -5.81098,-12.71222 -6.23401,-54.01274 -0.44272,-43.22145 -2.65353,-60.73903 -11.06107,-87.64331 -5.16005,-16.51226 -5.16794,-16.30573 0.62255,-16.30573 3.94611,0 5.89195,2.43282 11.004,13.75796 8.30307,18.39446 10.02854,24.71174 12.7591,46.7136 2.14473,17.28148 0.22781,58.3667 -3.28235,70.34976 -0.55305,1.88803 3.1645,11.6273 8.26122,21.64281 7.76697,15.2628 9.26677,20.08087 9.26677,29.76943 0,18.8019 -8.38779,31.13518 -29.55414,43.45596 l -10.19108,5.93214 -6.51288,30.74452 c -9.68177,45.70359 -21.32885,78.73753 -38.28143,108.57545 l -7.51931,13.23463 2.0983,17.33862 c 1.15408,9.53625 4.05642,23.23106 6.44965,30.43292 4.80905,14.47176 18.91969,36.84201 23.23908,36.84201 1.51857,0 20.51624,-8.6524 42.21705,-19.22752 42.43997,-20.68164 74.58598,-33.08203 77.69647,-29.97155 1.15359,1.15359 0.58217,3.8716 -1.47353,7.009 -3.80032,5.80001 -3.09681,6.59834 7.57984,8.6013 12.80377,2.40199 10.18358,7.52703 -10.93923,21.39701 -10.21185,6.70547 -19.38383,12.19176 -20.38217,12.19176 -0.99834,0 -1.81515,0.91719 -1.81515,2.03821 0,1.12102 3.43949,2.05073 7.64331,2.06604 10.74919,0.0391 16.81529,1.99376 16.81529,5.41821 0,3.73544 -18.50094,12.26012 -32.2785,14.87299 -42.99361,8.15356 -152.5841,72.14096 -220.8126,128.92745 -7.09289,5.90341 -20.69234,16.99139 -30.221,24.63998 -9.52867,7.64857 -25.7392,21.64034 -36.02341,31.09283 -10.28422,9.45247 -19.16994,17.18632 -19.74606,17.18632 -0.57612,0 2.71121,-6.19108 7.30517,-13.75796 z"
         id="path434" /><path
         style="fill:#b32037;stroke-width:0.509554;fill-opacity:1"
         d="m 559.31491,571.81522 c -0.76368,-0.92018 -1.41983,-4.6893 -2.10119,-12.07 -0.60861,-6.5925 -0.95748,-8.67309 -1.58579,-9.4573 -0.238,-0.29705 -0.89104,-2.50565 -1.4512,-4.90799 -2.28608,-9.8044 -7.35573,-19.83799 -19.64638,-38.88312 -4.80204,-7.44106 -18.08664,-22.67515 -19.77344,-22.67515 -2.08407,0 -0.94774,-4.90992 2.19929,-9.50281 4.27019,-6.23208 10.96516,-15.13996 11.51395,-15.31968 0.72448,-0.23725 0.76658,-0.0792 3.55465,13.34652 2.36017,11.36521 4.49739,18.6474 7.31738,24.93261 1.79498,4.00068 8.7984,14.78216 12.96366,19.95703 1.56227,1.94095 2.8434,3.70308 2.84695,3.91584 0.004,0.21277 1.0073,2.73506 2.23058,5.6051 3.54826,8.32492 5.05012,14.40011 5.94975,24.0674 0.60808,6.53437 0.0803,13.51763 -1.34831,17.84098 -1.07056,3.23975 -1.84119,4.14911 -2.6699,3.15057 z"
         id="path436" /><path
         style="fill:#b32037;stroke-width:1.01911;fill-opacity:1"
         d="m 647.7215,287.29795 c -4.13862,-3.48243 -4.16068,-8.29428 -0.0828,-18.06944 4.36246,-10.45741 29.89844,-61.28868 34.1382,-67.95462 4.23023,-6.65098 4.42241,-9.02577 1.05434,-13.0285 -1.38552,-1.64658 -3.0207,-4.31306 -3.63375,-5.92549 -0.97603,-2.56717 -0.8224,-3.16833 1.23551,-4.83472 3.72948,-3.01996 11.53216,-6.67527 17.65132,-8.26912 3.09894,-0.80716 6.0949,-1.75215 6.65767,-2.09996 0.56277,-0.34781 3.2484,-3.92562 5.96807,-7.95068 4.73596,-7.00912 24.40344,-30.10218 30.03524,-35.26663 2.39856,-2.19952 2.69422,-3.21933 2.69422,-9.29326 0,-3.75244 -0.64979,-10.66613 -1.44398,-15.363757 -3.13671,-18.55363 -6.74922,-65.620277 -5.22577,-68.085283 0.31816,-0.51479 2.04542,-1.258179 3.83836,-1.651974 1.79294,-0.393795 5.04248,-1.645126 7.22119,-2.780734 4.67776,-2.438183 5.76063,-1.561649 5.78568,4.683206 0.008,2.140086 0.68442,8.789767 1.50187,14.77707 0.81744,5.987303 2.21177,17.306388 3.09851,25.153522 2.36709,20.947559 3.27344,26.12938 4.84525,27.701176 1.20324,1.203244 2.59599,0.427629 9.42094,-5.246504 4.40492,-3.662172 8.40199,-6.658494 8.88236,-6.658494 1.75422,0 -1.37567,4.072447 -6.36005,8.275333 -2.81114,2.370394 -6.42382,6.291539 -8.02816,8.713649 l -2.91698,4.40385 2.00589,9.43097 c 9.92716,46.67401 14.31589,61.32451 29.18619,97.42982 2.85075,6.92166 6.43824,14.71784 7.97218,17.32484 1.53394,2.60701 4.23808,7.45428 6.0092,10.77171 1.77113,3.31745 6.03627,9.79616 9.47811,14.39714 3.44183,4.60099 6.25787,8.82699 6.25787,9.39111 0,1.31523 -6.36834,7.07091 -12.4637,11.26462 l -4.74075,3.26172 -6.66273,-10.00819 c -3.6645,-5.50451 -8.32911,-13.64803 -10.3658,-18.09671 -2.03669,-4.44869 -4.4871,-9.00572 -5.44536,-10.12674 -2.08705,-2.44155 -9.23886,-18.14224 -9.23886,-20.28248 0,-0.82943 -0.44554,-1.78342 -0.99009,-2.11997 -0.54455,-0.33655 -1.85377,-2.54196 -2.90937,-4.90091 -1.0556,-2.35895 -2.7884,-5.05641 -3.85067,-5.99435 -3.14946,-2.78087 -32.3086,-18.04066 -41.93951,-21.94811 -10.01266,-4.06234 -18.92338,-5.00074 -22.16075,-2.3338 -5.35391,4.41056 -32.00262,53.20269 -41.8972,76.71117 l -2.49856,5.93629 2.08045,2.92171 c 4.45873,6.26172 3.91782,13.20287 -1.27566,16.36946 -4.57023,2.78659 -9.09197,2.56628 -12.88809,-0.62794 z m 109.92619,-114.2201 c -1.8457,-6.0718 -4.17578,-14.70842 -5.17796,-19.1925 -4.06388,-18.18314 -5.4905,-22.42038 -7.54865,-22.42038 -3.0599,0 -28.73775,34.76778 -27.6915,37.49427 0.30576,0.7968 2.31533,1.92429 4.46572,2.50552 2.15039,0.58124 6.89069,1.83836 10.534,2.7936 3.64331,0.95526 9.97553,3.57318 14.0716,5.81762 8.3299,4.56439 12.50582,6.02714 13.8187,4.84046 0.48769,-0.4408 -0.62038,-5.74764 -2.47191,-11.83859 z"
         id="path438" /><path
         style="fill:#b32037;stroke-width:0.180155;fill-opacity:1"
         d="m 699.80007,371.64633 c -0.20524,-0.2473 -0.17865,-0.4094 0.17719,-1.08018 0.82911,-1.56287 5.81201,-7.92559 9.60076,-12.2593 5.42798,-6.20873 16.36191,-17.46175 17.98033,-18.50506 0.54717,-0.35274 2.17276,-1.687 3.61242,-2.96503 3.24023,-2.87644 6.81861,-5.81572 11.25989,-9.24884 1.87515,-1.44949 4.46326,-3.54467 5.75137,-4.65594 4.11361,-3.54889 5.91637,-4.6109 20.17731,-11.88657 9.94431,-5.0734 20.31407,-8.68987 31.52706,-10.9951 4.33454,-0.89112 6.43664,-1.49614 7.34069,-2.11277 0.88033,-0.60046 1.75336,-0.75516 4.31545,-0.76469 2.16447,-0.008 3.65547,0.2041 4.19211,0.5965 0.28531,0.20862 0.28558,0.29618 0.004,1.38553 -0.46389,1.79709 -1.93132,5.31143 -3.87066,9.26978 -1.89052,3.85874 -2.97045,5.66957 -3.63837,6.10082 -0.60921,0.39336 -2.60305,0.62547 -7.17261,0.83503 -9.70258,0.44494 -11.6988,0.68267 -13.82457,1.64637 -3.22148,1.46042 -14.53636,4.8393 -16.20541,4.8393 -3.13562,0 -14.85024,6.51613 -30.14166,16.76598 -11.74826,7.87486 -14.29332,9.93806 -26.75503,21.68949 -6.42088,6.0549 -10.18607,9.34852 -12.15836,10.63559 -1.47055,0.95963 -1.85912,1.08647 -2.17231,0.70909 z"
         id="path440" /><path
         style="fill:#b32037;stroke-width:0.720618;fill-opacity:1"
         d="m 701.8823,564.66504 c -7.14888,-0.61006 -12.8938,-3.08684 -20.89593,-9.00877 -7.23914,-5.35728 -17.11972,-15.4288 -19.05182,-19.42 -6.40343,-13.22771 -6.10266,-33.09917 0.77379,-51.12444 1.87295,-4.90957 3.97173,-8.42386 9.2528,-15.49329 7.36698,-9.86171 16.07862,-19.37111 20.91945,-22.83515 1.6616,-1.18902 4.52887,-3.56707 6.37171,-5.28456 3.18354,-2.96699 8.35898,-6.55196 18.08578,-12.52783 2.39867,-1.47368 4.36122,-3.14001 4.36122,-3.70295 0,-0.56294 -2.5377,-2.34379 -5.63933,-3.95743 -16.15665,-8.40562 -20.43572,-23.25318 -11.65945,-40.45608 3.38386,-6.63291 13.87958,-15.2257 26.44935,-21.65395 9.25823,-4.7347 9.64016,-3.95824 1.78786,3.63473 -3.79215,3.66691 -6.32631,6.85606 -7.74664,9.74888 -1.90673,3.88345 -2.11086,4.99609 -2.11086,11.50539 0,10.04254 1.9386,13.43317 10.80928,18.90556 5.07649,3.13172 7.88621,3.71986 20.35746,4.26127 l 10.98944,0.47708 v 8.51701 8.51701 l -2.053,1.06165 c -1.12915,0.5839 -3.64231,1.45349 -5.5848,1.93242 -1.94248,0.47892 -9.53094,3.11175 -16.86323,5.85074 -19.93216,7.44567 -29.02226,12.6477 -43.04957,24.63614 -14.05598,12.01296 -19.3837,21.54888 -20.77061,37.17666 -0.41257,4.64888 -0.17046,6.63271 1.73133,14.18685 4.13645,16.43038 13.74036,31.07538 23.71604,36.1646 8.8232,4.50125 22.76223,5.90265 33.9648,3.41475 14.98043,-3.32691 43.27375,-21.12373 59.41593,-37.37329 4.69042,-4.72162 8.68674,-8.42607 8.88071,-8.2321 1.68883,1.68883 -12.77638,19.98213 -23.4625,29.67166 -13.75538,12.47254 -19.70774,16.72611 -33.94056,24.254 -11.43786,6.04961 -27.70221,8.63285 -45.03865,7.15344 z"
         id="path442" /><path
         style="fill:#b32037;stroke-width:0.720618;fill-opacity:1"
         d="m 651.82301,832.9442 c -3.34627,-2.81571 -5.30153,-7.08384 -4.70573,-10.27212 0.26809,-1.4346 2.44275,-6.82399 4.83259,-11.97641 2.38983,-5.15242 5.73468,-12.44868 7.43299,-16.21391 1.69831,-3.76523 4.27854,-8.79155 5.73384,-11.16959 1.4553,-2.37804 4.80733,-8.70146 7.44895,-14.05205 2.64163,-5.3506 6.95247,-13.1568 9.57966,-17.34711 7.23528,-11.54012 6.91029,-9.79789 3.17925,-17.04344 -1.79118,-3.47842 -3.25727,-6.88873 -3.25798,-7.57847 -0.003,-2.95689 13.07853,-9.80142 20.89664,-10.93355 3.09981,-0.44888 3.47228,-0.77834 8.44785,-7.47242 2.86279,-3.85155 7.85713,-9.92134 11.09855,-13.4884 3.2414,-3.56706 8.88672,-10.05262 12.54514,-14.41237 3.65842,-4.35974 7.6628,-8.87923 8.89862,-10.04332 2.02676,-1.90912 2.24695,-2.53681 2.24695,-6.40551 0,-2.35894 -0.63289,-8.05422 -1.40643,-12.65616 -1.40785,-8.37563 -2.94988,-23.71029 -4.35594,-43.31715 -0.41212,-5.74693 -1.09281,-13.47635 -1.51264,-17.17649 -0.6844,-6.03192 -0.63424,-6.87014 0.48506,-8.10695 0.68661,-0.75869 1.53893,-1.37944 1.89405,-1.37944 0.35512,0 3.75537,-1.32356 7.55612,-2.94123 7.47696,-3.18236 7.75277,-3.14542 8.50974,1.13968 0.21005,1.18902 0.68497,6.70175 1.05539,12.25051 0.37042,5.54877 1.50856,17.87134 2.52921,27.3835 2.68268,25.00192 3.57378,29.18505 6.2171,29.18505 0.70601,0 3.16711,-1.65549 5.46913,-3.67887 5.08592,-4.47032 10.27486,-8.12711 10.79466,-7.60732 0.4206,0.4206 -3.68042,5.09779 -11.85532,13.52097 l -5.31611,5.47756 0.75321,2.80955 c 0.41426,1.54525 1.91999,8.48146 3.34605,15.4138 3.87931,18.85801 7.05497,31.61672 10.7634,43.24367 10.70227,33.55459 24.20922,63.21943 36.70306,80.6096 3.80471,5.29579 6.91766,10.18675 6.91766,10.86882 0,0.68208 -1.37818,2.31796 -3.06263,3.63531 -1.68444,1.31734 -3.71118,2.97907 -4.50386,3.69274 -8.44247,7.60096 -8.32953,7.58027 -12.25051,2.24473 -6.69521,-9.11058 -8.93924,-12.7465 -14.86168,-24.07984 -3.58576,-6.86181 -7.31238,-13.84759 -8.28138,-15.52395 -1.59734,-2.7634 -6.17201,-13.28253 -8.54627,-19.65154 -1.33538,-3.5822 -4.7913,-5.79584 -24.51891,-15.70519 -23.88683,-11.99856 -34.991,-15.32839 -40.91358,-12.26883 -1.41268,0.72978 -5.85816,7.44625 -14.69968,22.20907 -9.09225,15.18146 -29.78002,55.65883 -29.78002,58.26713 0,0.46516 1.17769,2.61948 2.61709,4.78737 2.30048,3.46476 2.57255,4.33681 2.24889,7.20828 -0.43666,3.87403 -3.46799,8.78338 -6.02325,9.75489 -3.53928,1.34563 -7.92798,0.83649 -10.34893,-1.2006 z M 760.61269,727.60514 c 0,-1.50786 -1.13145,-6.79662 -2.51433,-11.7528 -1.38289,-4.95617 -3.80534,-14.75123 -5.38322,-21.76679 -1.57788,-7.01556 -3.21641,-13.40493 -3.64117,-14.19862 -1.2712,-2.37525 -2.42447,-1.32832 -12.7165,11.54409 -1.425,1.78226 -3.7241,5.02504 -5.10912,7.20619 -1.38502,2.18114 -4.2185,6.07351 -6.29661,8.64973 -3.48059,4.31485 -5.41429,7.25104 -5.41429,8.22123 0,0.92897 4.70835,2.66386 12.71594,4.68547 6.19513,1.56403 10.77662,3.29406 16.32282,6.1637 4.32984,2.24028 8.65872,3.98938 9.87342,3.98938 2.02463,0 2.16306,-0.17545 2.16306,-2.74158 z"
         id="path444" /><path
         style="fill:#b32037;stroke-width:0.254777;fill-opacity:1"
         d="m 73.930615,485.82021 c -0.388838,-0.38884 -0.08884,-1.15428 1.611547,-4.11179 2.023452,-3.51945 2.872893,-5.56049 3.308809,-7.95046 0.16613,-0.91083 0.853783,-3.08917 1.528118,-4.84076 2.506349,-6.51028 4.316626,-13.41901 4.34769,-16.59252 0.01311,-1.33889 0.304213,-3.12686 1.094041,-6.71958 0.846321,-3.8497 1.432974,-15.03811 1.429409,-27.26115 -0.0024,-8.39294 -0.213572,-11.4492 -1.002613,-14.51397 -0.287434,-1.11644 -0.753728,-3.8107 -1.036209,-5.98726 -0.648935,-5.00013 -0.895599,-6.30183 -1.64305,-8.67075 -0.799013,-2.53233 -0.951837,-3.37192 -0.755878,-4.15268 0.240671,-0.95891 0.853752,-1.06505 1.664616,-0.28819 0.814752,0.78058 3.30219,5.50608 4.796109,9.11139 2.14327,5.1724 4.667709,13.73451 5.637669,19.12121 1.437676,7.98418 1.182937,23.4109 -0.536321,32.47908 -1.287306,6.78985 -2.813053,11.29772 -6.737974,19.90754 -5.519493,12.10771 -7.582597,15.95197 -9.750196,18.16786 -1.642885,1.67949 -3.498464,2.75933 -3.955767,2.30203 z"
         id="path446" /><path
         style="fill:#b32037;stroke-width:0.720618;fill-opacity:1"
         d="m 17.28366,442.06414 c -1.020864,-3.21646 4.872868,-70.797 7.978303,-91.4833 0.981729,-6.53961 3.714344,-22.26711 6.072478,-34.94999 2.358133,-12.68289 4.791114,-26.30257 5.406623,-30.26597 0.615509,-3.9634 2.065306,-10.28683 3.221769,-14.05206 1.156464,-3.76523 3.787123,-13.1693 5.84591,-20.89793 2.058787,-7.72864 4.143484,-14.86276 4.63266,-15.85361 0.489176,-0.99085 1.302303,-3.58508 1.806949,-5.76495 0.905562,-3.91166 7.352391,-20.39782 8.570448,-21.91678 0.345206,-0.43048 0.864677,-1.91767 1.15438,-3.30486 0.289703,-1.38719 0.822832,-2.89083 1.184731,-3.34143 0.361899,-0.4506 1.646477,-3.52776 2.854617,-6.83815 1.20814,-3.31037 2.944568,-7.4816 3.858731,-9.26938 0.914162,-1.78779 3.503415,-7.14186 5.753897,-11.89794 7.683148,-16.23727 12.146551,-24.49907 16.935032,-31.3469 2.632908,-3.76523 6.1904,-9.315 7.905532,-12.33282 1.71514,-3.01782 4.61928,-7.27192 6.45366,-9.45356 1.83438,-2.18164 4.79448,-6.02668 6.57801,-8.54454 4.18696,-5.91085 25.23575,-27.007321 33.14845,-33.223538 10.13085,-7.958798 26.09747,-19.316653 27.15492,-19.316653 1.22713,0 8.58155,-3.678305 12.02052,-6.012053 5.16947,-3.508094 37.68117,-14.399974 45.49722,-15.242213 2.37804,-0.256252 5.92289,-0.929464 7.87744,-1.496027 1.95455,-0.566562 5.10044,-1.030113 6.99087,-1.030113 1.89043,0 5.30462,-0.486418 7.5871,-1.080928 6.22461,-1.621305 31.40247,-1.438408 44.92241,0.326326 19.0915,2.491982 22.66264,3.064969 27.38349,4.393668 2.57622,0.725082 7.76467,2.032097 11.5299,2.904479 14.20128,3.29035 39.48018,12.381749 51.47239,18.511719 6.48898,3.31693 4.6389,3.92382 -2.83658,0.930493 -3.02919,-1.212943 -6.2304,-2.205351 -7.11381,-2.205351 -0.88341,0 -5.64201,-1.117536 -10.57467,-2.483414 -4.93266,-1.365877 -11.88698,-3.012166 -15.45404,-3.658421 -3.56706,-0.646254 -8.10695,-1.610423 -10.08865,-2.142597 -1.9817,-0.532174 -6.03518,-1.180452 -9.00773,-1.440618 -2.97255,-0.260166 -7.61472,-0.934826 -10.31593,-1.499245 -2.7012,-0.56442 -7.27063,-1.026217 -10.15428,-1.026217 -2.88365,0 -6.83486,-0.482907 -8.78046,-1.073128 -4.00865,-1.216066 -25.5147,-1.461121 -34.88437,-0.397494 -7.63004,0.866146 -21.59617,3.365172 -24.02089,4.298171 -1.12311,0.43216 -4.36589,1.304013 -7.20618,1.93745 -8.27267,1.844962 -21.05556,5.809388 -30.3858,9.423714 -9.07514,3.515502 -30.13483,13.991362 -35.67061,17.743864 -10.02446,6.795208 -29.76482,24.479966 -39.51568,35.400846 -12.04263,13.48765 -15.26834,17.67486 -26.02011,33.77614 -7.46672,11.18177 -11.367471,18.00606 -18.001397,31.49308 -4.658005,9.46992 -8.846311,17.67254 -9.307343,18.22805 -2.405243,2.89814 -13.731719,31.20211 -20.674155,51.66307 -6.095502,17.96486 -22.67668,80.92752 -22.678039,86.1139 -2.08e-4,0.79268 -1.118959,5.81899 -2.486114,11.16958 -2.799263,10.95538 -7.348428,36.78125 -10.09135,57.28916 -2.074851,15.51296 -4.709369,37.56134 -4.714263,39.45386 -0.0045,1.73564 -1.243396,1.58869 -1.815989,-0.21539 z"
         id="path448" /><path
         style="fill:#b32037;stroke-width:0.720618;fill-opacity:1"
         d="M 590.54676,505.25737 C 570.06137,494.24846 559.61079,481.248 551.34501,456.49058 545.2152,438.13073 540.75744,408.43316 539.3544,376.60916 c -0.84671,-19.20548 -1.51458,-26.33818 -4.73135,-50.52935 -5.17384,-38.90903 -11.22565,-67.27731 -20.21544,-94.76131 -10.19773,-31.17696 -14.95624,-44.24005 -19.15113,-52.57368 -2.38535,-4.73877 -5.41175,-11.12692 -6.72532,-14.19589 -1.31357,-3.06897 -4.3114,-8.92014 -6.66183,-13.0026 -2.35044,-4.08246 -5.1722,-9.20619 -6.27059,-11.38606 -4.41195,-8.75597 -26.28669,-40.590532 -37.41451,-54.449748 -0.76614,-0.954192 -1.18641,-1.941458 -0.93395,-2.193925 0.61888,-0.618873 8.88734,5.344996 14.09526,10.166612 2.3194,2.147355 5.85452,5.006187 7.85581,6.352961 6.42415,4.32313 29.30544,23.97664 33.41757,28.70348 6.56626,7.54783 14.69724,17.97105 17.8762,22.91576 3.72136,5.78841 14.09444,26.80631 17.97751,36.42599 3.59103,8.89622 8.59594,25.43085 11.88783,39.2737 8.11699,34.13304 11.00151,65.06539 12.70074,136.19687 1.12389,47.04726 2.91339,75.42953 5.12213,81.23893 0.39322,1.03428 1.32067,4.01352 2.06096,6.62052 4.77744,16.82398 14.86955,33.87085 27.23965,46.01124 4.44238,4.35988 6.66595,7.05163 6.39925,7.74665 -0.5027,1.31 -1.03643,1.32409 -3.33643,0.0881 z"
         id="path450" /><path
         style="fill:#b32037;stroke-width:0.720618;fill-opacity:1"
         d="m 361.39012,402.7783 c 0,-0.62057 0.31423,-1.71546 0.6983,-2.43309 0.90908,-1.69864 12.82,-10.51537 15.1553,-11.2183 0.99085,-0.29824 4.07149,-1.68029 6.84587,-3.07121 5.97293,-2.9945 16.96963,-6.2603 25.06634,-7.44419 11.99271,-1.75357 31.65994,1.3998 41.58019,6.66681 1.38133,0.73339 3.07631,1.33344 3.76664,1.33344 1.23383,0 3.97561,3.3179 3.30004,3.99348 -0.18998,0.18997 -11.82685,0.64702 -25.85972,1.01565 -20.51114,0.53882 -27.06871,0.95926 -33.44112,2.14408 -10.8268,2.01302 -20.12672,4.59513 -27.41222,7.61098 -6.6839,2.7668 -9.69962,3.20281 -9.69962,1.40235 z"
         id="path452" /><path
         style="fill:#b32037;stroke-width:0.509554;fill-opacity:1"
         d="m 124.07643,525.14149 c 0,-0.25499 1.15974,-8.22314 2.57719,-17.70701 2.69116,-18.006 8.62218,-47.4325 9.98129,-49.52178 0.44648,-0.68635 0.97908,-3.33535 1.25044,-6.21928 0.47746,-5.0744 0.90819,-6.72336 4.20952,-16.11517 1.00263,-2.85234 2.87418,-9.0097 4.15901,-13.68301 1.28483,-4.67332 2.91053,-10.02111 3.61267,-11.88399 0.70215,-1.86287 2.03774,-5.56539 2.96799,-8.22781 0.93025,-2.66242 3.29858,-8.96815 5.26296,-14.01274 1.96437,-5.04459 3.74123,-9.74522 3.94857,-10.44586 0.20733,-0.70064 1.97116,-4.80801 3.91963,-9.12751 1.94846,-4.3195 4.5285,-10.39593 5.73342,-13.50318 1.20493,-3.10726 3.73627,-8.9744 5.62521,-13.0381 1.88894,-4.06369 3.74169,-8.25092 4.11723,-9.30496 0.37553,-1.05404 1.37291,-2.91948 2.2164,-4.14545 0.84348,-1.22596 1.74663,-3.17713 2.00699,-4.33592 0.26037,-1.1588 0.898,-2.70768 1.41696,-3.44195 0.51896,-0.73428 1.16729,-1.70416 1.44073,-2.1553 0.27344,-0.45113 1.3491,-2.19604 2.39035,-3.87757 1.04125,-1.68152 2.57293,-4.57817 3.40372,-6.43697 0.8308,-1.85882 1.7454,-3.52481 2.03245,-3.70222 0.28705,-0.17741 1.18564,-1.63745 1.99685,-3.24455 2.76389,-5.47552 15.3592,-23.7965 20.57515,-29.92836 10.49106,-12.33325 19.96493,-20.91061 21.0884,-19.09281 0.3524,0.57019 -0.82374,2.90802 -3.32477,6.60874 -1.04172,1.5414 -2.52893,4.05777 -3.30492,5.59194 -0.776,1.53416 -3.19007,5.44503 -5.36461,8.69082 -2.17454,3.24579 -4.78458,7.55133 -5.80009,9.56786 -1.01551,2.01654 -2.69011,4.98464 -3.72132,6.5958 -4.7583,7.43432 -31.44811,59.29399 -34.41927,66.87842 -0.71362,1.82165 -1.92028,4.91719 -2.68145,6.87898 -0.76118,1.96178 -3.3064,7.71759 -5.65606,12.79069 -2.34966,5.0731 -4.2721,9.62292 -4.2721,10.11071 0,0.48779 -0.4487,1.45732 -0.99711,2.15452 -0.54841,0.69718 -1.90296,3.59959 -3.01011,6.44979 -1.10716,2.8502 -2.97182,7.24588 -4.1437,9.76817 -2.46539,5.30642 -5.5798,13.03233 -6.88114,17.07007 -2.21053,6.8587 -10.56821,29.91097 -11.18988,30.86408 -1.47952,2.26831 -4.05707,11.38856 -11.23622,39.75759 -4.10674,16.22815 -7.89357,30.48024 -8.41516,31.67132 -0.89483,2.04336 -1.51522,2.74023 -1.51522,1.702 z"
         id="path454" /><path
         style="fill:#b32037;stroke-width:0.509554;fill-opacity:1"
         d="m 221.0584,396.23666 c 0.60794,-3.0397 4.57518,-12.22897 7.94472,-18.40227 1.91212,-3.50318 5.08608,-9.46791 7.05324,-13.25496 1.96716,-3.78705 4.2844,-8.02909 5.14941,-9.42675 0.86502,-1.39767 2.55269,-4.22162 3.75038,-6.27544 5.28078,-9.05563 10.27925,-17.21277 15.05273,-24.56496 2.8271,-4.35436 5.29784,-8.54513 5.49051,-9.31281 0.19268,-0.76767 0.76082,-1.61547 1.26254,-1.88398 0.50172,-0.26851 1.71788,-1.92489 2.70258,-3.68083 0.98471,-1.75594 2.517,-3.88052 3.40509,-4.72128 0.88809,-0.84077 2.495,-3.01911 3.57091,-4.84077 3.65879,-6.19481 11.03676,-16.81798 14.4868,-20.85881 1.89157,-2.21548 4.17027,-5.13558 5.06378,-6.48912 0.89351,-1.35355 4.83729,-6.35908 8.76396,-11.12341 3.92667,-4.76433 9.19097,-11.18471 11.69845,-14.26751 2.50748,-3.0828 6.88465,-8.26009 9.72704,-11.50508 2.84239,-3.24499 5.5163,-6.56983 5.94201,-7.38853 0.42572,-0.81871 2.99156,-3.8962 5.70189,-6.83888 2.71032,-2.94267 5.24526,-5.95174 5.63321,-6.68682 0.38794,-0.73508 1.13987,-1.45014 1.67094,-1.58902 0.53107,-0.13887 2.42508,-2.17439 4.20891,-4.52336 4.31225,-5.67845 13.09823,-15.22627 14.01134,-15.22627 0.8739,0 0.94057,1.18339 0.15261,2.70865 -1.2223,2.366 -9.07591,13.70558 -14.81546,21.39155 -3.30596,4.42709 -6.01083,8.28158 -6.01083,8.56554 0,0.28395 -1.11157,1.70638 -2.47015,3.16094 -1.35857,1.45456 -3.69157,4.47905 -5.18444,6.72109 -3.90303,5.86171 -11.54698,16.31911 -27.00363,36.94267 -7.45648,9.94905 -14.93739,20.03822 -16.62427,22.42038 -1.68688,2.38217 -4.76833,6.69273 -6.84769,9.57903 -2.07936,2.88629 -4.23925,5.93614 -4.79976,6.77742 -7.40213,11.1101 -22.88898,33.08603 -26.56213,37.69182 -1.43719,1.80212 -3.43496,4.76243 -4.43949,6.57848 -1.00452,1.81604 -2.88707,4.68228 -4.18345,6.36942 -2.24217,2.91801 -6.87206,10.39035 -10.89872,17.58982 -2.90722,5.19796 -11.16194,17.18545 -12.07549,17.53602 -0.6803,0.26105 -0.77297,0.0552 -0.52754,-1.17197 z"
         id="path456" /><path
         style="fill:#b32037;stroke-width:0.509554;fill-opacity:1"
         d="m 297.97243,408.77355 c 0.14926,-0.91977 1.80415,-5.10448 3.67754,-9.29936 1.87339,-4.19488 4.18012,-9.376 5.12608,-11.51359 1.91528,-4.32802 4.73855,-9.57596 10.65612,-19.80773 2.18816,-3.78344 4.96499,-8.88844 6.17073,-11.34443 1.20575,-2.45599 2.87895,-5.15212 3.71822,-5.99139 1.51501,-1.51501 3.63429,-6.26242 3.63429,-8.14118 0,-0.53909 0.98434,-2.1929 2.18742,-3.67515 3.73629,-4.60325 9.28684,-13.11568 12.88786,-19.76505 4.89933,-9.04673 7.11515,-12.59582 9.86212,-15.79618 1.32303,-1.5414 2.83058,-3.49045 3.35011,-4.33121 0.51953,-0.84076 2.01396,-2.78981 3.32097,-4.33121 1.307,-1.5414 2.75991,-3.54538 3.22868,-4.45327 0.46876,-0.90791 3.65657,-5.12541 7.08401,-9.37222 3.42744,-4.24682 7.21455,-9.00718 8.41581,-10.57857 4.8303,-6.31865 14.45965,-18.00336 20.19544,-24.50613 17.45291,-19.78666 22.74643,-25.48471 23.67539,-25.48471 0.73026,0 -0.3916,2.32789 -2.70123,5.60509 -0.8888,1.26115 -2.72411,4.12739 -4.07847,6.36943 -1.35437,2.24204 -7.32267,10.61146 -13.26291,18.59872 -5.94024,7.98727 -14.22311,19.42911 -18.40638,25.42633 -4.18327,5.99722 -8.23652,11.37154 -9.00722,11.94296 -0.7707,0.57141 -1.40128,1.36902 -1.40128,1.77246 0,0.40345 -3.52234,6.03549 -7.82742,12.51564 -11.50008,17.31032 -13.46977,20.32876 -17.31625,26.53607 -1.91819,3.09551 -7.33085,11.24603 -12.02814,18.11228 -10.07068,14.72078 -17.11816,25.90327 -22.96106,36.43312 -2.33265,4.20382 -5.88662,10.1656 -7.89771,13.2484 -2.01108,3.08281 -4.4669,6.86625 -5.45738,8.40765 -3.26223,5.07678 -5.35343,6.55421 -4.84534,3.42323 z"
         id="path458" /></g></g></svg>
