<?xml version="1.0" encoding="UTF-8" standalone="no"?>
<!-- Created with Inkscape (http://www.inkscape.org/) -->

<svg
   width="181mm"
   height="6.5mm"
   viewBox="0 0 181 6.5"
   version="1.1"
   id="svg3876"
   inkscape:version="1.2.2 (b0a8486541, 2022-12-01)"
   sodipodi:docname="Texto_centro_educacion.svg"
   xmlns:inkscape="http://www.inkscape.org/namespaces/inkscape"
   xmlns:sodipodi="http://sodipodi.sourceforge.net/DTD/sodipodi-0.dtd"
   xmlns="http://www.w3.org/2000/svg"
   xmlns:svg="http://www.w3.org/2000/svg">
  <sodipodi:namedview
     id="namedview3878"
     pagecolor="#505050"
     bordercolor="#ffffff"
     borderopacity="1"
     inkscape:showpageshadow="0"
     inkscape:pageopacity="0"
     inkscape:pagecheckerboard="1"
     inkscape:deskcolor="#505050"
     inkscape:document-units="mm"
     showgrid="false"
     inkscape:zoom="2.7972783"
     inkscape:cx="208.77436"
     inkscape:cy="-4.4686293"
     inkscape:window-width="1920"
     inkscape:window-height="1043"
     inkscape:window-x="0"
     inkscape:window-y="0"
     inkscape:window-maximized="1"
     inkscape:current-layer="layer1" />
  <defs
     id="defs3873" />
  <g
     inkscape:label="Capa 1"
     inkscape:groupmode="layer"
     id="layer1">
    <path
       d="m 4.8993091,4.8100094 c 0,0.423227 -0.116417,0.761223 -0.349003,1.014024 -0.232692,0.252871 -0.543701,0.379271 -0.932991,0.379271 h -2.243314 c -0.38929098,0 -0.70029898,-0.1264 -0.93299198,-0.379271 -0.232586,-0.252801 -0.349003,-0.590797 -0.349003,-1.014024 v -2.089891 c 0,-0.423192 0.116417,-0.761189 0.349003,-1.013989 0.232693,-0.252907 0.543701,-0.379307 0.93299198,-0.379307 h 2.243314 c 0.38929,0 0.700299,0.1264 0.932991,0.379307 0.232586,0.2528 0.349003,0.590797 0.349003,1.013989 v 0.696595 h -2.051085 v -1.393296 h -0.640927 v 3.483292 h 0.640927 v -1.393295 h 2.051085 z m 5.1274839,1.393295 H 5.5402001 v -4.876482 h 4.4865929 v 1.393296 H 8.1040133 v -0.696701 h -0.640892 v 1.393296 h 1.92278 v 0.696701 h -1.92278 v 1.393295 h 0.640892 v -0.6967 h 1.9227797 z m 5.405508,0 h -2.115185 v -4.179887 h -0.640892 v 4.179887 h -2.05112 v -4.876482 h 3.525308 c 0.389185,0 0.700193,0.1264 0.932886,0.379307 0.232621,0.2528 0.349003,0.590797 0.349003,1.013989 z M 19.5985,2.0234174 h -0.961496 v 4.179887 H 16.714225 V 2.0234174 H 15.752693 V 1.3268224 H 19.5985 Z m 6.409514,4.179887 h -2.4142 L 22.80331,4.4617114 v -2.438294 h -0.640997 v 4.179887 H 20.239392 V 1.3268224 H 23.7647 c 0.512798,0 0.94241,0.113489 1.289015,0.340607 0.412997,0.273473 0.619583,0.673382 0.619583,1.199691 0,0.252907 -0.04748,0.500592 -0.142381,0.743091 -0.109326,0.278695 -0.254106,0.472193 -0.434516,0.580602 z m 5.127695,-1.393295 c 0,0.423227 -0.116417,0.761223 -0.349003,1.014024 -0.232692,0.252871 -0.543701,0.379271 -0.932885,0.379271 h -2.24342 c -0.38929,0 -0.700299,-0.1264 -0.932991,-0.379271 -0.232587,-0.252801 -0.348898,-0.590797 -0.348898,-1.014024 v -2.089891 c 0,-0.423192 0.116311,-0.761189 0.348898,-1.013989 0.232692,-0.252907 0.543701,-0.379307 0.932991,-0.379307 h 2.24342 c 0.389184,0 0.700193,0.1264 0.932885,0.379307 0.232586,0.2528 0.349003,0.590797 0.349003,1.013989 z m -2.051085,0.6967 v -3.483292 h -0.640927 v 3.483292 z m 9.421988,-0.6967 c 0,0.423227 -0.11631,0.761223 -0.348897,1.014024 -0.232692,0.252871 -0.543701,0.379271 -0.932991,0.379271 h -3.525308 v -4.876482 h 3.525308 c 0.38929,0 0.700299,0.1264 0.932991,0.379307 0.232587,0.2528 0.348897,0.590797 0.348897,1.013989 z m -2.11522,0.6967 v -3.483292 h -0.640891 v 3.483292 z m 7.24281,0.696595 H 39.14761 v -4.876482 h 4.486592 v 1.393296 h -1.92278 v -0.696701 h -0.640927 v 1.393296 h 1.922816 v 0.696701 h -1.922816 v 1.393295 h 0.640927 v -0.6967 h 1.92278 z m 7.00779,0 h -4.486699 v -4.876482 h 4.486699 v 1.393296 h -1.922886 v -0.696701 h -0.640892 v 1.393296 h 1.92278 v 0.696701 h -1.92278 v 1.393295 h 0.640892 v -0.6967 h 1.922886 z m 5.405402,-1.393295 c 0,0.423227 -0.116382,0.761223 -0.349003,1.014024 -0.232693,0.252871 -0.543596,0.379271 -0.932886,0.379271 h -3.525308 v -4.876482 h 3.525308 c 0.38929,0 0.700193,0.1264 0.932886,0.379307 0.232621,0.2528 0.349003,0.590797 0.349003,1.013989 z m -2.115185,0.6967 v -3.483292 h -0.640892 v 3.483292 z m 7.563308,-0.6967 c 0,0.423227 -0.116311,0.761223 -0.348897,1.014024 -0.232728,0.252871 -0.543701,0.379271 -0.933027,0.379271 h -2.243384 c -0.38922,0 -0.700193,-0.1264 -0.932886,-0.379271 -0.232621,-0.252801 -0.349003,-0.590797 -0.349003,-1.014024 v -3.483187 h 2.115185 v 4.179887 h 0.640892 v -4.179887 h 2.05112 z m 5.455285,0 c 0,0.423227 -0.116381,0.761223 -0.349003,1.014024 -0.232692,0.252871 -0.543701,0.379271 -0.932991,0.379271 h -2.243314 c -0.38929,0 -0.700299,-0.1264 -0.932992,-0.379271 -0.232586,-0.252801 -0.349003,-0.590797 -0.349003,-1.014024 v -2.089891 c 0,-0.423192 0.116417,-0.761189 0.349003,-1.013989 0.232693,-0.252907 0.543702,-0.379307 0.932992,-0.379307 h 2.243314 c 0.38929,0 0.700299,0.1264 0.932991,0.379307 0.232622,0.2528 0.349003,0.590797 0.349003,1.013989 v 0.696595 H 64.899717 V 2.0234174 H 64.25879 v 3.483292 h 0.640927 v -1.393295 h 2.051085 z m 5.789895,1.393295 h -1.92278 v -4.179887 h -0.640998 v 2.438294 l -0.79061,1.741593 H 66.97211 l 2.243384,-4.876482 h 3.525203 z m 5.519314,-1.393295 c 0,0.423227 -0.116311,0.761223 -0.348898,1.014024 -0.232692,0.252871 -0.543701,0.379271 -0.932991,0.379271 h -2.24342 c -0.389184,0 -0.700193,-0.1264 -0.932885,-0.379271 -0.232622,-0.252801 -0.349003,-0.590797 -0.349003,-1.014024 v -2.089891 c 0,-0.423192 0.116381,-0.761189 0.349003,-1.013989 0.232692,-0.252907 0.543701,-0.379307 0.932885,-0.379307 h 2.24342 c 0.38929,0 0.700299,0.1264 0.932991,0.379307 0.232587,0.2528 0.348898,0.590797 0.348898,1.013989 v 0.696595 h -2.051015 v -1.393296 h -0.640997 v 3.483292 h 0.640997 v -1.393295 h 2.051015 z m 2.563883,1.393295 h -1.922886 v -4.876482 h 1.922886 z m 5.419619,-1.393295 c 0,0.423227 -0.116311,0.761223 -0.349003,1.014024 -0.232587,0.252871 -0.543596,0.379271 -0.932921,0.379271 H 82.71831 c -0.389396,0 -0.700405,-0.1264 -0.932991,-0.379271 -0.232622,-0.252801 -0.348897,-0.590797 -0.348897,-1.014024 v -2.089891 c 0,-0.423192 0.116275,-0.761189 0.348897,-1.013989 0.232586,-0.252907 0.543595,-0.379307 0.932991,-0.379307 h 2.243279 c 0.389325,0 0.700334,0.1264 0.932921,0.379307 0.232692,0.2528 0.349003,0.590797 0.349003,1.013989 z m -2.051121,0.6967 v -3.483292 h -0.640891 v 3.483292 z M 84.840516,0.73080435 82.9177,1.0404024 V 0.34373635 l 1.922816,-0.309633 z M 91.720105,6.2033044 H 89.60492 v -4.179887 h -0.640926 v 4.179887 h -2.051085 v -4.876482 h 3.525308 c 0.38929,0 0.700299,0.1264 0.932991,0.379307 0.232587,0.2528 0.348897,0.590797 0.348897,1.013989 z m 6.089086,-4.179887 h -0.9615 v 4.179887 h -1.922776 v -4.179887 h -0.961496 v -0.696595 h 3.845772 z m 5.163219,4.179887 h -4.486699 v -4.876482 h 4.486699 v 1.393296 h -1.92282 v -0.696701 h -0.64099 v 1.393296 h 1.92292 v 0.696701 h -1.92292 v 1.393295 h 0.64099 v -0.6967 h 1.92282 z M 101.79022,0.74622035 99.867401,1.0559244 V 0.35922335 l 1.922819,-0.309598 z m 6.552,4.06378905 c 0,0.423227 -0.11642,0.761223 -0.34901,1.014024 -0.23262,0.252871 -0.54359,0.379271 -0.93292,0.379271 h -2.24338 c -0.38929,0 -0.7002,-0.1264 -0.93292,-0.379271 -0.23259,-0.252801 -0.34897,-0.590797 -0.34897,-1.014024 v -2.089891 c 0,-0.423192 0.11638,-0.761189 0.34897,-1.013989 0.23272,-0.252907 0.54363,-0.379307 0.93292,-0.379307 h 2.24338 c 0.38933,0 0.7003,0.1264 0.93292,0.379307 0.23259,0.2528 0.34901,0.590797 0.34901,1.013989 v 0.696595 h -2.05112 v -1.393296 h -0.6409 v 3.483292 h 0.6409 v -1.393295 h 2.05112 z m 5.44819,1.393295 h -2.11529 v -4.179887 h -0.64093 v 4.179887 h -2.05108 v -4.876482 h 3.52531 c 0.38929,0 0.7003,0.1264 0.93299,0.379307 0.23258,0.2528 0.349,0.590797 0.349,1.013989 z m 2.56378,0 h -1.92289 v -4.876482 h 1.92289 z m 5.44812,-1.393295 c 0,0.423227 -0.11642,0.761223 -0.3489,1.014024 -0.23272,0.252871 -0.5437,0.379271 -0.93302,0.379271 H 118.277 c -0.38918,0 -0.70019,-0.1264 -0.93288,-0.379271 -0.23262,-0.252801 -0.34901,-0.590797 -0.34901,-1.014024 v -2.089891 c 0,-0.423192 0.11639,-0.761189 0.34901,-1.013989 0.23269,-0.252907 0.5437,-0.379307 0.93288,-0.379307 h 2.24339 c 0.38932,0 0.7003,0.1264 0.93302,0.379307 0.23248,0.2528 0.3489,0.590797 0.3489,1.013989 v 0.696595 h -2.05112 v -1.393296 h -0.64089 v 3.483292 h 0.64089 v -1.393295 h 2.05112 z m 5.4482,0 c 0,0.423227 -0.11642,0.761223 -0.34901,1.014024 -0.23269,0.252871 -0.5437,0.379271 -0.93299,0.379271 h -2.24331 c -0.38929,0 -0.7003,-0.1264 -0.93299,-0.379271 -0.23259,-0.252801 -0.34901,-0.590797 -0.34901,-1.014024 v -2.089891 c 0,-0.423192 0.11642,-0.761189 0.34901,-1.013989 0.23269,-0.252907 0.5437,-0.379307 0.93299,-0.379307 h 2.24331 c 0.38929,0 0.7003,0.1264 0.93299,0.379307 0.23259,0.2528 0.34901,0.590797 0.34901,1.013989 z m -2.05109,0.6967 v -3.483292 h -0.64093 v 3.483292 z m 9.57869,-2.786591 c 0,0.428307 -0.13892,0.767609 -0.4167,1.017905 -0.2776,0.25019 -0.61831,0.375391 -1.02189,0.375391 h -0.96143 v -2.089997 h -0.64099 v 4.179887 h -1.92289 v -4.876482 h 3.52531 c 0.40827,0 0.74538,0.11871 1.01127,0.355988 0.2848,0.258092 0.42732,0.603815 0.42732,1.037308 z m 6.3953,3.483186 h -2.41431 l -0.7905,-1.741593 v -2.438294 h -0.64089 v 4.179887 h -1.92292 v -4.876482 h 3.52531 c 0.51269,0 0.94241,0.113489 1.28901,0.340607 0.413,0.273473 0.61948,0.673382 0.61948,1.199691 0,0.252907 -0.0474,0.500592 -0.14238,0.743091 -0.10922,0.278695 -0.254,0.472193 -0.43441,0.580602 z m 5.12759,-1.393295 c 0,0.423227 -0.11631,0.761223 -0.3489,1.014024 -0.23269,0.252871 -0.5437,0.379271 -0.93299,0.379271 h -2.24342 c -0.38918,0 -0.70019,-0.1264 -0.93288,-0.379271 -0.23259,-0.252801 -0.34901,-0.590797 -0.34901,-1.014024 v -2.089891 c 0,-0.423192 0.11642,-0.761189 0.34901,-1.013989 0.23269,-0.252907 0.5437,-0.379307 0.93288,-0.379307 h 2.24342 c 0.38929,0 0.7003,0.1264 0.93299,0.379307 0.23259,0.2528 0.3489,0.590797 0.3489,1.013989 z m -2.05098,0.6967 v -3.483292 h -0.64103 v 3.483292 z m 7.49918,-0.6967 c 0,0.423227 -0.11639,0.761223 -0.34901,1.014024 -0.23269,0.252871 -0.5437,0.379271 -0.93288,0.379271 H 146.942 v -4.876482 h 3.52531 c 0.38918,0 0.70019,0.1264 0.93288,0.379307 0.23262,0.2528 0.34901,0.590797 0.34901,1.013989 z m -2.11519,0.6967 v -3.483292 h -0.641 v 3.483292 z m 7.56331,-0.6967 c 0,0.423227 -0.11642,0.761223 -0.349,1.014024 -0.23273,0.252871 -0.5436,0.379271 -0.93293,0.379271 h -2.24338 c -0.38929,0 -0.70019,-0.1264 -0.93292,-0.379271 -0.23259,-0.252801 -0.34897,-0.590797 -0.34897,-1.014024 v -3.483187 h 2.11519 v 4.179887 h 0.64089 v -4.179887 h 2.05112 z m 5.45518,0 c 0,0.423227 -0.11638,0.761223 -0.3489,1.014024 -0.23269,0.252871 -0.5437,0.379271 -0.93299,0.379271 h -2.24342 c -0.38919,0 -0.70019,-0.1264 -0.93289,-0.379271 -0.23258,-0.252801 -0.349,-0.590797 -0.349,-1.014024 v -2.089891 c 0,-0.423192 0.11642,-0.761189 0.349,-1.013989 0.2327,-0.252907 0.5437,-0.379307 0.93289,-0.379307 h 2.24342 c 0.38929,0 0.7003,0.1264 0.93299,0.379307 0.23252,0.2528 0.3489,0.590797 0.3489,1.013989 v 0.696595 h -2.05109 v -1.393296 h -0.64089 v 3.483292 h 0.64089 v -1.393295 h 2.05109 z m 4.1662,-2.786592 h -0.96139 v 4.179887 h -1.92289 V 2.0234174 H 162.973 v -0.696595 h 3.8457 z m 2.56392,4.179887 h -1.92293 v -4.876482 h 1.92293 z m 6.01069,0 h -3.5253 l -2.24332,-4.876482 h 2.41431 l 0.7905,1.741593 v 2.438294 h 0.64089 v -4.179887 h 1.92292 z m 5.35559,-1.393295 c 0,0.423227 -0.11638,0.761223 -0.349,1.014024 -0.23269,0.252871 -0.54359,0.379271 -0.93289,0.379271 h -2.24341 c -0.38929,0 -0.7002,-0.1264 -0.93289,-0.379271 -0.23262,-0.252801 -0.349,-0.590797 -0.349,-1.014024 v -2.089891 c 0,-0.423192 0.11638,-0.761189 0.349,-1.013989 0.23269,-0.252907 0.5436,-0.379307 0.93289,-0.379307 h 2.24341 c 0.3893,0 0.7002,0.1264 0.93289,0.379307 0.23262,0.2528 0.349,0.590797 0.349,1.013989 z m -2.05108,0.6967 v -3.483292 h -0.64093 v 3.483292 z"
       style="fill:#000000;fill-opacity:1;fill-rule:nonzero;stroke:none;stroke-width:0.0762;stroke-linecap:butt;stroke-linejoin:miter;stroke-miterlimit:22.9256;stroke-dasharray:none;stroke-opacity:1"
       id="path52" />
  </g>
</svg>
