<?xml version="1.0" encoding="UTF-8" standalone="no"?>
<!-- Created with Inkscape (http://www.inkscape.org/) -->

<svg
   version="1.1"
   id="svg2"
   width="1730"
   height="125"
   viewBox="0 0 1730 125"
   sodipodi:docname="encabezado_certificado_equipo_pesado.svg"
   inkscape:version="1.2.2 (b0a8486541, 2022-12-01)"
   xmlns:inkscape="http://www.inkscape.org/namespaces/inkscape"
   xmlns:sodipodi="http://sodipodi.sourceforge.net/DTD/sodipodi-0.dtd"
   xmlns="http://www.w3.org/2000/svg"
   xmlns:svg="http://www.w3.org/2000/svg">
  <defs
     id="defs6" />
  <sodipodi:namedview
     id="namedview4"
     pagecolor="#505050"
     bordercolor="#ffffff"
     borderopacity="1"
     inkscape:showpageshadow="0"
     inkscape:pageopacity="0"
     inkscape:pagecheckerboard="1"
     inkscape:deskcolor="#505050"
     showgrid="false"
     inkscape:zoom="0.62827358"
     inkscape:cx="993.1979"
     inkscape:cy="452.82821"
     inkscape:window-width="2512"
     inkscape:window-height="1011"
     inkscape:window-x="0"
     inkscape:window-y="0"
     inkscape:window-maximized="1"
     inkscape:current-layer="g8" />
  <g
     inkscape:groupmode="layer"
     inkscape:label="Image"
     id="g8">
    <path
       style="fill:#000000;stroke-width:0.64"
       d="m 223.57885,114.77049 c -3.54609,-2.2008 -4.03108,-3.97484 -4.03108,-14.74513 0,-9.481671 0.27175,-11.004311 2.37323,-13.297291 1.75175,-1.91137 6.06412,-2.72581 14.43299,-2.72581 13.38671,0 15.938,1.40156 16.36685,8.99117 l 0.25138,4.44883 H 246.18 239.38777 v -4.4678 c 0,-4.23084 -0.0848,-4.48909 -1.59856,-4.86902 -3.50658,-0.8801 -3.5656,-0.66953 -3.37593,12.042301 l 0.17449,11.69452 h 2.24 2.24 l 0.18804,-4.64 0.18804,-4.64 h 6.69196 6.69196 v 4.16941 c 0,3.8541 -0.16556,4.35017 -2.18935,6.56 l -2.18936,2.39059 -11.41064,0.17993 c -10.4528,0.16483 -11.58264,0.0732 -13.45957,-1.0917 z m 35.79774,-14.60823 0.17119,-15.840001 15.52,-0.17137 15.52,-0.17138 v 4.51455 4.51455 l -6.24,-0.18317 -6.24,-0.18318 -0.32,-2.24 c -0.29606,-2.07238 -0.48762,-2.24 -2.56,-2.24 h -2.24 v 4.8 4.8 l 6.56,0.18239 6.56,0.1824 v 1.875211 1.87522 l -6.56,0.1824 -6.56,0.18238 v 4.8 4.8 h 2.24 c 2.07238,0 2.26394,-0.16761 2.56,-2.24 l 0.32,-2.24 6.24,-0.18317 6.24,-0.18317 v 4.50317 4.50317 H 274.8966 259.20541 Z m 35.20001,0 0.17118,-15.840001 12.16,-0.18609 c 12.5368,-0.19187 16.15142,0.26403 18.56,2.3409 2.69261,2.32179 2.88,3.40943 2.88,16.716511 v 12.80868 h -7.36 -7.36 v -13.78008 c 0,-14.943181 -0.0135,-14.997191 -3.52144,-14.116741 l -1.59856,0.40121 v 13.747811 13.7478 h -7.05118 -7.05118 z m 43.22366,1.92 -0.17248,-13.920001 -3.39915,-0.1948 c -3.27428,-0.18765 -3.39184,-0.25819 -3.2,-1.92 l 0.19915,-1.7252 h 13.12 13.12 l 0.20251,1.76 c 0.19356,1.68221 0.079,1.76 -2.592,1.76 -1.53698,0 -3.14011,0.3456 -3.56251,0.768 -0.5481,0.54811 -0.768,4.57956 -0.768,14.080001 v 13.312 h -6.38752 -6.38752 z m 26.15451,10.95068 c -0.5189,-3.78581 -0.53403,-26.674931 -0.0185,-28.018331 0.33572,-0.87485 2.06993,-1.01235 12.7685,-1.01235 17.181,0 21.9282,1.20797 24.28767,6.18017 1.46279,3.08262 1.01872,7.67446 -1.01894,10.536101 -1.81383,2.54728 -1.79294,2.71996 1.0545,8.71598 1.2099,2.54774 2.1998,4.89974 2.1998,5.22667 0,0.32693 0.36,0.73968 0.8,0.91723 0.44,0.17754 -3.16,0.34554 -8,0.37333 -5.65337,0.0324 -8.8,-0.1856 -8.8,-0.60981 0,-0.3632 -1.008,-2.73819 -2.24,-5.27778 -2.1732,-4.47974 -2.24,-4.84299 -2.24,-12.181731 0,-4.16037 -0.29813,-8.12137 -0.66251,-8.80223 -0.82111,-1.53425 -4.14572,-1.69351 -4.70902,-0.22558 -0.21366,0.55679 -0.38847,6.89279 -0.38847,14.080001 l -2e-5,13.06765 h -6.31301 -6.313 z m 48.87301,2.51734 c -1.70862,-0.6246 -3.92947,-3.01479 -4.85588,-5.22617 -1.11844,-2.66977 -1.2425,-16.800551 -0.17546,-19.986341 1.76141,-5.25894 4.65952,-6.35483 16.6256,-6.28681 8.44445,0.048 11.14274,0.54384 13.70859,2.5191 2.53891,1.95453 2.85724,3.4692 2.85476,13.583521 -0.002,8.55965 -0.15701,10.02227 -1.2517,11.81761 -2.20049,3.60893 -3.86869,4.03695 -15.51412,3.98055 -5.73748,-0.0278 -10.86379,-0.20845 -11.39179,-0.40146 z m 14.57544,-14.82384 c 0.19342,-12.254971 -0.0211,-13.078871 -3.32093,-12.756861 l -1.97451,0.19268 -0.1757,11.17752 c -0.0966,6.147631 -0.0269,11.565151 0.15486,12.038941 0.21653,0.56428 1.1602,0.7928 2.7357,0.66248 l 2.40514,-0.19894 z m 32.78457,-0.72418 V 84.002259 h 12.7045 c 12.81268,0 15.84043,0.41323 18.24894,2.49063 2.02347,1.74529 2.37908,3.79105 2.41576,13.897511 0.0562,15.48784 -0.10162,15.61186 -19.86593,15.61186 h -13.50327 z m 18.88,0 V 88.162259 h -2.24 -2.24 l -0.17571,11.17752 c -0.0966,6.147631 -0.0266,11.566031 0.1556,12.040881 0.20857,0.54352 1.10347,0.78895 2.4157,0.66248 l 2.08441,-0.20088 z m 19.56973,1.0567 c -0.0461,-8.218811 0.0987,-15.418811 0.32172,-16.000001 0.36128,-0.94146 2.07302,-1.0567 15.69702,-1.0567 h 15.29153 v 4.49349 4.49348 l -5.83735,-0.17348 -5.83735,-0.17349 -0.72265,-2.24 c -0.60319,-1.86972 -1.06284,-2.27288 -2.78069,-2.43891 -2.4577,-0.23753 -2.92729,0.89406 -2.61977,6.31312 l 0.19781,3.48579 6.56,0.18239 6.56,0.1824 v 1.875211 1.87522 l -6.56,0.1824 -6.56,0.18238 -0.18765,4.62087 c -0.18066,4.4488 -0.12877,4.63565 1.39381,5.01779 2.80419,0.70381 4.23384,-0.18825 4.23384,-2.64179 v -2.19687 h 6.08 6.08 v 4.48 4.48 H 514.33454 498.7213 Z m 49.87027,-1.0567 V 84.002259 h 15.36 15.36 v 4.48529 4.48529 l -5.83728,-0.16529 -5.83728,-0.16529 -0.72272,-2.24 c -0.60325,-1.8697 -1.06293,-2.27288 -2.78076,-2.43891 -2.4577,-0.23753 -2.92728,0.89406 -2.61977,6.31312 l 0.19781,3.48579 6.56,0.18239 6.56,0.1824 v 1.875211 1.87522 l -6.56,0.1824 -6.56,0.18238 -0.18765,4.62087 c -0.18066,4.4488 -0.12876,4.63565 1.39381,5.01779 2.80419,0.70381 4.23384,-0.18825 4.23384,-2.64179 v -2.19687 h 6.08 6.08 v 4.48 4.48 h -15.36 -15.36 z m 36.28182,0.48005 c 0.067,-8.536031 0.139,-15.736051 0.16,-16.000051 0.0574,-0.72157 24.32686,-0.57045 26.98541,0.16804 2.50465,0.69574 4.27933,2.07824 5.53278,4.31012 0.54317,0.96718 0.79923,4.56054 0.7976,11.193161 -0.002,8.55965 -0.15701,10.02227 -1.2517,11.81761 -2.28662,3.75018 -3.59059,4.03107 -18.71412,4.03112 l -13.63179,4e-5 z m 18.43818,-0.48005 V 88.162259 l -1.47522,-0.20912 c -3.0752,-0.43594 -3.32478,0.49042 -3.32478,12.340821 0,6.05824 0.20566,11.22062 0.457,11.47197 0.25135,0.25135 1.33135,0.37135 2.4,0.26666 l 1.943,-0.19033 z m 24.62241,14.90619 c -4.28269,-2.96032 -4.4624,-3.69003 -4.4624,-18.118461 v -12.82965 l 7.2,0.18096 7.2,0.18096 0.32,13.76 0.32,13.760001 h 2.24 2.24 l 0.32,-13.760001 0.32,-13.76 6.53363,-0.18209 6.53363,-0.1821 0.18637,12.6621 c 0.20666,14.039811 -0.24378,16.117031 -3.97267,18.319741 -2.69421,1.59147 -22.66707,1.56632 -24.97856,-0.0314 z m 38.41901,-0.32669 c -3.49895,-2.35794 -3.82151,-3.57431 -3.832,-14.45128 -0.0109,-11.427291 0.47616,-12.979021 4.67302,-14.884451 2.20205,-0.99977 4.2119,-1.21752 11.31757,-1.22614 4.752,-0.006 9.67827,0.27791 10.9472,0.63041 4.48397,1.24553 6.3328,3.9402 6.3328,9.22989 v 3.56207 h -6.72 -6.72 v -4.032 c 0,-4.48349 -0.65094,-5.568 -3.34215,-5.568 h -1.80608 l 0.17408,12 0.17415,12.000001 h 2.24 2.24 l 0.18803,-4.64 0.18803,-4.64 h 6.69197 6.69197 v 4.05337 c 0,3.68527 -0.19667,4.28101 -2.16544,6.56 l -2.16544,2.50663 -11.4425,0.19871 c -11.10125,0.19278 -11.50873,0.15404 -13.66521,-1.29921 z m 30.90457,0.9405 c 1.90759,-3.50132 11.97402,-24.593751 11.97402,-25.089431 0,-0.36881 0.288,-0.67057 0.64,-0.67057 0.352,0 0.64,-0.576 0.64,-1.28 0,-0.704 0.21971,-1.28 0.48826,-1.28 0.26854,0 0.77254,-0.648 1.12,-1.44 0.61868,-1.41023 0.8798,-1.44359 12.63174,-1.61412 l 12,-0.17412 v 16.01412 16.014121 h -6.08 -6.08 v -12.99767 c 0,-14.395451 -0.24486,-15.433531 -3.55155,-15.057231 l -1.88845,0.2149 -0.32,8.64 c -0.31443,8.489801 -0.36448,8.731701 -2.88,13.913991 l -2.56,5.274 -8.19776,0.006 c -4.5088,0.003 -8.08013,-0.20999 -7.93626,-0.47399 z m 50.83789,-0.45435 c -4.24697,-2.21531 -4.94387,-4.28719 -4.94387,-14.6976 0,-15.056301 1.78765,-16.649941 18.24,-16.260261 10.03079,0.23758 11.8473,0.78789 14.21613,4.30686 1.07482,1.59666 1.46387,3.0908 1.46387,5.62165 v 3.44701 l -6.88,-0.18165 -6.88,-0.18166 -0.32,-4.48 -0.32,-4.48 h -2.24 -2.24 v 11.840001 11.84 l 2.4,0.19864 2.4,0.19863 0.01,-4.03863 c 0.006,-2.22125 0.24519,-4.40964 0.53293,-4.8631 0.38291,-0.60358 2.22355,-0.77505 6.87015,-0.64 l 6.34713,0.18446 0.20026,3.16688 c 0.26195,4.14267 -0.8752,6.46248 -4.34266,8.85931 -1.33709,0.92425 -3.22221,1.0932 -12.16,1.08987 -7.98137,-0.003 -11.01357,-0.23134 -12.35373,-0.93041 z M 782.1078,99.979089 v -16.02317 l 6.24001,0.18317 6.24,0.18317 0.1712,15.840001 0.17113,15.84 h -6.41113 -6.41121 z m 22.69261,14.830841 c -3.79558,-2.31462 -4.1326,-3.49776 -4.1326,-14.50722 0,-10.265761 0.29248,-11.738531 2.76121,-13.902911 2.20819,-1.93595 5.99552,-2.49761 15.3977,-2.28346 10.62765,0.24206 12.20838,0.79192 14.32109,4.98153 1.27993,2.5382 1.43661,3.78313 1.40928,11.200001 -0.0352,9.49056 -0.74368,11.79291 -4.38394,14.24157 -2.04851,1.37799 -2.79085,1.46268 -12.8,1.46043 -9.22061,-0.002 -10.88282,-0.15939 -12.57274,-1.18994 z m 14.69504,-3.03614 c 0.8688,-0.33339 1.01236,-1.94861 1.01236,-11.392 0,-7.704971 -0.23021,-11.233751 -0.768,-11.771531 -1.17575,-1.17575 -3.58893,-0.91383 -4.32948,0.46993 -1.00275,1.87365 -0.8791,22.248011 0.13748,22.658221 1.15795,0.46724 2.78425,0.48182 3.94764,0.0354 z m 20.21236,-11.77153 V 84.002259 l 12.96,0.0141 c 11.34579,0.0123 13.2935,0.16548 15.63757,1.22971 4.37747,1.98745 4.68243,3.15481 4.68243,17.924461 v 12.83178 h -7.04 -7.04 v -13.06765 c 0,-7.187221 -0.17478,-13.523221 -0.38848,-14.080001 -0.45894,-1.19604 -3.49088,-1.35696 -4.60352,-0.24435 -0.5481,0.5481 -0.768,4.57956 -0.768,14.080001 v 13.312 h -6.72 -6.72 v -16 z m 57.6,2.93235 c 0,-7.187211 -0.17478,-13.523211 -0.38848,-14.080001 -0.28096,-0.73227 -1.25485,-1.01235 -3.52,-1.01235 -3.0528,0 -3.13152,-0.0482 -3.13152,-1.92 v -1.92 h 13.12 13.12 v 1.88494 c 0,1.79465 -0.1456,1.89428 -3.04,2.08 l -3.04,0.19506 -0.17248,13.920001 -0.17248,13.92 h -6.38752 -6.38752 z m 24.4688,-2.77235 0.1712,-15.840001 15.54951,-0.17144 15.5495,-0.17145 -0.1895,4.33145 -0.18951,4.33144 h -6.08 -6.08 l -0.20038,-2.07794 c -0.15277,-1.58426 -0.57062,-2.17086 -1.75859,-2.46902 -3.07111,-0.7708 -3.55431,-0.0469 -3.34925,5.01771 l 0.18822,4.64925 6.4,0.32 c 6.39463,0.31974 6.4002,0.32146 6.60032,2.057171 l 0.20032,1.73716 -6.60032,0.18284 -6.60032,0.18283 v 4.8 4.8 h 2.24 c 2.07239,0 2.26394,-0.16761 2.56,-2.24 l 0.32,-2.24 6.24,-0.18317 6.24,-0.18317 v 4.50317 4.50317 h -15.6912 -15.69113 z m 40.79361,14.74619 c -4.09786,-2.83258 -4.46241,-4.01844 -4.46241,-14.51702 0,-14.975981 1.464,-16.389171 16.9785,-16.389171 4.6368,0 9.40947,0.32879 10.60602,0.73063 4.38681,1.47329 6.15603,4.38961 5.79373,9.55035 l -0.22176,3.15902 h -6.63021 -6.63021 l -0.18803,-4.64 -0.18803,-4.64 h -2.24 -2.24 v 11.840001 11.84 h 2.24 2.24 l 0.18803,-4.64 0.18803,-4.64 h 6.63021 6.63021 l 0.27257,3.36 c 0.33831,4.17037 -1.33293,7.66486 -4.35059,9.09682 -3.1744,1.50634 -22.40179,1.41993 -24.61606,-0.11063 z m 34.02969,-13.78619 c -0.034,-8.184001 0.095,-15.384001 0.2864,-16.000001 0.316,-1.01765 1.5154,-1.12 13.12519,-1.12 20.3766,0 20.4164,0.0374 20.4164,19.191321 v 12.80868 h -7.3476 -7.3475 l -0.1725,-13.92 -0.1724,-13.920001 -1.4752,-0.20912 c -3.1531,-0.44698 -3.3248,0.31156 -3.3248,14.687491 v 13.36163 h -6.9633 -6.96319 l -0.061,-14.88 z m 38.94799,-1.12 V 84.002259 h 6.3315 c 5.1831,0 6.402,0.18362 6.72,1.01235 0.2137,0.55679 0.3885,7.75679 0.3885,16.000001 v 14.98765 h -6.72 -6.72 z m 21.7614,14.5795 c -3.499,-2.35794 -3.8215,-3.57431 -3.832,-14.45128 -0.011,-11.427291 0.4761,-12.979021 4.673,-14.884451 2.2241,-1.00975 4.2258,-1.21804 11.8181,-1.22971 13.7058,-0.0211 16.7795,1.78578 16.7795,9.86387 v 3.56207 h -6.72 -6.72 v -4.032 c 0,-4.48349 -0.651,-5.568 -3.3422,-5.568 h -1.8061 l 0.1741,12 0.1742,12.000001 h 2.24 2.24 l 0.188,-4.64 0.188,-4.64 h 6.692 6.692 v 4.05337 c 0,3.68527 -0.1967,4.28101 -2.1655,6.56 l -2.1654,2.50663 -11.4425,0.19871 c -11.1013,0.19278 -11.5088,0.15404 -13.6652,-1.29921 z m 40.301,0.32669 c -4.0979,-2.83258 -4.4624,-4.01844 -4.4624,-14.51702 0,-14.975981 1.464,-16.389171 16.9785,-16.389171 10.7808,0 14.2495,1.11629 15.7618,5.07238 0.3264,0.85381 0.6094,5.9459 0.6289,11.315761 0.054,15.05689 -0.5441,15.61186 -16.8435,15.61186 -8.8423,0 -10.7283,-0.171 -12.0633,-1.09381 z m 15.0576,-14.90619 V 88.162259 h -2.24 -2.24 l -0.1757,11.17752 c -0.097,6.147631 -0.027,11.566031 0.1556,12.040881 0.2085,0.54352 1.1035,0.78895 2.4156,0.66248 l 2.0845,-0.20088 z m 32.32,0 V 84.002259 l 12.64,0.004 c 7.2672,0.002 13.725,0.30478 15.1925,0.7122 1.4286,0.3966 3.4717,1.68321 4.64,2.922 1.7023,1.80494 2.0875,2.73085 2.0875,5.01769 0,3.81864 -0.9182,5.54397 -4.0215,7.556121 -2.2432,1.45458 -3.3289,1.70842 -7.3067,1.70842 h -4.6718 v -6.272001 c 0,-4.02489 -0.2752,-6.54715 -0.768,-7.04 -1.1758,-1.17575 -3.589,-0.91383 -4.3295,0.46993 -0.3935,0.73535 -0.6625,6.45153 -0.6625,14.080001 v 12.84207 h -6.4 -6.4 v -16 z m 39.8288,0.16 0.1712,-15.840001 12.16,-0.19974 c 16.7832,-0.27569 21.9851,0.94896 24.5655,5.78328 1.4165,2.65369 1.7304,5.50027 0.8144,7.38515 -1.07,2.20187 -2.0332,4.012661 -2.7447,5.160441 -0.5918,0.95477 -0.2204,2.21618 2.0256,6.88 1.5126,3.14098 2.8637,5.92687 3.0025,6.19087 0.1387,0.264 -3.455,0.48 -7.9861,0.48 h -8.2383 l -0.8789,-2.24 c -0.4834,-1.232 -1.1132,-2.24 -1.3995,-2.24 -0.2863,0 -0.5205,-0.3711 -0.5205,-0.82467 0,-0.45358 -0.576,-1.95447 -1.28,-3.33533 -1.0821,-2.12247 -1.28,-3.77419 -1.28,-10.683131 v -8.17248 l -1.5986,-0.40121 c -3.508,-0.88045 -3.5214,-0.82644 -3.5214,14.116741 v 13.78008 h -6.7312 -6.7312 z m 47.8336,14.74619 c -4.0979,-2.83258 -4.4624,-4.01844 -4.4624,-14.51702 0,-14.975981 1.464,-16.389171 16.9785,-16.389171 10.7808,0 14.2495,1.11629 15.7618,5.07238 0.3264,0.85381 0.6094,5.9459 0.6289,11.315761 0.054,15.05689 -0.5441,15.61186 -16.8435,15.61186 -8.8423,0 -10.7283,-0.171 -12.0633,-1.09381 z m 15.0576,-14.90619 V 88.162259 h -2.24 -2.24 l -0.1757,11.17752 c -0.097,6.147631 -0.027,11.566031 0.1556,12.040881 0.2086,0.54352 1.1035,0.78895 2.4157,0.66248 l 2.0844,-0.20088 z m 18.9053,0.94713 c 0.013,-8.279091 0.1883,-15.479091 0.3882,-16.000001 0.304,-0.79232 2.4478,-0.94713 13.1155,-0.94713 19.8153,0 20.391,0.46223 20.391,16.372521 0,9.09031 -0.1198,10.15814 -1.3305,11.85835 -2.5142,3.53093 -3.7022,3.76913 -18.7975,3.76913 h -13.7915 l 0.025,-15.05287 z m 19.1294,10.30743 c 0.9045,-1.08988 0.8584,-20.555721 -0.053,-22.294561 -0.673,-1.2843 -3.1192,-1.48672 -4.2539,-0.352 -0.8286,0.82859 -1.1458,22.320861 -0.3413,23.125341 0.7679,0.76788 3.8794,0.44737 4.648,-0.47878 z m 24.3477,3.65163 c -4.2406,-2.93122 -4.5226,-4.13556 -4.3171,-18.434181 l 0.1747,-12.15201 h 7.04 7.04 l 0.32,13.76 0.32,13.760001 h 2.24 2.24 l 0.32,-13.760001 0.32,-13.76 6.3471,-0.18446 c 4.6466,-0.13505 6.4872,0.0364 6.8702,0.64 0.2877,0.45346 0.5275,6.2285 0.5329,12.83344 0.01,11.360451 -0.068,12.126801 -1.4204,14.190721 -2.5656,3.9139 -3.6325,4.2003 -15.6462,4.2003 -9.1422,0 -11.0416,-0.1678 -12.3812,-1.09381 z m 39.6322,-0.37008 c -3.5248,-2.37282 -4.0297,-4.13879 -4.0641,-14.21611 -0.035,-10.150781 0.8845,-13.257521 4.4495,-15.040001 2.404,-1.20201 18.7759,-1.70202 22.5403,-0.68839 4.5877,1.23535 6.5797,4.05687 6.5797,9.31971 v 3.52868 h -6.72 -6.72 v -4.032 c 0,-2.28266 -0.3332,-4.3652 -0.768,-4.8 -1.1127,-1.11261 -4.1446,-0.95168 -4.6035,0.24435 -0.2137,0.55679 -0.3885,5.8793 -0.3885,11.827811 v 10.81546 l 1.5494,0.38886 c 3.4028,0.85408 3.8756,0.31027 4.0786,-4.69126 l 0.188,-4.63322 h 6.692 6.692 v 3.68 c 0,2.52008 -0.3962,4.32582 -1.2517,5.72893 -2.1928,3.59622 -3.8734,4.03107 -15.5796,4.03107 -9.8761,0 -10.6257,-0.0866 -12.6717,-1.46389 z m 39.7454,-11.37818 c 0,-7.628471 -0.269,-13.344651 -0.6625,-14.080001 -0.5184,-0.96871 -1.3536,-1.23793 -3.84,-1.23793 -3.2511,0 -3.6996,-0.4547 -2.789,-2.82765 0.3366,-0.87733 2.129,-1.01235 13.44,-1.01235 h 13.0515 v 1.92 c 0,1.84665 -0.1092,1.92 -2.8575,1.92 -2.1701,0 -3.0169,0.2978 -3.52,1.23793 -0.3935,0.73535 -0.6625,6.45153 -0.6625,14.080001 v 12.84207 h -6.08 -6.08 z m 24.32,-3.15793 V 84.002259 h 5.952 c 3.776,0 6.2327,0.28078 6.72,0.768 0.5543,0.55432 0.768,5.00623 0.768,16.000001 v 15.232 h -6.72 -6.72 z m 31.546,15.2 c -0.3358,-0.44 -2.1325,-3.968 -3.9927,-7.84 -1.8601,-3.872 -5.0765,-10.449781 -7.1477,-14.617291 -2.0711,-4.16752 -3.7656,-7.83952 -3.7656,-8.16 0,-0.32049 3.4364,-0.58271 7.6364,-0.58271 8.7633,0 8.0861,-0.43081 12.0699,7.68 1.9243,3.91795 2.0528,4.6255 2.2084,12.160001 l 0.1653,8 2.4,0.19864 2.4,0.19863 v -14.141811 -14.1418 l 6.24,0.18317 6.24,0.18317 0.1712,15.840001 0.1711,15.84 h -12.0928 c -8.9219,0 -12.2529,-0.20977 -12.7035,-0.8 z m 34.694,0.18943 c -1.7518,-0.72458 -3.9348,-3.18004 -4.7574,-5.35109 -0.3754,-0.99091 -0.6826,-5.49174 -0.6826,-10.00184 0,-14.464551 1.7335,-16.074411 17.2155,-15.987801 8.5858,0.048 11.2722,0.53673 13.8473,2.5191 2.5389,1.95453 2.8572,3.4692 2.8548,13.583521 0,8.55965 -0.157,10.02227 -1.2517,11.81761 -2.1985,3.60566 -3.8707,4.03578 -15.5141,3.9905 -5.7375,-0.0223 -11.0078,-0.27881 -11.7118,-0.57 z m 14.8955,-14.28248 c 0.1997,-12.209801 -0.1076,-13.449521 -3.258,-13.144321 l -2.0375,0.19737 -0.1757,11.17752 c -0.097,6.147631 -0.027,11.565151 0.1548,12.038941 0.2166,0.56428 1.1602,0.7928 2.7358,0.66248 l 2.4051,-0.19894 z M 811.54781,79.511029 c 0,-1.59687 0.28531,-1.8939 2.08,-2.16519 4.99827,-0.75558 6.66668,-1.0391 8.32,-1.41386 1.61549,-0.36618 1.76,-0.24236 1.76,1.50822 0,1.8141 -0.17959,1.94125 -3.68,2.60577 -2.024,0.38424 -4.76,0.83749 -6.08,1.00722 -2.2912,0.29461 -2.4,0.22469 -2.4,-1.54216 z m 508.61369,-35.58843 c -0.2495,-0.24952 -0.4536,-1.55767 -0.4536,-2.907 v -2.45333 h -4.3854 c -3.507,0 -4.8208,-0.29296 -6.56,-1.46283 -3.6809,-2.476 -4.3531,-4.72114 -4.3531,-14.53717 0,-9.55147 0.6442,-11.8709 3.9839,-14.3434 1.6008,-1.18515 2.8748,-1.36112 11.2424,-1.55294 9.8476,-0.22576 13.6837,0.33244 15.8114,2.30071 2.5384,2.3482 2.8208,3.70923 2.8208,13.59563 0,10.72353 -0.2689,11.68939 -4.0979,14.72 -0.701,0.55476 -3.1314,1.09507 -5.7575,1.28 l -4.5446,0.32 -0.32,2.56 c -0.2449,1.95891 -0.6268,2.6039 -1.6264,2.74699 -0.7185,0.10285 -1.5105,-0.0172 -1.76,-0.26666 z m 3.7064,-21.36033 v -11.84 h -2.24 -2.24 l -0.1753,11.47281 c -0.1879,12.30909 -0.092,12.69906 3.0553,12.37298 l 1.6,-0.16579 z M 5.787758,22.550889 V 6.539509 l 15.520001,0.17138 15.52,0.17138 0.190539,4 0.19054,4 h -6.43054 c -6.283461,0 -6.430539,-0.0337 -6.430539,-1.472 0,-0.8096 -0.3456,-1.8176 -0.768,-2.24 -1.175757,-1.17576 -3.58892,-0.91383 -4.329483,0.46992 -0.907935,1.69649 -0.836249,7.29234 0.105482,8.23408 0.485828,0.48583 2.927421,0.768 6.645392,0.768 5.746114,0 5.884158,0.0354 6.180374,1.58496 0.166642,0.87172 0.152216,1.73572 -0.03206,1.92 -0.184272,0.18426 -3.133451,0.33504 -6.553731,0.33504 -6.964749,0 -6.980235,0.0118 -6.999238,5.32207 -0.01134,3.16934 0.963962,4.92036 2.733778,4.90813 2.096889,-0.0145 2.876802,-0.73255 3.119734,-2.87228 l 0.217752,-1.91792 h 6.08 6.08 l 0.189242,4.32 0.189242,4.32 H 21.497 5.787758 Z m 36.480002,0.0114 v -16 l 12.960001,0.0361 c 14.591341,0.0407 16.645306,0.44787 18.857837,3.73852 1.403757,2.08778 1.462164,2.69497 1.462164,15.2 v 13.02536 h -7.027521 -7.02752 l -0.17248,-13.92 -0.17248,-13.92 -1.888442,-0.21491 c -3.306703,-0.3763 -3.551558,0.66179 -3.551558,15.05723 v 12.99768 h -6.720001 -6.72 z m 43.372482,2.08 -0.17248,-13.92 -3.36,-0.19345 c -3.249677,-0.18709 -3.36,-0.25539 -3.36,-2.08 v -1.88657 h 13.120001 13.120007 v 1.88493 c 0,1.79465 -0.14562,1.89428 -3.04,2.08 l -3.040004,0.19507 -0.17248,13.92 -0.17248,13.92 h -6.375043 -6.375041 z m 24.616348,-1.92 0.17118,-15.84 6.02651,-0.18543 c 4.38987,-0.13507 6.16874,0.0387 6.5502,0.64 0.28803,0.45398 0.5281,7.66543 0.53349,16.02543 l 0.01,15.2 h -6.73118 -6.73118 z m 18.63248,10.56 c 0.22606,-2.904 0.41275,-10.104 0.41486,-16 l 0.004,-10.72 h 12.82056 c 19.8968,0 20.46087,0.44442 20.45705,16.11792 -0.002,8.59276 -0.15652,10.05486 -1.2517,11.851 -2.2928,3.76032 -3.5669,4.03108 -18.96899,4.03108 h -13.88664 z m 19.09424,-1.44 c 0.55744,-3.16635 0.64746,-18.03581 0.12107,-20 -0.27862,-1.0397 -0.86331,-1.44 -2.10325,-1.44 -3.06767,0 -3.25336,0.71657 -3.25336,12.55466 0,11.72278 0.0252,11.81421 3.19242,11.56875 1.32458,-0.10266 1.66823,-0.55401 2.04312,-2.68341 z m 16.0415,6.25949 c 0.97143,-1.8904 10.26912,-21.07034 11.72128,-24.17949 0.98643,-2.112 2.33696,-4.632 3.00117,-5.6 l 1.20767,-1.76 h 11.79642 11.79642 v 16 16 h -6.08 -6.08 v -12.99768 c 0,-14.39544 -0.24486,-15.43353 -3.55156,-15.05723 l -1.88844,0.21491 -0.35298,8.96 c -0.35202,8.93547 -0.35997,8.97313 -2.90313,13.76 l -2.55016,4.8 -8.18668,0.17949 c -4.50268,0.0987 -8.07118,-0.0453 -7.93001,-0.32 z m 46.07178,-15.37951 0.17118,-15.84 12.35977,-0.17396 c 20.38741,-0.28695 21.24023,0.36403 21.24023,16.21305 0,8.42982 -0.12464,9.44901 -1.39209,11.38252 -2.65305,4.04726 -3.58666,4.25839 -18.83095,4.25839 h -13.71932 z m 18.26641,11.46302 c 0.62177,-0.39461 0.77364,-3.23995 0.64,-11.99021 l -0.17523,-11.47281 h -2.24 -2.24 l -0.1757,11.17751 c -0.0966,6.14763 -0.0337,11.54763 0.13991,12 0.35106,0.91482 2.78871,1.08662 4.05102,0.28551 z m 37.88718,3.28316 c -4.1229,-2.84988 -4.4624,-3.98394 -4.4624,-14.90618 0,-14.82159 1.2152,-16.0026 16.45944,-15.99643 13.96321,0.006 16.27638,1.24953 16.71362,8.98759 l 0.25138,4.44884 h -6.76418 -6.76419 l -0.18804,-4.64 -0.18803,-4.64 h -2.24 -2.24 v 11.84 11.84 h 2.24 2.24 l 0.18803,-4.64 0.18804,-4.64 h 6.69197 6.69196 v 4.07368 c 0,4.5174 -1.16304,6.69104 -4.50473,8.4191 -2.85298,1.47534 -22.13463,1.35907 -24.31287,-0.1466 z m 35.36642,-14.74618 0.17118,-15.84 15.52,-0.17138 15.52,-0.17138 v 4.17138 4.17138 h -6.35945 -6.35945 l -0.20055,-2.08 c -0.18438,-1.91228 -0.38118,-2.08 -2.44055,-2.08 h -2.24 v 4.8 4.8 l 6.56,0.18238 6.56,0.1824 v 1.87522 1.87521 l -6.56,0.1824 -6.56,0.18239 -0.187,4.5883 c -0.1689,4.14437 -0.0605,4.62844 1.12,5.00313 2.26848,0.71998 3.77315,-0.19382 3.98876,-2.42242 l 0.19824,-2.04901 6.24,-0.18318 6.24,-0.18317 v 4.50317 4.50318 H 317.1366 301.44542 Z m 35.2,0 0.17118,-15.84 h 15.04 c 14.85807,0 15.0737,0.0193 17.82606,1.59497 5.76519,3.30049 6.73484,9.25261 2.5203,15.47063 -1.28633,1.89781 -1.21687,2.21764 1.85888,8.55996 3.24311,6.68741 3.80996,6.05622 -5.42532,6.04118 l -8.13992,-0.0133 -2.52751,-5.26674 c -2.46403,-5.13445 -2.53637,-5.48378 -2.88,-13.90675 l -0.35249,-8.64 h -2.24 -2.24 l -0.17248,13.92 -0.17248,13.92 h -6.7187 -6.7187 z m 48.34366,1.92 -0.17248,-13.92 -3.68,-0.19194 c -3.73972,-0.19505 -4.19426,-0.60323 -3.29152,-2.95572 0.33666,-0.87733 2.1291,-1.01234 13.44,-1.01234 h 13.05152 v 1.88493 c 0,1.79465 -0.14561,1.89428 -3.04,2.08 l -3.04,0.19507 -0.17248,13.92 -0.17248,13.92 h -6.37504 -6.37504 z m 25.74752,-2.08 v -16 h 5.952 c 3.776,0 6.23278,0.28077 6.72,0.768 0.55431,0.55431 0.768,5.00622 0.768,16 v 15.232 h -6.72 -6.72 z m 17.28,1.01234 c 0,-8.24321 0.17481,-15.44321 0.38848,-16 0.33924,-0.88404 2.32652,-1.01234 15.68,-1.01234 h 15.29153 v 5.44 5.44 h -6.08 -6.08 v -2.43768 c 0,-3.2866 -1.17008,-4.76824 -3.55156,-4.49723 l -1.88844,0.21491 -0.18402,5.92 -0.18402,5.92 h 6.74402 6.74402 v 2.21761 2.2176 l -6.56,0.1824 -6.56,0.18239 -0.18492,5.6 -0.18492,5.6 h -6.69508 -6.69509 z m 37.90883,-0.85234 0.17118,-15.84 6.02651,-0.18543 c 4.38987,-0.13507 6.16874,0.0387 6.5502,0.64 0.28803,0.45398 0.5281,7.66543 0.53349,16.02543 l 0.01,15.2 h -6.73118 -6.73118 z m 21.80225,14.5859 c -3.53428,-2.15497 -4.03107,-3.95623 -4.03107,-14.61579 0,-11.22796 0.56669,-13.01712 4.72045,-14.90337 3.88926,-1.76614 19.97484,-1.75467 23.8771,0.017 3.3492,1.52058 4.68245,3.98195 4.68245,8.64445 v 3.55181 h -6.69196 -6.69196 l -0.18804,-4.64 -0.18804,-4.64 -2.41427,-0.19948 -2.41426,-0.19949 0.17426,12.03949 0.17427,12.03948 h 2.24 2.24 l 0.18804,-4.64 0.18804,-4.64 h 6.69196 6.69196 v 3.9012 c 0,2.92465 -0.33304,4.36891 -1.33046,5.76966 -2.41007,3.38462 -3.98693,3.76937 -15.43776,3.76674 -9.21734,-0.002 -10.67031,-0.14783 -12.48071,-1.2517 z m 31.03801,0.1341 c 0.25731,-0.616 2.98403,-6.21 6.05938,-12.43111 3.07535,-6.22111 5.59154,-11.62111 5.59154,-12 0,-0.37889 0.288,-0.68889 0.64,-0.68889 0.352,0 0.64,-0.576 0.64,-1.28 0,-0.704 0.21971,-1.28 0.48824,-1.28 0.26853,0 0.77253,-0.648 1.12,-1.44 0.6187,-1.41024 0.87981,-1.4436 12.63176,-1.61413 l 12,-0.17412 v 16.01412 16.01413 h -6.08 -6.08 v -13.312 c 0,-9.50045 -0.2199,-13.5319 -0.768,-14.08 -1.11261,-1.11262 -4.14457,-0.95169 -4.60353,0.24434 -0.21366,0.55679 -0.38847,4.32793 -0.38847,8.38031 0,7.34793 -0.007,7.38346 -2.72,13.06467 l -2.72,5.6967 -8.13938,0.003 c -7.50397,0.003 -8.10285,-0.0845 -7.67154,-1.11701 z m 45.71974,-14.72 0.17118,-15.84 12.35977,-0.17396 c 12.694,-0.17867 16.25737,0.25822 18.41947,2.25833 2.53838,2.3482 2.82076,3.70923 2.82076,13.59563 0,10.92224 -0.3395,12.0563 -4.4624,14.90618 -1.37419,0.94989 -3.41779,1.09382 -15.53118,1.09382 h -13.94878 z m 18.73118,-0.16 v -11.84 h -2.24 -2.24 l -0.17522,11.47281 c -0.188,12.30909 -0.0917,12.69906 3.05522,12.37298 l 1.6,-0.16579 z m 24.23403,14.77203 c -3.50308,-2.13608 -4.07403,-4.22126 -4.07403,-14.87905 0,-9.77702 0.2862,-11.14416 2.82436,-13.49172 2.20807,-2.04226 5.51717,-2.53205 15.55695,-2.30263 8.63344,0.19727 9.88436,0.36739 11.49326,1.56306 3.07648,2.28626 3.38579,3.61253 3.39603,14.55951 0.008,9.25214 -0.1072,10.305 -1.32103,12.00966 -2.41011,3.38462 -3.98695,3.76937 -15.43778,3.76674 -9.14126,-0.002 -10.67995,-0.15371 -12.43776,-1.22557 z m 15.44598,-14.77203 v -11.84 l -2.4,-0.19864 -2.4,-0.19863 v 11.77197 c 0,6.47458 0.20565,11.97761 0.45699,12.22896 0.25135,0.25135 1.33135,0.37135 2.4,0.26666 l 1.94301,-0.19032 z m 18.88979,0.8 c 0.006,-8.36 0.25561,-15.58787 0.55603,-16.06192 0.43878,-0.69238 3.42669,-0.81827 15.19021,-0.64 14.23661,0.21574 14.72147,0.26628 17.43002,1.81689 3.13753,1.79619 5.22176,5.18691 5.19987,8.45953 -0.0147,2.22445 -1.94477,7.09842 -3.09133,7.80703 -0.75213,0.46483 -0.55526,1.27959 1.32365,5.47827 0.70387,1.57289 1.5296,3.51689 1.83488,4.32 1.17901,3.101 2.44134,1.48638 8.56058,-10.94983 3.35846,-6.82552 6.1063,-12.72952 6.1063,-13.12 0,-0.39049 0.21971,-0.70997 0.48826,-0.70997 0.26854,0 0.77254,-0.648 1.12,-1.44 0.61868,-1.41024 0.8798,-1.4436 12.63174,-1.61413 l 12,-0.17412 v 16.01412 16.01413 h -6.08 -6.08 v -13.312 c 0,-9.50045 -0.2199,-13.5319 -0.768,-14.08 -1.11264,-1.11262 -4.14458,-0.95169 -4.60352,0.24434 -0.2137,0.55679 -0.38848,4.32035 -0.38848,8.36346 0,7.2982 -0.0192,7.39225 -2.68493,13.06765 l -2.68493,5.71655 H 681.9791 665.94025 l -0.89664,-2.08 c -0.49319,-1.144 -1.61652,-3.52 -2.49632,-5.28 -1.38458,-2.7698 -1.65076,-4.36155 -1.97959,-11.84 l -0.3799,-8.64 h -2.24 -2.24 l -0.17248,13.92 -0.17248,13.92 h -6.70752 -6.70752 l 0.01,-15.2 z m 98.55021,0.21234 c 0,-8.24321 0.17479,-15.44321 0.38848,-16 0.33626,-0.87625 2.10272,-1.01234 13.14055,-1.01234 19.76736,0 20.39245,0.49518 20.38861,16.15131 0,8.55965 -0.15706,10.02227 -1.25172,11.81761 -2.29056,3.75659 -3.57574,4.03108 -18.87411,4.03108 H 740.5078 Z m 19.05415,-1.17234 0.17408,-12 h -1.80608 c -3.16666,0 -3.34215,0.65921 -3.34215,12.55466 0,11.72686 0.0237,11.81372 3.2,11.56875 l 1.6,-0.12341 z m 21.26585,0.14862 V 6.539509 l 15.52001,0.17138 15.52,0.17138 0.19052,4 0.19053,4 h -6.43053 -6.43052 v -1.90781 c 0,-1.50078 -0.34106,-1.9934 -1.5986,-2.30902 -3.1143,-0.78164 -3.59526,-0.0711 -3.38963,5.00757 l 0.18823,4.64926 6.05817,0.18584 c 6.13843,0.18831 7.03187,0.54991 7.05203,2.85416 0.009,0.99617 -0.73312,1.12 -6.7102,1.12 h -6.72 l -0.10669,3.52 c -0.0589,1.936 -0.13063,3.99261 -0.16,4.57024 -0.0752,1.48149 1.6919,2.4127 3.64723,1.92194 1.29549,-0.32515 1.70253,-0.87124 1.85907,-2.49424 l 0.20039,-2.07794 h 6.08 6.08 l 0.18924,4.32 0.18925,4.32 H 796.53705 780.8278 Z m 53.76001,14.86282 c -4.12851,-2.7904 -4.48,-3.92737 -4.48,-14.49265 0,-15.13579 1.26112,-16.35166 16.96,-16.35166 9.43417,0 12.23187,0.56577 14.44755,2.92167 1.47603,1.56951 1.56941,2.16006 1.89651,12.00097 0.38663,11.63159 0.048,13.0125 -3.83328,15.62805 -2.0128,1.35639 -2.77209,1.44018 -12.76544,1.40861 -8.87904,-0.028 -10.88832,-0.21131 -12.22534,-1.11499 z m 15.04,-14.85144 v -11.84 h -2.24 -2.24 l -0.17568,11.17751 c -0.0966,6.14763 -0.0269,11.56603 0.15558,12.04088 0.20858,0.54353 1.10349,0.78895 2.41568,0.66248 l 2.08442,-0.20087 z m 18.88979,0.8 c 0.006,-8.36 0.25376,-15.58484 0.55187,-16.0552 0.43232,-0.68205 3.37824,-0.81162 14.55021,-0.64 13.36986,0.20539 14.10112,0.28153 16.04916,1.67102 4.15891,2.96649 5.25273,8.35207 2.44409,12.03433 -2.31705,3.03785 -4.93152,4.10985 -10.02342,4.10985 h -4.3817 v -5.95768 c 0,-6.87427 -0.65248,-8.34714 -3.55155,-8.01723 l -1.88845,0.21491 -0.17248,13.92 -0.17248,13.92 h -6.70752 -6.70752 l 0.01,-15.2 z m 40.31021,-0.81138 V 6.539509 l 15.52,0.17138 15.52,0.17138 0.19053,4 0.19053,4 h -6.43053 -6.43053 v -1.90781 c 0,-1.50078 -0.34105,-1.9934 -1.59859,-2.30902 -3.1143,-0.78164 -3.59526,-0.0711 -3.38963,5.00757 l 0.18822,4.64926 6.05818,0.18584 c 6.13843,0.18831 7.03187,0.54991 7.05203,2.85416 0.009,0.99617 -0.73312,1.12 -6.71021,1.12 h -6.72 v 4.16 c 0,2.288 -0.072,4.34461 -0.16,4.57024 -0.33331,0.85468 1.94957,1.68126 3.54055,1.28194 1.29548,-0.32515 1.70253,-0.87124 1.85907,-2.49424 l 0.20038,-2.07794 h 6.08 6.08 l 0.18925,4.32 0.18925,4.32 h -15.70925 -15.70925 z m 36.48,-0.0485 V 6.442509 l 14.88,0.23377 c 14.19386,0.223 15.01268,0.30385 17.75783,1.75341 3.33709,1.76215 4.10304,2.66342 5.10464,6.0065 0.81939,2.7349 0.11827,5.8563 -1.9913,8.86488 -0.65516,0.93434 -1.19116,2.08379 -1.19116,2.55433 0,1.49357 4.55904,10.14769 5.33548,10.12793 0.74285,-0.0189 8.10456,-14.42908 8.10456,-15.86432 0,-0.41621 0.288,-0.75674 0.64,-0.75674 0.352,0 0.64005,-0.576 0.64005,-1.28 0,-0.704 0.2212,-1.28 0.4915,-1.28 0.2704,0 1.1468,-1.51764 1.9476,-3.37254 0.8007,-1.85491 1.8117,-4.08691 2.2467,-4.96 l 0.79079,-1.58746 12.3017,-0.17381 12.3017,-0.17383 v 16.01383 16.01381 h -6.3876 -6.3875 l -0.1725,-13.92 -0.1724,-13.92 h -2.24 -2.24 l -0.32,8.35335 c -0.3195,8.33881 -0.325,8.36304 -3.1327,13.92 l -2.8127,5.56667 h -15.81468 -15.81466 l -2.65798,-5.28 -2.65792,-5.28 0.006,-8.032 c 0.006,-8.66576 -0.30055,-9.568 -3.24807,-9.568 -1.23994,0 -1.82464,0.4003 -2.10323,1.44 -0.21229,0.792 -0.38983,7.128 -0.39463,14.08 l -0.01,12.64 h -6.4 -6.4 v -16.05988 z m 89.79109,14.80579 c -3.5416,-2.15944 -4.031,-3.94716 -4.031,-14.72281 0,-11.46303 0.5755,-13.07184 5.397,-15.08638 2.8799,-1.2033 19.4355,-1.2294 22.763,-0.0359 3.3498,1.20153 5.12,4.24177 5.12,8.79382 v 3.74536 h -6.692 -6.692 l -0.188,-4.64 -0.188,-4.64 -2.4143,-0.19949 -2.4143,-0.19948 0.1743,12.03948 0.1743,12.03949 h 2.24 2.24 l 0.188,-4.64 0.188,-4.64 h 6.692 6.692 v 3.9012 c 0,2.92465 -0.3331,4.36891 -1.3305,5.76966 -2.4101,3.38462 -3.9869,3.76937 -15.4377,3.76674 -9.2174,-0.002 -10.6704,-0.14783 -12.4808,-1.2517 z m 34.5178,-14.58591 0.1712,-15.84 h 6.4 6.4 l 0.1712,15.84 0.1711,15.84 h -6.7423 -6.7424 z m 21.8022,14.58591 c -3.5416,-2.15944 -4.031,-3.94716 -4.031,-14.72281 0,-9.91355 0.2811,-11.26963 2.8243,-13.62183 2.2081,-2.04226 5.5172,-2.53205 15.557,-2.30264 8.6334,0.19728 9.8843,0.3674 11.4932,1.56307 3.0765,2.28626 3.3858,3.61252 3.3961,14.55951 0.01,9.25214 -0.1072,10.305 -1.3211,12.00965 -2.4101,3.38462 -3.9869,3.76938 -15.4377,3.76675 -9.2174,-0.002 -10.6704,-0.14783 -12.4808,-1.2517 z m 15.489,-14.74591 v -11.84 l -2.4,-0.19864 -2.4,-0.19863 v 11.77197 c 0,6.47458 0.2056,11.97761 0.457,12.22896 0.2513,0.25135 1.3313,0.37135 2.4,0.26666 l 1.943,-0.19032 z m 19.0288,0.16 0.1712,-15.84 12.48,-0.19304 c 12.82,-0.1983 16.0574,0.20413 18.2956,2.2743 2.6384,2.44023 2.8244,3.54594 2.8244,16.79005 v 12.80869 h -7.36 -7.36 v -13.78009 c 0,-14.94318 -0.014,-14.99719 -3.5214,-14.11674 l -1.5986,0.40121 v 13.74781 13.74781 h -7.0512 -7.0512 z m 52.9712,-0.16 v -16 l 12.64,0.004 c 13.7439,0.004 16.411,0.41959 18.7675,2.92522 1.4786,1.57222 1.5677,2.14312 1.8725,12.00098 0.3604,11.65623 0.015,13.08594 -3.7747,15.61747 -2.0913,1.39708 -2.6983,1.45275 -15.84,1.45275 h -13.6653 v -16 z m 18.4152,11.62302 c 0.6218,-0.39461 0.7736,-3.23995 0.64,-11.99021 l -0.1752,-11.47281 h -2.24 -2.24 l -0.1757,11.17751 c -0.097,6.14763 -0.034,11.54763 0.1399,12 0.351,0.91482 2.7887,1.08662 4.051,0.28551 z m 19.9848,-10.61068 c 0,-8.24321 0.1748,-15.44321 0.3884,-16 0.3392,-0.88404 2.3266,-1.01234 15.6801,-1.01234 h 15.2915 v 4.16 4.16 h -5.9477 -5.9476 l -0.6124,-2.08 c -0.5399,-1.83384 -0.8774,-2.08 -2.8523,-2.08 h -2.24 v 4.8 4.8 l 6.56,0.18238 6.56,0.1824 v 1.87522 1.87521 l -6.56,0.1824 -6.56,0.18239 -0.1877,4.62086 c -0.1847,4.5484 -0.1606,4.62767 1.5391,5.05425 2.3256,0.58368 3.727,-0.42599 3.9691,-2.85966 l 0.2006,-2.01545 h 6.0394 6.0395 v 4.48 4.48 h -15.68 -15.68 z m 50.7088,-0.85234 0.1712,-15.84 15.52,-0.17138 15.52,-0.17138 v 4.17138 4.17138 h -6.3595 -6.3594 l -0.2006,-2.08 c -0.1843,-1.91228 -0.3811,-2.08 -2.4405,-2.08 h -2.24 v 4.8 4.8 l 6.56,0.18238 6.56,0.1824 v 1.87522 1.87521 l -6.56,0.1824 -6.56,0.18239 -0.187,4.5883 c -0.1689,4.14437 -0.061,4.62844 1.12,5.00313 1.8901,0.59992 3.867,-0.20892 3.867,-1.58222 0,-2.98501 0.4742,-3.20921 6.7885,-3.20921 h 6.0115 v 4.48 4.48 h -15.6912 -15.6912 z m 79.4022,14.5859 c -3.7173,-2.26659 -4.031,-3.66243 -4.031,-17.93508 V 6.520349 l 7.2,0.18096 7.2,0.18096 0.32,13.76 0.32,13.76 h 2.24 2.24 l 0.1725,-13.92 0.1724,-13.92 h 6.7076 6.7075 v 13.1812 c 0,12.32196 -0.087,13.303 -1.3305,15.04966 -2.4101,3.38462 -3.9869,3.76937 -15.4377,3.76674 -9.2174,-0.002 -10.6704,-0.14783 -12.4808,-1.2517 z m 34.5178,-14.5859 0.1712,-15.84 h 6.4 6.4 l 0.1712,15.84 0.1711,15.84 h -6.7423 -6.7424 z m 17.7712,-0.16 v -16 l 12.32,0.007 c 15.58,0.009 16.6789,0.19183 19.7799,3.29291 2.1168,2.11678 2.4601,2.85769 2.4601,5.30993 0,3.81853 -0.9804,5.74174 -3.9179,7.68568 -2.0818,1.37768 -3.1859,1.62443 -7.2684,1.62443 h -4.8137 v -6.272 c 0,-6.65863 -0.4395,-7.808 -2.9855,-7.808 -1.8219,0 -2.7483,1.68671 -2.6795,4.87908 0.029,1.36451 0.02,7.16092 -0.021,12.88092 l -0.074,10.40001 h -6.4 -6.4 z m 44.0946,14.53717 c -3.6809,-2.476 -4.3531,-4.72114 -4.3531,-14.53717 0,-9.55147 0.6442,-11.8709 3.9839,-14.3434 1.6009,-1.18515 2.8748,-1.36112 11.2424,-1.55294 9.8476,-0.22576 13.6837,0.33244 15.8114,2.30071 2.5384,2.3482 2.8208,3.70923 2.8208,13.59563 0,10.92224 -0.3395,12.0563 -4.4624,14.90618 -1.3374,0.92446 -3.2302,1.09382 -12.2254,1.09382 -10.0254,0 -10.7691,-0.0849 -12.8176,-1.46283 z m 15.1929,-3.17717 c 0.3104,-0.44 0.4177,-5.84 0.2384,-12 l -0.3259,-11.2 h -2.24 -2.24 l -0.1752,11.47281 c -0.1337,8.75026 0.018,11.5956 0.64,11.99021 1.2317,0.7817 3.4669,0.63841 4.1027,-0.26302 z m 33.5125,-11.36 v -16 l 12.32,0.007 c 15.58,0.009 16.6789,0.19183 19.78,3.29291 2.1168,2.11678 2.46,2.85769 2.46,5.30993 0,3.7592 -0.8429,5.4255 -3.8191,7.55011 -2.1696,1.54887 -3.0482,1.76 -7.3232,1.76 h -4.8577 v -6.272 c 0,-4.02489 -0.2751,-6.54716 -0.768,-7.04 -1.1758,-1.17576 -3.5889,-0.91383 -4.3295,0.46993 -0.3935,0.73535 -0.6625,6.45153 -0.6625,14.08 v 12.84207 h -6.4 -6.4 v -16 z m 39.8288,0.16 0.1712,-15.84 15.52,-0.17138 15.52,-0.17138 v 4.17138 4.17138 h -6.3594 -6.3595 l -0.2005,-2.08 c -0.1844,-1.91228 -0.3812,-2.08 -2.4406,-2.08 h -2.24 v 4.8 4.8 l 6.56,0.18238 6.56,0.1824 v 1.87522 1.87521 l -6.56,0.1824 -6.56,0.18239 -0.187,4.5883 c -0.1689,4.14437 -0.061,4.62844 1.12,5.00313 2.2685,0.71998 3.7732,-0.19382 3.9888,-2.42242 l 0.1982,-2.04901 6.24,-0.18318 6.24,-0.18317 v 4.50317 4.50318 h -15.6912 -15.6911 z m 40.9654,14.56345 c -2.2555,-1.37517 -4.6279,-4.74815 -4.6318,-6.58511 0,-1.03612 0.6336,-1.12486 6.8776,-0.96 l 6.88,0.18166 0.2033,2.11669 c 0.2262,2.35522 1.2393,3.02219 3.6657,2.41319 1.5772,-0.39583 1.6207,-0.54763 1.4386,-5.02902 l -0.1876,-4.62086 -6.7534,-0.32 c -7.5223,-0.35645 -9.3971,-1.12514 -11.1079,-4.55462 -1.3967,-2.79972 -1.2769,-5.72079 0.3605,-8.78836 2.0463,-3.83364 3.6324,-4.25702 15.9486,-4.25702 10.1784,0 10.6994,0.0628 12.8719,1.55203 2.3902,1.63847 4.3015,5.4827 3.2492,6.53509 -0.33,0.32998 -3.599,0.51737 -7.2645,0.41642 l -6.6644,-0.18354 -0.32,-2.24 c -0.2961,-2.07239 -0.4876,-2.24 -2.56,-2.24 h -2.24 v 4.8 4.8 l 7.4042,0.33506 c 6.8673,0.31078 7.5169,0.45254 8.96,1.9554 3.5839,3.73247 4.2049,7.96713 1.7234,11.75266 -2.4125,3.68034 -4.3482,4.19718 -15.7093,4.19448 -8.9076,-0.002 -10.297,-0.14789 -12.1441,-1.27415 z m 30.5658,0.76549 c 0,-0.28107 1.872,-4.23815 4.16,-8.79349 2.288,-4.55534 4.16,-8.64536 4.16,-9.08895 0,-0.44357 0.288,-0.8065 0.64,-0.8065 0.352,0 0.64,-0.576 0.64,-1.28 0,-0.704 0.2212,-1.28 0.4916,-1.28 0.2704,0 1.1467,-1.51765 1.9475,-3.37255 0.8007,-1.8549 1.8117,-4.0869 2.2467,-4.96 l 0.7909,-1.58745 12.3016,-0.17382 12.3017,-0.17383 v 16.01383 16.01382 h -6.3875 -6.3875 l -0.1725,-13.92 -0.1725,-13.92 h -2.24 -2.24 l -0.32,8.35335 c -0.3194,8.3388 -0.3249,8.36304 -3.1327,13.92 l -2.8127,5.56665 h -7.9073 c -4.349,0 -7.9073,-0.22998 -7.9073,-0.51106 z m 46.08,-15.48894 v -16 l 12.96,0.0141 c 11.3458,0.0123 13.2935,0.16547 15.6376,1.2297 4.2095,1.9112 4.6824,3.43677 4.6824,15.10566 0,9.1137 -0.1195,10.1808 -1.3304,11.88144 -2.5061,3.51946 -3.7301,3.76914 -18.4778,3.76914 h -13.4718 v -16 z m 18.1876,11.77152 c 0.8676,-0.33292 1.0124,-1.92708 1.0124,-11.14765 0,-5.91755 -0.1748,-11.21474 -0.3885,-11.77153 -0.4589,-1.19603 -3.4909,-1.35696 -4.6035,-0.24434 -1.1135,1.11349 -1.0837,22.67796 0.032,23.12814 1.1579,0.46724 2.7843,0.48182 3.9476,0.0354 z m 24.675,2.78848 c -3.8495,-2.60649 -4.3635,-4.24651 -4.4158,-14.08698 -0.04,-7.59807 0.1328,-9.18901 1.2614,-11.59014 1.8755,-3.98989 3.2833,-4.46433 14.0942,-4.74959 9.7475,-0.25719 13.5601,0.29443 15.6968,2.27108 2.5384,2.3482 2.8208,3.70923 2.8208,13.59563 0,10.92224 -0.3395,12.0563 -4.4624,14.90618 -1.3374,0.92446 -3.2302,1.09382 -12.2253,1.09382 -9.9804,0 -10.7754,-0.0897 -12.7697,-1.44 z m 15.0574,-14.56 v -11.84 h -2.24 -2.24 l -0.1752,11.47281 c -0.188,12.30909 -0.092,12.69906 3.0552,12.37298 l 1.6,-0.16579 z"
       id="path293" />
  </g>
</svg>
