<?xml version="1.0" encoding="UTF-8" standalone="no"?>
<!-- Created with Inkscape (http://www.inkscape.org/) -->

<svg
   version="1.1"
   id="svg1"
   width="780.47998"
   height="209.28"
   viewBox="0 0 780.47998 209.28"
   sodipodi:docname="versace2H-N.svg"
   inkscape:version="1.2.2 (b0a8486541, 2022-12-01)"
   xml:space="preserve"
   xmlns:inkscape="http://www.inkscape.org/namespaces/inkscape"
   xmlns:sodipodi="http://sodipodi.sourceforge.net/DTD/sodipodi-0.dtd"
   xmlns="http://www.w3.org/2000/svg"
   xmlns:svg="http://www.w3.org/2000/svg"><defs
     id="defs1" /><sodipodi:namedview
     id="namedview1"
     pagecolor="#505050"
     bordercolor="#eeeeee"
     borderopacity="1"
     inkscape:showpageshadow="0"
     inkscape:pageopacity="0"
     inkscape:pagecheckerboard="0"
     inkscape:deskcolor="#505050"
     inkscape:zoom="1.1685117"
     inkscape:cx="373.97999"
     inkscape:cy="36.371052"
     inkscape:window-width="1920"
     inkscape:window-height="1043"
     inkscape:window-x="0"
     inkscape:window-y="0"
     inkscape:window-maximized="1"
     inkscape:current-layer="svg1"
     showgrid="false" /><path
     style="fill:#000000;stroke-width:0.65145"
     d="m 457.50185,195.16099 c -9.74945,-1.53788 -22.62773,-6.79169 -28.33304,-11.55866 l -2.21979,-1.85472 5.73097,-9.73061 c 3.15203,-5.35186 5.83281,-9.84904 5.95729,-9.99374 0.12453,-0.14471 1.99026,0.97422 4.14618,2.48651 4.79794,3.36556 13.58334,7.54887 17.94385,8.54424 3.96423,0.90493 10.07338,0.31898 13.80254,-1.32384 3.56964,-1.57255 5.38619,-4.51887 5.3894,-8.74117 0.003,-2.94304 -0.23425,-3.43286 -2.88263,-5.97045 -2.0249,-1.9402 -6.51458,-4.54973 -15.05843,-8.75246 -10.88147,-5.35259 -12.64826,-6.45456 -16.64829,-10.38384 -7.65095,-7.51556 -10.49193,-16.35136 -8.43824,-26.24388 2.326,-11.20429 11.78969,-20.612449 24.43057,-24.287248 3.01517,-0.876544 5.51603,-1.041884 12.0178,-0.794475 9.07061,0.345156 16.58119,2.162347 23.8451,5.769366 7.04581,3.498716 6.91274,2.406925 1.59144,13.056937 -2.56875,5.14114 -4.76085,9.44664 -4.87131,9.56779 -0.11049,0.12115 -1.46974,-0.50977 -3.02062,-1.40207 -8.79891,-5.0624 -20.71746,-6.87978 -26.21234,-3.99694 -2.8932,1.51788 -4.94558,4.80236 -4.94558,7.91457 0,4.26056 4.96268,7.83641 20.12253,14.49913 20.87695,9.1754 29.34505,21.45857 25.91447,37.5894 -2.74217,12.89373 -11.12285,21.0804 -25.19057,24.60739 -5.12922,1.28601 -17.77893,1.83361 -23.0713,0.99877 z m 207.10612,0.29091 c -8.10035,-1.16202 -17.13972,-4.37919 -23.99316,-8.53932 -5.33159,-3.23631 -14.11825,-11.74738 -17.71809,-17.16217 -13.16636,-19.80511 -11.42535,-44.3447 4.50138,-63.44658 6.58512,-7.897935 20.07749,-15.98133 31.02113,-18.584955 10.55425,-2.511002 25.76513,-1.533285 36.70897,2.359595 4.0516,1.441203 10.84691,5.088796 10.84691,5.822429 0,0.138832 -2.24184,4.747131 -4.98179,10.240671 l -4.98179,9.98825 -3.32416,-1.796 c -14.14565,-7.64269 -34.15014,-5.1008 -43.89316,5.57728 -11.58077,12.69217 -11.47141,29.60364 0.27182,42.05214 6.37459,6.75734 13.8365,9.74459 24.66227,9.87311 7.12639,0.0847 11.97696,-0.93856 17.75786,-3.74582 2.40798,-1.16932 4.42131,-2.07416 4.47401,-2.01075 0.053,0.0634 2.31345,4.55345 5.02356,9.97789 4.64331,9.29389 4.86169,9.92203 3.78869,10.8931 -2.15105,1.9467 -11.25162,5.70162 -16.91054,6.97733 -5.43875,1.22607 -19.09244,2.1208 -23.25391,1.5238 z m -468.05849,-4.33886 c -2.82959,-6.4176 -42.53724,-101.237875 -42.83624,-102.291217 -0.30685,-1.081131 0.52059,-1.142448 13.18837,-0.977182 l 13.51576,0.176323 13.19249,34.391866 c 7.25585,18.91554 13.30209,34.49894 13.43607,34.62977 0.13398,0.13085 6.08713,-15.05235 13.22922,-33.74042 7.14209,-18.68807 13.2609,-34.344761 13.59738,-34.792625 0.45315,-0.603207 3.94043,-0.814309 13.4524,-0.814309 7.06237,0 12.99638,0.155684 13.18665,0.34596 0.19029,0.19029 -5.71431,14.774634 -13.12131,32.409684 -7.40702,17.63504 -17.37324,41.37129 -22.14714,52.74728 l -8.67984,20.68354 h -9.39653 -9.39653 z m 68.55248,-50.1617 0.16669,-52.930376 30.1296,-0.169369 30.1296,-0.169364 v 10.755434 10.755455 h -18.24064 -18.2406 v 10.42321 10.42322 h 17.58917 17.58917 v 10.74894 10.74893 h -17.60531 -17.60531 l 0.17901,10.58608 0.17898,10.58607 18.07777,0.17317 18.07776,0.17317 v 10.41291 10.41289 h -30.29629 -30.29629 z m 74.75781,-0.24186 V 87.537228 l 22.31219,0.341958 c 24.62645,0.37742 27.42606,0.745441 34.62912,4.552179 8.39481,4.436588 13.39057,11.785895 14.85871,21.858805 2.25828,15.49396 -5.21177,29.57172 -18.38106,34.64022 -1.25404,0.48265 -2.3867,0.95801 -2.51704,1.05635 -0.13032,0.0984 7.49164,9.50993 16.93773,20.91459 9.44607,11.40468 17.57702,21.24081 18.06875,21.85809 0.84097,1.05563 -0.0104,1.12192 -14.33191,1.11585 l -15.226,-0.007 -16.12341,-20.90696 -16.12341,-20.90697 v 20.91341 20.9134 H 351.9116 339.85977 Z m 34.13114,-6.13317 c 6.28655,-0.90872 9.15079,-2.68313 11.24694,-6.96752 1.46856,-3.00164 1.65471,-4.05569 1.36147,-7.70898 -0.69203,-8.62121 -5.06252,-11.98342 -16.28423,-12.52734 l -6.35165,-0.30788 v 14.09327 14.09329 l 2.76866,-0.013 c 1.52278,-0.008 4.78925,-0.30497 7.25881,-0.66194 z m 133.635,56.86247 c 0.5413,-1.34361 10.1607,-25.16229 21.37646,-52.93037 l 20.39227,-50.487446 11.07566,-0.177758 11.07564,-0.177743 20.94785,51.968087 c 11.52129,28.58246 21.13436,52.48743 21.3624,53.12215 0.38907,1.08328 -0.37714,1.14322 -12.49144,0.9772 l -12.90604,-0.17689 -3.72484,-10.00867 c -2.04865,-5.5048 -3.98903,-10.27292 -4.31195,-10.59583 -0.33047,-0.33046 -9.21655,-0.51168 -20.32664,-0.41453 l -19.7395,0.17259 -3.93587,10.58607 -3.93586,10.58607 h -12.92117 -12.92116 z m 64.6241,-40.71568 c -0.17441,-0.44787 -2.73273,-7.1171 -5.68517,-14.8205 -2.95243,-7.7034 -5.57571,-14.23435 -5.82952,-14.51322 -0.39375,-0.43262 -11.78565,28.2824 -11.7666,29.65946 0.003,0.26872 5.31487,0.48858 11.80256,0.48858 9.17148,0 11.72528,-0.18116 11.47873,-0.81432 z m 143.00448,-9.77176 0.16663,-52.930376 30.12962,-0.169369 30.12965,-0.169364 v 10.755434 10.755455 h -18.24072 -18.24056 v 10.42321 10.42322 h 17.58916 17.58916 v 10.74894 10.74893 h -17.60532 -17.60525 l 0.17889,10.58608 0.1791,10.58607 18.07775,0.17317 18.07779,0.17317 v 10.41291 10.41289 h -30.29634 -30.29624 z m -541.37,-85.158549 c -11.76207,-4.232528 -18.3407,-15.592455 -15.50391,-26.772024 2.58746,-10.196864 11.38763,-17.360646 22.17685,-18.053055 4.88135,-0.313268 11.76058,1.028336 14.50986,2.829727 l 1.476,0.9671 -2.03292,4.055677 c -1.11809,2.230614 -2.0742,4.107264 -2.12466,4.170344 -0.0506,0.0631 -1.84746,-0.478044 -3.99335,-1.202499 -13.59316,-4.589022 -25.31293,8.990559 -17.05526,19.761761 4.56143,5.94987 11.54127,7.188155 20.00826,3.54965 0.7418,-0.318774 1.52335,0.647391 3.08421,3.812616 l 2.09062,4.239578 -1.45556,0.92999 c -4.73724,3.02668 -15.17976,3.870333 -21.18014,1.711135 z m 567.48015,0.38449 c -9.27771,-3.030522 -15.21343,-11.398257 -15.26632,-21.521225 -0.0289,-5.51683 0.38666,-7.476584 2.46725,-11.639565 2.10907,-4.219855 6.10086,-8.061818 10.53712,-10.141705 3.12569,-1.4654 4.56178,-1.725016 9.54244,-1.725016 6.71128,0 9.87466,1.176569 14.78537,5.499133 11.90133,10.475995 9.08648,31.278049 -5.1767,38.256372 -4.33053,2.118777 -12.42949,2.728746 -16.88916,1.272006 z m 11.77568,-9.780041 c 6.82822,-2.852996 9.01575,-15.014364 3.9059,-21.713763 -4.31531,-5.657676 -13.71298,-5.437273 -17.54156,0.411434 -4.76723,7.282501 -2.9053,17.849895 3.72016,21.114791 2.66526,1.313388 7.02368,1.395801 9.9155,0.187538 z M 277.97195,33.950546 V 11.475491 h 13.029 13.02901 v 4.560145 4.560171 h -7.8174 -7.81741 v 4.560158 4.560143 h 7.4917 7.49166 v 4.234438 4.234424 h -7.49166 -7.4917 v 4.539486 4.539486 l 7.65456,0.183525 7.65454,0.183538 0.19261,4.397305 0.19265,4.39729 h -13.05878 -13.05878 z m 117.26113,4.560157 V 20.595807 h -5.21161 -5.2116 v -4.560171 -4.560145 h 15.63482 15.63481 v 4.560145 4.560171 h -5.21159 -5.21161 V 38.510703 56.4256 h -5.21161 -5.21161 z M 497.51087,33.950546 V 11.475491 h 9.34248 c 6.06713,0 10.39004,0.315256 12.33041,0.899229 6.55653,1.973218 9.59674,6.020676 9.59674,12.776206 0,9.42504 -4.52296,13.651856 -15.3091,14.306712 l -5.86304,0.355961 -0.18233,8.306008 -0.18232,8.305993 h -4.86643 -4.86641 z m 17.23193,-3.202102 c 4.04936,-1.691931 4.83416,-5.77594 1.71024,-8.899849 -1.64942,-1.649432 -2.3904,-1.904243 -5.53732,-1.904243 h -3.6331 v 5.863053 5.863055 h 2.62674 c 1.44469,0 3.61973,-0.414912 4.83344,-0.922016 z m 96.77191,3.202102 V 11.475491 h 9.00209 c 10.62931,0 14.49497,0.896243 17.48416,4.053717 2.97598,3.143501 3.64338,4.842847 3.64338,9.276688 0,5.162726 -1.81872,8.843988 -5.5502,11.234042 -1.51573,0.970813 -2.86857,1.841203 -3.00635,1.934212 -0.22325,0.150674 3.01952,4.150855 12.18533,15.031322 l 2.88113,3.420128 h -6.4965 -6.49652 l -6.77451,-8.788504 -6.7745,-8.788491 -0.18126,8.788491 -0.18119,8.788504 h -4.86755 -4.86751 z m 18.07778,-4.576739 c 2.0135,-2.314261 1.95521,-5.742011 -0.13324,-7.830443 -1.27514,-1.27516 -2.26469,-1.599012 -4.88587,-1.599012 h -3.28687 v 5.953804 5.953791 l 3.42011,-0.39672 c 2.56246,-0.297233 3.7877,-0.819191 4.88587,-2.08142 z"
     id="path293" /><g
     id="g1"
     transform="matrix(1.019844,0,0,1.019844,-5.6456292,4.9725547)"
     style="fill:#000000"><path
       style="fill:#000000;fill-opacity:1;stroke-width:0.0232878"
       d="m 89.904697,169.86564 c -2.02835,-4.0219 -7.1082,-11.22285 -10.52894,-14.9253 -2.92762,-3.16872 -6.12647,-5.04612 -13.07434,-7.67334 -9.77668,-3.69688 -12.27031,-3.95304 -25.85479,-2.65598 -8.91267,0.851 -11.43665,0.67444 -15.05673,-1.05327 -4.52708,-2.16057 -7.51357,-6.52883 -7.51357,-10.98988 0,-0.81987 0.40444,-2.68796 0.89874,-4.15135 l 0.89873,-2.6607 -0.84774,-1.60327 c -0.46624,-0.88181 -1.34701,-2.54063 -1.95726,-3.68626 -0.74979,-1.40761 -1.10954,-2.73617 -1.10954,-4.09759 0,-1.76926 0.1676,-2.14605 1.3761,-3.09379 l 1.37609,-1.07918 -1.48194,-1.2232 c -1.42133,-1.17318 -1.47596,-1.32165 -1.33571,-3.62978 0.13839,-2.27731 0.23733,-2.46685 1.8421,-3.52883 2.04383,-1.35255 2.52501,-2.45968 2.17591,-5.006623 -0.24342,-1.77597 -0.53624,-2.15871 -3.73638,-4.88361 -5.02447,-4.278332 -6.1899805,-6.082642 -5.25487,-8.134992 0.51864,-1.13828 5.98284,-5.95946 9.37026,-8.26758 2.99943,-2.04375 7.09003,-5.96205 8.44282,-8.08722 0.85842,-1.34855 1.19825,-2.42208 1.19825,-3.78536 0,-1.75761 -0.17533,-2.06657 -2.29586,-4.04537 -3.75094,-3.50025 -3.17584,-5.70859 0.89422,-3.4338 1.08457,0.60618 2.10352,0.95418 2.26435,0.77335 0.16082,-0.18085 0.51419,-1.28149 0.78526,-2.44587 1.16812,-5.0176 4.10905,-13.10667 6.64111,-18.26651 5.84751,-11.91604 15.14228,-21.47754 26.7791,-27.54758 2.496,-1.3019804 4.73479,-1.8125204 4.73099,-1.0788804 -9.3e-4,0.17465 -1.45244,2.1276404 -3.22562,4.3399804 -6.45795,8.05733 -9.32448,13.03855 -11.85483,20.6004 -5.06624,15.14022 -5.75659,33.13685 -1.85722,48.41589 2.58398,10.124942 8.52804,22.117775 15.75103,31.779575 1.47012,1.96647 3.17557,4.34979 3.78992,5.29626 0.61434,0.94646 2.49165,3.51869 4.17179,5.71607 1.68014,2.19737 3.40688,4.68488 3.83719,5.5278 0.43032,0.84292 2.0624,3.41516 3.62683,5.71608 4.11041,6.04547 6.78217,11.96943 8.47503,18.79123 1.22901,4.95266 1.4187,6.42579 1.42025,11.02991 0.002,5.29233 -0.25396,6.33002 -1.56009,6.33002 -0.30014,0 -1.29043,-1.47664 -2.20064,-3.28145 z"
       id="path11-0" /><path
       style="fill:#000000;fill-opacity:1;stroke-width:0.0232878"
       d="m 105.94811,140.03273 c -1.51266,-0.94744 -3.7437,-2.06442 -4.9579,-2.48216 -5.742073,-1.97556 -14.775163,-8.7005 -23.562533,-17.54179 -8.97209,-9.02714 -16.01098,-22.794223 -20.42548,-39.949305 -3.94734,-15.33968 -1.82977,-39.44676 4.59885,-52.35471 3.62498,-7.27855 8.06287,-12.40058 14.29566,-16.49944 7.57811,-4.9835904 10.29638,-5.8451704 18.61735,-5.9008904 l 5.29266,-0.0355 3.810723,1.90281 c 3.15254,1.57415 4.50546,2.59754 7.83313,5.9252204 4.72658,4.72659 6.84167,8.20564 9.15801,15.0639 1.43933,4.26155 1.56244,5.00724 1.56741,9.49405 0.006,5.5343 -0.80458,8.55777 -4.00283,14.92788 -3.24206,6.45737 -5.94624,9.52422 -10.49263,11.89983 -5.38636,2.81454 -9.484533,3.41718 -14.767603,2.17161 -5.65299,-1.33277 -8.45758,-3.73411 -10.84103,-9.28224 -1.34873,-3.13951 -1.54761,-4.05185 -1.6386,-7.51686 -0.0949,-3.61462 -3e-5,-4.15488 1.13727,-6.47491 3.43252,-7.00214 11.0664,-10.59075 15.93034,-7.48866 1.7528,1.11788 4.074173,4.29968 3.532303,4.84156 -0.13165,0.13165 -1.414153,-0.31641 -2.849993,-0.99568 -3.0491,-1.44248 -4.9856,-1.5488 -7.62246,-0.41851 -7.97838,3.41993 -8.77293,12.26155 -1.72862,19.23586 3.98827,3.94864 6.2735,4.64781 11.832483,3.62019 3.24777,-0.60039 6.19,-2.1185 8.41169,-4.34019 4.81545,-4.81546 7.76531,-14.62751 6.65823,-22.14712 -0.70386,-4.78075 -2.00805,-7.12791 -6.12708,-11.02692 -5.44442,-5.1536 -10.212233,-7.31459 -16.160443,-7.32464 -5.03835,-0.008 -12.41276,2.53118 -15.07241,5.19084 -1.98441,1.9844 -5.6792,7.50705 -8.14492,12.17431 -4.83271,9.14765 -6.71454,18.02714 -6.77271,31.95743 -0.0479,11.46739 1.41012,18.85132 5.65467,28.637642 2.83572,6.538083 11.76432,19.274253 17.2198,24.563103 5.53076,5.36186 16.576923,14.90684 18.585803,16.06001 1.18065,0.67772 2.54935,1.66211 3.04154,2.18754 1.45494,1.55314 2.05936,3.80641 0.98659,3.6779 -0.13584,-0.0163 -1.48461,-0.80478 -2.99727,-1.75223 z"
       id="path12-2" /><path
       style="fill:#000000;fill-opacity:1;stroke-width:0.0232878"
       d="m 114.39674,133.78525 c -3.81716,-0.70507 -7.62524,-5.03368 -10.14929,-11.5366 -6.763243,-17.42476 -11.364273,-36.394845 -10.394983,-42.858565 0.38078,-2.53927 2.11156,-4.05137 4.63729,-4.05137 1.42564,0 2.034523,0.25141 2.967653,1.2254 1.28715,1.34349 1.55566,2.16415 6.1825,18.895992 4.89524,17.702563 9.21142,29.204753 10.29202,27.427273 0.11306,-0.18597 1.94846,-7.67375 4.07868,-16.63952 6.48482,-27.293535 10.29183,-41.330905 15.51832,-57.219655 3.16924,-9.63462 4.20973,-11.22558 6.71326,-10.26489 1.7157,0.65838 1.61527,1.60694 -1.03692,9.79462 -5.0689,15.64835 -7.93486,27.47751 -13.54201,55.894115 -4.02655,20.40625 -4.801,23.43852 -6.58295,25.77475 -2.01965,2.64793 -5.62169,4.124 -8.68357,3.55845 z"
       id="path13-8" /><path
       style="fill:#000000;fill-opacity:1;stroke-width:0.0232878"
       d="m 96.221617,178.67672 c -1.01535,-0.78024 -1.03158,-0.87783 -0.57944,-3.48373 0.5646,-3.25405 5.534743,-16.00799 7.744583,-19.87345 1.85722,-3.24868 7.37524,-10.30985 9.36531,-11.98438 1.89414,-1.59382 6.38346,-3.79313 10.14888,-4.97193 4.21489,-1.31951 13.42979,-1.44199 16.59536,-0.22057 3.63872,1.40397 4.82103,4.56715 3.55466,9.51025 -2.55988,9.99216 -8.69979,14.63035 -22.49,16.98931 -3.87036,0.66206 -5.89451,1.26645 -8.61786,2.57321 -4.63971,2.22629 -6.33195,3.61348 -9.8523,8.07629 -3.542583,4.49097 -4.049503,4.78332 -5.869193,3.385 z"
       id="path14-7" /><path
       style="fill:#000000;fill-opacity:1;stroke-width:0.0232878"
       d="m 100.18922,189.44548 c -1.149523,-1.7544 -0.649483,-5.5161 1.12278,-8.4465 2.25558,-3.72954 5.6684,-7.61213 8.0143,-9.11749 2.32558,-1.49233 7.7814,-3.39194 9.74191,-3.39194 2.99244,0 4.66133,2.07108 4.66133,5.78465 0,4.07076 -3.3693,7.751 -9.04139,9.87579 -4.82306,1.80673 -6.86966,2.78463 -9.82999,4.6969 -3.00756,1.94277 -3.72769,2.0351 -4.66894,0.59859 z"
       id="path15-9" /><path
       style="fill:#000000;fill-opacity:1;stroke-width:0.0232878"
       d="m 87.261857,180.07082 c -11.51243,-7.88434 -21.76534,-8.9668 -32.70865,-3.45322 -3.19724,1.61086 -7.16435,2.44068 -11.71242,2.44993 -4.38503,0.009 -7.9024,-0.84524 -10.94106,-2.65691 -5.51909,-3.29052 -8.46125,-7.25668 -8.83474,-11.90959 l -0.21047,-2.62203 2.69771,-2.44184 c 2.8701,-2.59786 7.21107,-5.60703 10.69956,-7.41692 2.02311,-1.04963 2.43928,-1.10216 8.70527,-1.09895 5.82252,0.003 7.04476,0.13292 10.60978,1.12797 7.80239,2.17775 16.8098,7.56523 24.03252,14.37426 7.92345,7.46963 13.2546,14.75948 11.5598,15.80693 -0.21507,0.13292 -1.96885,-0.83892 -3.8973,-2.15963 z"
       id="path16-8" /><path
       style="fill:#000000;fill-opacity:1;stroke-width:0.0232878"
       d="m 91.220427,191.60339 c -1.2293,-0.98157 -3.13467,-2.10709 -4.23413,-2.50114 -2.51123,-0.90006 -7.82826,-0.93397 -13.00776,-0.083 -4.66332,0.7662 -9.06471,0.81334 -11.37286,0.1218 -3.29524,-0.98728 -6.59273,-5.43573 -6.61288,-8.92108 -0.0117,-1.96619 1.2756,-3.40959 3.64147,-4.08396 2.66748,-0.76035 12.44469,-1.07732 14.82292,-0.48054 7.02653,1.76319 12.94393,6.81625 18.95751,16.18839 1.1502,1.79257 0.22491,1.69115 -2.19427,-0.24051 z"
       id="path17-0" /></g></svg>
